<?xml version="1.0" encoding="utf-8"?>
<!-- Generator: Adobe Illustrator 24.2.1, SVG Export Plug-In . SVG Version: 6.00 Build 0)  -->
<svg version="1.1" id="Layer_1" xmlns="http://www.w3.org/2000/svg" xmlns:xlink="http://www.w3.org/1999/xlink" x="0px" y="0px"
	 viewBox="0 0 329.2 362.1" enable-background="new 0 0 329.2 362.1" xml:space="preserve">
<g>
	<path fill="#66BB34" d="M175.8,275.5c0.9-0.3,1.7-0.7,2.4-1c0.1,0,0.2-0.1,0.2-0.1c0.7-0.3,1.4-0.7,2.1-1c0.1,0,0.1-0.1,0.2-0.1
		c0.6-0.3,1.2-0.6,1.7-0.9c0.1,0,0.1-0.1,0.2-0.1c0.5-0.3,1-0.6,1.4-0.8c0,0,0.1-0.1,0.1-0.1c0.4-0.3,0.7-0.5,1-0.7
		c0,0,0.1,0,0.1-0.1c0.3-0.2,0.5-0.4,0.7-0.5c0,0,0,0,0.1,0c0.2-0.1,0.3-0.2,0.3-0.3c0,0,0,0,0,0c0,0,0,0,0,0s4.9-17.6-10.9-24.6
		c-2-0.9-4.8-2.6-8-4.9c30.6,10.5,34.6,6.3,34.1,1.2c0,0,2.4-12.4-9.1-19.7c1.9,0,3.7,0,5.5-0.1c-1-0.5-2-1.1-3-1.6
		c2.3,0.5,4.4,1,6.2,1.5c10.5-0.8,17.9-3.4,13.2-11.9c0,0-0.3-0.7-0.9-1.9c5.6,4,12.3,10.4,11.2,18.3c-1.6,11.4-2.2,10.5-2.4,9.9
		c0.2,0.9,2.3,8.6,0.6,16.1c-1.8,8-7.4,12.8-7.4,12.8s1.3,11.5-4.1,17c-5.5,5.5-13.3,6.9-13.3,6.9s-19.9-4.5-23.6-12.6
		c0.5-0.2,0.9-0.3,1.4-0.5C175.6,275.5,175.7,275.5,175.8,275.5z"/>
	<path fill="#00A9DF" d="M58.9,119.2c-1.8-30.3,0.6-35.8,4.9-43.1c4.2-7.3,17-2.4,28.5,10.9s10.9,68.5,10.9,68.5c0,0,0,0.1,0,0.1
		c-5,3.9-6.6,9.2-7.9,12c-1.9,4.1-6.3,18.1,7.1,34.8c8.2,10.2,23.1,21.4,49.3,32c5.9,2.3,11,4.2,15.6,5.7c3.3,2.3,6,4,8.1,4.9
		c15.8,7,10.9,24.6,10.9,24.6s-27.3,25.4-92.8-7.1C15.8,215.5,60.7,149.6,58.9,119.2z"/>
	<path fill="#FFCF59" d="M95.3,167.7c2.9-6.3,7.1-24.9,48.1-12.9c-0.3,1.1-0.6,2.1-1,3.1c-3.5,7.8-12.5,12.6-20.9,11.1
		c3.4,3.7,4.1,9.3,2.7,14.1c-1.4,4.8-4.6,8.9-8.3,12.2c-3.2,2.9-7,5.4-11.1,6.7c-0.7,0.2-1.5,0.4-2.3,0.5
		C89,185.8,93.4,171.9,95.3,167.7z"/>
	<path fill="#0C1719" d="M121.4,169c8.4,1.5,17.4-3.4,20.9-11.1c0.4-1,0.8-2,1-3.1c2.6,0.8,5.4,1.6,8.3,2.6
		c48.8,17,62.5,52.2,62.5,52.2c5.2,9.3-4.2,11.6-16.4,12c-22.1-11.8-59.5-38.4-75.6-51.4C122,169.8,121.8,169.4,121.4,169z"/>
	<path fill="#F4887A" d="M104.7,202c4.2-1.3,7.9-3.8,11.1-6.7c3.7-3.3,7-7.4,8.3-12.2c1.3-4.3,0.7-9.3-1.9-12.9
		c16,13.1,53.5,39.7,75.6,51.4c-1.8,0.1-3.6,0.1-5.5,0.1c11.5,7.3,9.1,19.7,9.1,19.7c0.6,5.8-4.9,10.5-49.7-7
		c-26.2-10.6-41.1-21.8-49.3-32C103.1,202.4,103.9,202.2,104.7,202z"/>
	<ellipse fill="#E6ACD0" cx="75" cy="96.9" rx="4.2" ry="6.2"/>
	<path fill="#E6ACD0" d="M63.3,90.6c0,0,1.8-9.4-4-9.4s-18.7-3.1-36.6,0s-24.5,5.4-22.3,5.8s15.6,0,27.2,3.6s35.9,20.9,36,18.6
		c0.5-9.8-2.1-11.3-3.9-13C58,94.6,63.2,95.2,63.3,90.6z"/>
	<path fill="#F04663" d="M148.8,94.7c0,0-5.8,0,0,5.8c5.8,5.8,13.4,12.9,9.4,14.7c-4,1.8-27.5,0.2-36.8-5.9
		c-6.8-4.5-17.2-9.1-23.5-9.4c-1.5-5.5-3.3-10-5.7-12.8C82.3,75.6,71.5,70.4,66,73.9c-0.1-0.5-0.2-0.8-0.2-1.1
		c0,0,52.8-11.1,86.2,1.8s56.6,29.5,55.7,32.6s-12.9,5.4-29,0S148.8,94.7,148.8,94.7z"/>
	<path fill="#FBB485" d="M143.4,313.8c20.2-4,21.1-8.5,20.2-17.4c-0.5-4.6-5.4-11.6-10-17.3c9.4,0,16.7-1.7,21.9-3.6
		c6.5,9.4,17.4,30,4.1,37.8c-17.4,10.3-19.6,13.7-19.2,20.9c0.4,7.2,2.2,18.8,3.6,21.5c-4.5-0.9-8.5-5.8-7.6-15.6
		c0.9-9.8-0.1-20.1-0.1-20.1s-12.1,9.4-12.9,20.1c-0.8,10.7,3.5,22.8,0,21.9c-3.5-0.9-9.3-9.4-6.6-16.1c2.7-6.7,6.5-17.9,6.6-22.3
		c0.1-4.5-7.5-1.3-9.3,3.6s-5.8,14.7-5.8,14.7S123.2,317.8,143.4,313.8z"/>
	<path fill="#FBB485" d="M93,291c12.6-3.6,12.6-14.3,9.2-24.4c9.2,4.1,17.7,7,25.3,9c1.1,6,1.6,12.1,0.2,15.4
		c-3.4,8.5-11.9,8.5-17.7,14.7c-5.8,6.2-12.1,18.7-11.6,22.3s0,7.8,0,7.8s-8.9,2,0-26.1c-4.4-8.9-10.7,3.6-10.7,3.6
		s-6.2,21.4-6.2,25.4c-1.8,3.1-0.9-2.6-2.2-2.9c-1.3-0.2-0.9-21.2,6.7-30.1c-4.5-3.1-10.7-2.2-15.2,6.2c-4.5,8.5-9,16.5-9,16.5
		s-5.9-0.4,0-10.7S66.7,298.6,93,291z"/>
	<path fill="#F28707" d="M220.8,214.6c-0.7-0.9-1.4-1.7-2.2-2.5c6.6-21.9,21.4-79.3,17.2-143.9C247.5,3.6,246.6-4.9,262.6,2
		c16.1,7,17.9,55.1,13.4,70.8c-4.5,15.6-14.3,60.6-14.3,60.6l-1.7,11.2c-9.8,15.2-18.9,29.6-18.9,29.6l-10.4,26.4
		C227.1,205.9,223.6,210.8,220.8,214.6C220.8,214.6,220.8,214.6,220.8,214.6z"/>
	<path fill="#EE3383" d="M224.5,225.9c0.3-2.3-0.1-4.5-0.9-6.6l17.7-45.1c0,0,35.7-57.3,42.4-63.4c6.7-6.2,18.3,3.5,27.2,12.9
		c8.9,9.4-14.3,45.1-44.6,76.2c-19.8,20.3-35.3,31-43.7,36C222.9,235.2,223.5,232.9,224.5,225.9z"/>
	<path fill="none" stroke="#00A3A5" stroke-width="3.5706" stroke-miterlimit="10" d="M215.2,264.8c0,0,0.1,0.6,0.1,1.6
		C215.3,265.4,215.2,264.8,215.2,264.8z"/>
	<path fill="#0057A3" d="M216,264.1c1.6-1.6,5.3-5.9,6.7-12.1c1.7-7.5-0.3-15.2-0.6-16.1c0,0,0,0.2,0.1,0.3c0,0,0,0,0.1,0
		c0.1,0.1,0.3,0,0.5-0.6c-0.1,0.2-0.1,0.3-0.2,0.4c6.6-3.9,17.7-11.5,31.8-24.5c12.4-4.8,23.7-9.2,29.3-11.5
		c15.6-6.4,38.8-6.1,38.8-6.1s26.8-6.2-25.9,35c-24.8,20.9-47.3,30.3-63.3,34.6C226.2,262.1,221.1,262.5,216,264.1z"/>
	<path fill="#F47190" d="M211.1,281.8c5.5-5.5,4.1-17,4.1-17s0.3-0.3,0.7-0.7c8-2.4,15.9-2.1,30.9,2.6c29.2,9.2,39,9,42.5,18.4
		c2.1,5.6-19.6,13.1-29.5,13.1c-7.5,0-39.2-1.6-59-10.4C203.7,286.9,207.8,285.1,211.1,281.8z"/>
</g>
<circle fill="#0C1719" cx="73.9" cy="98" r="2"/>
</svg>
