<?xml version="1.0" encoding="utf-8"?>
<!-- Generator: Adobe Illustrator 24.2.1, SVG Export Plug-In . SVG Version: 6.00 Build 0)  -->
<svg version="1.1" id="Layer_1" xmlns="http://www.w3.org/2000/svg" xmlns:xlink="http://www.w3.org/1999/xlink" x="0px" y="0px"
	 viewBox="0 0 337.3 402.2" enable-background="new 0 0 337.3 402.2" xml:space="preserve">
<g>
	<path fill="#FFC100" d="M208.2,241.3c-5.6,9.7-13.9,34-8.8,88.8c7.4,78.9,12.2,72,12.2,72s23.8-4.4,6.6-151.8
		C214.9,248.3,211.4,244.8,208.2,241.3z"/>
	<path fill="#FF845B" d="M94.4,118.5c-3.7-1.5-4.3-8.5-4.3-8.5s1.1-0.7,5.5-1.5l0,0c0,0-71.7,0.2-92.9-22.7C-1,84.3-0.5,84.5,2,89.6
		c2.6,5.1,21.7,29.1,44,37c22.3,7.9,29.5,10.5,59.1-1.8c1.7-3.4-0.6-5.3-4.7-5.5C98.5,119.2,96.1,119.2,94.4,118.5z"/>
	<path fill="#9A2F98" d="M109.7,131.6c-1.7-1.7-3.4-4.4-4.5-6.8c-0.9,0.2-1.9,0.4-3,0.7c-14.5,6-23.2,8.1-31.2,7.8c0,0,0,0-0.1,0
		c-46.3,12.3-46.7,31.5-46.7,31.5c25.1,11.2,85.4-25.1,93-31C117.3,133.7,112.6,134.4,109.7,131.6z"/>
	<path fill="#58C636" d="M120.9,142.5c-1.2-0.6-2.4-4.4-3.1-6.8l0,0c-81.3,40.6-79,57.9-79,57.9c7.5,4.3,23.6,3.5,60.7-19.1
		c20-12.1,28.4-22.4,29.5-29.3C126.5,144.1,122.4,143.2,120.9,142.5z"/>
	<path fill="#FF4371" d="M131.9,148c-1.3,0.4-2.9,1.2-4.8,2.5c-3.5,6.4-11.9,14.5-27,23.7c-29.1,29.6-28.9,57.5-28.9,57.5
		c8,3.2,10.9-3.8,28.7-20.8c14.1-13.5,29.8-44.2,35.8-56.5C134.4,152.4,133.1,149.8,131.9,148z"/>
	<path fill="#273687" d="M148.8,167.6c-3.1-2.7-4.9-8.1-4.9-8.1s-2.1-0.4-4.3-1.5c-3.7,3.1-7.7,7-11.7,11.8
		c-3.8,7.2-8.5,15.2-13.4,22.7c-2.1,5.5-3.9,11.5-4.9,18.2c-7,44.5,3,39.8,3,39.8s16-0.4,35.4-61.6c2.4-7.6,4.3-13.9,5.8-19.2
		C152.2,169.4,150.3,168.9,148.8,167.6z"/>
	<path fill="#FF872E" d="M165.2,181.5c-4.3-4.2-6-8.5-7.3-10.3c-0.1-0.1-0.3-0.2-0.4-0.3c-1.4,0.1-2.8,0.4-4.2,0.6
		c-1.4,4.9-3.1,10.6-5.3,17.4c-3,9.4-5.9,17.4-8.7,24.2c0.8,23.7,4.6,51.5,12.1,57c0,0,3.9,9.5,17.5-59.9c2-10.4,3.3-18.3,4.2-24.1
		C170.6,185.2,167.4,183.7,165.2,181.5z"/>
	<path fill="#F91B3B" d="M186,203.4c-1.7-2.5-2.6-4.2-5.8-6.5c-3.2-2.2-2.8-9.7-2.8-9.7s-3.1-0.6-6.4-2c0.8,0.3,1.5,0.6,2.2,0.9
		c-0.9,5.9-2.2,13.8-4.2,24.1c-0.8,4-1.5,7.8-2.3,11.3c4.4,17.7,11.4,38.2,15.5,38.2c0,0,12.3-13.8,11.6-52.8
		C191.1,208.4,187.3,205.3,186,203.4z"/>
	<path fill="#00ADAB" d="M192.9,207.2c-3-10.8-5.9-24-8.3-39.7c0.5-1.9,0.9-3.7,1.2-5.3c-3.4-0.4-16.6-2.9-25.9-19.2
		c-10.7-18.8-29.5-34.9-53.3-35.7c-13.9,1-16.5,2.8-16.5,2.8s0.5,7,4.3,8.5c3.7,1.5,10.3-0.1,9.9,2.3c-0.4,2.3,2.6,8.1,5.5,10.9
		c2.9,2.8,7.6,2.1,7.6,2.1s1.9,8,3.6,8.8c1.7,0.8,7.3,1.9,9.4,3.4c2,1.5,4.9,9,7.7,11c2.7,2,6,2.5,6,2.5s1.9,5.4,4.9,8.1
		c3.1,2.7,7.7,1.7,9,3.5c1.4,1.9,3.1,6.1,7.3,10.3c4.3,4.2,12.2,5.8,12.2,5.8s-0.5,7.5,2.8,9.7c3.2,2.2,4.1,3.9,5.8,6.5
		C187.1,205.1,190.3,207.7,192.9,207.2z"/>
	<path fill="#FF8B5D" d="M256.8,0c9.1,30-26,76.4-26,76.4c5.6-6.3,11.3-11.9,13.2-14.6c4.7,5.2-2.1,18.6-2.1,18.6s0.5,1.5,0.4,4.5
		c5.7-3.2,12.4-10.1,21.5-22.6C274.2,11.7,265.1,16.5,256.8,0z"/>
	<path fill="#AF44A1" d="M287.2,46.2c-5.8,2.7-16.7,11.8-27.3,21.3c-7.2,9.2-12.8,14.6-17.6,17.4c0-0.2,0-0.3,0-0.5
		c0,1.8-0.3,4.3-1.1,7.5c5.3-2.2,12.9-5.4,23.7-10.2c49.6-21.9,50.9-39.6,51.8-45.9C315,32.9,300.7,39.8,287.2,46.2z"/>
	<path fill="#FF5081" d="M292.2,95.3c-19.1,5.4-38.2,4.5-49.3,3.2c-1.3,0.2-2.6,0.3-3.9,0.5c-1.6,5.6-1.4,10.7-1,15.1
		c5,0.5,12.5,1.5,22.6,3.4c19.3,3.8,63.9,6,72.8-10.8C333.4,106.7,331.9,95.8,292.2,95.3z"/>
	<path fill="#2A4AA7" d="M284.7,120.1c-9.3-0.3-18-1.4-24.1-2.6c-3.1-0.6-5.9-1.1-8.5-1.5l-13.7,2.7c0.1,1.5,0.1,2.9-0.2,4
		c-0.1,0.5-0.3,1.2-0.5,1.8c5.7,2.1,12.7,5.2,19,9.7c13.5,9.8,34.1,20.2,43.6,22.3c9.5,2,14.7,2.8,19.1,1.1c0,0,12.7-2-22.9-28.9
		C291.8,125.2,288,122.4,284.7,120.1z"/>
	<path fill="#00B2B4" d="M244.1,61.8c-4.3,5.9-26.6,25.9-26.4,36.4c0.2,10.5,0,33.9-3.2,41.9c-2.6,6.6-6.1,11.8-10.1,14l0,0
		c0.5,1.1,1,2.2,1.6,3.4c0,0.1,0.1,0.2,0.1,0.3c0.5,1.2,1.1,2.4,1.7,3.8c0,0.1,0.1,0.2,0.1,0.3c0.6,1.4,1.2,2.8,1.9,4.3
		c0.1,0.1,0.1,0.2,0.2,0.4c0.7,1.6,1.4,3.3,2.1,5c0,0,0,0,0,0.1c3.1,7.4,6.8,16.3,11,27.1c2.5-2,4.9-4.9,4.9-9
		c0.1-8.4-6.6-23.3-1.5-30.1c5.1-6.8,5.4-18.9,5.4-18.9s5-13,6.3-18c1.3-5-2.8-14.8,1.4-25.9s2.3-16.5,2.3-16.5S248.8,67,244.1,61.8
		z"/>
	<path fill="#FF9D25" d="M283.5,150.1c-9-4.3-19.1-10.2-26.9-15.8c-6.2-4.5-13.2-7.6-19-9.7c0.1-0.3,0.2-0.6,0.3-0.9
		c-1.5,5.3-5.7,16.3-6,16.9c10.1,11.4,30.6,26,39.1,30.6c12.3,6.6,18.9,12.2,28.4,13.4C299.4,184.6,309.2,179.8,283.5,150.1
		L283.5,150.1z"/>
	<path fill="#FC243D" d="M271,171.2c-8.5-4.6-29-19.2-39.1-30.6c0-0.1,0.2-0.4,0.3-0.9c-0.2,0.6-0.4,1-0.4,1s-0.3,10.1-4.3,17.1
		c2.7,3.9,5.4,7.6,6.9,9.3c3.7,4.1,34.7,28.9,45.9,29.7c0,0,0.9-9.4-7.4-24.5C272.3,172,271.7,171.6,271,171.2z"/>
	<path fill="#0084D3" d="M234.5,167.1c-1.5-1.6-4.2-5.3-6.9-9.2c-0.4,0.6-0.7,1.2-1.1,1.8c-5.1,6.8,1.6,21.7,1.5,30.1
		c0,2.2-0.8,4.1-1.8,5.6c0.3,1.2,0.5,1.9,0.5,1.9s16.1,11.1,38.3,11.9c0,0-6.4-14.2-14.6-29.1C242.6,174.3,236.1,168.8,234.5,167.1z
		"/>
	<path fill="#7FCF3A" d="M289.1,69.1c-6.4,4-14.3,8.2-24.2,12.5c-10.7,4.7-18.3,8-23.7,10.2c0-0.1,0-0.2,0.1-0.3
		c-0.4,1.6-0.9,3.4-1.7,5.4c-0.2,0.4-0.2,0.8-0.4,1.2c10.3,1.4,31.6,3.2,52.9-2.8c29.6-8.3,38.1-14.2,41.7-19.9
		C333.9,75.5,315.4,65.2,289.1,69.1z"/>
	<path fill="#BA3292" d="M155.6,48.1c-0.2-0.6,4.9,38.3,14.3,54.8c0,0,5.7,4.8,8.5,3.7c2.7-1.1,4.9-7.2,4.9-7.2
		S167.9,77.4,155.6,48.1z"/>
	<path fill="none" d="M172.3,127.5c0.1,0.2,0.2,0.3,0.4,0.5c0.6-2.3,0.7-4.6,0.3-6.6c-0.3-1.2-2.2-2.6-4.5-3.8
		C168.8,120.6,169.9,123.9,172.3,127.5z"/>
	<g>
		<path fill="#B155A5" d="M192.4,114.1c-0.6-3.4,0.2-8.3,1.5-11.9c-0.7-0.8-1.7-1.5-2.9-2.1c-1.8,4.4-2.8,10.5-2.1,14.6
			c0.7,4.3,6.1,6.7,10.1,7.9c0.3-1.3,0.4-2.4,0.3-3.6C196.2,117.9,192.8,116.2,192.4,114.1z"/>
	</g>
	<path fill="#FF6881" d="M189,114.7c-0.7-3.8,0.1-9.1,1.6-13.4c-2.9-1.9-5.8-2.9-8.3-3.1c0.5,0.8,0.8,1.2,0.8,1.2s-2.1,6-4.9,7.2
		c-1.6,0.7-4.3-0.7-6.2-2c-1.7,2.4-3.3,5.5-3.7,9.2c3.4,1.5,7.2,3.9,7.8,6.9c0.8,3.4,0.4,7.1-1.2,11c8.6,12.2,9.5,9,9.5,9
		s6.3,0.7-0.1,26.8c6.2,39.5,15.1,63.9,21.2,71c6.1,7.1,14.3,15.8,19.7,12.2c5.4-3.6,15.8-5-1.1-48.8
		c-16.9-43.8-25.6-59.4-25.6-59.4s-3.2-6.3-0.7-12.4c0.8-1.8,1.2-4.6,1.2-7.6C195.3,121.4,189.8,119,189,114.7z"/>
	<path fill="#FFA96E" d="M193.6,103.5c-1.1,3.4-1.6,7.6-1.1,10.6c0.4,2.1,3.6,3.8,6.8,4.8C198.9,112.9,197.1,106.6,193.6,103.5
		C193.6,103.5,193.6,103.5,193.6,103.5z"/>
	<g>
		<path fill="#FFA96E" d="M167.6,117.2c0.3,3.7,1.4,8.1,4.5,12.5c1-3,1.3-5.7,0.8-8.3C172.6,120,170.3,118.5,167.6,117.2z"/>
		<path fill="#B155A5" d="M167.7,113.4c-0.1,1.2-0.1,2.4,0,3.8c2.7,1.3,5,2.8,5.3,4.2c0.6,2.5,0.3,5.3-0.8,8.3c0.7,1,1.6,2,2.5,3
			c1.9-4.3,2.5-8.3,1.6-12C175.6,117.4,171.3,114.9,167.7,113.4z"/>
	</g>
	<path fill="#C76EB6" d="M221.9,251.5c-1.2-0.2-2.4-0.6-3.6-1.3c1.1,9.7,2.1,18.8,2.9,27.3c8.8,36.7,24.2,86.5,45.7,102
		c2.4-5.9,3.7-14.2-2.1-32.5c-2.3-4.1-4.8-8.8-7.7-14.2c-13.7-26.3-24.5-52.6-31.6-73C224.1,256.6,222.9,253.9,221.9,251.5z"/>
	<path fill="#FF4545" d="M228.1,249.1c-0.9,0.6-1.8,1.1-2.6,1.6c-0.9,0.6-1.8,0.8-2.8,0.8c6.9,21.2,18.8,51.2,34.4,81.2
		c26.6,51.2,28.9,39.7,28.9,39.7s13.8-10.8-30.3-76.4C240.5,273.4,232.5,258.6,228.1,249.1z"/>
	<path fill="#00B4E9" d="M287.8,300.5c-21.3-21.5-43.3-43.8-55.4-56.1c-0.9,2-2.2,3.3-3.6,4.3c1,2.6,2.2,5.6,3.5,9.1
		c4.8,9.2,12.1,21.6,23.4,38.2c6.5,9.7,11.7,18.1,15.9,25.5c13.5,12,35.6,29.5,46.2,24.6C317.8,346.1,319.4,332.4,287.8,300.5z"/>
	<path fill="#953520" d="M297.8,273.8c-12.5-10.4-52.2-39.3-66.1-49.3c2.6,10.5,2.2,16.3,0.7,19.8c10.7,10.9,29.3,29.7,48.2,48.8
		c30,20.5,43.6,28.3,56.4,29C340.4,312.1,313.1,286.5,297.8,273.8z"/>
</g>
</svg>
