<?xml version="1.0" encoding="utf-8"?>
<!-- Generator: Adobe Illustrator 24.2.1, SVG Export Plug-In . SVG Version: 6.00 Build 0)  -->
<svg version="1.0" id="Layer_1" xmlns="http://www.w3.org/2000/svg" xmlns:xlink="http://www.w3.org/1999/xlink" x="0px" y="0px"
	 viewBox="0 0 350 350" style="enable-background:new 0 0 350 350;" xml:space="preserve">
<g>
	<path style="fill:#FF3366;" d="M301.6,159.6c0,0,0.7-8-5.3-6.2c0,0-4.8,2.7-6.6,8.7c0,0-0.9,5-2.8,3.5c0,0-4.8-11.5-9.9-11.6
		c0,0-8.1,0.5-3.9,9.4c0,0,2.2,3.1,3.2,3.7c0,0,1.8,2.6-2.8,2.4c0,0-7.9,1.9-6.6,7.9c0,0,0.8,5.1,6.4,4.8c0,0,3.6-1,2.5,2.4
		c0,0-2.8,4.4-1.9,9.9c0,0,1.3,8.6,10.1,1.8c0,0,2.6-0.8,3.2-7.4c0,0,1.9-2.8,3.1,0.2c0,0,5.6,11.8,10.8,6.6c0,0,4.7-4.2-0.1-11.1
		l-3.8-4.8l-1.2-1.2c0,0,9.3,3.3,13.4-3.2c0,0,4.8-3.9-3.1-7.8c0,0-4.2-1.8-7.9,0.7c0,0-1.3-0.2,1.1-3.2
		C299.3,165.3,301.6,160.9,301.6,159.6z"/>
	
		<ellipse transform="matrix(0.7608 -0.649 0.649 0.7608 -45.1032 228.5002)" style="fill:#E9DFAA;" cx="287.4" cy="175.4" rx="3.4" ry="3.3"/>
</g>
<g>
	<path style="fill:#669900;" d="M94.7,145.6c4.5,0,27,2,36.8,18.8c3.8,6.5,7.8,9.4,11.1,10.6c-0.6,4.5-0.9,7.8-0.8,8.7
		c0.1,0.7,0.5,2.1,1,3.9c-2.4,0.7-4.9-1.1-8.9-3.5c-4.4-2.6-6.3-8-6.3-8s-6.8-1.1-9.7-3.6s-5.1-7.7-5.1-7.7s-2.2,0.3-7.2-1.9
		c-5-2.2-4.4-5.6-5.4-7.1c-1-1.5-5.6,0.3-7.5,0.6c-1.9,0.2-4.1-3-8.1-4.6c-3.9-1.6-8.9-2.9-11.5-7.6
		C75.1,143.3,90.2,145.5,94.7,145.6z"/>
	<g>
		<path style="fill:#6F3B22;" d="M7.5,148.9c0.5-0.2,17.8,3.2,34.7,0.7c13.9-2,25.8-4.6,31-5.4c2.6,4.7,7.6,6,11.5,7.6
			c0.6,0.3,1.2,0.6,1.7,0.9c-0.6,3.8-8.8,9.2-21.5,11.2c-12.8,2-36.5,1.6-44.6-3.2c-8.1-4.8-13.2-9-13.4-10.3
			C6.7,149.2,7.5,148.9,7.5,148.9z"/>
	</g>
	<g>
		<path style="fill:#FF3366;" d="M39.6,170.5c2.2-1.2,8.8-1.8,13.2-5.4c4.5-0.2,8.7-0.5,12.1-1.1c12.7-2,20.9-7.4,21.5-11.2
			c2.9,1.7,4.7,3.9,6.3,3.7c1.9-0.2,6.5-2,7.5-0.6c1,1.5,0.4,4.9,5.4,7.1c5,2.2,7.2,1.9,7.2,1.9s0.4,0.9,1.1,2.2
			c-2.6,2.1-6.8,4.6-13.1,6.6c-12.8,4-50.8,13.2-66.8,8C18.1,176.5,36.8,172.1,39.6,170.5z"/>
	</g>
	<path style="fill:#0099FF;" d="M84,178.9c4.6-1.3,8.5-2.6,11.7-3.8c1.9-0.5,3.6-1,5-1.5c6.3-2,10.5-4.5,13.1-6.6
		c0.9,1.7,2.3,4,4,5.5c2.9,2.5,9.7,3.6,9.7,3.6s0.9,2.4,2.7,4.8c-6.1,3.7-21.2,11.5-44.7,16c-31.6,6-33.5,4.9-35.5,1.5
		C50.2,198.4,45.7,190,84,178.9z"/>
	<g>
		<path style="fill:#FF9900;" d="M108.1,191.1c11-3.8,18.4-7.8,22.3-10.1c0,0,0,0,0,0c0.9,1.2,2.1,2.4,3.5,3.2
			c1.5,0.9,2.7,1.6,3.8,2.3c-1.5,3.1-3.7,6.6-6.7,9.2c-6.6,5.6-14.9,10.1-29.4,15.6c-14.5,5.5-13.6,0.9-13.6,0.9
			C87,210.1,85.2,205.8,108.1,191.1z"/>
	</g>
	<path style="fill:#9966FF;" d="M109.9,212c2.5-2.6,4.9-5,7.1-7.2c5.8-2.9,10.2-5.8,14-9c3-2.5,5.2-6,6.7-9.2c2,1.1,3.6,1.6,5.1,1.2
		c0.8,2.5,1.9,5.7,3.4,9.2c-4.1,3.6-12,10.6-17.9,17.5c-8.4,9.8-20.5,19.1-22.9,17.7C103,230.8,98.9,223.3,109.9,212z"/>
	<path style="fill:#00CCCC;" d="M128,214.6c0.1-0.1,0.2-0.2,0.3-0.3c5.9-6.9,13.7-13.9,17.9-17.5c1.5,3.5,3.2,7.2,5.1,10.5
		c-3.2,4.7-6.7,10.2-7.5,13.1c-1.6,5.6-5.6,17.5-7.9,18.1C134,239,121.4,233.8,128,214.6z"/>
	<g>
		<path style="fill:#0099FF;" d="M203,214.3c0,0,6.4-0.1,9.5-1.5c3.1-1.5,4.3-7.5,4.3-7.5s3.4,1.8,8.6,0c2.3-0.8,3.3-4.6,3.7-8.7
			c3.1,3.5,5.5,6.5,6.9,8.2c0.9,1.1,1.7,1.9,2.6,2.7c-0.7,4.1-1.5,7.6-2.6,8c-2.5,1-4.6,1.4-4.6,1.4s0.6,4.3-1.5,5.7
			c-2.2,1.4-7.3,0.9-7.3,0.9s0.3,4.7-1.6,6.2c-0.7,0.5-1.9,1.6-3.2,2.7c-4.3-2.7-10.3-5-18.5-3.7c-3.5,0.5-6.8,0.6-10,0.3
			c3.3-1.8,7.3-4,9.1-5.3C201.8,221.1,203,214.3,203,214.3z"/>
		<path style="fill:#748F9D;" d="M189.4,171.4c-5.1,2.6-11.4,0.2-11.4,0.2s0.5,7-6.5,8.9c-7,2-10.8-1.2-10.8-1.2s-2.3,7.7-10.9,9.4
			c-2.8,0.6-4.9,0.6-6.5,0.3c-0.8-2.5-1.4-4.5-1.5-5.4c-0.2-1.5,0.7-8.2,1.9-16.5c2.7,1.1,5.8,2,8.4,1.6c5.9-0.9,8.7-6.5,8.7-6.5
			s5.1,2,9.5,0.8c2.1-0.5,3.7-3.6,4.9-6.7c1.5,0.5,3.7,0.9,7.1,1.5c3,0.4,6.5,1.9,10.2,4.2C192.3,166.3,191.6,170.3,189.4,171.4z"/>
		<path style="fill:#FF99CC;" d="M149.8,129.3c0.9-7-9.5-12.7-9.5-12.7c-0.3-0.1-0.6-0.1-1-0.2c0.6-0.5,0.8-1,0.2-1.3
			c-1.2-0.5-4.2-0.6-4.4-1.9c-0.3-1.3,1.6-1.7,1.1-3.1c0,0-3.5-1.4-7.1-1.1c-1.6-4.8-1.7-10.8,7-11.9c15.1-1.9,24.4,9.5,30.8,22.5
			c6.4,13,5,27.3,5.1,31.7c0.1,3-0.1,4.1,3.1,5.1c-1.1,3.1-2.8,6.2-4.9,6.7c-4.4,1.1-9.5-0.8-9.5-0.8s-2.8,5.6-8.7,6.5
			c-2.6,0.4-5.7-0.5-8.4-1.6C145.9,152.8,149.2,133.7,149.8,129.3z"/>
		<path style="fill:#FF9900;" d="M222.5,223.4c0,0,5.2,0.5,7.3-0.9c2.2-1.4,1.5-5.7,1.5-5.7s2-0.4,4.6-1.4c1-0.4,1.9-4,2.6-8
			c6,5.1,11.5,2.7,11.5,2.7s1.3,4.1,0.7,6.7c-0.6,2.6-7.4,2.3-7.4,2.3s0.6,1,1,3c0.4,2-1.4,4.7-2.7,5.1c-1.3,0.4-4,2.4-5.3,5
			c-0.4,4.9-7.7,6.5-10.2,6.3c-1.2-0.1-3.9-3.4-8.4-6.2c1.3-1.1,2.6-2.1,3.2-2.7C222.8,228.1,222.5,223.4,222.5,223.4z"/>
		<path style="fill:#E5AB2C;" d="M149.8,188.8c8.5-1.7,10.9-9.4,10.9-9.4s3.8,3.1,10.8,1.2c7-2,6.5-8.9,6.5-8.9s6.2,2.3,11.4-0.2
			c2.2-1.1,3-5.1,3.1-9.3c4.8,2.9,9.9,7.1,14.9,11.7c-0.7,3.6-1.9,7.2-4.2,8.3c-5.1,2.6-11.3,2.3-11.3,2.3s1,6.6-4.8,8.6
			c-5.8,2-11.7,2-11.7,2s-1.7,4.6-5.9,6.1c-4.3,1.6-9.1-1-9.1-1s-4.2,5.3-8.9,7.2c-3.5-6.1-6.4-13.3-8.1-18.3
			C144.9,189.4,147,189.4,149.8,188.8z"/>
		<path style="fill:#FF3366;" d="M169.4,201.2c4.3-1.6,5.9-6.1,5.9-6.1s6,0,11.7-2c5.8-2,4.8-8.6,4.8-8.6s6.1,0.2,11.3-2.3
			c2.3-1.1,3.5-4.7,4.2-8.3c3.9,3.5,7.7,7.3,11.2,11.1c-0.9,3.9-2.5,8.6-5.1,10.2c-4.8,2.8-11.3,3.5-11.3,3.5s-0.3,4.4-7.3,7.8
			c-7,3.4-8.3,0.8-8.3,0.8s-2.4,7.5-6.4,8.5c-4,1-6.5-0.1-6.5-0.1s-2.8,3.7-5.8,6.4c-2.9-1.5-5.5-3.1-7.9-4.5
			c-3.1-1.8-6-5.6-8.6-10.1c4.7-1.9,8.9-7.2,8.9-7.2S165.2,202.8,169.4,201.2z"/>
		<path style="fill:#14151A;" d="M180.2,215.7c4-1,6.4-8.5,6.4-8.5s1.3,2.6,8.3-0.8c7-3.4,7.3-7.8,7.3-7.8s6.4-0.8,11.3-3.5
			c2.7-1.5,4.2-6.2,5.1-10.2c3.9,4.1,7.5,8.2,10.5,11.6c-0.4,4.1-1.4,7.9-3.7,8.7c-5.2,1.8-8.6,0-8.6,0s-1.2,6.1-4.3,7.5
			c-3.1,1.5-9.5,1.5-9.5,1.5s-1.2,6.8-4.7,9.3c-1.8,1.3-5.8,3.5-9.1,5.3c-8.2-0.7-15.3-3.7-21.3-6.9c3.1-2.6,5.8-6.4,5.8-6.4
			S176.2,216.7,180.2,215.7z"/>
	</g>
	<path style="fill:#0099FF;" d="M250.7,216.8c0.3-1.1,0.2-2.6,0-3.8c17.1,0.9,74.4,4,79.4,5.2c5.8,1.4,13.9,3.5,12.4,5.4
		s-6.6,3.9-15.9,5c-9.3,1.1-51.3,0.3-59.9-2c-6.1-1.6-16.6-4.7-22-7.5C246.6,219,250.2,218.6,250.7,216.8z"/>
	<g>
		<path style="fill:#FF3366;" d="M244.3,222.1c-0.4-2-1-3-1-3s0.6,0,1.3,0c5.4,2.8,15.9,5.8,22,7.5c2.7,1.5,5.5,2.9,8.3,3.8
			c13.6,4.7,65.6,31.6,65.7,39.8c0,2.5-15.7,5.6-78.2-33c-9.6-5.1-15.7-8.7-19.4-11C243.9,225,244.5,223.4,244.3,222.1z"/>
	</g>
	<g>
		<path style="fill:#669900;" d="M236.3,232.2c1.3-2.6,4-4.6,5.3-5c0.5-0.1,1-0.6,1.4-1.1c3.5,2.2,8.9,5.4,17.3,9.9
			c19.5,20,49.2,52.2,51.2,65.4c0,0-0.6,9.5-39.7-31.1c-21.1-21.8-30.9-32.5-35.6-37.6C236.2,232.5,236.2,232.4,236.3,232.2z"/>
	</g>
	<g>
		<path style="fill:#FF99CC;" d="M236.1,232.7c3.1,3.4,8.5,9.3,17.9,19.2c7.1,13.3,15.5,29.8,19.4,39.9c7.4,19.2,10.6,24.6,7.8,24.8
			c-2.8,0.2-19-5.8-31.6-32.6c-10.5-22.1-20-37.2-22.6-45.5C229.8,238.3,235.4,236.7,236.1,232.7z"/>
	</g>
	<path style="fill:#39418C;" d="M141.4,103.3c0,0,2.6,2.6,1.7,3.2c-0.9,0.6-3,0-4.6-0.4c-1.5-0.4-2.2-0.8-2.3-1.1
		c-0.1-0.4,1.5-3.1,2.5-2.7S141.4,103.3,141.4,103.3z"/>
	<path style="fill:#660099;" d="M136.2,110.1c0,0-6.1-2.4-10.4-0.2s-7,7.3-6.7,8.8c0.3,1.5,2.1,3.9,2.6,3.4s0-3.1,1.6-4.5
		c1.6-1.4,4.7-4.7,7.6-4.6c0.9,1.6-0.2,3.3-0.2,3.3s-2.9,3.7-2.6,5.4c0.3,1.7,0.9,5.4,2.6,5.8c1.6-0.6,0.6-3.6,1.3-4.7
		c0.7-1,2.7-4.6,4.9-5.3c2.2-0.7,3.8-1.9,2.6-2.4c-1.2-0.5-4.2-0.6-4.4-1.9S136.7,111.6,136.2,110.1z"/>
	<path style="fill:#669900;" d="M197.2,152.1c0,0,7.7,9.1,7,13.7c-0.3,1.6-1,2.7-1.8,3.6c-3.4-2.8-6.7-5.4-9.9-7.3
		c-3.7-2.3-7.2-3.8-10.2-4.2c-1.5-0.3-2.8-0.5-3.9-0.8c1.8-2,4.9-6.6,5.6-15c0.9-12-16.2-32.4-17.1-41.8s3.5-24,8.9-27.8
		c5.4-3.8,7.1,9.3,5.5,12.4c-0.9,2.6-0.5,4.1,2.4,5.9c1.5,1.9,4.3,5.4,3.3,7.8c-1,2.4-1.6,5.1,0.4,6.9c2,1.7,3.8,1.7,5.2,7.4
		c1.5,5.7,0.4,2.4-0.2,6.7c2,3.7,6.4,9.4,4.9,14.8c-1.5,5.4-1.5,5.4-1.5,5.4s4.8,4,4.5,5.9C199.9,147.5,197.2,152.1,197.2,152.1z"/>
	<path style="fill:#75311C;" d="M185.8,23.9c-1.9-10.9-1.7-7.6-0.4-7.5c1.3,0.1,15.9,10.4,15.4,26.4c-0.3,9-2.7,19.2-5.7,26.8
		c-4.7,4.7-9.2,9.3-12.7,13c-0.2,0.1-0.5,0.2-0.7,0.2c0.4-4.8-1.6-13.3-6-10.1c-0.6,0.5-1.3,1.1-1.9,1.8L171,79
		C171,79,192.9,45.7,185.8,23.9z"/>
	<path style="fill:#FF3366;" d="M183.6,90.9c-2.9-1.8-3.3-3.2-2.4-5.9c0.2-0.4,0.4-1,0.5-1.7c9.1-9.9,26.7-27.2,34.8-33.5
		c11.2-8.7,21.6-6.7,21.6-6.7c1.9,2-3.4,10.1-9.9,17.1c-5.8,6.2-35,26.5-43.6,31.8C184.2,91.6,183.9,91.3,183.6,90.9z"/>
	<g>
		<g>
			<path style="fill:#0099FF;" d="M184.4,91.9c0,0,0.1,0.1,0.1,0.1c3.9-2.4,12.1-8,20.5-13.9c10-3.3,20.2-6.1,27.1-7.3
				c18-3,24,3.2,24,3.2c0.4,4.8-3.9,6.2-18.6,12.2c-14.7,6-27.4,8.3-35.3,9.2c-3.5,0.4-9.5,1.4-15.1,1.8
				C186.9,95.5,185.5,93.5,184.4,91.9z"/>
		</g>
		<g>
			<path style="fill:#0099FF;" d="M184.4,91.9c0,0,0.1,0.1,0.1,0.1c3.9-2.4,12.1-8,20.5-13.9c10-3.3,20.2-6.1,27.1-7.3
				c18-3,24,3.2,24,3.2c0.4,4.8-3.9,6.2-18.6,12.2c-14.7,6-27.4,8.3-35.3,9.2c-3.5,0.4-9.5,1.4-15.1,1.8
				C186.9,95.5,185.5,93.5,184.4,91.9z"/>
		</g>
	</g>
	<g>
		<path style="fill:#FF9900;" d="M187.1,97.3C187.1,97.3,187.1,97.3,187.1,97.3c5.6-0.4,11.6-1.3,15.1-1.7c2.9-0.3,6.5-0.9,10.7-1.7
			c22.5,1.5,51.6,5.7,54.3,11.1c0,0,5,4-24.3,5.9c-24.6,1.6-40.3,2.7-50.4,1.3c-1.4-4.9-3.1-5-5-6.6c-2-1.7-1.4-4.5-0.4-6.9
			C187.1,98.3,187.1,97.8,187.1,97.3z"/>
	</g>
	<path style="fill:#9966FF;" d="M192.5,112.9c-0.1-0.3-0.1-0.5-0.2-0.7l0,0c6.6,0.9,15.7,0.7,28.1,0.1c18.1,5.3,41,13.7,40.7,19.9
		c0,0-3.4,5.1-14.3,4.5c-8.7-0.5-37.8-7.7-51.3-11.6c-1.1-2-2.3-3.9-3.1-5.4C193,115.3,194,118.6,192.5,112.9z"/>
	<path style="fill:#FF99CC;" d="M207.4,173.8c-1.7-1.5-3.3-3-5-4.4c0.8-0.9,1.6-2.1,1.8-3.6c0.7-4.6-7-13.7-7-13.7s1.3-2.3,2.2-4.3
		c2.6,0.7,5.9,1.7,9.4,2.7c15.7,9.3,35.7,29.6,35.7,29.6c2.9,5.8-5.5,2.9-16.1-0.2c-9.9-2.8-14.5-4.1-21.6-4.1
		C207.1,175.1,207.2,174.5,207.4,173.8z"/>
	<path style="fill:#00CCCC;" d="M195.7,139.8c0,0,0,0,1.5-5.4c1.2-4.2-2.2-7.7-3.8-11.4c4.9-1,7.9,3.7,12.3,4.8
		c6.3,1.6,12.5,3.2,18.8,4.6c5.5,5.5,12.5,9.8,18.5,13.8c8.8,5.7,8.3,10.8,8.3,10.8c-1.2,2.8-2.2,1.4-9.8,1.2
		c-5.9-0.2-30.5-7.3-42.2-10.6c0.3-0.8,0.6-1.5,0.7-2.1C200.5,143.9,195.7,139.8,195.7,139.8z"/>
	<path style="fill:#748F9D;" d="M189.4,171.4c-5.1,2.6-11.4,0.2-11.4,0.2s0.5,7-6.5,8.9c-7,2-10.8-1.2-10.8-1.2s-2.3,7.7-10.9,9.4
		c-2.8,0.6-4.9,0.6-6.5,0.3c-0.8-2.5-1.4-4.5-1.5-5.4c-0.2-1.5,0.7-8.2,1.9-16.5c2.7,1.1,5.8,2,8.4,1.6c5.9-0.9,8.7-6.5,8.7-6.5
		s5.1,2,9.5,0.8c2.1-0.5,3.7-3.6,4.9-6.7c1.5,0.5,3.7,0.9,7.1,1.5c3,0.4,6.5,1.9,10.2,4.2C192.3,166.3,191.6,170.3,189.4,171.4z"/>
	<path style="fill:#FF9900;" d="M149.8,188.8c8.5-1.7,10.9-9.4,10.9-9.4s3.8,3.1,10.8,1.2c7-2,6.5-8.9,6.5-8.9s6.2,2.3,11.4-0.2
		c2.2-1.1,3-5.1,3.1-9.3c4.8,2.9,9.9,7.1,14.9,11.7c-0.7,3.6-1.9,7.2-4.2,8.3c-5.1,2.6-11.3,2.3-11.3,2.3s1,6.6-4.8,8.6
		c-5.8,2-11.7,2-11.7,2s-1.7,4.6-5.9,6.1c-4.3,1.6-9.1-1-9.1-1s-4.2,5.3-8.9,7.2c-3.5-6.1-6.4-13.3-8.1-18.3
		C144.9,189.4,147,189.4,149.8,188.8z"/>
	<path style="fill:#FF9900;" d="M188.7,228.9c0.2,0,0.3,0,0.5,0.1c3.2,0.3,6.5,0.2,10-0.3c1.6-0.3,3.1-0.3,4.6-0.3
		c1.6,2.4,4.6,6.1,10.8,11.2c9,13.1,11.9,15.3,9.2,17.7c-0.3,0.3-0.7,0.5-1.2,0.8c-0.4,0.1-0.9,0.3-1.3,0.3
		c-1.3,0.1-2.7-0.2-3.9-0.5c-1.1-0.3-2.2-0.6-3.3-0.9c0-0.1,0.1-0.1,0.1-0.2C214.6,254.7,198.9,238.5,188.7,228.9z"/>
	<path style="fill:#660099;" d="M191.1,260c17.3-2.6,21.9-0.9,22.9-3.2c1.1,0.3,2.2,0.6,3.3,0.9c1.3,0.3,2.6,0.6,3.9,0.5
		c0.4,0,0.9-0.2,1.3-0.3c-3.5,1.8-10.8,2.1-12.6,3.6c-2.1,1.6-5.4,4.5-1.4,7.6c4.1,3.1,6.4,4.7,9.9,3.9c0.6,1,1.9,1.4-2.3,2.2
		c-4.1,0.8-8.2-0.3-11.8-4.6c-3.6-4.2-14.4,2.7-17.1,5.5c-2.7,2.8-4.2,5.2-4.2,5.2s-2.2-2.2,3.1-7.6s12-7.8,12-7.8s-5-2.3-7.1-1.5
		c-2.2,0.8-10.6,1.9-12.7,5.1c-2.1,3.2-5.3,7.8-5.9,7.7C171.9,277,173.2,262.7,191.1,260z"/>
	<g>
		<path style="fill:#FF9900;" d="M176.4,239.1c-2.1-2.6-12.2-14.5-17.2-22.2c0.3,0.2,0.5,0.4,0.8,0.5c2.4,1.4,5,2.9,7.9,4.5
			c3.9,2.1,8.3,4.1,13.2,5.4c3.5,5.1,9.7,15.1,8.1,20c-0.5,0.4-1.2,0.7-2,1c-3.4-2-6.8-3.9-10.3-5.5
			C178.7,242.3,178.7,242,176.4,239.1z"/>
	</g>
	<path style="fill:#660099;" d="M154.5,246.9c5.9-0.4,8.3,1.9,8.5,0.2c0.1-1.7-5.1-4.6-10.7-4.3c-5.6,0.3-11.6,3-13.5,4.2
		c-0.3-1.4,2.1-5.9,9.9-7.6c7.8-1.8,19.4,4.2,26.9,3.8c0.5-0.1,0.9-0.2,1.2-0.3c3.5,1.6,7,3.5,10.3,5.5c-3.4,1.2-9,1.1-11.2,1.5
		c-2.8,0.5-4.7,1.1-3.5,2.8c1.2,1.7,2.5,6,5.9,7.6c-1.4,0.7-5.1-1.3-8.9-3.9c-3.7-2.6-9.7-7.8-13-7.1s-8.5,3.5-8.5,3.5
		S148.6,247.3,154.5,246.9z"/>
</g>
</svg>
