<?xml version="1.0" encoding="utf-8"?>
<!-- Generator: Adobe Illustrator 24.2.1, SVG Export Plug-In . SVG Version: 6.00 Build 0)  -->
<svg version="1.1" id="Layer_1" xmlns="http://www.w3.org/2000/svg" xmlns:xlink="http://www.w3.org/1999/xlink" x="0px" y="0px"
	 viewBox="0 0 363.8 290.2" enable-background="new 0 0 363.8 290.2" xml:space="preserve">
<g>
	<g>
		<path fill="#F97345" d="M72.1,86.1c0,0,1.5-5.8,5.4-6.3c0,0,4.9-3.6,5.2-9.6c0,0,5.2-6.4,8.8-7.3c-1.7-15.4-6.7-25.5-9.5-30.1
			c-2,5.3-7.4,9.6-7.4,9.6c2.1,9.5-3.2,11.7-3.2,11.7C72,64.8,67.2,68.6,64.2,70c0.9,6.6,0.1,11.3,0.1,11.3l-3.8,15.6
			C64,97.5,69.3,96.4,72.1,86.1z"/>
		<path fill="#17BBF9" d="M71.4,54.2c0,0,5.3-2.3,3.2-11.7c0,0,5.4-4.2,7.4-9.6c-1.2-1.9-2-2.9-2-2.9c-3.2-0.6-12.4-9.2-14.9-11.5
			c-0.9,10.1-2.8,28.9-5.2,37.8c2.5,4.9,3.7,9.7,4.3,13.8C67.2,68.6,72,64.8,71.4,54.2z"/>
		<path fill="#F2D7E8" d="M28.5,68.2c-1.6,4.3-3.2,6.6-3.2,6.6c-2.7,8,1.5,7.6,3.5,7.1C31.6,73.7,29.9,69.8,28.5,68.2z"/>
		<path fill="#F2398C" d="M64.5,17.8C64,6.9,55.6,6.2,55.6,6.2c-25.1,5-25.9,32.2-25.9,32.2c2.9,13.7,0.9,23.8-1.3,29.8
			c1.4,1.6,3.1,5.5,0.2,13.7c0.5-0.2,0.9-0.3,0.9-0.3c10.2-3.1,15-26.6,15-26.6c-0.2,5.7-3.3,21.7-3.3,21.7c1.8,9.3,7,1.9,7,1.9
			c3.8-5.6,11.4-22.7,11.4-22.7c0.1,0.1,0.1,0.2,0.2,0.4c2.4-8.8,4.3-27.7,5.2-37.8C64.7,18,64.5,17.8,64.5,17.8z"/>
		<path fill="#6698F2" d="M70.2,155.3c0,0,13.5-4,15.3-10.4c0,0,11.6-3.6,17-16.8c-6.6-2.3-10.5-5.5-12.8-8.7
			c-3.7,4.8-9.5,5.9-9.5,5.9c-2.5,13.4-16.8,11.6-16.8,11.6c-3.1,7-8.8,8.1-12.7,8c0,7.1,1,13.1,2.6,18.1
			C58.4,163.7,65.7,163.1,70.2,155.3z"/>
		<path fill="#B5F252" d="M68.3,112.5c0,0,2.6-4.1,4.6-3.2c0,0,5.9-0.4,7.2-5.8c0,0-1.6-4.3,3.9-4.7l5.9-2.7
			c1.4-7.8,2.1-15.8,2.1-15.8c0.4-6.4,0.1-12.1-0.5-17.3c-3.6,0.9-8.8,7.3-8.8,7.3c-0.3,6-5.2,9.6-5.2,9.6c-4,0.5-5.4,6.3-5.4,6.3
			C69.3,96.4,64,97.5,60.4,96.8l-6.2,25.3C58.2,122.3,64.8,121.1,68.3,112.5z"/>
		<path fill="#6A5D6A" d="M102.5,128.1c-5.3,13.2-17,16.8-17,16.8c-1.8,6.4-15.3,10.4-15.3,10.4c-4.5,7.8-11.9,8.4-16.8,7.7
			c4.4,13.8,12.8,19.7,12.8,19.7c14.1,1.8,12-11.3,12-11.3c22.8-0.2,21.1-16.2,21.1-16.2c15.8-1.4,13.8-12.4,13.8-12.4
			c7.6-1,6.3-11.6,6.3-11.6C112.3,130.7,106.8,129.6,102.5,128.1z"/>
		<path fill="#CD502C" d="M63.5,136.9c0,0,14.3,1.8,16.8-11.6c0,0,5.8-1.2,9.5-5.9c-4.4-6.1-2.9-12.3-2.9-12.3c1.3-2.8,2.3-6.9,3-11
			L84,98.8c-5.5,0.4-3.9,4.7-3.9,4.7c-1.4,5.4-7.2,5.8-7.2,5.8c-2-0.9-4.6,3.2-4.6,3.2c-3.5,8.6-10.1,9.8-14.1,9.6l-0.4,1.8
			c-2,7.9-2.9,14.9-2.9,21C54.7,145.1,60.4,143.9,63.5,136.9z"/>
	</g>
	<path fill="#9F5C46" d="M36.6,18.3c3.8-5.4,9.8-10.2,19-12.1c0,0,8.4,0.6,8.9,11.6c0,0,11.9,11.5,15.6,12.1c0,0,6.2,2.6,12.7-0.2
		c0,0,4.4,0.8,1.8-7.4c0,0-5.1-21.6-40-22.3c0,0-20.5-2-46,25.7c0,0-9.8,9.5-8.5,14.2c0,0,0.4,2.2,7.1-2.1c0,0,15.6-7.2,23.8-16.5
		c0.3-0.3,0.6-0.7,0.9-1c0.1-0.1,0.8-0.6,0.8-0.6l3.3-1C35.9,18.7,36.5,18.4,36.6,18.3z"/>
	<g>
		<path fill="#FA7C70" d="M136.7,146.1c0,0,13.6,7.3,24-4.1c0,0,10.8,8.6,20.9-0.7c0,0,6.2,10.5,25.1-0.9c0,0,6.1,6.4,15.5,0
			c0,0,2.9,4.4,10,1.3c-2.7-5.4-5.5-8.1-5.5-8.1c-20.5-21-80.2-6.4-80.2-6.4c-17.1,4.9-27.2,4.1-27.2,4.1s1.2,9.6-5.3,11.4
			C116.4,148.9,122.6,158.5,136.7,146.1z"/>
		<path fill="#7145A0" d="M232.2,141.6c-7.1,3.1-10-1.3-10-1.3c-9.4,6.4-15.5,0-15.5,0c-18.9,11.5-25.1,0.9-25.1,0.9
			c-10.1,9.4-20.9,0.7-20.9,0.7c-10.4,11.4-24,4.1-24,4.1c-14.2,12.4-20.4,2.8-22.7-3.5c-0.3,0.1-0.6,0.2-1,0.2c0,0,2,11-13.8,12.4
			c0,0,0.6,5.8-3.9,10.5c3.7,4.4,12.6,11.9,26,2.4c0,0,12.1,2.8,24.3-4c0,0,16,10.9,29.6-3.9c0,0,3.6,15.2,26.3,0.8
			c0,0,9,9.7,24.2,0.5c0,0,6.3,0,11.1-1.6C236.4,152,234.3,146,232.2,141.6z"/>
		<path fill="#91F2F1" d="M225.8,161.5c-15.3,9.2-24.2-0.5-24.2-0.5c-22.7,14.4-26.3-0.8-26.3-0.8c-13.6,14.7-29.6,3.9-29.6,3.9
			c-12.2,6.8-24.3,4-24.3,4c-13.5,9.5-22.4,2-26-2.4c-3,3.1-8.1,5.7-17.2,5.8c0,0,2.2,13.1-12,11.3l11.9,13.6
			c13.1-0.5,15-9.5,15-9.5c8.5,5.8,14.1-2.3,14.1-2.3c17.6,8.6,26.6-3.7,26.6-3.7c13.8,10.6,28.8-0.9,28.8-0.9
			c8.3,6.5,25.1,0.2,25.1,0.2c9.7,5.8,15.7,1.4,15.7,1.4c3.1-2.7,5-1.7,5.7-1.1c0.2,0.2,0.5,0.4,0.7,0.4c8.4,2.4,12.3,0.8,12.3,0.8
			c7.6-3.6,12.6,1.4,12.6,1.4c2.3-8.9,2.8-16.6,2.3-23.1C232.2,161.5,225.8,161.5,225.8,161.5z"/>
	</g>
	<path fill="#F5302B" d="M237.1,167.8c1.2-23.3-10.3-34.3-10.3-34.3s25.5,25.6,93.7,0.4c0,0,31.8-10.6,40.1-29.6
		c0,0,0.9-5.5,2.3-2.6c0,0,11.9,43.5-46.4,70.5c0,0-48.2,12.8-76.9-3.8L237.1,167.8z"/>
	<g>
		<path fill="#FFC44D" d="M78,196.2l-18.1-20.1c1,3.7,0.4,15.4,0,22.8c2,2.3,5.2,4.1,10.7,3c0,0,2.5,8.5,8,12.3l1.4-8.4
			c0.1-0.2,0.2-0.3,0.4-0.4C79.5,203.2,78.6,199.3,78,196.2z"/>
		<path fill="#F89A28" d="M208.3,180c-1-0.4-2.6-0.4-4.9,1.6c0,0-6,4.5-15.7-1.4c0,0-16.8,6.3-25.1-0.2c0,0-15,11.5-28.8,0.9
			c0,0-9,12.2-26.6,3.7c0,0-5.6,8-14.1,2.3c0,0-1.9,9-15,9.5l0-0.1c0.6,3.1,1.4,7,2.4,9.1c2.5-2.7,4.2,3.9,4.2,3.9
			c0,0.1,0,0.2,0,0.3c3.9,1.6,11.2,2.8,15.2-8c0,0,3.5,2.5,7.8,0.1l-0.2-0.9c-0.4-4,2.9-3.9,2.9-3.9l9,0.4c38.4,9.2,52.8-1,52.8-1
			c0.2,0.8,0.3,1.5,0.5,2.2c7.1-2.3,25.5-8.6,34.9-15C207.7,182.4,208,181.1,208.3,180z"/>
		<path fill="#FA85B2" d="M94.6,220.5c-3.1,5.7-6.6,4.4-8.9,2.7c0.2,6.9,0.1,12.5,0.1,12.5c-0.1,16-17.2,33.6-17.2,33.6
			c-4.4,6.6-0.9,8.1-0.9,8.1c3.8,0.1,5.6-2.6,5.6-2.6l2.8-3.4c2.2-4.4,4.5-2.1,4.5-2.1l0.6,2.1c2,5.2,5.2-0.5,5.2-0.5l1.9-4.8
			c0.5-2.7,2.9-3.1,2.9-3.1c2.7,3.3,3.7-1.1,3.7-1.1c3.1-2.4,2.5-4.5,2.5-4.5l-2.7-8.6c-1.2-13.6,8.7-27.5,8.7-27.5l0.5-0.5
			l-4.3-1.8C95.7,216.8,94.6,220.5,94.6,220.5z"/>
		<path fill="#EE2F2D" d="M59.9,198.9c-0.2,3.7-0.4,6.3-0.4,6.3c-0.1,2.4-0.6,4.9-1.3,7.4c1,2,2.6,4.1,4.7,3.4c0,0,3.8-1.6,4.3,2.5
			c0,0,1,4.6,4.4,6.8l0,0c6.2,0.7,6.5-7.5,6.5-7.5l0.6-3.6c-5.5-3.7-8-12.3-8-12.3C65.1,203,61.9,201.1,59.9,198.9z"/>
		<path fill="#27D3D9" d="M207.7,184.7c0.4,2.4-0.4,2.1,0.2,3.6c0,0,1.1,2.6-0.6,6.1c0,0,0.2,4,0.5,6.5c1.8,0.8,4,1.5,5.8,1.3
			c0,0,3.5-1,4.8-2.7c0,0,4.3-3.3,6.8-2c0,0,5.6-0.5,9.5-1.8c-0.7-0.7-1.2-1.1-1.2-1.1c3.1-3.7,1.1-11.6,1.1-11.6s-5-4.9-12.6-1.4
			c0,0-5.2,2.5-13.8-1.6c-0.4,0.8-0.3,2.4-0.6,3.5C207.7,183.9,207.7,184.3,207.7,184.7z"/>
		<path fill="#299BF4" d="M67.1,218.4c-0.5-4.2-4.3-2.5-4.3-2.5c-2,0.7-3.6-1.3-4.7-3.4c-4.3,15.2-17.9,29.9-17.9,29.9
			C27.2,251.3,25,258.5,25,258.5c-5.2,8.1,0.1,10.6,0.1,10.6c3.7,2.4,5.9-4,5.9-4c1.6-5,3.8-2.6,3.8-2.6c2.2,4.2,3.4,0.3,3.4,0.3
			l2.6-4c0.4-4.7,2.7-3,2.7-3c3.7,4,4.6-3.4,4.6-3.4l1.1-4.1c0.8-7.6,18-19.7,18-19.7l4.5-3.3C68.1,223,67.1,218.4,67.1,218.4z"/>
		<path fill="#DEDD5D" d="M99.9,201.5c-4,10.8-11.3,9.6-15.2,8c0.5,4.3,0.8,9.2,1,13.6c2.2,1.7,5.7,3,8.9-2.7c0,0,1.1-3.7,4.9-1.4
			l4.3,1.8l3.3-3c5.1-1.8,2.3-9,2.3-9l-1.7-7.2C103.4,204,99.9,201.5,99.9,201.5z"/>
		<path fill="#F3B9F6" d="M249.5,211.7c-3.7-0.6-5.3-2-5.9-2.6c-2.2,1.4-5.2,2.6-5.2,2.6c-4.1,0.4-4.3,1.3-4.3,1.3
			c-1.6,3.2-5.1,5.6-7.3,6.9c1.8,0.7,3.1,1.1,3.1,1.1c1.9,0.3,5,1.8,7.2,3.1c4.2-1.5,12.3-4.4,16.7-6.8
			C252.5,214,249.5,211.7,249.5,211.7z"/>
		<path fill="#FB9F23" d="M210,207.2c0.4,1,0.9,2,1.4,3c0.6-0.8,3.3,1.5,3.3,1.5c2.4,3.7,8.4,6.6,12.1,8.1c2.3-1.3,5.7-3.7,7.3-6.9
			c0,0,0.2-0.8,4.3-1.3c0,0,3-1.1,5.2-2.6c-0.2-0.2-0.3-0.4-0.3-0.4c-0.7-4.5-6.2-10.5-8.7-12.9c-4,1.3-9.5,1.8-9.5,1.8
			c-2.4-1.3-6.8,2-6.8,2c-1.3,1.6-4.8,2.7-4.8,2.7c-1.8,0.3-4-0.5-5.8-1.3c0.1,0.9,0.2,1.6,0.4,1.9C208.2,202.7,209,204.8,210,207.2
			"/>
		<path fill="#BFF054" d="M237.2,224c1.7,1,3,1.8,3,1.8c7.7,4.8,2.8,16.6,2.8,16.6c-3.4,11.9-18,26-18,26c-9.5,12.6-4,18.4-4,18.4
			c7,1.5,8-5.4,8-5.4c0.6-2.2,3.3-1,3.3-1c4-0.9,4.2-4.8,4.2-4.8c0.8-2.5,2.8-1.6,2.8-1.6c2.5,2.6,2.8,0.2,2.8,0.2
			c1.6-0.5,2.9-7.4,2.9-7.4c-0.4-3.2,0.7-7,0.7-7c10.1-23.4,8.2-37,8.2-37c1-1.9,0.7-3.9-0.1-5.6C249.5,219.6,241.4,222.5,237.2,224
			z"/>
		<path fill="#EE7536" d="M205.5,222.8c-1.8,2.3-5,2.9-7.2,3c2.2,4.2,1.6,8,1.6,8c-1.7,22-20.1,42.3-20.1,42.3
			c-5.7,5.7-4.6,12-4.6,12c3.6,6.3,8-2.8,8-2.8c0.8-5.8,3-3.7,3-3.7c1.8,4.5,3.5,1.5,3.5,1.5c2.7-1.3,3.6-8.4,3.6-8.4
			c0.5-6,5,0.6,5,0.6c7.6-3.5,3.9-14.3,3.9-14.3l2.4-11.1c0.6-10.3,9.2-23.7,9.2-23.7c2.3-1.8,2.8-3.2,2.7-4.2
			c-3.3,0-7.9-0.7-7.9-0.7L205.5,222.8z"/>
		<path fill="none" stroke="#F5121D" stroke-width="1.5315" stroke-miterlimit="10" d="M209.2,222.4"/>
		<path fill="#F6326D" d="M202.7,205.4c-5,5.7-8.9-0.1-8.9-0.1c-0.9-1.4-4.1-0.2-4.1-0.2c-4.2,3-8.9,3.6-12,3.6
			c4.3,5.8,9.1,8.4,9.1,8.4c6.4,2,9.7,5.4,11.4,8.7c2.3-0.1,5.5-0.6,7.2-3l3.1-1.6c0,0,4.6,0.7,7.9,0.7c-0.1-1.1-0.9-1.7-0.9-1.7
			l-3.7-7.6c-0.6-1.4-0.7-2.1-0.4-2.4c-0.5-1-0.9-2-1.4-3C206.4,207.4,202.7,205.4,202.7,205.4z"/>
		<path fill="#4750B6" d="M207.8,200.9c-0.3-2.5-0.5-6.5-0.5-6.5c1.7-3.5,0.6-6.1,0.6-6.1c-0.6-1.5,0.3-1.2-0.2-3.6
			c-0.1-0.3-0.1-0.7-0.1-1.2c-9.5,6.4-27.8,12.7-34.9,15c1.2,4.1,3,7.5,5,10.2c3.1,0,7.7-0.5,12-3.6c0,0,3.2-1.2,4.1,0.2
			c0,0,3.8,5.8,8.9,0.1c0,0,3.7,2,7.4,1.9c-1.1-2.4-1.8-4.5-1.8-4.5C208.1,202.5,208,201.8,207.8,200.9"/>
	</g>
	<path fill="#AB593D" d="M46.2,37.6c0,0,6.9-7.9,7.6-16.6c0,0,0.2-5.9-4.7-1.9c0,0-8.3,8.6-8.2,16.2C40.9,35.3,39.9,42.4,46.2,37.6z
		"/>
	<path fill="#C9DDE4" d="M44.1,30.6c0,0,1.8,2.8,5.1-0.5c0,0,1.4-2.3,0.8-4.4c0,0-0.8-2.3-3.8-0.4C46.2,25.2,44,27.2,44.1,30.6z"/>
</g>
</svg>
