<?xml version="1.0" encoding="utf-8"?>
<!-- Generator: Adobe Illustrator 24.2.1, SVG Export Plug-In . SVG Version: 6.00 Build 0)  -->
<svg version="1.0" id="Layer_1" xmlns="http://www.w3.org/2000/svg" xmlns:xlink="http://www.w3.org/1999/xlink" x="0px" y="0px"
	 viewBox="0 0 85.2 85.6" style="enable-background:new 0 0 85.2 85.6;" xml:space="preserve">
<path style="fill:#80D300;" d="M20,39.9c0,0-2.9,1.5-4,2.1c-1.1,0.6-1.9-0.5-1.9-0.5s-2,1.6-2.9,2.2S9,44.4,9,44.4s0.5-1.6,1-2.3
	c-1.4,0.6-5.1,3.4-5.6,3.4C4,45.6-1,46,0.2,45.1c1.1-0.9,7-4,8.8-5.8s8-7.8,13.8-8.2c5.8-0.5,3.9,2.4,3.9,2.4L20,39.9z"/>
<path style="fill:#EC0009;" d="M83.7,11.7c-1-0.3-4-0.5-7.2-0.5c-0.9,0.7-2.1,1.3-2.3,1.3c-0.2,0-1.3-0.9-1.7-1.3c-1,0-1.9,0-2.7,0
	c-0.3,0.5-0.8,1-0.8,1c-0.3,0.1-1.2-0.6-1.6-1c-0.4,0-0.6,0-0.6,0s-5.4,0.3-5.7,0.4c-0.3,0.1-5.2,1.8-4,2.9c1.2,1.1,5.2,0.5,7.6,0.1
	c2.4-0.3,3.7-1.2,4.4-1.1c0.7,0.1,0.5,3.9,1.2,5.1c0.7,1.2,2,3.3,2.6,3.3c0.6,0,0.7-0.7,0.7-0.7s0.7,0.6,1,0.9
	c0.2,0.2,0.6,0,0.9-0.3c-0.1-0.2-0.2-0.3-0.2-0.5c-0.2-0.5-0.2-1,0-1.5c0.1-0.3,0.4-0.6,0.7-0.7c0-0.6,0-1.1,0-1.5
	c0-1.2-0.7-2.5-0.5-3.7c1.8,0.6,6.4,0.3,7.3,0.1c1-0.2,1.8-1.3,1.8-1.3S86.3,12.5,83.7,11.7z"/>
<path style="fill:#18171A;" d="M70.5,14.2c0,0,1.6-0.1,2.1,0c0.5,0.1,1.1,0.6,1.1,0.6s-0.8,1-1.2,1.1C72.2,16,70.5,14.5,70.5,14.2z"
	/>
<path style="fill:#18171A;" d="M75.3,20c-0.2,0.5-0.2,1,0,1.5c0.1,0.2,0.1,0.4,0.2,0.5c0.1-0.1,0.2-0.2,0.2-0.3
	c0.2-0.3,0.2-1.4,0.2-2.4C75.7,19.5,75.5,19.7,75.3,20z"/>
<path style="fill:#18171F;" d="M69,12.2c0,0,1-0.9,1-1.6c0-0.7,0.8-1.6,0.8-1.6S70.5,8.1,69,8.2c-0.3-0.5,0.2-1.7,0.7-1.8
	c0.5-0.1,1.1,0.4,1.1,0.4s0.2-1.4-2.3-1c-0.8-0.4-1.9-4.2-4.4-3.5C61.7,3,59.3,4,58.3,8.4c1-0.8,3-3.1,3.9-3.1
	c1-0.1,3.1,0.6,3.4,1.6s-0.4,0.6-0.4,0.6s-3.2,0.9-3.3,2.9c0.6,0.1,2.6-1.5,3.3-1.5c0.7,0,1.6,1.9,2,2.3
	C67.6,11.6,68.7,12.3,69,12.2z"/>
<path style="fill:#18171F;" d="M72.3,11c0,0,1.6,1.4,1.9,1.4s2.3-1,3-1.9s1.5-1.9,2.3-1.9s3.2,0.1,3.4,1.1c0-1-0.1-2.9-3.5-3
	c-0.4-0.1-0.4-0.4-0.4-0.4s1.6-6.2-6.3-6.4C69.1-0.1,67.9,3,67.9,3s-0.2,0.3,0.8-0.1c1-0.4,3.2-1.1,4.1-1c0.9,0.1,2.3-0.3,3.4,2
	c1.1,2.3,0.4,3.3,0.4,3.3s-1.9-1.1-2.2-1.8c-0.1,0.5,1,1.6,1,1.8c0,0.2,0.2,1.4-0.3,1.6c-0.6,0.2-1.6-1.3-1.8-1.3
	c-0.2,0-0.5,0.4-0.4,0.6s1,0.5,0.8,1.3C73.5,10,73.2,11,72.3,11z"/>
<ellipse style="fill:#EC0009;" cx="72.3" cy="15" rx="0.3" ry="0.9"/>
<path style="fill:#F68100;" d="M34.6,52.2c-0.8-0.7-1.2-1.8-1.1-2.8c0.2-1,0.9-2,1.9-2.3c-1-0.3-1.5-1.6-1.2-2.6
	c0.3-1,1.1-1.8,1.8-2.5c-0.7-0.6-1.1-1.6-1-2.6c0.1-1,0.7-1.8,1.6-2.2c-0.9-0.7-1.4-2-1.2-3.1c0.1-0.8,0.5-1.6,1.1-2.1
	c-1.9-0.9-3.7-1.6-5.5-2c-0.5,0.7-0.9,1.4-1.1,2.3c-0.2,1.4,0.2,2.9,1.1,4c-1.5,1.6-1.6,4.3-0.2,6c-0.1-0.1-1,1.5-1.1,1.6
	c-0.3,0.7-0.4,1.5-0.2,2.3c0.1,0.7,0.7,1.4,0.7,2.1c0,0.8-0.7,1.4-0.8,2.3c0,0.9,0.4,1.8,1.2,2.2c-0.5,0.5-0.7,1.2-0.7,1.8
	c0,0.7,0.3,1.3,0.7,1.9c0,0,0,0,0,0.1c0-0.6,0.1-1.2,0.1-1.7c0.2,0.5,1.5,1.3,2.9,2C33.5,55.2,33.7,53.5,34.6,52.2z"/>
<path style="fill:#F83874;" d="M21.4,64c-0.5,0-0.9-0.4-1.2-0.8c-0.3-0.4-0.5-0.7-0.6-1.1c-0.9,0.8-2.2,1.2-3.5,3
	c-0.2,0.3-0.4,0.5-0.6,0.7c0,0.2,0.1,0.4,0.1,0.5c0.4,1.4,1.2,2.6,2.5,3.3c0.2,0.1,0.4,0.1,0.5,0.2c0.3-1.4,0.7-2.7,0.7-2.7
	s-0.1,0.4,2.3-0.3c0,0,0,0,0,0C21.1,65.9,21,64.9,21.4,64z"/>
<path style="fill:#F20000;stroke:#F20000;stroke-width:0.25;stroke-miterlimit:3;" d="M30.1,54.5c0-0.7,0.2-1.4,0.7-1.8
	c-0.7-0.5-1.2-1.3-1.2-2.2c0-0.9,0.8-1.4,0.8-2.3c0-0.7-0.6-1.4-0.7-2.1c-0.1-0.8,0-1.6,0.2-2.3c0.1-0.1,1-1.7,1.1-1.6
	c-1.4-1.7-1.3-4.4,0.2-6c-0.9-1.1-1.3-2.6-1.1-4c0.1-0.8,0.5-1.6,1.1-2.3c-0.5-0.1-1.1-0.2-1.6-0.3c-3,0.1-5.4,2.2-7.1,4.9
	c0.1,1.3,0.8,2.5,1.9,3.1c-1.1,1.2-1.2,3.2-0.3,4.5c0.2,0.3,0.5,0.6,0.6,0.9c0.1,0.3,0,0.7,0,1.1c-0.4,2.2-0.8,4.6,0.4,6.5
	c0.1,0.2,0.3,0.4,0.4,0.6c0.1,0.2,0.1,0.4,0,0.6c-0.1,1.4-0.1,2.7-0.2,4.1c0,0.6,0.1,1.5,0.7,1.5c-1,1.2-0.8,3.3,0.5,4.2
	c-0.6,0.9-0.5,2.1,0,3.1c3.1-1.9,4.1-5.1,4.4-8.4c0,0,0,0,0-0.1C30.4,55.9,30.2,55.2,30.1,54.5z"/>
<path style="fill:#389BFC;stroke:#389BFC;stroke-width:0.25;stroke-miterlimit:3;" d="M26.4,61.7c-1.3-0.9-1.6-3-0.5-4.2
	c-0.6-0.1-0.8-0.9-0.7-1.5c0.1-1.4,0.1-2.7,0.2-4.1c0-0.2,0-0.4,0-0.6c-0.1-0.2-0.2-0.4-0.4-0.6c-1.2-1.9-0.9-4.3-0.4-6.5
	c0.1-0.4,0.1-0.7,0-1.1c-0.1-0.3-0.4-0.6-0.6-0.9c-0.9-1.3-0.8-3.3,0.3-4.5c-1.1-0.6-1.8-1.8-1.9-3.1c-3.3,5-4.5,12.3-4.2,14.4
	c0.5,3.2,2.1,4.5,2.4,9.3c0.1,2.1-0.3,3.1-1,3.7c0.1,0.4,0.4,0.8,0.6,1.1c0.3,0.4,0.7,0.9,1.2,0.8c-0.4,0.9-0.3,1.9,0.2,2.7
	c0,0,0,0,0,0c0.7-0.2,1.7-0.5,3-1c0.7-0.3,1.3-0.6,1.9-0.9C25.9,63.9,25.8,62.7,26.4,61.7z"/>
<path style="fill:#B73D00;" d="M15.5,66.3c0-0.2-0.1-0.4-0.1-0.5c-1.8,2.3-1.8,1.8,0.6,8.3c2.6,7.1,6.9,9.3,6.9,9.3s0.2-1.1-0.9-2.6
	c0.6,0.8,3.9,0.4,3.9,0.4s-3-1.9-4.6-3c-1.6-1.2-1.7-3.4-2.6-5.3c-0.4-0.8-0.3-2-0.1-3.1c-0.2-0.1-0.4-0.1-0.5-0.2
	C16.8,68.9,15.9,67.6,15.5,66.3z"/>
<path style="fill:#00C1D4;" d="M72.5,33.2c-0.3-0.4-0.8-0.9-1.3-1.6c-0.5,0.3-0.9,0.7-1,1.3c-0.2,0.8,0.3,1.7,1.1,2
	c-1.2,1.5-1.2,4,0,5.5c-1.4,1.2-1.2,3.8,0.4,4.8c-0.6,1.3-0.2,2.8,0.2,4.2c0.2,0.5,0.3,1,0.5,1.6c0.3,0.8,0.5,1.7,1,2.4
	c1-2.8,1.7-5.9,2-9.3C75.8,37,73.4,34.3,72.5,33.2z"/>
<path style="fill:#15151A;stroke:#000000;stroke-width:0.25;stroke-miterlimit:10;" d="M39.8,55.1c-0.1-0.9-0.7-1.8-0.8-2.7
	c-0.2-0.9,0.4-2.1,1.3-2.1c-1-0.9-1.5-2.2-1.4-3.5c0.1-1.3,0.9-2.5,2-3.2c-1.6-1.3-1.5-4.2,0.2-5.4c-1-0.5-1.6-1.7-1.5-2.8
	c0.1-0.6,0.4-1.2,0.8-1.7c-1.2-0.7-2.5-1.3-3.7-1.8c-0.6,0.5-1,1.3-1.1,2.1c-0.2,1.1,0.3,2.4,1.2,3.1c-0.9,0.4-1.5,1.3-1.6,2.2
	c-0.1,1,0.3,2,1,2.6c-0.8,0.7-1.6,1.5-1.8,2.5c-0.3,1,0.1,2.3,1.2,2.6c-1,0.4-1.7,1.3-1.9,2.3c-0.2,1,0.3,2.1,1.1,2.8
	c-0.9,1.3-1.1,3-0.8,4.5c2.3,1.2,5.3,2.4,5.3,2.4s0,0,0,0c0.1-0.5,0.2-1.1,0.3-1.6C39.6,56.7,39.9,55.9,39.8,55.1z"/>
<path style="fill:#FE8C12;" d="M72,49.3c-0.4-1.4-0.9-2.9-0.2-4.2c-1.6-0.9-1.9-3.6-0.4-4.8c-1.2-1.6-1.2-4,0-5.5
	c-0.8-0.3-1.2-1.2-1.1-2c0.1-0.5,0.5-1,1-1.3c-1-1.4-2.2-3.6-2.5-7.4c-0.3-3.2,0.8-4.5,1.8-5c-0.1-0.1-0.1-0.2-0.2-0.3
	c-0.7-1.2-0.5-5-1.2-5.1c-0.3,0-0.8,0.1-1.4,0.3c-0.6,0.5-1.1,1.2-1.4,1.9c-0.5,1.4-0.2,3.1,0.7,4.2c-1.7,1.4-2.2,4.2-0.9,6.1
	c-1.7,1.5-1.7,4.6,0,6.1c-1.8,1.4-1.6,4.7,0.4,5.8C65.1,39,64.4,41,65,42.5c0.3,0.7,0.8,1.3,1,2c0.2,0.8,0,1.6-0.1,2.3
	c-0.1,0.8-0.3,1.6,0,2.3c0.3,0.7,1.2,1.3,1.9,0.9c-0.9,0.6-1.5,1.7-1.4,2.8c0.1,1.1,0.8,2.1,1.8,2.5c-0.8,2-0.1,4.4,1.4,5.9
	c0,0,0-0.1,0-0.1c1.3-2.2,2.7-4.8,3.7-7.7c-0.4-0.8-0.7-1.6-1-2.4C72.3,50.4,72.1,49.9,72,49.3z"/>
<path style="fill:#FFAE00;" d="M56.8,53.9c-1.1-0.8-1.1-2.7,0-3.5c-1.1-0.7-1.7-2.1-1.4-3.3c0.1-0.6,0.5-1.2,0.5-1.8
	c0-1.1-0.8-1.9-1.2-2.9c-0.4-0.9-0.3-1.9,0.1-2.8c-1.1-0.2-2.4-0.5-4.1-1.1c-0.2-0.1-0.5-0.1-0.7-0.2c-0.5,0.4-0.8,1-0.9,1.7
	c-0.2,1,0.2,2.1,1,2.8c-1.3,1.5-1.2,4,0.3,5.3c-1.4,1.2-1.3,3.8,0.3,4.8c-0.7,0.4-1.1,1.2-1,1.9c0.1,0.8,0.7,1.5,1.4,1.7
	c-0.7,1.2-0.9,2.7-0.4,4c0,0,0,0,0,0c2.4-0.2,4.6-0.8,6.2-1.3C56.1,57.4,56,55.5,56.8,53.9z"/>
<path style="fill:#0047B5;stroke:#0047B5;stroke-width:0.25;stroke-miterlimit:3;" d="M68.3,55.3c-1-0.4-1.7-1.4-1.8-2.5
	c-0.1-1.1,0.5-2.2,1.4-2.8c-0.7,0.3-1.6-0.2-1.9-0.9c-0.3-0.7-0.2-1.5,0-2.3c0.1-0.8,0.3-1.6,0.1-2.3c-0.2-0.7-0.7-1.3-1-2
	c-0.6-1.5,0.1-3.5,1.5-4.3c-2-1.2-2.2-4.4-0.4-5.8c-1.7-1.5-1.7-4.6,0-6.1c-1.2-1.9-0.8-4.6,0.9-6.1c-0.9-1.2-1.2-2.8-0.7-4.2
	c0.3-0.8,0.8-1.4,1.4-1.9c-0.7,0.2-1.7,0.6-3,0.7c0,0-3.7,6.5-4,14.8c1.7,8.6-0.2,8.4-1.1,9.2c-0.1,0.1-0.1,0.1-0.2,0.2
	c0.1,0.7,0.2,1.3,0.3,2c0.3,1.2,1.6,2.7,1.4,3.9c-0.2,1.3-1,2.1-0.6,3.6c0.1,0.3,1.7,3,1.8,2.7c-0.8,1.9-0.4,4.3,1.1,5.8
	c-0.3,1.1-0.5,2.1-0.3,3.2c0.2,1.1,1.1,2.1,2.2,2.1c-0.8,2-0.2,4.3,1.3,5.9c0.6-2.1,1.6-4.5,3.1-6.9C68.1,59.6,67.5,57.2,68.3,55.3z
	"/>
<path style="fill:#E78197;" d="M78.2,77.4c-1-1.5-4.5-5-6.1-9.3c-1.6-4.3,1-14.1,1.3-14.7c-1.1,2.9-2.4,5.5-3.7,7.7c0,0,0,0.1,0,0.1
	c-1.4,2.4-2.5,4.9-3.1,6.9c-0.4-0.5-0.8-1-1-1.6c0,0,0,0,0,0c-0.4,0.5,1.6,2.4,4.1,4.4c2.5,2.1,1.8,5.8,1.8,5.8l0.6,0.4
	c0,0,0.6-0.2,2.1,2.2c1.5,2.4,3.1,2.4,3.3,2.3c0.2-0.1,0.7-0.8-0.7-1.2c-1.4-0.4-1.7-2.7-1.4-2.8c0.3-0.1,1.5,1.3,2.1,1.9
	c0.6,0.6,2,1,4.3,0.8C81,80.3,79.1,78.7,78.2,77.4z"/>
<path style="fill:none;" d="M82,80.5c-0.1,0-0.2,0-0.3,0C81.9,80.6,82,80.6,82,80.5z"/>
<path style="fill:#DE0039;stroke:#DE0039;stroke-width:0.25;stroke-linejoin:round;stroke-miterlimit:3;" d="M65.1,62.2
	c-1.1,0-2-1-2.2-2.1c-0.2-1.1,0.1-2.2,0.3-3.2c-1.5-1.5-1.9-3.9-1.1-5.8c-0.1,0.3-1.7-2.4-1.8-2.7c-0.3-1.5,0.4-2.2,0.6-3.6
	c0.2-1.2-1.1-2.7-1.4-3.9c-0.2-0.6-0.3-1.3-0.3-2c-0.6,0.6-1.1,1.3-4.6,0.7c-0.4,0.9-0.5,1.9-0.1,2.8c0.4,1,1.3,1.8,1.2,2.9
	c0,0.6-0.3,1.2-0.5,1.8c-0.3,1.2,0.3,2.7,1.4,3.3c-1.1,0.8-1,2.7,0,3.5c-0.8,1.6-0.7,3.6,0.1,5.2c1.5-0.5,2.5-1,2.5-1
	s1.2,4.3,1.2,5.4c0,1.1,0,3.8,0,3.9c0,0.4,0.7,1.1,0.9,1.5c0.5,1,0.8,2.1,1.1,3.2c0.4,1.5,0.9,3.2,0.9,4.7c0,0.4-0.6,3.6,0.2,3.2
	c-0.2,0.6,0.2,1.2,0.5,1.8c0.4,0.6,0.9,1.2,1.5,1.7c0.6,0.4,1.4,0.7,2.1,0.4c0.1-0.3-0.4-0.4-0.7-0.5c-0.7-0.3-1-1.2-1-1.9
	c0.7-0.2,1.3,0.5,1.7,1.1c1,1.5,5.1,2.1,5.9,1.6c-0.5,0-3.6-2.3-5-3.8c-1.4-1.5-2.4-6-2.6-8.3c-0.1-1,0.1-2.4,0.5-4
	C65,66.5,64.4,64.2,65.1,62.2z"/>
<path style="fill:#00B9BA;" d="M51.1,56.4c-0.7-0.2-1.3-0.9-1.4-1.7c-0.1-0.8,0.4-1.6,1-1.9c-1.6-1-1.7-3.6-0.3-4.8
	c-1.5-1.3-1.6-3.8-0.3-5.3c-0.8-0.7-1.2-1.8-1-2.8c0.1-0.6,0.4-1.2,0.9-1.7c-1.7-0.6-3.4-1.3-5-2c-0.2,0.5-0.3,1.2-0.1,1.7
	c0.2,0.5,0.5,0.9,0.6,1.4c0,0.6-0.5,1.1-0.8,1.6c-1,1.5-0.7,3.6,0.7,4.8c-1,0.3-1.7,1.3-1.7,2.3c0,1,0.7,2,1.7,2.3
	c-0.6,0.7-1.2,1.5-1.3,2.5c-0.1,0.9,0.6,2,1.5,2c-1.4,1.2-2.1,3.3-1.7,5.2c1,0.1,2.1,0.3,3.4,0.4c1.1,0.1,2.3,0.1,3.4,0c0,0,0,0,0,0
	C50.2,59.1,50.3,57.6,51.1,56.4z"/>
<path style="fill:#FE67B5;" d="M45.7,54.8c-0.9,0-1.6-1-1.5-2c0.1-0.9,0.7-1.7,1.3-2.5c-1-0.3-1.7-1.3-1.7-2.3c0-1,0.7-2,1.7-2.3
	c-1.3-1.1-1.6-3.3-0.7-4.8c0.3-0.5,0.8-1,0.8-1.6c0-0.5-0.4-0.9-0.6-1.4c-0.2-0.6-0.2-1.2,0.1-1.7c-1.6-0.8-3.2-1.6-4.7-2.4
	c-0.4,0.5-0.7,1-0.8,1.7c-0.1,1.1,0.5,2.3,1.5,2.8c-1.7,1.2-1.8,4-0.2,5.4c-1.1,0.7-1.9,1.9-2,3.2c-0.1,1.3,0.4,2.6,1.4,3.5
	c-0.9-0.1-1.5,1.1-1.3,2.1c0.2,0.9,0.8,1.7,0.8,2.7c0.1,0.8-0.2,1.6-0.4,2.4c-0.1,0.5-0.2,1.1-0.3,1.6c0.2,0.1,1.6,0.4,4.8,0.8
	C43.5,58.1,44.2,56,45.7,54.8z"/>
<path style="fill:#ED5AD0;" d="M34,58.9c0.1,0.5,0.4,0.9,0.8,1.2c-0.7,0.4-1,1.2-1.2,2c-0.1,0.5-0.2,1.1-0.1,1.6
	c0.1,0.3,0.3,0.7,0.4,1c0.1,0.2,0.2,0.4,0.4,0.6c0.8-0.7,1.8-1.5,2.7-2.2c1.4-1,1.9-3,2.1-4c0,0-2.5-1-4.8-2.1
	c-0.1,0.3-0.2,0.6-0.2,0.9C34,58.2,33.9,58.6,34,58.9z"/>
<path style="fill:#F97600;" d="M37.1,83.1c-1.5-0.5-2.1-2.7-3-3.8c-2.5-3.1-3.2-6.6-3.5-8.4c-0.2-0.1-0.4-0.3-0.5-0.5
	c-0.3-0.5-0.3-1.1-0.4-1.7c-0.1-0.7-0.4-1.4-0.8-2c-0.3-0.3-0.6-0.6-0.8-1c-0.1-0.2-0.2-0.3-0.3-0.5c-1,1.3-2,2.4-2.4,3
	c-0.7,1.1-0.2,1.2,1.9,4c2.1,2.8,2.2,6.9,2.3,7.4c0.1,0.5,0.7,1.1,1.5,1.7c-0.2,0.6,0.7,4.3,2.4,4.3c1.8,0,1.9-0.2,1.2-0.7
	c-0.5-0.1-1.8-1.1-1.6-1.8c0.3-1,1.7,0.1,2.2,0.4c0.6,0.4,1.3,0.6,2,0.4c0.2-0.1,0.4-0.2,0.4-0.4C37.7,83.2,37.4,83.2,37.1,83.1z"/>
<path style="fill:#00B5F5;" d="M28.9,66.6c0.4,0.6,0.7,1.3,0.8,2c0.1,0.6,0.1,1.2,0.4,1.7c0.1,0.2,0.3,0.4,0.5,0.5
	c-0.1-0.5-0.2-0.9-0.2-1.1c-0.3-0.8,2.3-3,2.3-3s0.8-0.7,1.7-1.5c-0.1-0.2-0.2-0.4-0.4-0.6c-0.2-0.3-0.4-0.6-0.4-1
	c-0.1-0.5,0-1.1,0.1-1.6c0.2-0.8,0.4-1.7,1.2-2c-0.4-0.2-0.8-0.7-0.8-1.2c-0.1-0.3,0-0.7,0.1-1.1c0-0.3,0.1-0.6,0.2-0.9
	c-0.2-0.1-0.3-0.2-0.5-0.2c-1.4-0.7-2.7-1.5-2.9-2c0,0.6,0,1.2-0.1,1.7c-0.1,1.8-0.5,3.6-1.4,5.2c-0.3,1.2-1,2.4-1.7,3.5
	c0.1,0.2,0.1,0.4,0.3,0.5C28.3,66,28.6,66.3,28.9,66.6z"/>
</svg>
