<?xml version="1.0" encoding="utf-8"?>
<!-- Generator: Adobe Illustrator 24.2.1, SVG Export Plug-In . SVG Version: 6.00 Build 0)  -->
<svg version="1.0" id="Layer_1" xmlns="http://www.w3.org/2000/svg" xmlns:xlink="http://www.w3.org/1999/xlink" x="0px" y="0px"
	 viewBox="0 0 311.1 376.1" style="enable-background:new 0 0 311.1 376.1;" xml:space="preserve">
<g>
	<path style="fill:#357C88;" d="M169.1,223.8l0.3-2.2c0,0-0.4-1.5-1.2-4c7.8-19.7,20-37.6,39.1-48.1c13.1-24,35.9-37.5,54.1-63.9
		c22-32,21-55,15-68s-16-8-16-8s0,7,0,20s-13,48-53,76s-46,93-46,93C163,221.8,165.8,223.6,169.1,223.8z"/>
	<path d="M170.4,225.4l-1.4-0.1c-3.9-0.2-7.2-2.4-9-6l-0.2-0.4v-0.4c0.1-0.7,6.5-66,46.6-94.1c39.6-27.7,52.4-62.3,52.4-74.8V28.7
		l0.8-0.4c0.2-0.1,4.3-2.1,9.1-0.4c3.7,1.3,6.7,4.4,8.9,9.2c4.9,10.6,9.4,33.7-15.1,69.5c-8.5,12.4-17.9,21.8-27,31
		c-10.3,10.4-20.1,20.1-27,32.8l-0.2,0.4l-0.4,0.2c-16.6,9.1-29.4,24.9-38.2,46.8c0.7,2.2,1,3.5,1.1,3.6l0.1,0.3L170.4,225.4z
		 M162.9,218.3c1.1,2,2.8,3.3,4.9,3.8l0.1-0.4c-0.2-0.5-0.5-1.8-1.1-3.6l-0.2-0.5l0.2-0.5c9-22.7,22.2-39.1,39.4-48.7
		c7.1-12.9,16.9-22.7,27.3-33.1c9-9.1,18.3-18.4,26.7-30.5c23.7-34.6,19.5-56.5,14.8-66.6c-1.9-4-4.3-6.6-7.2-7.6
		c-2.5-0.9-4.8-0.4-6,0v19c0,6.5-3.1,18.6-11.7,33.1c-6.8,11.5-19.7,28.5-41.9,44.1c-11.2,7.8-26.8,24-37.4,56.2
		C165,200.6,163.2,215.6,162.9,218.3z"/>
</g>
<g>
	<path style="fill:#357C88;" d="M145.9,160.3c6.1,7,9.8,14.2,11.6,20.4c4.1,14.1,9.6,32.9,11.4,39c-0.2-0.6-0.4-1.2-0.6-2
		c3.7-9.3,10.4-17.1,9.7-27c-0.6-8.6,2-15.6,2.6-24.3c1.5-19.7-6.9-38.5-16.2-55.4c-10.6-19.2-30.9-32.2-42-51.2c-7-12,2-52,2-56
		s-5-2-12,0c-34,34,0,85,22,114C146.4,133.4,147.4,149.1,145.9,160.3z"/>
	<path d="M167.5,220.2c-0.2-0.6-0.4-1.3-0.6-2.1l-0.1-0.2c-2.3-7.8-7.1-24.2-10.7-36.7c-1.4-4.7-4.4-12-11.3-19.8l-0.4-0.5l0.1-0.7
		c2-15.2-1.7-29.1-11.2-41.4c-10.4-13.7-25-34.4-32.2-55.6c-8.4-24.8-4.9-45.1,10.4-60.4l0.3-0.3l0.4-0.1c0.8-0.2,1.6-0.5,2.3-0.7
		c5-1.5,8.2-2.4,10.2-0.9c0.9,0.7,1.3,1.7,1.3,3.1c0,0.9-0.3,3-1,7.1c-1.9,11.7-6.4,39.2-1.2,48.2c5.3,9.1,13,17,20.4,24.7
		c7.9,8.1,16.1,16.5,21.6,26.5c9,16.3,17.9,35.7,16.4,56.2c-0.2,3.5-0.8,6.8-1.4,9.9c-0.8,4.7-1.6,9.2-1.2,14.2
		c0.5,7.3-2.7,13.5-5.9,19.5c-1.3,2.5-2.6,5-3.7,7.6c0.2,0.6,0.3,1.1,0.4,1.5L167.5,220.2z M147.5,159.8c6.9,8.1,10,15.6,11.5,20.5
		c3.1,10.8,7.1,24.5,9.7,33.1c0.8-1.6,1.6-3.1,2.3-4.6c3.1-5.9,6-11.5,5.6-17.9c-0.4-5.4,0.4-10,1.3-14.9c0.5-3.1,1.1-6.2,1.3-9.6
		c1.5-19.7-7.3-38.7-16-54.6c-5.3-9.6-13.3-17.9-21.1-25.9c-7.6-7.8-15.4-15.8-20.9-25.3c-5.8-9.9-1.5-36.1,0.8-50.2
		c0.5-3.1,1-5.9,1-6.6c0-0.4-0.1-0.6-0.1-0.7c-0.8-0.6-4.6,0.5-7.6,1.4c-0.6,0.2-1.3,0.4-2,0.6C99,19.5,95.9,38.7,103.8,62.2
		c7.1,20.8,21.5,41.2,31.8,54.7C145.3,129.5,149.4,144.3,147.5,159.8z"/>
</g>
<g>
	<g>
		<path style="fill:#357C88;" d="M169.2,220.9c0-0.2-0.1-0.4-0.2-0.6C169.1,220.6,169.2,220.8,169.2,220.9z"/>
	</g>
	<g>
		<path d="M169,220.3c0.1,0.2,0.1,0.4,0.2,0.6C169.2,220.8,169.1,220.6,169,220.3L169,220.3z"/>
	</g>
</g>
<g>
	<g>
		<circle style="fill:#FFA200;" cx="174.9" cy="15.1" r="8"/>
	</g>
	<g>
		<path d="M174.9,8.1c3.9,0,7,3.1,7,7s-3.1,7-7,7s-7-3.1-7-7S171.1,8.1,174.9,8.1 M174.9,6.1c-5,0-9,4-9,9s4,9,9,9s9-4,9-9
			S179.9,6.1,174.9,6.1L174.9,6.1z"/>
	</g>
</g>
<g>
	<g>
		<circle style="fill:#FFA200;" cx="169.9" cy="15.1" r="8"/>
	</g>
	<g>
		<path d="M169.9,8.1c3.9,0,7,3.1,7,7s-3.1,7-7,7s-7-3.1-7-7S166.1,8.1,169.9,8.1 M169.9,6.1c-5,0-9,4-9,9s4,9,9,9s9-4,9-9
			S174.9,6.1,169.9,6.1L169.9,6.1z"/>
	</g>
</g>
<g>
	<g>
		<circle style="fill:#FFFFFF;" cx="160.9" cy="33.1" r="6"/>
	</g>
	<g>
		<path d="M160.9,28.1c2.8,0,5,2.2,5,5s-2.2,5-5,5s-5-2.2-5-5S158.2,28.1,160.9,28.1 M160.9,26.1c-3.9,0-7,3.1-7,7s3.1,7,7,7
			s7-3.1,7-7S164.8,26.1,160.9,26.1L160.9,26.1z"/>
	</g>
</g>
<g>
	<g>
		<circle style="fill:#FFFFFF;" cx="155.9" cy="19.1" r="7"/>
	</g>
	<g>
		<path d="M155.9,13.1c3.3,0,6,2.7,6,6s-2.7,6-6,6s-6-2.7-6-6S152.6,13.1,155.9,13.1 M155.9,11.1c-4.4,0-8,3.6-8,8s3.6,8,8,8
			s8-3.6,8-8S160.4,11.1,155.9,11.1L155.9,11.1z"/>
	</g>
</g>
<g>
	<g>
		<circle style="fill:#FFA200;" cx="181.9" cy="26.1" r="7"/>
	</g>
	<g>
		<path d="M181.9,20.1c3.3,0,6,2.7,6,6s-2.7,6-6,6s-6-2.7-6-6S178.6,20.1,181.9,20.1 M181.9,18.1c-4.4,0-8,3.6-8,8s3.6,8,8,8
			s8-3.6,8-8S186.4,18.1,181.9,18.1L181.9,18.1z"/>
	</g>
</g>
<g>
	<g>
		<circle style="fill:#FFA200;" cx="191.9" cy="44.1" r="11"/>
	</g>
	<g>
		<path d="M191.9,34.1c5.5,0,10,4.5,10,10s-4.5,10-10,10s-10-4.5-10-10S186.4,34.1,191.9,34.1 M191.9,32.1c-6.6,0-12,5.4-12,12
			s5.4,12,12,12s12-5.4,12-12S198.6,32.1,191.9,32.1L191.9,32.1z"/>
	</g>
</g>
<g>
	<g>
		<circle style="fill:#FFA200;" cx="193.9" cy="65.1" r="10"/>
	</g>
	<g>
		<path d="M193.9,56.1c5,0,9,4,9,9s-4,9-9,9s-9-4-9-9S189,56.1,193.9,56.1 M193.9,54.1c-6.1,0-11,4.9-11,11s4.9,11,11,11
			s11-4.9,11-11S200,54.1,193.9,54.1L193.9,54.1z"/>
	</g>
</g>
<g>
	<g>
		<circle style="fill:#FFA200;" cx="196.9" cy="86.1" r="11"/>
	</g>
	<g>
		<path d="M196.9,76.1c5.5,0,10,4.5,10,10s-4.5,10-10,10s-10-4.5-10-10S191.4,76.1,196.9,76.1 M196.9,74.1c-6.6,0-12,5.4-12,12
			s5.4,12,12,12s12-5.4,12-12S203.6,74.1,196.9,74.1L196.9,74.1z"/>
	</g>
</g>
<g>
	<g>
		<circle style="fill:#FFA200;" cx="193.9" cy="105.1" r="9"/>
	</g>
	<g>
		<path d="M193.9,97.1c4.4,0,8,3.6,8,8s-3.6,8-8,8s-8-3.6-8-8S189.5,97.1,193.9,97.1 M193.9,95.1c-5.5,0-10,4.5-10,10s4.5,10,10,10
			s10-4.5,10-10S199.5,95.1,193.9,95.1L193.9,95.1z"/>
	</g>
</g>
<g>
	<g>
		<ellipse style="fill:#FFA200;" cx="190.9" cy="120.1" rx="10" ry="8"/>
	</g>
	<g>
		<path d="M190.9,113.1c5,0,9,3.1,9,7s-4,7-9,7s-9-3.1-9-7S186,113.1,190.9,113.1 M190.9,111.1c-6.1,0-11,4-11,9s4.9,9,11,9
			s11-4,11-9C201.9,115.2,197,111.1,190.9,111.1L190.9,111.1z"/>
	</g>
</g>
<g>
	<g>
		<circle style="fill:#FFA200;" cx="188.9" cy="134.1" r="8"/>
	</g>
	<g>
		<path d="M188.9,127.1c3.9,0,7,3.1,7,7s-3.1,7-7,7s-7-3.1-7-7S185.1,127.1,188.9,127.1 M188.9,125.1c-5,0-9,4-9,9s4,9,9,9s9-4,9-9
			S193.9,125.1,188.9,125.1L188.9,125.1z"/>
	</g>
</g>
<g>
	<g>
		<circle style="fill:#FFA200;" cx="185.9" cy="144.1" r="8"/>
	</g>
	<g>
		<path d="M185.9,137.1c3.9,0,7,3.1,7,7s-3.1,7-7,7s-7-3.1-7-7S182.1,137.1,185.9,137.1 M185.9,135.1c-5,0-9,4-9,9s4,9,9,9s9-4,9-9
			S190.9,135.1,185.9,135.1L185.9,135.1z"/>
	</g>
</g>
<g>
	<g>
		<ellipse style="fill:#FFA200;" cx="178.9" cy="155.1" rx="7" ry="6"/>
	</g>
	<g>
		<path d="M178.9,150.1c3.3,0,6,2.2,6,5s-2.7,5-6,5s-6-2.2-6-5S175.6,150.1,178.9,150.1 M178.9,148.1c-4.4,0-8,3.1-8,7s3.6,7,8,7
			s8-3.1,8-7S183.4,148.1,178.9,148.1L178.9,148.1z"/>
	</g>
</g>
<g>
	<g>
		<circle style="fill:#FFA200;" cx="174.9" cy="167.1" r="7"/>
	</g>
	<g>
		<path d="M174.9,161.1c3.3,0,6,2.7,6,6s-2.7,6-6,6s-6-2.7-6-6S171.6,161.1,174.9,161.1 M174.9,159.1c-4.4,0-8,3.6-8,8s3.6,8,8,8
			s8-3.6,8-8S179.4,159.1,174.9,159.1L174.9,159.1z"/>
	</g>
</g>
<g>
	<g>
		<path style="fill:#357C88;" d="M246.4,159.6c-43,0.8-66,27.3-78.2,58c0.7,2.5,1.2,4,1.2,4l-11,83.3c-0.2-0.4-0.5-0.8-0.8-1.2
			c5.8,9.1,7.8,13.6,8.2,15.9c3.5-4.9,13.5-18,28.5-29.4c0.9-49.1,18.2-87.5,55.1-98.6c40-12,43,50,43,50s0,0,4,1
			C320.4,184.6,277.4,159.6,246.4,159.6z"/>
		<path d="M164.9,323.4l-0.6-3.5c-0.3-2-2-5.5-5-10.5l-0.1,0.6l-2-4c-0.3-0.5-0.6-0.9-0.9-1.4l0.7-0.5l10.9-82.3
			c-0.2-0.6-0.6-1.9-1.1-3.7l-0.1-0.5l0.2-0.5c15.3-38.4,42-58.2,79.6-58.9l0,0c15.5,0,38,6.5,50.3,25c7.3,10.9,13.4,30.2,1.1,60.1
			l-0.5,1.2l-6.3-1.6l-0.1-1.1c0-0.3-1.9-34.1-18.7-46c-6.2-4.4-13.7-5.2-22.4-2.6c-33.9,10-53.1,44.5-54.1,97v0.7l-0.6,0.4
			c-14.6,11.1-24.6,24-28.2,29.1L164.9,323.4z M160,304.6c3.1,5,5.2,8.9,6.4,11.7c4.6-6.1,13.8-17.1,26.5-26.9
			c1.2-53.5,21.1-88.7,56.2-99.3c9.6-2.9,18.1-1.9,25,3c7.6,5.4,13.3,15.2,16.8,29.1c2.1,8.2,2.8,15.4,3,18.1l1.7,0.4
			c8.9-22.2,8.5-41.6-1.3-56.1c-11.6-17.4-33-23.6-47.8-23.6c-36,0.7-61.8,19.7-76.6,56.6c0.6,2.1,1,3.4,1,3.4l0.1,0.3v0.3
			L160,304.6z"/>
	</g>
	<g>
		<path style="fill:#357C88;" d="M157.6,303.6c-0.4-0.6-0.8-1.3-1.2-1.9C156.8,302.4,157.2,303,157.6,303.6z"/>
		<path d="M156.4,304.4C156.3,304.4,156.3,304.4,156.4,304.4L156.4,304.4c-0.4-0.6-0.8-1.3-1.3-2l2.5-1.6c0.2,0.3,0.4,0.7,0.6,1
			c0.2,0.3,0.4,0.6,0.6,0.9L156.4,304.4z"/>
	</g>
	<g>
		<path style="fill:#357C88;" d="M156.3,301.7c-0.4-0.7-0.9-1.4-1.4-2.1C155.5,300.3,155.9,301,156.3,301.7z"/>
		<path d="M155,302.4c-0.4-0.6-0.9-1.3-1.3-2l2.4-1.8c0.7,0.8,1.1,1.6,1.6,2.3l0,0L155,302.4z"/>
	</g>
</g>
<g>
	<g>
		<circle style="fill:#FFA200;" cx="160.9" cy="33.1" r="6"/>
	</g>
	<g>
		<path d="M160.9,28.1c2.8,0,5,2.2,5,5s-2.2,5-5,5s-5-2.2-5-5S158.2,28.1,160.9,28.1 M160.9,26.1c-3.9,0-7,3.1-7,7s3.1,7,7,7
			s7-3.1,7-7S164.8,26.1,160.9,26.1L160.9,26.1z"/>
	</g>
</g>
<g>
	<g>
		<circle style="fill:#FFA200;" cx="155.9" cy="19.1" r="7"/>
	</g>
	<g>
		<path d="M155.9,13.1c3.3,0,6,2.7,6,6s-2.7,6-6,6s-6-2.7-6-6S152.6,13.1,155.9,13.1 M155.9,11.1c-4.4,0-8,3.6-8,8s3.6,8,8,8
			s8-3.6,8-8S160.4,11.1,155.9,11.1L155.9,11.1z"/>
	</g>
</g>
<g>
	<g>
		<g>
			<path style="fill:#FFF0C1;" d="M164.5,230.9c-0.8,0-1.5-0.4-2.1-1c-0.5-0.6-0.8-1.4-0.8-2.2c0.1-1.9,1.8-46.6,4.8-64.7
				c0.9-5.7,3-12.3,5.4-19.9c5.3-17.1,12-38.3,10.6-63.5c-1.9-35.9-9.5-45.3-17-51.9c-0.6-0.5-1-1.3-1-2.1c-0.1-0.8,0.2-1.6,0.7-2.2
				c0.6-0.7,1.4-1,2.3-1c0.7,0,1.4,0.3,2,0.7c10.4,9.1,17.2,21.6,19,56.1c1.4,26.2-5.4,48.1-10.9,65.6c-2.3,7.4-4.3,13.8-5.2,19.1
				c-2.9,17.6-4.7,63.5-4.8,63.9c-0.1,1.6-1.4,2.9-3,2.9V230.9z"/>
		</g>
		<g>
			<path d="M167.4,23.6c0.5,0,1,0.2,1.3,0.5c10.2,8.9,16.8,21.3,18.7,55.4c1.4,26.1-5.4,47.8-10.8,65.2c-2.3,7.4-4.3,13.8-5.2,19.2
				c-2.9,17.6-4.8,63.6-4.8,64c0,1.1-0.9,1.9-2,1.9h-0.1c-1.1,0-2-1-1.9-2.1c0.1-1.9,1.8-46.6,4.8-64.5c0.9-5.6,3-12.2,5.3-19.7
				c5.3-17.1,12-38.5,10.6-63.8c-2-36.3-9.6-45.9-17.3-52.6c-0.4-0.4-0.6-0.8-0.7-1.4c0-0.5,0.1-1,0.5-1.4
				C166.3,23.9,166.9,23.6,167.4,23.6 M167.4,21.6c-1.1,0-2.2,0.5-3,1.4c-1.5,1.7-1.3,4.2,0.4,5.6c7.4,6.4,14.7,15.7,16.6,51.2
				c1.4,25-5.2,46.1-10.5,63.1c-2.4,7.6-4.4,14.2-5.4,20c-3,18-4.8,62.9-4.8,64.8c-0.1,2.2,1.6,4.1,3.8,4.2c0.1,0,0.1,0,0.2,0
				c2.1,0,3.9-1.7,4-3.8c0-0.5,1.8-46.2,4.7-63.8c0.9-5.2,2.9-11.6,5.2-18.9c5.5-17.6,12.3-39.5,10.9-65.9
				c-1.9-34.8-8.8-47.6-19.4-56.8C169.3,22,168.4,21.6,167.4,21.6L167.4,21.6z"/>
		</g>
	</g>
</g>
<g>
	<path style="fill:#357C88;" d="M28.4,196.6c26-62,74-34,92-19c15.1,12.6,15.4,76,15.1,95.9c2.5,2.5,4.8,5.2,6.9,8.1
		c7.3,10.1,12.5,17.6,16,23.3l11-83.3c0,0-7-24-12-41s-24-42-69-48s-67,37-68,49S18.4,199.6,28.4,196.6z"/>
	<path d="M159.3,309.3l-2.2-3.6c-3.3-5.3-8.2-12.5-15.9-23.2c-2-2.8-4.3-5.5-6.7-7.9l-0.4-0.4v-0.6c0.2-10.4,0.1-30.8-1.8-50.5
		c-2.3-23.9-6.7-39.1-12.8-44.2c-6.8-5.7-30.9-23.8-54.5-18c-14.8,3.4-26.6,15.7-35.2,36.3l-0.3,0.7l-0.7,0.2
		c-4,1.2-6.6,1.1-8.3-0.3c-2.8-2.3-2.4-7.2-1.7-14.6l0.1-1.7c0.6-6.9,8.2-25,24-37.7c13.1-10.5,28.9-14.9,45.7-12.7
		c20.5,2.7,37.4,9.5,50.3,20.2c13.2,11,18.2,22.8,20,28.9c5,17,12,41,12,41l0.1,0.3v0.3L159.3,309.3z M137,272.9
		c2.4,2.4,4.6,5.1,6.6,7.8c6.2,8.6,10.6,14.9,13.8,19.9l10.4-78.9c-0.8-2.8-7.2-24.8-11.9-40.7c-5.6-19.1-26.4-41.4-67.8-46.9
		c-16.2-2.2-30.8,1.9-43.4,12c-15.1,12.1-22.4,29.2-22.9,35.6l-0.1,1.7c-0.5,6-0.9,10.7,0.7,12c0.8,0.6,2.4,0.6,4.9,0
		c9-21.1,21.4-33.7,36.9-37.5c25-6.1,50,12.7,57.1,18.6c6.8,5.7,11.4,21.2,13.9,46.2C137.1,242.1,137.2,262.2,137,272.9z"/>
</g>
<g>
	<path style="fill:#357C88;" d="M128.4,374.6c0,0,19-84-52-97s-60,43-60,43s-7,2-10-1s-13-40,8-58s96-24,128,20
		c4.2,5.8,8.4,11.7,12.4,17.7c2.5,3.8,5,7.6,7.2,11.6c0.4,0.8,0.9,1.6,1.3,2.4c0.2,0.5,0.4,0.9,0.6,1.4c0.4,1.1,1.3,2.1,1.9,3.1
		c0.1,0.2,0.2,0.3,0.4,0.4c0.3,0.1,0.5-0.1,0.7-0.3c1.9-1.6,3.1-3.8,4.6-5.7c1.2-1.4,2.4-2.8,3.6-4.2c3-3.3,6.1-6.5,9.3-9.5
		c3.8-3.5,7.7-6.8,11.9-9.9c4.5-3.3,9.3-6.3,14.3-8.8c5.2-2.7,10.7-4.9,16.4-6.4c6-1.6,12.1-2.5,18.3-2.6c5.8-0.1,11.5,0.5,17.1,1.8
		c58,13,46,69,46,69l-8,6c0,0-4,10-5-5s-1-46-44-45s-55,40-55,53s-2,24-2,24H128.4z"/>
	<path d="M195.7,376.1h-69.1l0.4-1.8c0.1-0.4,9.1-41.5-9.6-69.8c-8.9-13.5-22.8-22.1-41.2-25.4c-23.3-4.3-40-1.5-49.7,8.3
		c-12.4,12.6-8.6,32.8-8.6,33l0.3,1.4l-1.3,0.4c-0.8,0.2-7.9,2.1-11.5-1.4c-2.1-2.1-5.9-14.9-5.4-28.5c0.4-9.5,3-22.7,13.5-31.7
		c12.4-10.7,40.6-16.1,67-13c27.5,3.2,49.9,15,63.2,33.3c3.8,5.2,8.2,11.3,12.4,17.7c2.5,3.8,5,7.7,7.3,11.7
		c0.2,0.4,0.4,0.8,0.6,1.2c0.2,0.4,0.5,0.8,0.7,1.3l0.1,0.1c0.1,0.2,0.2,0.4,0.3,0.6s0.2,0.5,0.3,0.8c0.2,0.6,0.6,1.1,1,1.8
		c0.1,0.1,0.1,0.2,0.2,0.3c0.9-0.9,1.6-1.9,2.4-3c0.5-0.6,0.9-1.3,1.4-1.9l3.6-4.2c3.3-3.6,6.4-6.8,9.4-9.6c4.2-3.8,8.1-7.1,12-10
		c4.8-3.5,9.6-6.5,14.5-8.9c5.5-2.8,11.1-5,16.7-6.5c6.2-1.7,12.5-2.5,18.7-2.7c5.9-0.1,11.8,0.5,17.5,1.8
		c30.7,6.9,41.9,25.8,45.9,40.4c4.3,15.8,1.4,29.7,1.3,30.3l-0.1,0.5l-8.1,6.1c-0.7,1.7-2.2,4.1-4.2,3.8c-2.1-0.3-3.1-3-3.5-9.6
		c0-0.6-0.1-1.3-0.1-2c-1-15.6-2.5-41.6-40.4-41.6c-0.7,0-1.3,0-2,0c-22.6,0.5-35.6,11.9-42.4,21.4c-8.8,12-11.1,25-11.1,30.1
		c0,13-2,24.2-2,24.3L195.7,376.1z M130.2,373.1h62.9c0.5-3.2,1.8-12.3,1.8-22.5c0-7.6,3.6-20.9,11.7-31.9c7.3-10,21-22.1,44.8-22.6
		c0.7,0,1.4,0,2.1,0c40.6,0,42.4,28.8,43.3,44.5c0,0.7,0.1,1.3,0.1,2c0.3,4,0.7,5.8,1,6.5c0.4-0.5,0.8-1.3,1.1-2l0.2-0.4l7.9-5.9
		c0.5-2.7,2.3-15.1-1.4-28.5c-5.5-20.1-20.2-33-43.6-38.2c-5.5-1.3-11.1-1.9-16.7-1.8c-5.9,0.1-12,1-17.9,2.5
		c-5.4,1.4-10.8,3.5-16.1,6.3c-4.7,2.4-9.5,5.3-14.1,8.7c-3.8,2.8-7.7,6-11.8,9.8c-3,2.8-6,5.9-9.2,9.4l-3.6,4.2
		c-0.4,0.5-0.8,1.1-1.3,1.7c-1,1.4-2,2.9-3.5,4.1c-0.3,0.3-1.1,1-2.2,0.6l-0.2-0.1c-0.5-0.2-0.8-0.6-1-1c-0.2-0.3-0.4-0.6-0.6-0.9
		c-0.5-0.7-1.1-1.5-1.4-2.4c-0.1-0.2-0.2-0.4-0.3-0.6s-0.2-0.4-0.3-0.7c-0.2-0.4-0.4-0.7-0.6-1.1c-0.2-0.4-0.5-0.8-0.7-1.3
		c-2.1-3.9-4.7-7.7-7.1-11.4c-4.2-6.4-8.6-12.5-12.4-17.7c-12.8-17.6-34.5-29-61.1-32.1c-29-3.4-54.5,3.6-64.7,12.3
		c-9.6,8.2-12,20.4-12.4,29.2c-0.6,13.3,3.2,25.3,4.5,26.6c1.6,1.6,5.1,1.3,7.2,0.9c-0.7-5.1-2-22.4,9.6-34.2
		c10.4-10.5,28-13.6,52.3-9.1c19.2,3.5,33.7,12.5,43.1,26.7C137.1,329.1,131.8,364.6,130.2,373.1z"/>
</g>
<g>
	<g>
		<circle style="fill:#FFA200;" cx="173.9" cy="180.1" r="7"/>
	</g>
	<g>
		<path d="M173.9,174.1c3.3,0,6,2.7,6,6s-2.7,6-6,6s-6-2.7-6-6S170.6,174.1,173.9,174.1 M173.9,172.1c-4.4,0-8,3.6-8,8s3.6,8,8,8
			s8-3.6,8-8S178.4,172.1,173.9,172.1L173.9,172.1z"/>
	</g>
</g>
<g>
	<g>
		<circle style="fill:#FFA200;" cx="172.9" cy="193.1" r="7"/>
	</g>
	<g>
		<path d="M172.9,187.1c3.3,0,6,2.7,6,6s-2.7,6-6,6s-6-2.7-6-6S169.6,187.1,172.9,187.1 M172.9,185.1c-4.4,0-8,3.6-8,8s3.6,8,8,8
			s8-3.6,8-8S177.4,185.1,172.9,185.1L172.9,185.1z"/>
	</g>
</g>
</svg>
