<?xml version="1.0" encoding="utf-8"?>
<!-- Generator: Adobe Illustrator 24.2.1, SVG Export Plug-In . SVG Version: 6.00 Build 0)  -->
<svg version="1.1" id="Layer_1" xmlns="http://www.w3.org/2000/svg" xmlns:xlink="http://www.w3.org/1999/xlink" x="0px" y="0px"
	 viewBox="0 0 513.9 555.5" enable-background="new 0 0 513.9 555.5" xml:space="preserve">
<g>
	<g>
		<polygon fill="none" points="135.9,388.8 134,380.6 132.2,391.6 		"/>
		<path fill="#89E245" d="M134.3,258.2c0,0,7-6.4,15.5,0c0,0,13.5,11.3,36.9,5c0,0,9.9-6.5,16.2,1.9c0,0,31.6,7.5,41.7-3.7
			c0,0,9.5-9.2,18.3-3.2c0,0,35.8,6.9,49.1-3.2c0,0,12.4-8.5,21.6-3c0,0,23.6,7.7,37.1-3.5c0,0,4.5-5.4,14.8,0
			c0,0,23.8,9.8,32.8,3.5c0,0,5.8-4.1,12.1,0c0,0,18.4,5.8,24.3,0c0,0,7.2-2.1,9.4,3c0,0,15.2,2.2,24.8-0.7
			c0-27.8-5.9-46.5-11.8-58.1c-4.6,2-10.5,2.2-10.5,2.2c-6-1.9-10.7,0-10.7,0c-24.3,7.1-36.9-7.5-36.9-7.5c-4.5-2.7-12.1,0-12.1,0
			c-14.8,6.7-36-3.9-36-3.9c-6.3-4.8-15,0-15,0c-10,10-39.5,3.5-39.5,3.5c-6.3-2.7-10.3,2.9-10.3,2.9
			c-15.7,17.8-52.2,10.1-52.2,10.1c-8.5-6.4-17.1,2.3-17.1,2.3c-19.3,19.3-44.1,3.6-44.1,3.6c-4-6.3-17.5-4-17.5-4
			c-18.1-0.3-27.2-12.5-30.8-19.3c-14.9,2.4-28-0.4-34.1-2.1c3.3,13.9-0.8,39.4-0.8,39.4c-1.3,2.2-4.6,9.3-7.9,16.8
			C107.8,246.3,120.9,258.2,134.3,258.2z"/>
		<path fill="#9E5361" d="M43.7,490.3C23.3,510.4,5,517.9,5,517.9c-5.8,1.8-4.9,5.4-4.9,5.4l12.6-0.5c20.7-2.7,39.6-17.5,39.6-17.5
			c9-5.8,3.6,8.5,3.6,8.5l-13.9,14.5c2.2,4,10.8-2.7,10.8-2.7c9.4-5.1,17.8-18.1,19.8-21.3C66.8,494.9,53,491.5,43.7,490.3z"/>
		<path fill="#F37124" d="M102.2,401.4c-3-3-8.4-3.4-12.6-3.2c-2.5,31.7-11.7,43.7-11.7,43.7c-10,21-22.4,36.8-34.2,48.4
			c9.3,1.2,23.1,4.6,28.8,14c0.3-0.5,0.4-0.7,0.4-0.7l8.1,2.2c9.9,1.3,4.9-12.1,4.9-12.1c-3.6-3.6-2.7-11.8-2.7-11.8
			c-0.9-11.4,27.4-42.6,27.4-42.6c16.6-9.9,18-25.9,18-25.9l3.5-21.7l-10.7,8.2C110.1,412.4,102.2,401.4,102.2,401.4z"/>
		<path fill="#7FE256" d="M124,353.6c-6.4,10-21.8,10.9-21.8,10.9c-3.5,1-8.8-1.1-12.8-3.1c1.1,14.4,1,26.7,0.2,36.8
			c4.2-0.2,9.6,0.2,12.6,3.2c0,0,7.9,11,19.3-1.6l10.7-8.2l1.8-11l-3-12.9C129.3,361.2,126.4,356.6,124,353.6z"/>
		<path fill="#ED2729" d="M147.5,11.6c-0.4-0.6-0.8-1-0.8-1c0.7-5.9,0-9.4,0-9.4c-8.8-6.5-27.3,14.6-27.3,14.6v5.1
			C131.1,24.9,141.6,17.4,147.5,11.6z"/>
		<path fill="#AB6151" d="M259.3,147.7c13.8-5.9,7.2-12.5,7.2-12.5c-1.8-11-36.5-29.5-36.5-29.5c-16.2-5.2-5.9-7.4-5.9-7.4
			c46.4-20.6,42-53.3,42-53.3c2.4-20.8-6.8-10.8-6.8-10.8c-2.4,4.4-11.6,10.8-11.6,10.8c-35.4,3.3-58.6,42-60.2,44.8
			c0.5,13.5,1.2,31.6,1.5,41C218.3,148.3,259.3,147.7,259.3,147.7z"/>
		<path fill="#E43474" d="M144.7,185.9c3.6,6.8,12.7,19,30.8,19.3c0,0,13.5-2.2,17.5,4c0,0,24.7,15.7,44.1-3.6c0,0,8.5-8.7,17.1-2.3
			c0,0,36.4,7.7,52.2-10.1c0,0,4-5.6,10.3-2.9c0,0,29.4,6.5,39.5-3.5c0,0,8.7-4.8,15,0c0,0,21.1,10.7,36,3.9c0,0,7.6-2.7,12.1,0
			c0,0,12.6,14.6,36.9,7.5c0,0,4.7-1.9,10.7,0c0,0,5.9-0.2,10.5-2.2c-5.3-10.6-10.5-15.4-10.5-15.4
			c-43.7-72.2-180.7-25.5-180.7-25.5c-38.8,18-65.8,19.6-65.8,19.6c-24.5,3.5-33.3-8.2-35.9-13.3
			C172.7,177.1,158.1,183.7,144.7,185.9z"/>
		<path fill="#FFC479" d="M144.7,185.9c-1.4-2.6-2-4.5-2-4.5S143.3,183.3,144.7,185.9c13.4-2.2,28-8.8,39.8-24.3
			c-0.7-1.3,0.6-2.9,0.6-2.9c2.3-3.1,3.3-10.1,3-17.4c0-1.1,0.8-6.5,0.7-9c-0.1-1.5-0.9-29-1.4-42.5c-0.1,0.1-0.2,0.3-0.2,0.3
			c-6.7-35.8-35-72.5-39.7-78.5c-5.9,5.8-16.4,13.3-28.1,9.3V21c2.9,2.4,2.1,12.4,2.1,12.4c-5.8,5.4-7.6,12.1-7.6,12.1
			c0,15.7-4.9,41.4-4.9,41.4c-21.6,48.6,1.3,95.4,1.3,95.4c0.1,0.5,0.3,1,0.4,1.6C116.7,185.6,129.8,188.3,144.7,185.9z"/>
		<path fill="#998297" d="M129.2,508.6l-1.4,2.6c-5.8,14.4-27.4,30.6-27.4,30.6c-3.6,2.7-1.8,4.5-1.8,4.5h7.2
			c10.3-2.7,21.6-12.1,21.6-12.1c5.8-6.3,5.4,2.2,5.4,2.2l-5.8,12.6c-9,8.5,0.4,6.3,0.4,6.3c9-2.2,13.9-20.2,13.9-20.2
			c1.2-5.8,5.1-11.9,5.7-12.8C143.9,515.8,134.9,511.1,129.2,508.6z"/>
		<path fill="#3850C9" d="M98.6,315c0,0,9.9,6.8,24.7-9.9c0,0,9-5.9,11-0.7c0,0,20.9,12.8,38.5,1.4c0,0,9.9-4.3,13.9,0
			c4,4.3,1.1,3,1.1,3s21.4,15.4,40.3,0c0,0,9.6-8.2,16.5-1.5c0,0,25.4,14.2,41.1,1.5c0,0,11.7-7.8,21.1-3c0,0,24.7,9.7,36,0
			c0,0,11.4-9.4,24.9,0.6c4.5-3.8,15.6-1.9,15.6-1.9c11.7-8.8,26.9,0,26.9,0c15.2,6.1,30.7,0,30.7,0c8.1-3.8,16.6,1.4,16.6,1.4
			c5,1.5,15,1.2,21.9,0.7c4.6-10.3,6.9-17.4,6.9-17.4c2-13,2.8-24.4,2.8-34.8c-9.7,2.9-24.8,0.7-24.8,0.7c-2.2-5.1-9.4-3-9.4-3
			c-5.8,5.8-24.3,0-24.3,0c-6.3-4.1-12.1,0-12.1,0c-9,6.2-32.8-3.5-32.8-3.5c-10.3-5.4-14.8,0-14.8,0c-13.5,11.2-37.1,3.5-37.1,3.5
			c-9.2-5.5-21.6,3-21.6,3c-13.3,10.2-49.1,3.2-49.1,3.2c-8.8-5.9-18.3,3.2-18.3,3.2c-10.1,11.2-41.7,3.7-41.7,3.7
			c-6.3-8.4-16.2-1.9-16.2-1.9c-23.4,6.3-36.9-5-36.9-5c-8.5-6.4-15.5,0-15.5,0c-13.4-0.1-26.5-12-32.4-18.2
			c-4.7,10.5-9.6,21.9-9.6,21.9c-6.2,11.1-9,25.8-10.1,39.5C87,307.3,94.3,315.3,98.6,315z"/>
		<path fill="#FDC719" d="M429.7,388.3c0,0-11-1.4-17.9-1c13.1,35.2-12.3,75.2-12.3,75.2c-4.5,10.7-10.3,20.3-16.3,28.6
			c6.5,2.2,16.3,7.1,19.5,17.5h11.5l0.7-11c-2.9-13.3,7.4-27.3,7.4-27.3c10.3-16.9,26.5-54.7,26.5-54.7c4.4-7.6-2.2-23.3-2.2-23.3
			c-1.3-1.9-2.3-4-3.1-6.1C441.6,388.1,437.7,389.5,429.7,388.3z"/>
		<path fill="#97565F" d="M383.1,491.2c-16.5,22.9-34.9,36.1-34.9,36.1c-8.5,5.4,0,7.4,0,7.4h7.6l11.9-7.4c5.2-9.4,11.3,0,11.3,0
			v7.4h4.2l9.6-7.4c6.6-10.1,9.6-18.6,9.6-18.6h0.2C399.5,498.3,389.7,493.3,383.1,491.2z"/>
		<path fill="#22C3CF" d="M370.1,333.4c-5,1.3-10.6,3.5-13.6,7.1c0,4.4-0.6,9.5-2.8,12.8c0,0,0,15.3,10.3,19.3c0,0,4,3.1,3.6,12.1
			c0,0,0.4,8.5,9.4,9.9c0,0,4.4,9.4,2,16.6c0,0,9,15.2,18.8,13.4c0.7-2.6,0.8-4.5,0.8-4.5l-0.7-33.7c1.1-4.4,2.7-6.4,4.3-7.1
			c-2.7-7.1-8.6-16.2-8.6-16.2C386.5,349.4,376.4,339.1,370.1,333.4z"/>
		<path fill="#CD6CD5" d="M422,348.5c-4.9-7.5-18.4-3.8-18.4-3.8c-16.2-0.7-25.3-6-30.6-12c-0.9,0.2-1.9,0.4-3,0.7
			c6.4,5.7,16.5,16,23.6,29.7c0,0,5.9,9.2,8.6,16.2c3.8-1.6,8,4,8,4c0.6,1.3,1,2.6,1.5,3.9c7-0.4,17.9,1,17.9,1
			c8,1.2,11.9-0.2,13.8-2.2c-4.3-12.2-0.6-27-0.6-27c1-0.9,1.9-1.8,2.8-2.7C424.9,357.1,422,348.5,422,348.5z"/>
		<path fill="#41B1F4" d="M144.6,396.8l11.5,18.7c10.3,11.5,3.1,36.7,3.1,36.7l-30.1,56.4c5.7,2.5,14.7,7.2,17.8,13.6
			c0.1-0.1,0.1-0.2,0.1-0.2l5.4,2.7c4,2.2,4-2.2,4-2.2c0-5.8,0.4-19.8,0.4-19.8c0.4-10.3,13-31,13-31c3.5-4,14.9-20.2,14.9-20.2
			c10.8-9.9,6.3-40.5,6.3-40.5c-1.8-1.8-4.5-5.8-4.5-5.8L185,391c0.5-0.6,0.9-1.3,1.2-2.1C169.9,402.1,152.7,399.3,144.6,396.8z"/>
		<path fill="#F67D88" d="M479.5,306.5c-6.9,0.5-16.9,0.9-21.9-0.7c0,0-8.5-5.2-16.6-1.4c0,0-15.5,6.1-30.7,0c0,0-15.2-8.8-26.9,0
			c0,0-11.1-1.8-15.6,1.9c1,0.7,2,1.5,3,2.4c-1-0.9-2-1.7-3-2.4c-1.6,1.3-2.4,3.3-1.5,6.4c0,0-1.1,10.8,6.8,19.9c3.5-0.7,6-1,6-1
			s-2.5,0.3-6,1c5.2,6,14.4,11.3,30.6,12c0,0,13.5-3.7,18.4,3.8c0,0,2.8,8.6,23.7,7.8C462,340.5,473.1,320.6,479.5,306.5z"/>
		<path fill="#F0A120" d="M337,351.9c4-5.8,18.8-10.7,18.8-10.7c0.2-0.2,0.4-0.5,0.6-0.7c0-4.8-0.6-8.8-0.6-8.8s0.6,4,0.6,8.8
			c3-3.5,8.7-5.8,13.6-7.1c-3.6-3.2-6-4.9-6-4.9s2.4,1.7,6,4.9c1-0.3,2.1-0.5,3-0.7c-7.8-9.1-6.8-19.9-6.8-19.9
			c-0.8-3,0-5.1,1.5-6.4c-13.6-10-24.9-0.6-24.9-0.6c-11.2,9.7-36,0-36,0c-9.4-4.7-21.1,3-21.1,3c-15.7,12.7-41.1-1.5-41.1-1.5
			c-6.9-6.7-16.5,1.5-16.5,1.5c-18.9,15.4-40.3,0-40.3,0s2.9,1.2-1.1-3c-4-4.3-13.9,0-13.9,0c-17.5,11.5-38.5-1.4-38.5-1.4
			c-2-5.2-11,0.7-11,0.7c-14.8,16.6-24.7,9.9-24.7,9.9c-4.3,0.3-11.6-7.7-16.4-13.6c-1.7,20.1,0.2,37.8,0.2,37.8
			c-0.5,16,6.7,19,6.7,19c0.1,1.1,0.1,2.1,0.2,3.2c4,2,9.3,4.1,12.8,3.1c0,0,15.3-0.9,21.8-10.9c-2.1-2.6-3.8-3.9-3.8-3.9
			s1.7,1.3,3.8,3.9c0.1-0.1,0.2-0.2,0.3-0.3c0,0,5.8-8.1,9-3.6c0,0,8.1,8.5,24.7,2.7c0,0,6.7-9,12.6-0.4c0,0,8,10.1,14,15.8
			c1-1.3,2.8-1.3,2.8-1.3c86.9,22.8,139.2-8.1,139.2-8.1c-0.1,0.9-0.1,1.9,0.1,3C331.2,354.7,337,351.9,337,351.9z"/>
		<path fill="#EE2E64" d="M170.6,351.9c-5.8-8.5-12.6,0.4-12.6,0.4c-16.6,5.8-24.7-2.7-24.7-2.7c-3.1-4.5-9,3.6-9,3.6
			c-0.1,0.1-0.2,0.2-0.3,0.3c2.4,3,5.3,7.6,7,14.1l3,12.9l0.1-0.8l10.5,17c8,2.4,25.2,5.2,41.5-7.9c2.3-5.8-1.2-14.6-1.2-14.6
			c-1.6-3.7-1.3-5.6-0.4-6.7C178.6,362,170.6,351.9,170.6,351.9z"/>
		<path fill="#86886E" d="M308,494.5c-9.9,10.6-16.1,19.3-16.1,19.3c-3.7,5.2-16.2,13.5-16.2,13.5c-10.3,6.8-8.7,7.4-8.7,7.4h11.6
			l5.9-3.2c16.9-8.8,11,3.2,11,3.2c-10.3,12.8,2.9,7,2.9,7c8.8-8.1,14.7-20.6,14.7-20.6c2.7-4.8,5.6-5.8,7.9-5.7
			C321.8,503.7,313.2,497.3,308,494.5z"/>
		<path fill="#D52B46" d="M379,411.3c2.4-7.2-2-16.6-2-16.6c-9-1.3-9.4-9.9-9.4-9.9c0.4-9-3.6-12.1-3.6-12.1
			c-10.3-4-10.3-19.3-10.3-19.3c2.2-3.2,2.7-8.3,2.8-12.8c-0.2,0.2-0.4,0.4-0.6,0.7c0,0-14.8,4.9-18.8,10.7c0,0-5.8,2.8-10.5,9.4
			c1.6,14.5,21.7,41.9,21.7,41.9c23.9,17.7,7.6,42.7,7.6,42.7L321,481.8c-4.8,4.2-9.2,8.6-13,12.7c5.2,2.8,13.8,9.3,13.1,21
			c2.7,0.2,4.6,2.1,4.6,2.1c7.4,8.2,6.6-3.7,6.6-3.7l5.9-9c-1.5-4.6,3.7-12.6,3.7-12.6l43.5-54.3c8-1.9,11.2-8.6,12.4-13.2
			C388,426.5,379,411.3,379,411.3z"/>
	</g>
	<path fill="#ED2426" d="M147.5,113c0,0,5.5-3.1,7.7-9.9c0,0,4.5-5.8,5.4,0c0,0,4.9,17.1-10.8,31c0,0-5.8,8.5-5.6,11.2
		c0,0-5.2,5.8-6.6,0c0,0-3.6-17.5,0-24.3C137.7,121.1,142.9,112.1,147.5,113z"/>
	<path fill="#B84840" d="M142.2,121.1c0,0,4.5,12.1,6.5,9c0,0,2.9,5.4,6.5-5.8c0,0-0.4-4.5-6.5-9C148.8,115.3,140,116,142.2,121.1z"
		/>
	<g>
		<path fill="#F0C6C9" d="M509,125c-7.1,7.7-58,13.9-65.9,0.8c-6.7-11.3,8.6-24.5,17.5-26.6c16-3.7,27.5,6.3,35.4,18.4
			c17.4,26.9,12,61-11.3,82.5c-1.1,1,3.8,0.5,4.7-0.4c22.5-20.8,29-53.3,13.7-80.4c-11.3-20.1-33.7-28.7-55.9-19.8
			c-17,6.9-14.3,32.9,4.4,34.8c17.4,1.8,48.6,4.9,62.1-9.7C514.8,123.4,509.8,124,509,125z"/>
	</g>
</g>
</svg>
