<?xml version="1.0" encoding="utf-8"?>
<!-- Generator: Adobe Illustrator 24.2.1, SVG Export Plug-In . SVG Version: 6.00 Build 0)  -->
<svg version="1.1" id="Layer_1" xmlns="http://www.w3.org/2000/svg" xmlns:xlink="http://www.w3.org/1999/xlink" x="0px" y="0px"
	 viewBox="0 0 334.7 406.3" enable-background="new 0 0 334.7 406.3" xml:space="preserve">
<g>
	<path fill="#2F448B" d="M65.9,170.5c-2.5,12.9,0.6,25.4,4.2,34.3l1.7,3.9c0,0-24.2-13.3-32.5-31.3l-2.4-6.9c0,0-1.6-4.2-4.6-2
		c0,0-4.6,3.3-7.3-0.6c0,0-1.6-2.3-5.4,0c0,0-3,3.6-6.2-4.2c0,0-3.2-2.4-4.3,0c0,0-10,4.6-4.6-10c0,0,18.7-17.2,31.8-5.7
		c0,0,21.7,17,23.2,23.2L65.9,170.5z"/>
	<path fill="#D47DCF" d="M108.2,202.3c0,0-1.4-5.2,2.2-7.3c0,0,6.1-6.4,4-13.8c0,0-1.1-6,2.5-8.5c0,0,3.2-2.9,2.9-12.6
		c0,0-0.4-4.3,3.2-6.5c0,0,0.6-5.1,3.8-8.9c-1.4-4.7-1.3-7.7-1.3-7.7c9.2-17.5,4.8-52.6,4.8-52.6c0.9-6.5-13-23.9-16.8-28.5
		c-2.7,4.6,0.8,10.7,0.8,10.7c1.4,2.5,0.7,6.8,0.7,6.8c-2.9,2.9,0,7.5,0,7.5c3.2,1.1,3.9,5.4,3.9,5.4c-2.2,1.8-3.9,11.6-3.9,11.6
		l-0.7,10.3c-7.2,7.5-4,14.4-4,14.4c-0.4,7.5-3.2,12.2-3.2,12.2c-5.4,9.3-2.6,11.5-2.6,11.5c-0.1,6.1-3.2,8.3-3.2,8.3l-6.1,12.9
		c-4.3,5.3-1.8,7.9-1.8,7.9c0,5.4-5.4,17.2-5.4,17.2c-3.6,4-1.4,9.5-1.4,9.5c0,9.1-2.9,8.2-2.9,8.2l-4,4.4c-1.8,2.5-3.6,3.1-5.2,2.9
		c0.1,0.2,0.2,0.3,0.2,0.3l-2.7-1.1c-0.2-0.3-0.4-0.5-0.7-0.8c-0.8-0.6-1.3-1.2-1.4-1.4c-6.8-6-22.2-12.6-22.2-12.6
		c-25.3-12.1-45.3,2.9-45.3,2.9C-5.5,222.4,8,215.4,8,215.4c3.8-2.2,5.4,1.6,5.4,1.6c1.6,5.4,11.3-0.5,11.3-0.5
		c6.5,4.8,8.1-0.5,8.1-0.5l5.9-1.6c14.5,14,37.2,24.2,37.2,24.2c14,8.1,14.5,1.1,14.5,1.1c5.9-3.2,10.8-17.2,10.8-17.2
		c0.2,0.4,0.5,0.8,0.7,1.2c0.6-2.7,2-6,4.9-8.6C106.7,215,108.5,209.2,108.2,202.3z"/>
	<path fill="#47BA5C" d="M127.6,219c0,0,0.7-4.7,4.3-5.7c0,0,4.3-4.4,0-11c0,0-0.7-2.5,3.2-5.5c0,0,4-3.7,2.2-12.5
		c0,0-1.1-2.7,2.9-5.2c0,0,2-5.7,2.7-10.6c-10.1-8.9-14.4-17.7-16.1-23.8c-3.2,3.8-3.8,8.9-3.8,8.9c-3.6,2.2-3.2,6.5-3.2,6.5
		c0.4,9.7-2.9,12.6-2.9,12.6c-3.6,2.5-2.5,8.5-2.5,8.5c2.2,7.4-4,13.8-4,13.8c-3.6,2.2-2.2,7.3-2.2,7.3c0.4,7-1.4,12.8-1.4,12.8
		c-2.9,2.5-4.2,5.9-4.9,8.6c3,5,8.9,12.3,14.6,18.9C119.8,239.4,126,232.2,127.6,219z"/>
	<path fill="#634382" d="M79.8,214.9l4-4.4c0,0,2.9,0.9,2.9-8.2c0,0-2.2-5.5,1.4-9.5c0,0,5.4-11.9,5.4-17.2c0,0-2.5-2.6,1.8-7.9
		l6.1-12.9c0,0,3.1-2.2,3.2-8.3c0,0-2.8-2.2,2.6-11.5c0,0,2.9-4.7,3.2-12.2c0,0-3.2-6.8,4-14.4l0.7-10.3c0,0,1.7-9.8,3.9-11.6
		c0,0-0.7-4.3-3.9-5.4c0,0-2.9-4.7,0-7.5c0,0,0.7-4.3-0.7-6.8c0,0-3.6-6.1-0.8-10.7c-0.6-0.7-1-1.1-1-1.1c0.5-4.8-8-8.1-8-8.1
		c-2.6-1.1-7.1,3.3-7.1,3.3c-0.1-0.2-0.2-0.4-0.3-0.6c0.9,8.3,1.3,24.5-5.7,36.2c1.6,1.9,4.5,3.2,4.5,3.2
		c10.6,42-22.1,61.2-22.1,61.2c-23.5,28.4-1.5,64,0.9,67.7C76.2,218,78,217.4,79.8,214.9z"/>
	<path d="M58.1,85.1c-1.4,7.6-1.1,13-1.1,13c1.9,1.1,3.5,1.6,4.9,1.7C62.8,90.1,60.4,86.4,58.1,85.1z"/>
	<path fill="#72AEC9" d="M97,49.5c-2.2-2.6-11.9-2.7-11.9-2.7C66.7,56.9,60.3,73.5,58.1,85.1c2.3,1.3,4.8,5,3.8,14.7
		c4,0.2,5.9-3,5.9-3c1.1-3.9,4.8-4.2,4.8-4.2c0.5,6.5,5.4,4.2,5.4,4.2c5.9-0.1,12.4-14.4,12.4-14.4c-0.4,1.2,0.1,2.3,0.9,3.3
		C98.4,73.9,97.9,57.8,97,49.5z"/>
	<path fill="#8CC843" d="M230.7,253.5c0.1-7.5-1.6-14.4-4.4-20.8c-4.9,2.7-7.1,11.5-7.1,11.5c-1.6,5.1-9.2,10.2-9.2,10.2
		c0,8.9-6.5,16.4-6.5,16.4c-7,1.6-5.4,7.5-5.4,7.5c-2.2,11.9-11.3,18.3-11.3,18.3c-8.6,4.3-4.3,8.6-4.3,8.6
		c-4.5,8.1-10,11.8-13.7,13.5c3.8,7.9,11.5,16.7,11.5,16.7c2.9,1.3,5.2,2.7,7.2,4.1c4.5-2.1,10.2-6,9.5-12.7l6.5-6.7l0,0
		c-0.8-10,7-19.1,7-19.1l1.6,3.7c3.8-6.2,11.4-20.2,13-33.9L230.7,253.5z"/>
	<path fill="#C73E5C" d="M328.5,358.2c-42-7-62-35.6-62-35.6l-8.3-9.2c-0.2-4.3-2.5-7-2.5-7c-28-28-25.3-48.6-25.3-48.6
		c0.1-1.5,0.2-2.9,0.2-4.3l-5.6,17.4c-1.6,13.7-9.2,27.7-13,33.9l6,14.1c45.8,72.7,113.1,44.7,113.1,44.7
		C340.4,359.2,328.5,358.2,328.5,358.2z"/>
	<path fill="#827E96" d="M197.1,326.9c0.7,6.7-5.1,10.7-9.5,12.7c8.7,6.6,8.3,14.2,8.3,14.2c-0.2,19.9-17.6,30.7-17.6,30.7
		c-7.5,3.2-21.5,14.5-21.5,14.5c-1.6,10.8,5.4,6.3,5.4,6.3s0.5,1.8,2.2,0c1.6-1.8,4.8-1.4,4.8-1.4c6.5,4.3,9.2-2.7,9.2-2.7l2.7-3.2
		c8.1,1.6,6.5-7.5,6.5-7.5l5.9-7.5c10.8-7,19.4-26.4,19.4-26.4c9.7-8.6,0.5-18.9,0.5-18.9c-2.7-2.2-5.9-8.1-5.9-8.1
		c-2.4-3.1-3.5-6.3-3.8-9.4l0,0L197.1,326.9z"/>
	<path fill="#1D718F" d="M145.3,250.9c0,0-4.3-5.9,4-9.1c0,0,5.1-5.4,4.6-17.8c0,0,0.5-11.7,3.8-12.6c0,0,0.5-1.9,2.2-9.2
		c0,0-4.8-3,0-8.4c0,0,2.5-4.9,4.2-11.8c-9.1-4.3-16-8.9-21.3-13.6c-0.7,4.9-2.7,10.6-2.7,10.6c-4,2.5-2.9,5.2-2.9,5.2
		c1.8,8.8-2.2,12.5-2.2,12.5c-4,2.9-3.2,5.5-3.2,5.5c4.3,6.6,0,11,0,11c-3.6,1.1-4.3,5.7-4.3,5.7c-1.5,13.2-7.7,20.4-11.1,23.5
		c7.1,8.2,13.8,15.3,13.8,15.3c2.9,1.6,5.6,3.2,8.1,4.7C140.6,260.6,143.5,257.2,145.3,250.9z"/>
	<path fill="#2F448B" d="M167.3,248c0,0,5.5-6.7,8.2-15.9c0,0,0-12.4,3.8-14c0,0,1.6-4,3.2-15.2l3.3-10.2
		c-9.5-5.5-16.8-8.4-16.8-8.4c-1.7-0.7-3.4-1.5-5-2.2c-1.7,6.9-4.2,11.8-4.2,11.8c-4.8,5.4,0,8.4,0,8.4c-1.6,7.3-2.2,9.2-2.2,9.2
		c-3.2,0.9-3.8,12.6-3.8,12.6c0.5,12.4-4.6,17.8-4.6,17.8c-8.4,3.2-4,9.1-4,9.1c-1.8,6.3-4.8,9.7-7,11.5c7.7,4.6,13.5,8.5,17.6,11.6
		c2.5-2.8,6.6-8.3,8.8-16.3C164.7,257.8,161.9,252,167.3,248z"/>
	<path fill="#FFCE33" d="M182.5,268.7c0,0-3.8-7.3,5.9-10.9c0,0,9.2-7.3,11.3-13.6c0,0-7-7.8,3.8-12.2c0,0,2.2-1.6,2.2-9.7
		c0,0-5.7-0.2,0-5.4c0,0,2.2-0.1,4.3-6.5v0c-7.9-7.5-16.7-13.5-24.1-17.8l-3.3,10.2c-1.7,11.2-3.2,15.2-3.2,15.2
		c-3.8,1.6-3.8,14-3.8,14c-2.7,9.2-8.2,15.9-8.2,15.9c-5.5,4-2.6,9.9-2.6,9.9c-2.2,7.9-6.3,13.5-8.8,16.3
		c7.7,5.8,10.3,9.3,11.1,10.6C171.6,283.1,181.3,278.6,182.5,268.7z"/>
	<path fill="#AC6E47" d="M182.5,305.4c0,0-4.3-4.3,4.3-8.6c0,0,9.2-6.5,11.3-18.3c0,0-1.6-5.9,5.4-7.5c0,0,6.5-7.5,6.5-16.4
		c0,0,7.5-5.1,9.2-10.2c0,0,2.2-8.8,7.1-11.5c-3.8-8.5-9.7-15.9-16.3-22.2v0c-2.2,6.4-4.3,6.5-4.3,6.5c-5.7,5.2,0,5.4,0,5.4
		c0,8.1-2.2,9.7-2.2,9.7c-10.8,4.3-3.8,12.2-3.8,12.2c-2.2,6.2-11.3,13.6-11.3,13.6c-9.7,3.6-5.9,10.9-5.9,10.9
		c-1.2,9.9-10.9,14.4-15.5,16c0.3,0.5,0.4,0.7,0.4,0.7c3.2,9.7-0.5,27.5-0.5,27.5c0.2,1.8,1,3.8,2,5.9
		C172.5,317.2,178,313.4,182.5,305.4z"/>
	<path fill="#FAFFCF" d="M75.8,73.9c0,0,8.3-1.8,8.6-7c0,0,1.8-2.3,1.8-6.3c0,0-10.4-4.3-11.9,9C74.4,69.6,72.7,75,75.8,73.9z"/>
	<ellipse fill="#4DB4B2" cx="78.7" cy="67.3" rx="2.1" ry="5.6"/>
	<path fill="#F25583" d="M67.9,61.8c4.1-5.6,9.7-10.9,17.3-15.1c0,0,11.2,0.1,12.2,3.3c0,0,4.5-4.3,7.1-3.3c0,0,18-18.3,20.4-33.7
		c0,0,1.2-11-3.3-8.1c0,0-12.6-0.5-33.1,28.2c0,0-2.8,2.3-3.3-2.8c0,0,3.9-14.2-1.8-25.8c0,0-2.3-10.2-8.3,0c0,0-10.8,10.2-9.5,49
		L67.9,61.8z"/>
	<g>
		<path fill="#E95B54" d="M152.3,289.7c0,0,4.1-5.4,4.5-15c-3.1-2.4-7-5.1-12-8.3l-2,3.9c-5.5,10.2-6.2,22.4-5.5,32.2
			C141.7,301.6,148.9,298.8,152.3,289.7z"/>
		<path fill="#3A333C" d="M152.9,316.7c0,0,1.3-5.1,3.1-6.7l12.7-17.4c-0.2-2.6-0.5-5.1-1.2-7.2c0,0-1.1-3.4-10.6-10.7
			c-0.4,9.6-4.5,15-4.5,15c-3.4,9.1-10.7,11.9-15,12.8c0.7,10.1,3,17.6,3,17.6c2.4,1.9,4.1,4.3,5.2,6.7
			C148,324.8,151.5,321.2,152.9,316.7z"/>
		<path fill="#F25583" d="M166.9,321.8v-8.9c0,0,2.3-10.9,1.7-20.3l-12.7,17.4c-1.8,1.6-3.1,6.7-3.1,6.7c-1.3,4.5-4.9,8.1-7.4,10.2
			c2.8,5.8,2.3,11.7,2.3,11.7c0,16.2-16.5,23.4-16.5,23.4c-9.8,2.2-19.9,9.4-19.9,9.4c-20.2,10-18,19.4-18,19.4
			c-0.5,5.9,10.5,2.8,10.5,2.8c1.6-3.9,4.3-1.7,4.3-1.7c0,1.6,3.2,1.6,3.2,1.6c5.4,0.8,7.5-3.8,7.5-3.8c0-1.9,3.4-1.9,3.4-1.9
			c0.2,1.9,4.2,0,4.2,0c4.3-0.5,6.2-7.8,6.2-7.8c0.5-3.8,3.2-5.7,3.2-5.7l4.4-5.5c14.9-9.2,26.6-25.5,26.6-25.5
			c7.3-6.2,2-15.6,2-15.6C165.9,325,166.9,321.8,166.9,321.8z"/>
	</g>
</g>
</svg>
