<?xml version="1.0" encoding="utf-8"?>
<!-- Generator: Adobe Illustrator 24.2.1, SVG Export Plug-In . SVG Version: 6.00 Build 0)  -->
<svg version="1.1" id="Layer_1" xmlns="http://www.w3.org/2000/svg" xmlns:xlink="http://www.w3.org/1999/xlink" x="0px" y="0px"
	 viewBox="0 0 269.2 349.4" enable-background="new 0 0 269.2 349.4" xml:space="preserve">
<g>
	<g>
		<path fill="#F72420" d="M91.7,71.9c0,0,2-5.1,5.3-5.8c0,0,4-2.6,3.6-6.9c0,0,1.8-5.6,6.7-6.5c-8.2-12.3-16.9-17.6-16.9-17.6
			c0.3-0.1,0.5-0.2,0.7-0.4c-1.2-1.3-2.9-2.9-4.8-4.4c2.8,2.6,4.6,6.4,2,11.4c0,0-1.3,12.6-18,23.1c0,0-2.2,1.7-2.6,5.2
			c6.8,1.9,9.8,12.7,9.8,12.7c0.3,0.7,0.4,1.4,0.7,2.1C82.1,83.5,88,80.3,91.7,71.9z"/>
		<path fill="#DCB2C0" d="M70.3,64.8c16.7-10.5,18-23.1,18-23.1c2.6-5,0.8-8.8-2-11.4c-1.4-1.1-3-2.2-4.5-3.1
			c-0.4,0.6-1.4-0.1-1.4-0.1c-2-1.3-7.8,1-7.8,1c-0.3-0.7-0.7-1.3-1.2-1.9c-9,2.5-14.6,6.5-17.5,9.1c1.3,0.7,0.4,2.4,0.4,2.4
			c-7.5,8.5-20.8,28.2-21.1,28.6c0.8,2.5,0.5,6.9-6.3,13.7c2.4,0.6,6.6-1.6,6.6-1.6l7.4-3.1L39,80.3c2,10.2,12.5-1.7,12.5-1.7
			c3.6-8.3,13.2-8.8,13.2-8.8c1.1-0.1,2.1,0,3,0.3C68.1,66.5,70.3,64.8,70.3,64.8z"/>
		<path fill="#8264BE" d="M96.7,97.8c0,0,1-6.2,4.6-5.7c0,0,6.3-1.9,6.3-6.5c0,0,0-2.8,5.9-2.9c0,0,3-1.8,5.1-3.7
			c-2.7-11-6.9-19.7-11.3-26.3c-4.9,0.9-6.7,6.5-6.7,6.5c0.3,4.3-3.6,6.9-3.6,6.9c-3.3,0.7-5.3,5.8-5.3,5.8
			c-3.7,8.4-9.6,11.6-13.5,12.9c2.7,8.6,2.5,17.1,1.4,23.8C83.1,109.5,91.5,110.3,96.7,97.8z"/>
		<path fill="#009DAF" d="M33.1,66.4C33.1,66.4,33,66.4,33.1,66.4c-3,1-7.3,9.1-7.3,9.1c-1.1,3.1-0.3,4.3,1,4.6
			C33.5,73.3,33.8,68.8,33.1,66.4z"/>
		<path fill="#74C92A" d="M79.4,173.3c3-1,6.9-2.9,8.9-6.7c0,0,3.1-7.2,6.7-6.4c0,0,13.5-0.6,16.2-11.6c0,0,2-3.8,7.3-3.8
			c0,0,10.5-4.9,11.9-8.9c0,0,6.3-5.4,7.6-10.5c-8.6-5-12.8-11.3-14.7-16.6l-2.8,4c-4.6,5.9-8.9,5.6-8.9,5.6c-4.3,0-4.9,3.6-4.9,3.6
			c-3.3,9.2-12.9,9.6-12.9,9.6c-4,0.7-5.4,4-5.4,4c-4,7.3-14.1,4.6-14.1,4.6c-0.6-0.8-3.1-0.6-4.8-0.3c-1.6,11.5,0.8,21.4,0.8,21.4
			c-0.1,0.2-0.3,0.6-0.4,1C72.2,164.5,75.9,168.4,79.4,173.3z"/>
		<path fill="#B43112" d="M74.2,140.3c0,0,10,2.6,14.1-4.6c0,0,1.4-3.3,5.4-4c0,0,9.6-0.3,12.9-9.6c0,0,0.7-3.6,4.9-3.6
			c0,0,4.3,0.3,8.9-5.6l2.8-4c-2.2-5.9-1.8-10.5-1.8-10.5c-0.4-7.2-1.4-13.6-2.8-19.4c-2.1,1.9-5.1,3.7-5.1,3.7
			c-5.9,0.1-5.9,2.9-5.9,2.9c0,4.6-6.3,6.5-6.3,6.5c-3.6-0.4-4.6,5.7-4.6,5.7c-5.1,12.5-13.5,11.8-17,10.8
			c-1.3,8.1-3.7,13.6-3.7,13.6c-3.8,5.6-5.6,11.9-6.5,17.8C71.2,139.7,73.6,139.5,74.2,140.3z"/>
		<path fill="#E589C8" d="M216.3,181.7c-5.6,0.9-3,5.3-3,5.3c-0.7,4.6-5.9,5.6-5.9,5.6c-3.6,0.7-5.3,6.1-5.3,6.1
			c-0.3,8.1-9.6,15.7-9.6,15.7c-4.6,0.7-5.3,4.9-5.3,4.9c0,9.2-6.6,13.2-6.6,13.2c-0.1,0.1-0.1,0.1-0.2,0.2c0.9,2.7,2,8.4-0.8,18.4
			c0,0-0.1,1.4-0.1,4c4.3-1.9,12-6.2,15.3-13.7l1.3-4.7c0,0,0.7-3.6,4.9-2.2c0,0,11.9-4.9,11.9-11.4c0,0-1-2.5,4-5.4
			c0,0,10.9-5.9,11.9-11.5c0,0,3.9-5.4,7.5-7.7c-2.3-7.4-6.5-20.3-6.5-20.3c-0.8-2.7-1.9-5.2-3.3-7.7
			C223.5,175.5,216.3,181.7,216.3,181.7z"/>
		<path fill="#382E2E" d="M62.4,19.8C33,6.2,17.9,22.9,17.9,22.9c-6.6,4.3,0,4.9,0,4.9s8.2,3.6,9.7,4c11.7,2.6,23.2,3.3,23.2,3.3
			c1.5-0.2,2.4,0,2.9,0.3c3-2.6,8.6-6.6,17.5-9.1C68.2,22.4,62.4,19.8,62.4,19.8z"/>
		<path fill="#F30E19" d="M145.1,154.2c-1.6,6.7-10.5,10.1-10.5,10.1c-6.5,0.3-8,6.3-8,6.3l-4.3,5.9c-1.6,3.3-10.2,8.7-10.2,8.7
			c-0.4,0-0.9,0.1-1.3,0.1c1.6,1.9,2.9,5.5,2,12.3c0,0,0.1,3.9,0.6,7.9c1.1-0.2,2.7-0.1,4.7,0.6c0,0,9.6,1,13.2-8.6
			c0,0,2.3-5.3,6.9-5.3c0,0,7.1-0.5,10.2-7.1c1-2.1,4.1-8,9.6-8c0,0,9.5-4.3,10.8-10.5c0,0,0-6.3,5.6-7.9c0,0,9.9-4.7,10.3-18.9
			c-11.8-4.4-22.3-6.6-26.8-7.4c-0.3,9.4-5.6,14.8-5.6,14.8C145.8,147.9,145.1,154.2,145.1,154.2z"/>
		<path fill="#201E21" d="M130.3,136c-1.3,4-11.9,8.9-11.9,8.9c-5.3,0-7.3,3.8-7.3,3.8c-2.6,11-16.2,11.6-16.2,11.6
			c-3.6-0.8-6.7,6.4-6.7,6.4c-2,3.8-5.9,5.7-8.9,6.7c4.5,6.4,8.6,14.6,8.8,23.5c3.2,1,9.3,2.1,12.4-3.1c0,0,4.8-7.6,10.2-8.3
			c-1.8-2.1-4-2.2-4-2.2s2.2,0.1,4,2.2c0.4-0.1,0.9-0.2,1.3-0.1c0,0,8.6-5.4,10.2-8.7l4.3-5.9c0,0,1.4-5.9,8-6.3
			c0,0,8.9-3.4,10.5-10.1c0,0,0.7-6.4,7.3-7c0,0,5.3-5.4,5.6-14.8c-1.4-0.3-2.3-0.4-2.3-0.4c-7.4-1.6-13.2-3.9-17.8-6.6
			C136.6,130.6,130.3,136,130.3,136z"/>
		<path fill="#114EA9" d="M209.7,260.9l-6.3,4.3c-4.6,1-4,6.6-4,6.6c-1.6,5.3-6,8-9,9.2c7.7,7.3,18.6,8.6,18.6,8.6
			c2.5,0.7,4.1,1.6,5.2,2.6c1.7-1.1,3.5-2.8,4.4-4.8c0,0,2-3.8,1.6-5.4c0,0,3.6-3.3,7.1-3.9c-3.4-5.4-7.8-13.6-7.8-13.6
			c-1.9-3.1-2.6-6.3-2.5-9.4C214.5,257.7,209.7,260.9,209.7,260.9z"/>
		<path fill="#8BC027" d="M218.6,287.4c-0.8,2-2.7,3.7-4.4,4.8c3.8,3.5,1.1,8.3,1.1,8.3c-4,10.6-30.3,24.6-30.3,24.6
			c-15.8,7.3-18.5,19.8-18.5,19.8c0.7,7.3,11.5,3.4,11.5,3.4c1.6-3.5,5.3-3.1,5.3-3.1c3.3,6.9,5.6,0,5.6,0c2.6-3.3,4.6-2,4.6-2
			c8.6,0,4.6-7,4.6-7l5.6-5.2c18.5-19.1,27.4-32,27.4-32c8.2-6.6-0.3-16.5-0.3-16.5c-0.8-0.6-2-2.4-3.4-4.6
			c-3.5,0.6-7.1,3.9-7.1,3.9C220.6,283.7,218.6,287.4,218.6,287.4z"/>
		<path fill="#FFC900" d="M179.6,255.1c-1.8,0.8-3,1.2-3,1.2S177.8,255.9,179.6,255.1c0-2.6,0.1-4,0.1-4c2.7-10,1.7-15.8,0.8-18.4
			c-1,0.9-2.4,1.6-3.9,2.2c0.4,2.4-1.1,5.6-1.1,5.6c-2.6,4.3-7.6,7.6-7.6,7.6c-3.6,0-3.6,4.7-3.6,4.7c1.6,5.4,0,6.8,0,6.8
			c-4.6,2-2.6,9.2-2.6,9.2c0,3.2-1.6,4.8-3.1,5.7c3.7,4,9,12.9,9,12.9c0.5,2.9,0.1,5.6-0.8,8.2c1.6,0.6,3.9,0.6,6.4-1.6l3.5-3.7
			c0,0,4.5-2,6.8-4.9c-0.5-4.7-2.3-8-2.3-8c-0.8-4.8-0.1-6.4,0.8-6.7l-2.2-9.1C179.6,259,179.6,256.8,179.6,255.1z"/>
		<path fill="#562923" d="M239,205c-0.7,7-2.5,20.7-6.7,28c6.4,5.6-0.5,30.2-0.5,30.2c-0.3,13.5,5.6,3.3,5.6,3.3
			c8.9-8.6,8.6,0.7,8.6,0.7c2.6,19.8-5.9,30.3-5.9,30.3c-0.3,7.9,5.9,0,5.9,0c5.9-0.7,2.6,5.3,2.6,5.3c-2.5,8.2-15.2,27.7-15.2,27.7
			c-4,8.6,4,5.3,4,5.3c26-14.5,30.3-44.5,30.3-44.5C276.3,240.7,245.8,211.7,239,205z"/>
		<path fill="#FB7192" d="M88.2,196.8c-1.3-0.4-2.1-0.8-2.1-0.8S87,196.4,88.2,196.8c-0.2-8.8-4.3-17.1-8.8-23.5
			c-2.2,0.7-3.9,0.9-3.9,0.9s1.7-0.2,3.9-0.9c-3.5-5-7.2-8.8-9.5-11c-2,6.1-2.9,28.6-2.9,28.6c-0.7,15.6-11.5,12.7-11.5,12.7
			l-10.2-3.3c-2.6-2.3-23.4-9.4-23.4-9.4C-0.9,183.8,0,200.9,0,200.9c0.6,6.3,10.9,4.3,10.9,4.3c4.9-1,4,3.3,4,3.3
			c0.4,6.6,9.2,2.3,9.2,2.3c6.3-3.3,3.5,2.6,3.5,2.6c1.8,5.9,7.1,2.6,7.1,2.6c0.3-3,6.1-1.9,6.1-1.9l20.3,9c5.9,3.4,7.6,0,7.6,0
			c9.6-6.8,15.8-18.3,15.8-18.3c1.6-4.5,2.8-5.2,3.7-4.8C88.3,199,88.3,197.9,88.2,196.8z"/>
		<path fill="#F82760" d="M237.7,203.6c0-0.4-0.6-2.3-1.4-5c-3.6,2.3-7.5,7.7-7.5,7.7c-1,5.6-11.9,11.5-11.9,11.5
			c-4.9,3-4,5.4-4,5.4c0,6.4-11.9,11.4-11.9,11.4c-4.3-1.3-4.9,2.2-4.9,2.2l-1.3,4.7c-3.3,7.5-11,11.8-15.3,13.7
			c0,1.7,0,3.8,0.1,6.4l2.2,9.1c1.1-0.4,2.4,0.8,2.4,0.8c1.3,4,3.6,7.1,6.2,9.6c3-1.2,7.4-3.9,9-9.2c0,0-0.7-5.6,4-6.6l6.3-4.3
			c0,0,4.8-3.2,7.4-5.8c0.2-12,11.8-23.2,11.8-23.2c1.4-0.1,2.6,0.3,3.5,1.1c4.3-7.4,6.1-21,6.7-28
			C238.2,204.2,237.7,203.7,237.7,203.6z"/>
		<path fill="#FFB25E" d="M148.1,214.4c0,0,1.9-2.6,5.9-3c0,0,10.9-1.3,14.5-12.7c0,0,3-2.8,5.6-3.1c0,0,12.5-8.1,14.2-13.9
			c0,0,1.3-4.9,3-5.5c0,0,9.4-10.5,12.9-17.8l4.8-6.4c-7.6-5.2-16.2-9.2-24.2-12.2c-0.4,14.2-10.3,18.9-10.3,18.9
			c-5.6,1.6-5.6,7.9-5.6,7.9c-1.3,6.3-10.8,10.5-10.8,10.5c-5.6,0-8.6,5.9-9.6,8c-3.1,6.7-10.2,7.1-10.2,7.1c-4.6,0-6.9,5.3-6.9,5.3
			c-3.6,9.6-13.2,8.6-13.2,8.6c-2-0.8-3.6-0.8-4.7-0.6c0.2,1.9,0.5,3.8,0.9,5.4c1.5-3.6,8.4,5.1,8.4,5.1c1.4,3.7,5.4,7.7,9.8,11.2
			C137.1,225.2,146.6,220.4,148.1,214.4z"/>
		<path fill="#777A99" d="M111.5,206.2c0,0,0.7-0.4,1.9-0.6c-0.5-4.1-0.6-7.9-0.6-7.9c0.9-6.7-0.4-10.3-2-12.3
			c-5.4,0.7-10.2,8.3-10.2,8.3c-3.1,5.2-9.1,4.1-12.4,3.1c0,1.1,0,2.2-0.1,3.3c0.8,0.3,1.2,1.5,1.2,1.5c1,7.6-3,15.8-3,15.8
			c-6.6,15.5-47.8,35.4-47.8,35.4c-9.2,8-6.9,15.7-6.9,15.7c4.6,7.3,10.5-1.3,10.5-1.3c5.6-4.3,5.6,0.7,5.6,0.7
			c3,4.9,7.6-2.6,7.6-2.6c2-4.3,4.6-3.3,4.6-3.3c3.6,4.9,6.3,1.3,7.3-1.3c1-2.7,5.2-9.4,5.2-9.4c5.6-7.8,30-14.6,30-14.6
			c8.2-1.3,8.6-9.9,8.6-9.9l3-15.2c0-0.2,0.1-0.4,0.2-0.5c-0.4-1.6-0.7-3.5-0.9-5.4C112.1,205.8,111.5,206.2,111.5,206.2z"/>
		<path fill="#0CC3C8" d="M161.6,268.8c0,0-2-7.3,2.6-9.2c0,0,1.6-1.5,0-6.8c0,0,0-4.7,3.6-4.7c0,0,4.9-3.3,7.6-7.6
			c0,0,1.5-3.1,1.1-5.6c-11,4-32.6,0.3-32.6,0.3c3,1.8,4.2,5.1,3.8,6.2c-7.2,20.4,8.9,31.4,8.9,31.4c0.5,0.3,1.2,0.9,1.9,1.7
			C160,273.6,161.6,272,161.6,268.8z"/>
		<path fill="#802A61" d="M176.6,290.3l-3.5,3.7c-2.5,2.2-4.8,2.2-6.4,1.6c-3.6,9.7-15.4,16.4-15.4,16.4
			c-12.5,2.6-24.1,14.5-24.1,14.5c-10.9,7.9-6.9,16.5-6.9,16.5c4.6,3,11.9-4.9,11.9-4.9c1-4.6,4.3-2,4.3-2c0.7,5.9,7.3-2,7.3-2
			c2-5.3,5.3-3.3,5.3-3.3c9.2,2.6,9.9-11.9,9.9-11.9c7.6-6.6,15.8-14.8,15.8-14.8c7.9-6.2,9.2-13.4,8.6-18.7
			C181.1,288.3,176.6,290.3,176.6,290.3z"/>
		<path fill="#0080C9" d="M176.5,234.9c-0.1-0.8-0.5-1.5-1.1-2C176.1,233.4,176.4,234.1,176.5,234.9c1.6-0.6,2.9-1.3,3.9-2.2
			c-0.4-1.2-0.8-1.8-0.8-1.8s0.4,0.6,0.8,1.8c0.1-0.1,0.1-0.1,0.2-0.2c0,0,6.6-4,6.6-13.2c0,0,0.7-4.3,5.3-4.9c0,0,9.2-7.6,9.6-15.7
			c0,0,1.6-5.4,5.3-6.1c0,0,5.3-1,5.9-5.6c0,0-2.6-4.4,3-5.3c0,0,7.2-6.3,10.3-11.2c-4.1-7.4-10.4-13.5-17.7-18.5l-4.8,6.4
			c-3.4,7.3-12.9,17.8-12.9,17.8c-1.6,0.7-3,5.5-3,5.5c-1.6,5.9-14.2,13.9-14.2,13.9c-2.6,0.3-5.6,3.1-5.6,3.1
			c-3.6,11.4-14.5,12.7-14.5,12.7c-4,0.3-5.9,3-5.9,3c-1.5,6-11,10.8-15.7,12.8c3.9,3.2,8.2,6,11.5,8
			C144,235.2,165.5,238.9,176.5,234.9z"/>
		<path fill="#3D2C38" d="M91.1,34.8C113.6,24.2,121,6.1,121,6.1c2-9.2-5.3-5.3-5.3-5.3c-20.1,9-31.2,22.7-33.9,26.4
			c1.5,0.8,3.1,1.8,4.5,3.1C88.3,31.9,89.9,33.5,91.1,34.8z"/>
	</g>
	<path fill="#00ABAE" d="M57.1,47.5c0,0-0.3-8,15.5-6.9c0,0,4.3,0.8,3,3.4c0,0-0.3,6.3-12.9,6.6C62.7,50.7,56.5,49.8,57.1,47.5z"/>
	<path fill="#182339" d="M62.7,48.4c0,0-0.9-5,8.2-6.4c0,0,2.8-0.2,0.7,2.3"/>
</g>
</svg>
