<?xml version="1.0" encoding="utf-8"?>
<!-- Generator: Adobe Illustrator 24.2.1, SVG Export Plug-In . SVG Version: 6.00 Build 0)  -->
<svg version="1.0" id="Layer_1" xmlns="http://www.w3.org/2000/svg" xmlns:xlink="http://www.w3.org/1999/xlink" x="0px" y="0px"
	 viewBox="0 0 181.1 223.8" style="enable-background:new 0 0 181.1 223.8;" xml:space="preserve">
<image style="overflow:visible;" width="800" height="663" xlink:href="../../../Proyectos Freelance 2020/SYLARD/ejemplo maiz huichol.jpeg"  transform="matrix(0.8058 0 0 0.8058 -1078.509 -286.155)">
</image>
<g>
	<g>
		<g>
			<path style="fill:#802E85;" d="M519.7,252.3c0,0-0.3-0.3-0.8-0.9c-0.5-0.6-1.1-1.5-1.9-2.7c-1.4-2.4-3-5.9-3.7-10
				c-0.8-4.1-0.6-8.7,0.4-12.5c1-3.9,2.7-6.9,3.8-8.5c2.3-3.2,5.3-5.3,7.8-6.2c2.4-0.9,4.2-0.7,4.7,0.2c0.5,0.9-0.3,2.4-1.5,4.2
				c-1.3,1.8-3,3.9-4.8,6.4c-0.9,1.2-2.5,3.3-3.9,6.1c-1.4,2.8-2.5,6.4-2.7,10.1c-0.3,3.6,0.3,7.2,1,9.7c0.4,1.3,0.8,2.3,1,3
				C519.5,251.9,519.7,252.3,519.7,252.3z"/>
		</g>
	</g>
</g>
<g>
	<g>
		<g>
			<path style="fill:#292929;" d="M-505.5,72.1c-0.7,0.4-1.8-0.2-3.3-0.5c-1.5-0.4-3.5-0.5-5.3,0.2c-1.8,0.6-3.4,2-4.5,3.6
				c-1.1,1.5-1.7,3.1-2,4c-0.7,1.9-1.3,3.7-2.2,5.1c-0.8,1.4-1.8,2.4-2.8,2.4c-1,0-2-1-2.6-2.8c-0.5-1.8-0.6-4.4,0.3-7.2
				c0.5-1.4,1.5-3.8,3.6-6.2c2-2.3,5.3-4.5,8.9-4.9c3.6-0.4,6.9,0.9,8.5,2.6c0.8,0.8,1.3,1.7,1.5,2.4
				C-505,71.5-505.1,71.9-505.5,72.1z"/>
		</g>
	</g>
</g>
<g>
	<rect x="476.3" y="175.4" style="fill:none;" width="14.2" height="7.6"/>
	<path style="fill:#292929;" d="M490.5,179.2c0,2-8.3,3.8-10.4,3.8c-2.1,0-3.8-1.7-3.8-3.8s1.7-3.8,3.8-3.8
		C482.2,175.4,490.5,177.2,490.5,179.2z"/>
</g>
<g>
	<rect x="486.8" y="193.3" style="fill:none;" width="14.2" height="7.6"/>
	<path style="fill:#292929;" d="M498.4,197.1c0,3.1-6.7,3.8-8.4,3.8s-3.1-1.7-3.1-3.8s1.4-3.8,3.1-3.8S498.4,194,498.4,197.1z"/>
</g>
<g>
	<rect x="477" y="210.5" style="fill:none;" width="13.5" height="7.6"/>
	<path style="fill:#292929;" d="M490.5,214.3c0,3.1-7.9,3.8-9.9,3.8c-2,0-3.6-1.7-3.6-3.8c0-2.1,1.6-3.8,3.6-3.8
		C482.6,210.5,490.5,211.2,490.5,214.3z"/>
</g>
<g>
	<g>
		<g>
			<path style="fill:#292929;" d="M-507.6,47.2c-0.7,0.9-2.2,0.9-3.9,1.1c-1.7,0.2-3.8,0.5-5.7,1.4c-1,0.4-1.9,1-2.6,1.6l-0.5,0.5
				l-0.5,0.5c-0.3,0.3-0.6,0.7-0.9,1c-1.1,1.4-1.6,2.9-2,3.8c-0.6,1.7-1.5,3.3-2.5,4.8c-1,1.4-2.3,2.6-3.8,2.9
				c-1.5,0.3-3.2-0.7-4.3-2.8c-1.1-2.1-1.4-5.4-0.2-8.7c0.6-1.6,1.9-4.5,4.5-7.2c0.7-0.7,1.4-1.3,2.2-1.9c0.4-0.3,0.8-0.6,1.3-0.9
				c0.4-0.3,0.9-0.5,1.3-0.7c1.8-0.9,3.8-1.5,5.8-1.7c3.9-0.5,7.6,0.6,9.7,2.2C-507.4,44.5-506.9,46.3-507.6,47.2z"/>
		</g>
	</g>
</g>
<g>
	<g>
		<g>
			<path style="fill:#292929;" d="M-508.9,1.5c-0.8,0.2-1.6-0.7-2.9-1.8c-1.3-1-3.1-2.2-5.1-2.6c-1-0.2-2-0.3-3-0.2
				c-0.9,0.1-1.7,0.4-2.5,0.8c-0.7,0.4-1.3,0.9-1.8,1.3c-0.5,0.5-0.9,0.9-1.1,1.3c-1,1.4-1.8,2.7-2.6,3.8c-0.8,1.1-1.5,2.2-2.6,2.4
				c-1,0.2-2.3-0.7-2.8-2.8c-0.6-2.1-0.1-5.3,1.8-7.9c0.5-0.7,1.2-1.5,2.2-2.4c1-0.9,2.3-1.8,3.9-2.4c1.6-0.6,3.5-1,5.3-0.9
				c1.9,0.1,3.7,0.6,5.2,1.3c3.2,1.5,5.3,4.1,6.1,6.2C-507.8-0.2-508.2,1.3-508.9,1.5z"/>
		</g>
	</g>
</g>
<g>
	<g>
		<g>
			<path style="fill:#292929;" d="M-509.3-23.4c-0.5,0.6-1.4,0.7-2.6,0.7c-1.2,0-2.7-0.1-4.1,0.1c-1.5,0.2-2.8,0.6-3.9,1.1
				c-1.1,0.5-1.9,1.2-2.4,1.5c-0.9,0.7-1.9,1.3-3,1.6c-1,0.3-2.2,0.5-3.1,0.1c-0.9-0.4-1.5-1.5-1.4-3c0.1-1.5,1.1-3.3,2.8-4.7
				c0.8-0.7,2.4-1.7,4.5-2.4c2.1-0.7,4.7-0.9,6.9-0.4c2.3,0.4,4.2,1.5,5.3,2.6C-509.2-25.1-508.9-24.1-509.3-23.4z"/>
		</g>
	</g>
</g>
<g>
	<g>
		<g>
			<path style="fill:#292929;" d="M-502.9-24.2c-0.2-0.8,0.5-1.6,1.8-2.8c1.3-1.2,3.1-2.7,5.8-4c1.4-0.6,3.1-1.2,5.4-0.9
				c0.5,0.1,1.1,0.2,1.6,0.4c0.5,0.2,1,0.5,1.5,0.8c0.4,0.3,0.8,0.6,1.1,0.9c0.3,0.3,0.6,0.6,0.9,0.9c2,2.4,2.7,4.5,3.2,5.6
				c0.9,2.3,1.1,4.5,0.9,6.1c-0.2,1.6-0.8,2.7-1.8,3.1c-1,0.4-2.2-0.2-3.3-1.5c-1.1-1.2-2.1-3-2.8-4.9c-0.4-0.9-1-2.6-1.8-3.8
				c-0.1-0.1-0.2-0.3-0.3-0.4c-0.1-0.1-0.2-0.2-0.2-0.3c-0.1-0.1-0.1-0.2-0.3-0.2c-0.3-0.2-1.1-0.2-2.1,0c-2,0.4-4.3,1.3-6.1,1.6
				C-501.3-23.2-502.7-23.5-502.9-24.2z"/>
		</g>
	</g>
</g>
<g>
	<g>
		<g>
			<path style="fill:#292929;" d="M-501.8,1c-0.6-0.5-0.2-2,1.4-3.8c1.7-1.7,4.7-3.5,8.3-4c1.8-0.3,3.7-0.2,5.6,0.2
				c1.9,0.4,3.6,1.2,5.1,2.1c1.5,1,2.7,2.1,3.6,3.1c0.9,1.1,1.5,2,1.9,2.8c1.7,3,1.9,6.2,1.3,8.4c-0.6,2.2-1.9,3.2-2.9,2.9
				c-1.1-0.2-1.8-1.4-2.5-2.8c-0.7-1.4-1.5-3.1-2.5-4.8c-0.2-0.4-0.6-1-1.1-1.7c-0.5-0.6-1.1-1.3-1.9-1.9c-1.5-1.2-3.8-2.1-6.2-2.2
				c-2.4-0.2-4.7,0.4-6.5,1C-500,0.9-501.2,1.5-501.8,1z"/>
		</g>
	</g>
</g>
<g>
	<g>
		<g>
			<path style="fill:#292929;" d="M-500.7,32.1c-0.7-0.2-1-1.9-0.2-4.4c0.8-2.5,2.8-5.9,6.4-8c3.7-2.2,8.5-2.7,12.4-1.2
				c2,0.7,3.7,1.9,4.9,3.1c1.2,1.2,1.9,2.4,2.4,3.2c0.9,1.7,1.4,3.5,1.6,5c0.2,1.5,0.1,2.8-0.1,3.9c-0.4,2.2-1.3,3.5-2.3,3.6
				c-1.1,0.1-2.1-1.1-3-2.8c-0.9-1.8-1.8-4.1-2.8-6c-0.3-0.5-0.6-1.1-1.2-1.6c-0.5-0.6-1.2-1.1-2.1-1.5c-1.8-0.9-4.6-1-7-0.1
				c-2.4,0.9-4.5,2.8-5.9,4.4C-499,31.1-499.9,32.3-500.7,32.1z"/>
		</g>
	</g>
</g>
<g>
	<g>
		<g>
			<path style="fill:#292929;" d="M-501.5,56.2c-0.7-0.3-0.7-2.1,0.4-4.6c0.6-1.3,1.5-2.7,2.8-4c1.3-1.4,3.1-2.6,5.2-3.4
				c2.1-0.8,4.5-1.1,6.9-0.7c2.5,0.4,4.6,1.6,6.2,2.9c1.6,1.3,2.8,2.8,3.7,4.2c0.9,1.3,1.4,2.5,1.8,3.3c0.7,1.7,1.1,3.3,1.4,4.7
				c0.2,1.4,0.3,2.7,0.3,3.8c0,2.2-0.6,3.7-1.6,4c-1,0.3-2.3-0.7-3.6-2.5c-1.3-1.8-2.5-4.5-3.5-7.1c-0.6-1.3-1.5-3.4-3.2-5
				c-0.8-0.8-1.8-1.4-2.9-1.8c-1.1-0.3-2.4-0.4-3.7-0.1c-2.6,0.5-5,2.2-6.6,3.7C-499.7,55.3-500.8,56.5-501.5,56.2z"/>
		</g>
	</g>
</g>
<g>
	<g>
		<g>
			<path style="fill:#292929;" d="M-502.3,80.1c-0.6,0-1.2-0.5-1.3-1.6c-0.1-1.1,0.3-2.8,1.8-4.2c1.4-1.4,3.5-2.3,5.5-2.7
				c2.1-0.5,4.4-0.5,6.8-0.1c2.3,0.4,4.7,1.3,6.8,2.5c2.1,1.2,4,2.9,5.4,4.7c1.5,1.8,2.5,3.8,3.1,5.5c0.6,1.7,0.9,3.3,1.1,4.4
				c0.6,4.5-1.1,8.5-3.1,10.6c-2.1,2.2-4.3,2.5-5.5,1.5c-1.3-1-1.7-2.8-2-4.7c-0.3-1.9-0.5-4-0.8-6.1c-0.1-1.1-0.5-2.9-1.6-4.7
				c-0.6-0.9-1.4-1.9-2.4-2.7c-1-0.8-2.2-1.6-3.4-2.1c-2.4-1.1-5.4-1.4-6.7-1.3c-0.7,0-1.4,0.2-2,0.5
				C-501.2,79.8-501.8,80.1-502.3,80.1z"/>
		</g>
	</g>
</g>
<g>
	<g>
		<g>
			<path style="fill:#292929;" d="M-508.3,23c-1.1,0.8-2.6,0.5-4.4,0.3c-1.8-0.2-3.8-0.3-5.5,0.3c-1.7,0.5-3.2,1.6-4,2.8
				c-0.8,1-1.2,2.3-1.5,3.1c-0.5,1.6-1.5,3.6-2.8,5.2c-1.3,1.6-2.9,2.7-4.7,2.6c-1.8-0.1-3.4-1.2-4.4-3.2c-1-2-1.5-5-0.4-8.6
				c0.3-0.9,0.8-2.1,1.6-3.5c0.4-0.7,0.9-1.5,1.5-2.2c0.6-0.8,1.3-1.5,2.1-2.2c3.1-2.8,7.8-4.6,12.2-4.2c4.5,0.3,8,2.6,9.6,4.8
				c0.8,1.1,1.3,2.2,1.4,3.1C-507.5,21.9-507.8,22.6-508.3,23z"/>
		</g>
	</g>
</g>
<line style="fill:none;stroke:#802E85;stroke-width:3;stroke-linecap:round;stroke-miterlimit:10;" x1="-508.3" y1="-31.2" x2="-518.9" y2="-48.7"/>
<line style="fill:none;stroke:#802E85;stroke-width:3;stroke-linecap:round;stroke-miterlimit:10;" x1="-505.5" y1="-31.2" x2="-513.6" y2="-62.2"/>
<line style="fill:none;stroke:#802E85;stroke-width:3;stroke-linecap:round;stroke-miterlimit:10;" x1="-504.9" y1="-31.2" x2="-507.6" y2="-72.1"/>
<line style="fill:none;stroke:#802E85;stroke-width:3;stroke-linecap:round;stroke-miterlimit:10;" x1="-502.9" y1="-31.2" x2="-500.7" y2="-65.2"/>
<line style="fill:none;stroke:#802E85;stroke-width:3;stroke-linecap:round;stroke-miterlimit:10;" x1="-500.7" y1="-31.2" x2="-492.7" y2="-53"/>
<line style="fill:none;stroke:#802E85;stroke-width:5;stroke-linecap:round;stroke-miterlimit:10;" x1="-505.3" y1="-25" x2="-500.5" y2="118.8"/>
<g>
	<path style="fill:#FFD000;" d="M144.6,62.1c-0.3,0-0.6-0.1-0.9-0.2c-0.1,0-0.2-0.1-0.3-0.1c-0.3,0.2-0.7,0.3-1.1,0.3
		c-0.1,0-0.1,0-0.2,0c-0.3,0-0.6-0.1-0.8-0.2c-0.3,0.1-0.5,0.2-0.8,0.2l-0.2,0c-0.1,0-0.2,0-0.3,0c-0.1,0-0.2,0-0.2,0
		c-0.5,0-1-0.2-1.4-0.4c0,0-0.1,0.1-0.1,0.1c-0.4,0.2-0.8,0.4-1.3,0.4c-0.9,0-1.7-0.4-2.1-1.2l-10.6-17.5c-0.7-1.2-0.3-2.7,0.8-3.4
		c0.4-0.2,0.8-0.4,1.3-0.4c0.9,0,1.7,0.5,2.1,1.2l6.7,11l-5.9-22.6c-0.2-0.6-0.1-1.3,0.3-1.9c0.3-0.6,0.9-1,1.5-1.2
		c0.2-0.1,0.4-0.1,0.6-0.1c1.1,0,2.1,0.8,2.4,1.9l2.2,8.5l-1.1-17.6c-0.1-1.4,1-2.6,2.3-2.7l0.2,0c1.3,0,2.4,1,2.5,2.3l1.2,18.2
		l0.8-11.3c0.1-1.3,1.2-2.3,2.5-2.3c0.1,0,0.1,0,0.2,0c1.4,0.1,2.4,1.3,2.3,2.7l-1.6,24.1l4.7-12.9c0.4-1,1.3-1.6,2.4-1.6
		c0.3,0,0.6,0.1,0.9,0.2c1.3,0.5,2,1.9,1.5,3.2l-7.9,21.8C146.6,61.5,145.6,62.1,144.6,62.1z"/>
	<path style="fill:#ED0B00;" d="M137.7,17.2c0.8,0,1.5,0.6,1.5,1.4l2.1,33.4l1.8-26.5c0.1-0.8,0.7-1.4,1.5-1.4c0,0,0.1,0,0.1,0
		c0.8,0.1,1.5,0.8,1.4,1.6L144,56.9l7.1-19.6c0.2-0.6,0.8-1,1.4-1c0.2,0,0.3,0,0.5,0.1c0.8,0.3,1.2,1.1,0.9,1.9L146,60.1
		c-0.2,0.6-0.8,1-1.4,1c-0.2,0-0.3,0-0.5-0.1c-0.3-0.1-0.5-0.3-0.6-0.4c-0.3,0.3-0.7,0.5-1.1,0.5c0,0-0.1,0-0.1,0
		c-0.3,0-0.7-0.2-0.9-0.4c-0.2,0.2-0.6,0.4-0.9,0.4c0,0-0.1,0-0.1,0c-0.1,0-0.2,0-0.3,0c-0.1,0-0.1,0-0.2,0c-0.6,0-1.2-0.4-1.4-1
		c-0.1,0.3-0.3,0.6-0.6,0.8c-0.2,0.1-0.5,0.2-0.8,0.2c-0.5,0-1-0.3-1.3-0.7l-10.6-17.5c-0.4-0.7-0.2-1.6,0.5-2.1
		c0.2-0.1,0.5-0.2,0.8-0.2c0.5,0,1,0.3,1.3,0.7l10.2,16.9L130.2,29c-0.2-0.8,0.3-1.6,1.1-1.8c0.1,0,0.3,0,0.4,0
		c0.7,0,1.3,0.4,1.5,1.1l4.9,18.6l-1.8-28C136.1,17.9,136.7,17.2,137.7,17.2C137.6,17.2,137.6,17.2,137.7,17.2 M137.7,15.2
		L137.7,15.2c-0.1,0-0.1,0-0.2,0c-1.9,0.1-3.4,1.8-3.3,3.7l0.5,7.9c-0.6-1.1-1.8-1.8-3-1.8c-0.3,0-0.6,0-0.9,0.1
		c-0.9,0.2-1.7,0.8-2.1,1.6c-0.5,0.8-0.6,1.7-0.4,2.7l4.2,16l-3.1-5.1c-0.6-1-1.8-1.7-3-1.7c-0.6,0-1.3,0.2-1.8,0.5
		c-1.6,1-2.2,3.2-1.2,4.8L134,61.4c0.6,1,1.8,1.7,3,1.7c0.5,0,1-0.1,1.4-0.3c0.4,0.2,0.9,0.3,1.4,0.3c0.1,0,0.2,0,0.2,0
		c0.1,0,0.2,0,0.3,0c0.1,0,0.1,0,0.2,0c0.3,0,0.5-0.1,0.8-0.1c0.2,0.1,0.5,0.1,0.8,0.1c0.1,0,0.2,0,0.2,0c0.4,0,0.8-0.1,1.1-0.2
		c0.4,0.1,0.8,0.2,1.1,0.2c1.5,0,2.8-0.9,3.3-2.3l7.9-21.8c0.7-1.8-0.3-3.8-2.1-4.5c-0.4-0.1-0.8-0.2-1.2-0.2
		c-1.5,0-2.8,0.9-3.3,2.3l-2.3,6.3l1.2-17.1c0.1-1.9-1.3-3.6-3.3-3.7c-0.1,0-0.2,0-0.2,0c-1.3,0-2.5,0.7-3.1,1.8l-0.4-5.5
		C141,16.6,139.5,15.2,137.7,15.2L137.7,15.2z"/>
</g>
<path style="fill:#E31600;" d="M146.7,216.9c-3.5,0-6.4-2.8-6.5-6.3l-1.5-44.7c-0.5-0.1-0.9-0.2-1.4-0.3c-1-0.2-1.9-0.3-2.6-0.3
	c-0.1,0-0.2,0-0.3,0c-0.4,0-0.6,0.1-0.7,0.1l-0.1,0c-0.1,0-0.2,0.1-0.4,0.2l-0.1,0.1c-0.1,0.1-0.3,0.1-0.4,0.2
	c-0.7,0.4-1.3,1-1.9,1.6c-1.1,1.3-1.7,2.6-2.1,3.6l-0.3,0.8c-0.7,1.7-1.4,3.5-2.2,4.9c-0.5,0.9-2,3.6-4.6,3.6
	c-2.1,0-3.8-1.7-4.5-4.6c-0.7-2.8-0.5-6.1,0.7-9.1c0.8-1.9,2.2-4.7,4.8-7.2c1.6-1.5,3.3-2.7,5.2-3.4c0.5-0.2,1-0.4,1.5-0.6l0.2-0.1
	c0.5-0.1,1-0.3,1.7-0.4c0.5-0.1,1.1-0.1,1.7-0.1c0.7,0,1.4,0.1,2.1,0.2c1.1,0.2,2.2,0.5,3.3,0.9l-0.4-12.1c-0.8,0-1.6,0-2.5,0
	c-1.2,0-2.3,0-3.3,0.1c-1.4,0.1-2.6,0.3-3.4,0.6c-0.4,0.1-0.7,0.3-0.9,0.3l-0.1,0.1c-0.8,0.9-1.6,1.9-2.2,3.3c-1,2.3-2,4.1-3,5.6
	c-1.1,1.7-2.8,3.6-5.2,4c-0.2,0-0.5,0.1-0.8,0.1c-2.4,0-4.5-1.7-5.7-4.5c-1.1-2.6-1.6-6.9,0.5-11.4c1-2.3,3-5.6,6.5-8.4
	c3-2.3,6-2.9,8.1-3.2c0.9-0.1,1.7-0.1,2.6-0.1c1.4,0,2.8,0.1,4.3,0.4c1.6,0.3,3.2,0.7,4.7,1.2l-0.4-12.9c-0.4-0.1-0.8-0.2-1.2-0.4
	c-0.4-0.1-0.8-0.3-1.2-0.4c-1-0.3-2-0.6-3-0.9c-0.6-0.1-1.3-0.3-1.8-0.4l-0.2,0c-0.2,0.1-0.4,0.1-0.5,0.2c0,0-0.1,0-0.2,0.1
	c-0.1,0-0.2,0.1-0.3,0.1l-0.1,0c-0.3,0.1-0.5,0.3-0.8,0.4c-0.5,0.3-1,0.7-1.2,1c-0.3,0.4-0.5,0.7-0.7,1c-0.3,0.5-0.4,0.8-0.5,1
	c-1.1,2.5-2.1,4.5-3.3,6c-1.8,2.4-4,3.7-6.2,3.7c-0.1,0-0.2,0-0.3,0c-2.6-0.1-4.9-1.9-6.2-4.8c-0.7-1.5-1-3.2-1.1-5
	c0-2.2,0.4-4.4,1.2-6.4c0.5-1.2,1.2-2.4,1.9-3.6c1-1.6,2.5-3.1,4-4.4c3.5-2.8,7.9-4.4,12.3-4.4c0.3,0,0.6,0,0.9,0
	c0.6,0,1.1,0.1,1.5,0.2c0.5,0.1,0.9,0.2,1.3,0.3l0.2,0.1c0.4,0.1,0.7,0.2,1,0.3l0.3,0.1c0.5,0.2,0.9,0.4,1.2,0.5
	c0.9,0.4,1.7,0.9,2.3,1.3l-0.3-7.7l0,0c-1.4-1.3-3.4-3.2-5.6-4.6c-1.2-0.8-2.3-1.4-3.1-1.7c-0.6-0.2-1-0.3-1.2-0.3l-0.7,0.3l-0.1,0
	c0,0-0.1,0-0.1,0.1l-0.3,0.2c-0.1,0.1-0.2,0.1-0.3,0.2l-0.1,0.1c-0.5,0.3-0.8,0.7-1.1,1c-1.2,1.3-2.1,2.7-2.9,3.9l-0.3,0.4
	c-0.9,1.4-1.9,2.9-3.7,3.3c-0.2,0-0.4,0.1-0.7,0.1c-1.8,0-3.9-1.5-4.5-5c-0.2-1.2-0.3-3,0.3-5.2c0.6-2,1.6-3.8,3-5.3
	c0.7-0.7,1.7-1.8,3.3-2.8c0.4-0.3,0.8-0.5,1.3-0.7l0.1-0.1c0.4-0.2,0.8-0.4,1.3-0.6l0.2-0.1c0.4-0.1,0.8-0.3,1.3-0.4l0.3-0.1
	c0.4-0.1,0.9-0.2,1.6-0.3c0.4-0.1,0.9-0.1,1.4-0.1c2.7,0,4.8,0.9,6.2,1.6c1.3,0.7,2.5,1.5,3.8,2.6l-0.4-11.5c-0.2,0-0.3-0.1-0.5-0.1
	c-0.8-0.1-1.7-0.3-2.6-0.4c-0.9-0.1-1.8-0.2-2.5-0.2l-0.3,0c-0.4,0-0.8,0-0.9,0.1l-0.1,0.1l-0.1,0c0,0-0.1,0-0.1,0.1
	c-0.1,0.1-0.2,0.1-0.3,0.1l-0.1,0c-0.2,0.1-0.4,0.2-0.6,0.3c-0.4,0.2-0.6,0.4-0.9,0.5l-0.1,0.1c-1.3,0.9-2.5,1.5-3.6,1.9
	c-1,0.4-1.9,0.6-2.7,0.6c-0.7,0-1.3-0.1-1.9-0.4c-1.8-0.8-2.7-2.9-2.2-5.3c0.4-2.3,2-4.7,4.3-6.1c0.5-0.3,1.3-0.9,2.4-1.3
	c0.5-0.2,1.1-0.5,1.7-0.6c0.3-0.1,0.6-0.2,1-0.3c0.3-0.1,0.7-0.2,1.1-0.2c0.6-0.1,1.2-0.1,1.8-0.1c1.2,0,2.2,0.2,3,0.3
	c1.2,0.3,2.4,0.6,3.8,1.2c0.5,0.2,0.9,0.4,1.4,0.6c1.1-1.5,2.9-2.5,4.8-2.5l0.8,0c1.6,0,3.2,0.6,4.3,1.6c1.2-0.9,2.7-2,4.7-3
	c1.3-0.5,2.9-1.1,5-1.1c0.5,0,1,0,1.5,0.1c0.7,0.1,1.4,0.3,2,0.5c0.6,0.2,1.1,0.5,1.5,0.7l0.4,0.2l0.1,0c0.5,0.3,0.8,0.6,1.2,0.9
	l0.1,0.1l0.1,0.1c0.3,0.3,0.6,0.7,0.9,1l0.1,0.1c2,2.4,2.8,4.5,3.4,5.7l0.2,0.4c1,2.5,1.3,5,1,7.1c-0.5,3.2-2.1,4.3-3.1,4.7
	c-0.4,0.2-0.8,0.2-1.3,0.2c-1.4,0-2.9-0.8-4.2-2.2c-1.5-1.7-2.6-3.9-3.2-5.5c-0.3-0.8-0.9-2.4-1.6-3.4c-0.1-0.1-0.1-0.1-0.2-0.2
	c-0.2,0-0.4,0-0.7,0.1c-0.9,0.2-1.9,0.5-2.9,0.8c-0.9,0.3-1.9,0.5-2.8,0.7l0.5,14.8c1.8-0.9,3.8-1.6,5.8-1.9
	c0.8-0.1,1.6-0.2,2.5-0.2c1.3,0,2.5,0.1,3.8,0.4c2,0.4,4,1.3,5.8,2.4c1.4,0.9,2.8,2.1,4,3.4c1,1.1,1.7,2.2,2.2,3.1
	c2.1,3.7,2.1,7.5,1.4,9.8c-0.8,2.7-2.5,4.4-4.5,4.4c-0.2,0-0.5,0-0.7-0.1c-2-0.4-3.1-2.3-3.8-3.7c-0.3-0.5-0.5-1-0.8-1.5
	c-0.5-1-1.1-2.1-1.7-3.2c-0.2-0.4-0.5-0.9-1-1.5c-0.5-0.6-1-1.1-1.5-1.5c-1.3-1-3.1-1.7-5-1.8c-0.3,0-0.5,0-0.7,0
	c-1.5,0-3.2,0.3-5.2,1c0,0,0,0,0,0l0.6,16.8c0.6-0.4,1.1-0.9,1.8-1.2c2.5-1.5,5.5-2.3,8.6-2.3c1.9,0,3.8,0.3,5.5,1
	c2.7,0.9,4.7,2.6,5.6,3.5c1.4,1.4,2.2,2.7,2.7,3.6c1,1.8,1.6,3.7,1.8,5.7c0.2,1.6,0.1,3.1-0.1,4.5c-0.8,4.4-3.1,5.1-4.1,5.2
	c-0.1,0-0.2,0-0.3,0c-2.6,0-4.1-2.9-4.6-3.9c-0.5-0.9-0.9-1.9-1.3-2.8c-0.5-1.1-1-2.1-1.5-3.1c-0.2-0.4-0.5-0.8-0.9-1.2
	c-0.4-0.5-0.9-0.8-1.5-1.1c-0.7-0.4-1.7-0.6-2.7-0.6c-0.9,0-1.9,0.2-2.6,0.5c-2.1,0.8-3.9,2.5-5.1,3.8c-0.2,0.3-0.8,0.9-0.8,1
	l0.4,11.7c0.8-0.5,1.7-0.9,2.6-1.3c1.7-0.7,3.6-1,5.5-1c0.8,0,1.7,0.1,2.5,0.2c2.5,0.4,5,1.6,7.1,3.3c1.6,1.3,2.9,2.8,4.1,4.6
	c0.9,1.4,1.5,2.7,1.9,3.6c0.7,1.6,1.2,3.3,1.5,5.2c0.2,1.5,0.4,2.9,0.3,4.2c-0.1,4.1-1.7,5.5-3,5.9c-0.3,0.1-0.6,0.1-1,0.1
	c-1.6,0-3.2-1.1-4.8-3.4c-1.4-1.9-2.5-4.5-3.6-7.1l-0.1-0.3c-0.4-0.9-1.3-2.9-2.8-4.3c-0.7-0.6-1.4-1.1-2.1-1.3
	c-0.5-0.1-1-0.2-1.5-0.2c-0.4,0-0.8,0-1.3,0.1c-1.6,0.3-3.3,1.2-5.1,2.8l0.5,14.5c1-0.1,1.9-0.2,3-0.2c1.1,0,2.2,0.1,3.4,0.3
	c2.6,0.4,5.1,1.4,7.4,2.7c2.2,1.3,4.3,3.1,5.9,5.1c1.8,2.3,2.9,4.6,3.4,6.1c0.7,2.1,1,3.8,1.2,4.8c0.7,5.5-1.5,10-3.6,12.2
	c-1.6,1.7-3.5,2.6-5.3,2.6l0,0c-1.1,0-2-0.3-2.8-0.9c-1.9-1.5-2.4-4-2.7-5.8c-0.3-1.5-0.4-3-0.6-4.6l-0.2-1.6
	c-0.2-1.5-0.6-2.8-1.3-3.9c-0.5-0.8-1.2-1.6-1.9-2.2c-0.9-0.7-1.9-1.4-2.9-1.8c-0.7-0.3-1.5-0.6-2.5-0.8l1.2,37
	C153.3,212.8,150.3,216.8,146.7,216.9L146.7,216.9L146.7,216.9z"/>
<path style="fill:#4EB433;stroke:#FFD000;stroke-miterlimit:10;" d="M172.9,175.2c-0.6-1.7-1.6-3.7-3.1-5.5
	c-1.5-1.8-3.3-3.5-5.4-4.7c-2.1-1.2-4.5-2.1-6.8-2.5c-2.4-0.4-4.7-0.3-6.8,0.2c-0.4,0.1-0.8,0.2-1.2,0.3l-0.6-18
	c0.1,0,0.1-0.1,0.2-0.1c1.7-1.5,4-3.3,6.6-3.7c1.3-0.3,2.6-0.2,3.7,0.1c1.1,0.3,2.1,1,2.9,1.8c1.7,1.6,2.7,3.7,3.2,5
	c1.1,2.5,2.2,5.2,3.5,7.1c1.3,1.8,2.6,2.8,3.6,2.5c1-0.3,1.5-1.8,1.6-4.1c0-1.1-0.1-2.4-0.3-3.8c-0.2-1.4-0.7-3-1.4-4.7
	c-0.4-0.8-0.9-2-1.8-3.3c-0.9-1.3-2.1-2.8-3.7-4.2c-1.6-1.3-3.8-2.5-6.2-2.9c-2.4-0.4-4.9-0.1-7,0.7c-2.1,0.8-3.9,2-5.2,3.4
	c0,0,0,0,0,0l-0.5-16.5c0.4-0.4,0.9-1,1.4-1.5c1.4-1.6,3.5-3.5,5.9-4.4c2.3-0.9,5.1-0.8,7,0.1c0.9,0.4,1.6,1,2.1,1.5
	c0.5,0.6,0.9,1.2,1.2,1.6c1,1.9,1.9,4.2,2.8,6c0.9,1.8,2,2.9,3,2.8c1-0.1,1.9-1.4,2.3-3.6c0.2-1.1,0.3-2.4,0.1-3.9
	c-0.2-1.5-0.6-3.2-1.6-5c-0.5-0.9-1.2-2-2.4-3.2c-1.2-1.2-2.9-2.4-4.9-3.1c-3.9-1.5-8.8-1-12.5,1.2c-2,1.2-3.6,2.8-4.7,4.5
	l-0.8-23.2c0.5-0.2,1.1-0.4,1.7-0.6c1.8-0.6,4.1-1.2,6.5-1c2.4,0.1,4.7,1,6.2,2.2c0.8,0.6,1.4,1.3,1.9,1.9c0.5,0.7,0.9,1.2,1.1,1.7
	c1,1.7,1.8,3.4,2.5,4.8c0.7,1.4,1.4,2.5,2.5,2.8c1,0.2,2.3-0.8,2.9-2.9c0.6-2.1,0.4-5.4-1.3-8.4c-0.4-0.7-1.1-1.7-1.9-2.8
	c-0.9-1-2.1-2.2-3.6-3.1c-1.5-1-3.3-1.7-5.1-2.1c-1.9-0.4-3.8-0.5-5.6-0.2c-3.4,0.4-6.2,2-7.9,3.7l-0.7-20.3c0.4,0,0.8-0.1,1.2-0.2
	c1.8-0.3,4.1-1.2,6.1-1.6c1-0.2,1.8-0.1,2.1,0c0.1,0.1,0.2,0.2,0.3,0.2c0.1,0.1,0.1,0.2,0.2,0.3c0.1,0.1,0.2,0.3,0.3,0.4
	c0.8,1.2,1.5,2.9,1.8,3.8c0.7,1.9,1.7,3.7,2.8,4.9c1.1,1.2,2.3,1.8,3.3,1.5c1-0.4,1.6-1.5,1.8-3.1c0.2-1.6,0-3.8-0.9-6.1
	c-0.5-1.2-1.2-3.2-3.2-5.6c-0.3-0.3-0.6-0.6-0.9-0.9c-0.4-0.3-0.7-0.6-1.2-0.9c-0.5-0.3-0.9-0.6-1.5-0.8c-0.5-0.2-1.1-0.4-1.6-0.4
	c-2.2-0.3-4,0.3-5.4,0.9c-2.7,1.3-4.5,2.8-5.8,4c0,0,0,0-0.1,0.1c-0.7-1.5-2.3-2.5-4-2.5l-0.1,0c-2.1,0.1-3.7,1.5-4.2,3.5
	c-0.9-0.6-1.9-1.2-3.1-1.6c-1.1-0.5-2.3-0.9-3.6-1.2c-1.3-0.3-2.7-0.4-4.3-0.2c-0.4,0.1-0.7,0.1-1,0.2c-0.3,0.1-0.6,0.2-0.9,0.2
	c-0.6,0.2-1.1,0.4-1.5,0.6c-0.9,0.4-1.7,0.9-2.2,1.2c-2.1,1.4-3.3,3.4-3.6,5.1c-0.3,1.7,0.2,2.9,1.2,3.3c1,0.4,2.1,0.2,3.2-0.2
	c1.1-0.4,2.3-1.1,3.4-1.8c0.3-0.2,0.7-0.5,1.2-0.7c0.2-0.1,0.5-0.3,0.8-0.4c0.1-0.1,0.3-0.1,0.4-0.2c0.2-0.1,0.3-0.1,0.4-0.1
	c0.3-0.1,1.1-0.2,1.9-0.2c0.8,0,1.8,0.1,2.7,0.3c1.7,0.2,3.4,0.6,4.8,0.8l0.6,18.3c-0.7-0.9-1.4-1.7-2.3-2.6
	c-1.3-1.2-2.7-2.4-4.5-3.3c-1.8-0.9-3.9-1.7-6.5-1.3c-0.7,0.1-1.1,0.2-1.6,0.3c-0.5,0.1-0.9,0.3-1.3,0.5c-0.4,0.2-0.8,0.4-1.2,0.5
	c-0.4,0.2-0.7,0.4-1.1,0.6c-1.3,0.8-2.3,1.7-2.9,2.4c-1.3,1.4-2.1,3-2.6,4.5c-0.5,1.5-0.5,3-0.3,4.2c0.4,2.4,1.8,3.5,2.8,3.3
	c1.1-0.2,1.7-1.4,2.6-2.7c0.8-1.3,1.8-2.8,3.2-4.2c0.3-0.4,0.8-0.8,1.4-1.3c0.2-0.1,0.3-0.2,0.5-0.3c0.2-0.1,0.3-0.2,0.5-0.3
	c0.2-0.1,0.4-0.2,0.6-0.3c0.2-0.1,0.5-0.2,0.5-0.2c0.3-0.1,1.3-0.1,2.4,0.3c1.1,0.4,2.3,1.1,3.5,1.9c2.3,1.5,4.4,3.4,5.8,4.8
	c0.2,0.2,0.4,0.4,0.6,0.6l0.4,12.8c-0.7-0.6-1.4-1.3-2.3-1.9c-0.9-0.6-1.9-1.3-3.1-1.8c-0.3-0.1-0.6-0.3-0.9-0.4
	c-0.4-0.1-0.6-0.3-1.1-0.4c-0.4-0.1-0.8-0.2-1.3-0.3c-0.4-0.1-0.9-0.1-1.4-0.1c-4.6-0.2-8.8,1.4-11.8,3.9c-1.5,1.2-2.7,2.6-3.6,3.9
	c-0.8,1.3-1.4,2.4-1.8,3.3c-0.8,2-1.1,3.9-1.1,5.6c0,1.7,0.4,3.1,0.9,4.2c1,2.3,2.6,3.5,4.4,3.6c1.8,0.1,3.4-1.1,4.7-2.9
	c1.3-1.7,2.3-3.9,3-5.5c0.1-0.4,0.3-0.8,0.6-1.3c0.3-0.5,0.5-0.9,1-1.4c0.4-0.5,1-0.9,1.7-1.3c0.3-0.2,0.7-0.4,1-0.5
	c0.2-0.1,0.4-0.2,0.6-0.2c0.1,0,0.2-0.1,0.3-0.1c0.1,0,0.2,0,0.2-0.1c0.1,0,0.1-0.1,0.3-0.1c0.1,0,0.2,0,0.4,0c0.1,0,0.3,0,0.4,0
	c0.6,0.1,1.4,0.2,2.1,0.4c1.5,0.4,3,0.9,4.3,1.3c1,0.3,1.8,0.5,2.6,0.7l0.6,17.6c-2-1-4.4-1.9-7.1-2.4c-1.9-0.3-4-0.5-6.3-0.2
	c-2.2,0.3-4.7,0.9-7.1,2.7c-3.4,2.6-5.1,5.8-5.9,7.6c-1.6,3.7-1.5,7.4-0.4,9.8c1,2.4,2.7,3.5,4.3,3.2c1.6-0.3,2.8-1.6,3.8-3.1
	c1.1-1.6,2-3.4,2.8-5.2c0.4-0.9,1.2-2.5,2.5-3.9c0-0.2,0.7-0.7,1.8-1c1.1-0.3,2.4-0.6,3.8-0.7c2.8-0.3,5.6-0.1,7.8,0
	c0,0,0.1,0,0.1,0l0.6,17.4c-0.3-0.2-0.6-0.4-1-0.6c-1.4-0.7-2.9-1.3-4.8-1.6c-0.9-0.2-2-0.2-3.1-0.1c-0.6,0.1-1.1,0.2-1.6,0.4
	c-0.5,0.2-0.9,0.3-1.4,0.5c-1.8,0.8-3.4,1.9-4.6,3c-2.5,2.4-3.8,5-4.4,6.5c-1.2,3-1.1,5.9-0.6,7.8c0.5,2,1.5,3.1,2.5,3.1
	c1.1,0,2-1,2.9-2.6c0.8-1.5,1.6-3.5,2.4-5.5c0.4-1,1.1-2.6,2.5-4.2c0.7-0.8,1.5-1.5,2.4-2c0.2-0.1,0.5-0.3,0.7-0.4
	c0.2-0.1,0.5-0.2,0.6-0.3c0.3-0.1,0.8-0.2,1.3-0.2c1.1,0,2.3,0.1,3.5,0.3c1.1,0.2,2.1,0.5,3,0.8l1.5,46.2c0.1,2.5,2.1,4.4,4.5,4.4
	l0.1,0c2.5-0.1,4.4-2.2,4.4-4.7l-1.3-39.6c1.5,0.1,3.6,0.5,5.4,1.3c1.2,0.5,2.4,1.3,3.4,2.1c1,0.8,1.8,1.8,2.4,2.7
	c1.1,1.8,1.5,3.7,1.6,4.8c0.3,2.2,0.5,4.2,0.8,6.1c0.3,1.9,0.7,3.7,2,4.7c1.2,0.9,3.4,0.7,5.5-1.5c2-2.1,3.7-6.1,3.1-10.7
	C173.8,178.5,173.5,177,172.9,175.2z"/>
<g>
	<path style="fill:#1F4A24;" d="M147.7,211.1c-0.3,0.1-0.7,0.2-1,0c-0.2-0.1-0.3-0.3-0.4-0.4c-0.1-0.2-0.3-0.4-0.4-0.6
		c-0.2-0.4,0-0.8,0-1.3c0-0.6,0-1.2-0.1-1.7c0-0.9-0.1-1.7-0.1-2.6c0-1.1-0.1-2.2-0.1-3.3c-0.1-1.4-0.1-2.7-0.2-4.1
		c-0.1-1.6-0.1-3.1-0.2-4.7c-0.1-1.8-0.1-3.5-0.2-5.3c-0.1-1.9-0.1-3.8-0.2-5.8c-0.1-2.1-0.2-4.1-0.2-6.2c-0.1-2.2-0.2-4.4-0.2-6.5
		c-0.1-2.3-0.2-4.6-0.3-6.8c-0.1-2.4-0.2-4.7-0.3-7.1c-0.1-2.4-0.2-4.8-0.3-7.2c-0.1-2.4-0.2-4.9-0.3-7.3c-0.1-2.4-0.2-4.9-0.3-7.3
		c-0.1-2.4-0.2-4.9-0.3-7.3c-0.1-2.4-0.2-4.8-0.3-7.2c-0.1-2.3-0.2-4.7-0.3-7c-0.1-2.2-0.2-4.5-0.3-6.7c-0.1-2.1-0.2-4.3-0.2-6.4
		c-0.1-2-0.2-4-0.2-6c-0.1-1.9-0.1-3.7-0.2-5.6c-0.1-1.7-0.1-3.4-0.2-5.1c-0.1-1.5-0.1-3-0.2-4.5c0-1.3-0.1-2.5-0.1-3.8
		c0-1-0.1-2.1-0.1-3.1c0-0.8-0.1-1.5-0.1-2.3c0-0.5,0-0.9-0.1-1.4c0-0.2,0-0.3,0-0.5c0-1.7,0.7-3,1.7-3.1c1.1,0,1.8,1.2,1.9,2.9
		c0,0.1,0,0.3,0,0.4c0,0.4,0,0.9,0,1.3c0,0.7,0.1,1.5,0.1,2.2c0,1,0.1,2,0.1,3c0,1.2,0.1,2.5,0.1,3.7c0.1,1.5,0.1,2.9,0.2,4.4
		c0.1,1.7,0.1,3.3,0.2,5c0.1,1.8,0.1,3.7,0.2,5.5c0.1,2,0.2,4,0.2,6c0.1,2.1,0.2,4.2,0.2,6.4c0.1,2.2,0.2,4.5,0.3,6.7
		c0.1,2.3,0.2,4.6,0.3,6.9c0.1,2.4,0.2,4.8,0.3,7.1c0.1,2.4,0.2,4.8,0.3,7.3c0.1,2.4,0.2,4.9,0.3,7.3c0.1,2.4,0.2,4.9,0.3,7.3
		c0.1,2.4,0.2,4.8,0.3,7.2c0.1,2.4,0.2,4.7,0.3,7.1c0.1,2.3,0.2,4.6,0.3,6.9c0.1,2.2,0.2,4.4,0.2,6.6c0.1,2.1,0.2,4.2,0.2,6.2
		c0.1,1.9,0.1,3.9,0.2,5.8c0.1,1.8,0.1,3.6,0.2,5.3c0.1,1.6,0.1,3.2,0.2,4.8c0.1,1.4,0.1,2.8,0.2,4.2c0,1.2,0.1,2.3,0.1,3.5
		c0,0.9,0.1,1.8,0.1,2.7c0,0.6,0,1.3,0.1,1.9c0,0.2,0,0.4,0,0.6c0,0.1,0,0.1,0,0.2c0,0.7,0.1,1.1-0.6,1.5c-0.3,0.2-0.7,0.3-1.1,0.3
		C147.9,211.1,147.8,211.1,147.7,211.1z"/>
	<path style="fill:#148C26;" d="M142.1,63.3c0.7,0,1.3,1.1,1.3,2.4l5.4,143.8c0,0.8-1.1,1.4-1.8,1.5c-0.2,0-0.4,0-0.6-0.1
		c-0.1-0.1-0.1-0.2-0.2-0.3c-0.2-0.6-0.1-1.1-0.1-1.7c0-0.5,0-1.1-0.1-1.6c0-0.8-0.1-1.7-0.1-2.5c0-1.1-0.1-2.2-0.1-3.3
		c-0.1-1.3-0.1-2.7-0.2-4c-0.1-1.5-0.1-3.1-0.2-4.6c-0.1-1.7-0.1-3.5-0.2-5.2c-0.1-1.9-0.1-3.8-0.2-5.7c-0.1-2.1-0.2-4.1-0.2-6.2
		c-0.1-2.2-0.2-4.4-0.2-6.6c-0.1-2.3-0.2-4.6-0.3-6.9c-0.1-2.4-0.2-4.7-0.3-7.1c-0.1-2.4-0.2-4.8-0.3-7.3c-0.1-2.4-0.2-4.9-0.3-7.3
		c-0.1-2.5-0.2-4.9-0.3-7.4c-0.1-2.4-0.2-4.9-0.3-7.3c-0.1-2.4-0.2-4.8-0.3-7.2c-0.1-2.3-0.2-4.7-0.3-7c-0.1-2.3-0.2-4.5-0.3-6.8
		c-0.1-2.2-0.2-4.3-0.2-6.5c-0.1-2-0.2-4.1-0.2-6.1c-0.1-1.9-0.1-3.8-0.2-5.6c-0.1-1.7-0.1-3.4-0.2-5.1c-0.1-1.5-0.1-3-0.2-4.5
		c0-1.3-0.1-2.6-0.1-3.8c0-1-0.1-2.1-0.1-3.1c0-0.8-0.1-1.5-0.1-2.3c0-0.5,0-1-0.1-1.4c0-0.2,0-0.3,0-0.5
		C140.8,64.5,141.3,63.4,142.1,63.3C142,63.3,142.1,63.3,142.1,63.3 M142.3,61.9L142.3,61.9c-1.4,0.1-2.3,1.6-2.3,3.6
		c0,0.2,0,0.3,0,0.5c0,0.4,0,0.9,0.1,1.3c0,0.7,0.1,1.4,0.1,2.2c0,1,0.1,1.9,0.1,2.9c0,1.2,0.1,2.4,0.1,3.6c0.1,1.4,0.1,2.8,0.2,4.3
		c0.1,1.6,0.1,3.2,0.2,4.8c0.1,1.8,0.1,3.6,0.2,5.3c0.1,1.9,0.1,3.8,0.2,5.8c0.1,2.1,0.2,4.1,0.2,6.2c0.1,2.2,0.2,4.3,0.2,6.5
		c0.1,2.2,0.2,4.5,0.3,6.7c0.1,2.3,0.2,4.6,0.3,6.9c0.1,2.4,0.2,4.7,0.3,7.1c0.1,2.4,0.2,4.8,0.3,7.1c0.1,2.4,0.2,4.8,0.3,7.1
		c0.1,2.4,0.2,4.7,0.3,7.1c0.1,2.3,0.2,4.6,0.3,7c0.1,2.3,0.2,4.5,0.3,6.8c0.1,2.2,0.2,4.4,0.2,6.5c0.1,2.1,0.2,4.2,0.2,6.2
		c0.1,2,0.1,3.9,0.2,5.9c0.1,1.8,0.1,3.6,0.2,5.4c0.1,1.6,0.1,3.3,0.2,4.9c0.1,1.5,0.1,2.9,0.2,4.4c0,1.3,0.1,2.5,0.1,3.8
		c0,1,0.1,2.1,0.1,3.1c0,0.8,0.1,1.6,0.1,2.3c0,0.5,0,1,0.1,1.5c0,0.2,0,0.5,0,0.7c0,0.3,0.1,0.6,0,0.9c-0.1,0.3-0.2,0.6,0.1,0.9
		c0.2,0.3,0.6,0.4,0.9,0.5c0.5,0.1,1,0.2,1.5,0.1c0.4-0.1,0.8-0.5,1.1-0.7c0.5-0.5,1-1.1,1-1.8l-5.5-144
		C144.6,63.4,143.6,61.9,142.3,61.9z"/>
</g>
<path style="fill:none;stroke:#A11891;stroke-miterlimit:10;" d="M189.6,186.1"/>
<g>
	<path style="fill:#FFD000;" d="M89.8,46.5c-0.1,0-0.2,0-0.3,0c-0.2,0-0.5-0.1-0.7-0.2c-0.1,0-0.2-0.1-0.2-0.1
		c-0.2,0.1-0.5,0.1-0.7,0.1c-0.1,0-0.2,0-0.3,0l-0.1,0c-0.2,0-0.5-0.1-0.7-0.3C86.6,46,86.4,46,86.2,46L86,46l-0.1,0
		c-0.1,0-0.2,0-0.2,0l-0.1,0l-0.1,0c-0.4-0.1-0.8-0.2-1.1-0.5c0,0-0.1,0-0.1,0.1c-0.3,0.1-0.6,0.2-0.9,0.2c-0.1,0-0.2,0-0.3,0
		c-0.7-0.1-1.4-0.6-1.7-1.3l-7-15.8c-0.4-0.9-0.2-2.1,0.6-2.7c0.5-0.4,1.2-0.5,1.8-0.4c0.7,0.2,1.2,0.7,1.5,1.3l4.4,9.9L80.2,17
		c-0.1-0.6,0.1-1.1,0.4-1.6c0.3-0.4,0.9-0.7,1.4-0.8c0.1,0,0.2,0,0.3,0c1.1,0,2,0.8,2.1,1.9l0.9,7.4l1-15.1c0.1-1.1,1-1.9,2.1-1.9
		l0.1,0c1.2,0.1,2.1,1.1,2,2.3l-1,15.5l1.9-9.4c0.2-1,1.1-1.7,2.1-1.7c0.1,0,0.3,0,0.4,0c1.1,0.2,1.9,1.4,1.7,2.5l-4.1,20.2L97,25.9
		c0.4-0.7,1.1-1.1,1.9-1.1c0.3,0,0.7,0.1,1,0.2c1,0.5,1.4,1.8,0.9,2.9l-9.1,17.5C91.3,46,90.6,46.5,89.8,46.5L89.8,46.5z"/>
	<path style="fill:#ED0B00;" d="M88.5,8.1C88.5,8.1,88.6,8.1,88.5,8.1c0.8,0.1,1.3,0.7,1.3,1.4l-1.9,28.4l4.4-22.1
		c0.1-0.6,0.7-1,1.2-1c0.1,0,0.2,0,0.3,0c0.7,0.1,1.1,0.8,1,1.5l-5.2,26.1l8.2-15.7c0.2-0.4,0.7-0.7,1.1-0.7c0.2,0,0.4,0,0.6,0.1
		c0.6,0.3,0.9,1.1,0.5,1.7l-9.1,17.5c-0.2,0.4-0.7,0.7-1.1,0.7c-0.1,0-0.1,0-0.2,0c-0.1,0-0.3-0.1-0.4-0.1c-0.2-0.1-0.4-0.3-0.5-0.4
		c-0.2,0.2-0.5,0.3-0.9,0.3c-0.1,0-0.1,0-0.2,0c0,0-0.1,0-0.1,0c-0.3-0.1-0.5-0.2-0.7-0.4c-0.2,0.1-0.5,0.2-0.7,0.2c0,0-0.1,0-0.1,0
		c0,0-0.1,0-0.1,0c-0.1,0-0.2,0-0.2-0.1c0,0-0.1,0-0.1,0c0,0,0,0-0.1,0c-0.5-0.1-1-0.5-1.1-1c-0.1,0.3-0.3,0.5-0.6,0.6
		c-0.2,0.1-0.3,0.1-0.5,0.1c-0.1,0-0.1,0-0.2,0c-0.4-0.1-0.8-0.3-1-0.8l-7-15.9c-0.3-0.6,0-1.4,0.7-1.7c0.2-0.1,0.3-0.1,0.5-0.1
		c0.5,0,1,0.3,1.2,0.8l6.8,15.4l-3.2-25.5c-0.1-0.7,0.4-1.3,1.1-1.4c0.1,0,0.1,0,0.2,0c0.6,0,1.2,0.5,1.3,1.1l2,16.2l1.6-23.8
		C87.3,8.6,87.9,8.1,88.5,8.1 M88.5,6.4C88.5,6.4,88.5,6.4,88.5,6.4c-1.6,0-2.9,1.2-3,2.8l-0.5,6.8c-0.5-1.1-1.5-1.8-2.7-1.8
		c-0.1,0-0.3,0-0.4,0c-0.8,0.1-1.5,0.5-2,1.1c-0.5,0.6-0.7,1.4-0.6,2.2l1.7,13.9l-2.1-4.7c-0.5-1.1-1.5-1.8-2.7-1.8
		c-0.4,0-0.8,0.1-1.2,0.3c-1.5,0.7-2.2,2.4-1.5,3.9l7,15.9c0.4,0.9,1.3,1.6,2.3,1.8c0.1,0,0.3,0,0.4,0c0.3,0,0.6,0,0.8-0.1
		c0.3,0.2,0.7,0.4,1.1,0.4c0.1,0,0.1,0,0.2,0c0.1,0,0.2,0,0.2,0c0.1,0,0.1,0,0.2,0c0.1,0,0.1,0,0.2,0c0.2,0,0.3,0,0.5,0
		c0.2,0.1,0.4,0.2,0.6,0.2c0.1,0,0.1,0,0.2,0c0.1,0,0.3,0,0.4,0c0.2,0,0.4,0,0.6-0.1c0.3,0.1,0.6,0.2,0.9,0.3c0.1,0,0.3,0,0.4,0
		c1.1,0,2.1-0.6,2.6-1.6l9.1-17.5c0.8-1.5,0.2-3.3-1.3-4c-0.4-0.2-0.9-0.3-1.4-0.3c-1.1,0-2.1,0.6-2.6,1.6l-2.6,5.1l2.9-14.3
		c0.3-1.6-0.7-3.2-2.3-3.5c-0.2,0-0.4-0.1-0.6-0.1c-1,0-1.8,0.5-2.4,1.2l0.3-4.7c0.1-1.6-1.1-3-2.8-3.2C88.7,6.4,88.6,6.4,88.5,6.4
		L88.5,6.4L88.5,6.4z"/>
</g>
<path style="fill:#E31600;" d="M74.2,176.9c-3-0.4-5.1-3-4.8-6l3.7-37.7c-0.4-0.2-0.8-0.3-1.1-0.4c-0.8-0.3-1.6-0.5-2.2-0.5
	c-0.1,0-0.2,0-0.3,0c-0.3,0-0.5,0-0.6,0l-0.1,0c0,0-0.2,0.1-0.3,0.1l-0.1,0c-0.1,0-0.2,0.1-0.3,0.1c-0.6,0.3-1.2,0.7-1.8,1.2
	c-1.1,0.9-1.7,2-2.2,2.8l-0.3,0.6c-0.8,1.4-1.5,2.8-2.4,3.9c-0.5,0.7-2.1,2.8-4.3,2.5c-1.8-0.3-3-1.9-3.3-4.3
	c-0.3-2.4,0.3-5.1,1.6-7.5c0.8-1.5,2.4-3.7,4.9-5.5c1.5-1.1,3.1-1.9,4.8-2.3c0.4-0.1,0.9-0.2,1.4-0.3l0.2,0c0.4-0.1,0.8-0.1,1.5-0.1
	c0.5,0,0.9,0,1.4,0.1c0.6,0.1,1.1,0.2,1.7,0.4c0.9,0.3,1.8,0.6,2.7,1.1l1-10.2c-0.7-0.1-1.4-0.2-2.1-0.3c-1-0.1-1.9-0.2-2.8-0.3
	c-1.2,0-2.2,0-3,0.1c-0.4,0.1-0.6,0.1-0.8,0.2l-0.1,0.1c-0.8,0.6-1.5,1.5-2.2,2.5c-1.1,1.8-2.1,3.2-3.1,4.3
	c-1.1,1.3-2.7,2.7-4.8,2.8c-0.2,0-0.4,0-0.7,0c-2-0.3-3.6-1.9-4.3-4.4c-0.6-2.3-0.5-6,1.7-9.5c1.1-1.8,3.1-4.4,6.4-6.3
	c2.8-1.6,5.4-1.8,7.1-1.8c0.7,0,1.4,0.1,2.2,0.2c1.2,0.2,2.3,0.4,3.6,0.8c1.3,0.4,2.6,0.9,3.8,1.6L77,93.7c-0.3-0.1-0.7-0.3-1-0.4
	c-0.3-0.1-0.7-0.3-1-0.5c-0.8-0.4-1.6-0.7-2.4-1.1c-0.5-0.2-1-0.4-1.5-0.5l-0.1,0c-0.2,0.1-0.4,0.1-0.5,0.1c0,0-0.1,0-0.2,0
	c-0.1,0-0.1,0-0.2,0.1l-0.1,0c-0.2,0.1-0.5,0.2-0.7,0.2c-0.5,0.2-0.9,0.5-1.1,0.7c-0.3,0.3-0.5,0.5-0.7,0.7
	c-0.3,0.4-0.4,0.6-0.5,0.8c-1.2,2-2.3,3.5-3.4,4.7c-1.8,1.8-3.7,2.7-5.6,2.4c-0.1,0-0.1,0-0.2,0c-2.2-0.4-3.9-2.1-4.6-4.7
	c-0.4-1.3-0.5-2.8-0.3-4.3c0.2-1.9,0.8-3.6,1.7-5.3c0.6-1,1.2-1.9,2-2.8c1-1.2,2.4-2.4,3.9-3.2c3.3-2,7.1-2.8,10.8-2.3
	c0.3,0,0.5,0.1,0.8,0.1c0.5,0.1,0.9,0.2,1.3,0.3c0.4,0.1,0.7,0.2,1,0.4l0.2,0.1c0.3,0.1,0.5,0.2,0.8,0.4l0.2,0.1
	c0.4,0.2,0.7,0.4,0.9,0.5c0.7,0.4,1.3,0.9,1.8,1.3l0.6-6.5l0,0c-1.1-1.3-2.5-3-4.2-4.5c-0.9-0.8-1.8-1.4-2.4-1.7
	c-0.4-0.2-0.8-0.3-1-0.4l-0.6,0.2l0,0c0,0-0.1,0-0.1,0l-0.3,0.1c-0.1,0-0.2,0.1-0.2,0.1l-0.1,0.1c-0.4,0.2-0.8,0.5-1,0.7
	c-1.1,0.9-2.1,2-2.9,3l-0.3,0.3c-0.9,1-1.9,2.2-3.4,2.3c-0.2,0-0.4,0-0.6,0c-1.5-0.2-3.1-1.7-3.2-4.7c0-1,0.1-2.6,0.9-4.3
	c0.7-1.6,1.8-3,3.1-4.2c0.6-0.5,1.7-1.3,3.1-2c0.4-0.2,0.7-0.3,1.1-0.5l0.1,0c0.3-0.1,0.7-0.3,1.2-0.3l0.2,0
	c0.3-0.1,0.7-0.2,1.2-0.2l0.2,0c0.3,0,0.8-0.1,1.3-0.1c0.3,0,0.8,0,1.2,0.1c2.2,0.3,3.9,1.3,5,2.1c1,0.7,2,1.5,2.9,2.6l1-9.7
	c-0.1,0-0.3-0.1-0.4-0.1c-0.7-0.2-1.4-0.5-2.2-0.7c-0.7-0.2-1.5-0.4-2.1-0.5l-0.2,0c-0.4-0.1-0.7-0.1-0.8,0l-0.1,0l-0.1,0
	c0,0-0.1,0-0.1,0c-0.1,0-0.2,0-0.3,0.1l-0.1,0c-0.2,0.1-0.4,0.1-0.6,0.2c-0.4,0.1-0.6,0.3-0.8,0.4l-0.1,0.1c-1.2,0.6-2.4,1-3.4,1.3
	c-1,0.2-1.7,0.3-2.4,0.2c-0.6-0.1-1.1-0.3-1.6-0.6c-1.5-0.9-2-2.8-1.3-4.9c0.6-2,2.3-3.8,4.5-4.9c0.5-0.2,1.3-0.6,2.2-0.9
	c0.5-0.1,1-0.3,1.5-0.4c0.3-0.1,0.6-0.1,0.9-0.1c0.3,0,0.6-0.1,1-0.1c0.5,0,1.1,0,1.6,0.1c1,0.1,1.9,0.4,2.6,0.6
	c1,0.4,2.1,0.9,3.2,1.5c0.4,0.2,0.8,0.5,1.1,0.7c1.1-1.2,2.8-1.8,4.5-1.7l0.1,0c1.4,0.2,2.6,0.9,3.5,1.9c1.1-0.7,2.5-1.4,4.4-2
	c1.1-0.3,2.6-0.6,4.3-0.4c0.4,0.1,0.8,0.1,1.2,0.3c0.6,0.1,1.2,0.4,1.7,0.7c0.5,0.2,0.9,0.5,1.2,0.8l0.3,0.2l0.1,0
	c0.4,0.3,0.6,0.6,0.9,0.9l0.1,0.1l0,0.1c0.2,0.3,0.5,0.6,0.7,0.9l0.1,0.1c1.4,2.3,1.9,4.1,2.2,5.2l0.1,0.3c0.5,2.2,0.6,4.3,0.1,6.1
	c-0.7,2.7-2.3,3.4-3.2,3.6c-0.4,0.1-0.7,0.1-1.1,0.1c-1.2-0.2-2.3-1-3.3-2.3c-1.1-1.6-1.8-3.6-2.1-5c-0.2-0.8-0.5-2.1-1-3
	c0-0.1-0.1-0.1-0.1-0.2c-0.2,0-0.4,0-0.6,0c-0.8,0-1.7,0.2-2.5,0.3c-0.8,0.1-1.7,0.3-2.4,0.3l-1.2,12.6c1.6-0.6,3.4-0.9,5.1-0.9
	c0.7,0,1.4,0,2.1,0.1c1.1,0.1,2.1,0.4,3.1,0.8c1.7,0.6,3.3,1.5,4.6,2.7c1.1,0.9,2.1,2.1,3,3.4c0.7,1.1,1.2,2.1,1.5,2.9
	c1.4,3.3,1,6.6,0.1,8.5c-1,2.2-2.6,3.4-4.3,3.2c-0.2,0-0.4-0.1-0.6-0.1c-1.7-0.6-2.3-2.3-2.8-3.6c-0.2-0.4-0.3-0.9-0.5-1.4
	c-0.3-0.9-0.7-1.9-1.1-2.9c-0.1-0.3-0.3-0.8-0.7-1.3c-0.3-0.5-0.7-1-1.1-1.5c-1-1-2.5-1.8-4.1-2.1c-0.2,0-0.4-0.1-0.6-0.1
	c-1.3-0.2-2.8-0.1-4.6,0.3c0,0,0,0,0,0l-1.4,14.3c0.5-0.3,1.1-0.6,1.6-0.8c2.3-1,4.9-1.4,7.5-1c1.6,0.2,3.2,0.7,4.6,1.4
	c2.2,1.1,3.7,2.7,4.3,3.6c1,1.3,1.6,2.6,1.9,3.4c0.6,1.6,0.9,3.3,0.9,5c0,1.3-0.2,2.6-0.6,3.8c-1.2,3.6-3.2,4-4,3.9
	c-0.1,0-0.2,0-0.3,0c-2.2-0.3-3.2-2.9-3.5-3.8c-0.3-0.8-0.6-1.7-0.8-2.6c-0.3-0.9-0.6-1.9-0.9-2.8c-0.1-0.3-0.3-0.8-0.6-1.1
	c-0.3-0.5-0.7-0.8-1.1-1.1c-0.6-0.4-1.4-0.7-2.2-0.8c-0.8-0.1-1.6-0.1-2.3,0.1c-1.9,0.4-3.6,1.7-4.7,2.7c-0.2,0.2-0.8,0.7-0.8,0.7
	l-1,10c0.8-0.3,1.6-0.6,2.4-0.8c1.5-0.4,3.2-0.4,4.7-0.2c0.7,0.1,1.4,0.2,2.1,0.5c2.1,0.6,4.1,1.9,5.7,3.6c1.2,1.2,2.1,2.7,2.9,4.3
	c0.6,1.3,1,2.4,1.2,3.3c0.4,1.5,0.7,3,0.7,4.6c0,1.3,0,2.5-0.2,3.6c-0.5,3.5-2,4.5-3.2,4.7c-0.3,0-0.6,0-0.8,0
	c-1.4-0.2-2.6-1.3-3.7-3.4c-0.9-1.8-1.6-4.1-2.2-6.4l-0.1-0.3c-0.2-0.8-0.8-2.6-1.9-3.9c-0.5-0.6-1-1.1-1.6-1.3
	c-0.4-0.2-0.8-0.3-1.2-0.3c-0.4,0-0.7-0.1-1.1,0c-1.4,0.1-3,0.7-4.7,1.8l-1.2,12.3c0.8,0,1.7,0,2.5,0.1c0.9,0.1,1.9,0.3,2.8,0.6
	c2.1,0.7,4.2,1.8,6,3.2c1.7,1.4,3.3,3.1,4.5,5c1.3,2.1,1.9,4.2,2.2,5.5c0.4,1.8,0.5,3.3,0.4,4.2c0,4.7-2.4,8.3-4.4,9.9
	c-1.6,1.2-3.3,1.8-4.8,1.6l0,0c-0.9-0.1-1.7-0.5-2.3-1.1c-1.5-1.5-1.6-3.7-1.7-5.3c-0.1-1.3,0-2.6,0-4l0-1.4c0-1.3-0.2-2.4-0.7-3.5
	c-0.4-0.8-0.8-1.5-1.4-2.1c-0.7-0.7-1.4-1.4-2.3-1.9c-0.6-0.3-1.2-0.7-2-0.9l-3.1,31.5c-0.3,3-3,5.3-6,5L74.2,176.9L74.2,176.9z"/>
<path style="fill:#4EB433;stroke:#FFD000;stroke-width:0.8507;stroke-miterlimit:10;" d="M100.8,145.1c-0.3-1.5-1-3.3-2-5
	c-1-1.7-2.4-3.3-4-4.6c-1.6-1.3-3.5-2.3-5.5-2.9c-1.9-0.6-3.9-0.8-5.7-0.6c-0.3,0-0.7,0.1-1,0.1l1.5-15.2c0,0,0.1-0.1,0.1-0.1
	c1.6-1.1,3.7-2.3,6-2.4c1.1-0.1,2.2,0.1,3.1,0.5c0.9,0.4,1.6,1,2.3,1.8c1.3,1.6,1.8,3.4,2.2,4.6c0.6,2.2,1.3,4.7,2.2,6.3
	c0.9,1.7,1.9,2.6,2.7,2.5c0.9-0.1,1.5-1.4,1.8-3.2c0.1-0.9,0.2-2,0.2-3.2c-0.1-1.2-0.2-2.6-0.7-4.1c-0.2-0.8-0.5-1.8-1.1-3
	c-0.6-1.2-1.4-2.6-2.7-3.9c-1.2-1.3-2.9-2.5-4.9-3.2c-2-0.6-4.1-0.6-5.9-0.2c-1.9,0.4-3.5,1.3-4.8,2.3c0,0,0,0,0,0l1.4-14
	c0.4-0.3,0.8-0.7,1.3-1.2c1.4-1.2,3.3-2.6,5.4-3c2.1-0.5,4.4-0.1,5.9,0.9c0.7,0.5,1.2,1,1.6,1.5c0.4,0.5,0.6,1.1,0.8,1.5
	c0.7,1.7,1.1,3.7,1.7,5.3c0.6,1.6,1.3,2.7,2.2,2.7c0.9,0,1.8-1,2.4-2.8c0.3-0.9,0.5-2,0.5-3.3c0-1.3-0.2-2.8-0.8-4.4
	c-0.3-0.8-0.8-1.9-1.7-3c-0.9-1.1-2.2-2.3-3.8-3.1c-3.1-1.7-7.3-1.8-10.6-0.3c-1.9,0.8-3.3,2-4.4,3.2l1.9-19.6
	c0.4-0.1,0.9-0.2,1.5-0.3c1.5-0.3,3.6-0.5,5.6-0.1c2,0.4,3.8,1.3,5,2.5c0.6,0.6,1.1,1.3,1.4,1.8c0.3,0.6,0.6,1.1,0.7,1.5
	c0.6,1.6,1.1,3.1,1.6,4.3c0.5,1.2,0.9,2.3,1.8,2.6c0.8,0.3,2-0.4,2.8-2.2c0.8-1.7,1-4.5-0.1-7.2c-0.3-0.7-0.7-1.6-1.3-2.5
	c-0.7-1-1.5-2-2.7-3c-1.1-1-2.6-1.8-4.1-2.4c-1.5-0.5-3.1-0.8-4.7-0.8c-2.9,0-5.5,1-7.1,2.2l1.7-17.2c0.3,0,0.7,0,1,0
	c1.6-0.1,3.6-0.5,5.3-0.7c0.8-0.1,1.6,0.1,1.8,0.3c0.1,0.1,0.1,0.1,0.2,0.2c0,0.1,0.1,0.2,0.2,0.2c0.1,0.1,0.1,0.2,0.2,0.4
	c0.5,1.1,0.9,2.6,1.1,3.4c0.4,1.7,1.1,3.3,1.8,4.4c0.8,1.2,1.8,1.8,2.6,1.6c0.9-0.2,1.5-1.1,1.9-2.4c0.4-1.3,0.4-3.2-0.1-5.2
	c-0.3-1-0.7-2.8-2.1-5.1c-0.2-0.3-0.4-0.6-0.6-0.9c-0.3-0.3-0.5-0.6-0.9-0.9c-0.4-0.3-0.7-0.6-1.2-0.8c-0.4-0.2-0.9-0.4-1.3-0.6
	c-1.9-0.5-3.4-0.2-4.6,0.1c-2.4,0.8-4.1,1.9-5.4,2.7c0,0,0,0-0.1,0c-0.5-1.3-1.6-2.4-3.1-2.6l-0.1,0c-1.8-0.2-3.3,0.9-3.9,2.4
	c-0.7-0.6-1.5-1.2-2.4-1.7c-0.9-0.5-1.8-1-2.9-1.4c-1.1-0.4-2.2-0.7-3.6-0.6c-0.4,0-0.6,0-0.9,0.1c-0.3,0-0.5,0.1-0.8,0.1
	c-0.5,0.1-0.9,0.2-1.4,0.3c-0.8,0.2-1.5,0.5-2,0.8c-1.9,0.9-3.2,2.5-3.6,3.9c-0.4,1.4-0.1,2.5,0.6,2.9c0.8,0.5,1.8,0.4,2.8,0.2
	c1-0.2,2-0.6,3.1-1.2c0.3-0.1,0.6-0.3,1.1-0.5c0.2-0.1,0.5-0.2,0.7-0.2c0.1,0,0.3-0.1,0.4-0.1c0.1,0,0.3-0.1,0.3-0.1
	c0.3-0.1,0.9-0.1,1.6,0c0.7,0.1,1.5,0.3,2.3,0.5c1.4,0.4,2.8,0.9,4,1.2L81.2,68c-0.5-0.8-1-1.6-1.7-2.4c-1-1.2-2-2.3-3.4-3.3
	c-1.4-0.9-3.1-1.8-5.3-1.9c-0.6,0-0.9,0.1-1.3,0.1c-0.4,0-0.8,0.1-1.2,0.2c-0.4,0.1-0.7,0.2-1.1,0.3c-0.3,0.1-0.7,0.2-1,0.4
	c-1.2,0.6-2.1,1.2-2.7,1.7c-1.2,1-2.1,2.3-2.7,3.5c-0.6,1.3-0.8,2.5-0.7,3.5c0.1,2.1,1.1,3.2,2,3.1c0.9-0.1,1.6-1,2.5-2
	c0.9-1,1.9-2.2,3.1-3.2c0.3-0.3,0.8-0.6,1.3-0.9c0.1-0.1,0.3-0.2,0.4-0.2c0.2-0.1,0.3-0.1,0.5-0.2c0.2,0,0.3-0.1,0.5-0.1
	c0.2,0,0.4-0.1,0.5-0.1c0.3-0.1,1.1,0.1,2,0.6c0.9,0.5,1.9,1.2,2.7,2c1.8,1.5,3.3,3.4,4.4,4.7c0.2,0.2,0.3,0.4,0.5,0.6l-1.1,10.8
	c-0.5-0.6-1.1-1.2-1.7-1.8c-0.7-0.6-1.4-1.3-2.4-1.9c-0.2-0.2-0.5-0.3-0.8-0.4c-0.3-0.1-0.5-0.3-0.9-0.4c-0.3-0.1-0.7-0.3-1-0.4
	c-0.4-0.1-0.7-0.2-1.1-0.3c-3.8-0.7-7.6,0.2-10.4,2c-1.4,0.8-2.6,1.9-3.5,2.9c-0.9,1-1.5,1.9-1.8,2.6c-0.9,1.6-1.4,3.2-1.5,4.6
	c-0.1,1.4,0,2.6,0.3,3.6c0.6,2,1.8,3.3,3.3,3.5c1.5,0.3,3-0.6,4.3-1.9c1.3-1.3,2.4-3,3.2-4.3c0.2-0.3,0.4-0.6,0.6-1
	c0.3-0.4,0.6-0.7,1-1c0.4-0.3,0.9-0.7,1.6-0.9c0.3-0.1,0.6-0.2,0.9-0.3c0.2,0,0.3-0.1,0.5-0.1c0.1,0,0.2,0,0.3,0c0.1,0,0.2,0,0.2,0
	c0.1,0,0.1-0.1,0.3-0.1c0.1,0,0.2,0,0.3,0c0.1,0,0.2,0,0.4,0.1c0.5,0.1,1.1,0.4,1.7,0.6c1.2,0.5,2.4,1.1,3.5,1.6
	c0.8,0.4,1.5,0.7,2.1,0.9l-1.5,14.9c-1.5-1.1-3.5-2.1-5.7-2.8c-1.6-0.5-3.4-0.8-5.3-0.9c-1.9,0-4.1,0.2-6.3,1.5
	c-3.1,1.8-5,4.3-5.8,5.8c-1.8,2.9-2.1,6.1-1.5,8.2c0.6,2.2,1.9,3.3,3.2,3.2c1.4,0,2.5-1,3.6-2.2c1.1-1.2,2-2.6,3-4.1
	c0.5-0.7,1.3-2,2.6-3c0-0.1,0.7-0.5,1.7-0.6c1-0.2,2.1-0.2,3.3-0.2c2.4,0.1,4.8,0.6,6.6,0.8c0,0,0,0,0.1,0l-1.4,14.6
	c-0.2-0.2-0.5-0.4-0.7-0.6c-1.1-0.7-2.3-1.4-3.8-1.9c-0.8-0.2-1.6-0.4-2.6-0.4c-0.6,0-0.9,0.1-1.4,0.1c-0.4,0.1-0.8,0.2-1.2,0.3
	c-1.6,0.4-3,1.2-4.2,2c-2.4,1.7-3.7,3.8-4.4,5c-1.3,2.4-1.6,4.8-1.4,6.5c0.2,1.7,0.9,2.7,1.8,2.9c0.9,0.1,1.8-0.6,2.7-1.8
	c0.9-1.2,1.7-2.8,2.6-4.4c0.4-0.8,1.2-2.1,2.5-3.2c0.6-0.6,1.4-1.1,2.2-1.4c0.2-0.1,0.4-0.2,0.6-0.2c0.2-0.1,0.4-0.1,0.5-0.1
	c0.3-0.1,0.7-0.1,1.1,0c0.9,0.1,1.9,0.3,2.9,0.7c0.9,0.3,1.7,0.6,2.4,1L71,171c-0.2,2.1,1.2,3.9,3.3,4.2l0.1,0
	c2.1,0.2,4-1.3,4.2-3.4l3.3-33.5c1.3,0.3,3,0.8,4.4,1.7c1,0.6,1.9,1.3,2.6,2.2c0.7,0.8,1.3,1.7,1.7,2.5c0.8,1.7,0.8,3.3,0.8,4.2
	c0,1.9-0.1,3.6,0,5.3c0.1,1.6,0.2,3.2,1.2,4.1c0.9,0.9,2.8,0.9,4.8-0.7c1.9-1.5,3.8-4.8,3.8-8.6C101.2,148,101.1,146.6,100.8,145.1z
	"/>
<g>
	<path style="fill:#1F4A24;" d="M75.4,172.7c-0.1,0-0.1,0-0.2,0.1c-0.1,0-0.3,0.1-0.4,0c-0.1-0.1-0.2-0.2-0.3-0.4
		c-0.2-0.6,0-1.2,0-1.8c0-0.4,0.1-0.8,0.1-1.2c0.1-0.6,0.1-1.2,0.2-1.7c0.1-0.8,0.1-1.5,0.2-2.3c0.1-0.9,0.2-1.8,0.3-2.7
		c0.1-1.1,0.2-2.1,0.3-3.2c0.1-1.2,0.2-2.4,0.3-3.6c0.1-1.3,0.2-2.6,0.4-3.9c0.1-1.4,0.3-2.9,0.4-4.3c0.1-1.5,0.3-3,0.4-4.6
		c0.2-1.6,0.3-3.2,0.5-4.8c0.2-1.7,0.3-3.3,0.5-5c0.2-1.7,0.3-3.5,0.5-5.2c0.2-1.8,0.3-3.5,0.5-5.3c0.2-1.8,0.3-3.6,0.5-5.4
		c0.2-1.8,0.3-3.6,0.5-5.5c0.2-1.8,0.3-3.6,0.5-5.5c0.2-1.8,0.3-3.6,0.5-5.4c0.2-1.8,0.3-3.6,0.5-5.4c0.2-1.8,0.3-3.5,0.5-5.3
		c0.2-1.7,0.3-3.4,0.5-5.1c0.2-1.6,0.3-3.3,0.5-4.9c0.1-1.6,0.3-3.1,0.4-4.7c0.1-1.5,0.3-3,0.4-4.5c0.1-1.4,0.3-2.8,0.4-4.2
		c0.1-1.3,0.2-2.5,0.4-3.8c0.1-1.1,0.2-2.3,0.3-3.4c0.1-1,0.2-2,0.3-3c0.1-0.9,0.2-1.7,0.2-2.6c0.1-0.7,0.1-1.4,0.2-2.1
		c0-0.5,0.1-1,0.1-1.5c0-0.3,0.1-0.6,0.1-0.9c0-0.1,0-0.2,0-0.3c0.2-1.4,0.9-2.5,1.8-2.5c0.4,0,0.7,0.2,0.9,0.5
		c0.4,0.5,0.6,1.4,0.5,2.3c0,0,0,0.1,0,0.1c0,0.2,0,0.5-0.1,0.7c0,0.5-0.1,0.9-0.1,1.4c-0.1,0.7-0.1,1.3-0.2,2
		c-0.1,0.8-0.2,1.7-0.2,2.5c-0.1,1-0.2,2-0.3,3c-0.1,1.2-0.2,2.3-0.3,3.5c-0.1,1.3-0.2,2.6-0.4,3.9c-0.1,1.4-0.3,2.8-0.4,4.3
		c-0.1,1.5-0.3,3.1-0.4,4.6c-0.2,1.6-0.3,3.2-0.5,4.9c-0.2,1.7-0.3,3.4-0.5,5.1c-0.2,1.8-0.3,3.5-0.5,5.3c-0.2,1.8-0.3,3.6-0.5,5.5
		c-0.2,1.9-0.3,3.7-0.5,5.6c-0.2,1.9-0.4,3.8-0.5,5.6c-0.2,1.9-0.4,3.8-0.5,5.7c-0.2,1.9-0.4,3.8-0.5,5.6c-0.2,1.9-0.3,3.7-0.5,5.6
		c-0.2,1.8-0.3,3.7-0.5,5.5c-0.2,1.8-0.3,3.6-0.5,5.3c-0.2,1.7-0.3,3.4-0.5,5.1c-0.2,1.6-0.3,3.3-0.5,4.9c-0.1,1.5-0.3,3.1-0.4,4.6
		c-0.1,1.4-0.3,2.9-0.4,4.3c-0.1,1.3-0.2,2.6-0.4,3.9c-0.1,1.2-0.2,2.3-0.3,3.5c-0.1,1-0.2,2-0.3,3.1c-0.1,0.9-0.2,1.7-0.2,2.6
		c-0.1,0.7-0.1,1.3-0.2,2c0,0.3,0,0.5-0.1,0.8c0,0.1,0,0.2,0,0.3c0,0.2,0,0.4-0.1,0.5c-0.1,0.1-0.3,0.3-0.4,0.3c0,0-0.4,0.1-0.4,0.1
		C76.7,171.9,76.1,172.5,75.4,172.7z"/>
	<path style="fill:#148C26;" d="M87.8,46.9c0,0-0.4,0-0.4,0c0.6,0,1,1,0.9,2.2L76.8,171c-0.1,0.6-1.1,1.1-2,1.4
		c-0.2-0.4-0.2-0.9-0.2-1.5L86,49c0.1-1.1,0.7-2,1.3-2 M75.4,173.5C75.4,173.5,75.4,173.5,75.4,173.5
		C75.4,173.5,75.4,173.5,75.4,173.5C75.4,173.5,75.4,173.5,75.4,173.5 M87.3,46.9c-1.2-0.5-2.1,0.7-2.3,2.4c0,0.1,0,0.2,0,0.3
		c0,0.3-0.1,0.6-0.1,0.9c0,0.5-0.1,1-0.1,1.5c-0.1,0.7-0.1,1.3-0.2,2c-0.1,0.8-0.2,1.7-0.2,2.5c-0.1,1-0.2,1.9-0.3,2.9
		c-0.1,1.1-0.2,2.2-0.3,3.3c-0.1,1.2-0.2,2.5-0.3,3.7c-0.1,1.3-0.3,2.7-0.4,4c-0.1,1.4-0.3,2.9-0.4,4.3c-0.1,1.5-0.3,3.1-0.4,4.6
		c-0.2,1.6-0.3,3.2-0.5,4.8c-0.2,1.7-0.3,3.3-0.5,5c-0.2,1.7-0.3,3.4-0.5,5.2c-0.2,1.8-0.3,3.5-0.5,5.3c-0.2,1.8-0.3,3.6-0.5,5.3
		c-0.2,1.8-0.3,3.6-0.5,5.4c-0.2,1.8-0.3,3.6-0.5,5.4c-0.2,1.8-0.3,3.6-0.5,5.3c-0.2,1.8-0.3,3.5-0.5,5.3c-0.2,1.7-0.3,3.4-0.5,5.2
		c-0.2,1.7-0.3,3.3-0.5,5c-0.2,1.6-0.3,3.2-0.5,4.8c-0.1,1.5-0.3,3.1-0.4,4.6c-0.1,1.4-0.3,2.9-0.4,4.3c-0.1,1.3-0.3,2.7-0.4,4
		c-0.1,1.2-0.2,2.5-0.3,3.7c-0.1,1.1-0.2,2.2-0.3,3.3c-0.1,1-0.2,1.9-0.3,2.9c-0.1,0.8-0.2,1.6-0.2,2.4c-0.1,0.7-0.1,1.3-0.2,2
		c0,0.5-0.1,1-0.1,1.4c0,0.3-0.1,0.6-0.1,0.9c0,0.5-0.1,1,0,1.5c0.1,0.5,0.5,0.8,0.9,1c1.2,0.5,3.1-0.4,3.2-1.8
		c0,0,11.4-121.9,11.4-121.9c0.1-1-0.1-2-0.6-2.6c-0.3-0.4-0.7-0.6-1.2-0.6l0-0.5L87.3,46.9z"/>
</g>
<g>
	<path style="fill:#FFD000;" d="M33.1,40.4c-0.1,0-0.2,0-0.2,0c-0.2,0-0.4-0.1-0.6-0.2c-0.1,0-0.1-0.1-0.2-0.1
		c-0.2,0.1-0.4,0.1-0.6,0.1c-0.1,0-0.2,0-0.2,0l-0.1,0c-0.2,0-0.4-0.1-0.6-0.2c-0.2,0-0.3,0.1-0.5,0.1l-0.1,0l-0.1,0
		c-0.1,0-0.1,0-0.2,0h-0.1l-0.1,0c-0.4,0-0.7-0.2-1-0.4c0,0-0.1,0-0.1,0c-0.2,0.1-0.5,0.2-0.7,0.2c-0.1,0-0.2,0-0.2,0
		c-0.6-0.1-1.2-0.5-1.4-1.1l-6-13.5c-0.4-0.9,0-2,0.9-2.4c0.2-0.1,0.5-0.2,0.7-0.2c0.7,0,1.4,0.4,1.7,1.1l3.7,8.5L25,15.4
		c-0.1-1,0.6-1.9,1.6-2c0.1,0,0.2,0,0.2,0c0.9,0,1.7,0.7,1.8,1.6l0.8,6.3l0.9-12.8c0.1-0.9,0.9-1.7,1.8-1.7l0.1,0
		c1,0.1,1.7,0.9,1.7,1.9L33,21.9l1.6-8c0.2-0.8,0.9-1.5,1.8-1.5c0.1,0,0.2,0,0.4,0c1,0.2,1.6,1.1,1.4,2.1l-3.4,17.1l4.6-8.8
		c0.3-0.6,0.9-1,1.6-1c0.3,0,0.6,0.1,0.8,0.2c0.9,0.5,1.2,1.6,0.8,2.4l-7.7,14.9C34.4,40,33.8,40.4,33.1,40.4L33.1,40.4z"/>
	<path style="fill:#ED0B00;" d="M32.1,7.2C32.1,7.2,32.1,7.2,32.1,7.2c0.7,0,1.1,0.6,1.1,1.2l-1.6,24.1l3.8-18.8
		c0.1-0.5,0.6-0.9,1.1-0.9c0.1,0,0.1,0,0.2,0c0.6,0.1,1,0.7,0.8,1.3L33,36.2l7-13.4c0.2-0.4,0.6-0.6,1-0.6c0.2,0,0.3,0,0.5,0.1
		c0.5,0.3,0.7,0.9,0.5,1.5l-7.7,14.9c-0.2,0.4-0.6,0.6-1,0.6c0,0-0.1,0-0.1,0c-0.1,0-0.2-0.1-0.4-0.1c-0.2-0.1-0.3-0.2-0.4-0.4
		c-0.2,0.2-0.5,0.3-0.7,0.3c0,0-0.1,0-0.1,0c0,0,0,0-0.1,0c-0.2,0-0.5-0.2-0.6-0.4c-0.2,0.1-0.4,0.2-0.6,0.2c0,0,0,0-0.1,0
		c0,0,0,0-0.1,0c-0.1,0-0.1,0-0.2,0c0,0-0.1,0-0.1,0c0,0,0,0-0.1,0c-0.4-0.1-0.8-0.4-0.9-0.9c-0.1,0.2-0.3,0.4-0.5,0.5
		c-0.1,0.1-0.3,0.1-0.4,0.1c0,0-0.1,0-0.1,0c-0.4,0-0.7-0.3-0.9-0.6l-6-13.5c-0.2-0.5,0-1.2,0.6-1.4c0.1-0.1,0.3-0.1,0.4-0.1
		c0.4,0,0.8,0.2,1,0.6l5.7,13.1l-2.7-21.7c-0.1-0.6,0.3-1.1,0.9-1.2c0,0,0.1,0,0.1,0c0.5,0,1,0.4,1.1,0.9l1.7,13.8L31,8.2
		C31,7.6,31.5,7.2,32.1,7.2 M32.1,5.7C32.1,5.7,32.1,5.7,32.1,5.7c-1.3,0-2.4,1-2.5,2.4l-0.4,5.7c-0.4-0.9-1.3-1.6-2.3-1.6
		c-0.1,0-0.2,0-0.3,0c-0.7,0.1-1.3,0.4-1.7,1c-0.4,0.5-0.6,1.2-0.5,1.9l1.5,11.8L24,23c-0.4-0.9-1.3-1.5-2.3-1.5
		c-0.4,0-0.7,0.1-1,0.2c-1.3,0.6-1.9,2.1-1.3,3.3l6,13.5c0.4,0.8,1.1,1.4,2,1.5c0.1,0,0.2,0,0.3,0c0.2,0,0.5,0,0.7-0.1
		c0.3,0.2,0.6,0.3,1,0.3c0.1,0,0.1,0,0.2,0c0.1,0,0.1,0,0.2,0c0.1,0,0.1,0,0.2,0c0.1,0,0.1,0,0.2,0c0.1,0,0.3,0,0.4,0
		c0.2,0.1,0.3,0.1,0.5,0.2c0.1,0,0.1,0,0.2,0c0.1,0,0.2,0,0.3,0c0.2,0,0.3,0,0.5-0.1c0.3,0.1,0.5,0.2,0.8,0.2c0.1,0,0.2,0,0.3,0
		c0.9,0,1.8-0.5,2.2-1.4l7.7-14.9c0.6-1.2,0.2-2.8-1.1-3.4c-0.4-0.2-0.8-0.3-1.2-0.3c-0.9,0-1.8,0.5-2.2,1.4l-2.2,4.3l2.4-12.1
		c0.3-1.4-0.6-2.7-2-3c-0.2,0-0.3-0.1-0.5-0.1c-0.8,0-1.6,0.4-2,1l0.3-4c0.1-1.4-1-2.6-2.3-2.7C32.2,5.7,32.1,5.7,32.1,5.7L32.1,5.7
		L32.1,5.7z"/>
</g>
<path style="fill:#E31600;" d="M19.5,150.6c-2.5-0.3-4.3-2.6-4.1-5.1l3.2-32c-0.3-0.1-0.6-0.3-1-0.4c-0.7-0.2-1.3-0.4-1.9-0.5
	c-0.1,0-0.2,0-0.2,0c-0.3,0-0.4,0-0.5,0l-0.1,0c0,0-0.2,0-0.3,0.1l-0.1,0c-0.1,0-0.2,0.1-0.3,0.1c-0.5,0.2-1,0.6-1.5,1
	c-0.9,0.8-1.5,1.7-1.8,2.3l-0.3,0.5c-0.6,1.2-1.3,2.4-2,3.3c-0.4,0.6-1.7,2.4-3.6,2.2c-1.5-0.2-2.5-1.6-2.8-3.7
	c-0.3-2,0.2-4.4,1.3-6.4c0.7-1.3,2-3.2,4.1-4.7c1.3-0.9,2.6-1.6,4-2c0.4-0.1,0.8-0.2,1.2-0.3l0.2,0c0.3,0,0.7-0.1,1.2-0.1
	c0.4,0,0.8,0,1.2,0.1c0.5,0.1,1,0.2,1.5,0.3c0.8,0.2,1.5,0.6,2.3,0.9l0.9-8.7c-0.6-0.1-1.2-0.2-1.8-0.3c-0.9-0.1-1.6-0.2-2.3-0.2
	c-1,0-1.9,0-2.5,0.1c-0.3,0-0.5,0.1-0.6,0.2l-0.1,0.1c-0.7,0.5-1.3,1.2-1.8,2.2c-1,1.6-1.8,2.7-2.7,3.7c-1,1.1-2.3,2.3-4.1,2.4
	c-0.2,0-0.4,0-0.6,0c-1.7-0.2-3-1.6-3.6-3.8c-0.5-1.9-0.5-5.1,1.4-8.1c0.9-1.5,2.7-3.7,5.4-5.4c2.3-1.4,4.6-1.5,6.1-1.5
	c0.6,0,1.2,0.1,1.8,0.1c1,0.1,2,0.4,3,0.7c1.1,0.3,2.2,0.8,3.2,1.3l0.9-9.3c-0.3-0.1-0.6-0.2-0.8-0.4c-0.3-0.1-0.6-0.3-0.9-0.4
	c-0.7-0.3-1.4-0.6-2.1-0.9c-0.4-0.2-0.9-0.4-1.2-0.4l-0.1,0c-0.2,0-0.3,0.1-0.4,0.1c0,0-0.1,0-0.1,0c-0.1,0-0.1,0-0.2,0l-0.1,0
	c-0.2,0-0.4,0.1-0.6,0.2c-0.4,0.2-0.8,0.4-1,0.6c-0.3,0.2-0.4,0.4-0.6,0.6c-0.2,0.3-0.4,0.6-0.4,0.7c-1,1.7-2,3-2.9,4
	C9,85.5,7.4,86.2,5.8,86c-0.1,0-0.1,0-0.2,0c-1.8-0.3-3.3-1.8-3.9-4c-0.3-1.1-0.4-2.4-0.3-3.7c0.2-1.6,0.7-3.1,1.5-4.5
	c0.5-0.8,1.1-1.6,1.7-2.4c0.9-1,2.1-2,3.3-2.7c2.8-1.7,6-2.4,9.2-2c0.2,0,0.4,0.1,0.7,0.1c0.4,0.1,0.7,0.2,1.1,0.3
	c0.3,0.1,0.6,0.2,0.9,0.3l0.2,0.1c0.3,0.1,0.5,0.2,0.7,0.3l0.2,0.1c0.3,0.2,0.6,0.3,0.8,0.5c0.6,0.4,1.1,0.8,1.5,1.1l0.5-5.5l0,0
	c-0.9-1.1-2.1-2.6-3.6-3.8c-0.8-0.7-1.5-1.2-2-1.5c-0.4-0.2-0.7-0.3-0.8-0.3l-0.5,0.1l0,0c0,0-0.1,0-0.1,0l-0.2,0.1
	c-0.1,0-0.2,0.1-0.2,0.1l-0.1,0c-0.4,0.2-0.7,0.4-0.9,0.6c-1,0.8-1.7,1.7-2.4,2.5l-0.2,0.3c-0.8,0.9-1.6,1.9-2.9,2
	c-0.1,0-0.3,0-0.5,0c-1.3-0.2-2.6-1.5-2.7-4c0-0.9,0.1-2.2,0.7-3.7c0.6-1.3,1.5-2.6,2.7-3.5c0.6-0.5,1.4-1.1,2.6-1.7
	c0.3-0.1,0.6-0.3,1-0.4l0.1,0c0.3-0.1,0.6-0.2,1-0.3l0.2,0c0.3-0.1,0.6-0.1,1-0.2l0.2,0c0.3,0,0.6-0.1,1.1-0.1c0.3,0,0.6,0,1,0.1
	c1.9,0.3,3.4,1.1,4.3,1.8c0.9,0.6,1.7,1.3,2.5,2.2l0.8-8.3c-0.1,0-0.2-0.1-0.4-0.1c-0.6-0.2-1.2-0.4-1.8-0.6
	c-0.6-0.2-1.2-0.3-1.8-0.4l-0.2,0c-0.3,0-0.6,0-0.7,0l-0.1,0l-0.1,0c0,0-0.1,0-0.1,0c-0.1,0-0.2,0-0.2,0.1l-0.1,0
	c-0.2,0-0.3,0.1-0.5,0.2c-0.3,0.1-0.5,0.2-0.7,0.3l-0.1,0.1c-1,0.5-2,0.9-2.9,1.1c-0.8,0.2-1.5,0.2-2.1,0.2c-0.5-0.1-1-0.2-1.4-0.5
	c-1.2-0.8-1.7-2.4-1.1-4.1c0.5-1.7,2-3.3,3.8-4.2c0.4-0.2,1.1-0.5,1.9-0.7c0.4-0.1,0.9-0.2,1.3-0.3c0.2,0,0.5-0.1,0.7-0.1
	c0.3,0,0.5-0.1,0.9-0.1c0.5,0,0.9,0,1.4,0.1c0.9,0.1,1.6,0.3,2.2,0.5c0.9,0.3,1.8,0.7,2.7,1.3c0.3,0.2,0.7,0.4,1,0.6
	c1-1,2.4-1.6,3.8-1.4l0.1,0c1.2,0.2,2.2,0.7,3,1.6c0.9-0.6,2.2-1.2,3.7-1.7c1-0.3,2.2-0.5,3.7-0.4c0.4,0,0.7,0.1,1.1,0.2
	c0.5,0.1,1,0.4,1.4,0.6c0.4,0.2,0.7,0.5,1,0.7L45,39l0,0c0.3,0.3,0.5,0.5,0.8,0.8l0.1,0.1l0,0c0.2,0.3,0.4,0.5,0.6,0.8l0,0.1
	c1.2,1.9,1.6,3.5,1.9,4.4l0.1,0.3c0.5,1.9,0.5,3.7,0.1,5.2c-0.6,2.3-1.9,2.9-2.7,3.1c-0.3,0.1-0.6,0.1-1,0c-1-0.1-2-0.8-2.8-2
	c-0.9-1.4-1.5-3.1-1.8-4.2C40.3,47,40,45.8,39.6,45c0-0.1-0.1-0.1-0.1-0.2c-0.2,0-0.3,0-0.5,0c-0.7,0-1.4,0.2-2.1,0.3
	c-0.7,0.1-1.4,0.2-2.1,0.3l-1.1,10.7c1.4-0.5,2.9-0.8,4.3-0.8c0.6,0,1.2,0,1.8,0.1c0.9,0.1,1.8,0.3,2.7,0.6c1.4,0.5,2.8,1.3,3.9,2.3
	c0.9,0.8,1.8,1.8,2.5,2.8c0.6,0.9,1,1.7,1.3,2.5c1.2,2.8,0.8,5.6,0.1,7.2c-0.8,1.9-2.2,2.9-3.7,2.7c-0.2,0-0.3-0.1-0.5-0.1
	c-1.4-0.5-2-2-2.4-3.1c-0.1-0.4-0.3-0.8-0.4-1.2c-0.3-0.8-0.6-1.6-0.9-2.5c-0.1-0.3-0.3-0.7-0.6-1.1c-0.3-0.5-0.6-0.9-1-1.2
	c-0.8-0.9-2.1-1.5-3.4-1.8c-0.2,0-0.4-0.1-0.5-0.1c-1.1-0.1-2.4-0.1-3.9,0.2c0,0,0,0,0,0l-1.2,12.1c0.4-0.3,0.9-0.5,1.4-0.7
	c1.9-0.9,4.2-1.2,6.4-0.9c1.4,0.2,2.7,0.6,3.9,1.2c1.9,0.9,3.1,2.3,3.7,3.1c0.9,1.1,1.3,2.2,1.6,2.9c0.5,1.4,0.8,2.8,0.8,4.3
	c0,1.1-0.2,2.2-0.5,3.2c-1,3.1-2.7,3.4-3.4,3.3c-0.1,0-0.2,0-0.2,0c-1.9-0.2-2.7-2.5-3-3.2c-0.3-0.7-0.5-1.4-0.7-2.2
	c-0.2-0.8-0.5-1.6-0.8-2.3c-0.1-0.3-0.3-0.6-0.5-1c-0.3-0.4-0.6-0.7-0.9-0.9c-0.5-0.3-1.2-0.6-1.9-0.7c-0.7-0.1-1.4-0.1-2,0.1
	c-1.6,0.4-3.1,1.4-4,2.3c-0.2,0.2-0.6,0.6-0.7,0.6l-0.8,8.5c0.7-0.3,1.3-0.5,2-0.7c1.3-0.3,2.7-0.4,4-0.2c0.6,0.1,1.2,0.2,1.8,0.4
	c1.8,0.5,3.5,1.6,4.8,3.1c1,1.1,1.8,2.3,2.5,3.7c0.5,1.1,0.8,2.1,1,2.8c0.4,1.3,0.6,2.5,0.6,3.9c0,1.1,0,2.1-0.2,3
	c-0.5,3-1.7,3.8-2.7,4c-0.2,0-0.5,0-0.7,0c-1.2-0.2-2.2-1.1-3.1-2.9c-0.8-1.5-1.4-3.5-1.9-5.4l-0.1-0.2c-0.2-0.7-0.6-2.2-1.6-3.4
	c-0.4-0.5-0.9-0.9-1.4-1.1C35,99.1,34.6,99,34.2,99c-0.3,0-0.6,0-0.9,0c-1.2,0.1-2.5,0.6-4,1.5l-1,10.5c0.7,0,1.4,0,2.2,0.1
	c0.8,0.1,1.6,0.3,2.4,0.5c1.8,0.6,3.6,1.5,5.1,2.7c1.5,1.2,2.8,2.6,3.8,4.3c1.1,1.8,1.6,3.6,1.9,4.7c0.3,1.6,0.4,2.8,0.4,3.6
	c0,4-2,7.1-3.8,8.4c-1.3,1.1-2.8,1.6-4.1,1.4l0,0c-0.8-0.1-1.4-0.4-1.9-0.9c-1.3-1.2-1.3-3.1-1.4-4.5c0-1.1,0-2.2,0-3.4l0-1.2
	c0-1.1-0.2-2.1-0.6-2.9c-0.3-0.7-0.7-1.3-1.2-1.8c-0.6-0.6-1.2-1.2-1.9-1.6c-0.5-0.3-1.1-0.6-1.7-0.8l-2.7,26.9
	c-0.3,2.6-2.6,4.4-5.1,4.1L19.5,150.6L19.5,150.6z"/>
<path style="fill:#4EB433;stroke:#FFD000;stroke-width:0.7228;stroke-miterlimit:10;" d="M42.5,123.6c-0.3-1.3-0.8-2.8-1.7-4.3
	c-0.9-1.4-2-2.8-3.4-3.9c-1.4-1.1-3-1.9-4.6-2.4c-1.6-0.5-3.3-0.7-4.9-0.5c-0.3,0-0.6,0.1-0.9,0.1l1.3-12.9c0,0,0.1-0.1,0.1-0.1
	c1.3-0.9,3.2-2,5.1-2.1c1-0.1,1.9,0.1,2.7,0.4c0.7,0.3,1.4,0.9,1.9,1.5c1.1,1.3,1.6,2.9,1.8,3.9c0.5,1.9,1.1,4,1.9,5.4
	c0.7,1.4,1.6,2.2,2.3,2.1c0.8-0.1,1.3-1.2,1.5-2.7c0.1-0.8,0.2-1.7,0.1-2.8c0-1-0.2-2.2-0.6-3.5c-0.2-0.6-0.5-1.5-1-2.6
	c-0.5-1-1.2-2.2-2.3-3.3c-1-1.1-2.5-2.2-4.2-2.7c-1.7-0.5-3.5-0.5-5-0.2c-1.6,0.4-3,1.1-4,1.9c0,0,0,0,0,0l1.2-11.9
	c0.3-0.3,0.7-0.6,1.1-1c1.2-1,2.8-2.2,4.6-2.6c1.7-0.4,3.7-0.1,5,0.7c0.6,0.4,1,0.8,1.4,1.3c0.3,0.5,0.5,0.9,0.7,1.3
	c0.6,1.4,1,3.2,1.5,4.5c0.5,1.4,1.1,2.3,1.9,2.3c0.8,0,1.5-0.8,2-2.3c0.2-0.8,0.4-1.7,0.4-2.8c0-1.1-0.1-2.4-0.7-3.7
	c-0.3-0.7-0.7-1.6-1.4-2.5c-0.7-1-1.9-2-3.2-2.7c-2.7-1.4-6.2-1.6-9-0.3c-1.6,0.7-2.8,1.7-3.8,2.7L32,61.5c0.4-0.1,0.8-0.2,1.3-0.3
	c1.3-0.2,3-0.5,4.7-0.1c1.7,0.3,3.2,1.1,4.2,2.2c0.5,0.5,0.9,1.1,1.2,1.6c0.3,0.5,0.5,1,0.6,1.3c0.6,1.3,1,2.6,1.3,3.7
	c0.4,1.1,0.8,2,1.5,2.2c0.7,0.2,1.7-0.3,2.4-1.8c0.7-1.5,0.8-3.8-0.1-6.1C49,63.6,48.6,62.8,48,62c-0.6-0.8-1.3-1.7-2.3-2.6
	c-1-0.8-2.2-1.5-3.5-2c-1.3-0.5-2.7-0.7-4-0.7c-2.5,0-4.6,0.9-6,1.9L33.8,44c0.3,0,0.6,0,0.9,0c1.3-0.1,3.1-0.5,4.5-0.6
	c0.7-0.1,1.3,0.1,1.5,0.2c0.1,0.1,0.1,0.1,0.2,0.2c0,0.1,0.1,0.1,0.1,0.2c0.1,0.1,0.1,0.2,0.2,0.3c0.5,1,0.8,2.2,1,2.9
	c0.4,1.4,0.9,2.8,1.6,3.8c0.7,1,1.5,1.5,2.2,1.4c0.7-0.2,1.3-0.9,1.6-2c0.3-1.1,0.4-2.7-0.1-4.4c-0.2-0.9-0.6-2.4-1.8-4.3
	c-0.2-0.2-0.4-0.5-0.5-0.7c-0.2-0.3-0.5-0.5-0.7-0.8c-0.3-0.2-0.6-0.5-1-0.7c-0.4-0.2-0.8-0.4-1.1-0.5c-1.6-0.4-2.9-0.2-3.9,0.1
	c-2.1,0.7-3.5,1.6-4.6,2.3c0,0,0,0-0.1,0c-0.4-1.1-1.4-2-2.7-2.2l-0.1,0c-1.5-0.1-2.8,0.7-3.3,2.1c-0.6-0.5-1.3-1-2-1.5
	c-0.7-0.4-1.6-0.9-2.5-1.2c-0.9-0.3-1.9-0.6-3.1-0.5c-0.3,0-0.5,0-0.8,0.1c-0.2,0-0.4,0.1-0.6,0.1c-0.4,0.1-0.8,0.2-1.1,0.3
	c-0.7,0.2-1.3,0.5-1.7,0.7c-1.6,0.8-2.7,2.1-3.1,3.3c-0.4,1.2-0.1,2.1,0.5,2.5c0.6,0.4,1.5,0.3,2.3,0.1c0.9-0.2,1.7-0.5,2.6-1
	c0.2-0.1,0.5-0.3,0.9-0.4c0.2-0.1,0.4-0.1,0.6-0.2c0.1,0,0.2-0.1,0.3-0.1c0.1,0,0.2-0.1,0.3-0.1c0.2-0.1,0.8-0.1,1.4,0
	c0.6,0.1,1.3,0.3,1.9,0.4c1.2,0.3,2.4,0.8,3.4,1l-1.3,13.2c-0.4-0.7-0.9-1.4-1.4-2.1c-0.8-1-1.7-2-2.9-2.8c-1.2-0.8-2.6-1.6-4.5-1.6
	c-0.5,0-0.8,0-1.1,0.1c-0.3,0-0.7,0.1-1,0.2c-0.3,0.1-0.6,0.2-0.9,0.3c-0.3,0.1-0.6,0.2-0.8,0.3c-1,0.5-1.8,1-2.3,1.5
	c-1,0.9-1.8,1.9-2.3,3c-0.5,1.1-0.6,2.1-0.6,3c0.1,1.8,0.9,2.7,1.7,2.6c0.8-0.1,1.4-0.8,2.1-1.7c0.7-0.9,1.6-1.8,2.7-2.7
	c0.3-0.2,0.6-0.5,1.1-0.8c0.1-0.1,0.2-0.1,0.4-0.2c0.1-0.1,0.3-0.1,0.4-0.2c0.1,0,0.3-0.1,0.4-0.1c0.1,0,0.4-0.1,0.4-0.1
	c0.2-0.1,0.9,0.1,1.7,0.5c0.8,0.4,1.6,1,2.3,1.7c1.5,1.3,2.8,2.9,3.7,4c0.1,0.2,0.3,0.3,0.4,0.5l-0.9,9.2c-0.4-0.5-0.9-1-1.5-1.6
	c-0.6-0.5-1.2-1.1-2-1.6c-0.2-0.1-0.4-0.3-0.6-0.4c-0.2-0.1-0.4-0.2-0.7-0.4c-0.3-0.1-0.6-0.2-0.9-0.3c-0.3-0.1-0.6-0.2-1-0.2
	c-3.3-0.6-6.4,0.2-8.8,1.7c-1.2,0.7-2.2,1.6-2.9,2.5c-0.7,0.8-1.2,1.6-1.6,2.2c-0.8,1.4-1.2,2.7-1.3,3.9c-0.1,1.2,0,2.2,0.2,3.1
	c0.5,1.7,1.5,2.8,2.8,3c1.3,0.2,2.6-0.5,3.7-1.6c1.1-1.1,2-2.6,2.7-3.7c0.1-0.2,0.3-0.5,0.5-0.8c0.2-0.3,0.5-0.6,0.8-0.9
	c0.4-0.3,0.8-0.6,1.3-0.8c0.3-0.1,0.5-0.2,0.8-0.3c0.1,0,0.3-0.1,0.4-0.1c0.1,0,0.1,0,0.2,0c0.1,0,0.1,0,0.2,0
	c0.1,0,0.1-0.1,0.2-0.1c0.1,0,0.2,0,0.3,0c0.1,0,0.2,0,0.3,0.1c0.4,0.1,1,0.3,1.5,0.5c1,0.4,2,0.9,3,1.3c0.7,0.3,1.3,0.6,1.8,0.7
	l-1.2,12.6c-1.3-0.9-2.9-1.8-4.8-2.4c-1.4-0.4-2.9-0.7-4.5-0.8c-1.6,0-3.5,0.2-5.3,1.3c-2.7,1.6-4.2,3.7-5,4.9
	c-1.5,2.5-1.7,5.2-1.2,7c0.5,1.8,1.6,2.8,2.7,2.7c1.2,0,2.1-0.9,3-1.9c0.9-1,1.7-2.2,2.5-3.5c0.4-0.6,1.1-1.7,2.2-2.6
	c0-0.1,0.6-0.4,1.4-0.5c0.8-0.1,1.8-0.2,2.8-0.1c2,0.1,4.1,0.5,5.6,0.7c0,0,0,0,0.1,0l-1.2,12.4c-0.2-0.2-0.4-0.3-0.6-0.5
	c-0.9-0.6-2-1.2-3.3-1.6c-0.6-0.2-1.4-0.3-2.2-0.3c-0.5,0-0.8,0.1-1.2,0.1c-0.3,0.1-0.7,0.1-1,0.2c-1.4,0.4-2.6,1-3.6,1.7
	c-2,1.5-3.2,3.2-3.7,4.2c-1.1,2-1.4,4.1-1.2,5.5c0.2,1.4,0.8,2.3,1.5,2.4c0.8,0.1,1.5-0.6,2.3-1.6c0.7-1,1.5-2.4,2.2-3.7
	c0.4-0.7,1-1.8,2.1-2.7c0.5-0.5,1.2-0.9,1.9-1.2c0.2-0.1,0.3-0.1,0.5-0.2c0.2-0.1,0.4-0.1,0.4-0.1c0.2-0.1,0.6-0.1,1,0
	c0.8,0.1,1.7,0.3,2.4,0.6c0.8,0.3,1.5,0.6,2,0.8l-3.3,33.1c-0.2,1.8,1.1,3.3,2.8,3.5l0.1,0c1.8,0.2,3.4-1.1,3.6-2.9l2.8-28.5
	c1.1,0.2,2.5,0.7,3.7,1.4c0.8,0.5,1.6,1.1,2.2,1.8c0.6,0.7,1.1,1.5,1.4,2.2c0.6,1.4,0.7,2.8,0.7,3.6c0,1.6-0.1,3.1,0,4.5
	c0.1,1.4,0.2,2.7,1,3.5c0.8,0.8,2.4,0.8,4.1-0.6c1.7-1.3,3.2-4,3.2-7.3C42.8,126,42.8,124.9,42.5,123.6z"/>
<g>
	<path style="fill:#1F4A24;" d="M21.4,147.2c-0.3,0-0.5-0.1-0.7-0.3c-0.3-0.3-0.4-0.7-0.4-1.1c0-0.4,0-0.9,0.1-1.3
		c0.1-0.6,0.1-1.2,0.2-1.8c0.1-0.8,0.1-1.6,0.2-2.4c0.1-1,0.2-2,0.3-3c0.1-1.2,0.2-2.3,0.3-3.5c0.1-1.3,0.2-2.6,0.4-3.9
		c0.1-1.4,0.3-2.9,0.4-4.3c0.1-1.6,0.3-3.1,0.4-4.7c0.2-1.7,0.3-3.3,0.5-5c0.2-1.7,0.3-3.5,0.5-5.2c0.2-1.8,0.3-3.6,0.5-5.4
		c0.2-1.8,0.3-3.7,0.5-5.5c0.2-1.9,0.3-3.7,0.5-5.6c0.2-1.9,0.3-3.7,0.5-5.6c0.2-1.8,0.3-3.7,0.5-5.5c0.2-1.8,0.3-3.6,0.5-5.4
		c0.2-1.7,0.3-3.5,0.5-5.2c0.2-1.7,0.3-3.3,0.5-5c0.1-1.6,0.3-3.1,0.4-4.7c0.1-1.5,0.3-2.9,0.4-4.4c0.1-1.3,0.2-2.7,0.4-4
		c0.1-1.2,0.2-2.3,0.3-3.5c0.1-1,0.2-2,0.3-3c0.1-0.8,0.2-1.6,0.2-2.4c0.1-0.6,0.1-1.2,0.2-1.8c0-0.4,0.1-0.8,0.1-1.1
		c0-0.1,0-0.3,0-0.4c0.1-1.2,0.8-2.1,1.5-2.1c0.3,0,0.6,0.2,0.8,0.4c0.3,0.4,0.5,1.2,0.4,1.9c0,0-9.7,103.5-9.7,103.5
		C22.9,146.7,22.1,147.2,21.4,147.2z"/>
	<path style="fill:#148C26;" d="M30.8,40.9c0,0,0.3,0,0.3,0c0.5,0,0.8,0.9,0.7,1.9c0,0.2,0,0.3,0,0.5c0,0.4-0.1,0.8-0.1,1.1
		c-0.1,0.6-0.1,1.2-0.2,1.8c-0.1,0.8-0.1,1.6-0.2,2.4c-0.1,1-0.2,1.9-0.3,2.9c-0.1,1.1-0.2,2.2-0.3,3.4c-0.1,1.3-0.2,2.5-0.4,3.8
		c-0.1,1.4-0.3,2.8-0.4,4.2c-0.1,1.5-0.3,3-0.4,4.5c-0.1,1.6-0.3,3.2-0.4,4.8c-0.2,1.7-0.3,3.3-0.5,5c-0.2,1.7-0.3,3.4-0.5,5.2
		c-0.2,1.8-0.3,3.5-0.5,5.3c-0.2,1.8-0.3,3.6-0.5,5.3c-0.2,1.8-0.3,3.6-0.5,5.4c-0.2,1.8-0.3,3.5-0.5,5.3c-0.2,1.7-0.3,3.5-0.5,5.2
		c-0.2,1.7-0.3,3.4-0.5,5.1c-0.2,1.6-0.3,3.3-0.5,4.9c-0.1,1.6-0.3,3.1-0.4,4.7c-0.1,1.5-0.3,2.9-0.4,4.4c-0.1,1.3-0.3,2.7-0.4,4
		c-0.1,1.2-0.2,2.4-0.3,3.7c-0.1,1.1-0.2,2.1-0.3,3.2c-0.1,0.9-0.2,1.8-0.3,2.7c-0.1,0.7-0.1,1.5-0.2,2.2c0,0.5-0.1,1.1-0.1,1.6
		c0,0.4,0,1.3-0.2,1.5c-0.1,0.1-0.2,0.2-0.4,0.3c-0.1,0.1-0.3,0.2-0.4,0.2c-0.2,0-0.3-0.1-0.4-0.2c-0.4-0.4-0.7-0.9-0.5-1.4
		c0.1-0.5,0.1-1,0.1-1.5c0.1-0.7,0.1-1.3,0.2-2c0.1-0.9,0.2-1.7,0.2-2.6c0.1-1,0.2-2.1,0.3-3.1c0.1-1.2,0.2-2.4,0.3-3.6
		c0.1-1.3,0.3-2.7,0.4-4c0.1-1.5,0.3-2.9,0.4-4.4c0.1-1.6,0.3-3.1,0.4-4.7c0.2-1.7,0.3-3.3,0.5-5c0.2-1.7,0.3-3.4,0.5-5.2
		c0.2-1.8,0.3-3.5,0.5-5.3c0.2-1.8,0.3-3.6,0.5-5.4c0.2-1.8,0.3-3.6,0.5-5.5c0.2-1.8,0.3-3.6,0.5-5.4c0.2-1.8,0.3-3.6,0.5-5.4
		c0.2-1.8,0.3-3.5,0.5-5.3c0.2-1.7,0.3-3.4,0.5-5.1c0.2-1.6,0.3-3.2,0.5-4.9c0.1-1.5,0.3-3.1,0.4-4.6c0.1-1.4,0.3-2.8,0.4-4.2
		c0.1-1.3,0.2-2.6,0.4-3.9c0.1-1.1,0.2-2.3,0.3-3.4c0.1-1,0.2-1.9,0.3-2.9c0.1-0.8,0.1-1.6,0.2-2.4c0.1-0.6,0.1-1.2,0.2-1.8
		c0-0.4,0.1-0.7,0.1-1.1c0-0.1,0-0.3,0-0.4c0.1-1,0.6-1.7,1.1-1.7 M31.1,39.9c-1-0.2-1.8,0.8-1.9,2.3c0,0-9.7,103.5-9.7,103.5
		c0,0.4,0,0.6,0.3,1c0.3,0.3,0.6,0.5,1,0.6c1,0.3,2.2-0.2,2.3-1.3l9.7-103.5c0.1-0.9-0.1-1.7-0.5-2.2c-0.3-0.3-0.6-0.5-1-0.5l0-0.8
		L31.1,39.9z"/>
</g>
<path style="fill:none;stroke:#A11891;stroke-width:0.8507;stroke-miterlimit:10;" d="M113.7,156.4"/>
</svg>
