<?xml version="1.0" encoding="utf-8"?>
<!-- Generator: Adobe Illustrator 24.2.1, SVG Export Plug-In . SVG Version: 6.00 Build 0)  -->
<svg version="1.0" id="Layer_1" xmlns="http://www.w3.org/2000/svg" xmlns:xlink="http://www.w3.org/1999/xlink" x="0px" y="0px"
	 width="16px" height="16px" viewBox="0 0 16 16" style="enable-background:new 0 0 16 16;" xml:space="preserve">
<style type="text/css">
	.st0{fill:#0E4754;}
	.st1{fill:#EE653E;}
	.st2{fill:#975296;}
	.st3{fill:#15C1D1;}
	.st4{fill:#FFFF00;}
	.st5{fill:#FA9630;}
	.st6{fill:#009093;}
	.st7{fill:#E03B83;}
	.st8{fill:none;}
	.st9{fill:#008E63;}
	.st10{fill:#EA5C68;}
	.st11{fill:#A72014;}
	.st12{fill:#23CEDE;}
	.st13{fill:none;stroke:#FFFFFF;stroke-miterlimit:10;}
	.st14{fill:#69691D;}
	.st15{fill:#E2262C;}
	.st16{fill:#D1CE00;}
	.st17{fill:none;stroke:#D1CE00;stroke-width:6.105844e-02;stroke-miterlimit:10;}
	.st18{fill:#FD9F00;}
	.st19{fill:#0079C5;}
	.st20{fill:#FFAC00;}
	.st21{fill:#E23D74;}
	.st22{fill:#161514;}
	.st23{fill:#002B69;}
	.st24{fill:#E06900;}
	.st25{fill:#0094A5;}
	.st26{fill:#3D1E4C;}
	.st27{fill:#35100F;}
	.st28{fill:#E84B2C;}
	.st29{fill:#57A422;}
	.st30{fill:#0A0C0E;}
	.st31{fill:#0098CB;}
	.st32{fill:#E33038;}
	.st33{fill:#99589A;}
	.st34{fill:#F48658;}
	.st35{fill:#DE287C;}
	.st36{fill:#008F90;}
	.st37{fill:#E0192F;}
	.st38{fill:#6660A4;}
	.st39{fill:#FA9F64;}
	.st40{fill:#24529C;}
	.st41{fill:#EF6A1F;}
	.st42{fill:#BA3047;}
	.st43{fill:#0098C2;}
	.st44{fill:#0097C8;}
	.st45{fill:#E8698F;}
	.st46{fill:#E97094;}
	.st47{fill:#DF1B61;}
	.st48{fill:#EED897;}
	.st49{fill:#69AA21;}
	.st50{fill:#6A2814;}
	.st51{fill:#E22737;}
	.st52{fill:#0098CC;}
	.st53{fill:#EF6B3F;}
	.st54{fill:#00A0A8;}
	.st55{fill:#0085D0;}
	.st56{fill:#53808F;}
	.st57{fill:#E76C9C;}
	.st58{fill:#E97B0F;}
	.st59{fill:#FC9B00;}
	.st60{fill:#E22B4A;}
	.st61{fill:#0B0D11;}
	.st62{fill:#0089CC;}
	.st63{fill:#E34374;}
	.st64{fill:#57A522;}
	.st65{fill:#CC84B5;}
	.st66{fill:#10317F;}
	.st67{fill:#002D79;}
	.st68{fill:#60A820;}
	.st69{fill:#722415;}
	.st70{fill:#E22937;}
	.st71{fill:#0097CE;}
	.st72{fill:#E876A6;}
	.st73{fill:#009CA3;}
	.st74{fill:#F5822E;}
	.st75{fill:#4D205B;}
	.st76{fill:#FFFFFF;}
	.st77{fill:#135C6E;}
	.st78{display:none;}
	.st79{display:inline;fill:#FFFFFF;}
	.st80{display:inline;}
</style>
<g>
	<path class="st0" d="M8.3,15.8c-1.4,0-3-0.5-4.2-1.3l0.1,1.3H3.1l0-2.6C-0.6,12-0.7,6.8,1.5,4.1L0.2,4.2V3.2l2.9,0
		c0.7-3.8,6.4-3.8,8.8-1.5l-0.1-1.3h1v2.6l0,0c3.8,0.6,4,6.1,1.8,8.7l1-0.1v1.5h-2.3l0-0.3C12.9,14.9,10.6,15.8,8.3,15.8z M9.2,9.4
		c-0.8,1.7-2,3.3-4,3.5c1.6,2.3,6.6,2.5,6.7-0.9h-0.1c0-1.5-1.3-2.2-2.5-2.8L9.2,9.4z M2.6,4.7c-4.1,3.6,1.8,9.9,4.1,3.7
		C4.9,7.6,3.2,6.4,3,4.3L2.6,4.7z M12.2,5.2c-1,0.3-1.6,1.5-2.1,2.5c1.5,0.7,3.1,1.7,3.6,3.5c2.6-1.3,2.5-6.3-0.8-6.1v0.2
		C12.7,5.2,12.2,5.2,12.2,5.2z M5,4.6C5.2,5.8,6.7,6.5,7.6,7c0.7-1.6,1.7-3.1,3.4-3.6C9.8,0.8,4.7,0.8,5,4.2H4.9L5,4.6z"/>
	<path class="st1" d="M9.2,9.4c-0.8,1.7-2,3.3-4,3.5c1.6,2.3,6.6,2.5,6.7-0.9h-0.1c0-1.5-1.3-2.2-2.5-2.8L9.2,9.4z"/>
	<path class="st2" d="M2.6,4.7c-4.1,3.6,1.8,9.9,4.1,3.7C4.9,7.6,3.2,6.4,3,4.3L2.6,4.7z"/>
	<path class="st3" d="M12.2,5.2c-1,0.3-1.6,1.5-2.1,2.5c1.5,0.7,3.1,1.7,3.6,3.5c2.6-1.3,2.5-6.3-0.8-6.1v0.2
		C12.7,5.2,12.2,5.2,12.2,5.2z"/>
	<path class="st4" d="M5,4.6C5.2,5.8,6.7,6.5,7.6,7c0.7-1.6,1.7-3.1,3.4-3.6C9.8,0.8,4.7,0.8,5,4.2H4.9L5,4.6z"/>
</g>
<g class="st78">
	<path class="st79" d="M7.5,0.8C8,0.8,8.6,0.9,9.2,1c0.6,0.2,1.2,0.4,1.6,0.7l-0.1-0.8h1.4v4.5H11c-0.1-0.7-0.3-1.3-0.6-1.8
		c-0.3-0.5-0.7-0.9-1.2-1.2C8.8,2.1,8.2,2,7.6,2C6.9,2,6.4,2.2,6,2.5C5.5,2.9,5.3,3.4,5.3,3.9c0,0.4,0.1,0.8,0.4,1.2
		C6,5.4,6.3,5.7,6.8,6c0.5,0.3,1.1,0.5,1.7,0.8C9,7,9.5,7.2,10.1,7.5c0.5,0.3,1,0.6,1.4,0.9c0.4,0.4,0.8,0.8,1.1,1.2
		c0.3,0.5,0.4,1,0.4,1.7c0,0.8-0.2,1.4-0.6,2c-0.4,0.6-1,1.1-1.7,1.4C9.9,15,9,15.2,8,15.2c-0.6,0-1.1-0.1-1.8-0.2
		c-0.6-0.2-1.2-0.4-1.7-0.7l0.1,0.8H3.3l0-4.5h1.1c0.1,1.1,0.6,2,1.2,2.5C6.3,13.7,7.1,14,8.1,14c0.5,0,0.9-0.1,1.3-0.3
		c0.4-0.2,0.7-0.4,0.9-0.7c0.2-0.3,0.3-0.7,0.3-1.1c0-0.5-0.2-0.9-0.5-1.3c-0.3-0.3-0.7-0.6-1.2-0.8c-0.5-0.2-1-0.5-1.5-0.7
		C6.8,8.9,6.3,8.6,5.7,8.3c-0.5-0.3-1-0.6-1.4-1C4,7,3.6,6.6,3.4,6.1s-0.3-1-0.3-1.7c0-0.4,0.1-0.8,0.2-1.2C3.4,2.8,3.7,2.4,4,2
		c0.3-0.4,0.8-0.7,1.3-0.9C5.9,0.9,6.6,0.8,7.5,0.8 M7.5,0.5c-0.9,0-1.6,0.1-2.2,0.4c-0.6,0.3-1.1,0.6-1.4,1C3.4,2.3,3.2,2.7,3,3.2
		C2.9,3.6,2.8,4,2.8,4.5c0,0.7,0.1,1.3,0.4,1.8c0.2,0.5,0.6,0.9,1,1.3c0.4,0.4,0.9,0.7,1.4,1c0.5,0.3,1.1,0.6,1.7,0.8
		c0.5,0.2,1,0.5,1.5,0.7c0.5,0.2,0.8,0.5,1.1,0.8c0.3,0.3,0.4,0.6,0.4,1.1c0,0.3-0.1,0.6-0.3,0.9c-0.2,0.3-0.5,0.5-0.8,0.6
		c-0.3,0.2-0.7,0.2-1.2,0.2c-0.9,0-1.7-0.3-2.3-0.8c-0.6-0.5-1-1.3-1.2-2.4l0-0.2H4.4H3.3H3l0,0.3l0,4.5l0,0.3h0.3h1.3h0.3l0-0.3
		l0-0.4c0.4,0.2,0.9,0.4,1.3,0.5c0.6,0.2,1.2,0.3,1.8,0.3c1,0,1.9-0.2,2.7-0.5c0.8-0.3,1.4-0.8,1.8-1.5c0.4-0.6,0.6-1.4,0.6-2.2
		c0-0.7-0.1-1.3-0.4-1.8c-0.3-0.5-0.7-0.9-1.1-1.3c-0.4-0.4-0.9-0.7-1.5-0.9C9.7,7,9.2,6.8,8.6,6.6C8,6.3,7.4,6,6.9,5.7
		c-0.5-0.3-0.8-0.5-1-0.8c-0.2-0.3-0.3-0.6-0.3-1c0-0.5,0.2-0.8,0.5-1.2C6.5,2.4,7,2.3,7.6,2.3c0.6,0,1.2,0.1,1.6,0.4
		c0.4,0.3,0.8,0.6,1.1,1.1c0.3,0.5,0.5,1.1,0.5,1.7l0,0.2H11h1.1h0.3V5.4V0.9V0.7h-0.3h-1.4h-0.3l0,0.3l0,0.3
		C10.1,1,9.7,0.9,9.2,0.8C8.6,0.6,8,0.5,7.5,0.5L7.5,0.5z"/>
</g>
</svg>
