<?xml version="1.0" encoding="utf-8"?>
<!-- Generator: Adobe Illustrator 24.2.1, SVG Export Plug-In . SVG Version: 6.00 Build 0)  -->
<svg version="1.0" id="Layer_1" xmlns="http://www.w3.org/2000/svg" xmlns:xlink="http://www.w3.org/1999/xlink" x="0px" y="0px"
	 viewBox="0 0 277.9 409.5" style="enable-background:new 0 0 277.9 409.5;" xml:space="preserve">
<g>
	<polygon style="fill:#009245;" points="135.2,169.4 135.2,176.5 135.2,183.6 135.2,190.6 135.2,197.7 135.2,204.7 135.2,211.8 
		135.2,218.9 142.7,218.9 142.7,211.8 142.7,204.7 142.7,197.7 142.7,190.6 142.7,183.6 142.7,176.5 142.7,169.4 	"/>
	<polygon style="fill:#FF0000;" points="150.2,338.9 142.7,338.9 135.2,338.9 127.7,338.9 120.2,338.9 120.2,345.9 127.7,345.9 
		135.2,345.9 135.2,353 135.2,360.1 135.2,367.1 135.2,374.2 135.2,381.2 135.2,388.3 135.2,395.4 135.2,402.4 135.2,409.5 
		142.7,409.5 142.7,402.4 142.7,395.4 142.7,388.3 142.7,381.2 142.7,374.2 142.7,367.1 142.7,360.1 142.7,353 142.7,345.9 
		150.2,345.9 157.7,345.9 157.7,338.9 	"/>
	<polygon style="fill:#006837;" points="150.2,120 150.2,113 142.7,113 142.7,105.9 135.2,105.9 135.2,113 127.7,113 127.7,120 
		120.2,120 120.2,127.1 127.7,127.1 127.7,134.1 135.2,134.1 135.2,141.2 142.7,141.2 142.7,134.1 150.2,134.1 150.2,127.1 
		157.7,127.1 157.7,120 	"/>
	<g>
		<rect x="180.3" y="268.3" style="fill:#FFFFFF;" width="7.5" height="7.1"/>
		<polygon style="fill:#FFFFFF;" points="180.3,134.1 180.3,127.1 172.8,127.1 172.8,134.1 165.2,134.1 165.2,141.2 172.8,141.2 
			172.8,148.3 180.3,148.3 180.3,141.2 187.8,141.2 187.8,134.1 		"/>
		<rect x="172.8" y="275.3" style="fill:#FFFFFF;" width="7.5" height="7.1"/>
		<rect x="165.2" y="282.4" style="fill:#FFFFFF;" width="7.5" height="7.1"/>
		<rect x="157.7" y="289.5" style="fill:#FFFFFF;" width="7.5" height="7.1"/>
		<polygon style="fill:#FFFFFF;" points="157.7,148.3 157.7,155.3 150.2,155.3 150.2,162.4 157.7,162.4 157.7,169.4 165.2,169.4 
			165.2,162.4 172.8,162.4 172.8,155.3 165.2,155.3 165.2,148.3 		"/>
		<rect x="157.7" y="120" style="fill:#FFFFFF;" width="7.5" height="7.1"/>
		<rect x="157.7" y="63.5" style="fill:#FFFFFF;" width="7.5" height="7.1"/>
		<rect x="150.2" y="296.5" style="fill:#FFFFFF;" width="7.5" height="7.1"/>
		<rect x="150.2" y="127.1" style="fill:#FFFFFF;" width="7.5" height="7.1"/>
		<rect x="150.2" y="113" style="fill:#FFFFFF;" width="7.5" height="7.1"/>
		<rect x="150.2" y="70.6" style="fill:#FFFFFF;" width="7.5" height="7.1"/>
		<rect x="142.7" y="303.6" style="fill:#FFFFFF;" width="7.5" height="7.1"/>
		<rect x="142.7" y="134.1" style="fill:#FFFFFF;" width="7.5" height="7.1"/>
		<rect x="142.7" y="105.9" style="fill:#FFFFFF;" width="7.5" height="7.1"/>
		<rect x="142.7" y="77.7" style="fill:#FFFFFF;" width="7.5" height="7.1"/>
		<rect x="135.2" y="310.6" style="fill:#FFFFFF;" width="7.5" height="7.1"/>
		<rect x="135.2" y="141.2" style="fill:#FFFFFF;" width="7.5" height="7.1"/>
		<rect x="135.2" y="98.8" style="fill:#FFFFFF;" width="7.5" height="7.1"/>
		<rect x="135.2" y="84.7" style="fill:#FFFFFF;" width="7.5" height="7.1"/>
		<rect x="127.7" y="303.6" style="fill:#FFFFFF;" width="7.5" height="7.1"/>
		<rect x="127.7" y="134.1" style="fill:#FFFFFF;" width="7.5" height="7.1"/>
		<rect x="127.7" y="105.9" style="fill:#FFFFFF;" width="7.5" height="7.1"/>
		<rect x="127.7" y="77.7" style="fill:#FFFFFF;" width="7.5" height="7.1"/>
		<rect x="120.2" y="296.5" style="fill:#FFFFFF;" width="7.5" height="7.1"/>
		<rect x="120.2" y="127.1" style="fill:#FFFFFF;" width="7.5" height="7.1"/>
		<rect x="120.2" y="113" style="fill:#FFFFFF;" width="7.5" height="7.1"/>
		<rect x="120.2" y="70.6" style="fill:#FFFFFF;" width="7.5" height="7.1"/>
		<rect x="112.7" y="289.5" style="fill:#FFFFFF;" width="7.5" height="7.1"/>
		<polygon style="fill:#FFFFFF;" points="120.2,169.4 120.2,162.4 127.7,162.4 127.7,155.3 120.2,155.3 120.2,148.3 112.7,148.3 
			112.7,155.3 105.2,155.3 105.2,162.4 112.7,162.4 112.7,169.4 		"/>
		<rect x="112.7" y="120" style="fill:#FFFFFF;" width="7.5" height="7.1"/>
		<rect x="112.7" y="63.5" style="fill:#FFFFFF;" width="7.5" height="7.1"/>
		<rect x="105.2" y="282.4" style="fill:#FFFFFF;" width="7.5" height="7.1"/>
		<rect x="97.6" y="275.3" style="fill:#FFFFFF;" width="7.5" height="7.1"/>
		<polygon style="fill:#FFFFFF;" points="97.6,148.3 105.2,148.3 105.2,141.2 112.7,141.2 112.7,134.1 105.2,134.1 105.2,127.1 
			97.6,127.1 97.6,134.1 90.1,134.1 90.1,141.2 97.6,141.2 		"/>
		<rect x="90.1" y="268.3" style="fill:#FFFFFF;" width="7.5" height="7.1"/>
	</g>
	<g>
		<path style="fill:#F15A24;" d="M232.8,120h-7.5h-7.5h-7.5h-7.5h-7.5h-7.5h-7.5h-7.5h-7.5v7.1h-7.5v7.1h-7.5v7.1h-7.5v7.1h-7.5
			v-7.1h-7.5v-7.1h-7.5v-7.1h-7.5V120h-7.5h-7.5h-7.5h-7.5h-7.5h-7.5h-7.5h-7.5h-7.5h-7.5v7.1h7.5v7.1h7.5v7.1h7.5v7.1h7.5v7.1h7.5
			v7.1h7.5h7.5h7.5h7.5v-7.1h7.5v-7.1h7.5v7.1h7.5v7.1h7.5h7.5h7.5v-7.1h7.5v-7.1h7.5v7.1h7.5v7.1h7.5h7.5h7.5h7.5v-7.1h7.5v-7.1
			h7.5v-7.1h7.5v-7.1h7.5v-7.1h7.5V120H232.8z M105.2,141.2v7.1h-7.5v-7.1h-7.5v-7.1h7.5v-7.1h7.5v7.1h7.5v7.1H105.2z M165.2,141.2
			v-7.1h7.5v-7.1h7.5v7.1h7.5v7.1h-7.5v7.1h-7.5v-7.1H165.2z"/>
		<polygon style="fill:#F15A24;" points="225.3,218.9 217.8,218.9 210.3,218.9 202.8,218.9 195.3,218.9 187.8,218.9 187.8,225.9 
			180.3,225.9 180.3,233 172.8,233 172.8,240 165.2,240 165.2,247.1 157.7,247.1 157.7,254.2 150.2,254.2 150.2,261.2 142.7,261.2 
			142.7,268.3 135.2,268.3 135.2,261.2 127.7,261.2 127.7,254.2 120.2,254.2 120.2,247.1 112.7,247.1 112.7,240 105.2,240 
			105.2,233 97.6,233 97.6,225.9 90.1,225.9 90.1,218.9 82.6,218.9 75.1,218.9 67.6,218.9 60.1,218.9 52.6,218.9 45.1,218.9 
			37.6,218.9 37.6,225.9 37.6,233 45.1,233 45.1,225.9 52.6,225.9 52.6,233 60.1,233 60.1,240 67.6,240 67.6,247.1 75.1,247.1 
			75.1,254.2 82.6,254.2 82.6,261.2 90.1,261.2 90.1,268.3 97.6,268.3 97.6,275.3 105.2,275.3 105.2,282.4 112.7,282.4 112.7,289.5 
			120.2,289.5 120.2,296.5 127.7,296.5 127.7,303.6 135.2,303.6 135.2,310.6 142.7,310.6 142.7,303.6 150.2,303.6 150.2,296.5 
			157.7,296.5 157.7,289.5 165.2,289.5 165.2,282.4 172.8,282.4 172.8,275.3 180.3,275.3 180.3,268.3 187.8,268.3 187.8,261.2 
			195.3,261.2 195.3,254.2 202.8,254.2 202.8,247.1 210.3,247.1 210.3,240 217.8,240 217.8,233 225.3,233 225.3,225.9 232.8,225.9 
			232.8,233 240.3,233 240.3,225.9 240.3,218.9 232.8,218.9 		"/>
		<polygon style="fill:#F15A24;" points="180.3,275.3 180.3,282.4 172.8,282.4 172.8,289.5 165.2,289.5 165.2,296.5 157.7,296.5 
			157.7,303.6 150.2,303.6 150.2,310.6 142.7,310.6 142.7,317.7 150.2,317.7 157.7,317.7 165.2,317.7 172.8,317.7 180.3,317.7 
			187.8,317.7 187.8,310.6 195.3,310.6 195.3,303.6 202.8,303.6 202.8,296.5 210.3,296.5 210.3,289.5 217.8,289.5 217.8,282.4 
			225.3,282.4 225.3,289.5 217.8,289.5 217.8,296.5 225.3,296.5 232.8,296.5 240.3,296.5 240.3,289.5 240.3,282.4 240.3,275.3 
			240.3,268.3 232.8,268.3 225.3,268.3 217.8,268.3 210.3,268.3 202.8,268.3 195.3,268.3 187.8,268.3 187.8,275.3 		"/>
		<polygon style="fill:#F15A24;" points="127.7,303.6 120.2,303.6 120.2,296.5 112.7,296.5 112.7,289.5 105.2,289.5 105.2,282.4 
			97.6,282.4 97.6,275.3 90.1,275.3 90.1,268.3 82.6,268.3 75.1,268.3 67.6,268.3 60.1,268.3 52.6,268.3 45.1,268.3 37.6,268.3 
			37.6,275.3 37.6,282.4 37.6,289.5 37.6,296.5 45.1,296.5 52.6,296.5 60.1,296.5 60.1,289.5 52.6,289.5 52.6,282.4 60.1,282.4 
			60.1,289.5 67.6,289.5 67.6,296.5 75.1,296.5 75.1,303.6 82.6,303.6 82.6,310.6 90.1,310.6 90.1,317.7 97.6,317.7 105.2,317.7 
			112.7,317.7 120.2,317.7 127.7,317.7 135.2,317.7 135.2,310.6 127.7,310.6 		"/>
	</g>
	<g>
		<polygon style="fill:#ED1C24;" points="210.3,63.5 202.8,63.5 195.3,63.5 187.8,63.5 180.3,63.5 172.8,63.5 165.2,63.5 
			165.2,70.6 157.7,70.6 157.7,77.7 150.2,77.7 150.2,84.7 142.7,84.7 142.7,91.8 150.2,91.8 157.7,91.8 165.2,91.8 172.8,91.8 
			180.3,91.8 187.8,91.8 195.3,91.8 195.3,84.7 202.8,84.7 202.8,77.7 210.3,77.7 210.3,70.6 217.8,70.6 217.8,63.5 		"/>
		<polygon style="fill:#ED1C24;" points="180.3,162.4 172.8,162.4 165.2,162.4 165.2,169.4 157.7,169.4 157.7,162.4 150.2,162.4 
			142.7,162.4 135.2,162.4 127.7,162.4 120.2,162.4 120.2,169.4 112.7,169.4 112.7,162.4 105.2,162.4 97.6,162.4 90.1,162.4 
			82.6,162.4 82.6,169.4 90.1,169.4 90.1,176.5 97.6,176.5 97.6,183.6 105.2,183.6 105.2,190.6 112.7,190.6 112.7,183.6 
			120.2,183.6 120.2,176.5 127.7,176.5 127.7,169.4 135.2,169.4 142.7,169.4 150.2,169.4 150.2,176.5 157.7,176.5 157.7,183.6 
			165.2,183.6 165.2,190.6 172.8,190.6 172.8,183.6 180.3,183.6 180.3,176.5 187.8,176.5 187.8,169.4 195.3,169.4 195.3,162.4 
			187.8,162.4 		"/>
		<polygon style="fill:#ED1C24;" points="165.2,317.7 157.7,317.7 150.2,317.7 142.7,317.7 135.2,317.7 127.7,317.7 120.2,317.7 
			112.7,317.7 105.2,317.7 97.6,317.7 97.6,324.8 105.2,324.8 105.2,331.8 112.7,331.8 112.7,338.9 120.2,338.9 127.7,338.9 
			135.2,338.9 142.7,338.9 150.2,338.9 157.7,338.9 165.2,338.9 165.2,331.8 172.8,331.8 172.8,324.8 180.3,324.8 180.3,317.7 
			172.8,317.7 		"/>
		<polygon style="fill:#ED1C24;" points="82.6,84.7 82.6,91.8 90.1,91.8 97.6,91.8 105.2,91.8 112.7,91.8 120.2,91.8 127.7,91.8 
			135.2,91.8 135.2,84.7 127.7,84.7 127.7,77.7 120.2,77.7 120.2,70.6 112.7,70.6 112.7,63.5 105.2,63.5 97.6,63.5 90.1,63.5 
			82.6,63.5 75.1,63.5 67.6,63.5 60.1,63.5 60.1,70.6 67.6,70.6 67.6,77.7 75.1,77.7 75.1,84.7 		"/>
		<polygon style="fill:#ED1C24;" points="142.7,42.4 142.7,35.3 142.7,28.2 142.7,21.2 142.7,14.1 142.7,7.1 142.7,0 135.2,0 
			135.2,7.1 135.2,14.1 135.2,21.2 135.2,28.2 135.2,35.3 135.2,42.4 135.2,49.4 142.7,49.4 		"/>
	</g>
	<g>
		<polygon style="fill:#ED1E79;" points="270.4,91.8 262.9,91.8 255.4,91.8 247.9,91.8 240.3,91.8 232.8,91.8 225.3,91.8 
			217.8,91.8 210.3,91.8 202.8,91.8 195.3,91.8 187.8,91.8 180.3,91.8 172.8,91.8 165.2,91.8 157.7,91.8 150.2,91.8 142.7,91.8 
			135.2,91.8 127.7,91.8 120.2,91.8 112.7,91.8 105.2,91.8 97.6,91.8 90.1,91.8 82.6,91.8 75.1,91.8 67.6,91.8 60.1,91.8 52.6,91.8 
			45.1,91.8 37.6,91.8 30.1,91.8 22.5,91.8 15,91.8 7.5,91.8 0,91.8 0,98.8 0,105.9 0,113 0,120 7.5,120 15,120 15,113 15,105.9 
			7.5,105.9 7.5,98.8 15,98.8 15,105.9 22.5,105.9 22.5,113 30.1,113 30.1,120 37.6,120 45.1,120 52.6,120 60.1,120 67.6,120 
			75.1,120 82.6,120 90.1,120 97.6,120 105.2,120 112.7,120 120.2,120 120.2,113 127.7,113 127.7,105.9 135.2,105.9 135.2,98.8 
			142.7,98.8 142.7,105.9 150.2,105.9 150.2,113 157.7,113 157.7,120 165.2,120 172.8,120 180.3,120 187.8,120 195.3,120 202.8,120 
			210.3,120 217.8,120 225.3,120 232.8,120 240.3,120 247.9,120 247.9,113 255.4,113 255.4,105.9 262.9,105.9 262.9,98.8 
			270.4,98.8 270.4,105.9 262.9,105.9 262.9,113 262.9,120 270.4,120 277.9,120 277.9,113 277.9,105.9 277.9,98.8 277.9,91.8 		"/>
		<polygon style="fill:#ED1E79;" points="172.8,218.9 165.2,218.9 157.7,218.9 150.2,218.9 142.7,218.9 135.2,218.9 127.7,218.9 
			120.2,218.9 112.7,218.9 105.2,218.9 97.6,218.9 90.1,218.9 90.1,225.9 97.6,225.9 97.6,233 105.2,233 105.2,240 112.7,240 
			112.7,247.1 120.2,247.1 120.2,254.2 127.7,254.2 127.7,261.2 135.2,261.2 135.2,268.3 142.7,268.3 142.7,261.2 150.2,261.2 
			150.2,254.2 157.7,254.2 157.7,247.1 165.2,247.1 165.2,240 172.8,240 172.8,233 180.3,233 180.3,225.9 187.8,225.9 187.8,218.9 
			180.3,218.9 		"/>
		<rect x="180.3" y="35.3" style="fill:#ED1E79;" width="7.5" height="7.1"/>
		<rect x="172.8" y="42.4" style="fill:#ED1E79;" width="7.5" height="7.1"/>
		<rect x="172.8" y="28.2" style="fill:#ED1E79;" width="7.5" height="7.1"/>
		<rect x="165.2" y="21.2" style="fill:#ED1E79;" width="7.5" height="7.1"/>
		<rect x="157.7" y="28.2" style="fill:#ED1E79;" width="7.5" height="7.1"/>
		<rect x="157.7" y="14.1" style="fill:#ED1E79;" width="7.5" height="7.1"/>
		<rect x="150.2" y="35.3" style="fill:#ED1E79;" width="7.5" height="7.1"/>
		<rect x="150.2" y="7.1" style="fill:#ED1E79;" width="7.5" height="7.1"/>
		<rect x="142.7" style="fill:#ED1E79;" width="7.5" height="7.1"/>
		<rect x="127.7" style="fill:#ED1E79;" width="7.5" height="7.1"/>
		<rect x="120.2" y="35.3" style="fill:#ED1E79;" width="7.5" height="7.1"/>
		<rect x="120.2" y="7.1" style="fill:#ED1E79;" width="7.5" height="7.1"/>
		<polygon style="fill:#ED1E79;" points="112.7,49.4 105.2,49.4 105.2,56.5 112.7,56.5 112.7,63.5 120.2,63.5 120.2,70.6 
			127.7,70.6 127.7,77.7 135.2,77.7 135.2,84.7 142.7,84.7 142.7,77.7 150.2,77.7 150.2,70.6 157.7,70.6 157.7,63.5 165.2,63.5 
			165.2,56.5 172.8,56.5 172.8,49.4 165.2,49.4 165.2,42.4 157.7,42.4 157.7,49.4 150.2,49.4 142.7,49.4 135.2,49.4 127.7,49.4 
			120.2,49.4 120.2,42.4 112.7,42.4 		"/>
		<rect x="112.7" y="28.2" style="fill:#ED1E79;" width="7.5" height="7.1"/>
		<rect x="112.7" y="14.1" style="fill:#ED1E79;" width="7.5" height="7.1"/>
		<rect x="105.2" y="21.2" style="fill:#ED1E79;" width="7.5" height="7.1"/>
		<rect x="97.6" y="42.4" style="fill:#ED1E79;" width="7.5" height="7.1"/>
		<rect x="97.6" y="28.2" style="fill:#ED1E79;" width="7.5" height="7.1"/>
		<rect x="90.1" y="35.3" style="fill:#ED1E79;" width="7.5" height="7.1"/>
	</g>
</g>
</svg>
