<?xml version="1.0" encoding="utf-8"?>
<!-- Generator: Adobe Illustrator 24.2.1, SVG Export Plug-In . SVG Version: 6.00 Build 0)  -->
<svg version="1.0" id="Layer_1" xmlns="http://www.w3.org/2000/svg" xmlns:xlink="http://www.w3.org/1999/xlink" x="0px" y="0px"
	 viewBox="0 0 390.5 415.6" style="enable-background:new 0 0 390.5 415.6;" xml:space="preserve">
<g>
	<g>
	</g>
	<g>
	</g>
	<g>
	</g>
	<g>
	</g>
	<g>
	</g>
	<g>
	</g>
	<g>
	</g>
	<g>
	</g>
	<g>
		<g>
		</g>
		<g>
		</g>
		<g>
		</g>
		<g>
		</g>
		<g>
		</g>
		<g>
		</g>
		<g>
		</g>
		<g>
		</g>
	</g>
	<g>
	</g>
</g>
<g>
	<g>
	</g>
	<g>
	</g>
	<g>
	</g>
	<g>
	</g>
	<g>
	</g>
	<g>
	</g>
	<g>
	</g>
	<g>
	</g>
	<g>
		<g>
		</g>
		<g>
		</g>
		<g>
		</g>
		<g>
		</g>
		<g>
		</g>
		<g>
		</g>
		<g>
		</g>
		<g>
		</g>
	</g>
	<g>
	</g>
</g>
<g>
	<g>
	</g>
	<g>
	</g>
	<g>
	</g>
	<g>
	</g>
	<g>
	</g>
	<g>
	</g>
	<g>
	</g>
	<g>
	</g>
	<g>
		<g>
		</g>
		<g>
		</g>
		<g>
		</g>
		<g>
		</g>
		<g>
		</g>
		<g>
		</g>
		<g>
		</g>
		<g>
		</g>
	</g>
	<g>
	</g>
</g>
<g>
	<path style="fill:#00A99D;" d="M99.3,202.7h-5.6v-5.6c0-1.4-1.1-2.5-2.5-2.5c-1.4,0-2.5,1.1-2.5,2.5v5.6h-5.6
		c-1.4,0-2.5,1.1-2.5,2.5s1.1,2.5,2.5,2.5h5.6v5.6c0,1.4,1.1,2.5,2.5,2.5c1.4,0,2.5-1.1,2.5-2.5v-5.6h5.6c1.4,0,2.5-1.1,2.5-2.5
		S100.7,202.7,99.3,202.7z"/>
	<g>
		<g>
			<path style="fill:#00A99D;" d="M85.1,171.6h-9c-1.1,0-2-0.9-2-2l0,0c0-1.1,0.9-2,2-2h9c1.1,0,2,0.9,2,2l0,0
				C87.1,170.7,86.2,171.6,85.1,171.6z"/>
			<path style="fill:#00A99D;" d="M85.1,175.8h-9c-1.1,0-2-0.9-2-2l0,0c0-1.1,0.9-2,2-2h9c1.1,0,2,0.9,2,2l0,0
				C87.1,174.9,86.2,175.8,85.1,175.8z"/>
			<path style="fill:#00A99D;" d="M85.1,179.9h-9c-1.1,0-2-0.9-2-2l0,0c0-1.1,0.9-2,2-2h9c1.1,0,2,0.9,2,2l0,0
				C87.1,179,86.2,179.9,85.1,179.9z"/>
			<path style="fill:#00A99D;" d="M85.1,184h-9c-1.1,0-2-0.9-2-2v0c0-1.1,0.9-2,2-2h9c1.1,0,2,0.9,2,2v0
				C87.1,183.2,86.2,184,85.1,184z"/>
			<path style="fill:#00A99D;" d="M85.1,167.5h-5c-1.1,0-2-0.9-2-2v0c0-1.1,0.9-2,2-2h5c1.1,0,2,0.9,2,2v0
				C87.1,166.6,86.2,167.5,85.1,167.5z"/>
			<path style="fill:#00A99D;" d="M85.1,188.2h-5c-1.1,0-2-0.9-2-2l0,0c0-1.1,0.9-2,2-2h5c1.1,0,2,0.9,2,2l0,0
				C87.1,187.3,86.2,188.2,85.1,188.2z"/>
			<path style="fill:#00A99D;" d="M85.1,163.3h-1c-1.1,0-2-0.9-2-2l0,0c0-1.1,0.9-2,2-2h1c1.1,0,2,0.9,2,2l0,0
				C87.1,162.4,86.2,163.3,85.1,163.3z"/>
			<path style="fill:#00A99D;" d="M85.1,192.3h-1c-1.1,0-2-0.9-2-2l0,0c0-1.1,0.9-2,2-2h1c1.1,0,2,0.9,2,2l0,0
				C87.1,191.4,86.2,192.3,85.1,192.3z"/>
		</g>
		<g>
			<path style="fill:#00A99D;" d="M97.1,171.6h9c1.1,0,2-0.9,2-2l0,0c0-1.1-0.9-2-2-2h-9c-1.1,0-2,0.9-2,2l0,0
				C95.1,170.7,96,171.6,97.1,171.6z"/>
			<path style="fill:#00A99D;" d="M97.1,175.8h9c1.1,0,2-0.9,2-2l0,0c0-1.1-0.9-2-2-2h-9c-1.1,0-2,0.9-2,2l0,0
				C95.1,174.9,96,175.8,97.1,175.8z"/>
			<path style="fill:#00A99D;" d="M97.1,179.9h9c1.1,0,2-0.9,2-2l0,0c0-1.1-0.9-2-2-2h-9c-1.1,0-2,0.9-2,2l0,0
				C95.1,179,96,179.9,97.1,179.9z"/>
			<path style="fill:#00A99D;" d="M97.1,184h9c1.1,0,2-0.9,2-2v0c0-1.1-0.9-2-2-2h-9c-1.1,0-2,0.9-2,2v0C95.1,183.2,96,184,97.1,184
				z"/>
			<path style="fill:#00A99D;" d="M97.1,167.5h5c1.1,0,2-0.9,2-2v0c0-1.1-0.9-2-2-2h-5c-1.1,0-2,0.9-2,2v0
				C95.1,166.6,96,167.5,97.1,167.5z"/>
			<path style="fill:#00A99D;" d="M97.1,188.2h5c1.1,0,2-0.9,2-2l0,0c0-1.1-0.9-2-2-2h-5c-1.1,0-2,0.9-2,2l0,0
				C95.1,187.3,96,188.2,97.1,188.2z"/>
			<path style="fill:#00A99D;" d="M97.1,163.3h1c1.1,0,2-0.9,2-2l0,0c0-1.1-0.9-2-2-2h-1c-1.1,0-2,0.9-2,2l0,0
				C95.1,162.4,96,163.3,97.1,163.3z"/>
			<path style="fill:#00A99D;" d="M97.1,192.3h1c1.1,0,2-0.9,2-2l0,0c0-1.1-0.9-2-2-2h-1c-1.1,0-2,0.9-2,2l0,0
				C95.1,191.4,96,192.3,97.1,192.3z"/>
		</g>
	</g>
	<g>
		<g>
			<path style="fill:#00A99D;" d="M124.8,198.3v-9c0-1.1,0.9-2,2-2l0,0c1.1,0,2,0.9,2,2v9c0,1.1-0.9,2-2,2l0,0
				C125.7,200.3,124.8,199.4,124.8,198.3z"/>
			<path style="fill:#00A99D;" d="M120.6,198.3v-9c0-1.1,0.9-2,2-2h0c1.1,0,2,0.9,2,2v9c0,1.1-0.9,2-2,2h0
				C121.5,200.3,120.6,199.4,120.6,198.3z"/>
			<path style="fill:#00A99D;" d="M116.5,198.3v-9c0-1.1,0.9-2,2-2l0,0c1.1,0,2,0.9,2,2v9c0,1.1-0.9,2-2,2l0,0
				C117.4,200.3,116.5,199.4,116.5,198.3z"/>
			<path style="fill:#00A99D;" d="M112.4,198.3v-9c0-1.1,0.9-2,2-2h0c1.1,0,2,0.9,2,2v9c0,1.1-0.9,2-2,2h0
				C113.2,200.3,112.4,199.4,112.4,198.3z"/>
			<path style="fill:#00A99D;" d="M128.9,198.3v-5c0-1.1,0.9-2,2-2l0,0c1.1,0,2,0.9,2,2v5c0,1.1-0.9,2-2,2l0,0
				C129.8,200.3,128.9,199.4,128.9,198.3z"/>
			<path style="fill:#00A99D;" d="M108.2,198.3v-5c0-1.1,0.9-2,2-2l0,0c1.1,0,2,0.9,2,2v5c0,1.1-0.9,2-2,2l0,0
				C109.1,200.3,108.2,199.4,108.2,198.3z"/>
			<path style="fill:#00A99D;" d="M133.1,198.3v-1c0-1.1,0.9-2,2-2l0,0c1.1,0,2,0.9,2,2v1c0,1.1-0.9,2-2,2l0,0
				C134,200.3,133.1,199.4,133.1,198.3z"/>
			<path style="fill:#00A99D;" d="M104.1,198.3v-1c0-1.1,0.9-2,2-2h0c1.1,0,2,0.9,2,2v1c0,1.1-0.9,2-2,2h0
				C105,200.3,104.1,199.4,104.1,198.3z"/>
		</g>
		<g>
			<path style="fill:#00A99D;" d="M124.8,210.3v9c0,1.1,0.9,2,2,2l0,0c1.1,0,2-0.9,2-2v-9c0-1.1-0.9-2-2-2l0,0
				C125.7,208.3,124.8,209.2,124.8,210.3z"/>
			<path style="fill:#00A99D;" d="M120.6,210.3v9c0,1.1,0.9,2,2,2h0c1.1,0,2-0.9,2-2v-9c0-1.1-0.9-2-2-2h0
				C121.5,208.3,120.6,209.2,120.6,210.3z"/>
			<path style="fill:#00A99D;" d="M116.5,210.3v9c0,1.1,0.9,2,2,2l0,0c1.1,0,2-0.9,2-2v-9c0-1.1-0.9-2-2-2l0,0
				C117.4,208.3,116.5,209.2,116.5,210.3z"/>
			<path style="fill:#00A99D;" d="M112.4,210.3v9c0,1.1,0.9,2,2,2h0c1.1,0,2-0.9,2-2v-9c0-1.1-0.9-2-2-2h0
				C113.2,208.3,112.4,209.2,112.4,210.3z"/>
			<path style="fill:#00A99D;" d="M128.9,210.3v5c0,1.1,0.9,2,2,2l0,0c1.1,0,2-0.9,2-2v-5c0-1.1-0.9-2-2-2l0,0
				C129.8,208.3,128.9,209.2,128.9,210.3z"/>
			<path style="fill:#00A99D;" d="M108.2,210.3v5c0,1.1,0.9,2,2,2l0,0c1.1,0,2-0.9,2-2v-5c0-1.1-0.9-2-2-2l0,0
				C109.1,208.3,108.2,209.2,108.2,210.3z"/>
			<path style="fill:#00A99D;" d="M133.1,210.3v1c0,1.1,0.9,2,2,2l0,0c1.1,0,2-0.9,2-2v-1c0-1.1-0.9-2-2-2l0,0
				C134,208.3,133.1,209.2,133.1,210.3z"/>
			<path style="fill:#00A99D;" d="M104.1,210.3v1c0,1.1,0.9,2,2,2h0c1.1,0,2-0.9,2-2v-1c0-1.1-0.9-2-2-2h0
				C105,208.3,104.1,209.2,104.1,210.3z"/>
		</g>
	</g>
	<g>
		<g>
			<path style="fill:#00A99D;" d="M98.1,238h9c1.1,0,2,0.9,2,2v0c0,1.1-0.9,2-2,2h-9c-1.1,0-2-0.9-2-2v0C96.1,238.9,97,238,98.1,238
				z"/>
			<path style="fill:#00A99D;" d="M98.1,233.9h9c1.1,0,2,0.9,2,2l0,0c0,1.1-0.9,2-2,2h-9c-1.1,0-2-0.9-2-2l0,0
				C96.1,234.8,97,233.9,98.1,233.9z"/>
			<path style="fill:#00A99D;" d="M98.1,229.8h9c1.1,0,2,0.9,2,2l0,0c0,1.1-0.9,2-2,2h-9c-1.1,0-2-0.9-2-2l0,0
				C96.1,230.7,97,229.8,98.1,229.8z"/>
			<path style="fill:#00A99D;" d="M98.1,225.6h9c1.1,0,2,0.9,2,2l0,0c0,1.1-0.9,2-2,2h-9c-1.1,0-2-0.9-2-2l0,0
				C96.1,226.5,97,225.6,98.1,225.6z"/>
			<path style="fill:#00A99D;" d="M98.1,242.2h5c1.1,0,2,0.9,2,2l0,0c0,1.1-0.9,2-2,2h-5c-1.1,0-2-0.9-2-2l0,0
				C96.1,243.1,97,242.2,98.1,242.2z"/>
			<path style="fill:#00A99D;" d="M98.1,221.5h5c1.1,0,2,0.9,2,2v0c0,1.1-0.9,2-2,2h-5c-1.1,0-2-0.9-2-2v0
				C96.1,222.4,97,221.5,98.1,221.5z"/>
			<path style="fill:#00A99D;" d="M98.1,246.3h1c1.1,0,2,0.9,2,2l0,0c0,1.1-0.9,2-2,2h-1c-1.1,0-2-0.9-2-2l0,0
				C96.1,247.2,97,246.3,98.1,246.3z"/>
			<path style="fill:#00A99D;" d="M98.1,217.3h1c1.1,0,2,0.9,2,2l0,0c0,1.1-0.9,2-2,2h-1c-1.1,0-2-0.9-2-2l0,0
				C96.1,218.2,97,217.3,98.1,217.3z"/>
		</g>
		<g>
			<path style="fill:#00A99D;" d="M86.1,238h-9c-1.1,0-2,0.9-2,2v0c0,1.1,0.9,2,2,2h9c1.1,0,2-0.9,2-2v0
				C88.1,238.9,87.2,238,86.1,238z"/>
			<path style="fill:#00A99D;" d="M86.1,233.9h-9c-1.1,0-2,0.9-2,2l0,0c0,1.1,0.9,2,2,2h9c1.1,0,2-0.9,2-2l0,0
				C88.1,234.8,87.2,233.9,86.1,233.9z"/>
			<path style="fill:#00A99D;" d="M86.1,229.8h-9c-1.1,0-2,0.9-2,2l0,0c0,1.1,0.9,2,2,2h9c1.1,0,2-0.9,2-2l0,0
				C88.1,230.7,87.2,229.8,86.1,229.8z"/>
			<path style="fill:#00A99D;" d="M86.1,225.6h-9c-1.1,0-2,0.9-2,2l0,0c0,1.1,0.9,2,2,2h9c1.1,0,2-0.9,2-2l0,0
				C88.1,226.5,87.2,225.6,86.1,225.6z"/>
			<path style="fill:#00A99D;" d="M86.1,242.2h-5c-1.1,0-2,0.9-2,2l0,0c0,1.1,0.9,2,2,2h5c1.1,0,2-0.9,2-2l0,0
				C88.1,243.1,87.2,242.2,86.1,242.2z"/>
			<path style="fill:#00A99D;" d="M86.1,221.5h-5c-1.1,0-2,0.9-2,2v0c0,1.1,0.9,2,2,2h5c1.1,0,2-0.9,2-2v0
				C88.1,222.4,87.2,221.5,86.1,221.5z"/>
			<path style="fill:#00A99D;" d="M86.1,246.3h-1c-1.1,0-2,0.9-2,2l0,0c0,1.1,0.9,2,2,2h1c1.1,0,2-0.9,2-2l0,0
				C88.1,247.2,87.2,246.3,86.1,246.3z"/>
			<path style="fill:#00A99D;" d="M86.1,217.3h-1c-1.1,0-2,0.9-2,2l0,0c0,1.1,0.9,2,2,2h1c1.1,0,2-0.9,2-2l0,0
				C88.1,218.2,87.2,217.3,86.1,217.3z"/>
		</g>
	</g>
	<g>
		<g>
			<path style="fill:#00A99D;" d="M58.4,211.3v9c0,1.1-0.9,2-2,2h0c-1.1,0-2-0.9-2-2v-9c0-1.1,0.9-2,2-2h0
				C57.5,209.3,58.4,210.2,58.4,211.3z"/>
			<path style="fill:#00A99D;" d="M62.5,211.3v9c0,1.1-0.9,2-2,2h0c-1.1,0-2-0.9-2-2v-9c0-1.1,0.9-2,2-2h0
				C61.6,209.3,62.5,210.2,62.5,211.3z"/>
			<path style="fill:#00A99D;" d="M66.6,211.3v9c0,1.1-0.9,2-2,2h0c-1.1,0-2-0.9-2-2v-9c0-1.1,0.9-2,2-2h0
				C65.7,209.3,66.6,210.2,66.6,211.3z"/>
			<path style="fill:#00A99D;" d="M70.8,211.3v9c0,1.1-0.9,2-2,2l0,0c-1.1,0-2-0.9-2-2v-9c0-1.1,0.9-2,2-2l0,0
				C69.9,209.3,70.8,210.2,70.8,211.3z"/>
			<path style="fill:#00A99D;" d="M54.2,211.3v5c0,1.1-0.9,2-2,2h0c-1.1,0-2-0.9-2-2v-5c0-1.1,0.9-2,2-2h0
				C53.3,209.3,54.2,210.2,54.2,211.3z"/>
			<path style="fill:#00A99D;" d="M74.9,211.3v5c0,1.1-0.9,2-2,2h0c-1.1,0-2-0.9-2-2v-5c0-1.1,0.9-2,2-2h0
				C74,209.3,74.9,210.2,74.9,211.3z"/>
			<path style="fill:#00A99D;" d="M50.1,211.3v1c0,1.1-0.9,2-2,2h0c-1.1,0-2-0.9-2-2v-1c0-1.1,0.9-2,2-2h0
				C49.2,209.3,50.1,210.2,50.1,211.3z"/>
			<path style="fill:#00A99D;" d="M79.1,211.3v1c0,1.1-0.9,2-2,2h0c-1.1,0-2-0.9-2-2v-1c0-1.1,0.9-2,2-2h0
				C78.2,209.3,79.1,210.2,79.1,211.3z"/>
		</g>
		<g>
			<path style="fill:#00A99D;" d="M58.4,199.3v-9c0-1.1-0.9-2-2-2h0c-1.1,0-2,0.9-2,2v9c0,1.1,0.9,2,2,2h0
				C57.5,201.3,58.4,200.4,58.4,199.3z"/>
			<path style="fill:#00A99D;" d="M62.5,199.3v-9c0-1.1-0.9-2-2-2h0c-1.1,0-2,0.9-2,2v9c0,1.1,0.9,2,2,2h0
				C61.6,201.3,62.5,200.4,62.5,199.3z"/>
			<path style="fill:#00A99D;" d="M66.6,199.3v-9c0-1.1-0.9-2-2-2h0c-1.1,0-2,0.9-2,2v9c0,1.1,0.9,2,2,2h0
				C65.7,201.3,66.6,200.4,66.6,199.3z"/>
			<path style="fill:#00A99D;" d="M70.8,199.3v-9c0-1.1-0.9-2-2-2l0,0c-1.1,0-2,0.9-2,2v9c0,1.1,0.9,2,2,2l0,0
				C69.9,201.3,70.8,200.4,70.8,199.3z"/>
			<path style="fill:#00A99D;" d="M54.2,199.3v-5c0-1.1-0.9-2-2-2h0c-1.1,0-2,0.9-2,2v5c0,1.1,0.9,2,2,2h0
				C53.3,201.3,54.2,200.4,54.2,199.3z"/>
			<path style="fill:#00A99D;" d="M74.9,199.3v-5c0-1.1-0.9-2-2-2h0c-1.1,0-2,0.9-2,2v5c0,1.1,0.9,2,2,2h0
				C74,201.3,74.9,200.4,74.9,199.3z"/>
			<path style="fill:#00A99D;" d="M50.1,199.3v-1c0-1.1-0.9-2-2-2h0c-1.1,0-2,0.9-2,2v1c0,1.1,0.9,2,2,2h0
				C49.2,201.3,50.1,200.4,50.1,199.3z"/>
			<path style="fill:#00A99D;" d="M79.1,199.3v-1c0-1.1-0.9-2-2-2h0c-1.1,0-2,0.9-2,2v1c0,1.1,0.9,2,2,2h0
				C78.2,201.3,79.1,200.4,79.1,199.3z"/>
		</g>
	</g>
	<g>
		<g>
			<path style="fill:#00A99D;" d="M163.7,208.9c-0.5,0-1-0.2-1.4-0.5c-0.9-0.8-0.9-2.1-0.2-3l0.2-0.2l-0.2-0.2
				c-0.8-0.9-0.7-2.2,0.2-3c0.9-0.8,2.2-0.7,3,0.2l2.6,3l-2.6,3C164.9,208.6,164.3,208.9,163.7,208.9z"/>
		</g>
		<g>
			<path style="fill:#00A99D;" d="M101,279.4c-0.5,0-1-0.2-1.4-0.5c-0.9-0.8-0.9-2.1-0.2-3l2.7-3.1c0.8-0.9,2.1-0.9,3-0.2
				c0.9,0.8,0.9,2.1,0.2,3l-2.7,3.1C102.2,279.2,101.6,279.4,101,279.4z M110,269.3c-0.5,0-1-0.2-1.4-0.5c-0.9-0.8-0.9-2.1-0.2-3
				l2.7-3.1c0.8-0.9,2.1-0.9,3-0.2c0.9,0.8,0.9,2.1,0.2,3l-2.7,3.1C111.2,269.1,110.6,269.3,110,269.3z M119,259.3
				c-0.5,0-1-0.2-1.4-0.5c-0.9-0.8-0.9-2.1-0.2-3l2.7-3.1c0.8-0.9,2.1-0.9,3-0.2c0.9,0.8,0.9,2.1,0.2,3l-2.7,3.1
				C120.1,259,119.5,259.3,119,259.3z M127.9,249.2c-0.5,0-1-0.2-1.4-0.5c-0.9-0.8-0.9-2.1-0.2-3l2.7-3.1c0.8-0.9,2.1-0.9,3-0.2
				c0.9,0.8,0.9,2.1,0.2,3l-2.7,3.1C129.1,248.9,128.5,249.2,127.9,249.2z M136.9,239.1c-0.5,0-1-0.2-1.4-0.5
				c-0.9-0.8-0.9-2.1-0.2-3l2.7-3.1c0.8-0.9,2.1-0.9,3-0.2c0.9,0.8,0.9,2.1,0.2,3l-2.7,3.1C138,238.9,137.5,239.1,136.9,239.1z
				 M145.8,229c-0.5,0-1-0.2-1.4-0.5c-0.9-0.8-0.9-2.1-0.2-3l2.7-3.1c0.8-0.9,2.1-0.9,3-0.2c0.9,0.8,0.9,2.1,0.2,3l-2.7,3.1
				C147,228.8,146.4,229,145.8,229z M154.8,218.9c-0.5,0-1-0.2-1.4-0.5c-0.9-0.8-0.9-2.1-0.2-3l2.7-3.1c0.8-0.9,2.1-0.9,3-0.2
				c0.9,0.8,0.9,2.1,0.2,3l-2.7,3.1C155.9,218.7,155.4,218.9,154.8,218.9z"/>
		</g>
		<g>
			<path style="fill:#00A99D;" d="M93.5,289l-3-3.2c-0.8-0.8-0.7-2.2,0.1-3c0.8-0.7,2-0.7,2.8,0c0.8-0.7,2-0.7,2.8,0
				c0.9,0.8,0.9,2.1,0.2,3L93.5,289z"/>
		</g>
		<g>
			<path style="fill:#00A99D;" d="M85.3,279.2c-0.6,0-1.1-0.2-1.5-0.7l-2.9-3.2c-0.8-0.9-0.7-2.2,0.1-3c0.8-0.8,2.2-0.7,3,0.1
				l2.9,3.2c0.8,0.9,0.7,2.2-0.1,3C86.3,279,85.8,279.2,85.3,279.2z M75.7,268.8c-0.6,0-1.1-0.2-1.5-0.7l-2.9-3.2
				c-0.8-0.9-0.7-2.2,0.1-3c0.8-0.8,2.2-0.7,3,0.1l2.9,3.2c0.8,0.9,0.7,2.2-0.1,3C76.8,268.6,76.2,268.8,75.7,268.8z M66.1,258.4
				c-0.6,0-1.1-0.2-1.5-0.7l-2.9-3.2c-0.8-0.9-0.7-2.2,0.1-3c0.8-0.8,2.2-0.7,3,0.1l2.9,3.2c0.8,0.9,0.7,2.2-0.1,3
				C67.2,258.2,66.7,258.4,66.1,258.4z M56.6,248c-0.6,0-1.1-0.2-1.5-0.7l-2.9-3.2c-0.8-0.9-0.7-2.2,0.1-3c0.8-0.8,2.2-0.7,3,0.1
				l2.9,3.2c0.8,0.9,0.7,2.2-0.1,3C57.6,247.8,57.1,248,56.6,248z M47,237.6c-0.6,0-1.1-0.2-1.5-0.7l-2.9-3.2
				c-0.8-0.9-0.7-2.2,0.1-3c0.8-0.8,2.2-0.7,3,0.1l2.9,3.2c0.8,0.9,0.7,2.2-0.1,3C48,237.4,47.5,237.6,47,237.6z M37.4,227.2
				c-0.6,0-1.1-0.2-1.5-0.7l-2.9-3.2c-0.8-0.9-0.7-2.2,0.1-3c0.8-0.8,2.2-0.7,3,0.1l2.9,3.2c0.8,0.9,0.7,2.2-0.1,3
				C38.4,227.1,37.9,227.2,37.4,227.2z M27.8,216.8c-0.6,0-1.1-0.2-1.5-0.7l-2.9-3.2c-0.8-0.9-0.7-2.2,0.1-3c0.9-0.8,2.2-0.7,3,0.1
				l2.9,3.2c0.8,0.9,0.7,2.2-0.1,3C28.8,216.7,28.3,216.8,27.8,216.8z"/>
		</g>
		<g>
			<path style="fill:#00A99D;" d="M18.2,206.4c-0.6,0-1.1-0.2-1.5-0.7l-2.7-3l2.7-3c0.8-0.9,2.1-0.9,3-0.1c0.9,0.8,0.9,2.1,0.1,3
				l-0.1,0.1l0.1,0.1c0.8,0.8,0.7,2.2-0.1,3C19.2,206.3,18.7,206.4,18.2,206.4z"/>
		</g>
		<g>
			<path style="fill:#00A99D;" d="M24.6,196.4c-0.5,0-1-0.2-1.4-0.6c-0.9-0.8-0.9-2.1-0.1-3l2.8-3.1c0.8-0.9,2.1-0.9,3-0.1
				c0.9,0.8,0.9,2.1,0.1,3l-2.8,3.1C25.7,196.1,25.2,196.4,24.6,196.4z M33.9,186.3c-0.5,0-1-0.2-1.4-0.6c-0.9-0.8-0.9-2.1-0.1-3
				l2.8-3.1c0.8-0.9,2.1-0.9,3-0.1c0.9,0.8,0.9,2.1,0.1,3l-2.8,3.1C35,186,34.4,186.3,33.9,186.3z M43.1,176.2c-0.5,0-1-0.2-1.4-0.6
				c-0.9-0.8-0.9-2.1-0.1-3l2.8-3.1c0.8-0.9,2.1-0.9,3-0.1c0.9,0.8,0.9,2.1,0.1,3l-2.8,3.1C44.3,176,43.7,176.2,43.1,176.2z
				 M52.4,166.1c-0.5,0-1-0.2-1.4-0.6c-0.9-0.8-0.9-2.1-0.1-3l2.8-3.1c0.8-0.9,2.1-0.9,3-0.1c0.9,0.8,0.9,2.1,0.1,3l-2.8,3.1
				C53.5,165.9,53,166.1,52.4,166.1z M61.7,156c-0.5,0-1-0.2-1.4-0.6c-0.9-0.8-0.9-2.1-0.1-3l2.8-3.1c0.8-0.9,2.1-0.9,3-0.1
				c0.9,0.8,0.9,2.1,0.1,3l-2.8,3.1C62.8,155.8,62.2,156,61.7,156z M70.9,145.9c-0.5,0-1-0.2-1.4-0.6c-0.9-0.8-0.9-2.1-0.1-3
				l2.8-3.1c0.8-0.9,2.1-0.9,3-0.1c0.9,0.8,0.9,2.1,0.1,3l-2.8,3.1C72.1,145.7,71.5,145.9,70.9,145.9z M80.2,135.8
				c-0.5,0-1-0.2-1.4-0.6c-0.9-0.8-0.9-2.1-0.1-3l2.8-3.1c0.8-0.9,2.1-0.9,3-0.1c0.9,0.8,0.9,2.1,0.1,3l-2.8,3.1
				C81.3,135.6,80.8,135.8,80.2,135.8z"/>
		</g>
		<g>
			<path style="fill:#00A99D;" d="M92.3,125.8c-0.5,0-1-0.2-1.4-0.6c-0.8,0.7-2,0.7-2.8,0c-0.9-0.8-0.9-2.1-0.1-3l3-3.2l2.9,3.3
				c0.8,0.9,0.7,2.2-0.2,3C93.3,125.6,92.8,125.8,92.3,125.8z"/>
		</g>
		<g>
			<path style="fill:#00A99D;" d="M157.3,198.5c-0.6,0-1.1-0.2-1.6-0.7l-2.8-3.2c-0.8-0.9-0.7-2.2,0.2-3c0.9-0.8,2.2-0.7,3,0.2
				l2.8,3.2c0.8,0.9,0.7,2.2-0.2,3C158.3,198.3,157.8,198.5,157.3,198.5z M148,188.1c-0.6,0-1.1-0.2-1.6-0.7l-2.8-3.2
				c-0.8-0.9-0.7-2.2,0.2-3c0.9-0.8,2.2-0.7,3,0.2l2.8,3.2c0.8,0.9,0.7,2.2-0.2,3C149,187.9,148.5,188.1,148,188.1z M138.7,177.7
				c-0.6,0-1.1-0.2-1.6-0.7l-2.8-3.2c-0.8-0.9-0.7-2.2,0.2-3c0.9-0.8,2.2-0.7,3,0.2l2.8,3.2c0.8,0.9,0.7,2.2-0.2,3
				C139.7,177.6,139.2,177.7,138.7,177.7z M129.4,167.3c-0.6,0-1.1-0.2-1.6-0.7l-2.8-3.2c-0.8-0.9-0.7-2.2,0.2-3
				c0.9-0.8,2.2-0.7,3,0.2l2.8,3.2c0.8,0.9,0.7,2.2-0.2,3C130.4,167.2,129.9,167.3,129.4,167.3z M120.1,157c-0.6,0-1.1-0.2-1.6-0.7
				l-2.8-3.2c-0.8-0.9-0.7-2.2,0.2-3c0.9-0.8,2.2-0.7,3,0.2l2.8,3.2c0.8,0.9,0.7,2.2-0.2,3C121.1,156.8,120.6,157,120.1,157z
				 M110.8,146.6c-0.6,0-1.1-0.2-1.6-0.7l-2.8-3.2c-0.8-0.9-0.7-2.2,0.2-3c0.9-0.8,2.2-0.7,3,0.2l2.8,3.2c0.8,0.9,0.7,2.2-0.2,3
				C111.8,146.4,111.3,146.6,110.8,146.6z M101.5,136.2c-0.6,0-1.1-0.2-1.6-0.7l-2.8-3.2c-0.8-0.9-0.7-2.2,0.2-3
				c0.9-0.8,2.2-0.7,3,0.2l2.8,3.2c0.8,0.9,0.7,2.2-0.2,3C102.5,136,102,136.2,101.5,136.2z"/>
		</g>
	</g>
	<g>
		<path style="fill:#00A99D;" d="M89.1,106.8c-0.6,0-1.1,0.2-1.5,0.7l-2.8,3.1c-0.8,0.9-0.7,2.2,0.1,3c0.4,0.4,0.9,0.6,1.4,0.6
			c0.6,0,1.1-0.2,1.5-0.7l2.8-3.1l0,0c0.8-0.9,0.7-2.2-0.1-3C90.2,107,89.6,106.8,89.1,106.8L89.1,106.8z M79.8,117
			c-0.6,0-1.1,0.2-1.5,0.7l-2.8,3.1c-0.8,0.9-0.7,2.2,0.1,3c0.4,0.4,0.9,0.6,1.4,0.6c0.6,0,1.1-0.2,1.5-0.7l2.8-3.1
			c0.8-0.9,0.7-2.2-0.1-3C80.8,117.1,80.3,117,79.8,117L79.8,117z M70.5,127.1c-0.6,0-1.1,0.2-1.5,0.7l-2.8,3.1
			c-0.8,0.9-0.7,2.2,0.1,3c0.4,0.4,0.9,0.6,1.4,0.6c0.6,0,1.1-0.2,1.5-0.7l0.9-1c0,0,0,0,0,0l0,0c0.8-0.9,1.9-2.1,1.9-2.1
			c0.8-0.9,0.7-2.2-0.1-3C71.5,127.3,71,127.1,70.5,127.1L70.5,127.1z M61.2,137.2c-0.6,0-1.1,0.2-1.5,0.7l-2.8,3.1
			c-0.8,0.9-0.7,2.2,0.1,3c0.4,0.4,0.9,0.6,1.4,0.6c0.6,0,1.1-0.2,1.5-0.7c0,0,1.1-1.2,1.9-2l0,0c0,0,0,0,0,0l0,0c0,0,0,0,0,0l0,0
			c0,0,0,0,0,0l0,0c0,0,0,0,0,0l0.9-1c0.8-0.9,0.7-2.2-0.1-3C62.2,137.4,61.7,137.2,61.2,137.2L61.2,137.2z M51.9,147.4
			c-0.6,0-1.1,0.2-1.5,0.7l-2.8,3.1c-0.8,0.9-0.7,2.2,0.1,3c0.4,0.4,0.9,0.6,1.4,0.6c0.6,0,1.1-0.2,1.5-0.7l2.8-3.1
			c0.8-0.9,0.7-2.2-0.1-3C52.9,147.6,52.4,147.4,51.9,147.4L51.9,147.4z M42.6,157.5c-0.6,0-1.1,0.2-1.5,0.7l-2.8,3.1
			c-0.8,0.9-0.7,2.2,0.1,3c0.4,0.4,0.9,0.6,1.4,0.6c0.6,0,1.1-0.2,1.5-0.7l1.5-1.6c0,0,0,0,0,0l0,0c0.7-0.7,1.3-1.4,1.3-1.4
			c0.8-0.9,0.7-2.2-0.1-3C43.6,157.7,43.1,157.5,42.6,157.5L42.6,157.5z M33.3,167.6c-0.6,0-1.1,0.2-1.5,0.7l-2.8,3.1
			c-0.8,0.9-0.7,2.2,0.1,3c0.4,0.4,0.9,0.6,1.4,0.6c0.6,0,1.1-0.2,1.5-0.7l2.8-3.1c0.8-0.9,0.7-2.2-0.1-3
			C34.3,167.8,33.8,167.6,33.3,167.6L33.3,167.6z M24,177.8c-0.6,0-1.1,0.2-1.5,0.7l-2.8,3.1c-0.8,0.9-0.7,2.2,0.1,3
			c0.4,0.4,0.9,0.6,1.4,0.6c0.6,0,1.1-0.2,1.5-0.7c0,0,0.3-0.3,0.6-0.7l0,0c0,0,0,0,0,0l0,0c0,0,0,0,0,0l2.2-2.4
			c0.8-0.9,0.7-2.2-0.1-3C25,178,24.5,177.8,24,177.8L24,177.8z M14.7,187.9c-0.6,0-1.1,0.2-1.5,0.7l-2.8,3.1
			c-0.8,0.9-0.7,2.2,0.1,3c0.4,0.4,0.9,0.6,1.4,0.6c0.6,0,1.1-0.2,1.5-0.7l2.8-3.1c0.8-0.9,0.7-2.2-0.1-3
			C15.7,188.1,15.2,187.9,14.7,187.9L14.7,187.9z M5.4,198c-0.6,0-1.1,0.2-1.5,0.7l-1,1.1l-2.6,2.8l2.6,2.8l1.8,2
			c0.4,0.4,1,0.7,1.5,0.7c0.5,0,1-0.2,1.4-0.6c0.8-0.8,0.9-2.1,0.1-3l-1.8-2c0,0,0,0,0,0l0,0c0,0,0,0,0,0l0,0c0,0,0,0,0,0l0,0
			c0,0,0,0,0,0l0,0c0,0,0,0,0,0l0,0c0,0,0,0,0,0l0,0c0,0,0,0,0,0l0,0c0,0,0,0,0,0l0,0c0,0,0,0,0,0l0,0c0,0,0,0,0,0l0,0l0,0l0,0l0,0
			l0,0c0,0,0,0,0,0l0,0c0,0,0,0,0,0l0,0c0,0,0,0,0,0l0,0c0,0,0,0,0,0l0,0c0,0,0,0,0,0l0,0c0,0,0,0,0,0l0,0c0,0,0,0,0,0l0,0
			c0,0,0,0,0,0l0,0c0,0,0,0,0,0l0,0c0,0,0,0,0,0l0,0c0,0,0,0,0,0l0,0c0,0,0,0,0,0l0,0c0.3-0.3,0.9-1,0.9-1c0.8-0.9,0.7-2.2-0.1-3
			C6.4,198.2,5.9,198,5.4,198L5.4,198z M12.7,211c-0.5,0-1,0.2-1.4,0.6c-0.8,0.8-0.9,2.1-0.1,3l2.8,3.1c0.4,0.4,1,0.7,1.5,0.7
			c0.5,0,1-0.2,1.4-0.6c0.8-0.8,0.9-2.1,0.1-3l-1.9-2.1c0,0,0,0,0,0l0,0c-0.5-0.6-0.9-1-0.9-1C13.8,211.2,13.3,211,12.7,211
			L12.7,211z M22,221.1c-0.5,0-1,0.2-1.4,0.6c-0.8,0.8-0.9,2.1-0.1,3l2.8,3.1c0.4,0.4,1,0.7,1.5,0.7c0.5,0,1-0.2,1.4-0.6
			c0.8-0.8,0.9-2.1,0.1-3c0,0-1.8-1.9-2.5-2.7l0,0c0,0,0,0,0,0l0,0c0,0,0,0,0,0l-0.3-0.3C23.2,221.3,22.6,221.1,22,221.1L22,221.1z
			 M31.4,231.2c-0.5,0-1,0.2-1.4,0.6c-0.8,0.8-0.9,2.1-0.1,3l2.8,3.1c0.4,0.4,1,0.7,1.5,0.7c0.5,0,1-0.2,1.4-0.6
			c0.8-0.8,0.9-2.1,0.1-3l-2.8-3.1C32.5,231.5,31.9,231.2,31.4,231.2L31.4,231.2z M40.7,241.3c-0.5,0-1,0.2-1.4,0.6
			c-0.8,0.8-0.9,2.1-0.1,3l2.8,3.1c0.4,0.4,1,0.7,1.5,0.7c0.5,0,1-0.2,1.4-0.6c0.8-0.8,0.9-2.1,0.1-3l-2.8-3.1
			C41.8,241.6,41.3,241.3,40.7,241.3L40.7,241.3z M50,251.5c-0.5,0-1,0.2-1.4,0.6c-0.8,0.8-0.9,2.1-0.1,3l2.8,3.1
			c0.4,0.4,1,0.7,1.5,0.7c0.5,0,1-0.2,1.4-0.6c0.8-0.8,0.9-2.1,0.1-3c0,0-0.4-0.4-0.9-1l0,0c0,0,0,0,0,0l0,0c0,0,0,0,0,0l-1.9-2.1
			C51.2,251.7,50.6,251.5,50,251.5L50,251.5z M59.4,261.6c-0.5,0-1,0.2-1.4,0.6c-0.8,0.8-0.9,2.1-0.1,3l2.8,3.1
			c0.4,0.4,1,0.7,1.5,0.7c0.5,0,1-0.2,1.4-0.6c0.8-0.8,0.9-2.1,0.1-3l-2.8-3.1C60.5,261.8,59.9,261.6,59.4,261.6L59.4,261.6z
			 M68.7,271.7c-0.5,0-1,0.2-1.4,0.6c-0.8,0.8-0.9,2.1-0.1,3l2.8,3.1c0.4,0.4,1,0.7,1.5,0.7c0.5,0,1-0.2,1.4-0.6
			c0.8-0.8,0.9-2.1,0.1-3c0,0-0.4-0.4-0.9-1l0,0c0,0,0,0,0,0l-1.9-2.1C69.8,271.9,69.3,271.7,68.7,271.7L68.7,271.7z M78,281.8
			c-0.5,0-1,0.2-1.4,0.6c-0.8,0.8-0.9,2.1-0.1,3l2.8,3.1c0.4,0.4,1,0.7,1.5,0.7c0.5,0,1-0.2,1.4-0.6c0.8-0.8,0.9-2.1,0.1-3l-2.8-3.1
			C79.2,282,78.6,281.8,78,281.8L78,281.8z M87.4,291.9c-0.5,0-1,0.2-1.4,0.6c-0.8,0.8-0.9,2.1-0.1,3l2.8,3.1c0.4,0.4,1,0.7,1.5,0.7
			c0.5,0,1-0.2,1.4-0.6c0.8-0.8,0.9-2.1,0.1-3l-1.7-1.8c0,0,0,0,0,0l0,0c0,0,0,0,0,0l0,0c-0.6-0.7-1.1-1.2-1.1-1.2
			C88.5,292.1,87.9,291.9,87.4,291.9L87.4,291.9z M102.5,288.7c-0.6,0-1.1,0.2-1.6,0.7l-2.8,3.1c-0.8,0.9-0.7,2.2,0.2,3
			c0.4,0.4,0.9,0.5,1.4,0.5c0.6,0,1.2-0.2,1.6-0.7l2.8-3.1c0.8-0.9,0.7-2.2-0.2-3C103.5,288.9,103,288.7,102.5,288.7L102.5,288.7z
			 M111.6,278.5c-0.6,0-1.2,0.2-1.6,0.7l-2.8,3.1c-0.8,0.9-0.7,2.2,0.2,3c0.4,0.4,0.9,0.5,1.4,0.5c0.6,0,1.2-0.2,1.6-0.7l2.8-3.1
			c0.8-0.9,0.7-2.2-0.2-3C112.6,278.6,112.1,278.5,111.6,278.5L111.6,278.5z M120.8,268.2c-0.6,0-1.2,0.2-1.6,0.7l-1,1.1
			c0,0,0,0,0,0l-0.1,0.1c0,0,0,0,0,0l0,0l0,0l0,0c0,0,0,0,0,0l0,0c-0.8,0.9-1.7,1.9-1.7,1.9c-0.8,0.9-0.7,2.2,0.2,3
			c0.4,0.4,0.9,0.5,1.4,0.5c0.6,0,1.2-0.2,1.6-0.7l2.8-3.1c0.8-0.9,0.7-2.2-0.2-3C121.8,268.4,121.3,268.2,120.8,268.2L120.8,268.2z
			 M129.9,257.9c-0.6,0-1.2,0.2-1.6,0.7c0,0-1.7,1.9-2.4,2.8l0,0c0,0,0,0,0,0l0,0l0,0l0,0c0,0,0,0,0,0l-0.3,0.3
			c-0.8,0.9-0.7,2.2,0.2,3c0.4,0.4,0.9,0.5,1.4,0.5c0.6,0,1.2-0.2,1.6-0.7l2.8-3.1c0.8-0.9,0.7-2.2-0.2-3
			C130.9,258.1,130.4,257.9,129.9,257.9L129.9,257.9z M139.1,247.6c-0.6,0-1.1,0.2-1.6,0.7l-2.8,3.1c-0.8,0.9-0.7,2.2,0.2,3
			c0.4,0.4,0.9,0.5,1.4,0.5c0.6,0,1.2-0.2,1.6-0.7l2.8-3.1c0.8-0.9,0.7-2.2-0.2-3C140,247.8,139.5,247.6,139.1,247.6L139.1,247.6z
			 M148.2,237.3c-0.6,0-1.2,0.2-1.6,0.7l-1,1.1c0,0,0,0,0,0l0,0c0,0,0,0,0,0l0,0.1c0,0,0,0,0,0l0,0c0,0,0,0,0,0l0,0
			c-0.8,0.9-1.7,1.9-1.7,1.9c-0.8,0.9-0.7,2.2,0.2,3c0.4,0.4,0.9,0.5,1.4,0.5c0.6,0,1.2-0.2,1.6-0.7l2.8-3.1c0.8-0.9,0.7-2.2-0.2-3
			C149.2,237.5,148.7,237.3,148.2,237.3L148.2,237.3z M157.3,227c-0.6,0-1.1,0.2-1.6,0.7l-2.8,3.1c-0.8,0.9-0.7,2.2,0.2,3
			c0.4,0.4,0.9,0.5,1.4,0.5c0.6,0,1.2-0.2,1.6-0.7l2.8-3.1c0.8-0.9,0.7-2.2-0.2-3C158.3,227.2,157.8,227,157.3,227L157.3,227z
			 M166.5,216.7c-0.6,0-1.2,0.2-1.6,0.7l-2.8,3.1c-0.8,0.9-0.7,2.2,0.2,3c0.4,0.4,0.9,0.5,1.4,0.5c0.6,0,1.2-0.2,1.6-0.7l2.8-3.1
			c0.8-0.9,0.7-2.2-0.2-3C167.5,216.9,167,216.7,166.5,216.7L166.5,216.7z M175.6,206.5c-0.6,0-1.2,0.2-1.6,0.7l-2.8,3.1
			c-0.8,0.9-0.7,2.2,0.2,3c0.4,0.4,0.9,0.5,1.4,0.5c0.6,0,1.2-0.2,1.6-0.7l2.8-3.1c0.8-0.9,0.7-2.2-0.2-3
			C176.6,206.6,176.1,206.5,175.6,206.5L175.6,206.5z M169.6,193.4c-0.5,0-1,0.2-1.4,0.5c-0.9,0.8-0.9,2.1-0.2,3l1.3,1.4
			c0,0,0,0,0,0l0,0c0,0,0,0,0,0l0,0c0,0,0,0,0,0l0,0c0,0,0,0,0,0l0,0c0,0,0,0,0,0l0,0c0.7,0.8,1.5,1.6,1.5,1.6
			c0.4,0.5,1,0.7,1.6,0.7c0.5,0,1-0.2,1.4-0.5c0.9-0.8,0.9-2.1,0.2-3l-2.8-3.1C170.8,193.6,170.2,193.4,169.6,193.4L169.6,193.4z
			 M160.5,183.2c-0.5,0-1,0.2-1.4,0.5c-0.9,0.8-0.9,2.1-0.2,3l2.8,3.1c0.4,0.5,1,0.7,1.6,0.7c0.5,0,1-0.2,1.4-0.5
			c0.9-0.8,0.9-2.1,0.2-3l-2.8-3.1C161.6,183.4,161,183.2,160.5,183.2L160.5,183.2z M151.3,172.9c-0.5,0-1,0.2-1.4,0.5
			c-0.9,0.8-0.9,2.1-0.2,3l2.1,2.4c0,0,0,0,0,0l0,0c0,0,0,0,0,0.1l0,0c0,0,0,0,0,0l0,0c0.3,0.4,0.6,0.6,0.6,0.6
			c0.4,0.5,1,0.7,1.6,0.7c0.5,0,1-0.2,1.4-0.5c0.9-0.8,0.9-2.1,0.2-3l-2.8-3.1C152.4,173.1,151.9,172.9,151.3,172.9L151.3,172.9z
			 M142.1,162.6c-0.5,0-1,0.2-1.4,0.5c-0.9,0.8-0.9,2.1-0.2,3l2.8,3.1c0.4,0.5,1,0.7,1.6,0.7c0.5,0,1-0.2,1.4-0.5
			c0.9-0.8,0.9-2.1,0.2-3l-2.8-3.1C143.3,162.9,142.7,162.6,142.1,162.6L142.1,162.6z M132.9,152.4c-0.5,0-1,0.2-1.4,0.5
			c-0.9,0.8-0.9,2.1-0.2,3l2.8,3.1c0.4,0.5,1,0.7,1.6,0.7c0.5,0,1-0.2,1.4-0.5c0.9-0.8,0.9-2.1,0.2-3l-2.8-3.1
			C134.1,152.6,133.5,152.4,132.9,152.4L132.9,152.4z M123.8,142.1c-0.5,0-1,0.2-1.4,0.5c-0.9,0.8-0.9,2.1-0.2,3
			c0,0,0.2,0.2,0.5,0.6l0,0c0,0,0,0,0,0l0,0c0,0,0,0,0,0l2.3,2.5c0.4,0.5,1,0.7,1.6,0.7c0.5,0,1-0.2,1.4-0.5c0.9-0.8,0.9-2.1,0.2-3
			l-2.8-3.1C124.9,142.4,124.3,142.1,123.8,142.1L123.8,142.1z M114.6,131.9c-0.5,0-1,0.2-1.4,0.5c-0.9,0.8-0.9,2.1-0.2,3l2.8,3.1
			c0.4,0.5,1,0.7,1.6,0.7c0.5,0,1-0.2,1.4-0.5c0.9-0.8,0.9-2.1,0.2-3l-2.8-3.1C115.7,132.1,115.2,131.9,114.6,131.9L114.6,131.9z
			 M105.4,121.6c-0.5,0-1,0.2-1.4,0.5c-0.9,0.8-0.9,2.1-0.2,3l2.8,3.1c0.4,0.5,1,0.7,1.6,0.7c0.5,0,1-0.2,1.4-0.5
			c0.9-0.8,0.9-2.1,0.2-3l-2.8-3.1C106.6,121.8,106,121.6,105.4,121.6L105.4,121.6z M96.3,111.3c-0.5,0-1,0.2-1.4,0.5
			c-0.9,0.8-0.9,2.1-0.2,3c0,0,1.4,1.5,2.2,2.4l0.6,0.7c0.4,0.5,1,0.7,1.6,0.7c0.5,0,1-0.2,1.4-0.5c0.9-0.8,0.9-2.1,0.2-3l-2.8-3.1
			C97.4,111.6,96.8,111.3,96.3,111.3L96.3,111.3z"/>
	</g>
</g>
<g>
	<path style="fill:#F7931E;" d="M200.4,95.6h-5.6V90c0-1.4-1.1-2.5-2.5-2.5c-1.4,0-2.5,1.1-2.5,2.5v5.6h-5.6c-1.4,0-2.5,1.1-2.5,2.5
		c0,1.4,1.1,2.5,2.5,2.5h5.6v5.6c0,1.4,1.1,2.5,2.5,2.5c1.4,0,2.5-1.1,2.5-2.5v-5.6h5.6c1.4,0,2.5-1.1,2.5-2.5
		C202.9,96.7,201.8,95.6,200.4,95.6z"/>
	<path style="fill:#F7931E;" d="M186.2,64.5h-9c-1.1,0-2-0.9-2-2v0c0-1.1,0.9-2,2-2h9c1.1,0,2,0.9,2,2v0
		C188.2,63.6,187.3,64.5,186.2,64.5z"/>
	<path style="fill:#F7931E;" d="M186.2,68.7h-9c-1.1,0-2-0.9-2-2v0c0-1.1,0.9-2,2-2h9c1.1,0,2,0.9,2,2v0
		C188.2,67.8,187.3,68.7,186.2,68.7z"/>
	<path style="fill:#F7931E;" d="M186.2,72.8h-9c-1.1,0-2-0.9-2-2v0c0-1.1,0.9-2,2-2h9c1.1,0,2,0.9,2,2v0
		C188.2,71.9,187.3,72.8,186.2,72.8z"/>
	<path style="fill:#F7931E;" d="M186.2,76.9h-9c-1.1,0-2-0.9-2-2l0,0c0-1.1,0.9-2,2-2h9c1.1,0,2,0.9,2,2l0,0
		C188.2,76,187.3,76.9,186.2,76.9z"/>
	<path style="fill:#F7931E;" d="M186.2,60.4h-5c-1.1,0-2-0.9-2-2v0c0-1.1,0.9-2,2-2h5c1.1,0,2,0.9,2,2v0
		C188.2,59.5,187.3,60.4,186.2,60.4z"/>
	<path style="fill:#F7931E;" d="M186.2,81.1h-5c-1.1,0-2-0.9-2-2v0c0-1.1,0.9-2,2-2h5c1.1,0,2,0.9,2,2v0
		C188.2,80.2,187.3,81.1,186.2,81.1z"/>
	<path style="fill:#F7931E;" d="M186.2,56.2h-1c-1.1,0-2-0.9-2-2v0c0-1.1,0.9-2,2-2h1c1.1,0,2,0.9,2,2v0
		C188.2,55.3,187.3,56.2,186.2,56.2z"/>
	<path style="fill:#F7931E;" d="M186.2,85.2h-1c-1.1,0-2-0.9-2-2l0,0c0-1.1,0.9-2,2-2h1c1.1,0,2,0.9,2,2l0,0
		C188.2,84.3,187.3,85.2,186.2,85.2z"/>
	<path style="fill:#F7931E;" d="M198.2,64.5h9c1.1,0,2-0.9,2-2v0c0-1.1-0.9-2-2-2h-9c-1.1,0-2,0.9-2,2v0
		C196.2,63.6,197.1,64.5,198.2,64.5z"/>
	<path style="fill:#F7931E;" d="M198.2,68.7h9c1.1,0,2-0.9,2-2v0c0-1.1-0.9-2-2-2h-9c-1.1,0-2,0.9-2,2v0
		C196.2,67.8,197.1,68.7,198.2,68.7z"/>
	<path style="fill:#F7931E;" d="M198.2,72.8h9c1.1,0,2-0.9,2-2v0c0-1.1-0.9-2-2-2h-9c-1.1,0-2,0.9-2,2v0
		C196.2,71.9,197.1,72.8,198.2,72.8z"/>
	<path style="fill:#F7931E;" d="M198.2,76.9h9c1.1,0,2-0.9,2-2l0,0c0-1.1-0.9-2-2-2h-9c-1.1,0-2,0.9-2,2l0,0
		C196.2,76,197.1,76.9,198.2,76.9z"/>
	<path style="fill:#F7931E;" d="M198.2,60.4h5c1.1,0,2-0.9,2-2v0c0-1.1-0.9-2-2-2h-5c-1.1,0-2,0.9-2,2v0
		C196.2,59.5,197.1,60.4,198.2,60.4z"/>
	<path style="fill:#F7931E;" d="M198.2,81.1h5c1.1,0,2-0.9,2-2v0c0-1.1-0.9-2-2-2h-5c-1.1,0-2,0.9-2,2v0
		C196.2,80.2,197.1,81.1,198.2,81.1z"/>
	<path style="fill:#F7931E;" d="M198.2,56.2h1c1.1,0,2-0.9,2-2v0c0-1.1-0.9-2-2-2h-1c-1.1,0-2,0.9-2,2v0
		C196.2,55.3,197.1,56.2,198.2,56.2z"/>
	<path style="fill:#F7931E;" d="M198.2,85.2h1c1.1,0,2-0.9,2-2l0,0c0-1.1-0.9-2-2-2h-1c-1.1,0-2,0.9-2,2l0,0
		C196.2,84.3,197.1,85.2,198.2,85.2z"/>
	<path style="fill:#F7931E;" d="M225.9,91.2v-9c0-1.1,0.9-2,2-2l0,0c1.1,0,2,0.9,2,2v9c0,1.1-0.9,2-2,2l0,0
		C226.8,93.2,225.9,92.3,225.9,91.2z"/>
	<path style="fill:#F7931E;" d="M221.7,91.2v-9c0-1.1,0.9-2,2-2l0,0c1.1,0,2,0.9,2,2v9c0,1.1-0.9,2-2,2l0,0
		C222.6,93.2,221.7,92.3,221.7,91.2z"/>
	<path style="fill:#F7931E;" d="M217.6,91.2v-9c0-1.1,0.9-2,2-2h0c1.1,0,2,0.9,2,2v9c0,1.1-0.9,2-2,2h0
		C218.5,93.2,217.6,92.3,217.6,91.2z"/>
	<path style="fill:#F7931E;" d="M213.5,91.2v-9c0-1.1,0.9-2,2-2l0,0c1.1,0,2,0.9,2,2v9c0,1.1-0.9,2-2,2l0,0
		C214.3,93.2,213.5,92.3,213.5,91.2z"/>
	<path style="fill:#F7931E;" d="M230,91.2v-5c0-1.1,0.9-2,2-2h0c1.1,0,2,0.9,2,2v5c0,1.1-0.9,2-2,2h0C230.9,93.2,230,92.3,230,91.2z
		"/>
	<path style="fill:#F7931E;" d="M209.3,91.2v-5c0-1.1,0.9-2,2-2l0,0c1.1,0,2,0.9,2,2v5c0,1.1-0.9,2-2,2l0,0
		C210.2,93.2,209.3,92.3,209.3,91.2z"/>
	<path style="fill:#F7931E;" d="M234.2,91.2v-1c0-1.1,0.9-2,2-2l0,0c1.1,0,2,0.9,2,2v1c0,1.1-0.9,2-2,2l0,0
		C235.1,93.2,234.2,92.3,234.2,91.2z"/>
	<path style="fill:#F7931E;" d="M205.2,91.2v-1c0-1.1,0.9-2,2-2l0,0c1.1,0,2,0.9,2,2v1c0,1.1-0.9,2-2,2l0,0
		C206.1,93.2,205.2,92.3,205.2,91.2z"/>
	<path style="fill:#F7931E;" d="M225.9,103.2v9c0,1.1,0.9,2,2,2l0,0c1.1,0,2-0.9,2-2v-9c0-1.1-0.9-2-2-2l0,0
		C226.8,101.2,225.9,102.1,225.9,103.2z"/>
	<path style="fill:#F7931E;" d="M221.7,103.2v9c0,1.1,0.9,2,2,2l0,0c1.1,0,2-0.9,2-2v-9c0-1.1-0.9-2-2-2l0,0
		C222.6,101.2,221.7,102.1,221.7,103.2z"/>
	<path style="fill:#F7931E;" d="M217.6,103.2v9c0,1.1,0.9,2,2,2h0c1.1,0,2-0.9,2-2v-9c0-1.1-0.9-2-2-2h0
		C218.5,101.2,217.6,102.1,217.6,103.2z"/>
	<path style="fill:#F7931E;" d="M213.5,103.2v9c0,1.1,0.9,2,2,2l0,0c1.1,0,2-0.9,2-2v-9c0-1.1-0.9-2-2-2l0,0
		C214.3,101.2,213.5,102.1,213.5,103.2z"/>
	<path style="fill:#F7931E;" d="M230,103.2v5c0,1.1,0.9,2,2,2h0c1.1,0,2-0.9,2-2v-5c0-1.1-0.9-2-2-2h0
		C230.9,101.2,230,102.1,230,103.2z"/>
	<path style="fill:#F7931E;" d="M209.3,103.2v5c0,1.1,0.9,2,2,2l0,0c1.1,0,2-0.9,2-2v-5c0-1.1-0.9-2-2-2l0,0
		C210.2,101.2,209.3,102.1,209.3,103.2z"/>
	<path style="fill:#F7931E;" d="M234.2,103.2v1c0,1.1,0.9,2,2,2l0,0c1.1,0,2-0.9,2-2v-1c0-1.1-0.9-2-2-2l0,0
		C235.1,101.2,234.2,102.1,234.2,103.2z"/>
	<path style="fill:#F7931E;" d="M205.2,103.2v1c0,1.1,0.9,2,2,2l0,0c1.1,0,2-0.9,2-2v-1c0-1.1-0.9-2-2-2l0,0
		C206.1,101.2,205.2,102.1,205.2,103.2z"/>
	<path style="fill:#F7931E;" d="M199.2,130.9h9c1.1,0,2,0.9,2,2l0,0c0,1.1-0.9,2-2,2h-9c-1.1,0-2-0.9-2-2l0,0
		C197.2,131.8,198.1,130.9,199.2,130.9z"/>
	<path style="fill:#F7931E;" d="M199.2,126.8h9c1.1,0,2,0.9,2,2l0,0c0,1.1-0.9,2-2,2h-9c-1.1,0-2-0.9-2-2l0,0
		C197.2,127.7,198.1,126.8,199.2,126.8z"/>
	<path style="fill:#F7931E;" d="M199.2,122.7h9c1.1,0,2,0.9,2,2l0,0c0,1.1-0.9,2-2,2h-9c-1.1,0-2-0.9-2-2l0,0
		C197.2,123.6,198.1,122.7,199.2,122.7z"/>
	<path style="fill:#F7931E;" d="M199.2,118.5h9c1.1,0,2,0.9,2,2l0,0c0,1.1-0.9,2-2,2h-9c-1.1,0-2-0.9-2-2l0,0
		C197.2,119.4,198.1,118.5,199.2,118.5z"/>
	<path style="fill:#F7931E;" d="M199.2,135.1h5c1.1,0,2,0.9,2,2l0,0c0,1.1-0.9,2-2,2h-5c-1.1,0-2-0.9-2-2l0,0
		C197.2,136,198.1,135.1,199.2,135.1z"/>
	<path style="fill:#F7931E;" d="M199.2,114.4h5c1.1,0,2,0.9,2,2v0c0,1.1-0.9,2-2,2h-5c-1.1,0-2-0.9-2-2v0
		C197.2,115.3,198.1,114.4,199.2,114.4z"/>
	<path style="fill:#F7931E;" d="M199.2,139.2h1c1.1,0,2,0.9,2,2v0c0,1.1-0.9,2-2,2h-1c-1.1,0-2-0.9-2-2v0
		C197.2,140.1,198.1,139.2,199.2,139.2z"/>
	<path style="fill:#F7931E;" d="M199.2,110.2h1c1.1,0,2,0.9,2,2l0,0c0,1.1-0.9,2-2,2h-1c-1.1,0-2-0.9-2-2l0,0
		C197.2,111.1,198.1,110.2,199.2,110.2z"/>
	<path style="fill:#F7931E;" d="M187.2,130.9h-9c-1.1,0-2,0.9-2,2l0,0c0,1.1,0.9,2,2,2h9c1.1,0,2-0.9,2-2l0,0
		C189.2,131.8,188.3,130.9,187.2,130.9z"/>
	<path style="fill:#F7931E;" d="M187.2,126.8h-9c-1.1,0-2,0.9-2,2l0,0c0,1.1,0.9,2,2,2h9c1.1,0,2-0.9,2-2l0,0
		C189.2,127.7,188.3,126.8,187.2,126.8z"/>
	<path style="fill:#F7931E;" d="M187.2,122.7h-9c-1.1,0-2,0.9-2,2l0,0c0,1.1,0.9,2,2,2h9c1.1,0,2-0.9,2-2l0,0
		C189.2,123.6,188.3,122.7,187.2,122.7z"/>
	<path style="fill:#F7931E;" d="M187.2,118.5h-9c-1.1,0-2,0.9-2,2l0,0c0,1.1,0.9,2,2,2h9c1.1,0,2-0.9,2-2l0,0
		C189.2,119.4,188.3,118.5,187.2,118.5z"/>
	<path style="fill:#F7931E;" d="M187.2,135.1h-5c-1.1,0-2,0.9-2,2l0,0c0,1.1,0.9,2,2,2h5c1.1,0,2-0.9,2-2l0,0
		C189.2,136,188.3,135.1,187.2,135.1z"/>
	<path style="fill:#F7931E;" d="M187.2,114.4h-5c-1.1,0-2,0.9-2,2v0c0,1.1,0.9,2,2,2h5c1.1,0,2-0.9,2-2v0
		C189.2,115.3,188.3,114.4,187.2,114.4z"/>
	<path style="fill:#F7931E;" d="M187.2,139.2h-1c-1.1,0-2,0.9-2,2v0c0,1.1,0.9,2,2,2h1c1.1,0,2-0.9,2-2v0
		C189.2,140.1,188.3,139.2,187.2,139.2z"/>
	<path style="fill:#F7931E;" d="M187.2,110.2h-1c-1.1,0-2,0.9-2,2l0,0c0,1.1,0.9,2,2,2h1c1.1,0,2-0.9,2-2l0,0
		C189.2,111.1,188.3,110.2,187.2,110.2z"/>
	<path style="fill:#F7931E;" d="M159.5,104.2v9c0,1.1-0.9,2-2,2l0,0c-1.1,0-2-0.9-2-2v-9c0-1.1,0.9-2,2-2l0,0
		C158.6,102.2,159.5,103.1,159.5,104.2z"/>
	<path style="fill:#F7931E;" d="M163.6,104.2v9c0,1.1-0.9,2-2,2h0c-1.1,0-2-0.9-2-2v-9c0-1.1,0.9-2,2-2h0
		C162.7,102.2,163.6,103.1,163.6,104.2z"/>
	<path style="fill:#F7931E;" d="M167.7,104.2v9c0,1.1-0.9,2-2,2l0,0c-1.1,0-2-0.9-2-2v-9c0-1.1,0.9-2,2-2l0,0
		C166.8,102.2,167.7,103.1,167.7,104.2z"/>
	<path style="fill:#F7931E;" d="M171.9,104.2v9c0,1.1-0.9,2-2,2l0,0c-1.1,0-2-0.9-2-2v-9c0-1.1,0.9-2,2-2l0,0
		C171,102.2,171.9,103.1,171.9,104.2z"/>
	<path style="fill:#F7931E;" d="M155.3,104.2v5c0,1.1-0.9,2-2,2l0,0c-1.1,0-2-0.9-2-2v-5c0-1.1,0.9-2,2-2l0,0
		C154.4,102.2,155.3,103.1,155.3,104.2z"/>
	<path style="fill:#F7931E;" d="M176,104.2v5c0,1.1-0.9,2-2,2h0c-1.1,0-2-0.9-2-2v-5c0-1.1,0.9-2,2-2h0
		C175.1,102.2,176,103.1,176,104.2z"/>
	<path style="fill:#F7931E;" d="M151.2,104.2v1c0,1.1-0.9,2-2,2l0,0c-1.1,0-2-0.9-2-2v-1c0-1.1,0.9-2,2-2l0,0
		C150.3,102.2,151.2,103.1,151.2,104.2z"/>
	<path style="fill:#F7931E;" d="M180.2,104.2v1c0,1.1-0.9,2-2,2l0,0c-1.1,0-2-0.9-2-2v-1c0-1.1,0.9-2,2-2l0,0
		C179.3,102.2,180.2,103.1,180.2,104.2z"/>
	<path style="fill:#F7931E;" d="M159.5,92.2v-9c0-1.1-0.9-2-2-2l0,0c-1.1,0-2,0.9-2,2v9c0,1.1,0.9,2,2,2l0,0
		C158.6,94.2,159.5,93.3,159.5,92.2z"/>
	<path style="fill:#F7931E;" d="M163.6,92.2v-9c0-1.1-0.9-2-2-2h0c-1.1,0-2,0.9-2,2v9c0,1.1,0.9,2,2,2h0
		C162.7,94.2,163.6,93.3,163.6,92.2z"/>
	<path style="fill:#F7931E;" d="M167.7,92.2v-9c0-1.1-0.9-2-2-2l0,0c-1.1,0-2,0.9-2,2v9c0,1.1,0.9,2,2,2l0,0
		C166.8,94.2,167.7,93.3,167.7,92.2z"/>
	<path style="fill:#F7931E;" d="M171.9,92.2v-9c0-1.1-0.9-2-2-2l0,0c-1.1,0-2,0.9-2,2v9c0,1.1,0.9,2,2,2l0,0
		C171,94.2,171.9,93.3,171.9,92.2z"/>
	<path style="fill:#F7931E;" d="M155.3,92.2v-5c0-1.1-0.9-2-2-2l0,0c-1.1,0-2,0.9-2,2v5c0,1.1,0.9,2,2,2l0,0
		C154.4,94.2,155.3,93.3,155.3,92.2z"/>
	<path style="fill:#F7931E;" d="M176,92.2v-5c0-1.1-0.9-2-2-2h0c-1.1,0-2,0.9-2,2v5c0,1.1,0.9,2,2,2h0C175.1,94.2,176,93.3,176,92.2
		z"/>
	<path style="fill:#F7931E;" d="M151.2,92.2v-1c0-1.1-0.9-2-2-2l0,0c-1.1,0-2,0.9-2,2v1c0,1.1,0.9,2,2,2l0,0
		C150.3,94.2,151.2,93.3,151.2,92.2z"/>
	<path style="fill:#F7931E;" d="M180.2,92.2v-1c0-1.1-0.9-2-2-2l0,0c-1.1,0-2,0.9-2,2v1c0,1.1,0.9,2,2,2l0,0
		C179.3,94.2,180.2,93.3,180.2,92.2z"/>
	<path style="fill:#F7931E;" d="M264.8,101.8c-0.5,0-1-0.2-1.4-0.5c-0.9-0.8-0.9-2.1-0.2-3l0.2-0.2l-0.2-0.2c-0.8-0.9-0.7-2.2,0.2-3
		c0.9-0.8,2.2-0.7,3,0.2l2.6,3l-2.6,3C266,101.5,265.4,101.8,264.8,101.8z"/>
	<path style="fill:#F7931E;" d="M202.1,172.3c-0.5,0-1-0.2-1.4-0.5c-0.9-0.8-0.9-2.1-0.2-3l2.7-3.1c0.8-0.9,2.1-0.9,3-0.2
		c0.9,0.8,0.9,2.1,0.2,3l-2.7,3.1C203.3,172.1,202.7,172.3,202.1,172.3z M211.1,162.2c-0.5,0-1-0.2-1.4-0.5c-0.9-0.8-0.9-2.1-0.2-3
		l2.7-3.1c0.8-0.9,2.1-0.9,3-0.2c0.9,0.8,0.9,2.1,0.2,3l-2.7,3.1C212.3,162,211.7,162.2,211.1,162.2z M220.1,152.2
		c-0.5,0-1-0.2-1.4-0.5c-0.9-0.8-0.9-2.1-0.2-3l2.7-3.1c0.8-0.9,2.1-0.9,3-0.2c0.9,0.8,0.9,2.1,0.2,3l-2.7,3.1
		C221.2,151.9,220.6,152.2,220.1,152.2z M229,142.1c-0.5,0-1-0.2-1.4-0.5c-0.9-0.8-0.9-2.1-0.2-3l2.7-3.1c0.8-0.9,2.1-0.9,3-0.2
		c0.9,0.8,0.9,2.1,0.2,3l-2.7,3.1C230.2,141.8,229.6,142.1,229,142.1z M238,132c-0.5,0-1-0.2-1.4-0.5c-0.9-0.8-0.9-2.1-0.2-3
		l2.7-3.1c0.8-0.9,2.1-0.9,3-0.2c0.9,0.8,0.9,2.1,0.2,3l-2.7,3.1C239.1,131.8,238.6,132,238,132z M246.9,121.9c-0.5,0-1-0.2-1.4-0.5
		c-0.9-0.8-0.9-2.1-0.2-3l2.7-3.1c0.8-0.9,2.1-0.9,3-0.2c0.9,0.8,0.9,2.1,0.2,3l-2.7,3.1C248.1,121.7,247.5,121.9,246.9,121.9z
		 M255.9,111.8c-0.5,0-1-0.2-1.4-0.5c-0.9-0.8-0.9-2.1-0.2-3l2.7-3.1c0.8-0.9,2.1-0.9,3-0.2c0.9,0.8,0.9,2.1,0.2,3l-2.7,3.1
		C257,111.6,256.5,111.8,255.9,111.8z"/>
	<path style="fill:#F7931E;" d="M194.6,181.9l-3-3.2c-0.8-0.8-0.7-2.2,0.1-3c0.8-0.7,2-0.7,2.8,0c0.8-0.7,2-0.7,2.8,0
		c0.9,0.8,0.9,2.1,0.2,3L194.6,181.9z"/>
	<path style="fill:#F7931E;" d="M186.4,172.1c-0.6,0-1.1-0.2-1.5-0.7l-2.9-3.2c-0.8-0.9-0.7-2.2,0.1-3c0.8-0.8,2.2-0.7,3,0.1
		l2.9,3.2c0.8,0.9,0.7,2.2-0.1,3C187.4,171.9,186.9,172.1,186.4,172.1z M176.8,161.7c-0.6,0-1.1-0.2-1.5-0.7l-2.9-3.2
		c-0.8-0.9-0.7-2.2,0.1-3c0.8-0.8,2.2-0.7,3,0.1l2.9,3.2c0.8,0.9,0.7,2.2-0.1,3C177.9,161.5,177.3,161.7,176.8,161.7z M167.2,151.3
		c-0.6,0-1.1-0.2-1.5-0.7l-2.9-3.2c-0.8-0.9-0.7-2.2,0.1-3c0.8-0.8,2.2-0.7,3,0.1l2.9,3.2c0.8,0.9,0.7,2.2-0.1,3
		C168.3,151.1,167.8,151.3,167.2,151.3z M157.7,140.9c-0.6,0-1.1-0.2-1.5-0.7l-2.9-3.2c-0.8-0.9-0.7-2.2,0.1-3
		c0.8-0.8,2.2-0.7,3,0.1l2.9,3.2c0.8,0.9,0.7,2.2-0.1,3C158.7,140.7,158.2,140.9,157.7,140.9z M148.1,130.5c-0.6,0-1.1-0.2-1.5-0.7
		l-2.9-3.2c-0.8-0.9-0.7-2.2,0.1-3c0.8-0.8,2.2-0.7,3,0.1l2.9,3.2c0.8,0.9,0.7,2.2-0.1,3C149.1,130.3,148.6,130.5,148.1,130.5z
		 M138.5,120.1c-0.6,0-1.1-0.2-1.5-0.7l-2.9-3.2c-0.8-0.9-0.7-2.2,0.1-3c0.8-0.8,2.2-0.7,3,0.1l2.9,3.2c0.8,0.9,0.7,2.2-0.1,3
		C139.5,120,139,120.1,138.5,120.1z M128.9,109.7c-0.6,0-1.1-0.2-1.5-0.7l-2.9-3.2c-0.8-0.9-0.7-2.2,0.1-3c0.9-0.8,2.2-0.7,3,0.1
		l2.9,3.2c0.8,0.9,0.7,2.2-0.1,3C129.9,109.6,129.4,109.7,128.9,109.7z"/>
	<path style="fill:#F7931E;" d="M119.3,99.3c-0.6,0-1.1-0.2-1.5-0.7l-2.7-3l2.7-3c0.8-0.9,2.1-0.9,3-0.1c0.9,0.8,0.9,2.1,0.1,3
		l-0.1,0.1l0.1,0.1c0.8,0.8,0.7,2.2-0.1,3C120.3,99.2,119.8,99.3,119.3,99.3z"/>
	<path style="fill:#F7931E;" d="M125.7,89.2c-0.5,0-1-0.2-1.4-0.6c-0.9-0.8-0.9-2.1-0.1-3l2.8-3.1c0.8-0.9,2.1-0.9,3-0.1
		c0.9,0.8,0.9,2.1,0.1,3l-2.8,3.1C126.8,89,126.3,89.2,125.7,89.2z M135,79.2c-0.5,0-1-0.2-1.4-0.6c-0.9-0.8-0.9-2.1-0.1-3l2.8-3.1
		c0.8-0.9,2.1-0.9,3-0.1c0.9,0.8,0.9,2.1,0.1,3l-2.8,3.1C136.1,78.9,135.5,79.2,135,79.2z M144.2,69.1c-0.5,0-1-0.2-1.4-0.6
		c-0.9-0.8-0.9-2.1-0.1-3l2.8-3.1c0.8-0.9,2.1-0.9,3-0.1c0.9,0.8,0.9,2.1,0.1,3l-2.8,3.1C145.4,68.9,144.8,69.1,144.2,69.1z
		 M153.5,59c-0.5,0-1-0.2-1.4-0.6c-0.9-0.8-0.9-2.1-0.1-3l2.8-3.1c0.8-0.9,2.1-0.9,3-0.1c0.9,0.8,0.9,2.1,0.1,3l-2.8,3.1
		C154.6,58.8,154.1,59,153.5,59z M162.8,48.9c-0.5,0-1-0.2-1.4-0.6c-0.9-0.8-0.9-2.1-0.1-3l2.8-3.1c0.8-0.9,2.1-0.9,3-0.1
		c0.9,0.8,0.9,2.1,0.1,3l-2.8,3.1C163.9,48.7,163.3,48.9,162.8,48.9z M172,38.8c-0.5,0-1-0.2-1.4-0.6c-0.9-0.8-0.9-2.1-0.1-3
		l2.8-3.1c0.8-0.9,2.1-0.9,3-0.1c0.9,0.8,0.9,2.1,0.1,3l-2.8,3.1C173.2,38.6,172.6,38.8,172,38.8z M181.3,28.7c-0.5,0-1-0.2-1.4-0.6
		c-0.9-0.8-0.9-2.1-0.1-3l2.8-3.1c0.8-0.9,2.1-0.9,3-0.1c0.9,0.8,0.9,2.1,0.1,3l-2.8,3.1C182.4,28.5,181.9,28.7,181.3,28.7z"/>
	<path style="fill:#F7931E;" d="M193.4,18.7c-0.5,0-1-0.2-1.4-0.6c-0.8,0.7-2,0.7-2.8,0c-0.9-0.8-0.9-2.1-0.1-3l3-3.2l2.9,3.3
		c0.8,0.9,0.7,2.2-0.2,3C194.4,18.5,193.9,18.7,193.4,18.7z"/>
	<path style="fill:#F7931E;" d="M258.4,91.4c-0.6,0-1.1-0.2-1.6-0.7l-2.8-3.2c-0.8-0.9-0.7-2.2,0.2-3c0.9-0.8,2.2-0.7,3,0.2l2.8,3.2
		c0.8,0.9,0.7,2.2-0.2,3C259.4,91.2,258.9,91.4,258.4,91.4z M249.1,81c-0.6,0-1.1-0.2-1.6-0.7l-2.8-3.2c-0.8-0.9-0.7-2.2,0.2-3
		c0.9-0.8,2.2-0.7,3,0.2l2.8,3.2c0.8,0.9,0.7,2.2-0.2,3C250.1,80.8,249.6,81,249.1,81z M239.8,70.6c-0.6,0-1.1-0.2-1.6-0.7l-2.8-3.2
		c-0.8-0.9-0.7-2.2,0.2-3c0.9-0.8,2.2-0.7,3,0.2l2.8,3.2c0.8,0.9,0.7,2.2-0.2,3C240.8,70.5,240.3,70.6,239.8,70.6z M230.5,60.2
		c-0.6,0-1.1-0.2-1.6-0.7l-2.8-3.2c-0.8-0.9-0.7-2.2,0.2-3c0.9-0.8,2.2-0.7,3,0.2l2.8,3.2c0.8,0.9,0.7,2.2-0.2,3
		C231.5,60.1,231,60.2,230.5,60.2z M221.2,49.9c-0.6,0-1.1-0.2-1.6-0.7l-2.8-3.2c-0.8-0.9-0.7-2.2,0.2-3c0.9-0.8,2.2-0.7,3,0.2
		l2.8,3.2c0.8,0.9,0.7,2.2-0.2,3C222.2,49.7,221.7,49.9,221.2,49.9z M211.9,39.5c-0.6,0-1.1-0.2-1.6-0.7l-2.8-3.2
		c-0.8-0.9-0.7-2.2,0.2-3c0.9-0.8,2.2-0.7,3,0.2l2.8,3.2c0.8,0.9,0.7,2.2-0.2,3C212.9,39.3,212.4,39.5,211.9,39.5z M202.7,29.1
		c-0.6,0-1.1-0.2-1.6-0.7l-2.8-3.2c-0.8-0.9-0.7-2.2,0.2-3c0.9-0.8,2.2-0.7,3,0.2l2.8,3.2c0.8,0.9,0.7,2.2-0.2,3
		C203.6,28.9,203.1,29.1,202.7,29.1z"/>
	<path style="fill:#F7931E;" d="M190.2-0.3c-0.6,0-1.1,0.2-1.5,0.7l-2.8,3.1c-0.8,0.9-0.7,2.2,0.1,3c0.4,0.4,0.9,0.6,1.4,0.6
		c0.6,0,1.1-0.2,1.5-0.7l2.8-3.1l0,0c0.8-0.9,0.7-2.2-0.1-3C191.3-0.1,190.7-0.3,190.2-0.3L190.2-0.3z M180.9,9.9
		c-0.6,0-1.1,0.2-1.5,0.7l-2.8,3.1c-0.8,0.9-0.7,2.2,0.1,3c0.4,0.4,0.9,0.6,1.4,0.6c0.6,0,1.1-0.2,1.5-0.7l2.8-3.1
		c0.8-0.9,0.7-2.2-0.1-3C181.9,10,181.4,9.9,180.9,9.9L180.9,9.9z M171.6,20c-0.6,0-1.1,0.2-1.5,0.7l-2.8,3.1
		c-0.8,0.9-0.7,2.2,0.1,3c0.4,0.4,0.9,0.6,1.4,0.6c0.6,0,1.1-0.2,1.5-0.7l0.9-1c0,0,0,0,0,0l0,0c0.8-0.9,1.9-2.1,1.9-2.1
		c0.8-0.9,0.7-2.2-0.1-3C172.6,20.2,172.1,20,171.6,20L171.6,20z M162.3,30.1c-0.6,0-1.1,0.2-1.5,0.7l-2.8,3.1
		c-0.8,0.9-0.7,2.2,0.1,3c0.4,0.4,0.9,0.6,1.4,0.6c0.6,0,1.1-0.2,1.5-0.7c0,0,1.1-1.2,1.9-2l0,0c0,0,0,0,0,0l0,0c0,0,0,0,0,0l0,0
		c0,0,0,0,0,0l0,0c0,0,0,0,0,0l0.9-1c0.8-0.9,0.7-2.2-0.1-3C163.3,30.3,162.8,30.1,162.3,30.1L162.3,30.1z M153,40.3
		c-0.6,0-1.1,0.2-1.5,0.7l-2.8,3.1c-0.8,0.9-0.7,2.2,0.1,3c0.4,0.4,0.9,0.6,1.4,0.6c0.6,0,1.1-0.2,1.5-0.7l2.8-3.1
		c0.8-0.9,0.7-2.2-0.1-3C154,40.5,153.5,40.3,153,40.3L153,40.3z M143.7,50.4c-0.6,0-1.1,0.2-1.5,0.7l-2.8,3.1
		c-0.8,0.9-0.7,2.2,0.1,3c0.4,0.4,0.9,0.6,1.4,0.6c0.6,0,1.1-0.2,1.5-0.7l1.5-1.6c0,0,0,0,0,0l0,0c0.7-0.7,1.3-1.4,1.3-1.4
		c0.8-0.9,0.7-2.2-0.1-3C144.7,50.6,144.2,50.4,143.7,50.4L143.7,50.4z M134.4,60.5c-0.6,0-1.1,0.2-1.5,0.7l-2.8,3.1
		c-0.8,0.9-0.7,2.2,0.1,3c0.4,0.4,0.9,0.6,1.4,0.6c0.6,0,1.1-0.2,1.5-0.7l2.8-3.1c0.8-0.9,0.7-2.2-0.1-3
		C135.4,60.7,134.9,60.5,134.4,60.5L134.4,60.5z M125.1,70.7c-0.6,0-1.1,0.2-1.5,0.7l-2.8,3.1c-0.8,0.9-0.7,2.2,0.1,3
		c0.4,0.4,0.9,0.6,1.4,0.6c0.6,0,1.1-0.2,1.5-0.7c0,0,0.3-0.3,0.6-0.7l0,0c0,0,0,0,0,0l0,0c0,0,0,0,0,0l2.2-2.4
		c0.8-0.9,0.7-2.2-0.1-3C126.1,70.9,125.6,70.7,125.1,70.7L125.1,70.7z M115.8,80.8c-0.6,0-1.1,0.2-1.5,0.7l-2.8,3.1
		c-0.8,0.9-0.7,2.2,0.1,3c0.4,0.4,0.9,0.6,1.4,0.6c0.6,0,1.1-0.2,1.5-0.7l2.8-3.1c0.8-0.9,0.7-2.2-0.1-3
		C116.8,81,116.3,80.8,115.8,80.8L115.8,80.8z M106.5,90.9c-0.6,0-1.1,0.2-1.5,0.7l-1,1.1l-2.6,2.8l2.6,2.8l1.8,2
		c0.4,0.4,1,0.7,1.5,0.7c0.5,0,1-0.2,1.4-0.6c0.8-0.8,0.9-2.1,0.1-3l-1.8-2c0,0,0,0,0,0l0,0c0,0,0,0,0,0l0,0c0,0,0,0,0,0l0,0
		c0,0,0,0,0,0l0,0c0,0,0,0,0,0l0,0c0,0,0,0,0,0l0,0c0,0,0,0,0,0l0,0c0,0,0,0,0,0l0,0c0,0,0,0,0,0l0,0c0,0,0,0,0,0l0,0l0,0l0,0l0,0
		l0,0c0,0,0,0,0,0l0,0c0,0,0,0,0,0l0,0c0,0,0,0,0,0l0,0c0,0,0,0,0,0l0,0c0,0,0,0,0,0l0,0c0,0,0,0,0,0l0,0c0,0,0,0,0,0l0,0
		c0,0,0,0,0,0l0,0c0,0,0,0,0,0l0,0c0,0,0,0,0,0l0,0c0,0,0,0,0,0l0,0c0,0,0,0,0,0l0,0c0.3-0.3,0.9-1,0.9-1c0.8-0.9,0.7-2.2-0.1-3
		C107.5,91.1,107,90.9,106.5,90.9L106.5,90.9z M113.8,103.9c-0.5,0-1,0.2-1.4,0.6c-0.8,0.8-0.9,2.1-0.1,3l2.8,3.1
		c0.4,0.4,1,0.7,1.5,0.7c0.5,0,1-0.2,1.4-0.6c0.8-0.8,0.9-2.1,0.1-3l-1.9-2.1c0,0,0,0,0,0l0,0c-0.5-0.6-0.9-1-0.9-1
		C114.9,104.1,114.4,103.9,113.8,103.9L113.8,103.9z M123.1,114c-0.5,0-1,0.2-1.4,0.6c-0.8,0.8-0.9,2.1-0.1,3l2.8,3.1
		c0.4,0.4,1,0.7,1.5,0.7c0.5,0,1-0.2,1.4-0.6c0.8-0.8,0.9-2.1,0.1-3c0,0-1.8-1.9-2.5-2.7l0,0c0,0,0,0,0,0l0,0c0,0,0,0,0,0l-0.3-0.3
		C124.3,114.2,123.7,114,123.1,114L123.1,114z M132.5,124.1c-0.5,0-1,0.2-1.4,0.6c-0.8,0.8-0.9,2.1-0.1,3l2.8,3.1
		c0.4,0.4,1,0.7,1.5,0.7c0.5,0,1-0.2,1.4-0.6c0.8-0.8,0.9-2.1,0.1-3l-2.8-3.1C133.6,124.3,133,124.1,132.5,124.1L132.5,124.1z
		 M141.8,134.2c-0.5,0-1,0.2-1.4,0.6c-0.8,0.8-0.9,2.1-0.1,3l2.8,3.1c0.4,0.4,1,0.7,1.5,0.7c0.5,0,1-0.2,1.4-0.6
		c0.8-0.8,0.9-2.1,0.1-3l-2.8-3.1C142.9,134.5,142.4,134.2,141.8,134.2L141.8,134.2z M151.1,144.3c-0.5,0-1,0.2-1.4,0.6
		c-0.8,0.8-0.9,2.1-0.1,3l2.8,3.1c0.4,0.4,1,0.7,1.5,0.7c0.5,0,1-0.2,1.4-0.6c0.8-0.8,0.9-2.1,0.1-3c0,0-0.4-0.4-0.9-1l0,0
		c0,0,0,0,0,0l0,0c0,0,0,0,0,0l-1.9-2.1C152.3,144.6,151.7,144.3,151.1,144.3L151.1,144.3z M160.5,154.5c-0.5,0-1,0.2-1.4,0.6
		c-0.8,0.8-0.9,2.1-0.1,3l2.8,3.1c0.4,0.4,1,0.7,1.5,0.7c0.5,0,1-0.2,1.4-0.6c0.8-0.8,0.9-2.1,0.1-3l-2.8-3.1
		C161.6,154.7,161,154.5,160.5,154.5L160.5,154.5z M169.8,164.6c-0.5,0-1,0.2-1.4,0.6c-0.8,0.8-0.9,2.1-0.1,3l2.8,3.1
		c0.4,0.4,1,0.7,1.5,0.7c0.5,0,1-0.2,1.4-0.6c0.8-0.8,0.9-2.1,0.1-3c0,0-0.4-0.4-0.9-1l0,0c0,0,0,0,0,0l-1.9-2.1
		C170.9,164.8,170.4,164.6,169.8,164.6L169.8,164.6z M179.1,174.7c-0.5,0-1,0.2-1.4,0.6c-0.8,0.8-0.9,2.1-0.1,3l2.8,3.1
		c0.4,0.4,1,0.7,1.5,0.7c0.5,0,1-0.2,1.4-0.6c0.8-0.8,0.9-2.1,0.1-3l-2.8-3.1C180.3,174.9,179.7,174.7,179.1,174.7L179.1,174.7z
		 M188.5,184.8c-0.5,0-1,0.2-1.4,0.6c-0.8,0.8-0.9,2.1-0.1,3l2.8,3.1c0.4,0.4,1,0.7,1.5,0.7c0.5,0,1-0.2,1.4-0.6
		c0.8-0.8,0.9-2.1,0.1-3l-1.7-1.8c0,0,0,0,0,0l0,0c0,0,0,0,0,0l0,0c-0.6-0.7-1.1-1.2-1.1-1.2C189.6,185,189,184.8,188.5,184.8
		L188.5,184.8z M203.6,181.6c-0.6,0-1.1,0.2-1.6,0.7l-2.8,3.1c-0.8,0.9-0.7,2.2,0.2,3c0.4,0.4,0.9,0.5,1.4,0.5
		c0.6,0,1.2-0.2,1.6-0.7l2.8-3.1c0.8-0.9,0.7-2.2-0.2-3C204.6,181.8,204.1,181.6,203.6,181.6L203.6,181.6z M212.7,171.4
		c-0.6,0-1.2,0.2-1.6,0.7l-2.8,3.1c-0.8,0.9-0.7,2.2,0.2,3c0.4,0.4,0.9,0.5,1.4,0.5c0.6,0,1.2-0.2,1.6-0.7l2.8-3.1
		c0.8-0.9,0.7-2.2-0.2-3C213.7,171.5,213.2,171.4,212.7,171.4L212.7,171.4z M221.9,161.1c-0.6,0-1.2,0.2-1.6,0.7l-1,1.1c0,0,0,0,0,0
		l-0.1,0.1c0,0,0,0,0,0l0,0l0,0l0,0c0,0,0,0,0,0l0,0c-0.8,0.9-1.7,1.9-1.7,1.9c-0.8,0.9-0.7,2.2,0.2,3c0.4,0.4,0.9,0.5,1.4,0.5
		c0.6,0,1.2-0.2,1.6-0.7l2.8-3.1c0.8-0.9,0.7-2.2-0.2-3C222.9,161.3,222.4,161.1,221.9,161.1L221.9,161.1z M231,150.8
		c-0.6,0-1.2,0.2-1.6,0.7c0,0-1.7,1.9-2.4,2.8l0,0c0,0,0,0,0,0l0,0l0,0l0,0c0,0,0,0,0,0l-0.3,0.3c-0.8,0.9-0.7,2.2,0.2,3
		c0.4,0.4,0.9,0.5,1.4,0.5c0.6,0,1.2-0.2,1.6-0.7l2.8-3.1c0.8-0.9,0.7-2.2-0.2-3C232,151,231.5,150.8,231,150.8L231,150.8z
		 M240.2,140.5c-0.6,0-1.1,0.2-1.6,0.7l-2.8,3.1c-0.8,0.9-0.7,2.2,0.2,3c0.4,0.4,0.9,0.5,1.4,0.5c0.6,0,1.2-0.2,1.6-0.7l2.8-3.1
		c0.8-0.9,0.7-2.2-0.2-3C241.1,140.7,240.6,140.5,240.2,140.5L240.2,140.5z M249.3,130.2c-0.6,0-1.2,0.2-1.6,0.7l-1,1.1c0,0,0,0,0,0
		l0,0c0,0,0,0,0,0l0,0.1c0,0,0,0,0,0l0,0c0,0,0,0,0,0l0,0c-0.8,0.9-1.7,1.9-1.7,1.9c-0.8,0.9-0.7,2.2,0.2,3c0.4,0.4,0.9,0.5,1.4,0.5
		c0.6,0,1.2-0.2,1.6-0.7l2.8-3.1c0.8-0.9,0.7-2.2-0.2-3C250.3,130.4,249.8,130.2,249.3,130.2L249.3,130.2z M258.4,119.9
		c-0.6,0-1.1,0.2-1.6,0.7l-2.8,3.1c-0.8,0.9-0.7,2.2,0.2,3c0.4,0.4,0.9,0.5,1.4,0.5c0.6,0,1.2-0.2,1.6-0.7l2.8-3.1
		c0.8-0.9,0.7-2.2-0.2-3C259.4,120.1,258.9,119.9,258.4,119.9L258.4,119.9z M267.6,109.6c-0.6,0-1.2,0.2-1.6,0.7l-2.8,3.1
		c-0.8,0.9-0.7,2.2,0.2,3c0.4,0.4,0.9,0.5,1.4,0.5c0.6,0,1.2-0.2,1.6-0.7l2.8-3.1c0.8-0.9,0.7-2.2-0.2-3
		C268.6,109.8,268.1,109.6,267.6,109.6L267.6,109.6z M276.7,99.4c-0.6,0-1.2,0.2-1.6,0.7l-2.8,3.1c-0.8,0.9-0.7,2.2,0.2,3
		c0.4,0.4,0.9,0.5,1.4,0.5c0.6,0,1.2-0.2,1.6-0.7l2.8-3.1c0.8-0.9,0.7-2.2-0.2-3C277.7,99.5,277.2,99.4,276.7,99.4L276.7,99.4z
		 M270.7,86.3c-0.5,0-1,0.2-1.4,0.5c-0.9,0.8-0.9,2.1-0.2,3l1.3,1.4c0,0,0,0,0,0l0,0c0,0,0,0,0,0l0,0c0,0,0,0,0,0l0,0c0,0,0,0,0,0
		l0,0c0,0,0,0,0,0l0,0c0.7,0.8,1.5,1.6,1.5,1.6c0.4,0.5,1,0.7,1.6,0.7c0.5,0,1-0.2,1.4-0.5c0.9-0.8,0.9-2.1,0.2-3l-2.8-3.1
		C271.9,86.5,271.3,86.3,270.7,86.3L270.7,86.3z M261.6,76.1c-0.5,0-1,0.2-1.4,0.5c-0.9,0.8-0.9,2.1-0.2,3l2.8,3.1
		c0.4,0.5,1,0.7,1.6,0.7c0.5,0,1-0.2,1.4-0.5c0.9-0.8,0.9-2.1,0.2-3l-2.8-3.1C262.7,76.3,262.1,76.1,261.6,76.1L261.6,76.1z
		 M252.4,65.8c-0.5,0-1,0.2-1.4,0.5c-0.9,0.8-0.9,2.1-0.2,3l2.1,2.4c0,0,0,0,0,0l0,0c0,0,0,0,0,0.1l0,0c0,0,0,0,0,0l0,0
		c0.3,0.4,0.6,0.6,0.6,0.6c0.4,0.5,1,0.7,1.6,0.7c0.5,0,1-0.2,1.4-0.5c0.9-0.8,0.9-2.1,0.2-3l-2.8-3.1C253.5,66,253,65.8,252.4,65.8
		L252.4,65.8z M243.2,55.5c-0.5,0-1,0.2-1.4,0.5c-0.9,0.8-0.9,2.1-0.2,3l2.8,3.1c0.4,0.5,1,0.7,1.6,0.7c0.5,0,1-0.2,1.4-0.5
		c0.9-0.8,0.9-2.1,0.2-3l-2.8-3.1C244.4,55.8,243.8,55.5,243.2,55.5L243.2,55.5z M234,45.3c-0.5,0-1,0.2-1.4,0.5
		c-0.9,0.8-0.9,2.1-0.2,3l2.8,3.1c0.4,0.5,1,0.7,1.6,0.7c0.5,0,1-0.2,1.4-0.5c0.9-0.8,0.9-2.1,0.2-3l-2.8-3.1
		C235.2,45.5,234.6,45.3,234,45.3L234,45.3z M224.9,35c-0.5,0-1,0.2-1.4,0.5c-0.9,0.8-0.9,2.1-0.2,3c0,0,0.2,0.2,0.5,0.6l0,0
		c0,0,0,0,0,0l0,0c0,0,0,0,0,0l2.3,2.5c0.4,0.5,1,0.7,1.6,0.7c0.5,0,1-0.2,1.4-0.5c0.9-0.8,0.9-2.1,0.2-3l-2.8-3.1
		C226,35.3,225.4,35,224.9,35L224.9,35z M215.7,24.8c-0.5,0-1,0.2-1.4,0.5c-0.9,0.8-0.9,2.1-0.2,3l2.8,3.1c0.4,0.5,1,0.7,1.6,0.7
		c0.5,0,1-0.2,1.4-0.5c0.9-0.8,0.9-2.1,0.2-3l-2.8-3.1C216.8,25,216.3,24.8,215.7,24.8L215.7,24.8z M206.5,14.5
		c-0.5,0-1,0.2-1.4,0.5c-0.9,0.8-0.9,2.1-0.2,3l2.8,3.1c0.4,0.5,1,0.7,1.6,0.7c0.5,0,1-0.2,1.4-0.5c0.9-0.8,0.9-2.1,0.2-3l-2.8-3.1
		C207.7,14.7,207.1,14.5,206.5,14.5L206.5,14.5z M197.4,4.2c-0.5,0-1,0.2-1.4,0.5c-0.9,0.8-0.9,2.1-0.2,3c0,0,1.4,1.5,2.2,2.4
		l0.6,0.7c0.4,0.5,1,0.7,1.6,0.7c0.5,0,1-0.2,1.4-0.5c0.9-0.8,0.9-2.1,0.2-3l-2.8-3.1C198.5,4.5,197.9,4.2,197.4,4.2L197.4,4.2z"/>
</g>
<g>
	<path style="fill:#ED1E79;" d="M294.8,209.3h5.6v5.6c0,1.4,1.1,2.5,2.5,2.5s2.5-1.1,2.5-2.5v-5.6h5.6c1.4,0,2.5-1.1,2.5-2.5
		s-1.1-2.5-2.5-2.5h-5.6v-5.6c0-1.4-1.1-2.5-2.5-2.5s-2.5,1.1-2.5,2.5v5.6h-5.6c-1.4,0-2.5,1.1-2.5,2.5S293.4,209.3,294.8,209.3z"/>
	<path style="fill:#ED1E79;" d="M309.1,240.4h9c1.1,0,2,0.9,2,2l0,0c0,1.1-0.9,2-2,2h-9c-1.1,0-2-0.9-2-2l0,0
		C307.1,241.3,308,240.4,309.1,240.4z"/>
	<path style="fill:#ED1E79;" d="M309.1,236.2h9c1.1,0,2,0.9,2,2l0,0c0,1.1-0.9,2-2,2h-9c-1.1,0-2-0.9-2-2l0,0
		C307.1,237.1,308,236.2,309.1,236.2z"/>
	<path style="fill:#ED1E79;" d="M309.1,232.1h9c1.1,0,2,0.9,2,2l0,0c0,1.1-0.9,2-2,2h-9c-1.1,0-2-0.9-2-2l0,0
		C307.1,233,308,232.1,309.1,232.1z"/>
	<path style="fill:#ED1E79;" d="M309.1,228h9c1.1,0,2,0.9,2,2v0c0,1.1-0.9,2-2,2h-9c-1.1,0-2-0.9-2-2v0
		C307.1,228.8,308,228,309.1,228z"/>
	<path style="fill:#ED1E79;" d="M309.1,244.5h5c1.1,0,2,0.9,2,2v0c0,1.1-0.9,2-2,2h-5c-1.1,0-2-0.9-2-2v0
		C307.1,245.4,308,244.5,309.1,244.5z"/>
	<path style="fill:#ED1E79;" d="M309.1,223.8h5c1.1,0,2,0.9,2,2l0,0c0,1.1-0.9,2-2,2h-5c-1.1,0-2-0.9-2-2l0,0
		C307.1,224.7,308,223.8,309.1,223.8z"/>
	<path style="fill:#ED1E79;" d="M309.1,248.7h1c1.1,0,2,0.9,2,2l0,0c0,1.1-0.9,2-2,2h-1c-1.1,0-2-0.9-2-2l0,0
		C307.1,249.6,308,248.7,309.1,248.7z"/>
	<path style="fill:#ED1E79;" d="M309.1,219.7h1c1.1,0,2,0.9,2,2l0,0c0,1.1-0.9,2-2,2h-1c-1.1,0-2-0.9-2-2l0,0
		C307.1,220.6,308,219.7,309.1,219.7z"/>
	<path style="fill:#ED1E79;" d="M297.1,240.4h-9c-1.1,0-2,0.9-2,2l0,0c0,1.1,0.9,2,2,2h9c1.1,0,2-0.9,2-2l0,0
		C299.1,241.3,298.2,240.4,297.1,240.4z"/>
	<path style="fill:#ED1E79;" d="M297.1,236.2h-9c-1.1,0-2,0.9-2,2l0,0c0,1.1,0.9,2,2,2h9c1.1,0,2-0.9,2-2l0,0
		C299.1,237.1,298.2,236.2,297.1,236.2z"/>
	<path style="fill:#ED1E79;" d="M297.1,232.1h-9c-1.1,0-2,0.9-2,2l0,0c0,1.1,0.9,2,2,2h9c1.1,0,2-0.9,2-2l0,0
		C299.1,233,298.2,232.1,297.1,232.1z"/>
	<path style="fill:#ED1E79;" d="M297.1,228h-9c-1.1,0-2,0.9-2,2v0c0,1.1,0.9,2,2,2h9c1.1,0,2-0.9,2-2v0
		C299.1,228.8,298.2,228,297.1,228z"/>
	<path style="fill:#ED1E79;" d="M297.1,244.5h-5c-1.1,0-2,0.9-2,2v0c0,1.1,0.9,2,2,2h5c1.1,0,2-0.9,2-2v0
		C299.1,245.4,298.2,244.5,297.1,244.5z"/>
	<path style="fill:#ED1E79;" d="M297.1,223.8h-5c-1.1,0-2,0.9-2,2l0,0c0,1.1,0.9,2,2,2h5c1.1,0,2-0.9,2-2l0,0
		C299.1,224.7,298.2,223.8,297.1,223.8z"/>
	<path style="fill:#ED1E79;" d="M297.1,248.7h-1c-1.1,0-2,0.9-2,2l0,0c0,1.1,0.9,2,2,2h1c1.1,0,2-0.9,2-2l0,0
		C299.1,249.6,298.2,248.7,297.1,248.7z"/>
	<path style="fill:#ED1E79;" d="M297.1,219.7h-1c-1.1,0-2,0.9-2,2l0,0c0,1.1,0.9,2,2,2h1c1.1,0,2-0.9,2-2l0,0
		C299.1,220.6,298.2,219.7,297.1,219.7z"/>
	<path style="fill:#ED1E79;" d="M269.4,213.7v9c0,1.1-0.9,2-2,2l0,0c-1.1,0-2-0.9-2-2v-9c0-1.1,0.9-2,2-2l0,0
		C268.5,211.7,269.4,212.6,269.4,213.7z"/>
	<path style="fill:#ED1E79;" d="M273.5,213.7v9c0,1.1-0.9,2-2,2h0c-1.1,0-2-0.9-2-2v-9c0-1.1,0.9-2,2-2h0
		C272.6,211.7,273.5,212.6,273.5,213.7z"/>
	<path style="fill:#ED1E79;" d="M277.6,213.7v9c0,1.1-0.9,2-2,2l0,0c-1.1,0-2-0.9-2-2v-9c0-1.1,0.9-2,2-2l0,0
		C276.7,211.7,277.6,212.6,277.6,213.7z"/>
	<path style="fill:#ED1E79;" d="M281.8,213.7v9c0,1.1-0.9,2-2,2l0,0c-1.1,0-2-0.9-2-2v-9c0-1.1,0.9-2,2-2l0,0
		C280.9,211.7,281.8,212.6,281.8,213.7z"/>
	<path style="fill:#ED1E79;" d="M265.2,213.7v5c0,1.1-0.9,2-2,2l0,0c-1.1,0-2-0.9-2-2v-5c0-1.1,0.9-2,2-2l0,0
		C264.3,211.7,265.2,212.6,265.2,213.7z"/>
	<path style="fill:#ED1E79;" d="M285.9,213.7v5c0,1.1-0.9,2-2,2l0,0c-1.1,0-2-0.9-2-2v-5c0-1.1,0.9-2,2-2l0,0
		C285,211.7,285.9,212.6,285.9,213.7z"/>
	<path style="fill:#ED1E79;" d="M261.1,213.7v1c0,1.1-0.9,2-2,2l0,0c-1.1,0-2-0.9-2-2v-1c0-1.1,0.9-2,2-2l0,0
		C260.2,211.7,261.1,212.6,261.1,213.7z"/>
	<path style="fill:#ED1E79;" d="M290.1,213.7v1c0,1.1-0.9,2-2,2l0,0c-1.1,0-2-0.9-2-2v-1c0-1.1,0.9-2,2-2l0,0
		C289.2,211.7,290.1,212.6,290.1,213.7z"/>
	<path style="fill:#ED1E79;" d="M269.4,201.7v-9c0-1.1-0.9-2-2-2l0,0c-1.1,0-2,0.9-2,2v9c0,1.1,0.9,2,2,2l0,0
		C268.5,203.7,269.4,202.8,269.4,201.7z"/>
	<path style="fill:#ED1E79;" d="M273.5,201.7l0-9c0-1.1-0.9-2-2-2h0c-1.1,0-2,0.9-2,2v9c0,1.1,0.9,2,2,2h0
		C272.6,203.7,273.5,202.8,273.5,201.7z"/>
	<path style="fill:#ED1E79;" d="M277.6,201.7v-9c0-1.1-0.9-2-2-2l0,0c-1.1,0-2,0.9-2,2v9c0,1.1,0.9,2,2,2l0,0
		C276.7,203.7,277.6,202.8,277.6,201.7z"/>
	<path style="fill:#ED1E79;" d="M281.8,201.7v-9c0-1.1-0.9-2-2-2l0,0c-1.1,0-2,0.9-2,2v9c0,1.1,0.9,2,2,2l0,0
		C280.9,203.7,281.8,202.8,281.8,201.7z"/>
	<path style="fill:#ED1E79;" d="M265.2,201.7v-5c0-1.1-0.9-2-2-2l0,0c-1.1,0-2,0.9-2,2v5c0,1.1,0.9,2,2,2l0,0
		C264.3,203.7,265.2,202.8,265.2,201.7z"/>
	<path style="fill:#ED1E79;" d="M285.9,201.7v-5c0-1.1-0.9-2-2-2l0,0c-1.1,0-2,0.9-2,2v5c0,1.1,0.9,2,2,2l0,0
		C285,203.7,285.9,202.8,285.9,201.7z"/>
	<path style="fill:#ED1E79;" d="M261.1,201.7v-1c0-1.1-0.9-2-2-2l0,0c-1.1,0-2,0.9-2,2v1c0,1.1,0.9,2,2,2l0,0
		C260.2,203.7,261.1,202.8,261.1,201.7z"/>
	<path style="fill:#ED1E79;" d="M290.1,201.7v-1c0-1.1-0.9-2-2-2l0,0c-1.1,0-2,0.9-2,2v1c0,1.1,0.9,2,2,2l0,0
		C289.2,203.7,290.1,202.8,290.1,201.7z"/>
	<path style="fill:#ED1E79;" d="M296.1,174h-9c-1.1,0-2-0.9-2-2v0c0-1.1,0.9-2,2-2h9c1.1,0,2,0.9,2,2v0
		C298.1,173.1,297.2,174,296.1,174z"/>
	<path style="fill:#ED1E79;" d="M296.1,178.1h-9c-1.1,0-2-0.9-2-2l0,0c0-1.1,0.9-2,2-2h9c1.1,0,2,0.9,2,2l0,0
		C298.1,177.2,297.2,178.1,296.1,178.1z"/>
	<path style="fill:#ED1E79;" d="M296.1,182.2h-9c-1.1,0-2-0.9-2-2l0,0c0-1.1,0.9-2,2-2h9c1.1,0,2,0.9,2,2l0,0
		C298.1,181.3,297.2,182.2,296.1,182.2z"/>
	<path style="fill:#ED1E79;" d="M296.1,186.4h-9c-1.1,0-2-0.9-2-2l0,0c0-1.1,0.9-2,2-2h9c1.1,0,2,0.9,2,2l0,0
		C298.1,185.5,297.2,186.4,296.1,186.4z"/>
	<path style="fill:#ED1E79;" d="M296.1,169.8h-5c-1.1,0-2-0.9-2-2l0,0c0-1.1,0.9-2,2-2h5c1.1,0,2,0.9,2,2l0,0
		C298.1,168.9,297.2,169.8,296.1,169.8z"/>
	<path style="fill:#ED1E79;" d="M296.1,190.5h-5c-1.1,0-2-0.9-2-2v0c0-1.1,0.9-2,2-2h5c1.1,0,2,0.9,2,2v0
		C298.1,189.6,297.2,190.5,296.1,190.5z"/>
	<path style="fill:#ED1E79;" d="M296.1,165.7h-1c-1.1,0-2-0.9-2-2l0,0c0-1.1,0.9-2,2-2h1c1.1,0,2,0.9,2,2l0,0
		C298.1,164.8,297.2,165.7,296.1,165.7z"/>
	<path style="fill:#ED1E79;" d="M296.1,194.7h-1c-1.1,0-2-0.9-2-2l0,0c0-1.1,0.9-2,2-2h1c1.1,0,2,0.9,2,2l0,0
		C298.1,193.8,297.2,194.7,296.1,194.7z"/>
	<path style="fill:#ED1E79;" d="M308.1,174h9c1.1,0,2-0.9,2-2v0c0-1.1-0.9-2-2-2h-9c-1.1,0-2,0.9-2,2v0
		C306.1,173.1,307,174,308.1,174z"/>
	<path style="fill:#ED1E79;" d="M308.1,178.1h9c1.1,0,2-0.9,2-2l0,0c0-1.1-0.9-2-2-2h-9c-1.1,0-2,0.9-2,2l0,0
		C306.1,177.2,307,178.1,308.1,178.1z"/>
	<path style="fill:#ED1E79;" d="M308.1,182.2h9c1.1,0,2-0.9,2-2l0,0c0-1.1-0.9-2-2-2h-9c-1.1,0-2,0.9-2,2l0,0
		C306.1,181.3,307,182.2,308.1,182.2z"/>
	<path style="fill:#ED1E79;" d="M308.1,186.4h9c1.1,0,2-0.9,2-2l0,0c0-1.1-0.9-2-2-2h-9c-1.1,0-2,0.9-2,2l0,0
		C306.1,185.5,307,186.4,308.1,186.4z"/>
	<path style="fill:#ED1E79;" d="M308.1,169.8h5c1.1,0,2-0.9,2-2l0,0c0-1.1-0.9-2-2-2h-5c-1.1,0-2,0.9-2,2l0,0
		C306.1,168.9,307,169.8,308.1,169.8z"/>
	<path style="fill:#ED1E79;" d="M308.1,190.5h5c1.1,0,2-0.9,2-2v0c0-1.1-0.9-2-2-2h-5c-1.1,0-2,0.9-2,2v0
		C306.1,189.6,307,190.5,308.1,190.5z"/>
	<path style="fill:#ED1E79;" d="M308.1,165.7h1c1.1,0,2-0.9,2-2l0,0c0-1.1-0.9-2-2-2h-1c-1.1,0-2,0.9-2,2l0,0
		C306.1,164.8,307,165.7,308.1,165.7z"/>
	<path style="fill:#ED1E79;" d="M308.1,194.7h1c1.1,0,2-0.9,2-2l0,0c0-1.1-0.9-2-2-2h-1c-1.1,0-2,0.9-2,2l0,0
		C306.1,193.8,307,194.7,308.1,194.7z"/>
	<path style="fill:#ED1E79;" d="M335.8,200.7v-9c0-1.1,0.9-2,2-2l0,0c1.1,0,2,0.9,2,2v9c0,1.1-0.9,2-2,2l0,0
		C336.7,202.7,335.8,201.8,335.8,200.7z"/>
	<path style="fill:#ED1E79;" d="M331.6,200.7v-9c0-1.1,0.9-2,2-2l0,0c1.1,0,2,0.9,2,2v9c0,1.1-0.9,2-2,2l0,0
		C332.5,202.7,331.6,201.8,331.6,200.7z"/>
	<path style="fill:#ED1E79;" d="M327.5,200.7v-9c0-1.1,0.9-2,2-2h0c1.1,0,2,0.9,2,2v9c0,1.1-0.9,2-2,2h0
		C328.4,202.7,327.5,201.8,327.5,200.7z"/>
	<path style="fill:#ED1E79;" d="M323.4,200.7v-9c0-1.1,0.9-2,2-2l0,0c1.1,0,2,0.9,2,2v9c0,1.1-0.9,2-2,2l0,0
		C324.2,202.7,323.4,201.8,323.4,200.7z"/>
	<path style="fill:#ED1E79;" d="M339.9,200.7v-5c0-1.1,0.9-2,2-2l0,0c1.1,0,2,0.9,2,2v5c0,1.1-0.9,2-2,2l0,0
		C340.8,202.7,339.9,201.8,339.9,200.7z"/>
	<path style="fill:#ED1E79;" d="M319.2,200.7v-5c0-1.1,0.9-2,2-2l0,0c1.1,0,2,0.9,2,2v5c0,1.1-0.9,2-2,2l0,0
		C320.1,202.7,319.2,201.8,319.2,200.7z"/>
	<path style="fill:#ED1E79;" d="M344.1,200.7v-1c0-1.1,0.9-2,2-2l0,0c1.1,0,2,0.9,2,2v1c0,1.1-0.9,2-2,2l0,0
		C345,202.7,344.1,201.8,344.1,200.7z"/>
	<path style="fill:#ED1E79;" d="M315.1,200.7v-1c0-1.1,0.9-2,2-2l0,0c1.1,0,2,0.9,2,2v1c0,1.1-0.9,2-2,2l0,0
		C316,202.7,315.1,201.8,315.1,200.7z"/>
	<path style="fill:#ED1E79;" d="M335.8,212.7v9c0,1.1,0.9,2,2,2l0,0c1.1,0,2-0.9,2-2v-9c0-1.1-0.9-2-2-2l0,0
		C336.7,210.7,335.8,211.6,335.8,212.7z"/>
	<path style="fill:#ED1E79;" d="M331.6,212.7v9c0,1.1,0.9,2,2,2l0,0c1.1,0,2-0.9,2-2v-9c0-1.1-0.9-2-2-2l0,0
		C332.5,210.7,331.6,211.6,331.6,212.7z"/>
	<path style="fill:#ED1E79;" d="M327.5,212.7v9c0,1.1,0.9,2,2,2h0c1.1,0,2-0.9,2-2v-9c0-1.1-0.9-2-2-2h0
		C328.4,210.7,327.5,211.6,327.5,212.7z"/>
	<path style="fill:#ED1E79;" d="M323.4,212.7v9c0,1.1,0.9,2,2,2l0,0c1.1,0,2-0.9,2-2v-9c0-1.1-0.9-2-2-2l0,0
		C324.2,210.7,323.4,211.6,323.4,212.7z"/>
	<path style="fill:#ED1E79;" d="M339.9,212.7v5c0,1.1,0.9,2,2,2l0,0c1.1,0,2-0.9,2-2v-5c0-1.1-0.9-2-2-2l0,0
		C340.8,210.7,339.9,211.6,339.9,212.7z"/>
	<path style="fill:#ED1E79;" d="M319.2,212.7v5c0,1.1,0.9,2,2,2l0,0c1.1,0,2-0.9,2-2v-5c0-1.1-0.9-2-2-2l0,0
		C320.1,210.7,319.2,211.6,319.2,212.7z"/>
	<path style="fill:#ED1E79;" d="M344.1,212.7v1c0,1.1,0.9,2,2,2l0,0c1.1,0,2-0.9,2-2v-1c0-1.1-0.9-2-2-2l0,0
		C345,210.7,344.1,211.6,344.1,212.7z"/>
	<path style="fill:#ED1E79;" d="M315.1,212.7v1c0,1.1,0.9,2,2,2l0,0c1.1,0,2-0.9,2-2v-1c0-1.1-0.9-2-2-2l0,0
		C316,210.7,315.1,211.6,315.1,212.7z"/>
	<path style="fill:#ED1E79;" d="M230.4,203.1c0.5,0,1,0.2,1.4,0.5c0.9,0.8,0.9,2.1,0.2,3l-0.2,0.2l0.2,0.2c0.8,0.9,0.7,2.2-0.2,3
		c-0.9,0.8-2.2,0.7-3-0.2l-2.6-3l2.6-3C229.2,203.4,229.8,203.1,230.4,203.1z"/>
	<path style="fill:#ED1E79;" d="M293.1,132.6c0.5,0,1,0.2,1.4,0.5c0.9,0.8,0.9,2.1,0.2,3l-2.7,3.1c-0.8,0.9-2.1,0.9-3,0.2
		c-0.9-0.8-0.9-2.1-0.2-3l2.7-3.1C291.9,132.8,292.5,132.6,293.1,132.6z M284.1,142.7c0.5,0,1,0.2,1.4,0.5c0.9,0.8,0.9,2.1,0.2,3
		l-2.7,3.1c-0.8,0.9-2.1,0.9-3,0.2c-0.9-0.8-0.9-2.1-0.2-3l2.7-3.1C283,142.9,283.6,142.7,284.1,142.7z M275.2,152.7
		c0.5,0,1,0.2,1.4,0.5c0.9,0.8,0.9,2.1,0.2,3l-2.7,3.1c-0.8,0.9-2.1,0.9-3,0.2c-0.9-0.8-0.9-2.1-0.2-3l2.7-3.1
		C274,153,274.6,152.7,275.2,152.7z M266.2,162.8c0.5,0,1,0.2,1.4,0.5c0.9,0.8,0.9,2.1,0.2,3l-2.7,3.1c-0.8,0.9-2.1,0.9-3,0.2
		c-0.9-0.8-0.9-2.1-0.2-3l2.7-3.1C265.1,163.1,265.6,162.8,266.2,162.8z M257.3,172.9c0.5,0,1,0.2,1.4,0.5c0.9,0.8,0.9,2.1,0.2,3
		l-2.7,3.1c-0.8,0.9-2.1,0.9-3,0.2c-0.9-0.8-0.9-2.1-0.2-3l2.7-3.1C256.1,173.1,256.7,172.9,257.3,172.9z M248.3,183
		c0.5,0,1,0.2,1.4,0.5c0.9,0.8,0.9,2.1,0.2,3l-2.7,3.1c-0.8,0.9-2.1,0.9-3,0.2c-0.9-0.8-0.9-2.1-0.2-3l2.7-3.1
		C247.1,183.2,247.7,183,248.3,183z M239.3,193.1c0.5,0,1,0.2,1.4,0.5c0.9,0.8,0.9,2.1,0.2,3l-2.7,3.1c-0.8,0.9-2.1,0.9-3,0.2
		c-0.9-0.8-0.9-2.1-0.2-3l2.7-3.1C238.2,193.3,238.8,193.1,239.3,193.1z"/>
	<path style="fill:#ED1E79;" d="M300.7,123l3,3.2c0.8,0.8,0.7,2.2-0.1,3c-0.8,0.7-2,0.7-2.8,0c-0.8,0.7-2,0.7-2.8,0
		c-0.9-0.8-0.9-2.1-0.2-3L300.7,123z"/>
	<path style="fill:#ED1E79;" d="M308.8,132.8c0.6,0,1.1,0.2,1.5,0.7l2.9,3.2c0.8,0.9,0.7,2.2-0.1,3c-0.8,0.8-2.2,0.7-3-0.1l-2.9-3.2
		c-0.8-0.9-0.7-2.2,0.1-3C307.8,133,308.3,132.8,308.8,132.8z M318.4,143.2c0.6,0,1.1,0.2,1.5,0.7l2.9,3.2c0.8,0.9,0.7,2.2-0.1,3
		c-0.8,0.8-2.2,0.7-3-0.1l-2.9-3.2c-0.8-0.9-0.7-2.2,0.1-3C317.4,143.4,317.9,143.2,318.4,143.2z M328,153.6c0.6,0,1.1,0.2,1.5,0.7
		l2.9,3.2c0.8,0.9,0.7,2.2-0.1,3c-0.8,0.8-2.2,0.7-3-0.1l-2.9-3.2c-0.8-0.9-0.7-2.2,0.1-3C327,153.8,327.5,153.6,328,153.6z
		 M337.6,164c0.6,0,1.1,0.2,1.5,0.7l2.9,3.2c0.8,0.9,0.7,2.2-0.1,3c-0.8,0.8-2.2,0.7-3-0.1l-2.9-3.2c-0.8-0.9-0.7-2.2,0.1-3
		C336.6,164.2,337.1,164,337.6,164z M347.2,174.4c0.6,0,1.1,0.2,1.5,0.7l2.9,3.2c0.8,0.9,0.7,2.2-0.1,3c-0.8,0.8-2.2,0.7-3-0.1
		l-2.9-3.2c-0.8-0.9-0.7-2.2,0.1-3C346.2,174.6,346.7,174.4,347.2,174.4z M356.8,184.8c0.6,0,1.1,0.2,1.5,0.7l2.9,3.2
		c0.8,0.9,0.7,2.2-0.1,3c-0.8,0.8-2.2,0.7-3-0.1l-2.9-3.2c-0.8-0.9-0.7-2.2,0.1-3C355.8,184.9,356.3,184.8,356.8,184.8z
		 M366.4,195.2c0.6,0,1.1,0.2,1.5,0.7l2.9,3.2c0.8,0.9,0.7,2.2-0.1,3c-0.9,0.8-2.2,0.7-3-0.1l-2.9-3.2c-0.8-0.9-0.7-2.2,0.1-3
		C365.3,195.3,365.9,195.2,366.4,195.2z"/>
	<path style="fill:#ED1E79;" d="M376,205.6c0.6,0,1.1,0.2,1.5,0.7l2.7,3l-2.7,3c-0.8,0.9-2.1,0.9-3,0.1c-0.9-0.8-0.9-2.1-0.1-3
		l0.1-0.1l-0.1-0.1c-0.8-0.8-0.7-2.2,0.1-3C374.9,205.7,375.4,205.6,376,205.6z"/>
	<path style="fill:#ED1E79;" d="M369.5,215.6c0.5,0,1,0.2,1.4,0.6c0.9,0.8,0.9,2.1,0.1,3l-2.8,3.1c-0.8,0.9-2.1,0.9-3,0.1
		c-0.9-0.8-0.9-2.1-0.1-3l2.8-3.1C368.4,215.9,368.9,215.6,369.5,215.6z M360.3,225.7c0.5,0,1,0.2,1.4,0.6c0.9,0.8,0.9,2.1,0.1,3
		l-2.8,3.1c-0.8,0.9-2.1,0.9-3,0.1c-0.9-0.8-0.9-2.1-0.1-3l2.8-3.1C359.1,226,359.7,225.7,360.3,225.7z M351,235.8
		c0.5,0,1,0.2,1.4,0.6c0.9,0.8,0.9,2.1,0.1,3l-2.8,3.1c-0.8,0.9-2.1,0.9-3,0.1c-0.9-0.8-0.9-2.1-0.1-3l2.8-3.1
		C349.9,236,350.4,235.8,351,235.8z M341.7,245.9c0.5,0,1,0.2,1.4,0.6c0.9,0.8,0.9,2.1,0.1,3l-2.8,3.1c-0.8,0.9-2.1,0.9-3,0.1
		c-0.9-0.8-0.9-2.1-0.1-3l2.8-3.1C340.6,246.1,341.2,245.9,341.7,245.9z M332.5,256c0.5,0,1,0.2,1.4,0.6c0.9,0.8,0.9,2.1,0.1,3
		l-2.8,3.1c-0.8,0.9-2.1,0.9-3,0.1c-0.9-0.8-0.9-2.1-0.1-3l2.8-3.1C331.3,256.2,331.9,256,332.5,256z M323.2,266.1
		c0.5,0,1,0.2,1.4,0.6c0.9,0.8,0.9,2.1,0.1,3l-2.8,3.1c-0.8,0.9-2.1,0.9-3,0.1c-0.9-0.8-0.9-2.1-0.1-3l2.8-3.1
		C322.1,266.3,322.6,266.1,323.2,266.1z M313.9,276.2c0.5,0,1,0.2,1.4,0.6c0.9,0.8,0.9,2.1,0.1,3l-2.8,3.1c-0.8,0.9-2.1,0.9-3,0.1
		c-0.9-0.8-0.9-2.1-0.1-3l2.8-3.1C312.8,276.4,313.4,276.2,313.9,276.2z"/>
	<path style="fill:#ED1E79;" d="M301.9,286.2c0.5,0,1,0.2,1.4,0.6c0.8-0.7,2-0.7,2.8,0c0.9,0.8,0.9,2.1,0.1,3l-3,3.2l-2.9-3.3
		c-0.8-0.9-0.7-2.2,0.2-3C300.9,286.4,301.4,286.2,301.9,286.2z"/>
	<path style="fill:#ED1E79;" d="M236.8,213.5c0.6,0,1.1,0.2,1.6,0.7l2.8,3.2c0.8,0.9,0.7,2.2-0.2,3c-0.9,0.8-2.2,0.7-3-0.2l-2.8-3.2
		c-0.8-0.9-0.7-2.2,0.2-3C235.9,213.7,236.4,213.5,236.8,213.5z M246.1,223.9c0.6,0,1.1,0.2,1.6,0.7l2.8,3.2c0.8,0.9,0.7,2.2-0.2,3
		c-0.9,0.8-2.2,0.7-3-0.2l-2.8-3.2c-0.8-0.9-0.7-2.2,0.2-3C245.1,224.1,245.6,223.9,246.1,223.9z M255.4,234.3
		c0.6,0,1.1,0.2,1.6,0.7l2.8,3.2c0.8,0.9,0.7,2.2-0.2,3c-0.9,0.8-2.2,0.7-3-0.2l-2.8-3.2c-0.8-0.9-0.7-2.2,0.2-3
		C254.4,234.4,254.9,234.3,255.4,234.3z M264.7,244.7c0.6,0,1.1,0.2,1.6,0.7l2.8,3.2c0.8,0.9,0.7,2.2-0.2,3c-0.9,0.8-2.2,0.7-3-0.2
		l-2.8-3.2c-0.8-0.9-0.7-2.2,0.2-3C263.7,244.8,264.2,244.7,264.7,244.7z M274,255c0.6,0,1.1,0.2,1.6,0.7l2.8,3.2
		c0.8,0.9,0.7,2.2-0.2,3c-0.9,0.8-2.2,0.7-3-0.2l-2.8-3.2c-0.8-0.9-0.7-2.2,0.2-3C273,255.2,273.5,255,274,255z M283.3,265.4
		c0.6,0,1.1,0.2,1.6,0.7l2.8,3.2c0.8,0.9,0.7,2.2-0.2,3c-0.9,0.8-2.2,0.7-3-0.2l-2.8-3.2c-0.8-0.9-0.7-2.2,0.2-3
		C282.3,265.6,282.8,265.4,283.3,265.4z M292.6,275.8c0.6,0,1.1,0.2,1.6,0.7l2.8,3.2c0.8,0.9,0.7,2.2-0.2,3c-0.9,0.8-2.2,0.7-3-0.2
		l-2.8-3.2c-0.8-0.9-0.7-2.2,0.2-3C291.6,276,292.1,275.8,292.6,275.8z"/>
	<path style="fill:#ED1E79;" d="M305,305.2c0.6,0,1.1-0.2,1.5-0.7l2.8-3.1c0.8-0.9,0.7-2.2-0.1-3c-0.4-0.4-0.9-0.6-1.4-0.6
		c-0.6,0-1.1,0.2-1.5,0.7l-2.8,3.1l0,0c-0.8,0.9-0.7,2.2,0.1,3C304,305,304.5,305.2,305,305.2L305,305.2z M314.3,295
		c0.6,0,1.1-0.2,1.5-0.7l2.8-3.1c0.8-0.9,0.7-2.2-0.1-3c-0.4-0.4-0.9-0.6-1.4-0.6c-0.6,0-1.1,0.2-1.5,0.7l-2.8,3.1
		c-0.8,0.9-0.7,2.2,0.1,3C313.3,294.9,313.8,295,314.3,295L314.3,295z M323.6,284.9c0.6,0,1.1-0.2,1.5-0.7l2.8-3.1
		c0.8-0.9,0.7-2.2-0.1-3c-0.4-0.4-0.9-0.6-1.4-0.6c-0.6,0-1.1,0.2-1.5,0.7l-0.9,1c0,0,0,0,0,0l0,0c-0.8,0.9-1.9,2.1-1.9,2.1
		c-0.8,0.9-0.7,2.2,0.1,3C322.6,284.7,323.1,284.9,323.6,284.9L323.6,284.9z M332.9,274.8c0.6,0,1.1-0.2,1.5-0.7l2.8-3.1
		c0.8-0.9,0.7-2.2-0.1-3c-0.4-0.4-0.9-0.6-1.4-0.6c-0.6,0-1.1,0.2-1.5,0.7c0,0-1.1,1.2-1.9,2l0,0c0,0,0,0,0,0l0,0c0,0,0,0,0,0l0,0
		c0,0,0,0,0,0l0,0c0,0,0,0,0,0l-0.9,1c-0.8,0.9-0.7,2.2,0.1,3C331.9,274.6,332.4,274.8,332.9,274.8L332.9,274.8z M342.2,264.6
		c0.6,0,1.1-0.2,1.5-0.7l2.8-3.1c0.8-0.9,0.7-2.2-0.1-3c-0.4-0.4-0.9-0.6-1.4-0.6c-0.6,0-1.1,0.2-1.5,0.7l-2.8,3.1
		c-0.8,0.9-0.7,2.2,0.1,3C341.2,264.4,341.7,264.6,342.2,264.6L342.2,264.6z M351.5,254.5c0.6,0,1.1-0.2,1.5-0.7l2.8-3.1
		c0.8-0.9,0.7-2.2-0.1-3c-0.4-0.4-0.9-0.6-1.4-0.6c-0.6,0-1.1,0.2-1.5,0.7l-1.5,1.6c0,0,0,0,0,0l0,0c-0.7,0.7-1.3,1.4-1.3,1.4
		c-0.8,0.9-0.7,2.2,0.1,3C350.5,254.3,351,254.5,351.5,254.5L351.5,254.5z M360.8,244.4c0.6,0,1.1-0.2,1.5-0.7l2.8-3.1
		c0.8-0.9,0.7-2.2-0.1-3c-0.4-0.4-0.9-0.6-1.4-0.6c-0.6,0-1.1,0.2-1.5,0.7l-2.8,3.1c-0.8,0.9-0.7,2.2,0.1,3
		C359.8,244.2,360.3,244.4,360.8,244.4L360.8,244.4z M370.2,234.2c0.6,0,1.1-0.2,1.5-0.7l2.8-3.1c0.8-0.9,0.7-2.2-0.1-3
		c-0.4-0.4-0.9-0.6-1.4-0.6c-0.6,0-1.1,0.2-1.5,0.7c0,0-0.3,0.3-0.6,0.7l0,0c0,0,0,0,0,0l0,0c0,0,0,0,0,0l-2.2,2.4
		c-0.8,0.9-0.7,2.2,0.1,3C369.1,234,369.6,234.2,370.2,234.2L370.2,234.2z M379.5,224.1c0.6,0,1.1-0.2,1.5-0.7l2.8-3.1
		c0.8-0.9,0.7-2.2-0.1-3c-0.4-0.4-0.9-0.6-1.4-0.6c-0.6,0-1.1,0.2-1.5,0.7l-2.8,3.1c-0.8,0.9-0.7,2.2,0.1,3
		C378.4,223.9,379,224.1,379.5,224.1L379.5,224.1z M388.8,214c0.6,0,1.1-0.2,1.5-0.7l1-1.1l2.6-2.8l-2.6-2.8l-1.8-2
		c-0.4-0.4-1-0.7-1.5-0.7c-0.5,0-1,0.2-1.4,0.6c-0.8,0.8-0.9,2.1-0.1,3l1.8,2c0,0,0,0,0,0l0,0c0,0,0,0,0,0l0,0c0,0,0,0,0,0l0,0
		c0,0,0,0,0,0l0,0c0,0,0,0,0,0l0,0c0,0,0,0,0,0l0,0c0,0,0,0,0,0l0,0c0,0,0,0,0,0l0,0c0,0,0,0,0,0l0,0c0,0,0,0,0,0l0,0l0,0l0,0l0,0
		l0,0c0,0,0,0,0,0l0,0c0,0,0,0,0,0l0,0c0,0,0,0,0,0l0,0c0,0,0,0,0,0l0,0c0,0,0,0,0,0l0,0c0,0,0,0,0,0l0,0c0,0,0,0,0,0l0,0
		c0,0,0,0,0,0l0,0c0,0,0,0,0,0l0,0c0,0,0,0,0,0l0,0c0,0,0,0,0,0l0,0c0,0,0,0,0,0l0,0c-0.3,0.3-0.9,1-0.9,1c-0.8,0.9-0.7,2.2,0.1,3
		C387.8,213.8,388.3,214,388.8,214L388.8,214z M381.4,201c0.5,0,1-0.2,1.4-0.6c0.8-0.8,0.9-2.1,0.1-3l-2.8-3.1
		c-0.4-0.4-1-0.7-1.5-0.7c-0.5,0-1,0.2-1.4,0.6c-0.8,0.8-0.9,2.1-0.1,3l1.9,2.1c0,0,0,0,0,0l0,0c0.5,0.6,0.9,1,0.9,1
		C380.3,200.8,380.9,201,381.4,201L381.4,201z M372.1,190.9c0.5,0,1-0.2,1.4-0.6c0.8-0.8,0.9-2.1,0.1-3l-2.8-3.1
		c-0.4-0.4-1-0.7-1.5-0.7c-0.5,0-1,0.2-1.4,0.6c-0.8,0.8-0.9,2.1-0.1,3c0,0,1.8,1.9,2.5,2.7l0,0c0,0,0,0,0,0l0,0c0,0,0,0,0,0
		l0.3,0.3C371,190.7,371.5,190.9,372.1,190.9L372.1,190.9z M362.8,180.8c0.5,0,1-0.2,1.4-0.6c0.8-0.8,0.9-2.1,0.1-3l-2.8-3.1
		c-0.4-0.4-1-0.7-1.5-0.7c-0.5,0-1,0.2-1.4,0.6c-0.8,0.8-0.9,2.1-0.1,3l2.8,3.1C361.6,180.5,362.2,180.8,362.8,180.8L362.8,180.8z
		 M353.4,170.7c0.5,0,1-0.2,1.4-0.6c0.8-0.8,0.9-2.1,0.1-3l-2.8-3.1c-0.4-0.4-1-0.7-1.5-0.7c-0.5,0-1,0.2-1.4,0.6
		c-0.8,0.8-0.9,2.1-0.1,3l2.8,3.1C352.3,170.4,352.9,170.7,353.4,170.7L353.4,170.7z M344.1,160.5c0.5,0,1-0.2,1.4-0.6
		c0.8-0.8,0.9-2.1,0.1-3l-2.8-3.1c-0.4-0.4-1-0.7-1.5-0.7c-0.5,0-1,0.2-1.4,0.6c-0.8,0.8-0.9,2.1-0.1,3c0,0,0.4,0.4,0.9,1l0,0
		c0,0,0,0,0,0l0,0c0,0,0,0,0,0l1.9,2.1C343,160.3,343.5,160.5,344.1,160.5L344.1,160.5z M334.8,150.4c0.5,0,1-0.2,1.4-0.6
		c0.8-0.8,0.9-2.1,0.1-3l-2.8-3.1c-0.4-0.4-1-0.7-1.5-0.7c-0.5,0-1,0.2-1.4,0.6c-0.8,0.8-0.9,2.1-0.1,3l2.8,3.1
		C333.6,150.2,334.2,150.4,334.8,150.4L334.8,150.4z M325.4,140.3c0.5,0,1-0.2,1.4-0.6c0.8-0.8,0.9-2.1,0.1-3l-2.8-3.1
		c-0.4-0.4-1-0.7-1.5-0.7c-0.5,0-1,0.2-1.4,0.6c-0.8,0.8-0.9,2.1-0.1,3c0,0,0.4,0.4,0.9,1l0,0c0,0,0,0,0,0l1.9,2.1
		C324.3,140.1,324.9,140.3,325.4,140.3L325.4,140.3z M316.1,130.2c0.5,0,1-0.2,1.4-0.6c0.8-0.8,0.9-2.1,0.1-3l-2.8-3.1
		c-0.4-0.4-1-0.7-1.5-0.7c-0.5,0-1,0.2-1.4,0.6c-0.8,0.8-0.9,2.1-0.1,3l2.8,3.1C315,130,315.5,130.2,316.1,130.2L316.1,130.2z
		 M306.8,120.1c0.5,0,1-0.2,1.4-0.6c0.8-0.8,0.9-2.1,0.1-3l-2.8-3.1c-0.4-0.4-1-0.7-1.5-0.7c-0.5,0-1,0.2-1.4,0.6
		c-0.8,0.8-0.9,2.1-0.1,3l1.7,1.8c0,0,0,0,0,0l0,0c0,0,0,0,0,0l0,0c0.6,0.7,1.1,1.2,1.1,1.2C305.6,119.9,306.2,120.1,306.8,120.1
		L306.8,120.1z M291.6,123.3c0.6,0,1.1-0.2,1.6-0.7l2.8-3.1c0.8-0.9,0.7-2.2-0.2-3c-0.4-0.4-0.9-0.5-1.4-0.5c-0.6,0-1.2,0.2-1.6,0.7
		l-2.8,3.1c-0.8,0.9-0.7,2.2,0.2,3C290.7,123.1,291.2,123.3,291.6,123.3L291.6,123.3z M282.5,133.5c0.6,0,1.2-0.2,1.6-0.7l2.8-3.1
		c0.8-0.9,0.7-2.2-0.2-3c-0.4-0.4-0.9-0.5-1.4-0.5c-0.6,0-1.2,0.2-1.6,0.7l-2.8,3.1c-0.8,0.9-0.7,2.2,0.2,3
		C281.5,133.4,282,133.5,282.5,133.5L282.5,133.5z M273.4,143.8c0.6,0,1.2-0.2,1.6-0.7l1-1.1c0,0,0,0,0,0l0.1-0.1c0,0,0,0,0,0l0,0
		l0,0l0,0c0,0,0,0,0,0l0,0c0.8-0.9,1.7-1.9,1.7-1.9c0.8-0.9,0.7-2.2-0.2-3c-0.4-0.4-0.9-0.5-1.4-0.5c-0.6,0-1.2,0.2-1.6,0.7
		l-2.8,3.1c-0.8,0.9-0.7,2.2,0.2,3C272.4,143.6,272.9,143.8,273.4,143.8L273.4,143.8z M264.2,154.1c0.6,0,1.2-0.2,1.6-0.7
		c0,0,1.7-1.9,2.4-2.8l0,0c0,0,0,0,0,0l0,0l0,0l0,0c0,0,0,0,0,0l0.3-0.3c0.8-0.9,0.7-2.2-0.2-3c-0.4-0.4-0.9-0.5-1.4-0.5
		c-0.6,0-1.2,0.2-1.6,0.7l-2.8,3.1c-0.8,0.9-0.7,2.2,0.2,3C263.2,153.9,263.7,154.1,264.2,154.1L264.2,154.1z M255.1,164.4
		c0.6,0,1.1-0.2,1.6-0.7l2.8-3.1c0.8-0.9,0.7-2.2-0.2-3c-0.4-0.4-0.9-0.5-1.4-0.5c-0.6,0-1.2,0.2-1.6,0.7l-2.8,3.1
		c-0.8,0.9-0.7,2.2,0.2,3C254.1,164.2,254.6,164.4,255.1,164.4L255.1,164.4z M245.9,174.7c0.6,0,1.2-0.2,1.6-0.7l1-1.1c0,0,0,0,0,0
		l0,0c0,0,0,0,0,0l0-0.1c0,0,0,0,0,0l0,0c0,0,0,0,0,0l0,0c0.8-0.9,1.7-1.9,1.7-1.9c0.8-0.9,0.7-2.2-0.2-3c-0.4-0.4-0.9-0.5-1.4-0.5
		c-0.6,0-1.2,0.2-1.6,0.7l-2.8,3.1c-0.8,0.9-0.7,2.2,0.2,3C244.9,174.5,245.4,174.7,245.9,174.7L245.9,174.7z M236.8,185
		c0.6,0,1.1-0.2,1.6-0.7l2.8-3.1c0.8-0.9,0.7-2.2-0.2-3c-0.4-0.4-0.9-0.5-1.4-0.5c-0.6,0-1.2,0.2-1.6,0.7l-2.8,3.1
		c-0.8,0.9-0.7,2.2,0.2,3C235.8,184.8,236.3,185,236.8,185L236.8,185z M227.7,195.3c0.6,0,1.2-0.2,1.6-0.7l2.8-3.1
		c0.8-0.9,0.7-2.2-0.2-3c-0.4-0.4-0.9-0.5-1.4-0.5c-0.6,0-1.2,0.2-1.6,0.7l-2.8,3.1c-0.8,0.9-0.7,2.2,0.2,3
		C226.7,195.1,227.2,195.3,227.7,195.3L227.7,195.3z M218.5,205.5c0.6,0,1.2-0.2,1.6-0.7l2.8-3.1c0.8-0.9,0.7-2.2-0.2-3
		c-0.4-0.4-0.9-0.5-1.4-0.5c-0.6,0-1.2,0.2-1.6,0.7l-2.8,3.1c-0.8,0.9-0.7,2.2,0.2,3C217.5,205.4,218,205.5,218.5,205.5L218.5,205.5
		z M224.5,218.6c0.5,0,1-0.2,1.4-0.5c0.9-0.8,0.9-2.1,0.2-3l-1.3-1.4c0,0,0,0,0,0l0,0c0,0,0,0,0,0l0,0c0,0,0,0,0,0l0,0c0,0,0,0,0,0
		l0,0c0,0,0,0,0,0l0,0c-0.7-0.8-1.5-1.6-1.5-1.6c-0.4-0.5-1-0.7-1.6-0.7c-0.5,0-1,0.2-1.4,0.5c-0.9,0.8-0.9,2.1-0.2,3l2.8,3.1
		C223.4,218.4,223.9,218.6,224.5,218.6L224.5,218.6z M233.7,228.8c0.5,0,1-0.2,1.4-0.5c0.9-0.8,0.9-2.1,0.2-3l-2.8-3.1
		c-0.4-0.5-1-0.7-1.6-0.7c-0.5,0-1,0.2-1.4,0.5c-0.9,0.8-0.9,2.1-0.2,3l2.8,3.1C232.5,228.6,233.1,228.8,233.7,228.8L233.7,228.8z
		 M242.8,239.1c0.5,0,1-0.2,1.4-0.5c0.9-0.8,0.9-2.1,0.2-3l-2.1-2.4c0,0,0,0,0,0l0,0c0,0,0,0,0-0.1l0,0c0,0,0,0,0,0l0,0
		c-0.3-0.4-0.6-0.6-0.6-0.6c-0.4-0.5-1-0.7-1.6-0.7c-0.5,0-1,0.2-1.4,0.5c-0.9,0.8-0.9,2.1-0.2,3l2.8,3.1
		C241.7,238.9,242.3,239.1,242.8,239.1L242.8,239.1z M252,249.4c0.5,0,1-0.2,1.4-0.5c0.9-0.8,0.9-2.1,0.2-3l-2.8-3.1
		c-0.4-0.5-1-0.7-1.6-0.7c-0.5,0-1,0.2-1.4,0.5c-0.9,0.8-0.9,2.1-0.2,3l2.8,3.1C250.9,249.1,251.4,249.4,252,249.4L252,249.4z
		 M261.2,259.6c0.5,0,1-0.2,1.4-0.5c0.9-0.8,0.9-2.1,0.2-3L260,253c-0.4-0.5-1-0.7-1.6-0.7c-0.5,0-1,0.2-1.4,0.5
		c-0.9,0.8-0.9,2.1-0.2,3l2.8,3.1C260,259.4,260.6,259.6,261.2,259.6L261.2,259.6z M270.4,269.9c0.5,0,1-0.2,1.4-0.5
		c0.9-0.8,0.9-2.1,0.2-3c0,0-0.2-0.2-0.5-0.6l0,0c0,0,0,0,0,0l0,0c0,0,0,0,0,0l-2.3-2.5c-0.4-0.5-1-0.7-1.6-0.7
		c-0.5,0-1,0.2-1.4,0.5c-0.9,0.8-0.9,2.1-0.2,3l2.8,3.1C269.2,269.6,269.8,269.9,270.4,269.9L270.4,269.9z M279.5,280.1
		c0.5,0,1-0.2,1.4-0.5c0.9-0.8,0.9-2.1,0.2-3l-2.8-3.1c-0.4-0.5-1-0.7-1.6-0.7c-0.5,0-1,0.2-1.4,0.5c-0.9,0.8-0.9,2.1-0.2,3l2.8,3.1
		C278.4,279.9,279,280.1,279.5,280.1L279.5,280.1z M288.7,290.4c0.5,0,1-0.2,1.4-0.5c0.9-0.8,0.9-2.1,0.2-3l-2.8-3.1
		c-0.4-0.5-1-0.7-1.6-0.7c-0.5,0-1,0.2-1.4,0.5c-0.9,0.8-0.9,2.1-0.2,3l2.8,3.1C287.6,290.2,288.1,290.4,288.7,290.4L288.7,290.4z
		 M297.9,300.7c0.5,0,1-0.2,1.4-0.5c0.9-0.8,0.9-2.1,0.2-3c0,0-1.4-1.5-2.2-2.4l-0.6-0.7c-0.4-0.5-1-0.7-1.6-0.7
		c-0.5,0-1,0.2-1.4,0.5c-0.9,0.8-0.9,2.1-0.2,3l2.8,3.1C296.7,300.4,297.3,300.7,297.9,300.7L297.9,300.7z"/>
</g>
<g>
	<path style="fill:#8CC63F;" d="M184.7,317.4h5.6v5.6c0,1.4,1.1,2.5,2.5,2.5c1.4,0,2.5-1.1,2.5-2.5v-5.6h5.6c1.4,0,2.5-1.1,2.5-2.5
		c0-1.4-1.1-2.5-2.5-2.5h-5.6v-5.6c0-1.4-1.1-2.5-2.5-2.5c-1.4,0-2.5,1.1-2.5,2.5v5.6h-5.6c-1.4,0-2.5,1.1-2.5,2.5
		C182.2,316.3,183.3,317.4,184.7,317.4z"/>
	<path style="fill:#8CC63F;" d="M199,348.5h9c1.1,0,2,0.9,2,2v0c0,1.1-0.9,2-2,2h-9c-1.1,0-2-0.9-2-2v0
		C197,349.4,197.9,348.5,199,348.5z"/>
	<path style="fill:#8CC63F;" d="M199,344.3h9c1.1,0,2,0.9,2,2l0,0c0,1.1-0.9,2-2,2h-9c-1.1,0-2-0.9-2-2l0,0
		C197,345.2,197.9,344.3,199,344.3z"/>
	<path style="fill:#8CC63F;" d="M199,340.2h9c1.1,0,2,0.9,2,2l0,0c0,1.1-0.9,2-2,2h-9c-1.1,0-2-0.9-2-2l0,0
		C197,341.1,197.9,340.2,199,340.2z"/>
	<path style="fill:#8CC63F;" d="M199,336.1h9c1.1,0,2,0.9,2,2l0,0c0,1.1-0.9,2-2,2h-9c-1.1,0-2-0.9-2-2l0,0
		C197,337,197.9,336.1,199,336.1z"/>
	<path style="fill:#8CC63F;" d="M199,352.6h5c1.1,0,2,0.9,2,2l0,0c0,1.1-0.9,2-2,2h-5c-1.1,0-2-0.9-2-2l0,0
		C197,353.5,197.9,352.6,199,352.6z"/>
	<path style="fill:#8CC63F;" d="M199,331.9h5c1.1,0,2,0.9,2,2l0,0c0,1.1-0.9,2-2,2h-5c-1.1,0-2-0.9-2-2l0,0
		C197,332.8,197.9,331.9,199,331.9z"/>
	<path style="fill:#8CC63F;" d="M199,356.8h1c1.1,0,2,0.9,2,2l0,0c0,1.1-0.9,2-2,2h-1c-1.1,0-2-0.9-2-2l0,0
		C197,357.7,197.9,356.8,199,356.8z"/>
	<path style="fill:#8CC63F;" d="M199,327.8h1c1.1,0,2,0.9,2,2l0,0c0,1.1-0.9,2-2,2h-1c-1.1,0-2-0.9-2-2l0,0
		C197,328.7,197.9,327.8,199,327.8z"/>
	<path style="fill:#8CC63F;" d="M187,348.5h-9c-1.1,0-2,0.9-2,2v0c0,1.1,0.9,2,2,2h9c1.1,0,2-0.9,2-2v0
		C189,349.4,188.1,348.5,187,348.5z"/>
	<path style="fill:#8CC63F;" d="M187,344.3h-9c-1.1,0-2,0.9-2,2l0,0c0,1.1,0.9,2,2,2h9c1.1,0,2-0.9,2-2l0,0
		C189,345.2,188.1,344.3,187,344.3z"/>
	<path style="fill:#8CC63F;" d="M187,340.2h-9c-1.1,0-2,0.9-2,2l0,0c0,1.1,0.9,2,2,2h9c1.1,0,2-0.9,2-2l0,0
		C189,341.1,188.1,340.2,187,340.2z"/>
	<path style="fill:#8CC63F;" d="M187,336.1h-9c-1.1,0-2,0.9-2,2l0,0c0,1.1,0.9,2,2,2h9c1.1,0,2-0.9,2-2l0,0
		C189,337,188.1,336.1,187,336.1z"/>
	<path style="fill:#8CC63F;" d="M187,352.6h-5c-1.1,0-2,0.9-2,2l0,0c0,1.1,0.9,2,2,2h5c1.1,0,2-0.9,2-2l0,0
		C189,353.5,188.1,352.6,187,352.6z"/>
	<path style="fill:#8CC63F;" d="M187,331.9h-5c-1.1,0-2,0.9-2,2l0,0c0,1.1,0.9,2,2,2h5c1.1,0,2-0.9,2-2l0,0
		C189,332.8,188.1,331.9,187,331.9z"/>
	<path style="fill:#8CC63F;" d="M187,356.8h-1c-1.1,0-2,0.9-2,2l0,0c0,1.1,0.9,2,2,2h1c1.1,0,2-0.9,2-2l0,0
		C189,357.7,188.1,356.8,187,356.8z"/>
	<path style="fill:#8CC63F;" d="M187,327.8h-1c-1.1,0-2,0.9-2,2l0,0c0,1.1,0.9,2,2,2h1c1.1,0,2-0.9,2-2l0,0
		C189,328.7,188.1,327.8,187,327.8z"/>
	<path style="fill:#8CC63F;" d="M159.2,321.8v9c0,1.1-0.9,2-2,2l0,0c-1.1,0-2-0.9-2-2v-9c0-1.1,0.9-2,2-2l0,0
		C158.4,319.8,159.2,320.7,159.2,321.8z"/>
	<path style="fill:#8CC63F;" d="M163.4,321.8v9c0,1.1-0.9,2-2,2h0c-1.1,0-2-0.9-2-2v-9c0-1.1,0.9-2,2-2h0
		C162.5,319.8,163.4,320.7,163.4,321.8z"/>
	<path style="fill:#8CC63F;" d="M167.5,321.8v9c0,1.1-0.9,2-2,2l0,0c-1.1,0-2-0.9-2-2v-9c0-1.1,0.9-2,2-2l0,0
		C166.6,319.8,167.5,320.7,167.5,321.8z"/>
	<path style="fill:#8CC63F;" d="M171.7,321.8v9c0,1.1-0.9,2-2,2l0,0c-1.1,0-2-0.9-2-2v-9c0-1.1,0.9-2,2-2l0,0
		C170.8,319.8,171.7,320.7,171.7,321.8z"/>
	<path style="fill:#8CC63F;" d="M155.1,321.8v5c0,1.1-0.9,2-2,2l0,0c-1.1,0-2-0.9-2-2v-5c0-1.1,0.9-2,2-2l0,0
		C154.2,319.8,155.1,320.7,155.1,321.8z"/>
	<path style="fill:#8CC63F;" d="M175.8,321.8v5c0,1.1-0.9,2-2,2l0,0c-1.1,0-2-0.9-2-2v-5c0-1.1,0.9-2,2-2l0,0
		C174.9,319.8,175.8,320.7,175.8,321.8z"/>
	<path style="fill:#8CC63F;" d="M151,321.8v1c0,1.1-0.9,2-2,2h0c-1.1,0-2-0.9-2-2v-1c0-1.1,0.9-2,2-2h0
		C150.1,319.8,151,320.7,151,321.8z"/>
	<path style="fill:#8CC63F;" d="M180,321.8v1c0,1.1-0.9,2-2,2h0c-1.1,0-2-0.9-2-2v-1c0-1.1,0.9-2,2-2h0
		C179.1,319.8,180,320.7,180,321.8z"/>
	<path style="fill:#8CC63F;" d="M159.2,309.8v-9c0-1.1-0.9-2-2-2l0,0c-1.1,0-2,0.9-2,2v9c0,1.1,0.9,2,2,2l0,0
		C158.4,311.8,159.2,310.9,159.2,309.8z"/>
	<path style="fill:#8CC63F;" d="M163.4,309.8v-9c0-1.1-0.9-2-2-2h0c-1.1,0-2,0.9-2,2v9c0,1.1,0.9,2,2,2h0
		C162.5,311.8,163.4,310.9,163.4,309.8z"/>
	<path style="fill:#8CC63F;" d="M167.5,309.8v-9c0-1.1-0.9-2-2-2l0,0c-1.1,0-2,0.9-2,2v9c0,1.1,0.9,2,2,2l0,0
		C166.6,311.8,167.5,310.9,167.5,309.8z"/>
	<path style="fill:#8CC63F;" d="M171.7,309.8v-9c0-1.1-0.9-2-2-2l0,0c-1.1,0-2,0.9-2,2v9c0,1.1,0.9,2,2,2l0,0
		C170.8,311.8,171.7,310.9,171.7,309.8z"/>
	<path style="fill:#8CC63F;" d="M155.1,309.8v-5c0-1.1-0.9-2-2-2l0,0c-1.1,0-2,0.9-2,2v5c0,1.1,0.9,2,2,2l0,0
		C154.2,311.8,155.1,310.9,155.1,309.8z"/>
	<path style="fill:#8CC63F;" d="M175.8,309.8v-5c0-1.1-0.9-2-2-2l0,0c-1.1,0-2,0.9-2,2v5c0,1.1,0.9,2,2,2l0,0
		C174.9,311.8,175.8,310.9,175.8,309.8z"/>
	<path style="fill:#8CC63F;" d="M151,309.8v-1c0-1.1-0.9-2-2-2h0c-1.1,0-2,0.9-2,2v1c0,1.1,0.9,2,2,2h0
		C150.1,311.8,151,310.9,151,309.8z"/>
	<path style="fill:#8CC63F;" d="M180,309.8v-1c0-1.1-0.9-2-2-2h0c-1.1,0-2,0.9-2,2v1c0,1.1,0.9,2,2,2h0
		C179.1,311.8,180,310.9,180,309.8z"/>
	<path style="fill:#8CC63F;" d="M186,282.1h-9c-1.1,0-2-0.9-2-2l0,0c0-1.1,0.9-2,2-2h9c1.1,0,2,0.9,2,2l0,0
		C188,281.2,187.1,282.1,186,282.1z"/>
	<path style="fill:#8CC63F;" d="M186,286.2h-9c-1.1,0-2-0.9-2-2l0,0c0-1.1,0.9-2,2-2h9c1.1,0,2,0.9,2,2l0,0
		C188,285.3,187.1,286.2,186,286.2z"/>
	<path style="fill:#8CC63F;" d="M186,290.3h-9c-1.1,0-2-0.9-2-2l0,0c0-1.1,0.9-2,2-2h9c1.1,0,2,0.9,2,2l0,0
		C188,289.4,187.1,290.3,186,290.3z"/>
	<path style="fill:#8CC63F;" d="M186,294.5h-9c-1.1,0-2-0.9-2-2v0c0-1.1,0.9-2,2-2h9c1.1,0,2,0.9,2,2v0
		C188,293.6,187.1,294.5,186,294.5z"/>
	<path style="fill:#8CC63F;" d="M186,277.9h-5c-1.1,0-2-0.9-2-2l0,0c0-1.1,0.9-2,2-2h5c1.1,0,2,0.9,2,2l0,0
		C188,277,187.1,277.9,186,277.9z"/>
	<path style="fill:#8CC63F;" d="M186,298.6h-5c-1.1,0-2-0.9-2-2l0,0c0-1.1,0.9-2,2-2h5c1.1,0,2,0.9,2,2l0,0
		C188,297.7,187.1,298.6,186,298.6z"/>
	<path style="fill:#8CC63F;" d="M186,273.8h-1c-1.1,0-2-0.9-2-2l0,0c0-1.1,0.9-2,2-2h1c1.1,0,2,0.9,2,2l0,0
		C188,272.9,187.1,273.8,186,273.8z"/>
	<path style="fill:#8CC63F;" d="M186,302.8h-1c-1.1,0-2-0.9-2-2l0,0c0-1.1,0.9-2,2-2h1c1.1,0,2,0.9,2,2l0,0
		C188,301.9,187.1,302.8,186,302.8z"/>
	<path style="fill:#8CC63F;" d="M198,282.1h9c1.1,0,2-0.9,2-2l0,0c0-1.1-0.9-2-2-2h-9c-1.1,0-2,0.9-2,2l0,0
		C196,281.2,196.9,282.1,198,282.1z"/>
	<path style="fill:#8CC63F;" d="M198,286.2h9c1.1,0,2-0.9,2-2l0,0c0-1.1-0.9-2-2-2h-9c-1.1,0-2,0.9-2,2l0,0
		C196,285.3,196.9,286.2,198,286.2z"/>
	<path style="fill:#8CC63F;" d="M198,290.3h9c1.1,0,2-0.9,2-2l0,0c0-1.1-0.9-2-2-2h-9c-1.1,0-2,0.9-2,2l0,0
		C196,289.4,196.9,290.3,198,290.3z"/>
	<path style="fill:#8CC63F;" d="M198,294.5h9c1.1,0,2-0.9,2-2v0c0-1.1-0.9-2-2-2h-9c-1.1,0-2,0.9-2,2v0
		C196,293.6,196.9,294.5,198,294.5z"/>
	<path style="fill:#8CC63F;" d="M198,277.9h5c1.1,0,2-0.9,2-2l0,0c0-1.1-0.9-2-2-2h-5c-1.1,0-2,0.9-2,2l0,0
		C196,277,196.9,277.9,198,277.9z"/>
	<path style="fill:#8CC63F;" d="M198,298.6h5c1.1,0,2-0.9,2-2l0,0c0-1.1-0.9-2-2-2h-5c-1.1,0-2,0.9-2,2l0,0
		C196,297.7,196.9,298.6,198,298.6z"/>
	<path style="fill:#8CC63F;" d="M198,273.8h1c1.1,0,2-0.9,2-2l0,0c0-1.1-0.9-2-2-2h-1c-1.1,0-2,0.9-2,2l0,0
		C196,272.9,196.9,273.8,198,273.8z"/>
	<path style="fill:#8CC63F;" d="M198,302.8h1c1.1,0,2-0.9,2-2l0,0c0-1.1-0.9-2-2-2h-1c-1.1,0-2,0.9-2,2l0,0
		C196,301.9,196.9,302.8,198,302.8z"/>
	<path style="fill:#8CC63F;" d="M225.7,308.8v-9c0-1.1,0.9-2,2-2l0,0c1.1,0,2,0.9,2,2v9c0,1.1-0.9,2-2,2l0,0
		C226.6,310.8,225.7,309.9,225.7,308.8z"/>
	<path style="fill:#8CC63F;" d="M221.5,308.8v-9c0-1.1,0.9-2,2-2l0,0c1.1,0,2,0.9,2,2v9c0,1.1-0.9,2-2,2l0,0
		C222.4,310.8,221.5,309.9,221.5,308.8z"/>
	<path style="fill:#8CC63F;" d="M217.4,308.8v-9c0-1.1,0.9-2,2-2h0c1.1,0,2,0.9,2,2v9c0,1.1-0.9,2-2,2h0
		C218.3,310.8,217.4,309.9,217.4,308.8z"/>
	<path style="fill:#8CC63F;" d="M213.2,308.8v-9c0-1.1,0.9-2,2-2l0,0c1.1,0,2,0.9,2,2v9c0,1.1-0.9,2-2,2l0,0
		C214.1,310.8,213.2,309.9,213.2,308.8z"/>
	<path style="fill:#8CC63F;" d="M229.8,308.8v-5c0-1.1,0.9-2,2-2l0,0c1.1,0,2,0.9,2,2v5c0,1.1-0.9,2-2,2l0,0
		C230.7,310.8,229.8,309.9,229.8,308.8z"/>
	<path style="fill:#8CC63F;" d="M209.1,308.8v-5c0-1.1,0.9-2,2-2l0,0c1.1,0,2,0.9,2,2v5c0,1.1-0.9,2-2,2l0,0
		C210,310.8,209.1,309.9,209.1,308.8z"/>
	<path style="fill:#8CC63F;" d="M234,308.8v-1c0-1.1,0.9-2,2-2h0c1.1,0,2,0.9,2,2v1c0,1.1-0.9,2-2,2h0
		C234.9,310.8,234,309.9,234,308.8z"/>
	<path style="fill:#8CC63F;" d="M205,308.8v-1c0-1.1,0.9-2,2-2h0c1.1,0,2,0.9,2,2v1c0,1.1-0.9,2-2,2h0
		C205.9,310.8,205,309.9,205,308.8z"/>
	<path style="fill:#8CC63F;" d="M225.7,320.8v9c0,1.1,0.9,2,2,2l0,0c1.1,0,2-0.9,2-2v-9c0-1.1-0.9-2-2-2l0,0
		C226.6,318.8,225.7,319.7,225.7,320.8z"/>
	<path style="fill:#8CC63F;" d="M221.5,320.8v9c0,1.1,0.9,2,2,2l0,0c1.1,0,2-0.9,2-2v-9c0-1.1-0.9-2-2-2l0,0
		C222.4,318.8,221.5,319.7,221.5,320.8z"/>
	<path style="fill:#8CC63F;" d="M217.4,320.8v9c0,1.1,0.9,2,2,2h0c1.1,0,2-0.9,2-2v-9c0-1.1-0.9-2-2-2h0
		C218.3,318.8,217.4,319.7,217.4,320.8z"/>
	<path style="fill:#8CC63F;" d="M213.2,320.8v9c0,1.1,0.9,2,2,2l0,0c1.1,0,2-0.9,2-2v-9c0-1.1-0.9-2-2-2l0,0
		C214.1,318.8,213.2,319.7,213.2,320.8z"/>
	<path style="fill:#8CC63F;" d="M229.8,320.8v5c0,1.1,0.9,2,2,2l0,0c1.1,0,2-0.9,2-2v-5c0-1.1-0.9-2-2-2l0,0
		C230.7,318.8,229.8,319.7,229.8,320.8z"/>
	<path style="fill:#8CC63F;" d="M209.1,320.8v5c0,1.1,0.9,2,2,2l0,0c1.1,0,2-0.9,2-2v-5c0-1.1-0.9-2-2-2l0,0
		C210,318.8,209.1,319.7,209.1,320.8z"/>
	<path style="fill:#8CC63F;" d="M234,320.8v1c0,1.1,0.9,2,2,2h0c1.1,0,2-0.9,2-2v-1c0-1.1-0.9-2-2-2h0
		C234.9,318.8,234,319.7,234,320.8z"/>
	<path style="fill:#8CC63F;" d="M205,320.8v1c0,1.1,0.9,2,2,2h0c1.1,0,2-0.9,2-2v-1c0-1.1-0.9-2-2-2h0
		C205.9,318.8,205,319.7,205,320.8z"/>
	<path style="fill:#8CC63F;" d="M120.3,311.2c0.5,0,1,0.2,1.4,0.5c0.9,0.8,0.9,2.1,0.2,3l-0.2,0.2l0.2,0.2c0.8,0.9,0.7,2.2-0.2,3
		c-0.9,0.8-2.2,0.7-3-0.2l-2.6-3l2.6-3C119.1,311.5,119.7,311.2,120.3,311.2z"/>
	<path style="fill:#8CC63F;" d="M183,240.7c0.5,0,1,0.2,1.4,0.5c0.9,0.8,0.9,2.1,0.2,3l-2.7,3.1c-0.8,0.9-2.1,0.9-3,0.2
		c-0.9-0.8-0.9-2.1-0.2-3l2.7-3.1C181.8,240.9,182.4,240.7,183,240.7z M174,250.8c0.5,0,1,0.2,1.4,0.5c0.9,0.8,0.9,2.1,0.2,3
		l-2.7,3.1c-0.8,0.9-2.1,0.9-3,0.2c-0.9-0.8-0.9-2.1-0.2-3l2.7-3.1C172.9,251,173.4,250.8,174,250.8z M165.1,260.8
		c0.5,0,1,0.2,1.4,0.5c0.9,0.8,0.9,2.1,0.2,3l-2.7,3.1c-0.8,0.9-2.1,0.9-3,0.2c-0.9-0.8-0.9-2.1-0.2-3l2.7-3.1
		C163.9,261.1,164.5,260.8,165.1,260.8z M156.1,270.9c0.5,0,1,0.2,1.4,0.5c0.9,0.8,0.9,2.1,0.2,3l-2.7,3.1c-0.8,0.9-2.1,0.9-3,0.2
		c-0.9-0.8-0.9-2.1-0.2-3l2.7-3.1C155,271.2,155.5,270.9,156.1,270.9z M147.2,281c0.5,0,1,0.2,1.4,0.5c0.9,0.8,0.9,2.1,0.2,3
		l-2.7,3.1c-0.8,0.9-2.1,0.9-3,0.2c-0.9-0.8-0.9-2.1-0.2-3l2.7-3.1C146,281.2,146.6,281,147.2,281z M138.2,291.1
		c0.5,0,1,0.2,1.4,0.5c0.9,0.8,0.9,2.1,0.2,3l-2.7,3.1c-0.8,0.9-2.1,0.9-3,0.2c-0.9-0.8-0.9-2.1-0.2-3l2.7-3.1
		C137,291.3,137.6,291.1,138.2,291.1z M129.2,301.2c0.5,0,1,0.2,1.4,0.5c0.9,0.8,0.9,2.1,0.2,3l-2.7,3.1c-0.8,0.9-2.1,0.9-3,0.2
		c-0.9-0.8-0.9-2.1-0.2-3l2.7-3.1C128.1,301.4,128.7,301.2,129.2,301.2z"/>
	<path style="fill:#8CC63F;" d="M190.6,231.1l3,3.2c0.8,0.8,0.7,2.2-0.1,3c-0.8,0.7-2,0.7-2.8,0c-0.8,0.7-2,0.7-2.8,0
		c-0.9-0.8-0.9-2.1-0.2-3L190.6,231.1z"/>
	<path style="fill:#8CC63F;" d="M198.7,240.9c0.6,0,1.1,0.2,1.5,0.7l2.9,3.2c0.8,0.9,0.7,2.2-0.1,3c-0.8,0.8-2.2,0.7-3-0.1l-2.9-3.2
		c-0.8-0.9-0.7-2.2,0.1-3C197.7,241.1,198.2,240.9,198.7,240.9z M208.3,251.3c0.6,0,1.1,0.2,1.5,0.7l2.9,3.2c0.8,0.9,0.7,2.2-0.1,3
		c-0.8,0.8-2.2,0.7-3-0.1l-2.9-3.2c-0.8-0.9-0.7-2.2,0.1-3C207.3,251.5,207.8,251.3,208.3,251.3z M217.9,261.7
		c0.6,0,1.1,0.2,1.5,0.7l2.9,3.2c0.8,0.9,0.7,2.2-0.1,3c-0.8,0.8-2.2,0.7-3-0.1l-2.9-3.2c-0.8-0.9-0.7-2.2,0.1-3
		C216.9,261.9,217.4,261.7,217.9,261.7z M227.5,272.1c0.6,0,1.1,0.2,1.5,0.7l2.9,3.2c0.8,0.9,0.7,2.2-0.1,3c-0.8,0.8-2.2,0.7-3-0.1
		l-2.9-3.2c-0.8-0.9-0.7-2.2,0.1-3C226.5,272.3,227,272.1,227.5,272.1z M237.1,282.5c0.6,0,1.1,0.2,1.5,0.7l2.9,3.2
		c0.8,0.9,0.7,2.2-0.1,3c-0.8,0.8-2.2,0.7-3-0.1l-2.9-3.2c-0.8-0.9-0.7-2.2,0.1-3C236.1,282.7,236.6,282.5,237.1,282.5z
		 M246.7,292.9c0.6,0,1.1,0.2,1.5,0.7l2.9,3.2c0.8,0.9,0.7,2.2-0.1,3c-0.8,0.8-2.2,0.7-3-0.1l-2.9-3.2c-0.8-0.9-0.7-2.2,0.1-3
		C245.6,293,246.2,292.9,246.7,292.9z M256.3,303.3c0.6,0,1.1,0.2,1.5,0.7l2.9,3.2c0.8,0.9,0.7,2.2-0.1,3c-0.9,0.8-2.2,0.7-3-0.1
		l-2.9-3.2c-0.8-0.9-0.7-2.2,0.1-3C255.2,303.4,255.8,303.3,256.3,303.3z"/>
	<path style="fill:#8CC63F;" d="M265.9,313.7c0.6,0,1.1,0.2,1.5,0.7l2.7,3l-2.7,3c-0.8,0.9-2.1,0.9-3,0.1c-0.9-0.8-0.9-2.1-0.1-3
		l0.1-0.1l-0.1-0.1c-0.8-0.8-0.7-2.2,0.1-3C264.8,313.8,265.3,313.7,265.9,313.7z"/>
	<path style="fill:#8CC63F;" d="M259.4,323.8c0.5,0,1,0.2,1.4,0.6c0.9,0.8,0.9,2.1,0.1,3l-2.8,3.1c-0.8,0.9-2.1,0.9-3,0.1
		c-0.9-0.8-0.9-2.1-0.1-3l2.8-3.1C258.3,324,258.8,323.8,259.4,323.8z M250.2,333.8c0.5,0,1,0.2,1.4,0.6c0.9,0.8,0.9,2.1,0.1,3
		l-2.8,3.1c-0.8,0.9-2.1,0.9-3,0.1c-0.9-0.8-0.9-2.1-0.1-3l2.8-3.1C249,334.1,249.6,333.8,250.2,333.8z M240.9,343.9
		c0.5,0,1,0.2,1.4,0.6c0.9,0.8,0.9,2.1,0.1,3l-2.8,3.1c-0.8,0.9-2.1,0.9-3,0.1c-0.9-0.8-0.9-2.1-0.1-3l2.8-3.1
		C239.8,344.1,240.3,343.9,240.9,343.9z M231.6,354c0.5,0,1,0.2,1.4,0.6c0.9,0.8,0.9,2.1,0.1,3l-2.8,3.1c-0.8,0.9-2.1,0.9-3,0.1
		c-0.9-0.8-0.9-2.1-0.1-3l2.8-3.1C230.5,354.2,231.1,354,231.6,354z M222.4,364.1c0.5,0,1,0.2,1.4,0.6c0.9,0.8,0.9,2.1,0.1,3
		l-2.8,3.1c-0.8,0.9-2.1,0.9-3,0.1c-0.9-0.8-0.9-2.1-0.1-3l2.8-3.1C221.2,364.3,221.8,364.1,222.4,364.1z M213.1,374.2
		c0.5,0,1,0.2,1.4,0.6c0.9,0.8,0.9,2.1,0.1,3l-2.8,3.1c-0.8,0.9-2.1,0.9-3,0.1c-0.9-0.8-0.9-2.1-0.1-3l2.8-3.1
		C212,374.4,212.5,374.2,213.1,374.2z M203.8,384.3c0.5,0,1,0.2,1.4,0.6c0.9,0.8,0.9,2.1,0.1,3l-2.8,3.1c-0.8,0.9-2.1,0.9-3,0.1
		c-0.9-0.8-0.9-2.1-0.1-3l2.8-3.1C202.7,384.5,203.3,384.3,203.8,384.3z"/>
	<path style="fill:#8CC63F;" d="M191.8,394.3c0.5,0,1,0.2,1.4,0.6c0.8-0.7,2-0.7,2.8,0c0.9,0.8,0.9,2.1,0.1,3l-3,3.2l-2.9-3.3
		c-0.8-0.9-0.7-2.2,0.2-3C190.8,394.5,191.3,394.3,191.8,394.3z"/>
	<path style="fill:#8CC63F;" d="M126.7,321.6c0.6,0,1.1,0.2,1.6,0.7l2.8,3.2c0.8,0.9,0.7,2.2-0.2,3c-0.9,0.8-2.2,0.7-3-0.2l-2.8-3.2
		c-0.8-0.9-0.7-2.2,0.2-3C125.8,321.8,126.3,321.6,126.7,321.6z M136,332c0.6,0,1.1,0.2,1.6,0.7l2.8,3.2c0.8,0.9,0.7,2.2-0.2,3
		c-0.9,0.8-2.2,0.7-3-0.2l-2.8-3.2c-0.8-0.9-0.7-2.2,0.2-3C135,332.2,135.5,332,136,332z M145.3,342.4c0.6,0,1.1,0.2,1.6,0.7
		l2.8,3.2c0.8,0.9,0.7,2.2-0.2,3c-0.9,0.8-2.2,0.7-3-0.2l-2.8-3.2c-0.8-0.9-0.7-2.2,0.2-3C144.3,342.5,144.8,342.4,145.3,342.4z
		 M154.6,352.8c0.6,0,1.1,0.2,1.6,0.7l2.8,3.2c0.8,0.9,0.7,2.2-0.2,3c-0.9,0.8-2.2,0.7-3-0.2l-2.8-3.2c-0.8-0.9-0.7-2.2,0.2-3
		C153.6,352.9,154.1,352.8,154.6,352.8z M163.9,363.1c0.6,0,1.1,0.2,1.6,0.7l2.8,3.2c0.8,0.9,0.7,2.2-0.2,3c-0.9,0.8-2.2,0.7-3-0.2
		l-2.8-3.2c-0.8-0.9-0.7-2.2,0.2-3C162.9,363.3,163.4,363.1,163.9,363.1z M173.2,373.5c0.6,0,1.1,0.2,1.6,0.7l2.8,3.2
		c0.8,0.9,0.7,2.2-0.2,3c-0.9,0.8-2.2,0.7-3-0.2l-2.8-3.2c-0.8-0.9-0.7-2.2,0.2-3C172.2,373.7,172.7,373.5,173.2,373.5z
		 M182.5,383.9c0.6,0,1.1,0.2,1.6,0.7l2.8,3.2c0.8,0.9,0.7,2.2-0.2,3c-0.9,0.8-2.2,0.7-3-0.2l-2.8-3.2c-0.8-0.9-0.7-2.2,0.2-3
		C181.5,384.1,182,383.9,182.5,383.9z"/>
	<path style="fill:#8CC63F;" d="M194.9,413.3c0.6,0,1.1-0.2,1.5-0.7l2.8-3.1c0.8-0.9,0.7-2.2-0.1-3c-0.4-0.4-0.9-0.6-1.4-0.6
		c-0.6,0-1.1,0.2-1.5,0.7l-2.8,3.1l0,0c-0.8,0.9-0.7,2.2,0.1,3C193.9,413.1,194.4,413.3,194.9,413.3L194.9,413.3z M204.2,403.1
		c0.6,0,1.1-0.2,1.5-0.7l2.8-3.1c0.8-0.9,0.7-2.2-0.1-3c-0.4-0.4-0.9-0.6-1.4-0.6c-0.6,0-1.1,0.2-1.5,0.7l-2.8,3.1
		c-0.8,0.9-0.7,2.2,0.1,3C203.2,403,203.7,403.1,204.2,403.1L204.2,403.1z M213.5,393c0.6,0,1.1-0.2,1.5-0.7l2.8-3.1
		c0.8-0.9,0.7-2.2-0.1-3c-0.4-0.4-0.9-0.6-1.4-0.6c-0.6,0-1.1,0.2-1.5,0.7l-0.9,1c0,0,0,0,0,0l0,0c-0.8,0.9-1.9,2.1-1.9,2.1
		c-0.8,0.9-0.7,2.2,0.1,3C212.5,392.8,213,393,213.5,393L213.5,393z M222.8,382.9c0.6,0,1.1-0.2,1.5-0.7l2.8-3.1
		c0.8-0.9,0.7-2.2-0.1-3c-0.4-0.4-0.9-0.6-1.4-0.6c-0.6,0-1.1,0.2-1.5,0.7c0,0-1.1,1.2-1.9,2l0,0c0,0,0,0,0,0l0,0c0,0,0,0,0,0l0,0
		c0,0,0,0,0,0l0,0c0,0,0,0,0,0l-0.9,1c-0.8,0.9-0.7,2.2,0.1,3C221.8,382.7,222.3,382.9,222.8,382.9L222.8,382.9z M232.1,372.7
		c0.6,0,1.1-0.2,1.5-0.7l2.8-3.1c0.8-0.9,0.7-2.2-0.1-3c-0.4-0.4-0.9-0.6-1.4-0.6c-0.6,0-1.1,0.2-1.5,0.7l-2.8,3.1
		c-0.8,0.9-0.7,2.2,0.1,3C231.1,372.5,231.6,372.7,232.1,372.7L232.1,372.7z M241.4,362.6c0.6,0,1.1-0.2,1.5-0.7l2.8-3.1
		c0.8-0.9,0.7-2.2-0.1-3c-0.4-0.4-0.9-0.6-1.4-0.6c-0.6,0-1.1,0.2-1.5,0.7l-1.5,1.6c0,0,0,0,0,0l0,0c-0.7,0.7-1.3,1.4-1.3,1.4
		c-0.8,0.9-0.7,2.2,0.1,3C240.4,362.4,240.9,362.6,241.4,362.6L241.4,362.6z M250.7,352.5c0.6,0,1.1-0.2,1.5-0.7l2.8-3.1
		c0.8-0.9,0.7-2.2-0.1-3c-0.4-0.4-0.9-0.6-1.4-0.6c-0.6,0-1.1,0.2-1.5,0.7l-2.8,3.1c-0.8,0.9-0.7,2.2,0.1,3
		C249.7,352.3,250.2,352.5,250.7,352.5L250.7,352.5z M260.1,342.3c0.6,0,1.1-0.2,1.5-0.7l2.8-3.1c0.8-0.9,0.7-2.2-0.1-3
		c-0.4-0.4-0.9-0.6-1.4-0.6c-0.6,0-1.1,0.2-1.5,0.7c0,0-0.3,0.3-0.6,0.7l0,0c0,0,0,0,0,0l0,0c0,0,0,0,0,0l-2.2,2.4
		c-0.8,0.9-0.7,2.2,0.1,3C259,342.1,259.5,342.3,260.1,342.3L260.1,342.3z M269.4,332.2c0.6,0,1.1-0.2,1.5-0.7l2.8-3.1
		c0.8-0.9,0.7-2.2-0.1-3c-0.4-0.4-0.9-0.6-1.4-0.6c-0.6,0-1.1,0.2-1.5,0.7l-2.8,3.1c-0.8,0.9-0.7,2.2,0.1,3
		C268.3,332,268.9,332.2,269.4,332.2L269.4,332.2z M278.7,322.1c0.6,0,1.1-0.2,1.5-0.7l1-1.1l2.6-2.8l-2.6-2.8l-1.8-2
		c-0.4-0.4-1-0.7-1.5-0.7c-0.5,0-1,0.2-1.4,0.6c-0.8,0.8-0.9,2.1-0.1,3l1.8,2c0,0,0,0,0,0l0,0c0,0,0,0,0,0l0,0c0,0,0,0,0,0l0,0
		c0,0,0,0,0,0l0,0c0,0,0,0,0,0l0,0c0,0,0,0,0,0l0,0c0,0,0,0,0,0l0,0c0,0,0,0,0,0l0,0c0,0,0,0,0,0l0,0c0,0,0,0,0,0l0,0l0,0l0,0l0,0
		l0,0c0,0,0,0,0,0l0,0c0,0,0,0,0,0l0,0c0,0,0,0,0,0l0,0c0,0,0,0,0,0l0,0c0,0,0,0,0,0l0,0c0,0,0,0,0,0l0,0c0,0,0,0,0,0l0,0
		c0,0,0,0,0,0l0,0c0,0,0,0,0,0l0,0c0,0,0,0,0,0l0,0c0,0,0,0,0,0l0,0c0,0,0,0,0,0l0,0c-0.3,0.3-0.9,1-0.9,1c-0.8,0.9-0.7,2.2,0.1,3
		C277.7,321.9,278.2,322.1,278.7,322.1L278.7,322.1z M271.3,309.1c0.5,0,1-0.2,1.4-0.6c0.8-0.8,0.9-2.1,0.1-3l-2.8-3.1
		c-0.4-0.4-1-0.7-1.5-0.7c-0.5,0-1,0.2-1.4,0.6c-0.8,0.8-0.9,2.1-0.1,3l1.9,2.1c0,0,0,0,0,0l0,0c0.5,0.6,0.9,1,0.9,1
		C270.2,308.9,270.8,309.1,271.3,309.1L271.3,309.1z M262,299c0.5,0,1-0.2,1.4-0.6c0.8-0.8,0.9-2.1,0.1-3l-2.8-3.1
		c-0.4-0.4-1-0.7-1.5-0.7c-0.5,0-1,0.2-1.4,0.6c-0.8,0.8-0.9,2.1-0.1,3c0,0,1.8,1.9,2.5,2.7l0,0c0,0,0,0,0,0l0,0c0,0,0,0,0,0
		l0.3,0.3C260.9,298.8,261.4,299,262,299L262,299z M252.7,288.9c0.5,0,1-0.2,1.4-0.6c0.8-0.8,0.9-2.1,0.1-3l-2.8-3.1
		c-0.4-0.4-1-0.7-1.5-0.7c-0.5,0-1,0.2-1.4,0.6c-0.8,0.8-0.9,2.1-0.1,3l2.8,3.1C251.5,288.7,252.1,288.9,252.7,288.9L252.7,288.9z
		 M243.3,278.8c0.5,0,1-0.2,1.4-0.6c0.8-0.8,0.9-2.1,0.1-3l-2.8-3.1c-0.4-0.4-1-0.7-1.5-0.7c-0.5,0-1,0.2-1.4,0.6
		c-0.8,0.8-0.9,2.1-0.1,3l2.8,3.1C242.2,278.5,242.8,278.8,243.3,278.8L243.3,278.8z M234,268.7c0.5,0,1-0.2,1.4-0.6
		c0.8-0.8,0.9-2.1,0.1-3l-2.8-3.1c-0.4-0.4-1-0.7-1.5-0.7c-0.5,0-1,0.2-1.4,0.6c-0.8,0.8-0.9,2.1-0.1,3c0,0,0.4,0.4,0.9,1l0,0
		c0,0,0,0,0,0l0,0c0,0,0,0,0,0l1.9,2.1C232.9,268.4,233.4,268.7,234,268.7L234,268.7z M224.7,258.5c0.5,0,1-0.2,1.4-0.6
		c0.8-0.8,0.9-2.1,0.1-3l-2.8-3.1c-0.4-0.4-1-0.7-1.5-0.7c-0.5,0-1,0.2-1.4,0.6c-0.8,0.8-0.9,2.1-0.1,3l2.8,3.1
		C223.5,258.3,224.1,258.5,224.7,258.5L224.7,258.5z M215.3,248.4c0.5,0,1-0.2,1.4-0.6c0.8-0.8,0.9-2.1,0.1-3l-2.8-3.1
		c-0.4-0.4-1-0.7-1.5-0.7c-0.5,0-1,0.2-1.4,0.6c-0.8,0.8-0.9,2.1-0.1,3c0,0,0.4,0.4,0.9,1l0,0c0,0,0,0,0,0l1.9,2.1
		C214.2,248.2,214.8,248.4,215.3,248.4L215.3,248.4z M206,238.3c0.5,0,1-0.2,1.4-0.6c0.8-0.8,0.9-2.1,0.1-3l-2.8-3.1
		c-0.4-0.4-1-0.7-1.5-0.7c-0.5,0-1,0.2-1.4,0.6c-0.8,0.8-0.9,2.1-0.1,3l2.8,3.1C204.9,238.1,205.4,238.3,206,238.3L206,238.3z
		 M196.7,228.2c0.5,0,1-0.2,1.4-0.6c0.8-0.8,0.9-2.1,0.1-3l-2.8-3.1c-0.4-0.4-1-0.7-1.5-0.7c-0.5,0-1,0.2-1.4,0.6
		c-0.8,0.8-0.9,2.1-0.1,3l1.7,1.8c0,0,0,0,0,0l0,0c0,0,0,0,0,0l0,0c0.6,0.7,1.1,1.2,1.1,1.2C195.5,228,196.1,228.2,196.7,228.2
		L196.7,228.2z M181.5,231.4c0.6,0,1.1-0.2,1.6-0.7l2.8-3.1c0.8-0.9,0.7-2.2-0.2-3c-0.4-0.4-0.9-0.5-1.4-0.5c-0.6,0-1.2,0.2-1.6,0.7
		l-2.8,3.1c-0.8,0.9-0.7,2.2,0.2,3C180.6,231.2,181,231.4,181.5,231.4L181.5,231.4z M172.4,241.6c0.6,0,1.2-0.2,1.6-0.7l2.8-3.1
		c0.8-0.9,0.7-2.2-0.2-3c-0.4-0.4-0.9-0.5-1.4-0.5c-0.6,0-1.2,0.2-1.6,0.7l-2.8,3.1c-0.8,0.9-0.7,2.2,0.2,3
		C171.4,241.5,171.9,241.6,172.4,241.6L172.4,241.6z M163.3,251.9c0.6,0,1.2-0.2,1.6-0.7l1-1.1c0,0,0,0,0,0l0.1-0.1c0,0,0,0,0,0l0,0
		l0,0l0,0c0,0,0,0,0,0l0,0c0.8-0.9,1.7-1.9,1.7-1.9c0.8-0.9,0.7-2.2-0.2-3c-0.4-0.4-0.9-0.5-1.4-0.5c-0.6,0-1.2,0.2-1.6,0.7
		l-2.8,3.1c-0.8,0.9-0.7,2.2,0.2,3C162.3,251.7,162.8,251.9,163.3,251.9L163.3,251.9z M154.1,262.2c0.6,0,1.2-0.2,1.6-0.7
		c0,0,1.7-1.9,2.4-2.8l0,0c0,0,0,0,0,0l0,0l0,0l0,0c0,0,0,0,0,0l0.3-0.3c0.8-0.9,0.7-2.2-0.2-3c-0.4-0.4-0.9-0.5-1.4-0.5
		c-0.6,0-1.2,0.2-1.6,0.7l-2.8,3.1c-0.8,0.9-0.7,2.2,0.2,3C153.1,262,153.6,262.2,154.1,262.2L154.1,262.2z M145,272.5
		c0.6,0,1.1-0.2,1.6-0.7l2.8-3.1c0.8-0.9,0.7-2.2-0.2-3c-0.4-0.4-0.9-0.5-1.4-0.5c-0.6,0-1.2,0.2-1.6,0.7l-2.8,3.1
		c-0.8,0.9-0.7,2.2,0.2,3C144,272.3,144.5,272.5,145,272.5L145,272.5z M135.8,282.8c0.6,0,1.2-0.2,1.6-0.7l1-1.1c0,0,0,0,0,0l0,0
		c0,0,0,0,0,0l0-0.1c0,0,0,0,0,0l0,0c0,0,0,0,0,0l0,0c0.8-0.9,1.7-1.9,1.7-1.9c0.8-0.9,0.7-2.2-0.2-3c-0.4-0.4-0.9-0.5-1.4-0.5
		c-0.6,0-1.2,0.2-1.6,0.7l-2.8,3.1c-0.8,0.9-0.7,2.2,0.2,3C134.8,282.6,135.3,282.8,135.8,282.8L135.8,282.8z M126.7,293.1
		c0.6,0,1.1-0.2,1.6-0.7l2.8-3.1c0.8-0.9,0.7-2.2-0.2-3c-0.4-0.4-0.9-0.5-1.4-0.5c-0.6,0-1.2,0.2-1.6,0.7l-2.8,3.1
		c-0.8,0.9-0.7,2.2,0.2,3C125.7,292.9,126.2,293.1,126.7,293.1L126.7,293.1z M117.5,303.4c0.6,0,1.2-0.2,1.6-0.7l2.8-3.1
		c0.8-0.9,0.7-2.2-0.2-3c-0.4-0.4-0.9-0.5-1.4-0.5c-0.6,0-1.2,0.2-1.6,0.7l-2.8,3.1c-0.8,0.9-0.7,2.2,0.2,3
		C116.6,303.2,117.1,303.4,117.5,303.4L117.5,303.4z M108.4,313.6c0.6,0,1.2-0.2,1.6-0.7l2.8-3.1c0.8-0.9,0.7-2.2-0.2-3
		c-0.4-0.4-0.9-0.5-1.4-0.5c-0.6,0-1.2,0.2-1.6,0.7l-2.8,3.1c-0.8,0.9-0.7,2.2,0.2,3C107.4,313.5,107.9,313.6,108.4,313.6
		L108.4,313.6z M114.4,326.7c0.5,0,1-0.2,1.4-0.5c0.9-0.8,0.9-2.1,0.2-3l-1.3-1.4c0,0,0,0,0,0l0,0c0,0,0,0,0,0l0,0c0,0,0,0,0,0l0,0
		c0,0,0,0,0,0l0,0c0,0,0,0,0,0l0,0c-0.7-0.8-1.5-1.6-1.5-1.6c-0.4-0.5-1-0.7-1.6-0.7c-0.5,0-1,0.2-1.4,0.5c-0.9,0.8-0.9,2.1-0.2,3
		l2.8,3.1C113.3,326.5,113.8,326.7,114.4,326.7L114.4,326.7z M123.6,336.9c0.5,0,1-0.2,1.4-0.5c0.9-0.8,0.9-2.1,0.2-3l-2.8-3.1
		c-0.4-0.5-1-0.7-1.6-0.7c-0.5,0-1,0.2-1.4,0.5c-0.9,0.8-0.9,2.1-0.2,3l2.8,3.1C122.4,336.7,123,336.9,123.6,336.9L123.6,336.9z
		 M132.7,347.2c0.5,0,1-0.2,1.4-0.5c0.9-0.8,0.9-2.1,0.2-3l-2.1-2.4c0,0,0,0,0,0l0,0c0,0,0,0,0-0.1l0,0c0,0,0,0,0,0l0,0
		c-0.3-0.4-0.6-0.6-0.6-0.6c-0.4-0.5-1-0.7-1.6-0.7c-0.5,0-1,0.2-1.4,0.5c-0.9,0.8-0.9,2.1-0.2,3l2.8,3.1
		C131.6,347,132.2,347.2,132.7,347.2L132.7,347.2z M141.9,357.5c0.5,0,1-0.2,1.4-0.5c0.9-0.8,0.9-2.1,0.2-3l-2.8-3.1
		c-0.4-0.5-1-0.7-1.6-0.7c-0.5,0-1,0.2-1.4,0.5c-0.9,0.8-0.9,2.1-0.2,3l2.8,3.1C140.8,357.2,141.3,357.5,141.9,357.5L141.9,357.5z
		 M151.1,367.7c0.5,0,1-0.2,1.4-0.5c0.9-0.8,0.9-2.1,0.2-3l-2.8-3.1c-0.4-0.5-1-0.7-1.6-0.7c-0.5,0-1,0.2-1.4,0.5
		c-0.9,0.8-0.9,2.1-0.2,3l2.8,3.1C149.9,367.5,150.5,367.7,151.1,367.7L151.1,367.7z M160.3,378c0.5,0,1-0.2,1.4-0.5
		c0.9-0.8,0.9-2.1,0.2-3c0,0-0.2-0.2-0.5-0.6l0,0c0,0,0,0,0,0l0,0c0,0,0,0,0,0l-2.3-2.5c-0.4-0.5-1-0.7-1.6-0.7
		c-0.5,0-1,0.2-1.4,0.5c-0.9,0.8-0.9,2.1-0.2,3l2.8,3.1C159.1,377.7,159.7,378,160.3,378L160.3,378z M169.4,388.2
		c0.5,0,1-0.2,1.4-0.5c0.9-0.8,0.9-2.1,0.2-3l-2.8-3.1c-0.4-0.5-1-0.7-1.6-0.7c-0.5,0-1,0.2-1.4,0.5c-0.9,0.8-0.9,2.1-0.2,3l2.8,3.1
		C168.3,388,168.9,388.2,169.4,388.2L169.4,388.2z M178.6,398.5c0.5,0,1-0.2,1.4-0.5c0.9-0.8,0.9-2.1,0.2-3l-2.8-3.1
		c-0.4-0.5-1-0.7-1.6-0.7c-0.5,0-1,0.2-1.4,0.5c-0.9,0.8-0.9,2.1-0.2,3l2.8,3.1C177.5,398.3,178,398.5,178.6,398.5L178.6,398.5z
		 M187.8,408.8c0.5,0,1-0.2,1.4-0.5c0.9-0.8,0.9-2.1,0.2-3c0,0-1.4-1.5-2.2-2.4l-0.6-0.7c-0.4-0.5-1-0.7-1.6-0.7
		c-0.5,0-1,0.2-1.4,0.5c-0.9,0.8-0.9,2.1-0.2,3l2.8,3.1C186.6,408.5,187.2,408.8,187.8,408.8L187.8,408.8z"/>
</g>
</svg>
