<?xml version="1.0" encoding="utf-8"?>
<!-- Generator: Adobe Illustrator 24.2.1, SVG Export Plug-In . SVG Version: 6.00 Build 0)  -->
<svg version="1.1" id="Layer_1" xmlns="http://www.w3.org/2000/svg" xmlns:xlink="http://www.w3.org/1999/xlink" x="0px" y="0px"
	 viewBox="0 0 325.1 454.3" enable-background="new 0 0 325.1 454.3" xml:space="preserve">
<g>
	<g>
		<path fill="none" d="M41.9,116.5c-0.1,1.2-0.1,2.4-0.1,3.6c-0.3-0.5-0.5-1-0.7-1.5C41.3,117.9,41.6,117.2,41.9,116.5z"/>
		<path fill="none" d="M44.5,145.8c0.6,0.2,1.2,0.4,1.8,0.7c-1.6,1.1-2.7,2.2-2.7,2.2h-2C42.6,147.9,43.6,147,44.5,145.8z"/>
		<path fill="#FCBA01" d="M50,133c0,0-1.7,7.7-5.6,12.8c-8-2.7-16.3,0.1-16.3,0.1c-3.9,0.9-10.1,8.5-10.1,8.5c-3.2,5.4-5,2.2-5,2.2
			c4.3-11.9,20.5-21.3,20.5-21.3c10.1-1.6,2.2-5.7,2.2-5.7c-9.3-1.8-21.9,5.7-21.9,5.7c-3.2-0.1,1.4-3.5,1.4-3.5
			c3.2-5,15.6-8.9,20-10.1c1-0.3,2.2-0.3,2.5-0.2c4.1,0.9,4.1-0.9,4.1-0.9c0-0.1,0-0.3,0-0.4c1.1,2,3.1,3.9,6.8,4.9
			C48.6,125.1,53.6,125.1,50,133z"/>
		<path fill="#C04D17" d="M18.8,240.6c3.5-4.9,6.4-7.3,6.4-7.3c5.9-6.1,10.8-11.7,14.8-16.8c2.5,3,7.4,7.3,14.6,5.6l10.4-6.5
			c0,0,3.6-3.1,5-1.9c0,0,8.6-0.1,12.2-3.4l5.6-3.2c-3.1,9.4-6,12.4-6,12.4c-3.8,2.9-3.4,4.2-2.1,4.7c-5,2.2-12,7.1-15.2,17.3
			c-8.5,2.4-14.8-1.5-14.8-1.5c-5.4-3.2-11.9,3-11.9,3C31.7,247.4,23,243.3,18.8,240.6z"/>
		<path fill="#F48F0A" d="M58.6,166.3c-1.7-11.7-6.8-17.3-12.5-19.8c1.6-1.1,3.7-2.2,5.9-2.2c0,0,8.6,4.1,15.1-9.1
			c0,0,1.8-4.4,6.1-3.6c0,0,5.8,0.6,8.3-6.7c0,0,5.8,0.3,8.8-4.6c2.4,4.2,4,8.3,4.9,11.1c-0.8,0.8-1.4,1.4-1.4,1.4l1.4,11.2
			c-3.2,4.7-10,7.1-10,7.1c-6.1-1.1-6.1,4.4-6.1,4.4c-3.9,11.9-14.7,10.1-14.7,10.1C62.7,165.2,60.4,165.8,58.6,166.3z"/>
		<path fill="#FFBCE2" d="M61.3,193.5c-1-1-3.7-1.4-5.9-1.6c3.4-7.6,3.8-11.8,3.8-11.8c0.3-5.3,0.1-9.8-0.4-13.6
			c1.7-0.6,4-1.2,5.7-0.8c0,0,10.7,1.8,14.7-10.1c0,0,0-5.6,6.1-4.4c0,0,6.8-2.4,10-7.1l0.1,0.6c-0.2,12.7-0.8,23.3-1.8,32.2
			c-3.5,2.1-8.3,5.6-8.3,5.6c-5.7,1.4-10.4,6.3-10.4,6.3C69.1,196.2,61.2,193.3,61.3,193.5z"/>
		<path fill="#04BCC1" d="M39.7,216.5c8-10.3,12.8-18.7,15.5-24.8c2.2,0.2,4.9,0.6,5.9,1.6c0,0,7.9,2.9,13.7-4.5
			c0,0,4.6-4.9,10.4-6.3c0,0,4.9-3.5,8.3-5.6c-1.5,14-3.8,23.6-5.9,30.2l-5.6,3.2c-3.6,3.3-12.2,3.4-12.2,3.4c-1.4-1.2-5,1.9-5,1.9
			l-10.4,6.5C47.2,223.7,42.3,219.5,39.7,216.5z"/>
		<path fill="#EB302A" d="M52.1,144.4c-2.1,0-4.3,1.1-5.9,2.2c-0.6-0.3-1.2-0.5-1.8-0.7c3.9-5.2,5.6-12.8,5.6-12.8
			c3.6-8.1-1.4-8.1-1.4-8.1c-3.6-1-5.7-2.9-6.8-4.9c0-1.2,0-2.4,0.1-3.6c6-13.7,16.8-13.5,16.8-13.5c16.6-2,26.4,8,31.8,17.4
			c-3,4.9-8.8,4.6-8.8,4.6c-2.5,7.3-8.3,6.7-8.3,6.7c-4.3-0.8-6.1,3.6-6.1,3.6C60.8,148.5,52.2,144.4,52.1,144.4z"/>
		<path fill="#68CC4A" d="M123.8,237.1c50.3,33,52.1,69.1,52.1,69.1c-0.3,10.5-11.1,0.4-11.1,0.4c-0.3-0.1-0.5-0.2-0.7-0.2
			c-19.2-32.4-40.6-54.5-48.2-61.9C121.2,243.1,123.1,239.8,123.8,237.1z"/>
		<path fill="#822EA1" d="M164.1,306.4c-2.9-0.6-1.4,3.4-1.4,3.4c4.3,3.9,5.3,11.1,5.3,11.1c0.1-0.1,0.3-0.1,0.4-0.2
			c-0.1,1.3-0.3,2.6-0.5,3.8c-2.2,0.5-3.5,0.8-3.5,0.8s1.3-0.3,3.5-0.8c-0.5,3.2-1,5.8-1,5.8c-0.1,0.7-0.3,1.3-0.4,1.9
			c-2.4-0.1-3.8-0.1-3.8-0.1s1.4,0,3.8,0.1c-1.3,5.7-3.8,8.5-6.6,9.7c-3.7-2.3-5.9-3.7-5.9-3.7s2.2,1.4,5.9,3.7
			c-2.6,1.1-5.4,0.8-7.7,0.2c-1.4-4.7-3.7-9.6-7.5-14.7c0,0-26.9-51.2-41.1-64.9c0.5-0.5,0.8-0.8,0.8-0.8
			c13.3-3.8,9.3-16.8,9.3-16.8c0.8-0.1,1.5-0.2,2.2-0.4C123.5,251.9,144.9,274,164.1,306.4z"/>
		<path fill="#EA2227" d="M97.9,225.4c19.1,2.6,25.4,11.5,25.4,11.5c0.1,0.1,0.3,0.2,0.4,0.3c-0.7,2.7-2.6,6-7.9,7.4
			c-1.8-1.8-2.9-2.7-2.9-2.7s1,0.9,2.9,2.7c-0.7,0.1-1.4,0.3-2.2,0.4c0,0,4,13-9.3,16.8c0,0-0.3,0.3-0.8,0.8
			c-1.3-1.3-2.5-2.2-3.5-2.8c1,0.6,2.2,1.6,3.5,2.8c-1.2,1.3-3.5,4.1-3.5,7.4c0,0,2.5,11-14.5,14.1c-1.5-2-2.4-3.1-2.4-3.1
			s0.9,1.2,2.4,3.1c-0.1,0-0.1,0-0.2,0c0,0-4,0.9-4,7.7c0,0-1.8,7.9-12.7,9.6c-3.7-3.7-5.9-9.1-7-15.1c0.7-0.7,1.2-1.4,1.4-2.2
			c-0.2,0.9-0.7,1.6-1.4,2.2c-0.8-4.3-1.1-9-1.1-13.5H63c10.4,0,11.3-13,11.3-13c-0.5-4,2-7.5,2-7.5C88.5,251.2,88,243,88,243
			c-0.2-6.4,3.8-6.2,3.8-6.2C95.9,235.1,97.4,229.6,97.9,225.4z"/>
		<path fill="#2436A8" d="M41.9,116.6C43.1,95.7,53.3,77,53.3,77c17.6-32.9,1.4-58.5,1.4-58.5C46.8,11,46.4,4.2,46.4,4.2
			c0.3-6.5,9-3.5,9-3.5C77.4,7.3,80.6,28,80.6,28c0,6.6,6.5,3.3,6.5,3.3c7.9-8.9,18.3-3.3,18.3-3.3c6.9,12.6-1,25.1-1.4,27.1
			c-1.5,8.6,4.3,3,4.3,3c16.6-5,16.2,3.7,16.2,3.7c5.4,12.6-7.9,23.6-7.9,23.6c-6.1,5.7,2.2,4.9,2.2,4.9l6.5-2.4
			c19.4-1.9,12.2,8.8,12.2,8.8c-7.6,19.1-35.6,30.8-35.6,30.8c-2.5,0.7-5,2.6-6.5,4c-0.9-2.9-2.5-6.9-4.9-11.1
			c0.5-0.8,1-1.7,1.3-2.9c-0.3,1.1-0.8,2.1-1.3,2.9C85.1,111,75.3,101,58.7,103C58.7,103,47.9,102.8,41.9,116.6z"/>
		<path fill="#D2E521" d="M7.7,269.6c1.7-13.5,6.6-23,10.7-28.9c4.5,2.7,13.2,6.8,19.3,2.4c0,0,6.5-6.2,11.9-3c0,0,6.3,3.9,14.8,1.5
			c-0.7,2.1-1.2,4.4-1.5,7c0,0-1.2,5.5-1.9,13c-2.3,0.4-6.3,4.4-6.3,4.4c-6.4,5.7-18.3,1.5-18.3,1.5c-4.3-1.7-14,5.3-14,5.3
			C15.5,274.9,10.6,272.1,7.7,269.6z"/>
		<path fill="#2034A6" d="M79.7,224.3c1.3,0.5,3.5,0.3,3.5,0.3c5.6-0.2,10.5,0.1,14.8,0.7c-0.5,4.3-2,9.8-6.2,11.5
			c0,0-4-0.2-3.8,6.2c0,0,0.5,8.2-11.7,9.3c0,0-2.5,3.5-2,7.5c0,0-0.9,13-11.3,13h-2.5c0-3.9,0.3-7.8,0.6-11.2
			c0.5-0.1,0.9-0.1,1.2,0.2h2.5h-2.5c-0.3-0.3-0.7-0.3-1.2-0.2c0.7-7.5,1.9-13,1.9-13c0.3-2.6,0.8-4.9,1.5-7c1-0.3,2.1-0.7,3.2-1.2
			c-1.1,0.6-2.2,0.9-3.2,1.2C67.7,231.4,74.7,226.5,79.7,224.3z"/>
		<path fill="#E81320" d="M103.1,387.3c-9.1,5.1-10.5,14.9-10.5,14.9c-5.7,17.6,8.3,18,8.3,18c8.2-0.4,5,3.2,5,3.2
			c-1.4,2.9-7.9,4-7.9,4c-12.6-2.9-16.9,3.2-16.9,3.2c-5.8,3.3-16.2,18-16.2,18c-5.4,6.2-7.6,5.8-7.6,5.8
			C56.2,441.8,67.7,431,67.7,431c2.9-6.4-4.3-1.4-4.3-1.4c-6.5,7.6-19,13.7-19,13.7c-8.2,1.8,0-5.8,0-5.8
			c4.7-7.6,29.4-24.1,29.4-24.1c11.6-6,13.9-21.1,14.3-27.4c1.9,0.6,4.4,0.7,6.4-1.4C94.5,384.6,99.6,381.1,103.1,387.3z"/>
		<path fill="#93D731" d="M100.9,358.7c3.9,6.7,7.9,13.2,11.1,17.8c-1.9,7.1-8.4,10.5-8.4,10.5c-0.2,0.1-0.4,0.3-0.6,0.4
			c-3.4-6.3-8.5-2.8-8.5-2.8c-1.9,2.1-4.4,2-6.4,1.4c0.1-1.7,0.1-2.8,0.1-2.8c1.9-6.1-2.4-10.4-7.4-13.3c2.2-1.1,5.7-1.9,11-0.4
			C91.8,369.5,95.2,361.6,100.9,358.7z"/>
		<path fill="#FEC300" d="M152,366.2c-7.7,3.1-14.9-9.4-14.9-9.4c-1.4-0.7-2.2-0.6-2.7,0.1c-14.2-27-40.9-62.4-48.9-72.9
			c17-3.1,14.5-14.1,14.5-14.1c0-3.3,2.3-6.1,3.5-7.4c14.2,13.7,41.1,64.9,41.1,64.9c3.8,5.1,6.1,10.1,7.5,14.7
			c-2.8-0.8-5-2.1-5-2.1s2.1,1.3,5,2.1C155.4,352.9,153.5,361.8,152,366.2z"/>
		<path fill="#9D52B9" d="M9.2,298.9c-2.2-11.4-2.4-21.1-1.3-29.4c2.9,2.6,7.8,5.4,14.6,3.3c0,0,9.7-7,14-5.3c0,0,11.8,4.2,18.3-1.5
			c0,0,3.9-4,6.3-4.4c-0.3,3.4-0.6,7.2-0.6,11.2h-2.9h2.9c0,4.5,0.3,9.1,1.1,13.5c-3,2.9-9.4,4.1-9.4,4.1c-6.4-1.8-8.6,0-8.6,0
			c-2.5,4.3-8.8,4.2-8.8,4.2c-8.1-2.2-8.8,0-8.8,0C19.1,300.3,13,300,9.2,298.9z"/>
		<path fill="#77382B" d="M160,341.9c9.7,6.1,29.6,18,45.9,24.9c0.4,1,2.5,2.3,2.5,2.3c42.1,19.4,55,41,55,41
			c10,11.5,9.3,20.8,9.3,20.8c-1.1,5.4-14.4,1.8-14.4,1.8c-28.1-5.4-92.8-62.2-92.8-62.2c-4.3-5.4-11.9-5.1-11.9-5.1
			c-0.5,0.4-1.1,0.7-1.6,0.9c1.5-4.5,3.4-13.4,0.1-24.2C154.4,342.7,157.2,343,160,341.9z"/>
		<path fill="#E50326" d="M325.1,289.3c-1.8,6.1-7.9,9-7.9,9c-20.2,16.2-105,17.3-105,17.3c-3.4,0.8-4.7,1.6-5.1,2.2
			c-13.3,1.3-31.6,5.1-39.2,6.7c0.2-1.2,0.3-2.5,0.5-3.8c86.8-45.1,129.4-39,129.4-39C328.3,281.7,325.1,289.3,325.1,289.3z"/>
		<path fill="#F37AB6" d="M166.5,332.3c14.5,0.6,66.5,3.4,85.3,13.1c-1.7-0.2-2.6-0.3-2.6-0.3c-8.7-0.8-4.7,2.5-4.7,2.5
			c38.1,9.4,60.8,33.1,60.8,33.1c6.5,7.2,0,6.3,0,6.3l-28.4-2.7c-31.3-2.9-68.3-18.8-68.3-18.8c-2.7,0-3.2,0.6-2.9,1.3
			c-16.3-6.9-36.2-18.9-45.9-24.9C162.7,340.7,165.2,337.9,166.5,332.3z"/>
		<path fill="#28B2F8" d="M167.9,324.4c7.5-1.6,25.9-5.4,39.2-6.7c-0.6,1,1.5,1.7,1.5,1.7c61.8-5.4,90.2,5.8,90.2,5.8
			c26.3,4.3,22.7,13.6,22.7,13.6c0,2.2-7.2,6.5-7.2,6.5c-9.4,6-51.7,1.3-62.5,0c-18.8-9.7-70.8-12.5-85.3-13.1
			c0.1-0.6,0.3-1.2,0.4-1.9C166.9,330.3,167.4,327.7,167.9,324.4z"/>
		<path fill="#6599EB" d="M85.4,284c8.1,10.5,34.7,45.9,48.9,72.9c-1.7,2.3,1.6,11,1.6,11c5.8,13.3,2.2,18.9,2.2,18.9
			c-7.5,7.1-25.5-13.4-25.5-13.4c0,1-0.2,2-0.5,2.9c-3.2-4.6-7.2-11.1-11.1-17.8c1-0.5,2-0.8,3.1-1c-1.1,0.1-2.1,0.5-3.1,1
			c-2.8-4.8-5.6-9.6-8-13.9c0.6-0.8,1.2-1.7,1.6-2.7c-0.4,1-1,1.9-1.6,2.7c-4.6-8.2-8-14.4-8-14.4c-0.6-1.4-1.1-2.8-1.7-4.2
			c1-0.7,1.6-1.3,1.7-1.7c-0.2,0.3-0.8,1-1.7,1.7c-3.5-8.3-7.9-15.7-10.4-19.7c1.1-0.2,2.2-0.3,3.4-0.2c-1.2-0.1-2.3,0-3.4,0.2
			c-1.2-1.9-2-3-2-3c-0.8-0.5-1.6-1.2-2.3-1.9c10.9-1.7,12.7-9.6,12.7-9.6C81.3,284.9,85.3,284.1,85.4,284
			C85.4,284.1,85.4,284.1,85.4,284z"/>
		<path fill="#F3880B" d="M40.3,347.3c-9.9-7.1-16.8-15.9-21.4-23.4c4.7,0.6,11.6,0.7,15-2.7c0,0,2.5-5.7,9.7-5c0,0,6.8,4.4,12.6-3
			c0,0,1.5,1.8,4.3,0c1.2-0.8,6.1-5.9,12.4-6.9c2.5,4,6.9,11.4,10.4,19.7c-4.2,3.4-14.8,10-14.8,10c-3.9,0-5.5,2.2-5.5,2.2
			C58.7,345.4,46.4,347,40.3,347.3z"/>
		<path fill="#463846" d="M80.8,369.9c-5.3-3-11.3-4.4-11.3-4.4l0.6,1.4c-0.6-0.5-1.3-1.2-2-1.8c2.7-2.2,6.4-6,8.3-11.2
			c0,0,11.5-2.1,16.6-9.1c2.4,4.3,5.2,9.1,8,13.9c-5.8,2.9-9.2,10.8-9.2,10.8C86.4,368,82.9,368.8,80.8,369.9z"/>
		<path fill="#DEBCD8" d="M42,349.8c-1-1.4-1.6-2.2-1.6-2.2c-0.1,0-0.1-0.1-0.2-0.1c6.2-0.3,18.4-2,22.7-9.2c0,0,1.6-2.2,5.5-2.2
			c0,0,10.6-6.6,14.8-10c0.6,1.4,1.2,2.8,1.7,4.2c0,0,3.4,6.2,8,14.4c-5.1,7-16.6,9.1-16.6,9.1c-1.9,5.3-5.6,9-8.3,11.2
			C60.4,358.1,47.8,348,42,349.8z"/>
		<path fill="#0984DD" d="M18.9,324.2c-5.4-8.9-7.6-15.8-7.6-15.8c-0.9-3.2-1.6-6.4-2.2-9.4c3.9,1.1,10.1,1.4,16.9-4.3
			c0,0,0.7-2.2,8.8,0c0,0,6.3,0.1,8.8-4.2c0,0,2.1-1.8,8.6,0c0,0,6.4-1.2,9.4-4.1c1.1,6,3.3,11.4,7,15.1c-1.2,0.2-2.4,0.3-3.8,0.3
			c1.4,0,2.6-0.1,3.8-0.3c0.7,0.7,1.5,1.3,2.3,1.9c0,0,0.8,1.1,2,3c-6.3,1.1-11.2,6.1-12.4,6.9c-2.8,1.8-4.3,0-4.3,0
			c-5.8,7.3-12.6,3-12.6,3c-7.2-0.8-9.7,5-9.7,5C30.5,324.7,23.6,324.6,18.9,324.2z"/>
		<path fill="#E60617" d="M64.4,390.5c-0.8,0.4-1.4,0.5-1.4,0.5c-4.7,3.9-5.8,11.5-5.8,11.5c-0.4,9.7,7.2,7.6,7.2,7.6
			c10.8-3.6,6.5,2.5,6.5,2.5c-2.9,5.1-13.3,4-13.3,4c-4-2.6-11.2-0.4-11.2-0.4c-3,1.8-21.2,19.1-21.2,19.1c-8.6,11.2-9,2.9-9,2.9
			c0.7-4.7,9-13.1,9-13.1c2.9-5.5-3.2-3.1-3.2-3.1l-10.8,5c-8.6,5-10.8,3.6-10.8,3.6c-2.5-4.7,8.6-11.9,8.6-11.9
			c32.7-8.6,37.3-17.9,37.3-17.9c3.4-5,5.1-10.1,5.8-15.2c1.4,0.9,3.5,1.8,6.9,1.3C59,386.9,62.7,383.7,64.4,390.5z"/>
		<path fill="#9DDB30" d="M68,365c0.7,0.6,1.4,1.2,2,1.8l1.7,4.1c1.8,14.2-4.4,18.5-7.3,19.7c-1.7-6.9-5.4-3.7-5.4-3.7
			c-3.4,0.5-5.6-0.4-6.9-1.3c2.1-15.6-6.5-30.4-10.1-35.8C47.8,348,60.3,358.1,68,365c-1.8,1.5-3.2,2.3-3.2,2.3S66.2,366.5,68,365z"
			/>
	</g>
	<path fill="#F9A72F" d="M70.8,116.5c-1.5-3.4-8.3,0.3-8.3,0.3c-0.2,2.3-2,4.1-2,4.1c0.7,6.7,4,0,4,0
		C65.6,119.1,70.8,116.6,70.8,116.5z"/>
</g>
</svg>
