<?xml version="1.0" encoding="utf-8"?>
<!-- Generator: Adobe Illustrator 24.2.1, SVG Export Plug-In . SVG Version: 6.00 Build 0)  -->
<svg version="1.1" id="Layer_1" xmlns="http://www.w3.org/2000/svg" xmlns:xlink="http://www.w3.org/1999/xlink" x="0px" y="0px"
	 viewBox="0 0 458.4 336.5" enable-background="new 0 0 458.4 336.5" xml:space="preserve">
<g>
	<path fill="#993623" d="M283.7,195.9c-0.1,0.5-0.5,1.2-0.7,1.9c-5.8-5.2-11.5-9.8-17.2-13.9c1.7-10.9,3.6-23.7,3.3-26.3
		c-0.5-4.6,19-9.3,21.6-6.1c1.3,1.5,5.2,8.8,8.9,15.8C291.8,174.9,284.9,191,283.7,195.9z"/>
	<path fill="#993623" d="M293.4,207.6c0.9-0.3,1.5-0.6,1.5-0.6s13.3-7,20.7-16.6c1.5-1.9,2.5-4,3.3-6.1c6.7,1.7,14.3,4,17.8,6.1
		c6.9,4.3,1.6,6.5,0,9.6c-1.6,3.1-29.4,17-29.4,17l-2.7,1.7C301.1,215.2,297.3,211.5,293.4,207.6
		C293.4,207.6,293.4,207.6,293.4,207.6z"/>
	<path fill="#00C2CA" d="M217.1,177.7c-6.8,0.2-13.4-3.1-18.2-8c-2.7,3.1-5.6,6.3-9.5,7.8c-3.9,1.5-9,0.6-10.9-3.1
		c-5.5,4.8-12.5,7.6-19.8,8.4c-2.7-8.8-3.8-17.3-2.9-25.2c4.1-7.2,4.1-7.2,4.1-7.2s31.8-4.9,73.6,14.4c-0.1,0.7-0.3,1.3-0.5,1.9
		C230.7,173.2,224,177.4,217.1,177.7z"/>
	<path fill="#8774D2" d="M178.5,174.4c1.9,3.7,7.1,4.6,10.9,3.1c3.9-1.5,6.8-4.7,9.5-7.8c4.8,4.9,11.4,8.2,18.2,8
		c6.8-0.2,13.6-4.5,15.8-11c0.2-0.6,0.4-1.3,0.5-1.9c7.7,3.6,15.8,8,24,13.4c0.3,1,0.5,2.1,0.5,3.1c0.2,5.8-4.5,11-9.9,13.1
		c-5.4,2.1-11.5,2-17.3,1.7c-4.4,9.6-16.7,14.7-26.5,11c-1.2-0.4-2.3-1-3.6-1c-1.5-0.1-2.9,0.5-4.3,1c-8.7,3.1-18.4,3-27.2,0.1
		c-4.4-8.2-8.1-16.4-10.5-24.5C165.9,182,173,179.2,178.5,174.4z"/>
	<g>
		<path fill="#8DAD30" d="M200.7,206.1c1.2,0.1,2.4,0.6,3.6,1c9.9,3.6,22.1-1.5,26.5-11c0.1,0,0.2,0,0.3,0
			c14.2,11.6,40.1,36,74.6,81.7c-1.6,2.6-3.5,10.6-15,11.4c-14.9,1.1-34.5-10.4-34.5-10.4s-0.1,0.1-0.1,0.1
			c-15.5-27-42.6-57.8-56.9-72.6C199.6,206.2,200.1,206.1,200.7,206.1z"/>
		<path fill="#E91423" d="M231,196.1c5.8,0.2,11.7,0.4,17.1-1.8c5.4-2.1,10.2-7.3,9.9-13.1c0-1.1-0.3-2.1-0.5-3.1
			c10.8,7.1,21.9,15.8,33.1,26.8c66.2,64.6,59.9,72.4,49.5,84.3c-8.1,0-29.9-9.7-32.9-12c-0.7-0.5-1.2-0.2-1.6,0.6
			C271.1,232.1,245.2,207.7,231,196.1z"/>
		<path fill="#291C1C" d="M196.4,207.1c0.9-0.3,1.7-0.6,2.6-0.8c14.3,14.8,41.5,45.6,56.9,72.6c-0.7,0.7-7.2,6.8-17,6.8
			c-7.3,0-48-38.3-69.8-78.5C178,210.1,187.7,210.3,196.4,207.1z"/>
	</g>
	<path fill="#FFBD00" d="M294.9,206.9c0,0-0.6,0.3-1.5,0.6c-0.9-0.9-2.4-1.6-3.3-2.5c-2.5-2.4-5-4.1-7.5-6.3
		c0.1-0.7,0.9-2.1,1.1-2.9c1.6-6.5,13.5-33,23.6-33s12.4,4.3,12.4,4.3s3.3,13.5-4.2,23.2C308.1,200,294.9,206.9,294.9,206.9z"/>
	<path fill="#00C85F" d="M290.6,151.4c-2.2-2.6-15.9,0.2-20.2,3.8c7.3-53.9,24.5-89.3,29.1-98.4c4.9-9.7,22.3-33.8,24.4-39.4
		c2.1-5.6,16.4-9.4,22.7-13.8c0,0,12.9-7.3,17.9-1.4c5,5.8-10.2,34.8-27.6,63.9c-23.3,30-40.2,70.8-45.9,85.7
		C290.8,151.7,290.7,151.5,290.6,151.4z"/>
	<path fill="#F42482" d="M291,151.8c5.1-13.2,19-46.8,38.4-75.2c16.6-15.3,35.4-31.9,41-37.3c10.3-9.8,36.7-15.7,42.2-12
		s-0.3,20.7-40.5,62.9c-35.9,29.6-54.7,57.9-62.3,72.9c-0.8-0.1-1.6-0.1-2.5-0.1c-2.5,0-5.2,1.7-7.8,4.3c-3.6-6.8-7.3-13.8-8.7-15.6
		l0,0C290.8,151.7,290.9,151.7,291,151.8z"/>
	<path fill="#0497E0" d="M362.7,98.3c17.4-9.3,38.3-19.9,55.2-27.4c30.6-13.7,38.3,0,38.3,0c2,24.9-53.2,40.9-80.8,60
		c-17.3,11.9-40.2,32.3-54.9,44.5c0.1-4.7-0.7-8.2-0.7-8.2s-3.6-3.4-10.8-4.2c0.4-1.3,2.6-2.6,3-4
		C319.8,144.9,335.6,122.4,362.7,98.3z"/>
	<polygon fill="none" stroke="#FFBD00" stroke-width="2.3174" stroke-miterlimit="10" points="318.8,184.2 318.8,184.2 318.8,184.2 
			"/>
	<path fill="#E04116" d="M320.4,172.7c0,0.8,0.1,1.7,0,2.7c14.8-12.3,37.7-32.6,54.9-44.5c4.9-3.4,10.7-6.7,16.9-10
		c39.1-13.6,62.4-7,62.4-7s10.9,2.5-4.1,18.1c-18,18.6-94.6,57.9-113.4,67.4c1.9-2.8,6.1-5-0.4-9c-3.5-2.2-11.2-4.4-17.8-6.1
		C320.3,180.1,320.5,175.9,320.4,172.7z"/>
	<path fill="#FA8420" d="M130.1,78.8c5.5-12.7-7.2-31.7-11.6-33.2c-4.4-8.2-12.2-23.5-5-29.7c7.2-6.2,19.9-11.7,35.5,1.6
		c15.5,13.3,23.1,39.9,14.3,67.6c-4.8,15.1-12.8,40.5-7.3,71.9c-0.1,0.2-0.2,0.3-0.3,0.5c-0.9,7.9,0.3,16.4,2.9,25.2
		c2.4,8,6.1,16.3,10.5,24.5c12,22.1,29.7,43.7,44.4,58.6c-0.3,3.9-1.8,7.6-5.3,10c-11.1,7.8-103.3-15-108-86
		C100.4,189.9,99.1,142.4,130.1,78.8z"/>
	<path fill="#A633A2" d="M135.9,29.3c-0.5,0-4,0.8-7.4-2.5c-3.4-3.3-3.5-6.3-1-6.7c2.6-0.4,11.8,2.1,11.4,4.6S138.4,29.4,135.9,29.3
		z"/>
	<path fill="#A633A2" d="M119.7,37.9c0,0,0.2,7.2-2.4,7.4c-2.6,0.2-9.2,0.2-11.1,2.4c-1.9,2.3-5.8,9-5.8,9s-0.4,2.1-1.7,1.8
		c-1.3-0.3-6.8-4.5-4.2-12.1c2.6-7.6,10.3-12.9,10.3-12.9s-1.8-3.1-4.5-2.3c-2.6,0.8-14.7,10.3-15.5,10.5c-0.8,0.2-1.5-1.1-0.6-3.1
		c0.8-1.9,1.8-13.2,18.5-17.6c7.1-1.7,15.5,3.5,15.1,5.7s-1.9,5.1-1.1,6.7C117.6,35.1,119.8,35.2,119.7,37.9z"/>
	<path fill="#00B4E8" d="M137.7,289.3c16.3-8.1,16.6-16.5,14.4-26.9c8.9,4.8,18,8.4,26.2,10.9c0.7,4.9,0.4,9.7-2.6,12.5
		c-7.8,7.4-14.7,9-15.1,12c-0.4,3,1.8,11.1,2.8,14.1c1,3-0.5,4.4-2.9,3c-2.4-1.4-11.8-12.9-12.8-12.1c-1,0.8-2.6,18.1-4.6,16.9
		c-2-1.2-8.4-6.8-8-10.2c0.4-3.4,0-5.8,0-5.8s-5.2,1.2-5.2,9c0,7.8,2,14.1,0,13.7c-2-0.4-8.6-3.4-9.4-10.7
		C119.6,308.4,114.5,300.8,137.7,289.3z"/>
	<path fill="#00B4E8" d="M202.6,298.5c5-8.2,0.9-16.3-3.5-21.3c0,0,0,0,0,0c4.4,0.2,7.7-0.3,9.3-1.4c3.5-2.4,5-6.1,5.3-10
		c7,7.1,13.4,12.8,18.1,16.2c1,6.2,1,13.4-3.2,17.9c-8.5,9-15.6,7.8-15.9,12s6.7,19.2,4.4,20.4c-2.3,1.2-9.5-4.8-11.9-9.9
		c-2.4-5.1-6-4.5-6-4.5s-7.3,11.1-6.9,18.3c-4.2-3-6.6-6.8-7.4-14.1c-3.4,1.4-6.6,10.9-8,11.3s-7.8-9.8,0-18.5
		C184.5,306.2,197.5,306.8,202.6,298.5z"/>
	<path fill="#00C2CB" d="M78.6,185.3c-3.6,6.1-1.2,10.6-6.5,12.5c-5.4,1.9-13.7,5.7-16.1,8.6c-2,2.4-11.1,9.1-18.9,9
		c3.4-10.5,8.8-24.1,23.7-41.3c11.8-13.7,31.7-22.3,45-26.8c-3,13.5-4.4,24.3-5,31.7c-2.9,1.2-5.9,2.5-8.5,3.7
		C84,186.6,82.2,179.1,78.6,185.3z"/>
	<path fill="#8774D2" d="M97.7,222.3c-6,2.4-17.9,0.1-22,11.4c-4.2,11.2-5.4,11.7-14.9,12.3s-8.9,0.1-16.7,6c-4.1,3.2-12,3-18.5,2.1
		c4.1-13.9,7.5-26.1,9-30.6c0.8-2.5,1.6-5.2,2.5-8.1c7.8,0,16.9-6.6,18.9-9c2.4-2.9,10.7-6.6,16.1-8.6c5.4-1.9,3-6.4,6.5-12.5
		c3.6-6.1,5.4,1.3,13.7-2.5c2.6-1.2,5.6-2.5,8.5-3.7c-0.6,7-0.5,10.9-0.5,10.9c0.6,8.8,2.5,16.8,5.5,24.2
		C103,218.9,101.4,220.8,97.7,222.3z"/>
	<path fill="#291C1C" d="M73,240.1c0.8-1.6,1.6-3.7,2.7-6.4c4-10.7,14.9-9.2,21.1-11.1c2,12.5,4.9,32,6.9,49.2
		c-0.6-0.4-1.2-0.8-1.9-1.3c-2.5,17.9-8.3,26.8-17.9,30.4c-9.6,3.7-14.2-3.7-14.2-3.7s0,0-0.6,0.4c0.6-7.1,1.4-15.6,2.3-26
		C72.7,257.9,73.1,247.7,73,240.1z"/>
	<path fill="#E4B4BF" d="M97.7,222.3c3.7-1.5,5.3-3.4,8.2-8.2c6,14.9,16.1,26.9,27.9,36.3c-0.4,24.3-9.8,26.7-14.4,26.9
		c-5.3,0.2-7.7,0.3-15.7-5.4c-2-17.3-5-36.7-6.9-49.2C97.1,222.5,97.4,222.4,97.7,222.3z"/>
	<path fill="#A6B328" d="M46.8,250c5.1-3.8,5.7-3.4,14-4c7.2-0.5,9.7-0.9,12.2-6c0.1,7.6-0.3,17.8-1.6,31.6
		c-0.9,10.4-1.7,18.9-2.3,26c-0.6,0.4-1.8,1.3-4.2,3.2c-1.8,7.8-11.3,18.4-17.9,20.7c-6.4,2.3-0.4,0.1-6-5.4
		c1.5-12.3,3.1-24.5,4.3-30.5C46.7,278.7,47.1,262.5,46.8,250z"/>
	<path fill="#E3171E" d="M6,307.4c5.4-7.5,13.3-32.3,19.6-53.3c6.4,0.9,14.3,1.1,18.5-2.1c1-0.8,1.9-1.5,2.7-2
		c0.3,12.5-0.1,28.7-1.5,35.7c-1.2,6.1-2.7,18.2-4.3,30.5c-0.2-0.2-0.3-0.3-0.5-0.5C35.2,330,13.2,338.4,6,336.1
		C-1.1,333.9-2.9,319.9,6,307.4z"/>
</g>
</svg>
