<?xml version="1.0" encoding="utf-8"?>
<!-- Generator: Adobe Illustrator 24.2.1, SVG Export Plug-In . SVG Version: 6.00 Build 0)  -->
<svg version="1.0" id="Layer_1" xmlns="http://www.w3.org/2000/svg" xmlns:xlink="http://www.w3.org/1999/xlink" x="0px" y="0px"
	 viewBox="0 0 214.1 231.8" style="enable-background:new 0 0 214.1 231.8;" xml:space="preserve">
<polygon style="fill:#AE0613;" points="93.4,231.6 86.9,220.4 73.9,220.4 60.5,197.4 67,185.8 66.8,185.5 66.7,185.5 59.8,197 
	33.2,196.8 26.5,185.4 13.1,185.1 0,162 6.5,150.7 0,139.5 13.2,116.3 26.5,116.1 26.7,115.9 26.6,115.7 13.2,115.5 0,92.4 
	6.6,80.9 0.1,69.2 13.6,46.2 26.6,46.2 33.1,35 59.8,34.8 66.6,46.3 66.9,46.3 60.4,34.8 73.6,11.7 86.9,11.5 93.7,0 120.3,0 
	127.1,11.5 140.4,11.6 153.7,34.7 147.1,46.3 147.2,46.4 147.2,46.4 154,34.9 180.6,34.9 187.4,46.3 200.7,46.4 214.1,69.5 
	207.5,81 214.1,92.7 200.7,115.7 187.4,115.8 187.3,116 187.3,116 200.7,116 214,139.1 207.5,150.7 214.1,162.3 200.8,185.4 
	187.5,185.5 180.7,197 154,196.9 147.3,185.4 147.3,185.4 147.1,185.7 153.6,197.3 140.2,220.3 126.9,220.4 120,231.8 "/>
<polygon style="fill:#E68103;" points="95.1,228.8 88.6,217.6 75.5,217.5 63.7,197.3 70.2,185.8 68.5,182.7 65,182.7 58.2,194.1 
	34.8,194 28.1,182.5 14.8,182.3 3.3,162 9.7,150.8 3.3,139.5 14.9,119.1 28.1,119 30,115.9 28.2,112.9 14.9,112.7 3.3,92.4 
	9.9,80.9 3.4,69.2 15.3,49.1 28.2,49 34.8,37.8 58.2,37.7 65,49.1 68.7,49.1 70.2,46.4 63.6,34.8 75.3,14.5 88.5,14.3 95.3,2.8 
	118.7,2.8 125.4,14.3 138.8,14.4 150.4,34.7 143.9,46.3 145.6,49.3 148.9,49.3 155.6,37.7 179,37.7 185.8,49.1 199.1,49.2 
	210.8,69.5 204.3,81 210.8,92.7 199,112.9 185.8,113 184,116 185.7,118.8 199,118.9 210.8,139.1 204.3,150.7 210.8,162.3 
	199.1,182.5 185.8,182.7 179,194.1 155.7,194.1 148.9,182.6 145.6,182.6 143.9,185.7 150.4,197.3 138.6,217.5 125.3,217.5 
	118.4,229 "/>
<polygon style="fill:#FFEE00;" points="96.7,226 90.2,214.8 77.2,214.7 67,197.3 73.5,185.7 70.1,179.8 63.4,179.9 56.6,191.3 
	36.5,191.2 29.8,179.7 16.5,179.5 6.5,162 13,150.8 6.5,139.5 16.5,122 29.8,121.8 33.2,115.9 29.9,110.1 16.5,109.9 6.6,92.4 
	13.1,80.9 6.7,69.3 16.9,51.9 29.8,51.9 36.4,40.6 56.5,40.5 63.3,51.9 70.3,52 73.5,46.3 66.9,34.8 76.9,17.3 90.2,17.1 96.9,5.7 
	117.1,5.7 123.8,17.1 137.1,17.2 147.2,34.7 140.6,46.2 143.9,52.2 150.5,52.1 157.2,40.6 177.4,40.5 184.1,51.9 197.5,52.1 
	207.5,69.5 201,81 207.5,92.6 197.4,110.1 184.2,110.2 180.7,116 184.1,121.6 197.4,121.7 207.5,139.1 201,150.7 207.6,162.3 
	197.5,179.7 184.2,179.8 177.4,191.3 157.3,191.2 150.6,179.8 144,179.7 140.6,185.6 147.1,197.3 136.9,214.7 123.7,214.7 
	116.8,226.1 "/>
<polygon style="fill:#FFFFFF;" points="98.3,223.2 91.8,211.9 78.8,211.9 70.3,197.3 76.7,185.7 71.7,177 61.8,177 55,188.5 
	38.1,188.4 31.4,176.9 18.1,176.7 9.8,162 16.3,150.8 9.8,139.4 18.2,124.8 31.4,124.6 36.5,115.9 31.5,107.3 18.2,107.1 9.8,92.4 
	16.4,80.9 9.9,69.3 18.5,54.7 31.5,54.7 38,43.4 54.9,43.4 61.7,54.7 72,54.8 76.7,46.3 70.2,34.8 78.6,20.1 91.8,20 98.6,8.5 
	115.5,8.5 122.2,19.9 135.5,20.1 143.9,34.7 137.4,46.2 142.3,55 152.1,54.9 158.9,43.4 175.8,43.4 182.5,54.8 195.8,54.9 
	204.3,69.5 197.7,81 204.3,92.6 195.8,107.2 182.5,107.3 177.4,116 182.5,124.4 195.7,124.5 204.2,139.1 197.7,150.7 204.3,162.3 
	195.8,176.9 182.6,177 175.8,188.5 158.9,188.4 152.2,177 142.4,176.8 137.4,185.6 143.8,197.2 135.3,211.8 122.1,211.9 
	115.2,223.3 "/>
<path style="fill:#FFFFFF;" d="M201,162.2l-6.5-11.6l6.5-11.5l-6.9-11.8l-13.3-0.1l-6.8-11.4l0.1,0l6.8-11.4l13.2-0.1l6.9-11.8
	L194.5,81l6.5-11.5l-6.8-11.8l-13.3-0.1l-6.7-11.4l-13.7,0l-6.7,11.5l-13.2,0.2l0-0.1l-6.5-11.6l6.5-11.5l-6.8-11.9l-13.3-0.2
	l-6.7-11.4h-13.7l-6.7,11.4l-13.2,0.2l-6.8,11.9L80,46.3l-6.4,11.5l-0.2-0.2l-13.3-0.1l-6.8-11.4l-13.7,0.1l-6.6,11.3l-13,0
	l-6.9,11.8l6.4,11.6l-6.6,11.5l6.8,11.9l13.3,0.2l6.7,11.4l-0.1,0.1L33,127.4l-13.2,0.2l-6.8,11.9l6.5,11.3L13.1,162l6.7,11.9
	l13.3,0.2l6.7,11.4l13.7,0.1l6.8-11.4l13.2-0.1l0,0.1l6.6,11.5l-6.4,11.5l6.9,11.8l13,0.1l6.5,11.2l13.7,0.1l6.8-11.4l13.2-0.1
	l6.9-11.8l-6.5-11.6l6.5-11.5l0-0.1l13.3,0.2l6.7,11.4l13.7,0l6.8-11.4l13.2-0.1L201,162.2z"/>
<g>
	<g>
		<polygon style="fill:#D2000C;" points="134.1,68.8 120,68.8 113,80.9 120,93.1 134.1,93.1 141.1,80.9 		"/>
		<polygon style="fill:#D61900;" points="133.6,69.5 120.4,69.5 113.8,80.9 120.4,92.4 133.6,92.4 140.3,80.9 		"/>
		<polygon style="fill:#D83302;" points="133.2,70.2 120.8,70.2 114.6,80.9 120.8,91.7 133.2,91.7 139.4,80.9 		"/>
		<polygon style="fill:#DC4A02;" points="132.8,70.9 121.2,70.9 115.4,80.9 121.2,91 132.8,91 138.6,80.9 		"/>
		<polygon style="fill:#E06303;" points="132.4,71.6 121.6,71.6 116.2,80.9 121.6,90.3 132.4,90.3 137.8,80.9 		"/>
		<polygon style="fill:#E47604;" points="132,72.3 122,72.3 117.1,80.9 122,89.6 132,89.6 137,80.9 		"/>
		<polygon style="fill:#E88B03;" points="131.6,73 122.5,73 117.9,80.9 122.5,88.9 131.6,88.9 136.2,80.9 		"/>
		<polygon style="fill:#ED9F02;" points="131.2,73.8 122.9,73.8 118.7,80.9 122.9,88.1 131.2,88.1 135.3,80.9 		"/>
		<polygon style="fill:#F2B400;" points="130.8,74.5 123.3,74.5 119.5,80.9 123.3,87.4 130.8,87.4 134.5,80.9 		"/>
		<polygon style="fill:#F7C800;" points="130.4,75.2 123.7,75.2 120.4,80.9 123.7,86.7 130.4,86.7 133.7,80.9 		"/>
		<polygon style="fill:#FDDA00;" points="129.9,75.9 124.1,75.9 121.2,80.9 124.1,86 129.9,86 132.9,80.9 		"/>
		<polygon style="fill:#FFEE00;" points="129.5,76.6 124.5,76.6 122,80.9 124.5,85.3 129.5,85.3 132,80.9 		"/>
	</g>
	<g>
		<polygon style="fill:#D2000C;" points="80.2,68.7 73.1,80.8 80,93.1 94.1,93.2 101.2,81.1 94.3,68.8 		"/>
		<polygon style="fill:#D61900;" points="80.6,69.4 73.9,80.8 80.4,92.4 93.7,92.5 100.4,81.1 93.9,69.5 		"/>
		<polygon style="fill:#D83302;" points="81.1,70.1 74.7,80.8 80.8,91.7 93.3,91.8 99.6,81.1 93.5,70.3 		"/>
		<polygon style="fill:#DC4A02;" points="81.5,70.9 75.6,80.8 81.3,90.9 92.9,91.1 98.8,81.1 93.1,71 		"/>
		<polygon style="fill:#E06303;" points="81.9,71.6 76.4,80.9 81.7,90.2 92.5,90.3 97.9,81.1 92.6,71.7 		"/>
		<polygon style="fill:#E47604;" points="82.3,72.3 77.2,80.9 82.1,89.5 92.1,89.6 97.1,81.1 92.2,72.4 		"/>
		<polygon style="fill:#E88B03;" points="82.7,73 78,80.9 82.5,88.8 91.6,88.9 96.3,81 91.8,73.1 		"/>
		<polygon style="fill:#ED9F02;" points="83.1,73.7 78.9,80.9 82.9,88.1 91.2,88.2 95.5,81 91.4,73.8 		"/>
		<polygon style="fill:#F2B400;" points="83.5,74.4 79.7,80.9 83.4,87.4 90.8,87.5 94.6,81 91,74.5 		"/>
		<polygon style="fill:#F7C800;" points="83.9,75.2 80.5,80.9 83.8,86.7 90.4,86.8 93.8,81 90.5,75.2 		"/>
		<polygon style="fill:#FDDA00;" points="84.3,75.9 81.3,80.9 84.2,86 90,86 93,81 90.1,75.9 		"/>
		<polygon style="fill:#FFEE00;" points="84.7,76.6 82.2,80.9 84.6,85.3 89.6,85.3 92.2,81 89.7,76.6 		"/>
	</g>
	<g>
		<polygon style="fill:#D2000C;" points="52.8,115 59.6,127.3 73.7,127.6 81,115.6 74.2,103.2 60.1,103 		"/>
		<polygon style="fill:#D61900;" points="53.7,115 60.1,126.6 73.3,126.9 80.1,115.5 73.7,103.9 60.5,103.7 		"/>
		<polygon style="fill:#D83302;" points="54.5,115 60.5,125.9 72.9,126.2 79.3,115.5 73.3,104.7 60.9,104.4 		"/>
		<polygon style="fill:#DC4A02;" points="55.3,115.1 60.9,125.2 72.5,125.4 78.5,115.5 72.9,105.4 61.3,105.1 		"/>
		<polygon style="fill:#E06303;" points="56.1,115.1 61.3,124.5 72.1,124.7 77.7,115.5 72.5,106.1 61.7,105.9 		"/>
		<polygon style="fill:#E47604;" points="56.9,115.1 61.8,123.8 71.7,124 76.8,115.5 72,106.8 62.1,106.6 		"/>
		<polygon style="fill:#E88B03;" points="57.8,115.1 62.2,123.1 71.3,123.3 76,115.5 71.6,107.5 62.5,107.3 		"/>
		<polygon style="fill:#ED9F02;" points="58.6,115.1 62.6,122.4 70.9,122.6 75.2,115.5 71.2,108.2 62.9,108 		"/>
		<polygon style="fill:#F2B400;" points="59.4,115.1 63,121.7 70.5,121.8 74.4,115.4 70.8,108.9 63.3,108.7 		"/>
		<polygon style="fill:#F7C800;" points="60.2,115.2 63.5,121 70.1,121.1 73.6,115.4 70.3,109.6 63.7,109.5 		"/>
		<polygon style="fill:#FDDA00;" points="61.1,115.2 63.9,120.3 69.7,120.4 72.7,115.4 69.9,110.3 64.1,110.2 		"/>
		<polygon style="fill:#FFEE00;" points="61.9,115.2 64.3,119.6 69.3,119.7 71.9,115.4 69.5,111 64.5,110.9 		"/>
	</g>
	<g>
		<polygon style="fill:#D2000C;" points="79.8,162.8 93.9,162.9 101,150.7 94,138.5 80,138.4 72.8,150.5 		"/>
		<polygon style="fill:#D61900;" points="80.2,162.1 93.5,162.2 100.2,150.7 93.6,139.2 80.4,139.1 73.7,150.5 		"/>
		<polygon style="fill:#D83302;" points="80.6,161.4 93.1,161.4 99.3,150.7 93.2,139.9 80.8,139.8 74.5,150.6 		"/>
		<polygon style="fill:#DC4A02;" points="81,160.6 92.6,160.7 98.5,150.7 92.8,140.6 81.2,140.6 75.3,150.6 		"/>
		<polygon style="fill:#E06303;" points="81.5,159.9 92.2,160 97.7,150.7 92.4,141.3 81.6,141.3 76.1,150.6 		"/>
		<polygon style="fill:#E47604;" points="81.9,159.2 91.8,159.3 96.9,150.7 92,142.1 82,142 77,150.6 		"/>
		<polygon style="fill:#E88B03;" points="82.3,158.5 91.4,158.6 96,150.7 91.5,142.8 82.4,142.7 77.8,150.6 		"/>
		<polygon style="fill:#ED9F02;" points="82.7,157.8 91,157.9 95.2,150.7 91.1,143.5 82.8,143.4 78.6,150.6 		"/>
		<polygon style="fill:#F2B400;" points="83.1,157.1 90.6,157.1 94.4,150.7 90.7,144.2 83.2,144.1 79.4,150.6 		"/>
		<polygon style="fill:#F7C800;" points="83.6,156.4 90.2,156.4 93.6,150.7 90.3,144.9 83.6,144.9 80.3,150.6 		"/>
		<polygon style="fill:#FDDA00;" points="84,155.7 89.8,155.7 92.8,150.7 89.9,145.6 84,145.6 81.1,150.6 		"/>
		<polygon style="fill:#FFEE00;" points="84.4,155 89.4,155 91.9,150.7 89.5,146.3 84.4,146.3 81.9,150.6 		"/>
	</g>
	<g>
		<polygon style="fill:#D2000C;" points="134.4,162.8 141.4,150.6 134.4,138.4 120.3,138.4 113.3,150.6 120.3,162.8 		"/>
		<polygon style="fill:#D61900;" points="134,162.1 140.6,150.6 134,139.1 120.7,139.1 114.1,150.6 120.7,162.1 		"/>
		<polygon style="fill:#D83302;" points="133.5,161.4 139.8,150.6 133.6,139.8 121.1,139.8 114.9,150.6 121.1,161.4 		"/>
		<polygon style="fill:#DC4A02;" points="133.1,160.7 138.9,150.6 133.2,140.6 121.5,140.6 115.7,150.6 121.5,160.6 		"/>
		<polygon style="fill:#E06303;" points="132.7,159.9 138.1,150.6 132.7,141.3 122,141.3 116.6,150.6 121.9,159.9 		"/>
		<polygon style="fill:#E47604;" points="132.3,159.2 137.3,150.6 132.3,142 122.4,142 117.4,150.6 122.4,159.2 		"/>
		<polygon style="fill:#E88B03;" points="131.9,158.5 136.5,150.6 131.9,142.7 122.8,142.7 118.2,150.6 122.8,158.5 		"/>
		<polygon style="fill:#ED9F02;" points="131.5,157.8 135.6,150.6 131.5,143.4 123.2,143.4 119,150.6 123.2,157.8 		"/>
		<polygon style="fill:#F2B400;" points="131.1,157.1 134.8,150.6 131.1,144.1 123.6,144.1 119.9,150.6 123.6,157.1 		"/>
		<polygon style="fill:#F7C800;" points="130.7,156.4 134,150.6 130.7,144.8 124,144.8 120.7,150.6 124,156.4 		"/>
		<polygon style="fill:#FDDA00;" points="130.3,155.7 133.2,150.6 130.3,145.6 124.4,145.5 121.5,150.6 124.4,155.7 		"/>
		<polygon style="fill:#FFEE00;" points="129.8,154.9 132.3,150.6 129.8,146.3 124.8,146.3 122.3,150.6 124.8,154.9 		"/>
	</g>
	<g>
		<polygon style="fill:#D2000C;" points="161.4,116.1 154.4,103.9 140.4,103.7 133.2,115.9 140.2,128.1 154.2,128.2 		"/>
		<polygon style="fill:#D61900;" points="160.6,116.1 154,104.6 140.8,104.5 134.1,115.9 140.6,127.4 153.8,127.5 		"/>
		<polygon style="fill:#D83302;" points="159.7,116.1 153.6,105.3 141.2,105.2 134.9,115.9 141,126.7 153.4,126.8 		"/>
		<polygon style="fill:#DC4A02;" points="158.9,116.1 153.2,106 141.6,105.9 135.7,115.9 141.4,126 153,126.1 		"/>
		<polygon style="fill:#E06303;" points="158.1,116.1 152.8,106.7 142,106.6 136.5,115.9 141.8,125.3 152.6,125.4 		"/>
		<polygon style="fill:#E47604;" points="157.3,116.1 152.3,107.4 142.4,107.3 137.3,115.9 142.3,124.6 152.2,124.6 		"/>
		<polygon style="fill:#E88B03;" points="156.4,116.1 151.9,108.1 142.8,108 138.2,115.9 142.7,123.9 151.8,123.9 		"/>
		<polygon style="fill:#ED9F02;" points="155.6,116.1 151.5,108.8 143.2,108.8 139,115.9 143.1,123.1 151.4,123.2 		"/>
		<polygon style="fill:#F2B400;" points="154.8,116.1 151.1,109.5 143.6,109.5 139.8,115.9 143.5,122.4 151,122.5 		"/>
		<polygon style="fill:#F7C800;" points="154,116 150.7,110.3 144,110.2 140.6,115.9 143.9,121.7 150.6,121.8 		"/>
		<polygon style="fill:#FDDA00;" points="153.1,116 150.3,111 144.4,110.9 141.5,115.9 144.3,121 150.2,121.1 		"/>
		<polygon style="fill:#FFEE00;" points="152.3,116 149.8,111.7 144.8,111.6 142.3,115.9 144.8,120.3 149.8,120.3 		"/>
	</g>
	<g>
		<g>
			<g>
				<polygon style="fill:#362C2C;" points="20.1,57.6 13.2,69.3 19.7,81.1 46.7,81.1 33.6,57.5 				"/>
				<polygon style="fill:#35354A;" points="19.9,80.9 13.5,69.3 20.3,57.8 33.4,57.8 46.3,80.8 				"/>
				<polygon style="fill:#3D3A5A;" points="20,80.6 13.7,69.3 20.4,58 33.3,58 45.9,80.6 				"/>
				<polygon style="fill:#413A65;" points="20.2,80.4 14,69.4 20.5,58.3 33.2,58.2 45.5,80.4 				"/>
				<polygon style="fill:#41376E;" points="20.3,80.2 14.3,69.4 20.7,58.5 33,58.5 45.1,80.1 				"/>
				<polygon style="fill:#3C3374;" points="20.4,79.9 14.6,69.4 20.8,58.7 32.9,58.7 44.7,79.9 				"/>
				<polygon style="fill:#362A79;" points="20.6,79.7 14.8,69.4 20.9,59 32.7,59 44.3,79.7 				"/>
				<polygon style="fill:#2A227E;" points="20.7,79.4 15.1,69.4 21.1,59.2 32.6,59.2 43.9,79.4 				"/>
				<polygon style="fill:#1A1B83;" points="20.8,79.2 15.4,69.4 21.2,59.4 32.5,59.4 43.5,79.2 				"/>
				<polygon style="fill:#182A8C;" points="21.4,78.3 16.4,69.4 21.7,60.3 32,60.3 42,78.3 				"/>
				<polygon style="fill:#133A97;" points="21.9,77.5 17.4,69.4 22.2,61.2 31.5,61.2 40.5,77.5 				"/>
				<polygon style="fill:#0E4CA4;" points="22.4,76.6 18.4,69.4 22.7,62 30.9,62 39.1,76.6 				"/>
				<polygon style="fill:#065EB3;" points="22.9,75.7 19.4,69.4 23.2,62.9 30.4,62.9 37.6,75.7 				"/>
				<polygon style="fill:#0072C2;" points="23.4,74.9 20.4,69.4 23.7,63.8 29.9,63.8 36.1,74.9 				"/>
				<polygon style="fill:#008BD2;" points="23.9,74 21.4,69.4 24.2,64.6 29.4,64.6 34.6,74 				"/>
				<polygon style="fill:#009DE0;" points="24.4,73.1 22.4,69.5 24.7,65.5 28.9,65.5 33.2,73.1 				"/>
				<polygon style="fill:#00ABEC;" points="24.9,72.3 23.4,69.5 25.2,66.4 28.4,66.4 31.7,72.3 				"/>
			</g>
			<g>
				<polygon style="fill:#362C2C;" points="53.3,46.2 39.7,46.3 32.9,57.9 46.7,81.1 60.2,57.8 				"/>
				<polygon style="fill:#35354A;" points="33.2,57.9 39.8,46.5 53.2,46.4 60,57.8 46.7,80.6 				"/>
				<polygon style="fill:#3D3A5A;" points="33.4,57.9 39.9,46.7 53.1,46.7 59.7,57.8 46.7,80.1 				"/>
				<polygon style="fill:#413A65;" points="33.7,57.9 40.1,47 52.9,46.9 59.4,57.8 46.7,79.7 				"/>
				<polygon style="fill:#41376E;" points="34,57.9 40.2,47.2 52.8,47.2 59.1,57.8 46.7,79.2 				"/>
				<polygon style="fill:#3C3374;" points="34.3,57.9 40.4,47.5 52.7,47.4 58.9,57.8 46.7,78.7 				"/>
				<polygon style="fill:#362A79;" points="34.5,57.9 40.5,47.7 52.5,47.6 58.6,57.8 46.7,78.3 				"/>
				<polygon style="fill:#2A227E;" points="34.8,57.9 40.6,47.9 52.4,47.9 58.3,57.8 46.7,77.8 				"/>
				<polygon style="fill:#1A1B83;" points="35.1,57.9 40.8,48.2 52.3,48.1 58,57.8 46.7,77.3 				"/>
				<polygon style="fill:#182A8C;" points="36.1,57.9 41.3,49 51.8,49 57,57.8 46.7,75.6 				"/>
				<polygon style="fill:#133A97;" points="37.1,57.9 41.8,49.9 51.3,49.8 56,57.8 46.7,73.9 				"/>
				<polygon style="fill:#0E4CA4;" points="38.1,57.9 42.3,50.8 50.8,50.7 55,57.8 46.7,72.2 				"/>
				<polygon style="fill:#065EB3;" points="39.1,57.9 42.8,51.6 50.3,51.6 54,57.8 46.6,70.5 				"/>
				<polygon style="fill:#0072C2;" points="40.1,57.9 43.3,52.5 49.8,52.4 53,57.8 46.6,68.8 				"/>
				<polygon style="fill:#008BD2;" points="41.1,57.9 43.8,53.3 49.3,53.3 52,57.8 46.6,67.1 				"/>
				<polygon style="fill:#009DE0;" points="42.1,57.9 44.3,54.2 48.8,54.2 51,57.8 46.6,65.4 				"/>
				<polygon style="fill:#00ABEC;" points="43.1,57.8 44.8,55.1 48.3,55.1 50,57.8 46.6,63.7 				"/>
			</g>
			<g>
				<polygon style="fill:#362C2C;" points="80.2,69.5 73.4,57.6 59.9,57.6 46.7,81.1 73.6,81.2 				"/>
				<polygon style="fill:#35354A;" points="60.1,57.8 73.2,57.9 80,69.5 73.5,81 47.1,80.8 				"/>
				<polygon style="fill:#3D3A5A;" points="60.2,58 73.1,58.1 79.7,69.5 73.4,80.7 47.5,80.6 				"/>
				<polygon style="fill:#413A65;" points="60.3,58.3 73,58.4 79.4,69.5 73.2,80.5 47.9,80.4 				"/>
				<polygon style="fill:#41376E;" points="60.5,58.5 72.8,58.6 79.2,69.5 73.1,80.2 48.3,80.1 				"/>
				<polygon style="fill:#3C3374;" points="60.6,58.7 72.7,58.8 78.9,69.5 73,80 48.7,79.9 				"/>
				<polygon style="fill:#362A79;" points="60.7,59 72.6,59.1 78.6,69.5 72.8,79.8 49.1,79.7 				"/>
				<polygon style="fill:#2A227E;" points="60.9,59.2 72.4,59.3 78.3,69.5 72.7,79.5 49.5,79.4 				"/>
				<polygon style="fill:#1A1B83;" points="61,59.5 72.3,59.5 78.1,69.5 72.5,79.3 49.9,79.2 				"/>
				<polygon style="fill:#182A8C;" points="61.5,60.3 71.8,60.4 77.1,69.5 72,78.4 51.4,78.3 				"/>
				<polygon style="fill:#133A97;" points="62,61.2 71.3,61.3 76.1,69.5 71.5,77.6 52.9,77.5 				"/>
				<polygon style="fill:#0E4CA4;" points="62.5,62.1 70.8,62.1 75.1,69.5 71,76.7 54.4,76.6 				"/>
				<polygon style="fill:#065EB3;" points="63,62.9 70.3,63 74.1,69.5 70.5,75.8 55.8,75.8 				"/>
				<polygon style="fill:#0072C2;" points="63.5,63.8 69.8,63.8 73.1,69.5 70,75 57.3,74.9 				"/>
				<polygon style="fill:#008BD2;" points="64.1,64.7 69.3,64.7 72.1,69.5 69.5,74.1 58.8,74 				"/>
				<polygon style="fill:#009DE0;" points="64.6,65.5 68.8,65.6 71.1,69.5 69,73.2 60.3,73.2 				"/>
				<polygon style="fill:#00ABEC;" points="65.1,66.4 68.3,66.4 70.1,69.5 68.5,72.3 61.7,72.3 				"/>
			</g>
			<g>
				<polygon style="fill:#362C2C;" points="73.5,104.4 80.3,92.5 73.7,80.8 46.7,81.1 60,104.5 				"/>
				<polygon style="fill:#35354A;" points="73.5,81.1 80,92.5 73.3,104.1 60.1,104.3 47.1,81.3 				"/>
				<polygon style="fill:#3D3A5A;" points="73.4,81.3 79.8,92.5 73.2,103.9 60.3,104 47.5,81.5 				"/>
				<polygon style="fill:#413A65;" points="73.3,81.5 79.5,92.5 73.1,103.7 60.4,103.8 47.9,81.8 				"/>
				<polygon style="fill:#41376E;" points="73.1,81.8 79.2,92.5 72.9,103.4 60.6,103.5 48.3,82 				"/>
				<polygon style="fill:#3C3374;" points="73,82 78.9,92.5 72.8,103.2 60.7,103.3 48.7,82.2 				"/>
				<polygon style="fill:#362A79;" points="72.9,82.2 78.7,92.5 72.6,103 60.8,103.1 49.1,82.5 				"/>
				<polygon style="fill:#2A227E;" points="72.7,82.5 78.4,92.5 72.5,102.7 61,102.8 49.5,82.7 				"/>
				<polygon style="fill:#1A1B83;" points="72.6,82.7 78.1,92.5 72.4,102.5 61.1,102.6 49.9,82.9 				"/>
				<polygon style="fill:#182A8C;" points="72.1,83.6 77.1,92.5 71.9,101.6 61.6,101.7 51.4,83.8 				"/>
				<polygon style="fill:#133A97;" points="71.6,84.5 76.1,92.5 71.4,100.8 62.1,100.8 52.9,84.6 				"/>
				<polygon style="fill:#0E4CA4;" points="71.1,85.3 75.1,92.5 70.9,99.9 62.6,100 54.4,85.5 				"/>
				<polygon style="fill:#065EB3;" points="70.6,86.2 74.1,92.5 70.4,99 63.1,99.1 55.9,86.3 				"/>
				<polygon style="fill:#0072C2;" points="70.1,87.1 73.1,92.5 69.9,98.2 63.6,98.2 57.3,87.2 				"/>
				<polygon style="fill:#008BD2;" points="69.6,88 72.1,92.5 69.4,97.3 64.1,97.4 58.8,88 				"/>
				<polygon style="fill:#009DE0;" points="69.1,88.8 71.1,92.5 68.8,96.5 64.6,96.5 60.3,88.9 				"/>
				<polygon style="fill:#00ABEC;" points="68.6,89.7 70.1,92.5 68.3,95.6 65.1,95.6 61.8,89.8 				"/>
			</g>
			<g>
				<polygon style="fill:#362C2C;" points="39.8,115.9 53.5,115.9 60.3,104.3 46.7,81.1 33,104.3 				"/>
				<polygon style="fill:#35354A;" points="60.1,104.3 53.3,115.7 40,115.6 33.3,104.3 46.7,81.5 				"/>
				<polygon style="fill:#3D3A5A;" points="59.8,104.3 53.2,115.4 40.1,115.4 33.6,104.3 46.7,82 				"/>
				<polygon style="fill:#413A65;" points="59.5,104.3 53.1,115.2 40.2,115.2 33.8,104.3 46.7,82.5 				"/>
				<polygon style="fill:#41376E;" points="59.2,104.3 52.9,115 40.4,114.9 34.1,104.3 46.7,82.9 				"/>
				<polygon style="fill:#3C3374;" points="59,104.3 52.8,114.7 40.5,114.7 34.4,104.3 46.7,83.4 				"/>
				<polygon style="fill:#362A79;" points="58.7,104.3 52.7,114.5 40.6,114.5 34.7,104.3 46.7,83.9 				"/>
				<polygon style="fill:#2A227E;" points="58.4,104.3 52.5,114.3 40.8,114.2 34.9,104.3 46.7,84.3 				"/>
				<polygon style="fill:#1A1B83;" points="58.1,104.3 52.4,114 40.9,114 35.2,104.3 46.7,84.8 				"/>
				<polygon style="fill:#182A8C;" points="57.1,104.3 51.9,113.1 41.4,113.1 36.2,104.3 46.7,86.5 				"/>
				<polygon style="fill:#133A97;" points="56.1,104.3 51.4,112.3 41.9,112.3 37.2,104.3 46.7,88.2 				"/>
				<polygon style="fill:#0E4CA4;" points="55.1,104.3 50.9,111.4 42.4,111.4 38.2,104.3 46.7,89.9 				"/>
				<polygon style="fill:#065EB3;" points="54.1,104.3 50.4,110.5 42.9,110.5 39.2,104.3 46.7,91.6 				"/>
				<polygon style="fill:#0072C2;" points="53.1,104.3 49.9,109.7 43.4,109.7 40.2,104.3 46.7,93.3 				"/>
				<polygon style="fill:#008BD2;" points="52.1,104.3 49.4,108.8 43.9,108.8 41.2,104.3 46.7,95 				"/>
				<polygon style="fill:#009DE0;" points="51.1,104.3 49,107.9 44.4,107.9 42.2,104.3 46.7,96.8 				"/>
				<polygon style="fill:#00ABEC;" points="50.1,104.3 48.5,107.1 44.9,107.1 43.2,104.3 46.7,98.5 				"/>
			</g>
			<g>
				<polygon style="fill:#362C2C;" points="13.1,92.4 19.9,104.3 33.3,104.5 46.7,81.1 19.8,80.7 				"/>
				<polygon style="fill:#35354A;" points="33.2,104.2 20,104.1 13.4,92.4 19.9,81 46.3,81.3 				"/>
				<polygon style="fill:#3D3A5A;" points="33,104 20.1,103.8 13.6,92.4 20,81.2 45.9,81.5 				"/>
				<polygon style="fill:#413A65;" points="32.9,103.8 20.3,103.6 13.9,92.4 20.2,81.5 45.5,81.8 				"/>
				<polygon style="fill:#41376E;" points="32.8,103.5 20.4,103.3 14.2,92.4 20.3,81.7 45.1,82 				"/>
				<polygon style="fill:#3C3374;" points="32.6,103.3 20.6,103.1 14.4,92.4 20.4,81.9 44.7,82.2 				"/>
				<polygon style="fill:#362A79;" points="32.5,103 20.7,102.9 14.7,92.4 20.6,82.2 44.3,82.5 				"/>
				<polygon style="fill:#2A227E;" points="32.4,102.8 20.8,102.6 15,92.4 20.7,82.4 43.9,82.7 				"/>
				<polygon style="fill:#1A1B83;" points="32.2,102.6 21,102.4 15.3,92.4 20.9,82.6 43.5,82.9 				"/>
				<polygon style="fill:#182A8C;" points="31.7,101.7 21.5,101.6 16.3,92.4 21.4,83.5 42,83.8 				"/>
				<polygon style="fill:#133A97;" points="31.2,100.8 22,100.7 17.3,92.4 21.9,84.4 40.5,84.6 				"/>
				<polygon style="fill:#0E4CA4;" points="30.7,99.9 22.5,99.8 18.3,92.4 22.4,85.3 39,85.5 				"/>
				<polygon style="fill:#065EB3;" points="30.2,99.1 23,99 19.3,92.4 22.9,86.1 37.5,86.3 				"/>
				<polygon style="fill:#0072C2;" points="29.7,98.2 23.5,98.1 20.3,92.4 23.4,87 36.1,87.2 				"/>
				<polygon style="fill:#008BD2;" points="29.2,97.3 24,97.3 21.3,92.4 23.9,87.9 34.6,88 				"/>
				<polygon style="fill:#009DE0;" points="28.7,96.5 24.5,96.4 22.2,92.4 24.4,88.7 33.1,88.9 				"/>
				<polygon style="fill:#00ABEC;" points="28.2,95.6 25,95.5 23.2,92.4 24.9,89.6 31.6,89.7 				"/>
			</g>
		</g>
		<g>
			<g>
				<polygon style="fill:#362C2C;" points="140.9,127.3 133.9,139 140.5,150.8 167.4,150.8 154.3,127.2 				"/>
				<polygon style="fill:#35354A;" points="140.6,150.6 134.2,139 141,127.5 154.2,127.5 167,150.5 				"/>
				<polygon style="fill:#3D3A5A;" points="140.7,150.3 134.5,139.1 141.1,127.7 154,127.7 166.6,150.3 				"/>
				<polygon style="fill:#413A65;" points="140.9,150.1 134.7,139.1 141.3,128 153.9,128 166.2,150.1 				"/>
				<polygon style="fill:#41376E;" points="141,149.9 135,139.1 141.4,128.2 153.8,128.2 165.8,149.8 				"/>
				<polygon style="fill:#3C3374;" points="141.2,149.6 135.3,139.1 141.5,128.4 153.6,128.4 165.4,149.6 				"/>
				<polygon style="fill:#362A79;" points="141.3,149.4 135.6,139.1 141.7,128.7 153.5,128.7 165,149.4 				"/>
				<polygon style="fill:#2A227E;" points="141.4,149.2 135.8,139.1 141.8,128.9 153.3,128.9 164.6,149.1 				"/>
				<polygon style="fill:#1A1B83;" points="141.6,148.9 136.1,139.1 141.9,129.2 153.2,129.1 164.2,148.9 				"/>
				<polygon style="fill:#182A8C;" points="142.1,148 137.1,139.1 142.4,130 152.7,130 162.7,148 				"/>
				<polygon style="fill:#133A97;" points="142.6,147.2 138.1,139.1 142.9,130.9 152.2,130.9 161.3,147.2 				"/>
				<polygon style="fill:#0E4CA4;" points="143.1,146.3 139.1,139.1 143.4,131.7 151.7,131.7 159.8,146.3 				"/>
				<polygon style="fill:#065EB3;" points="143.6,145.4 140.1,139.1 143.9,132.6 151.2,132.6 158.3,145.4 				"/>
				<polygon style="fill:#0072C2;" points="144.1,144.6 141.1,139.1 144.4,133.5 150.7,133.5 156.8,144.6 				"/>
				<polygon style="fill:#008BD2;" points="144.6,143.7 142.1,139.1 144.9,134.3 150.1,134.3 155.4,143.7 				"/>
				<polygon style="fill:#009DE0;" points="145.1,142.8 143.1,139.2 145.4,135.2 149.6,135.2 153.9,142.8 				"/>
				<polygon style="fill:#00ABEC;" points="145.7,142 144.1,139.2 145.9,136.1 149.1,136.1 152.4,142 				"/>
			</g>
			<g>
				<polygon style="fill:#362C2C;" points="174.1,115.9 160.4,116 153.6,127.6 167.4,150.8 181,127.5 				"/>
				<polygon style="fill:#35354A;" points="153.9,127.6 160.5,116.2 173.9,116.1 180.7,127.5 167.4,150.3 				"/>
				<polygon style="fill:#3D3A5A;" points="154.2,127.6 160.7,116.4 173.8,116.4 180.4,127.5 167.4,149.8 				"/>
				<polygon style="fill:#413A65;" points="154.4,127.6 160.8,116.7 173.7,116.6 180.1,127.5 167.4,149.4 				"/>
				<polygon style="fill:#41376E;" points="154.7,127.6 160.9,116.9 173.5,116.9 179.9,127.5 167.4,148.9 				"/>
				<polygon style="fill:#3C3374;" points="155,127.6 161.1,117.2 173.4,117.1 179.6,127.5 167.4,148.4 				"/>
				<polygon style="fill:#362A79;" points="155.3,127.6 161.2,117.4 173.3,117.3 179.3,127.5 167.4,148 				"/>
				<polygon style="fill:#2A227E;" points="155.5,127.6 161.4,117.6 173.1,117.6 179,127.5 167.4,147.5 				"/>
				<polygon style="fill:#1A1B83;" points="155.8,127.6 161.5,117.9 173,117.8 178.8,127.5 167.4,147 				"/>
				<polygon style="fill:#182A8C;" points="156.8,127.6 162,118.7 172.5,118.7 177.8,127.5 167.4,145.3 				"/>
				<polygon style="fill:#133A97;" points="157.8,127.6 162.5,119.6 172,119.5 176.8,127.5 167.4,143.6 				"/>
				<polygon style="fill:#0E4CA4;" points="158.8,127.6 163,120.5 171.5,120.4 175.7,127.5 167.4,141.9 				"/>
				<polygon style="fill:#065EB3;" points="159.8,127.6 163.5,121.3 171,121.3 174.7,127.5 167.4,140.2 				"/>
				<polygon style="fill:#0072C2;" points="160.8,127.6 164,122.2 170.5,122.1 173.7,127.5 167.4,138.5 				"/>
				<polygon style="fill:#008BD2;" points="161.9,127.6 164.5,123 170,123 172.7,127.5 167.4,136.8 				"/>
				<polygon style="fill:#009DE0;" points="162.9,127.6 165,123.9 169.6,123.9 171.7,127.5 167.3,135.1 				"/>
				<polygon style="fill:#00ABEC;" points="163.9,127.6 165.5,124.8 169.1,124.8 170.7,127.5 167.3,133.4 				"/>
			</g>
			<g>
				<polygon style="fill:#362C2C;" points="201,139.2 194.1,127.3 180.7,127.3 167.4,150.8 194.4,150.9 				"/>
				<polygon style="fill:#35354A;" points="180.8,127.5 194,127.6 200.7,139.2 194.2,150.7 167.8,150.5 				"/>
				<polygon style="fill:#3D3A5A;" points="180.9,127.7 193.8,127.8 200.4,139.2 194.1,150.4 168.2,150.3 				"/>
				<polygon style="fill:#413A65;" points="181.1,128 193.7,128.1 200.2,139.2 194,150.2 168.6,150.1 				"/>
				<polygon style="fill:#41376E;" points="181.2,128.2 193.6,128.3 199.9,139.2 193.8,149.9 169,149.8 				"/>
				<polygon style="fill:#3C3374;" points="181.3,128.4 193.4,128.5 199.6,139.2 193.7,149.7 169.4,149.6 				"/>
				<polygon style="fill:#362A79;" points="181.5,128.7 193.3,128.8 199.3,139.2 193.5,149.5 169.9,149.4 				"/>
				<polygon style="fill:#2A227E;" points="181.6,128.9 193.2,129 199.1,139.2 193.4,149.2 170.3,149.1 				"/>
				<polygon style="fill:#1A1B83;" points="181.8,129.2 193,129.2 198.8,139.2 193.3,149 170.7,148.9 				"/>
				<polygon style="fill:#182A8C;" points="182.3,130 192.5,130.1 197.8,139.2 192.8,148.1 172.1,148 				"/>
				<polygon style="fill:#133A97;" points="182.8,130.9 192,131 196.8,139.2 192.3,147.3 173.6,147.2 				"/>
				<polygon style="fill:#0E4CA4;" points="183.3,131.8 191.5,131.8 195.8,139.2 191.8,146.4 175.1,146.3 				"/>
				<polygon style="fill:#065EB3;" points="183.8,132.6 191,132.7 194.8,139.2 191.2,145.5 176.6,145.5 				"/>
				<polygon style="fill:#0072C2;" points="184.3,133.5 190.5,133.5 193.8,139.2 190.7,144.7 178,144.6 				"/>
				<polygon style="fill:#008BD2;" points="184.8,134.4 190,134.4 192.8,139.2 190.2,143.8 179.5,143.7 				"/>
				<polygon style="fill:#009DE0;" points="185.3,135.2 189.5,135.3 191.8,139.2 189.7,142.9 181,142.9 				"/>
				<polygon style="fill:#00ABEC;" points="185.8,136.1 189,136.1 190.8,139.2 189.2,142 182.5,142 				"/>
			</g>
			<g>
				<polygon style="fill:#362C2C;" points="194.2,174.1 201,162.2 194.4,150.5 167.4,150.8 180.7,174.2 				"/>
				<polygon style="fill:#35354A;" points="194.3,150.8 200.8,162.2 194.1,173.8 180.9,174 167.8,151 				"/>
				<polygon style="fill:#3D3A5A;" points="194.1,151 200.5,162.2 193.9,173.6 181,173.7 168.2,151.2 				"/>
				<polygon style="fill:#413A65;" points="194,151.2 200.2,162.2 193.8,173.4 181.1,173.5 168.6,151.5 				"/>
				<polygon style="fill:#41376E;" points="193.9,151.5 199.9,162.2 193.6,173.1 181.3,173.2 169.1,151.7 				"/>
				<polygon style="fill:#3C3374;" points="193.7,151.7 199.7,162.2 193.5,172.9 181.4,173 169.5,151.9 				"/>
				<polygon style="fill:#362A79;" points="193.6,152 199.4,162.2 193.4,172.7 181.6,172.8 169.9,152.2 				"/>
				<polygon style="fill:#2A227E;" points="193.4,152.2 199.1,162.2 193.2,172.4 181.7,172.5 170.3,152.4 				"/>
				<polygon style="fill:#1A1B83;" points="193.3,152.4 198.8,162.2 193.1,172.2 181.8,172.3 170.7,152.6 				"/>
				<polygon style="fill:#182A8C;" points="192.8,153.3 197.8,162.2 192.6,171.3 182.3,171.4 172.1,153.5 				"/>
				<polygon style="fill:#133A97;" points="192.3,154.2 196.9,162.2 192.1,170.5 182.8,170.6 173.6,154.3 				"/>
				<polygon style="fill:#0E4CA4;" points="191.8,155 195.9,162.2 191.6,169.6 183.3,169.7 175.1,155.2 				"/>
				<polygon style="fill:#065EB3;" points="191.3,155.9 194.9,162.2 191.1,168.7 183.8,168.8 176.6,156 				"/>
				<polygon style="fill:#0072C2;" points="190.8,156.8 193.9,162.2 190.6,167.9 184.3,167.9 178.1,156.9 				"/>
				<polygon style="fill:#008BD2;" points="190.3,157.7 192.9,162.2 190.1,167 184.8,167.1 179.6,157.7 				"/>
				<polygon style="fill:#009DE0;" points="189.8,158.5 191.9,162.2 189.6,166.2 185.3,166.2 181,158.6 				"/>
				<polygon style="fill:#00ABEC;" points="189.3,159.4 190.9,162.2 189.1,165.3 185.8,165.3 182.5,159.5 				"/>
			</g>
			<g>
				<polygon style="fill:#362C2C;" points="160.5,185.6 174.2,185.6 181.1,174 167.4,150.8 153.7,174 				"/>
				<polygon style="fill:#35354A;" points="180.8,174 174.1,185.4 160.7,185.3 154,174 167.4,151.2 				"/>
				<polygon style="fill:#3D3A5A;" points="180.5,174 173.9,185.1 160.8,185.1 154.3,174 167.4,151.7 				"/>
				<polygon style="fill:#413A65;" points="180.2,174 173.8,184.9 161,184.9 154.6,174 167.4,152.2 				"/>
				<polygon style="fill:#41376E;" points="180,174 173.7,184.7 161.1,184.6 154.8,174 167.4,152.6 				"/>
				<polygon style="fill:#3C3374;" points="179.7,174 173.5,184.4 161.2,184.4 155.1,174 167.4,153.1 				"/>
				<polygon style="fill:#362A79;" points="179.4,174 173.4,184.2 161.4,184.2 155.4,174 167.4,153.6 				"/>
				<polygon style="fill:#2A227E;" points="179.1,174 173.3,184 161.5,183.9 155.7,174 167.4,154 				"/>
				<polygon style="fill:#1A1B83;" points="178.9,174 173.1,183.7 161.6,183.7 155.9,174 167.4,154.5 				"/>
				<polygon style="fill:#182A8C;" points="177.9,174 172.6,182.9 162.1,182.8 156.9,174 167.4,156.2 				"/>
				<polygon style="fill:#133A97;" points="176.9,174 172.1,182 162.6,182 157.9,174 167.4,157.9 				"/>
				<polygon style="fill:#0E4CA4;" points="175.9,174 171.7,181.1 163.1,181.1 158.9,174 167.4,159.6 				"/>
				<polygon style="fill:#065EB3;" points="174.9,174 171.2,180.2 163.6,180.2 160,174 167.4,161.3 				"/>
				<polygon style="fill:#0072C2;" points="173.8,174 170.7,179.4 164.1,179.4 161,174 167.4,163 				"/>
				<polygon style="fill:#008BD2;" points="172.8,174 170.2,178.5 164.6,178.5 162,174 167.4,164.8 				"/>
				<polygon style="fill:#009DE0;" points="171.8,174 169.7,177.6 165.1,177.6 163,174 167.4,166.5 				"/>
				<polygon style="fill:#00ABEC;" points="170.8,174 169.2,176.8 165.6,176.8 164,174 167.4,168.2 				"/>
			</g>
			<g>
				<polygon style="fill:#362C2C;" points="133.8,162.1 140.6,174 154,174.2 167.4,150.8 140.5,150.4 				"/>
				<polygon style="fill:#35354A;" points="153.9,173.9 140.7,173.8 134.1,162.1 140.6,150.7 167,151 				"/>
				<polygon style="fill:#3D3A5A;" points="153.8,173.7 140.9,173.5 134.4,162.1 140.8,150.9 166.6,151.2 				"/>
				<polygon style="fill:#413A65;" points="153.6,173.5 141,173.3 134.6,162.1 140.9,151.2 166.2,151.5 				"/>
				<polygon style="fill:#41376E;" points="153.5,173.2 141.1,173.1 134.9,162.1 141,151.4 165.8,151.7 				"/>
				<polygon style="fill:#3C3374;" points="153.4,173 141.3,172.8 135.2,162.1 141.2,151.6 165.4,151.9 				"/>
				<polygon style="fill:#362A79;" points="153.2,172.7 141.4,172.6 135.4,162.1 141.3,151.9 165,152.2 				"/>
				<polygon style="fill:#2A227E;" points="153.1,172.5 141.6,172.3 135.7,162.1 141.4,152.1 164.6,152.4 				"/>
				<polygon style="fill:#1A1B83;" points="153,172.3 141.7,172.1 136,162.1 141.6,152.3 164.2,152.6 				"/>
				<polygon style="fill:#182A8C;" points="152.5,171.4 142.2,171.3 137,162.1 142.1,153.2 162.7,153.5 				"/>
				<polygon style="fill:#133A97;" points="152,170.5 142.7,170.4 138,162.1 142.6,154.1 161.2,154.3 				"/>
				<polygon style="fill:#0E4CA4;" points="151.5,169.6 143.2,169.5 139,162.1 143.1,155 159.7,155.2 				"/>
				<polygon style="fill:#065EB3;" points="151,168.8 143.7,168.7 140,162.1 143.6,155.8 158.3,156 				"/>
				<polygon style="fill:#0072C2;" points="150.5,167.9 144.2,167.8 141,162.1 144.1,156.7 156.8,156.9 				"/>
				<polygon style="fill:#008BD2;" points="150,167 144.7,167 142,162.1 144.6,157.6 155.3,157.7 				"/>
				<polygon style="fill:#009DE0;" points="149.5,166.2 145.2,166.1 143,162.1 145.1,158.5 153.8,158.6 				"/>
				<polygon style="fill:#00ABEC;" points="149,165.3 145.8,165.2 144,162.1 145.6,159.3 152.3,159.4 				"/>
			</g>
		</g>
	</g>
	<g>
		<g>
			<g>
				<polygon style="fill:#362C2C;" points="13.1,162 19.8,173.9 33.3,174.1 46.7,150.8 19.8,150.4 				"/>
				<polygon style="fill:#35354A;" points="33.1,173.9 19.9,173.7 13.3,162 19.9,150.6 46.3,151 				"/>
				<polygon style="fill:#3D3A5A;" points="33,173.6 20.1,173.4 13.6,162 20,150.8 45.9,151.2 				"/>
				<polygon style="fill:#413A65;" points="32.9,173.4 20.2,173.2 13.9,162 20.2,151.1 45.5,151.4 				"/>
				<polygon style="fill:#41376E;" points="32.7,173.2 20.4,173 14.1,162 20.3,151.3 45.1,151.7 				"/>
				<polygon style="fill:#3C3374;" points="32.6,172.9 20.5,172.7 14.4,162 20.4,151.5 44.7,151.9 				"/>
				<polygon style="fill:#362A79;" points="32.4,172.7 20.6,172.5 14.7,162 20.6,151.8 44.3,152.1 				"/>
				<polygon style="fill:#2A227E;" points="32.3,172.5 20.8,172.3 15,162 20.7,152 43.9,152.4 				"/>
				<polygon style="fill:#1A1B83;" points="32.2,172.2 20.9,172 15.2,162 20.9,152.3 43.5,152.6 				"/>
				<polygon style="fill:#182A8C;" points="31.7,171.3 21.4,171.2 16.2,162 21.4,153.1 42,153.4 				"/>
				<polygon style="fill:#133A97;" points="31.2,170.5 21.9,170.3 17.2,162 21.8,154 40.5,154.3 				"/>
				<polygon style="fill:#0E4CA4;" points="30.7,169.6 22.4,169.5 18.2,162 22.3,154.9 39,155.1 				"/>
				<polygon style="fill:#065EB3;" points="30.2,168.7 23,168.6 19.2,162 22.8,155.8 37.5,156 				"/>
				<polygon style="fill:#0072C2;" points="29.7,167.8 23.5,167.7 20.2,162 23.3,156.6 36,156.8 				"/>
				<polygon style="fill:#008BD2;" points="29.2,167 24,166.9 21.2,162 23.8,157.5 34.6,157.7 				"/>
				<polygon style="fill:#009DE0;" points="28.7,166.1 24.5,166 22.2,162 24.3,158.4 33.1,158.5 				"/>
				<polygon style="fill:#00ABEC;" points="28.2,165.2 25,165.2 23.2,162.1 24.8,159.3 31.6,159.4 				"/>
			</g>
			<g>
				<polygon style="fill:#362C2C;" points="19.8,127.6 13.1,139.4 19.7,151.1 46.7,150.8 33.3,127.4 				"/>
				<polygon style="fill:#35354A;" points="19.9,150.9 13.3,139.4 20,127.8 33.2,127.6 46.3,150.5 				"/>
				<polygon style="fill:#3D3A5A;" points="20,150.7 13.6,139.4 20.1,128 33,127.9 45.9,150.3 				"/>
				<polygon style="fill:#413A65;" points="20.1,150.4 13.9,139.4 20.2,128.3 32.9,128.1 45.5,150.1 				"/>
				<polygon style="fill:#41376E;" points="20.3,150.2 14.1,139.4 20.4,128.5 32.7,128.3 45.1,149.8 				"/>
				<polygon style="fill:#3C3374;" points="20.4,149.9 14.4,139.4 20.5,128.8 32.6,128.6 44.7,149.6 				"/>
				<polygon style="fill:#362A79;" points="20.6,149.7 14.7,139.4 20.7,129 32.5,128.8 44.3,149.4 				"/>
				<polygon style="fill:#2A227E;" points="20.7,149.5 15,139.4 20.8,129.2 32.3,129.1 43.9,149.1 				"/>
				<polygon style="fill:#1A1B83;" points="20.8,149.2 15.2,139.4 20.9,129.5 32.2,129.3 43.5,148.9 				"/>
				<polygon style="fill:#182A8C;" points="21.3,148.3 16.2,139.4 21.4,130.3 31.7,130.2 42,148.1 				"/>
				<polygon style="fill:#133A97;" points="21.8,147.5 17.2,139.4 22,131.2 31.2,131 40.5,147.2 				"/>
				<polygon style="fill:#0E4CA4;" points="22.3,146.6 18.2,139.4 22.5,132 30.7,131.9 39,146.4 				"/>
				<polygon style="fill:#065EB3;" points="22.8,145.7 19.2,139.4 23,132.9 30.2,132.8 37.5,145.5 				"/>
				<polygon style="fill:#0072C2;" points="23.3,144.9 20.2,139.4 23.5,133.8 29.7,133.7 36,144.7 				"/>
				<polygon style="fill:#008BD2;" points="23.8,144 21.2,139.4 24,134.6 29.2,134.5 34.6,143.8 				"/>
				<polygon style="fill:#009DE0;" points="24.3,143.1 22.2,139.4 24.5,135.5 28.7,135.4 33.1,143 				"/>
				<polygon style="fill:#00ABEC;" points="24.8,142.2 23.2,139.4 25,136.3 28.2,136.3 31.6,142.1 				"/>
			</g>
			<g>
				<polygon style="fill:#362C2C;" points="53.4,115.9 39.8,115.9 33,127.6 46.7,150.8 60.3,127.5 				"/>
				<polygon style="fill:#35354A;" points="33.2,127.6 39.9,116.2 53.3,116.1 60,127.5 46.7,150.3 				"/>
				<polygon style="fill:#3D3A5A;" points="33.5,127.6 40,116.4 53.2,116.4 59.7,127.5 46.7,149.8 				"/>
				<polygon style="fill:#413A65;" points="33.8,127.6 40.2,116.7 53,116.6 59.5,127.5 46.7,149.4 				"/>
				<polygon style="fill:#41376E;" points="34.1,127.5 40.3,116.9 52.9,116.9 59.2,127.5 46.7,148.9 				"/>
				<polygon style="fill:#3C3374;" points="34.3,127.5 40.4,117.1 52.8,117.1 58.9,127.5 46.7,148.4 				"/>
				<polygon style="fill:#362A79;" points="34.6,127.5 40.6,117.4 52.6,117.3 58.6,127.5 46.7,148 				"/>
				<polygon style="fill:#2A227E;" points="34.9,127.5 40.7,117.6 52.5,117.6 58.4,127.5 46.7,147.5 				"/>
				<polygon style="fill:#1A1B83;" points="35.2,127.5 40.8,117.8 52.3,117.8 58.1,127.5 46.7,147 				"/>
				<polygon style="fill:#182A8C;" points="36.2,127.5 41.3,118.7 51.9,118.7 57.1,127.5 46.7,145.3 				"/>
				<polygon style="fill:#133A97;" points="37.2,127.5 41.8,119.6 51.4,119.5 56.1,127.5 46.7,143.6 				"/>
				<polygon style="fill:#0E4CA4;" points="38.2,127.5 42.3,120.4 50.9,120.4 55.1,127.5 46.7,141.9 				"/>
				<polygon style="fill:#065EB3;" points="39.2,127.5 42.8,121.3 50.4,121.3 54.1,127.5 46.7,140.2 				"/>
				<polygon style="fill:#0072C2;" points="40.2,127.5 43.3,122.2 49.9,122.1 53.1,127.5 46.7,138.5 				"/>
				<polygon style="fill:#008BD2;" points="41.2,127.5 43.8,123 49.4,123 52.1,127.5 46.7,136.8 				"/>
				<polygon style="fill:#009DE0;" points="42.2,127.5 44.3,123.9 48.9,123.9 51.1,127.5 46.7,135.1 				"/>
				<polygon style="fill:#00ABEC;" points="43.2,127.5 44.8,124.8 48.4,124.7 50.1,127.5 46.6,133.3 				"/>
			</g>
			<g>
				<polygon style="fill:#362C2C;" points="80.3,139.2 73.4,127.4 60,127.3 46.7,150.8 73.6,150.9 				"/>
				<polygon style="fill:#35354A;" points="60.1,127.5 73.3,127.6 80,139.2 73.5,150.7 47.1,150.5 				"/>
				<polygon style="fill:#3D3A5A;" points="60.3,127.8 73.2,127.9 79.7,139.2 73.4,150.5 47.5,150.3 				"/>
				<polygon style="fill:#413A65;" points="60.4,128 73,128.1 79.5,139.2 73.2,150.2 47.9,150.1 				"/>
				<polygon style="fill:#41376E;" points="60.5,128.2 72.9,128.3 79.2,139.2 73.1,150 48.3,149.8 				"/>
				<polygon style="fill:#3C3374;" points="60.7,128.5 72.8,128.6 78.9,139.2 73,149.8 48.7,149.6 				"/>
				<polygon style="fill:#362A79;" points="60.8,128.7 72.6,128.8 78.6,139.2 72.8,149.5 49.1,149.4 				"/>
				<polygon style="fill:#2A227E;" points="60.9,128.9 72.5,129 78.4,139.2 72.7,149.3 49.5,149.1 				"/>
				<polygon style="fill:#1A1B83;" points="61.1,129.2 72.3,129.3 78.1,139.2 72.5,149 49.9,148.9 				"/>
				<polygon style="fill:#182A8C;" points="61.6,130 71.8,130.1 77.1,139.2 72,148.2 51.4,148 				"/>
				<polygon style="fill:#133A97;" points="62.1,130.9 71.3,131 76.1,139.2 71.5,147.3 52.9,147.2 				"/>
				<polygon style="fill:#0E4CA4;" points="62.6,131.8 70.8,131.9 75.1,139.3 71,146.4 54.4,146.3 				"/>
				<polygon style="fill:#065EB3;" points="63.1,132.7 70.3,132.7 74.1,139.3 70.5,145.6 55.9,145.5 				"/>
				<polygon style="fill:#0072C2;" points="63.6,133.5 69.8,133.6 73.1,139.3 70,144.7 57.3,144.6 				"/>
				<polygon style="fill:#008BD2;" points="64.1,134.4 69.3,134.4 72.1,139.3 69.5,143.8 58.8,143.7 				"/>
				<polygon style="fill:#009DE0;" points="64.6,135.3 68.8,135.3 71.1,139.3 69,143 60.3,142.9 				"/>
				<polygon style="fill:#00ABEC;" points="65.1,136.1 68.3,136.2 70.1,139.3 68.5,142.1 61.8,142 				"/>
			</g>
			<g>
				<polygon style="fill:#362C2C;" points="73.4,174.1 80.3,162.3 73.7,150.6 46.7,150.8 59.9,174.2 				"/>
				<polygon style="fill:#35354A;" points="73.5,150.8 80,162.3 73.3,173.9 60.1,174 47.1,151 				"/>
				<polygon style="fill:#3D3A5A;" points="73.4,151.1 79.7,162.3 73.1,173.7 60.2,173.7 47.5,151.2 				"/>
				<polygon style="fill:#413A65;" points="73.3,151.3 79.5,162.3 73,173.4 60.4,173.5 47.9,151.5 				"/>
				<polygon style="fill:#41376E;" points="73.1,151.5 79.2,162.3 72.9,173.2 60.5,173.3 48.3,151.7 				"/>
				<polygon style="fill:#3C3374;" points="73,151.8 78.9,162.3 72.7,172.9 60.6,173 48.7,151.9 				"/>
				<polygon style="fill:#362A79;" points="72.8,152 78.6,162.3 72.6,172.7 60.8,172.8 49.1,152.2 				"/>
				<polygon style="fill:#2A227E;" points="72.7,152.2 78.4,162.3 72.5,172.5 60.9,172.6 49.5,152.4 				"/>
				<polygon style="fill:#1A1B83;" points="72.6,152.5 78.1,162.3 72.3,172.2 61,172.3 49.9,152.6 				"/>
				<polygon style="fill:#182A8C;" points="72.1,153.3 77.1,162.3 71.8,171.4 61.6,171.4 51.4,153.5 				"/>
				<polygon style="fill:#133A97;" points="71.6,154.2 76.1,162.3 71.3,170.5 62.1,170.6 52.9,154.3 				"/>
				<polygon style="fill:#0E4CA4;" points="71.1,155.1 75.1,162.3 70.8,169.7 62.6,169.7 54.4,155.2 				"/>
				<polygon style="fill:#065EB3;" points="70.6,156 74.1,162.3 70.3,168.8 63.1,168.8 55.8,156 				"/>
				<polygon style="fill:#0072C2;" points="70,156.8 73.1,162.3 69.8,167.9 63.6,168 57.3,156.9 				"/>
				<polygon style="fill:#008BD2;" points="69.5,157.7 72.1,162.2 69.3,167.1 64.1,167.1 58.8,157.8 				"/>
				<polygon style="fill:#009DE0;" points="69,158.6 71.1,162.2 68.8,166.2 64.6,166.2 60.3,158.6 				"/>
				<polygon style="fill:#00ABEC;" points="68.5,159.4 70.1,162.2 68.3,165.3 65.1,165.4 61.8,159.5 				"/>
			</g>
			<g>
				<polygon style="fill:#362C2C;" points="39.7,185.5 53.4,185.6 60.3,174.1 46.7,150.8 33,173.9 				"/>
				<polygon style="fill:#35354A;" points="60,174.1 53.3,185.4 39.9,185.3 33.2,173.9 46.7,151.2 				"/>
				<polygon style="fill:#3D3A5A;" points="59.7,174 53.1,185.1 40,185.1 33.5,173.9 46.7,151.7 				"/>
				<polygon style="fill:#413A65;" points="59.5,174 53,184.9 40.1,184.8 33.8,173.9 46.7,152.1 				"/>
				<polygon style="fill:#41376E;" points="59.2,174 52.9,184.7 40.3,184.6 34.1,173.9 46.7,152.6 				"/>
				<polygon style="fill:#3C3374;" points="58.9,174 52.7,184.4 40.4,184.4 34.3,173.9 46.7,153.1 				"/>
				<polygon style="fill:#362A79;" points="58.6,174 52.6,184.2 40.5,184.1 34.6,173.9 46.7,153.5 				"/>
				<polygon style="fill:#2A227E;" points="58.4,174 52.5,184 40.7,183.9 34.9,173.9 46.7,154 				"/>
				<polygon style="fill:#1A1B83;" points="58.1,174 52.3,183.7 40.8,183.7 35.1,173.9 46.7,154.5 				"/>
				<polygon style="fill:#182A8C;" points="57.1,174 51.8,182.8 41.3,182.8 36.2,173.9 46.7,156.2 				"/>
				<polygon style="fill:#133A97;" points="56.1,174 51.3,182 41.8,181.9 37.2,173.9 46.7,157.9 				"/>
				<polygon style="fill:#0E4CA4;" points="55.1,174 50.8,181.1 42.3,181.1 38.2,173.9 46.7,159.6 				"/>
				<polygon style="fill:#065EB3;" points="54.1,174 50.4,180.2 42.8,180.2 39.2,173.9 46.7,161.3 				"/>
				<polygon style="fill:#0072C2;" points="53.1,174 49.9,179.4 43.3,179.3 40.2,173.9 46.7,163 				"/>
				<polygon style="fill:#008BD2;" points="52.1,174 49.4,178.5 43.8,178.5 41.2,173.9 46.6,164.7 				"/>
				<polygon style="fill:#009DE0;" points="51,174 48.9,177.6 44.3,177.6 42.2,174 46.6,166.4 				"/>
				<polygon style="fill:#00ABEC;" points="50,174 48.4,176.8 44.8,176.7 43.2,174 46.6,168.2 				"/>
			</g>
		</g>
		<g>
			<g>
				<polygon style="fill:#362C2C;" points="133.8,92.3 140.5,104.2 154,104.4 167.4,81 140.5,80.7 				"/>
				<polygon style="fill:#35354A;" points="153.8,104.2 140.7,104 134.1,92.3 140.6,80.9 167,81.3 				"/>
				<polygon style="fill:#3D3A5A;" points="153.7,103.9 140.8,103.7 134.3,92.3 140.8,81.1 166.6,81.5 				"/>
				<polygon style="fill:#413A65;" points="153.6,103.7 140.9,103.5 134.6,92.3 140.9,81.4 166.2,81.7 				"/>
				<polygon style="fill:#41376E;" points="153.4,103.5 141.1,103.3 134.9,92.3 141,81.6 165.8,82 				"/>
				<polygon style="fill:#3C3374;" points="153.3,103.2 141.2,103 135.1,92.3 141.2,81.8 165.4,82.2 				"/>
				<polygon style="fill:#362A79;" points="153.2,103 141.4,102.8 135.4,92.3 141.3,82.1 165,82.4 				"/>
				<polygon style="fill:#2A227E;" points="153,102.8 141.5,102.6 135.7,92.3 141.4,82.3 164.6,82.7 				"/>
				<polygon style="fill:#1A1B83;" points="152.9,102.5 141.6,102.3 136,92.3 141.6,82.6 164.2,82.9 				"/>
				<polygon style="fill:#182A8C;" points="152.4,101.6 142.2,101.5 137,92.3 142.1,83.4 162.7,83.7 				"/>
				<polygon style="fill:#133A97;" points="151.9,100.8 142.7,100.6 138,92.3 142.6,84.3 161.2,84.6 				"/>
				<polygon style="fill:#0E4CA4;" points="151.4,99.9 143.2,99.8 139,92.3 143.1,85.2 159.7,85.4 				"/>
				<polygon style="fill:#065EB3;" points="150.9,99 143.7,98.9 140,92.3 143.6,86.1 158.2,86.3 				"/>
				<polygon style="fill:#0072C2;" points="150.4,98.1 144.2,98 141,92.3 144.1,86.9 156.8,87.1 				"/>
				<polygon style="fill:#008BD2;" points="149.9,97.3 144.7,97.2 142,92.3 144.6,87.8 155.3,88 				"/>
				<polygon style="fill:#009DE0;" points="149.4,96.4 145.2,96.3 142.9,92.3 145.1,88.7 153.8,88.8 				"/>
				<polygon style="fill:#00ABEC;" points="148.9,95.5 145.7,95.5 143.9,92.3 145.6,89.6 152.3,89.7 				"/>
			</g>
			<g>
				<polygon style="fill:#362C2C;" points="140.6,57.9 133.8,69.7 140.5,81.4 167.4,81 154,57.7 				"/>
				<polygon style="fill:#35354A;" points="140.6,81.2 134.1,69.7 140.7,58.1 153.9,57.9 167,80.8 				"/>
				<polygon style="fill:#3D3A5A;" points="140.7,80.9 134.3,69.7 140.8,58.3 153.7,58.2 166.6,80.6 				"/>
				<polygon style="fill:#413A65;" points="140.9,80.7 134.6,69.7 141,58.6 153.6,58.4 166.2,80.4 				"/>
				<polygon style="fill:#41376E;" points="141,80.5 134.9,69.7 141.1,58.8 153.5,58.6 165.8,80.1 				"/>
				<polygon style="fill:#3C3374;" points="141.1,80.2 135.1,69.7 141.3,59 153.3,58.9 165.4,79.9 				"/>
				<polygon style="fill:#362A79;" points="141.3,80 135.4,69.7 141.4,59.3 153.2,59.1 165,79.7 				"/>
				<polygon style="fill:#2A227E;" points="141.4,79.8 135.7,69.7 141.5,59.5 153.1,59.4 164.6,79.4 				"/>
				<polygon style="fill:#1A1B83;" points="141.6,79.5 136,69.7 141.7,59.8 152.9,59.6 164.2,79.2 				"/>
				<polygon style="fill:#182A8C;" points="142.1,78.6 137,69.7 142.2,60.6 152.4,60.5 162.7,78.4 				"/>
				<polygon style="fill:#133A97;" points="142.6,77.8 138,69.7 142.7,61.5 151.9,61.3 161.2,77.5 				"/>
				<polygon style="fill:#0E4CA4;" points="143.1,76.9 139,69.7 143.2,62.3 151.4,62.2 159.7,76.7 				"/>
				<polygon style="fill:#065EB3;" points="143.6,76 140,69.7 143.7,63.2 150.9,63.1 158.3,75.8 				"/>
				<polygon style="fill:#0072C2;" points="144,75.2 141,69.7 144.2,64 150.4,64 156.8,75 				"/>
				<polygon style="fill:#008BD2;" points="144.5,74.3 142,69.7 144.7,64.9 149.9,64.8 155.3,74.1 				"/>
				<polygon style="fill:#009DE0;" points="145,73.4 143,69.7 145.2,65.8 149.4,65.7 153.8,73.3 				"/>
				<polygon style="fill:#00ABEC;" points="145.5,72.5 143.9,69.7 145.7,66.6 149,66.6 152.3,72.4 				"/>
			</g>
			<g>
				<polygon style="fill:#362C2C;" points="174.2,46.2 160.5,46.2 153.7,57.8 167.4,81 181,57.8 				"/>
				<polygon style="fill:#35354A;" points="154,57.8 160.6,46.5 174,46.4 180.7,57.8 167.4,80.6 				"/>
				<polygon style="fill:#3D3A5A;" points="154.2,57.8 160.8,46.7 173.9,46.7 180.5,57.8 167.4,80.1 				"/>
				<polygon style="fill:#413A65;" points="154.5,57.8 160.9,46.9 173.7,46.9 180.2,57.8 167.4,79.7 				"/>
				<polygon style="fill:#41376E;" points="154.8,57.8 161,47.2 173.6,47.2 179.9,57.8 167.4,79.2 				"/>
				<polygon style="fill:#3C3374;" points="155.1,57.8 161.2,47.4 173.5,47.4 179.6,57.8 167.4,78.7 				"/>
				<polygon style="fill:#362A79;" points="155.3,57.8 161.3,47.7 173.3,47.6 179.4,57.8 167.4,78.3 				"/>
				<polygon style="fill:#2A227E;" points="155.6,57.8 161.4,47.9 173.2,47.9 179.1,57.8 167.4,77.8 				"/>
				<polygon style="fill:#1A1B83;" points="155.9,57.8 161.6,48.1 173.1,48.1 178.8,57.8 167.4,77.3 				"/>
				<polygon style="fill:#182A8C;" points="156.9,57.8 162.1,49 172.6,49 177.8,57.8 167.4,75.6 				"/>
				<polygon style="fill:#133A97;" points="157.9,57.8 162.6,49.9 172.1,49.8 176.8,57.8 167.4,73.9 				"/>
				<polygon style="fill:#0E4CA4;" points="158.9,57.8 163.1,50.7 171.6,50.7 175.8,57.8 167.4,72.2 				"/>
				<polygon style="fill:#065EB3;" points="159.9,57.8 163.6,51.6 171.1,51.6 174.8,57.8 167.4,70.5 				"/>
				<polygon style="fill:#0072C2;" points="160.9,57.8 164.1,52.5 170.6,52.4 173.8,57.8 167.4,68.8 				"/>
				<polygon style="fill:#008BD2;" points="161.9,57.8 164.6,53.3 170.1,53.3 172.8,57.8 167.4,67.1 				"/>
				<polygon style="fill:#009DE0;" points="162.9,57.8 165.1,54.2 169.6,54.2 171.8,57.8 167.4,65.4 				"/>
				<polygon style="fill:#00ABEC;" points="163.9,57.8 165.6,55 169.1,55 170.8,57.8 167.4,63.6 				"/>
			</g>
			<g>
				<polygon style="fill:#362C2C;" points="201,69.5 194.2,57.7 180.7,57.6 167.4,81 194.4,81.2 				"/>
				<polygon style="fill:#35354A;" points="180.8,57.8 194,57.9 200.7,69.5 194.2,81 167.8,80.8 				"/>
				<polygon style="fill:#3D3A5A;" points="181,58 193.9,58.2 200.5,69.5 194.1,80.8 168.2,80.6 				"/>
				<polygon style="fill:#413A65;" points="181.1,58.3 193.8,58.4 200.2,69.5 194,80.5 168.6,80.3 				"/>
				<polygon style="fill:#41376E;" points="181.3,58.5 193.6,58.6 199.9,69.5 193.8,80.3 169,80.1 				"/>
				<polygon style="fill:#3C3374;" points="181.4,58.8 193.5,58.9 199.6,69.5 193.7,80.1 169.5,79.9 				"/>
				<polygon style="fill:#362A79;" points="181.5,59 193.3,59.1 199.4,69.5 193.5,79.8 169.9,79.6 				"/>
				<polygon style="fill:#2A227E;" points="181.7,59.2 193.2,59.3 199.1,69.5 193.4,79.6 170.3,79.4 				"/>
				<polygon style="fill:#1A1B83;" points="181.8,59.5 193.1,59.6 198.8,69.5 193.3,79.3 170.7,79.2 				"/>
				<polygon style="fill:#182A8C;" points="182.3,60.3 192.6,60.4 197.8,69.5 192.8,78.5 172.1,78.3 				"/>
				<polygon style="fill:#133A97;" points="182.8,61.2 192.1,61.3 196.8,69.5 192.3,77.6 173.6,77.5 				"/>
				<polygon style="fill:#0E4CA4;" points="183.3,62.1 191.6,62.2 195.8,69.6 191.8,76.7 175.1,76.6 				"/>
				<polygon style="fill:#065EB3;" points="183.8,63 191.1,63 194.8,69.6 191.3,75.9 176.6,75.8 				"/>
				<polygon style="fill:#0072C2;" points="184.3,63.8 190.6,63.9 193.8,69.6 190.8,75 178.1,74.9 				"/>
				<polygon style="fill:#008BD2;" points="184.8,64.7 190.1,64.7 192.8,69.6 190.3,74.1 179.5,74 				"/>
				<polygon style="fill:#009DE0;" points="185.3,65.6 189.5,65.6 191.8,69.6 189.8,73.3 181,73.2 				"/>
				<polygon style="fill:#00ABEC;" points="185.8,66.4 189,66.5 190.8,69.6 189.2,72.4 182.5,72.3 				"/>
			</g>
			<g>
				<polygon style="fill:#362C2C;" points="194.1,104.4 201,92.6 194.4,80.9 167.4,81 180.7,104.5 				"/>
				<polygon style="fill:#35354A;" points="194.3,81.1 200.7,92.6 194,104.2 180.8,104.3 167.8,81.3 				"/>
				<polygon style="fill:#3D3A5A;" points="194.1,81.3 200.5,92.6 193.9,104 181,104 168.2,81.5 				"/>
				<polygon style="fill:#413A65;" points="194,81.6 200.2,92.6 193.7,103.7 181.1,103.8 168.6,81.7 				"/>
				<polygon style="fill:#41376E;" points="193.9,81.8 199.9,92.6 193.6,103.5 181.2,103.6 169,82 				"/>
				<polygon style="fill:#3C3374;" points="193.7,82.1 199.6,92.6 193.5,103.2 181.4,103.3 169.5,82.2 				"/>
				<polygon style="fill:#362A79;" points="193.6,82.3 199.4,92.6 193.3,103 181.5,103.1 169.9,82.5 				"/>
				<polygon style="fill:#2A227E;" points="193.4,82.5 199.1,92.6 193.2,102.8 181.6,102.8 170.3,82.7 				"/>
				<polygon style="fill:#1A1B83;" points="193.3,82.8 198.8,92.6 193,102.5 181.8,102.6 170.7,82.9 				"/>
				<polygon style="fill:#182A8C;" points="192.8,83.6 197.8,92.6 192.5,101.7 182.3,101.7 172.1,83.8 				"/>
				<polygon style="fill:#133A97;" points="192.3,84.5 196.8,92.6 192,100.8 182.8,100.9 173.6,84.6 				"/>
				<polygon style="fill:#0E4CA4;" points="191.8,85.4 195.8,92.6 191.5,99.9 183.3,100 175.1,85.5 				"/>
				<polygon style="fill:#065EB3;" points="191.3,86.3 194.8,92.6 191,99.1 183.8,99.1 176.6,86.3 				"/>
				<polygon style="fill:#0072C2;" points="190.8,87.1 193.8,92.6 190.5,98.2 184.3,98.3 178.1,87.2 				"/>
				<polygon style="fill:#008BD2;" points="190.3,88 192.8,92.5 190,97.4 184.8,97.4 179.5,88.1 				"/>
				<polygon style="fill:#009DE0;" points="189.8,88.9 191.8,92.5 189.5,96.5 185.3,96.5 181,88.9 				"/>
				<polygon style="fill:#00ABEC;" points="189.3,89.7 190.8,92.5 189,95.6 185.8,95.7 182.5,89.8 				"/>
			</g>
			<g>
				<polygon style="fill:#362C2C;" points="160.5,115.8 174.1,115.9 181,104.4 167.4,81 153.7,104.2 				"/>
				<polygon style="fill:#35354A;" points="180.7,104.3 174,115.7 160.6,115.6 154,104.2 167.4,81.5 				"/>
				<polygon style="fill:#3D3A5A;" points="180.5,104.3 173.9,115.4 160.7,115.4 154.2,104.2 167.4,82 				"/>
				<polygon style="fill:#413A65;" points="180.2,104.3 173.7,115.2 160.9,115.1 154.5,104.2 167.4,82.4 				"/>
				<polygon style="fill:#41376E;" points="179.9,104.3 173.6,115 161,114.9 154.8,104.2 167.4,82.9 				"/>
				<polygon style="fill:#3C3374;" points="179.6,104.3 173.5,114.7 161.1,114.7 155.1,104.2 167.4,83.4 				"/>
				<polygon style="fill:#362A79;" points="179.4,104.3 173.3,114.5 161.3,114.4 155.3,104.2 167.4,83.8 				"/>
				<polygon style="fill:#2A227E;" points="179.1,104.3 173.2,114.2 161.4,114.2 155.6,104.2 167.4,84.3 				"/>
				<polygon style="fill:#1A1B83;" points="178.8,104.3 173.1,114 161.5,114 155.9,104.2 167.4,84.8 				"/>
				<polygon style="fill:#182A8C;" points="177.8,104.3 172.6,113.1 162,113.1 156.9,104.2 167.4,86.5 				"/>
				<polygon style="fill:#133A97;" points="176.8,104.3 172.1,112.3 162.5,112.2 157.9,104.2 167.4,88.2 				"/>
				<polygon style="fill:#0E4CA4;" points="175.8,104.3 171.6,111.4 163,111.4 158.9,104.2 167.4,89.9 				"/>
				<polygon style="fill:#065EB3;" points="174.8,104.3 171.1,110.5 163.5,110.5 159.9,104.2 167.4,91.6 				"/>
				<polygon style="fill:#0072C2;" points="173.8,104.3 170.6,109.7 164,109.6 160.9,104.2 167.4,93.3 				"/>
				<polygon style="fill:#008BD2;" points="172.8,104.3 170.1,108.8 164.5,108.8 161.9,104.2 167.4,95 				"/>
				<polygon style="fill:#009DE0;" points="171.8,104.3 169.6,107.9 165,107.9 162.9,104.3 167.4,96.7 				"/>
				<polygon style="fill:#00ABEC;" points="170.8,104.3 169.1,107.1 165.5,107 163.9,104.3 167.4,98.5 				"/>
			</g>
		</g>
	</g>
	<g>
		<g>
			<g>
				<polygon style="fill:#362C2C;" points="100,220.3 113.6,220.4 120.6,208.9 107,185.6 93.2,208.7 				"/>
				<polygon style="fill:#35354A;" points="120.3,208.9 113.5,220.2 100.1,220.1 93.5,208.7 107,186 				"/>
				<polygon style="fill:#3D3A5A;" points="120,208.9 113.4,220 100.3,219.9 93.8,208.7 107,186.5 				"/>
				<polygon style="fill:#413A65;" points="119.7,208.9 113.2,219.7 100.4,219.6 94.1,208.7 107,187 				"/>
				<polygon style="fill:#41376E;" points="119.5,208.9 113.1,219.5 100.5,219.4 94.3,208.7 107,187.4 				"/>
				<polygon style="fill:#3C3374;" points="119.2,208.9 113,219.3 100.7,219.2 94.6,208.7 107,187.9 				"/>
				<polygon style="fill:#362A79;" points="118.9,208.9 112.8,219 100.8,218.9 94.9,208.7 107,188.4 				"/>
				<polygon style="fill:#2A227E;" points="118.6,208.9 112.7,218.8 100.9,218.7 95.2,208.7 107,188.8 				"/>
				<polygon style="fill:#1A1B83;" points="118.4,208.9 112.6,218.5 101.1,218.5 95.4,208.7 107,189.3 				"/>
				<polygon style="fill:#182A8C;" points="117.4,208.9 112.1,217.7 101.6,217.6 96.4,208.7 107,191 				"/>
				<polygon style="fill:#133A97;" points="116.4,208.9 111.6,216.8 102.1,216.7 97.4,208.7 107,192.7 				"/>
				<polygon style="fill:#0E4CA4;" points="115.3,208.9 111.1,215.9 102.6,215.9 98.4,208.7 107,194.4 				"/>
				<polygon style="fill:#065EB3;" points="114.3,208.9 110.6,215.1 103.1,215 99.4,208.7 107,196.1 				"/>
				<polygon style="fill:#0072C2;" points="113.3,208.9 110.1,214.2 103.6,214.1 100.5,208.7 107,197.8 				"/>
				<polygon style="fill:#008BD2;" points="112.3,208.8 109.6,213.3 104.1,213.3 101.5,208.8 106.9,199.6 				"/>
				<polygon style="fill:#009DE0;" points="111.3,208.8 109.2,212.5 104.6,212.4 102.5,208.8 106.9,201.3 				"/>
				<polygon style="fill:#00ABEC;" points="110.3,208.8 108.7,211.6 105.1,211.6 103.5,208.8 106.9,203 				"/>
			</g>
			<g>
				<polygon style="fill:#362C2C;" points="73.5,197.3 80.4,209.1 93.9,209.1 107,185.6 80.1,185.5 				"/>
				<polygon style="fill:#35354A;" points="93.7,208.9 80.6,208.8 73.8,197.3 80.2,185.7 106.6,185.8 				"/>
				<polygon style="fill:#3D3A5A;" points="93.6,208.6 80.7,208.6 74.1,197.3 80.4,186 106.2,186 				"/>
				<polygon style="fill:#413A65;" points="93.5,208.4 80.8,208.3 74.4,197.2 80.5,186.2 105.8,186.3 				"/>
				<polygon style="fill:#41376E;" points="93.3,208.2 81,208.1 74.6,197.2 80.7,186.5 105.4,186.5 				"/>
				<polygon style="fill:#3C3374;" points="93.2,207.9 81.1,207.9 74.9,197.2 80.8,186.7 105,186.7 				"/>
				<polygon style="fill:#362A79;" points="93.1,207.7 81.2,207.6 75.2,197.2 80.9,186.9 104.6,187 				"/>
				<polygon style="fill:#2A227E;" points="92.9,207.5 81.4,207.4 75.4,197.2 81.1,187.2 104.2,187.2 				"/>
				<polygon style="fill:#1A1B83;" points="92.8,207.2 81.5,207.2 75.7,197.2 81.2,187.4 103.8,187.5 				"/>
				<polygon style="fill:#182A8C;" points="92.3,206.3 82,206.3 76.7,197.2 81.7,188.3 102.3,188.3 				"/>
				<polygon style="fill:#133A97;" points="91.8,205.5 82.5,205.4 77.7,197.2 82.2,189.1 100.9,189.2 				"/>
				<polygon style="fill:#0E4CA4;" points="91.3,204.6 83,204.6 78.7,197.2 82.7,190 99.4,190 				"/>
				<polygon style="fill:#065EB3;" points="90.7,203.7 83.5,203.7 79.7,197.2 83.2,190.9 97.9,190.9 				"/>
				<polygon style="fill:#0072C2;" points="90.2,202.9 84,202.8 80.7,197.2 83.7,191.7 96.4,191.8 				"/>
				<polygon style="fill:#008BD2;" points="89.7,202 84.5,202 81.7,197.2 84.3,192.6 95,192.6 				"/>
				<polygon style="fill:#009DE0;" points="89.2,201.1 85,201.1 82.7,197.2 84.8,193.5 93.5,193.5 				"/>
				<polygon style="fill:#00ABEC;" points="88.7,200.3 85.5,200.3 83.7,197.2 85.3,194.3 92,194.4 				"/>
			</g>
			<g>
				<polygon style="fill:#362C2C;" points="80.2,162.3 73.4,174.2 80.1,185.9 107,185.6 93.7,162.2 				"/>
				<polygon style="fill:#35354A;" points="80.2,185.6 73.7,174.2 80.4,162.6 93.5,162.4 106.6,185.3 				"/>
				<polygon style="fill:#3D3A5A;" points="80.3,185.4 74,174.2 80.5,162.8 93.4,162.7 106.2,185.1 				"/>
				<polygon style="fill:#413A65;" points="80.5,185.2 74.2,174.2 80.6,163 93.3,162.9 105.8,184.9 				"/>
				<polygon style="fill:#41376E;" points="80.6,184.9 74.5,174.2 80.8,163.3 93.1,163.1 105.4,184.6 				"/>
				<polygon style="fill:#3C3374;" points="80.8,184.7 74.8,174.2 80.9,163.5 93,163.4 105,184.4 				"/>
				<polygon style="fill:#362A79;" points="80.9,184.5 75.1,174.2 81.1,163.7 92.9,163.6 104.6,184.2 				"/>
				<polygon style="fill:#2A227E;" points="81,184.2 75.3,174.2 81.2,164 92.7,163.8 104.2,183.9 				"/>
				<polygon style="fill:#1A1B83;" points="81.2,184 75.6,174.2 81.3,164.2 92.6,164.1 103.8,183.7 				"/>
				<polygon style="fill:#182A8C;" points="81.7,183.1 76.6,174.2 81.8,165.1 92.1,165 102.3,182.9 				"/>
				<polygon style="fill:#133A97;" points="82.2,182.2 77.6,174.2 82.3,165.9 91.6,165.8 100.8,182 				"/>
				<polygon style="fill:#0E4CA4;" points="82.7,181.4 78.6,174.2 82.8,166.8 91.1,166.7 99.4,181.2 				"/>
				<polygon style="fill:#065EB3;" points="83.2,180.5 79.6,174.2 83.3,167.7 90.6,167.6 97.9,180.3 				"/>
				<polygon style="fill:#0072C2;" points="83.7,179.6 80.6,174.2 83.9,168.5 90.1,168.4 96.4,179.5 				"/>
				<polygon style="fill:#008BD2;" points="84.2,178.7 81.6,174.2 84.4,169.4 89.6,169.3 94.9,178.6 				"/>
				<polygon style="fill:#009DE0;" points="84.7,177.9 82.6,174.2 84.9,170.2 89.1,170.2 93.4,177.8 				"/>
				<polygon style="fill:#00ABEC;" points="85.2,177 83.6,174.2 85.4,171.1 88.6,171.1 91.9,176.9 				"/>
			</g>
			<g>
				<polygon style="fill:#362C2C;" points="113.8,150.7 100.2,150.7 93.3,162.3 107,185.6 120.7,162.3 				"/>
				<polygon style="fill:#35354A;" points="93.6,162.3 100.3,151 113.7,151 120.4,162.3 107,185.1 				"/>
				<polygon style="fill:#3D3A5A;" points="93.9,162.3 100.5,151.2 113.6,151.2 120.1,162.3 107,184.6 				"/>
				<polygon style="fill:#413A65;" points="94.2,162.3 100.6,151.5 113.4,151.5 119.9,162.3 107,184.2 				"/>
				<polygon style="fill:#41376E;" points="94.4,162.3 100.7,151.7 113.3,151.7 119.6,162.3 107,183.7 				"/>
				<polygon style="fill:#3C3374;" points="94.7,162.3 100.9,151.9 113.2,151.9 119.3,162.3 107,183.2 				"/>
				<polygon style="fill:#362A79;" points="95,162.3 101,152.2 113,152.2 119,162.3 107,182.8 				"/>
				<polygon style="fill:#2A227E;" points="95.3,162.3 101.1,152.4 112.9,152.4 118.8,162.3 107,182.3 				"/>
				<polygon style="fill:#1A1B83;" points="95.5,162.3 101.3,152.6 112.8,152.6 118.5,162.3 107,181.8 				"/>
				<polygon style="fill:#182A8C;" points="96.5,162.3 101.8,153.5 112.3,153.5 117.5,162.3 107,180.1 				"/>
				<polygon style="fill:#133A97;" points="97.6,162.3 102.3,154.4 111.8,154.4 116.5,162.3 107,178.4 				"/>
				<polygon style="fill:#0E4CA4;" points="98.6,162.3 102.7,155.2 111.3,155.2 115.5,162.3 107,176.7 				"/>
				<polygon style="fill:#065EB3;" points="99.6,162.3 103.2,156.1 110.8,156.1 114.5,162.3 107,175 				"/>
				<polygon style="fill:#0072C2;" points="100.6,162.3 103.7,157 110.3,157 113.5,162.3 107,173.3 				"/>
				<polygon style="fill:#008BD2;" points="101.6,162.3 104.2,157.8 109.8,157.8 112.5,162.3 107,171.6 				"/>
				<polygon style="fill:#009DE0;" points="102.6,162.3 104.7,158.7 109.3,158.7 111.4,162.3 107,169.9 				"/>
				<polygon style="fill:#00ABEC;" points="103.6,162.3 105.2,159.6 108.8,159.6 110.4,162.3 107,168.2 				"/>
			</g>
			<g>
				<polygon style="fill:#362C2C;" points="140.6,174.1 133.8,162.3 120.4,162.1 107,185.6 134,185.8 				"/>
				<polygon style="fill:#35354A;" points="120.5,162.4 133.7,162.5 140.4,174.1 133.8,185.6 107.4,185.3 				"/>
				<polygon style="fill:#3D3A5A;" points="120.6,162.6 133.6,162.8 140.1,174.1 133.7,185.4 107.8,185.1 				"/>
				<polygon style="fill:#413A65;" points="120.8,162.8 133.4,163 139.8,174.1 133.6,185.1 108.3,184.9 				"/>
				<polygon style="fill:#41376E;" points="120.9,163.1 133.3,163.2 139.5,174.1 133.4,184.9 108.7,184.6 				"/>
				<polygon style="fill:#3C3374;" points="121.1,163.3 133.1,163.5 139.3,174.1 133.3,184.6 109.1,184.4 				"/>
				<polygon style="fill:#362A79;" points="121.2,163.6 133,163.7 139,174.1 133.2,184.4 109.5,184.2 				"/>
				<polygon style="fill:#2A227E;" points="121.3,163.8 132.9,163.9 138.7,174.1 133,184.2 109.9,183.9 				"/>
				<polygon style="fill:#1A1B83;" points="121.5,164 132.7,164.2 138.5,174.1 132.9,183.9 110.3,183.7 				"/>
				<polygon style="fill:#182A8C;" points="122,164.9 132.2,165 137.5,174.1 132.4,183.1 111.8,182.9 				"/>
				<polygon style="fill:#133A97;" points="122.5,165.8 131.7,165.9 136.5,174.1 131.9,182.2 113.2,182 				"/>
				<polygon style="fill:#0E4CA4;" points="123,166.6 131.2,166.7 135.5,174.1 131.4,181.3 114.7,181.2 				"/>
				<polygon style="fill:#065EB3;" points="123.5,167.5 130.7,167.6 134.5,174.1 130.9,180.4 116.2,180.3 				"/>
				<polygon style="fill:#0072C2;" points="124,168.4 130.2,168.5 133.5,174.1 130.4,179.6 117.7,179.4 				"/>
				<polygon style="fill:#008BD2;" points="124.5,169.3 129.7,169.3 132.5,174.1 129.9,178.7 119.2,178.6 				"/>
				<polygon style="fill:#009DE0;" points="125,170.1 129.2,170.2 131.5,174.2 129.4,177.8 120.6,177.7 				"/>
				<polygon style="fill:#00ABEC;" points="125.5,171 128.7,171 130.5,174.2 128.9,177 122.1,176.9 				"/>
			</g>
			<g>
				<polygon style="fill:#362C2C;" points="133.7,209 140.6,197.2 134,185.5 107,185.6 120.2,209.1 				"/>
				<polygon style="fill:#35354A;" points="133.9,185.7 140.3,197.2 133.5,208.8 120.4,208.8 107.4,185.8 				"/>
				<polygon style="fill:#3D3A5A;" points="133.7,185.9 140,197.2 133.4,208.5 120.5,208.6 107.8,186 				"/>
				<polygon style="fill:#413A65;" points="133.6,186.2 139.8,197.2 133.3,208.3 120.6,208.4 108.2,186.3 				"/>
				<polygon style="fill:#41376E;" points="133.5,186.4 139.5,197.2 133.1,208.1 120.8,208.1 108.7,186.5 				"/>
				<polygon style="fill:#3C3374;" points="133.3,186.6 139.2,197.2 133,207.8 120.9,207.9 109.1,186.7 				"/>
				<polygon style="fill:#362A79;" points="133.2,186.9 138.9,197.2 132.9,207.6 121.1,207.6 109.5,187 				"/>
				<polygon style="fill:#2A227E;" points="133,187.1 138.7,197.2 132.7,207.4 121.2,207.4 109.9,187.2 				"/>
				<polygon style="fill:#1A1B83;" points="132.9,187.4 138.4,197.2 132.6,207.1 121.3,207.2 110.3,187.4 				"/>
				<polygon style="fill:#182A8C;" points="132.4,188.2 137.4,197.2 132.1,206.3 121.8,206.3 111.7,188.3 				"/>
				<polygon style="fill:#133A97;" points="131.9,189.1 136.4,197.2 131.6,205.4 122.3,205.4 113.2,189.2 				"/>
				<polygon style="fill:#0E4CA4;" points="131.4,190 135.4,197.2 131.1,204.5 122.8,204.6 114.7,190 				"/>
				<polygon style="fill:#065EB3;" points="130.9,190.8 134.4,197.2 130.6,203.7 123.4,203.7 116.2,190.9 				"/>
				<polygon style="fill:#0072C2;" points="130.4,191.7 133.4,197.1 130.1,202.8 123.9,202.8 117.6,191.8 				"/>
				<polygon style="fill:#008BD2;" points="129.9,192.6 132.4,197.1 129.6,201.9 124.4,202 119.1,192.6 				"/>
				<polygon style="fill:#009DE0;" points="129.4,193.4 131.4,197.1 129.1,201.1 124.9,201.1 120.6,193.5 				"/>
				<polygon style="fill:#00ABEC;" points="128.8,194.3 130.4,197.1 128.6,200.2 125.4,200.2 122.1,194.3 				"/>
			</g>
		</g>
		<g>
			<g>
				<polygon style="fill:#362C2C;" points="100,80.9 113.6,81 120.6,69.5 107,46.2 93.2,69.3 				"/>
				<polygon style="fill:#35354A;" points="120.3,69.5 113.5,80.8 100.1,80.7 93.5,69.3 107,46.6 				"/>
				<polygon style="fill:#3D3A5A;" points="120,69.5 113.4,80.6 100.3,80.5 93.8,69.3 107,47.1 				"/>
				<polygon style="fill:#413A65;" points="119.7,69.5 113.2,80.3 100.4,80.2 94.1,69.3 107,47.6 				"/>
				<polygon style="fill:#41376E;" points="119.5,69.5 113.1,80.1 100.5,80 94.3,69.3 107,48 				"/>
				<polygon style="fill:#3C3374;" points="119.2,69.5 113,79.9 100.7,79.8 94.6,69.3 107,48.5 				"/>
				<polygon style="fill:#362A79;" points="118.9,69.5 112.8,79.6 100.8,79.5 94.9,69.3 107,49 				"/>
				<polygon style="fill:#2A227E;" points="118.6,69.5 112.7,79.4 100.9,79.3 95.2,69.3 107,49.4 				"/>
				<polygon style="fill:#1A1B83;" points="118.4,69.5 112.6,79.1 101.1,79.1 95.4,69.3 107,49.9 				"/>
				<polygon style="fill:#182A8C;" points="117.4,69.5 112.1,78.3 101.6,78.2 96.4,69.3 107,51.6 				"/>
				<polygon style="fill:#133A97;" points="116.4,69.5 111.6,77.4 102.1,77.3 97.4,69.3 107,53.3 				"/>
				<polygon style="fill:#0E4CA4;" points="115.3,69.5 111.1,76.5 102.6,76.5 98.4,69.3 107,55 				"/>
				<polygon style="fill:#065EB3;" points="114.3,69.5 110.6,75.7 103.1,75.6 99.4,69.3 107,56.7 				"/>
				<polygon style="fill:#0072C2;" points="113.3,69.4 110.1,74.8 103.6,74.7 100.5,69.3 107,58.4 				"/>
				<polygon style="fill:#008BD2;" points="112.3,69.4 109.6,73.9 104.1,73.9 101.5,69.3 106.9,60.1 				"/>
				<polygon style="fill:#009DE0;" points="111.3,69.4 109.2,73.1 104.6,73 102.5,69.4 106.9,61.9 				"/>
				<polygon style="fill:#00ABEC;" points="110.3,69.4 108.7,72.2 105.1,72.2 103.5,69.4 106.9,63.6 				"/>
			</g>
			<g>
				<polygon style="fill:#362C2C;" points="73.5,57.9 80.4,69.7 93.9,69.7 107,46.2 80.1,46.1 				"/>
				<polygon style="fill:#35354A;" points="93.7,69.5 80.6,69.4 73.8,57.8 80.2,46.3 106.6,46.4 				"/>
				<polygon style="fill:#3D3A5A;" points="93.6,69.2 80.7,69.2 74.1,57.8 80.4,46.6 106.2,46.6 				"/>
				<polygon style="fill:#413A65;" points="93.5,69 80.8,68.9 74.4,57.8 80.5,46.8 105.8,46.9 				"/>
				<polygon style="fill:#41376E;" points="93.3,68.8 81,68.7 74.6,57.8 80.7,47.1 105.4,47.1 				"/>
				<polygon style="fill:#3C3374;" points="93.2,68.5 81.1,68.5 74.9,57.8 80.8,47.3 105,47.3 				"/>
				<polygon style="fill:#362A79;" points="93.1,68.3 81.2,68.2 75.2,57.8 80.9,47.5 104.6,47.6 				"/>
				<polygon style="fill:#2A227E;" points="92.9,68 81.4,68 75.4,57.8 81.1,47.8 104.2,47.8 				"/>
				<polygon style="fill:#1A1B83;" points="92.8,67.8 81.5,67.8 75.7,57.8 81.2,48 103.8,48 				"/>
				<polygon style="fill:#182A8C;" points="92.3,66.9 82,66.9 76.7,57.8 81.7,48.9 102.3,48.9 				"/>
				<polygon style="fill:#133A97;" points="91.8,66.1 82.5,66 77.7,57.8 82.2,49.7 100.9,49.8 				"/>
				<polygon style="fill:#0E4CA4;" points="91.3,65.2 83,65.2 78.7,57.8 82.7,50.6 99.4,50.6 				"/>
				<polygon style="fill:#065EB3;" points="90.7,64.3 83.5,64.3 79.7,57.8 83.2,51.5 97.9,51.5 				"/>
				<polygon style="fill:#0072C2;" points="90.2,63.5 84,63.4 80.7,57.8 83.7,52.3 96.4,52.4 				"/>
				<polygon style="fill:#008BD2;" points="89.7,62.6 84.5,62.6 81.7,57.8 84.3,53.2 95,53.2 				"/>
				<polygon style="fill:#009DE0;" points="89.2,61.7 85,61.7 82.7,57.8 84.8,54.1 93.5,54.1 				"/>
				<polygon style="fill:#00ABEC;" points="88.7,60.9 85.5,60.9 83.7,57.8 85.3,54.9 92,55 				"/>
			</g>
			<g>
				<polygon style="fill:#362C2C;" points="80.2,22.9 73.4,34.8 80.1,46.5 107,46.2 93.7,22.8 				"/>
				<polygon style="fill:#35354A;" points="80.2,46.2 73.7,34.8 80.4,23.2 93.5,23 106.6,45.9 				"/>
				<polygon style="fill:#3D3A5A;" points="80.3,46 74,34.8 80.5,23.4 93.4,23.2 106.2,45.7 				"/>
				<polygon style="fill:#413A65;" points="80.5,45.8 74.2,34.8 80.6,23.6 93.3,23.5 105.8,45.5 				"/>
				<polygon style="fill:#41376E;" points="80.6,45.5 74.5,34.8 80.8,23.9 93.1,23.7 105.4,45.2 				"/>
				<polygon style="fill:#3C3374;" points="80.8,45.3 74.8,34.8 80.9,24.1 93,24 105,45 				"/>
				<polygon style="fill:#362A79;" points="80.9,45 75.1,34.8 81.1,24.3 92.9,24.2 104.6,44.8 				"/>
				<polygon style="fill:#2A227E;" points="81,44.8 75.3,34.8 81.2,24.6 92.7,24.4 104.2,44.5 				"/>
				<polygon style="fill:#1A1B83;" points="81.2,44.6 75.6,34.8 81.3,24.8 92.6,24.7 103.8,44.3 				"/>
				<polygon style="fill:#182A8C;" points="81.7,43.7 76.6,34.8 81.8,25.7 92.1,25.5 102.3,43.5 				"/>
				<polygon style="fill:#133A97;" points="82.2,42.8 77.6,34.8 82.3,26.5 91.6,26.4 100.8,42.6 				"/>
				<polygon style="fill:#0E4CA4;" points="82.7,42 78.6,34.8 82.8,27.4 91.1,27.3 99.4,41.8 				"/>
				<polygon style="fill:#065EB3;" points="83.2,41.1 79.6,34.8 83.3,28.2 90.6,28.2 97.9,40.9 				"/>
				<polygon style="fill:#0072C2;" points="83.7,40.2 80.6,34.8 83.9,29.1 90.1,29 96.4,40.1 				"/>
				<polygon style="fill:#008BD2;" points="84.2,39.3 81.6,34.8 84.4,30 89.6,29.9 94.9,39.2 				"/>
				<polygon style="fill:#009DE0;" points="84.7,38.5 82.6,34.8 84.9,30.8 89.1,30.8 93.4,38.4 				"/>
				<polygon style="fill:#00ABEC;" points="85.2,37.6 83.6,34.8 85.4,31.7 88.6,31.7 91.9,37.5 				"/>
			</g>
			<g>
				<polygon style="fill:#362C2C;" points="113.8,11.3 100.2,11.3 93.3,22.9 107,46.2 120.7,22.9 				"/>
				<polygon style="fill:#35354A;" points="93.6,22.9 100.3,11.6 113.7,11.6 120.4,22.9 107,45.7 				"/>
				<polygon style="fill:#3D3A5A;" points="93.9,22.9 100.5,11.8 113.6,11.8 120.1,22.9 107,45.2 				"/>
				<polygon style="fill:#413A65;" points="94.2,22.9 100.6,12 113.4,12 119.9,22.9 107,44.8 				"/>
				<polygon style="fill:#41376E;" points="94.4,22.9 100.7,12.3 113.3,12.3 119.6,22.9 107,44.3 				"/>
				<polygon style="fill:#3C3374;" points="94.7,22.9 100.9,12.5 113.2,12.5 119.3,22.9 107,43.8 				"/>
				<polygon style="fill:#362A79;" points="95,22.9 101,12.8 113,12.8 119,22.9 107,43.4 				"/>
				<polygon style="fill:#2A227E;" points="95.3,22.9 101.1,13 112.9,13 118.8,22.9 107,42.9 				"/>
				<polygon style="fill:#1A1B83;" points="95.5,22.9 101.3,13.2 112.8,13.2 118.5,22.9 107,42.4 				"/>
				<polygon style="fill:#182A8C;" points="96.5,22.9 101.8,14.1 112.3,14.1 117.5,22.9 107,40.7 				"/>
				<polygon style="fill:#133A97;" points="97.6,22.9 102.3,15 111.8,15 116.5,22.9 107,39 				"/>
				<polygon style="fill:#0E4CA4;" points="98.6,22.9 102.7,15.8 111.3,15.8 115.5,22.9 107,37.3 				"/>
				<polygon style="fill:#065EB3;" points="99.6,22.9 103.2,16.7 110.8,16.7 114.5,22.9 107,35.6 				"/>
				<polygon style="fill:#0072C2;" points="100.6,22.9 103.7,17.6 110.3,17.6 113.5,22.9 107,33.9 				"/>
				<polygon style="fill:#008BD2;" points="101.6,22.9 104.2,18.4 109.8,18.4 112.5,22.9 107,32.2 				"/>
				<polygon style="fill:#009DE0;" points="102.6,22.9 104.7,19.3 109.3,19.3 111.4,22.9 107,30.5 				"/>
				<polygon style="fill:#00ABEC;" points="103.6,22.9 105.2,20.2 108.8,20.2 110.4,22.9 107,28.8 				"/>
			</g>
			<g>
				<polygon style="fill:#362C2C;" points="140.6,34.7 133.8,22.9 120.4,22.7 107,46.2 134,46.4 				"/>
				<polygon style="fill:#35354A;" points="120.5,23 133.7,23.1 140.4,34.7 133.8,46.2 107.4,45.9 				"/>
				<polygon style="fill:#3D3A5A;" points="120.6,23.2 133.6,23.3 140.1,34.7 133.7,46 107.8,45.7 				"/>
				<polygon style="fill:#413A65;" points="120.8,23.4 133.4,23.6 139.8,34.7 133.6,45.7 108.3,45.5 				"/>
				<polygon style="fill:#41376E;" points="120.9,23.7 133.3,23.8 139.5,34.7 133.4,45.5 108.7,45.2 				"/>
				<polygon style="fill:#3C3374;" points="121.1,23.9 133.1,24.1 139.3,34.7 133.3,45.2 109.1,45 				"/>
				<polygon style="fill:#362A79;" points="121.2,24.2 133,24.3 139,34.7 133.2,45 109.5,44.8 				"/>
				<polygon style="fill:#2A227E;" points="121.3,24.4 132.9,24.5 138.7,34.7 133,44.8 109.9,44.5 				"/>
				<polygon style="fill:#1A1B83;" points="121.5,24.6 132.7,24.8 138.5,34.7 132.9,44.5 110.3,44.3 				"/>
				<polygon style="fill:#182A8C;" points="122,25.5 132.2,25.6 137.5,34.7 132.4,43.7 111.8,43.5 				"/>
				<polygon style="fill:#133A97;" points="122.5,26.4 131.7,26.5 136.5,34.7 131.9,42.8 113.2,42.6 				"/>
				<polygon style="fill:#0E4CA4;" points="123,27.2 131.2,27.3 135.5,34.7 131.4,41.9 114.7,41.7 				"/>
				<polygon style="fill:#065EB3;" points="123.5,28.1 130.7,28.2 134.5,34.7 130.9,41 116.2,40.9 				"/>
				<polygon style="fill:#0072C2;" points="124,29 130.2,29.1 133.5,34.7 130.4,40.2 117.7,40 				"/>
				<polygon style="fill:#008BD2;" points="124.5,29.9 129.7,29.9 132.5,34.7 129.9,39.3 119.2,39.2 				"/>
				<polygon style="fill:#009DE0;" points="125,30.7 129.2,30.8 131.5,34.7 129.4,38.4 120.6,38.3 				"/>
				<polygon style="fill:#00ABEC;" points="125.5,31.6 128.7,31.6 130.5,34.7 128.9,37.6 122.1,37.5 				"/>
			</g>
			<g>
				<polygon style="fill:#362C2C;" points="133.7,69.6 140.6,57.8 134,46.1 107,46.2 120.2,69.7 				"/>
				<polygon style="fill:#35354A;" points="133.9,46.3 140.3,57.8 133.5,69.4 120.4,69.4 107.4,46.4 				"/>
				<polygon style="fill:#3D3A5A;" points="133.7,46.5 140,57.8 133.4,69.1 120.5,69.2 107.8,46.6 				"/>
				<polygon style="fill:#413A65;" points="133.6,46.8 139.8,57.8 133.3,68.9 120.6,68.9 108.2,46.9 				"/>
				<polygon style="fill:#41376E;" points="133.5,47 139.5,57.8 133.1,68.7 120.8,68.7 108.7,47.1 				"/>
				<polygon style="fill:#3C3374;" points="133.3,47.2 139.2,57.8 133,68.4 120.9,68.5 109.1,47.3 				"/>
				<polygon style="fill:#362A79;" points="133.2,47.5 138.9,57.8 132.9,68.2 121.1,68.2 109.5,47.6 				"/>
				<polygon style="fill:#2A227E;" points="133,47.7 138.7,57.8 132.7,68 121.2,68 109.9,47.8 				"/>
				<polygon style="fill:#1A1B83;" points="132.9,48 138.4,57.8 132.6,67.7 121.3,67.8 110.3,48 				"/>
				<polygon style="fill:#182A8C;" points="132.4,48.8 137.4,57.8 132.1,66.9 121.8,66.9 111.7,48.9 				"/>
				<polygon style="fill:#133A97;" points="131.9,49.7 136.4,57.8 131.6,66 122.3,66 113.2,49.8 				"/>
				<polygon style="fill:#0E4CA4;" points="131.4,50.6 135.4,57.8 131.1,65.1 122.8,65.2 114.7,50.6 				"/>
				<polygon style="fill:#065EB3;" points="130.9,51.4 134.4,57.7 130.6,64.3 123.4,64.3 116.2,51.5 				"/>
				<polygon style="fill:#0072C2;" points="130.4,52.3 133.4,57.7 130.1,63.4 123.9,63.4 117.6,52.3 				"/>
				<polygon style="fill:#008BD2;" points="129.9,53.2 132.4,57.7 129.6,62.5 124.4,62.6 119.1,53.2 				"/>
				<polygon style="fill:#009DE0;" points="129.4,54 131.4,57.7 129.1,61.7 124.9,61.7 120.6,54.1 				"/>
				<polygon style="fill:#00ABEC;" points="128.8,54.9 130.4,57.7 128.6,60.8 125.4,60.8 122.1,54.9 				"/>
			</g>
		</g>
	</g>
	<g>
		<g>
			<polygon style="fill:#362C2C;" points="113.9,81 100.2,81 93.4,92.6 107.1,115.9 120.7,92.6 			"/>
			<polygon style="fill:#354844;" points="93.7,92.6 100.4,81.3 113.8,81.3 120.5,92.6 107.1,115.4 			"/>
			<polygon style="fill:#3D5849;" points="94,92.6 100.5,81.5 113.6,81.5 120.2,92.6 107.1,114.9 			"/>
			<polygon style="fill:#406649;" points="94.2,92.6 100.6,81.7 113.5,81.7 119.9,92.6 107.1,114.5 			"/>
			<polygon style="fill:#427147;" points="94.5,92.6 100.8,82 113.4,82 119.6,92.6 107.1,114 			"/>
			<polygon style="fill:#3D7A46;" points="94.8,92.6 100.9,82.2 113.2,82.2 119.4,92.6 107.1,113.5 			"/>
			<polygon style="fill:#348241;" points="95.1,92.6 101,82.5 113.1,82.5 119.1,92.6 107.1,113.1 			"/>
			<polygon style="fill:#26873E;" points="95.3,92.6 101.2,82.7 113,82.7 118.8,92.6 107.1,112.6 			"/>
			<polygon style="fill:#0D8B3D;" points="95.6,92.6 101.3,82.9 112.8,82.9 118.5,92.6 107.1,112.1 			"/>
			<polygon style="fill:#239337;" points="96.6,92.6 101.8,83.8 112.3,83.8 117.5,92.6 107.1,110.4 			"/>
			<polygon style="fill:#389C30;" points="97.6,92.6 102.3,84.7 111.8,84.7 116.5,92.6 107.1,108.7 			"/>
			<polygon style="fill:#4FA62F;" points="98.6,92.6 102.8,85.5 111.3,85.5 115.5,92.6 107.1,107 			"/>
			<polygon style="fill:#66B12D;" points="99.6,92.6 103.3,86.4 110.8,86.4 114.5,92.6 107.1,105.3 			"/>
			<polygon style="fill:#7EBB29;" points="100.6,92.6 103.8,87.3 110.3,87.3 113.5,92.6 107.1,103.6 			"/>
			<polygon style="fill:#94C626;" points="101.6,92.6 104.3,88.1 109.9,88.1 112.5,92.6 107.1,101.9 			"/>
			<polygon style="fill:#ADD221;" points="102.6,92.6 104.8,89 109.4,89 111.5,92.6 107.1,100.2 			"/>
			<polygon style="fill:#C2DC1C;" points="103.6,92.6 105.3,89.9 108.9,89.9 110.5,92.6 107.1,98.5 			"/>
		</g>
		<g>
			<polygon style="fill:#362C2C;" points="140.5,103.9 133.5,92.2 120.1,92.2 107.1,115.9 134,115.7 			"/>
			<polygon style="fill:#354844;" points="120.2,92.5 133.4,92.4 140.2,103.9 133.9,115.5 107.5,115.6 			"/>
			<polygon style="fill:#3D5849;" points="120.4,92.7 133.3,92.7 140,103.9 133.8,115.3 107.9,115.4 			"/>
			<polygon style="fill:#406649;" points="120.5,92.9 133.1,92.9 139.7,103.9 133.6,115 108.3,115.2 			"/>
			<polygon style="fill:#427147;" points="120.6,93.2 133,93.1 139.4,103.9 133.5,114.8 108.7,114.9 			"/>
			<polygon style="fill:#3D7A46;" points="120.8,93.4 132.9,93.4 139.2,104 133.3,114.5 109.1,114.7 			"/>
			<polygon style="fill:#348241;" points="120.9,93.6 132.7,93.6 138.9,104 133.2,114.3 109.5,114.4 			"/>
			<polygon style="fill:#26873E;" points="121.1,93.9 132.6,93.8 138.6,104 133.1,114.1 109.9,114.2 			"/>
			<polygon style="fill:#0D8B3D;" points="121.2,94.1 132.5,94.1 138.3,104 132.9,113.8 110.3,114 			"/>
			<polygon style="fill:#239337;" points="121.7,95 132,94.9 137.3,104 132.4,113 111.8,113.1 			"/>
			<polygon style="fill:#389C30;" points="122.2,95.8 131.5,95.8 136.3,104 131.9,112.1 113.2,112.2 			"/>
			<polygon style="fill:#4FA62F;" points="122.7,96.7 131,96.7 135.3,104 131.4,111.2 114.7,111.3 			"/>
			<polygon style="fill:#66B12D;" points="123.3,97.6 130.5,97.5 134.3,104 130.9,110.4 116.2,110.5 			"/>
			<polygon style="fill:#7EBB29;" points="123.8,98.4 130,98.4 133.3,104.1 130.3,109.5 117.6,109.6 			"/>
			<polygon style="fill:#94C626;" points="124.3,99.3 129.5,99.3 132.3,104.1 129.8,108.7 119.1,108.7 			"/>
			<polygon style="fill:#ADD221;" points="124.8,100.2 129,100.2 131.4,104.1 129.3,107.8 120.6,107.8 			"/>
			<polygon style="fill:#C2DC1C;" points="125.3,101 128.5,101 130.4,104.1 128.8,106.9 122.1,107 			"/>
		</g>
		<g>
			<polygon style="fill:#362C2C;" points="134.1,138.9 140.8,127 134.1,115.4 107.1,115.9 120.6,139.2 			"/>
			<polygon style="fill:#354844;" points="133.9,115.6 140.5,127 133.9,138.7 120.8,138.9 107.5,116.1 			"/>
			<polygon style="fill:#3D5849;" points="133.8,115.8 140.3,127 133.8,138.4 120.9,138.7 107.9,116.3 			"/>
			<polygon style="fill:#406649;" points="133.7,116.1 140,127 133.7,138.2 121,138.4 108.3,116.6 			"/>
			<polygon style="fill:#427147;" points="133.5,116.3 139.7,127 133.5,138 121.2,138.2 108.7,116.8 			"/>
			<polygon style="fill:#3D7A46;" points="133.4,116.6 139.4,127 133.4,137.7 121.3,138 109.1,117 			"/>
			<polygon style="fill:#348241;" points="133.3,116.8 139.2,127 133.3,137.5 121.4,137.7 109.5,117.2 			"/>
			<polygon style="fill:#26873E;" points="133.1,117 138.9,127 133.1,137.3 121.6,137.5 109.9,117.5 			"/>
			<polygon style="fill:#0D8B3D;" points="133,117.3 138.6,127 133,137 121.7,137.2 110.3,117.7 			"/>
			<polygon style="fill:#239337;" points="132.5,118.1 137.6,127 132.5,136.2 122.2,136.4 111.8,118.5 			"/>
			<polygon style="fill:#389C30;" points="132,119 136.6,127 131.9,135.3 122.7,135.5 113.3,119.4 			"/>
			<polygon style="fill:#4FA62F;" points="131.5,119.9 135.6,127 131.4,134.5 123.2,134.6 114.8,120.2 			"/>
			<polygon style="fill:#66B12D;" points="131,120.8 134.6,127 130.9,133.6 123.7,133.7 116.3,121 			"/>
			<polygon style="fill:#7EBB29;" points="130.5,121.6 133.6,127 130.4,132.8 124.2,132.9 117.8,121.9 			"/>
			<polygon style="fill:#94C626;" points="130,122.5 132.6,127 129.9,131.9 124.7,132 119.3,122.7 			"/>
			<polygon style="fill:#ADD221;" points="129.5,123.4 131.6,127.1 129.4,131 125.2,131.1 120.8,123.6 			"/>
			<polygon style="fill:#C2DC1C;" points="129,124.3 130.6,127.1 128.9,130.2 125.7,130.2 122.3,124.4 			"/>
		</g>
		<g>
			<polygon style="fill:#362C2C;" points="100.6,150.7 114.2,150.6 121,139 107.1,115.9 93.6,139.2 			"/>
			<polygon style="fill:#354844;" points="120.7,139 114.1,150.4 100.7,150.5 93.9,139.2 107.1,116.3 			"/>
			<polygon style="fill:#3D5849;" points="120.4,139 113.9,150.2 100.8,150.3 94.2,139.2 107.1,116.8 			"/>
			<polygon style="fill:#406649;" points="120.1,139 113.8,149.9 101,150 94.5,139.2 107.1,117.3 			"/>
			<polygon style="fill:#427147;" points="119.9,139 113.7,149.7 101.1,149.8 94.7,139.2 107.1,117.7 			"/>
			<polygon style="fill:#3D7A46;" points="119.6,139 113.5,149.5 101.2,149.6 95,139.2 107.1,118.2 			"/>
			<polygon style="fill:#348241;" points="119.3,139 113.4,149.2 101.4,149.3 95.3,139.2 107.1,118.7 			"/>
			<polygon style="fill:#26873E;" points="119,139 113.3,149 101.5,149.1 95.6,139.2 107.1,119.1 			"/>
			<polygon style="fill:#0D8B3D;" points="118.8,139 113.1,148.8 101.6,148.8 95.8,139.2 107.1,119.6 			"/>
			<polygon style="fill:#239337;" points="117.8,139 112.6,147.9 102.1,148 96.8,139.2 107.1,121.3 			"/>
			<polygon style="fill:#389C30;" points="116.8,139 112.1,147 102.6,147.1 97.8,139.2 107.2,123 			"/>
			<polygon style="fill:#4FA62F;" points="115.8,139 111.6,146.2 103.1,146.2 98.8,139.2 107.2,124.7 			"/>
			<polygon style="fill:#66B12D;" points="114.7,139 111.1,145.3 103.6,145.4 99.8,139.1 107.2,126.4 			"/>
			<polygon style="fill:#7EBB29;" points="113.7,139.1 110.6,144.4 104.1,144.5 100.9,139.1 107.2,128.1 			"/>
			<polygon style="fill:#94C626;" points="112.7,139.1 110.1,143.6 104.6,143.6 101.9,139.1 107.2,129.9 			"/>
			<polygon style="fill:#ADD221;" points="111.7,139.1 109.6,142.7 105,142.8 102.9,139.1 107.2,131.6 			"/>
			<polygon style="fill:#C2DC1C;" points="110.7,139.1 109.1,141.9 105.5,141.9 103.9,139.1 107.2,133.3 			"/>
		</g>
		<g>
			<polygon style="fill:#362C2C;" points="73.6,127.6 80.5,139.4 93.9,139.4 107.1,115.9 80.2,115.8 			"/>
			<polygon style="fill:#354844;" points="93.8,139.2 80.6,139.1 73.9,127.6 80.3,116 106.7,116.1 			"/>
			<polygon style="fill:#3D5849;" points="93.7,138.9 80.8,138.9 74.1,127.5 80.4,116.3 106.3,116.3 			"/>
			<polygon style="fill:#406649;" points="93.5,138.7 80.9,138.6 74.4,127.5 80.6,116.5 105.9,116.6 			"/>
			<polygon style="fill:#427147;" points="93.4,138.5 81,138.4 74.7,127.5 80.7,116.8 105.5,116.8 			"/>
			<polygon style="fill:#3D7A46;" points="93.2,138.2 81.2,138.2 75,127.5 80.9,117 105.1,117 			"/>
			<polygon style="fill:#348241;" points="93.1,138 81.3,137.9 75.2,127.5 81,117.2 104.7,117.3 			"/>
			<polygon style="fill:#26873E;" points="93,137.7 81.4,137.7 75.5,127.5 81.1,117.5 104.3,117.5 			"/>
			<polygon style="fill:#0D8B3D;" points="92.8,137.5 81.6,137.5 75.8,127.5 81.3,117.7 103.9,117.8 			"/>
			<polygon style="fill:#239337;" points="92.3,136.6 82.1,136.6 76.8,127.5 81.8,118.6 102.4,118.6 			"/>
			<polygon style="fill:#389C30;" points="91.8,135.8 82.6,135.7 77.8,127.5 82.3,119.4 100.9,119.5 			"/>
			<polygon style="fill:#4FA62F;" points="91.3,134.9 83.1,134.9 78.8,127.5 82.8,120.3 99.5,120.3 			"/>
			<polygon style="fill:#66B12D;" points="90.8,134 83.6,134 79.8,127.5 83.3,121.2 98,121.2 			"/>
			<polygon style="fill:#7EBB29;" points="90.3,133.2 84.1,133.1 80.8,127.5 83.8,122 96.5,122.1 			"/>
			<polygon style="fill:#94C626;" points="89.8,132.3 84.6,132.3 81.8,127.5 84.3,122.9 95,122.9 			"/>
			<polygon style="fill:#ADD221;" points="89.3,131.4 85.1,131.4 82.8,127.5 84.8,123.8 93.6,123.8 			"/>
			<polygon style="fill:#C2DC1C;" points="88.8,130.6 85.6,130.6 83.8,127.5 85.3,124.6 92.1,124.7 			"/>
		</g>
		<g>
			<polygon style="fill:#362C2C;" points="80.3,92.6 73.5,104.5 80.1,116.2 107.1,115.9 93.7,92.5 			"/>
			<polygon style="fill:#354844;" points="80.3,115.9 73.8,104.5 80.4,92.9 93.6,92.7 106.7,115.6 			"/>
			<polygon style="fill:#3D5849;" points="80.4,115.7 74,104.5 80.6,93.1 93.5,92.9 106.3,115.4 			"/>
			<polygon style="fill:#406649;" points="80.5,115.5 74.3,104.5 80.7,93.3 93.3,93.2 105.9,115.2 			"/>
			<polygon style="fill:#427147;" points="80.7,115.2 74.6,104.5 80.8,93.6 93.2,93.4 105.5,114.9 			"/>
			<polygon style="fill:#3D7A46;" points="80.8,115 74.8,104.5 81,93.8 93.1,93.7 105.1,114.7 			"/>
			<polygon style="fill:#348241;" points="81,114.7 75.1,104.5 81.1,94 92.9,93.9 104.7,114.5 			"/>
			<polygon style="fill:#26873E;" points="81.1,114.5 75.4,104.5 81.2,94.3 92.8,94.1 104.3,114.2 			"/>
			<polygon style="fill:#0D8B3D;" points="81.2,114.3 75.7,104.5 81.4,94.5 92.6,94.4 103.9,114 			"/>
			<polygon style="fill:#239337;" points="81.7,113.4 76.7,104.5 81.9,95.4 92.1,95.2 102.4,113.2 			"/>
			<polygon style="fill:#389C30;" points="82.2,112.5 77.7,104.5 82.4,96.2 91.6,96.1 100.9,112.3 			"/>
			<polygon style="fill:#4FA62F;" points="82.7,111.7 78.6,104.5 82.9,97.1 91.1,97 99.4,111.5 			"/>
			<polygon style="fill:#66B12D;" points="83.2,110.8 79.6,104.5 83.4,97.9 90.6,97.9 97.9,110.6 			"/>
			<polygon style="fill:#7EBB29;" points="83.7,109.9 80.6,104.5 83.9,98.8 90.1,98.7 96.4,109.8 			"/>
			<polygon style="fill:#94C626;" points="84.2,109 81.6,104.5 84.4,99.7 89.6,99.6 95,108.9 			"/>
			<polygon style="fill:#ADD221;" points="84.7,108.2 82.6,104.5 84.9,100.5 89.1,100.5 93.5,108.1 			"/>
			<polygon style="fill:#C2DC1C;" points="85.2,107.3 83.6,104.5 85.4,101.4 88.6,101.4 92,107.2 			"/>
		</g>
	</g>
</g>
</svg>
