<?xml version="1.0" encoding="utf-8"?>
<!-- Generator: Adobe Illustrator 24.2.1, SVG Export Plug-In . SVG Version: 6.00 Build 0)  -->
<svg version="1.0" id="Layer_1" xmlns="http://www.w3.org/2000/svg" xmlns:xlink="http://www.w3.org/1999/xlink" x="0px" y="0px"
	 viewBox="0 0 30 30" style="enable-background:new 0 0 30 30;" xml:space="preserve">
<path style="fill:#FFD800;" d="M26,7.1c-0.1-0.3-0.4-0.5-0.7-0.4l-5.4,1.6l-0.6,0.9l-0.8-4.7c-0.1-0.3-0.4-0.5-0.7-0.5
	c-0.3,0.1-0.5,0.4-0.5,0.7l0.9,5.6c0,0.1,0,0.1,0.1,0.2l-1.4,1.9h-3.7l-1.4-1.9c0-0.1,0.1-0.1,0.1-0.2l0.9-5.6
	c0.1-0.3-0.2-0.6-0.5-0.7c-0.3-0.1-0.6,0.2-0.7,0.5l-0.8,4.7l-0.6-0.9L4.8,6.7C4.4,6.6,4.1,6.7,4,7.1C3.9,7.4,4.1,7.7,4.4,7.8l5,1.5
	l2.2,3.1h-1.3v0.5l-5.3-1l0.7,3h4.6v6.3l2.5,4.9h4.7l2.2-4.9v-6.3h4.9l0.7-3L19.8,13v-0.6h-1.5l2.2-3.1l5-1.5
	C25.9,7.7,26.1,7.4,26,7.1z"/>
</svg>
