<?xml version="1.0" encoding="utf-8"?>
<!-- Generator: Adobe Illustrator 24.2.1, SVG Export Plug-In . SVG Version: 6.00 Build 0)  -->
<svg version="1.0" id="Layer_1" xmlns="http://www.w3.org/2000/svg" xmlns:xlink="http://www.w3.org/1999/xlink" x="0px" y="0px"
	 viewBox="0 0 30 30" style="enable-background:new 0 0 30 30;" xml:space="preserve">
<g>
	<g>
		<polygon style="fill:#292929;" points="17.3,3.2 12.7,3.2 10.3,7.1 15,15 19.6,7.1 		"/>
		<polygon style="fill:#373B3A;" points="10.4,7.1 12.7,3.3 17.2,3.3 19.5,7.1 15,14.8 		"/>
		<polygon style="fill:#424B46;" points="10.5,7.1 12.7,3.3 17.2,3.3 19.4,7.1 15,14.7 		"/>
		<polygon style="fill:#49594D;" points="10.6,7.1 12.8,3.4 17.2,3.4 19.3,7.1 15,14.5 		"/>
		<polygon style="fill:#4D6450;" points="10.7,7.1 12.8,3.5 17.1,3.5 19.2,7.1 15,14.4 		"/>
		<polygon style="fill:#4B6D50;" points="10.8,7.1 12.9,3.6 17.1,3.6 19.1,7.1 15,14.2 		"/>
		<polygon style="fill:#45754D;" points="10.9,7.1 12.9,3.7 17,3.7 19.1,7.1 15,14 		"/>
		<polygon style="fill:#397A49;" points="11,7.1 13,3.7 17,3.7 19,7.1 15,13.9 		"/>
		<polygon style="fill:#237E46;" points="11.1,7.1 13,3.8 16.9,3.8 18.9,7.1 15,13.7 		"/>
		<polygon style="fill:#398647;" points="11.4,7.1 13.2,4.1 16.8,4.1 18.5,7.1 15,13.1 		"/>
		<polygon style="fill:#4C8F47;" points="11.8,7.1 13.4,4.4 16.6,4.4 18.2,7.1 15,12.6 		"/>
		<polygon style="fill:#5E9948;" points="12.1,7.1 13.5,4.7 16.4,4.7 17.8,7.1 15,12 		"/>
		<polygon style="fill:#70A448;" points="12.4,7.1 13.7,5 16.3,5 17.5,7.1 15,11.4 		"/>
		<polygon style="fill:#83AE47;" points="12.8,7.1 13.9,5.3 16.1,5.3 17.2,7.1 15,10.8 		"/>
		<polygon style="fill:#95B946;" points="13.1,7.1 14,5.6 15.9,5.6 16.8,7.1 15,10.2 		"/>
		<polygon style="fill:#AAC545;" points="13.5,7.1 14.2,5.9 15.8,5.9 16.5,7.1 15,9.7 		"/>
		<polygon style="fill:#BED142;" points="13.8,7.1 14.4,6.2 15.6,6.2 16.1,7.1 15,9.1 		"/>
	</g>
	<g>
		<polygon style="fill:#292929;" points="26.3,10.9 24,7 19.4,7 15,15 24.1,14.9 		"/>
		<polygon style="fill:#373B3A;" points="19.4,7 23.9,7 26.2,10.9 24.1,14.9 15.1,14.9 		"/>
		<polygon style="fill:#424B46;" points="19.5,7.1 23.9,7.1 26.1,10.9 24,14.8 15.3,14.8 		"/>
		<polygon style="fill:#49594D;" points="19.5,7.2 23.8,7.2 26,10.9 24,14.7 15.4,14.7 		"/>
		<polygon style="fill:#4D6450;" points="19.6,7.3 23.8,7.3 26,10.9 23.9,14.6 15.5,14.7 		"/>
		<polygon style="fill:#4B6D50;" points="19.6,7.4 23.7,7.4 25.9,10.9 23.9,14.5 15.7,14.6 		"/>
		<polygon style="fill:#45754D;" points="19.7,7.4 23.7,7.4 25.8,10.9 23.8,14.5 15.8,14.5 		"/>
		<polygon style="fill:#397A49;" points="19.7,7.5 23.6,7.5 25.7,11 23.8,14.4 15.9,14.4 		"/>
		<polygon style="fill:#237E46;" points="19.8,7.6 23.6,7.6 25.6,11 23.7,14.3 16.1,14.3 		"/>
		<polygon style="fill:#398647;" points="19.9,7.9 23.4,7.9 25.2,11 23.6,14 16.6,14 		"/>
		<polygon style="fill:#4C8F47;" points="20.1,8.2 23.3,8.2 24.9,11 23.4,13.7 17.1,13.8 		"/>
		<polygon style="fill:#5E9948;" points="20.3,8.5 23.1,8.5 24.6,11 23.2,13.4 17.6,13.5 		"/>
		<polygon style="fill:#70A448;" points="20.5,8.8 22.9,8.8 24.2,11 23,13.1 18.1,13.2 		"/>
		<polygon style="fill:#83AE47;" points="20.6,9.1 22.8,9.1 23.9,11 22.9,12.8 18.6,12.9 		"/>
		<polygon style="fill:#95B946;" points="20.8,9.4 22.6,9.4 23.6,11 22.7,12.5 19.1,12.6 		"/>
		<polygon style="fill:#AAC545;" points="21,9.7 22.4,9.7 23.2,11 22.5,12.3 19.6,12.3 		"/>
		<polygon style="fill:#BED142;" points="21.2,10 22.3,10 22.9,11 22.4,12 20.1,12 		"/>
	</g>
	<g>
		<polygon style="fill:#292929;" points="24.1,22.8 26.4,18.8 24.1,14.8 15,15 19.6,22.9 		"/>
		<polygon style="fill:#373B3A;" points="24.1,14.9 26.3,18.8 24.1,22.7 19.6,22.8 15.1,15.1 		"/>
		<polygon style="fill:#424B46;" points="24,15 26.2,18.8 24.1,22.7 19.7,22.7 15.3,15.1 		"/>
		<polygon style="fill:#49594D;" points="24,15.1 26.1,18.8 24,22.6 19.7,22.7 15.4,15.2 		"/>
		<polygon style="fill:#4D6450;" points="24,15.1 26.1,18.8 24,22.5 19.8,22.6 15.5,15.3 		"/>
		<polygon style="fill:#4B6D50;" points="23.9,15.2 26,18.8 23.9,22.4 19.8,22.5 15.7,15.4 		"/>
		<polygon style="fill:#45754D;" points="23.9,15.3 25.9,18.8 23.9,22.3 19.9,22.4 15.8,15.5 		"/>
		<polygon style="fill:#397A49;" points="23.8,15.4 25.8,18.8 23.8,22.3 19.9,22.3 16,15.5 		"/>
		<polygon style="fill:#237E46;" points="23.8,15.5 25.7,18.8 23.8,22.2 19.9,22.2 16.1,15.6 		"/>
		<polygon style="fill:#398647;" points="23.6,15.8 25.3,18.8 23.6,21.9 20.1,22 16.6,15.9 		"/>
		<polygon style="fill:#4C8F47;" points="23.4,16.1 25,18.8 23.4,21.6 20.3,21.7 17.1,16.2 		"/>
		<polygon style="fill:#5E9948;" points="23.3,16.4 24.7,18.8 23.2,21.3 20.4,21.4 17.6,16.5 		"/>
		<polygon style="fill:#70A448;" points="23.1,16.7 24.3,18.8 23.1,21 20.6,21.1 18.1,16.8 		"/>
		<polygon style="fill:#83AE47;" points="22.9,17 24,18.8 22.9,20.7 20.8,20.8 18.6,17 		"/>
		<polygon style="fill:#95B946;" points="22.8,17.3 23.7,18.8 22.7,20.4 20.9,20.5 19.1,17.3 		"/>
		<polygon style="fill:#AAC545;" points="22.6,17.5 23.3,18.8 22.6,20.1 21.1,20.2 19.6,17.6 		"/>
		<polygon style="fill:#BED142;" points="22.4,17.8 23,18.8 22.4,19.8 21.3,19.9 20.1,17.9 		"/>
	</g>
	<g>
		<polygon style="fill:#292929;" points="12.8,26.8 17.4,26.8 19.7,22.8 15,15 10.4,22.9 		"/>
		<polygon style="fill:#373B3A;" points="19.6,22.8 17.4,26.7 12.8,26.7 10.5,22.9 15,15.1 		"/>
		<polygon style="fill:#424B46;" points="19.5,22.8 17.3,26.6 12.9,26.7 10.6,22.9 15,15.3 		"/>
		<polygon style="fill:#49594D;" points="19.4,22.8 17.3,26.6 12.9,26.6 10.7,22.9 15,15.5 		"/>
		<polygon style="fill:#4D6450;" points="19.3,22.8 17.2,26.5 12.9,26.5 10.8,22.9 15,15.6 		"/>
		<polygon style="fill:#4B6D50;" points="19.2,22.8 17.2,26.4 13,26.4 10.9,22.9 15,15.8 		"/>
		<polygon style="fill:#45754D;" points="19.1,22.8 17.1,26.3 13,26.3 11,22.9 15,15.9 		"/>
		<polygon style="fill:#397A49;" points="19,22.8 17.1,26.2 13.1,26.3 11.1,22.9 15,16.1 		"/>
		<polygon style="fill:#237E46;" points="18.9,22.8 17,26.2 13.1,26.2 11.2,22.9 15,16.3 		"/>
		<polygon style="fill:#398647;" points="18.6,22.8 16.9,25.9 13.3,25.9 11.5,22.9 15,16.8 		"/>
		<polygon style="fill:#4C8F47;" points="18.3,22.9 16.7,25.6 13.5,25.6 11.8,22.9 15,17.4 		"/>
		<polygon style="fill:#5E9948;" points="17.9,22.9 16.5,25.3 13.6,25.3 12.2,22.9 15,18 		"/>
		<polygon style="fill:#70A448;" points="17.6,22.9 16.4,25 13.8,25 12.5,22.9 15,18.6 		"/>
		<polygon style="fill:#83AE47;" points="17.2,22.9 16.2,24.7 14,24.7 12.9,22.9 15,19.2 		"/>
		<polygon style="fill:#95B946;" points="16.9,22.9 16,24.4 14.1,24.4 13.2,22.9 15,19.7 		"/>
		<polygon style="fill:#AAC545;" points="16.6,22.9 15.8,24.1 14.3,24.1 13.5,22.9 15,20.3 		"/>
		<polygon style="fill:#BED142;" points="16.2,22.9 15.7,23.8 14.5,23.8 13.9,22.9 15,20.9 		"/>
	</g>
	<g>
		<polygon style="fill:#292929;" points="3.6,19 6,23 10.5,23 15,15 5.8,15 		"/>
		<polygon style="fill:#373B3A;" points="10.5,22.9 6,22.9 3.7,19 5.9,15.1 14.8,15.1 		"/>
		<polygon style="fill:#424B46;" points="10.4,22.8 6,22.8 3.8,19 5.9,15.1 14.7,15.2 		"/>
		<polygon style="fill:#49594D;" points="10.4,22.7 6.1,22.7 3.9,19 6,15.2 14.6,15.2 		"/>
		<polygon style="fill:#4D6450;" points="10.3,22.7 6.1,22.6 4,19 6,15.3 14.4,15.3 		"/>
		<polygon style="fill:#4B6D50;" points="10.3,22.6 6.2,22.6 4.1,19 6.1,15.4 14.3,15.4 		"/>
		<polygon style="fill:#45754D;" points="10.2,22.5 6.2,22.5 4.2,19 6.1,15.5 14.2,15.5 		"/>
		<polygon style="fill:#397A49;" points="10.2,22.4 6.3,22.4 4.3,19 6.2,15.5 14,15.6 		"/>
		<polygon style="fill:#237E46;" points="10.1,22.3 6.3,22.3 4.4,19 6.2,15.6 13.9,15.6 		"/>
		<polygon style="fill:#398647;" points="10,22 6.5,22 4.7,18.9 6.4,15.9 13.4,15.9 		"/>
		<polygon style="fill:#4C8F47;" points="9.8,21.7 6.7,21.7 5,18.9 6.6,16.2 12.9,16.2 		"/>
		<polygon style="fill:#5E9948;" points="9.6,21.5 6.8,21.4 5.4,18.9 6.7,16.5 12.4,16.5 		"/>
		<polygon style="fill:#70A448;" points="9.5,21.2 7,21.1 5.7,18.9 6.9,16.8 11.9,16.8 		"/>
		<polygon style="fill:#83AE47;" points="9.3,20.9 7.2,20.9 6,18.9 7.1,17.1 11.4,17.1 		"/>
		<polygon style="fill:#95B946;" points="9.1,20.6 7.3,20.6 6.4,18.9 7.3,17.4 10.9,17.4 		"/>
		<polygon style="fill:#AAC545;" points="8.9,20.3 7.5,20.3 6.7,18.9 7.4,17.7 10.4,17.7 		"/>
		<polygon style="fill:#BED142;" points="8.8,20 7.7,20 7.1,18.9 7.6,18 9.9,18 		"/>
	</g>
	<g>
		<polygon style="fill:#292929;" points="5.9,7.1 3.6,11.1 5.8,15.1 15,15 10.5,7.1 		"/>
		<polygon style="fill:#373B3A;" points="5.9,15 3.7,11.1 5.9,7.2 10.4,7.1 14.8,14.9 		"/>
		<polygon style="fill:#424B46;" points="5.9,14.9 3.8,11.1 6,7.3 10.4,7.2 14.7,14.8 		"/>
		<polygon style="fill:#49594D;" points="6,14.9 3.9,11.1 6,7.3 10.3,7.3 14.6,14.8 		"/>
		<polygon style="fill:#4D6450;" points="6,14.8 3.9,11.1 6.1,7.4 10.3,7.4 14.4,14.7 		"/>
		<polygon style="fill:#4B6D50;" points="6.1,14.7 4,11.1 6.1,7.5 10.2,7.5 14.3,14.6 		"/>
		<polygon style="fill:#45754D;" points="6.1,14.6 4.1,11.1 6.2,7.6 10.2,7.5 14.2,14.5 		"/>
		<polygon style="fill:#397A49;" points="6.2,14.5 4.2,11.1 6.2,7.7 10.1,7.6 14,14.4 		"/>
		<polygon style="fill:#237E46;" points="6.2,14.5 4.3,11.1 6.3,7.7 10.1,7.7 13.9,14.4 		"/>
		<polygon style="fill:#398647;" points="6.4,14.2 4.7,11.1 6.4,8 9.9,8 13.4,14.1 		"/>
		<polygon style="fill:#4C8F47;" points="6.5,13.9 5,11.1 6.6,8.3 9.7,8.3 12.9,13.8 		"/>
		<polygon style="fill:#5E9948;" points="6.7,13.6 5.3,11.1 6.8,8.6 9.6,8.6 12.4,13.5 		"/>
		<polygon style="fill:#70A448;" points="6.9,13.3 5.7,11.1 6.9,8.9 9.4,8.9 11.9,13.2 		"/>
		<polygon style="fill:#83AE47;" points="7.1,13 6,11.1 7.1,9.2 9.2,9.2 11.4,12.9 		"/>
		<polygon style="fill:#95B946;" points="7.2,12.7 6.3,11.1 7.3,9.5 9.1,9.5 10.9,12.6 		"/>
		<polygon style="fill:#AAC545;" points="7.4,12.4 6.7,11.1 7.5,9.8 8.9,9.8 10.4,12.3 		"/>
		<polygon style="fill:#BED142;" points="7.6,12.1 7,11.1 7.6,10.1 8.7,10.1 9.9,12.1 		"/>
	</g>
</g>
<g>
	<polygon style="fill:#C51A24;" points="17.5,15 16.3,12.8 13.8,12.8 12.5,15 13.7,17.2 16.2,17.2 	"/>
	<polygon style="fill:#C93926;" points="17.4,15 16.2,13 13.8,13 12.6,15 13.8,17 16.2,17 	"/>
	<polygon style="fill:#CC4E28;" points="17.2,15 16.1,13.1 13.9,13.1 12.8,15 13.9,16.9 16.1,16.9 	"/>
	<polygon style="fill:#D1612A;" points="17.1,15 16,13.2 14,13.2 12.9,15 14,16.8 16,16.8 	"/>
	<polygon style="fill:#D6752B;" points="16.9,15 16,13.4 14.1,13.3 13.1,15 14,16.6 15.9,16.7 	"/>
	<polygon style="fill:#DB862D;" points="16.8,15 15.9,13.5 14.1,13.5 13.2,15 14.1,16.5 15.9,16.5 	"/>
	<polygon style="fill:#E1982D;" points="16.6,15 15.8,13.6 14.2,13.6 13.4,15 14.2,16.4 15.8,16.4 	"/>
	<polygon style="fill:#E7AA2E;" points="16.5,15 15.7,13.7 14.3,13.7 13.5,15 14.3,16.3 15.7,16.3 	"/>
	<polygon style="fill:#EEBC2D;" points="16.3,15 15.7,13.9 14.3,13.8 13.7,15 14.3,16.1 15.7,16.2 	"/>
	<polygon style="fill:#F5CE2C;" points="16.2,15 15.6,14 14.4,14 13.8,15 14.4,16 15.6,16 	"/>
	<polygon style="fill:#FCDF2A;" points="16,15 15.5,14.1 14.5,14.1 14,15 14.5,15.9 15.5,15.9 	"/>
	<polygon style="fill:#FFF026;" points="15.9,15 15.5,14.2 14.6,14.2 14.1,15 14.5,15.8 15.4,15.8 	"/>
</g>
</svg>
