<?xml version="1.0" encoding="utf-8"?>
<!-- Generator: Adobe Illustrator 24.2.1, SVG Export Plug-In . SVG Version: 6.00 Build 0)  -->
<svg version="1.0" id="Layer_1" xmlns="http://www.w3.org/2000/svg" xmlns:xlink="http://www.w3.org/1999/xlink" x="0px" y="0px"
	 viewBox="0 0 277.9 323.6" style="enable-background:new 0 0 277.9 323.6;" xml:space="preserve">
<path style="fill:#EB6395;" d="M41.8,35.6c3.5,9.8,6,20,5.8,30.3s-3.5,20.9-10.4,28.6c-4.8,5.4-11.1,9.2-15.6,14.8
	c-4.5,5.6-6.8,14.1-2.5,19.7c0.8,1,1.7,1.9,2.2,3c1.1,2.3,0.2,5.1-0.7,7.5c-2.6,7.1-5.8,14.8-12.6,18.1c-0.7,0.3-4.2-11.3-4.4-12.5
	c-0.7-4.1-0.1-7.4,0.3-11.5c0.9-9.7,1.6-16.8,7.6-25c5.6-7.7,12.9-13.9,18.7-21.4c9-11.7,12.3-28.1,8.1-42.3
	C33.9,29.7,20.9,22.3,13.9,8.9c-1.5-2.8-2.3-7.1,0.5-8.6c2-1,4.4,0.4,6.2,1.8C30.9,10.6,37.3,23,41.8,35.6z"/>
<path style="fill:#F18D1F;" d="M258.9,88c0.4-4.9-0.1-10.6-1.1-16.2c-2.2-11.6-6.7-16.8-6.7-16.8s2.9-1.7,4.6-3.3
	c1.7-1.6,2-5.2,2.6-9.9c0.6-4.7-0.1-5.2-3-4.4c-2.9,0.7-11.2,11.6-11.2,11.6s-2.4-0.6-3.7-0.9c-1.3-0.3-3.2,0.1-6.2,0.9
	c-0.6-3.2-9.8-8.9-12.3-10.3c-2.6-1.4-4.6,2.6-4.6,2.6s1.4,3.4,2.3,8.3s7.2,8.8,8.2,8.5c1.1-0.3,0.5,9.9,0.5,9.9s-1.1,1.6,0,7
	c1.1,5.5,11,20.8,13.1,20.8s4.7-2.9,4.7-2.9s3.3,9.3,8.4,6.2c0.1-0.1,0.3-0.2,0.4-0.3c-0.4-0.7-0.7-1.5-0.8-2.4
	C253.9,93.9,256,89.2,258.9,88z"/>
<path style="fill:#F18D1F;" d="M258.9,88c0.4-4.9-0.1-10.6-1.1-16.2c-2.2-11.6-6.7-16.8-6.7-16.8s2.9-1.7,4.6-3.3
	c1.7-1.6,2-5.2,2.6-9.9c0.6-4.7-0.1-5.2-3-4.4c-2.9,0.7-11.2,11.6-11.2,11.6s-2.4-0.6-3.7-0.9c-1.3-0.3-3.2,0.1-6.2,0.9
	c-0.6-3.2-9.8-8.9-12.3-10.3c-2.6-1.4-4.6,2.6-4.6,2.6s1.4,3.4,2.3,8.3s7.2,8.8,8.2,8.5c1.1-0.3,0.5,9.9,0.5,9.9s-1.1,1.6,0,7
	c1.1,5.5,11,20.8,13.1,20.8s4.7-2.9,4.7-2.9s3.3,9.3,8.4,6.2c0.1-0.1,0.3-0.2,0.4-0.3c-0.4-0.7-0.7-1.5-0.8-2.4
	C253.9,93.9,256,89.2,258.9,88z"/>
<path style="fill:#E9494D;" d="M238.9,69.1c1.1,1.2,2.7,4.2,8.6,4.4c5.9,0.3,4-2.2,4-2.2s-4.4-10.3-8.8-9.8
	c-4.3,0.4-8.6,0.7-7.9,1.9C235.6,64.5,237.9,67.9,238.9,69.1z"/>
<path style="fill:#E9494D;" d="M258.9,88c-3,1.2-5,5.9-4.8,8.5c0.1,0.8,0.4,1.6,0.8,2.4C257.3,97.1,258.6,93,258.9,88z"/>
<ellipse transform="matrix(0.4569 -0.8895 0.8895 0.4569 72.0191 254.9743)" style="fill:#F18D1F;" cx="244.8" cy="68.5" rx="2.7" ry="1.9"/>
<path style="fill:#A14323;" d="M63.2,211.4c0.7-1.6,2.3-2.9,4-3.1c-2.8-2.4-4.3-6.2-4-9.9c0.2-1.9,0.9-3.8,2-5.4
	c-3.1-0.1-6,0-8.3,0.6c-0.4,8.4-3,19.1-5.1,22c-1,1.5-2.7,2.8-4.7,4.2c0.1,3.7,1,7.4,2.5,10.7c1.2,2.6,2.8,4.9,4.7,7
	c0.6-3.9,5.7-10,7.7-11.6c0.4-0.3,1.2-0.8,2.3-1.3c-1-2.6-1.7-5.3-1.9-8.1C62.4,214.9,62.5,213,63.2,211.4z"/>
<path style="fill:#E84474;" d="M47.2,219.9c-2.7,2-5.9,4.2-8.4,7.2c-4.5,5.2,0.7,9.6,5.2,15.6s4.5,9.3,3.6,14.8
	c-0.8,5.6-3.6,7.1,0,10.4s6.8,1.1,6.8,1.1c-0.7,4.5,5.5,11.9,7.7,11.9c2.2,0,4.5-5.9,4.5-5.9s4.1,6.3,7,7.4s5.3-2.6,6.4-4.5
	c1.1-1.9-0.4-10-7.8-16.7c-12.2-5.6-17.1-18.5-17.8-22.2c-0.1-0.4,0-0.9,0-1.4c-1.9-2.1-3.5-4.4-4.7-7
	C48.1,227.3,47.3,223.6,47.2,219.9z"/>
<path style="fill:#B54FB8;" d="M90.6,202.4c-1.8-1.2-3.6-2.4-5.2-3.5c-0.9-0.6-1.8-1.1-2.6-1.6c-0.9,3.1-1.2,6.4-1.1,9.7
	c0,3.2,0.3,6.5,1.1,9.7c0.6-0.3,1.2-0.7,1.6-1C86.8,213.9,89,207.7,90.6,202.4z"/>
<path style="fill:#FFCE20;" d="M82.8,197.3c-3.6-2.1-6.7-3.5-8.8-3.7c-1.5-0.1-3.1-0.2-4.6-0.4c-1.4-0.1-2.7-0.2-4.1-0.2
	c-1.1,1.6-1.8,3.5-2,5.4c-0.4,3.7,1.2,7.5,4,9.9c-1.8,0.1-3.3,1.5-4,3.1s-0.8,3.4-0.7,5.2c0.2,2.8,0.8,5.5,1.9,8.1
	c4.5-2.1,13.8-5.4,18.4-8c-0.8-3.1-1.1-6.4-1.1-9.7C81.6,203.8,81.9,200.5,82.8,197.3z"/>
<path style="fill:#1AB5ED;" d="M84.7,185c0.7-3,1.9-6.2,0.6-9c-1-2.2-3.4-3.4-4.8-5.3c-3.1-4.3-1-10.2,1.2-15
	c-3.5-2-5.8-6.1-5.7-10.2c0.1-4.1,2.6-8,6.2-9.9c-3.3-3.3-4.7-8.4-3.6-12.9c0.4-1.5,1-2.8,1.9-4.1c-1.2-0.8-3.3-1.8-6.9-3.1
	c-9.3-3.3-16.3,0.4-16.3,0.4s-0.6,0-1.5,0.1c-0.9,1.9-1.4,3.9-1.5,5.9c-0.2,5.8,2.9,11.6,7.9,14.6c-6.7,9.6-3.6,24.5,6.2,30.7
	c-4.6,6.3-4.2,15.2-1.1,22.4c0.6,1.3,1.3,2.6,2,3.9c1.5,0.1,3.1,0.2,4.6,0.4c2.6,0.2,6.7,2.2,11.4,5.2C84,194.4,83.7,189.6,84.7,185
	z"/>
<path style="fill:#CA221E;" d="M31.7,197c-8.3-2.7-13.4-12.8-10.6-21.1c0.8-2.5,2.2-5.3,0.7-7.5c-1-1.5-2.9-1.9-4.5-2.5
	c-4.2-1.5-7.9-4.6-10.1-8.5c-0.2,0.8-0.5,1.6-0.7,2.5c-5.2,20.4,4.8,39.7,6.3,45.5c0.8,3.1-0.4,5.8-2.5,8.6c1,1.1,2.2,2.1,3.5,2.9
	c2.9,1.6,6.5,2.3,8.7,4.8c2.1,2.5,2.2,6.2,3.6,9.2c3.1-2.1,6.7-3.7,9.7-5.2c2.2-1.1,4.4-3.5,6.3-6.3c-2.3-1.1-4.3-2.6-6-4.4
	C31.8,210.1,30.1,203.2,31.7,197z"/>
<path style="fill:#EE7553;" d="M68.5,167.1c-9.9-6.2-12.9-21.1-6.2-30.7c-5-3-8.1-8.8-7.9-14.6c0.1-2.1,0.6-4.1,1.5-5.9
	c-1.8,0.1-5.1,0.3-8.6,0.3c-5.1,0-5.6-1.1-15.4,4.8c-1.3,2.8-2,5.9-2,9c0,6.7,3.5,13.3,8.9,17.2c-2.7,4.1-3.5,9.4-2,14
	c1.5,4.7,5.2,8.6,9.8,10.3c-2.7,9-0.3,19,5.3,26.4c2.1-5.3,9.4-5.1,17.5-4.5c-0.7-1.2-1.4-2.5-2-3.9
	C64.2,182.3,63.9,173.4,68.5,167.1z"/>
<path style="fill:#2D6FCE;" d="M46.5,171.5c-4.6-1.7-8.3-5.6-9.8-10.3c-1.5-4.7-0.7-10,2-14c-5.5-3.9-8.9-10.5-8.9-17.2
	c0-3.1,0.7-6.2,2-9c-0.2,0.1-0.4,0.2-0.6,0.3c-10,6-18.9,17.2-24.2,36.1c2.3,3.9,5.9,7,10.1,8.5c1.7,0.6,3.5,1,4.5,2.5
	c1.5,2.2,0.1,5-0.7,7.5c-2.8,8.3,2.3,18.4,10.6,21.1c-1.6,6.2,0.1,13.1,4.4,17.8c1.7,1.9,3.7,3.3,6,4.4c4.5-6.7,8.1-16.5,9.6-21.1
	c0-0.1,0.1-0.2,0.1-0.3C46.2,190.4,43.8,180.4,46.5,171.5z"/>
<path style="fill:#EB6395;" d="M205.8,115.2c1,2.2,2.6,4.3,2.7,6.8c0.2,3.9-3.2,7.4-2.8,11.3c0.3,2.8,2.4,5,3.4,7.6
	c1.4,3.6,0.4,7.6,0.6,11.4c0.2,3.8,2.2,8.3,6.1,8.6c-2.3,2.8-4.7,5.8-5.9,9.2c-1.2,3.5-1,7.6,1.4,10.4c1.2,1.3,2.8,2.4,3.1,4.1
	c0.4,2.3-1.7,4.1-3,6c-3.1,4.8,0.1,12.3,5.8,13.4c-3.3,3.9-4.1,9.9-1.8,14.5c0.3,0.7,0.8,1.4,1.3,2c12.5-22.8,14.5-72.5,12.2-94
	c-0.8-7.6-1.4-14.5-2-20.3c-2.3,3.4-5.8,5.5-8.5,6.9c-3.6,1.8-3.5-9-4-14.8c0-0.6-0.1-1.1-0.2-1.5c-2.7,7.9-7.6,8-7.6,8
	s-1,0.4-2.3,0.2C203.9,108.5,204.3,112.1,205.8,115.2z"/>
<path style="fill:#7FD44B;" d="M13.8,216.8c-1.4-0.7-2.5-1.7-3.5-2.9c-1.8,2.5-4.4,4.9-6.8,7.5c-5.2,5.6-3.3,8.5-2.2,17.1
	c6.3,8.9,8.5,34.9,9.3,37.8s4.8,6.3,9.3,6.3s2.6-1.5,4.5-3c1.9-1.5,7.4,7.1,10.4,8.2c3,1.1,4.1-7.1,4.1-7.1s6.7,3.3,10,1.9
	c3.3-1.5,0.7-10.4-1.9-11.9c-2.6-1.5-9.3-1.9-16.7-8.2c-7.4-6.3-11.9-10.8-12.2-19.7c-0.2-5.3,3.5-9.2,8.1-12.2
	c-1.4-3-1.5-6.6-3.6-9.2C20.4,219.1,16.8,218.4,13.8,216.8z"/>
<path style="fill:#00C2C3;" d="M216.7,220.5c-0.5-0.6-0.9-1.3-1.3-2c-2.3-4.6-1.5-10.6,1.8-14.5c-5.6-1-8.9-8.5-5.8-13.4
	c1.2-1.9,3.4-3.8,3-6c-0.3-1.7-2-2.8-3.1-4.1c-2.4-2.8-2.6-6.9-1.4-10.4c1.2-3.5,3.5-6.4,5.9-9.2c-3.8-0.3-5.9-4.7-6.1-8.6
	c-0.2-3.8,0.8-7.8-0.6-11.4c-1-2.6-3.1-4.8-3.4-7.6c-0.4-3.9,3.1-7.4,2.8-11.3c-0.1-2.4-1.7-4.5-2.7-6.8c-1.5-3.2-1.9-6.8-1.4-10.2
	c-1.9-0.2-4.3-1.5-5.2-6.8c-1-6.2,2.9-13.5,5.5-17.5c3-1.9,6.2-3.7,9.4-5.3c-7.9-2.9-17.6-2.5-20.6,1.7
	c-4.3,6.1-11.1,30.9-14.2,43.4c0.5,0.7,1,1.4,1.5,2.1c3.2,4.1,6.8,8.3,7.1,13.5c0.3,5.6-3.6,11.1-2.1,16.5c0.9,3.1,3.4,5.5,4.1,8.7
	c1.3,5.6-3.4,11.8-0.5,16.8c1.3,2.2,3.9,3.5,4.9,5.8c1.4,3.1-0.4,6.6-1.9,9.6c-1.5,2.9-2.9,5.8-3.3,9c-0.4,3.2,0.4,6.7,2.7,8.9
	c1.6,1.5,3.8,2.4,4.8,4.3c1,1.8,0.7,4,0.7,6.1c0.1,5.9,3.2,11.4,7.9,14.9c2.6-3.6,5.5-7.5,8.7-11.8
	C214.9,223.5,215.8,222.1,216.7,220.5z"/>
<path style="fill:#F7AC5A;" d="M184,242.1c-1.5-5.3-7.7-5.7-9.1-10.8c-1.2-4.5,3.2-8.9,2.5-13.5c-0.4-2.3-2-4.2-2.6-6.4
	c-1.2-4.9,2.9-9.8,2.3-14.8c-0.6-4.4-4.6-7.5-6.6-11.4c-3.3-6.3-1.2-13.9,0.9-20.7c-5.8-2.9-10.2-8.6-11.4-15
	c-0.4-1.9-0.4-3.8-0.3-5.6c-2.4,0.7-5.1,1.4-8.1,2c-5,1-10.3,0.8-15.6-0.1c-0.4,1.1-0.7,2.3-0.8,3.5c-0.6,5,1.3,10.3,4.9,13.8
	c2.6,2.5,6.4,4.7,6.6,8.4c0.2,3.9-4.1,7.2-3.4,11.1c0.7,4.4,6.9,5.9,8.1,10.1c0.9,3.2-1.3,6.3-2.1,9.5c-1.5,6.4,4,13.4,10.5,13.5
	c-1.8,4.7-2.6,9.7-2.6,14.7c0.4-0.1,0.7-0.2,0.7-0.2s3.7,10,8.5,18.6c4.8,8.5-1.1,21.9-1.1,21.9s-5.6,7.4,6.3,14.5s13,16,14.1,24.1
	c1.1,8.2,5.6,9.3,7.8,8.9c2.2-0.4,4.8-3.3,4.8-3.3s5.9,8.9,7.4,8.9c1.5,0,3.2-4.1,3.2-4.1s6.4,1.1,10.1,0s2.2-5.2-0.7-10
	c-3-4.8-11.5-3.3-11.5-3.3s0,2.6-10-9.3c-10-11.9-8.9-28.2-8.2-33.4c0.1-0.6,0.3-1.4,0.7-2.2c-2.1-2.8-3.6-6.1-4.2-9.6
	C184.7,248.5,184.9,245.2,184,242.1z"/>
<path style="fill:#504760;" d="M108.3,207.2c-1.2-1.2-3.5-1.4-3.8-3.1c-0.3-1.6,1.6-2.7,2.3-4.1c0.8-1.7-0.1-3.7-1.3-5.2
	c-1.2-1.5-2.7-2.7-3.4-4.5c-2.4-5.8,5.1-12.6,2-18c-1.3-2.3-4.3-3.4-5.3-5.9c-1.5-3.4,1.3-7.1,1.5-10.8c0.2-3.3-1.8-6.3-2.7-9.5
	c-1.5-5.3,0.5-11.3,4.5-15.1c-2.7-1.9-4.8-3.5-5.9-4.6c-5.2-5.2-14.1-6.3-14.1-6.3s0.3-0.5-1.6-1.7c-0.9,1.3-1.5,2.6-1.9,4.1
	c-1.2,4.5,0.2,9.6,3.6,12.9c-3.6,1.9-6.1,5.8-6.2,9.9c-0.1,4.1,2.2,8.1,5.7,10.2c-2.2,4.8-4.4,10.8-1.2,15c1.4,1.9,3.8,3.2,4.8,5.3
	c1.3,2.8,0.1,6-0.6,9c-1.1,4.6-0.8,9.5,0.7,14c7,4.4,15.5,10.9,23.4,16.8c0-0.7,0.1-1.3,0.2-2C109.4,211.5,110,208.8,108.3,207.2z"
	/>
<path style="fill:#8F82D5;" d="M197.4,221.7c0-2.1,0.3-4.3-0.7-6.1c-1.1-1.9-3.3-2.8-4.8-4.3c-2.3-2.2-3.1-5.7-2.7-8.9
	c0.4-3.2,1.8-6.2,3.3-9c1.6-3,3.3-6.5,1.9-9.6c-1-2.3-3.6-3.6-4.9-5.8c-2.9-4.9,1.8-11.2,0.5-16.8c-0.7-3.1-3.3-5.6-4.1-8.7
	c-1.5-5.4,2.4-10.9,2.1-16.5c-0.3-5.2-3.9-9.4-7.1-13.5c-0.5-0.7-1-1.4-1.5-2.1c-0.6,2.6-1.1,4.7-1.4,6c-1.3,6.4-3.4,12.8-18.2,17.3
	c-0.2,1.9-0.1,3.8,0.3,5.6c1.2,6.4,5.6,12.1,11.4,15c-2.1,6.8-4.1,14.4-0.9,20.7c2.1,4,6.1,7,6.6,11.4c0.6,5-3.5,9.9-2.3,14.8
	c0.6,2.2,2.2,4.1,2.6,6.4c0.8,4.6-3.7,9-2.5,13.5c1.4,5.2,7.6,5.6,9.1,10.8c0.9,3.1,0.7,6.3,1.1,9.5c0.5,3.5,2,6.8,4.2,9.6
	c1.9-4.8,7.6-13.1,16-24.6C200.6,233.1,197.4,227.6,197.4,221.7z"/>
<path style="fill:#EB6395;" d="M205.8,115.2c1,2.2,2.6,4.3,2.7,6.8c0.2,3.9-3.2,7.4-2.8,11.3c0.3,2.8,2.4,5,3.4,7.6
	c1.4,3.6,0.4,7.6,0.6,11.4c0.2,3.8,2.2,8.3,6.1,8.6c-2.3,2.8-4.7,5.8-5.9,9.2c-1.2,3.5-1,7.6,1.4,10.4c1.2,1.3,2.8,2.4,3.1,4.1
	c0.4,2.3-1.7,4.1-3,6c-3.1,4.8,0.1,12.3,5.8,13.4c-3.3,3.9-4.1,9.9-1.8,14.5c0.3,0.7,0.8,1.4,1.3,2c12.5-22.8,14.5-72.5,12.2-94
	c-0.8-7.6-1.4-14.5-2-20.3c-2.3,3.4-5.8,5.5-8.5,6.9c-3.6,1.8-3.5-9-4-14.8c0-0.6-0.1-1.1-0.2-1.5c-2.7,7.9-7.6,8-7.6,8
	s-1,0.4-2.3,0.2C203.9,108.5,204.3,112.1,205.8,115.2z"/>
<path style="fill:#5AA5EB;" d="M268.7,18.5c-4.5,0.2-7.9,5.4-7.9,5.4s-0.2-0.5-0.6-1.2c-1.9-3.9-8.1-16.3-10.8-16
	c-2.9,0.3-7.5,11.6-7.9,14.9c0,0.3-0.1,0.6,0,0.8C242,24.2,231.3,3,228.8,5.7c-2.5,2.7-7.2,8.5-5.4,21.8c-0.1,0.9-0.4,1.4-0.8,1.8
	c-1.1,0.9-3.1,0.1-5.3-1.8c-3-2.5-18.3-15.9-20.1-7c-1.7,8.9,6.8,19.3,6.8,19.3s-0.4,0-1.1,0c-4.4,0-20.8,0.3-20.8,7.6
	c0,8.5,14.8,11.2,14.8,11.2s0.5,0.5,0.3,1.5c-0.1,0.8-0.7,2-2.5,3.4c-4,3.2-9.2,9.4-7.5,12.6c0.8,1.5,2.5,2.7,4.8,3.4
	c0.5-1,1-1.8,1.4-2.4c3-4.2,12.6-4.6,20.6-1.7c-3.2,1.6-6.4,3.4-9.4,5.3c-2.6,4-6.5,11.3-5.5,17.5c0.1,0.3,0.1,0.6,0.2,0.9
	c0,0.1,0,0.2,0.1,0.3c0,0.2,0.1,0.4,0.1,0.5c0,0.1,0.1,0.2,0.1,0.3c0,0.2,0.1,0.3,0.1,0.5c0,0.1,0.1,0.2,0.1,0.3
	c0.1,0.1,0.1,0.3,0.2,0.4c0,0.1,0.1,0.1,0.1,0.2c0.1,0.2,0.1,0.3,0.2,0.5c0,0,0,0.1,0.1,0.1c0.1,0.2,0.2,0.3,0.3,0.5
	c0,0,0,0.1,0.1,0.1c0.1,0.1,0.2,0.2,0.2,0.3c0,0,0.1,0.1,0.1,0.1c0.1,0.1,0.2,0.2,0.2,0.3c0,0,0.1,0.1,0.1,0.1
	c0.1,0.1,0.2,0.2,0.3,0.3c0,0,0,0,0.1,0c0.9,0.7,1.8,1,2.6,1.1c0,0,0,0,0,0c1.3,0.1,2.3-0.3,2.3-0.3s4.9-0.1,7.6-8
	c0.1,0.5,0.1,1,0.2,1.5c0.5,5.9,0.4,16.7,4,14.8c4-2,9.8-5.6,10.6-12.5c0.6-5.6,1.1-12.6,3.7-15.8c-1.6-2.8-3.1-5.5-3.9-7.7
	c-0.3-0.7-0.5-1.4-0.6-2c-0.6-2.8-0.6-4.6-0.4-5.7c0.1-1,0.4-1.4,0.4-1.4s0.3-5.1,0.1-8c-0.1-1.2-0.3-2-0.6-1.9
	c-1.1,0.3-7.4-3.6-8.2-8.5c0-0.2-0.1-0.4-0.1-0.6c-0.9-4.5-2.2-7.7-2.2-7.7s2-4,4.6-2.6c2.6,1.4,11.8,7.1,12.3,10.3
	c0.2,0,0.3-0.1,0.5-0.1c2.7-0.6,4.5-1,5.7-0.7c1.1,0.2,2.9,0.7,3.5,0.8c0.1,0,0.2,0.1,0.2,0.1s8.3-10.9,11.2-11.6
	c0.9-0.2,1.5-0.3,2-0.2c1.1,0.2,1.4,1.4,1,4.7c-0.6,4.7-0.9,8.3-2.6,9.9c-1.7,1.6-4.6,3.3-4.6,3.3s4.6,5.2,6.7,16.8
	c0.4,2.3,0.7,4.7,0.9,7c5.7-3.4,14.9-11.1,16.6-26C277.8,30.9,273.1,18.3,268.7,18.5z"/>
<path style="fill:#8F82D5;" d="M197.4,221.7c0-2.1,0.3-4.3-0.7-6.1c-1.1-1.9-3.3-2.8-4.8-4.3c-2.3-2.2-3.1-5.7-2.7-8.9
	c0.4-3.2,1.8-6.2,3.3-9c1.6-3,3.3-6.5,1.9-9.6c-1-2.3-3.6-3.6-4.9-5.8c-2.9-4.9,1.8-11.2,0.5-16.8c-0.7-3.1-3.3-5.6-4.1-8.7
	c-1.5-5.4,2.4-10.9,2.1-16.5c-0.3-5.2-3.9-9.4-7.1-13.5c-0.5-0.7-1-1.4-1.5-2.1c-0.6,2.6-1.1,4.7-1.4,6c-1.3,6.4-3.4,12.8-18.2,17.3
	c-0.2,1.9-0.1,3.8,0.3,5.6c1.2,6.4,5.6,12.1,11.4,15c-2.1,6.8-4.1,14.4-0.9,20.7c2.1,4,6.1,7,6.6,11.4c0.6,5-3.5,9.9-2.3,14.8
	c0.6,2.2,2.2,4.1,2.6,6.4c0.8,4.6-3.7,9-2.5,13.5c1.4,5.2,7.6,5.6,9.1,10.8c0.9,3.1,0.7,6.3,1.1,9.5c0.5,3.5,2,6.8,4.2,9.6
	c1.9-4.8,7.6-13.1,16-24.6C200.6,233.1,197.4,227.6,197.4,221.7z"/>
<path style="fill:#E9494D;" d="M136.2,212.2c-4.5,0-8.6-3.8-8.9-8.3c-0.2-2.8,1-5.8,0.1-8.5c-0.6-1.9-2.1-3.4-3.3-5
	c-4.7-6.5-3.8-16.3,2-21.9c-5-3.9-8-10.2-7.8-16.5c0.1-3.7,1.4-7.3,3.4-10.4c-7.9-3.1-14.9-7.2-19.7-10.5c-4,3.8-6,9.7-4.5,15.1
	c0.9,3.2,2.8,6.2,2.7,9.5c-0.2,3.7-3,7.4-1.5,10.8c1.1,2.4,4,3.6,5.3,5.9c3.1,5.4-4.4,12.2-2,18c0.7,1.7,2.2,3,3.4,4.5
	c1.2,1.5,2.1,3.5,1.3,5.2c-0.7,1.5-2.6,2.5-2.3,4.1c0.3,1.7,2.6,1.9,3.8,3.1c1.7,1.6,1.1,4.3,0.7,6.5c-0.1,0.7-0.2,1.3-0.2,2
	c7.4,5.6,14.3,10.6,18.8,12.9c3.8,1.9,8.1,2.8,12.2,3.1C136.2,225.9,134.7,218.8,136.2,212.2z"/>
<path style="fill:#5DCFDB;" d="M159.7,215.5c-6.5-0.1-12-7.1-10.5-13.5c0.8-3.2,3-6.3,2.1-9.5c-1.2-4.2-7.4-5.8-8.1-10.1
	c-0.6-3.9,3.7-7.2,3.4-11.1c-0.2-3.6-4-5.8-6.6-8.4c-3.6-3.5-5.5-8.7-4.9-13.8c0.1-1.2,0.4-2.4,0.8-3.5c-4.9-0.8-9.7-2.3-14.2-4.1
	c-2,3.1-3.3,6.7-3.4,10.4c-0.2,6.3,2.8,12.7,7.8,16.5c-5.8,5.5-6.7,15.4-2,21.9c1.2,1.6,2.7,3.1,3.3,5c0.8,2.7-0.3,5.7-0.1,8.5
	c0.3,4.5,4.5,8.3,8.9,8.3c-1.5,6.6,0,13.8,3.7,19.5c7.8,0.6,15.1-0.9,17.3-1.4C157.1,225.2,157.9,220.2,159.7,215.5z"/>
<g>
	<path style="fill:#E8444A;" d="M207.7,245.5c2.4,1.3,5.2,2.2,7.1,4.2c1.3,1.4,2.1,3.2,3.3,4.6c2.1,2.6,5.4,4.1,8.7,4
		c-4.8-9.3-10.4-23-12-34.6c-0.3,0.4-0.5,0.8-0.8,1.1c-3.1,4.2-6,8.1-8.7,11.8c-1.2,1.6-2.2,3.1-3.3,4.5
		C203.7,242.8,205.5,244.3,207.7,245.5z"/>
	<path style="fill:#D34621;" d="M269.5,290.2c-10-4.8-31.5-15.6-36.7-21.9c-1.4-1.7-3.6-5.3-6-10c-3.3,0-6.6-1.5-8.7-4
		c-1.2-1.5-2-3.3-3.3-4.6c-1.9-2-4.7-2.9-7.1-4.2c-2.2-1.2-4-2.6-5.7-4.4c-2,2.7-3.7,5.2-5.3,7.5c2.8,4.2,6,8.8,7.5,10.3
		c3,3,10,5.6,10.2,7.8c0.2,2.2,0.5,10.8,6.9,14.5c6.3,3.7,16,7.3,17.8,6.8c2.6,4,5.6,11.4,8.5,11.8s5.6-1.9,5.6-1.9s6.3,7.4,9.6,8.2
		c3.3,0.7,5.2-1.9,5.2-1.9s7.4,3.6,8.9,2C278.4,304.6,279.6,295,269.5,290.2z"/>
</g>
</svg>
