<?xml version="1.0" encoding="utf-8"?>
<!-- Generator: Adobe Illustrator 24.2.1, SVG Export Plug-In . SVG Version: 6.00 Build 0)  -->
<svg version="1.0" id="Layer_1" xmlns="http://www.w3.org/2000/svg" xmlns:xlink="http://www.w3.org/1999/xlink" x="0px" y="0px"
	 viewBox="0 0 271 271" style="enable-background:new 0 0 271 271;" xml:space="preserve">
<g>
	<polygon style="fill:#B60080;" points="271,140.5 271,130.5 247.7,130.5 140.5,23.3 140.5,0 130.5,0 130.5,22.4 22.4,130.5 
		0,130.5 0,140.5 22.4,140.5 130.5,248.6 130.5,271 140.5,271 140.5,247.7 247.7,140.5 	"/>
	
		<rect x="59.9" y="60.4" transform="matrix(0.7071 -0.7071 0.7071 0.7071 -56.2572 135.1459)" style="fill:#F85800;" width="150.2" height="150.2"/>
	
		<rect x="69.7" y="70.2" transform="matrix(0.7071 -0.7071 0.7071 0.7071 -56.3072 135.1666)" style="fill:#FFAD33;" width="130.7" height="130.7"/>
	
		<rect x="77.8" y="78.2" transform="matrix(0.7071 -0.7071 0.7071 0.7071 -56.2364 135.1959)" style="fill:#64FF33;" width="114.5" height="114.5"/>
	
		<rect x="84.2" y="84.6" transform="matrix(0.7071 -0.7071 0.7071 0.7071 -56.2364 135.1959)" style="fill:#0026E9;" width="101.7" height="101.7"/>
	
		<rect x="91.6" y="92.1" transform="matrix(0.7071 -0.7071 0.7071 0.7071 -56.3072 135.1666)" style="fill:#FFAD33;" width="86.9" height="86.9"/>
	
		<rect x="97" y="97.4" transform="matrix(0.7071 -0.7071 0.7071 0.7071 -56.2364 135.1959)" style="fill:#B60080;" width="76.1" height="76.1"/>
	
		<rect x="103" y="103.5" transform="matrix(0.7071 -0.7071 0.7071 0.7071 -56.2572 135.1459)" style="fill:#FFAD33;" width="64" height="64"/>
	
		<rect x="110.1" y="110.6" transform="matrix(0.7071 -0.7071 0.7071 0.7071 -56.2572 135.1459)" style="fill:#8100FF;" width="49.8" height="49.8"/>
	
		<rect x="118.2" y="118.7" transform="matrix(0.7071 -0.7071 0.7071 0.7071 -56.3072 135.1666)" style="fill:#FF6F21;" width="33.7" height="33.7"/>
</g>
</svg>
