<?xml version="1.0" encoding="utf-8"?>
<!-- Generator: Adobe Illustrator 24.2.1, SVG Export Plug-In . SVG Version: 6.00 Build 0)  -->
<svg version="1.1" id="Layer_1" xmlns="http://www.w3.org/2000/svg" xmlns:xlink="http://www.w3.org/1999/xlink" x="0px" y="0px"
	 viewBox="0 0 217.2 295.8" enable-background="new 0 0 217.2 295.8" xml:space="preserve">
<g>
	<g>
		<path fill="#EB7C57" d="M4.8,84.5c1.2-2,1.6-4.5,1-6.8c-0.3-0.9-0.8-1.7-1.4-2.5c3-6,9-18.5,10.3-20.8c1.4-2.6,9.4-12.3,9.4-12.3
			s5.3-1.3,12.1-2.6c6.7-1.3,8.7,0.1,8.7,0.1c7.6,6.8,3.3,22.5-0.4,29.8c-3.6,7.3-6.8,4.3-15.7,9.7c-9,5.4-9,8-11,8s-1.4-2-1.7-3.8
			c-0.4-1.8-3.6-1.4-3.6-1.4s-2.8,7.3-9.1,6.8c-0.8-0.1-1.4-0.2-1.9-0.4C2.8,87.1,4,85.9,4.8,84.5z"/>
		<path fill="#5E212A" d="M3.5,76.9c0.2-0.5,0.5-1.1,0.8-1.7c0.6,0.7,1.1,1.5,1.4,2.5c0.7,2.3,0.2,4.7-1,6.8c-0.8,1.4-2,2.7-3.3,3.7
			C-2,86.6,1.4,81.2,3.5,76.9z"/>
	</g>
	<path fill="#E8434A" d="M44.9,39.6c0,0-2-1.4-8.7-0.1c-6.7,1.3-12.1,2.6-12.1,2.6s-0.2,0.2-0.4,0.5c-3.1-2.8-7.5-8.3-10.4-19.2
		c-3.4-12.7-2.7-21-0.9-21S29.8,14.1,34.1,31c1.6,1.2,2.5,2,2.5,2S44,17.5,61.2,9.4S80.3,0.8,80.1,0c0.9,5.1,1.1,13.6-8.4,22.8
		c-9.4,9.1-17,11.8-19.1,13.4c-1.6,1.2-5,2.2-7.5,3.7C45,39.8,44.9,39.7,44.9,39.6z"/>
	<path fill="#0CB8BB" d="M68.6,215.6c-0.5-4.3,1.1-8.5,2.5-12.5c0.1-0.3,0.2-0.6,0.5-0.8c0.6-0.4,1.4,0,2,0.4
		c4.1,3,8.6,5.6,13.3,7.6c2.2,0.9,4.6,1.9,6.7,3.2c-1.4,0.2-0.9,1.7-0.9,1.7s3.1,20.5,2.2,22.7S86,251,83.1,255.7
		c-2.9,4.7-3.5,13.1-3.4,22.7c-0.4,5.6-1.5,6.4-3.7,6.4s-5.6-3.2-7.5-2.1c-2,1.1-2.6,7.3-4.6,8.4c-2,1.1-5.3-2-5.3-2
		s-2.9,6.1-4.6,6.7c-1.7,0.5-7-2.3-2.6-12.9c4.3-10.6,12-16.1,15.1-19.4c3.1-3.3,9.6-7.7,10.3-16.4c0.7-8.7-6.4-26.2-6.4-26.2
		s0.3,1.5,0.7,3.5c-0.1-0.2-0.1-0.4-0.1-0.6C70.1,221,68.9,218.4,68.6,215.6z"/>
	<g>
		<path fill="none" d="M148.3,246.5c-2.5,0.2-5,0.1-7.5-0.4c1.2-3.4,3.1-6.7,3.8-10.1l0,0C144.7,242.9,146.4,245.1,148.3,246.5z"/>
		<path fill="none" d="M29.6,167.1c-0.4-0.4-0.8-0.8-0.9-1.3C29,166.2,29.3,166.6,29.6,167.1z"/>
		<path fill="none" d="M71.6,202.3c0.4-0.3,1-0.2,1.5,0.1c-0.7,1.7-1.3,3.5-2.2,5.1c-0.5,0.8-1.1,1.6-1.8,2.3
			c0.5-2.3,1.3-4.5,2.1-6.7C71.3,202.8,71.4,202.5,71.6,202.3z"/>
		<path fill="#15B5F0" d="M72.6,125.3c-4.4,1.9-9.5,1-14.2,0c0.3,2.9-1.1,5.8-3.4,7.5s-5.6,2-8.2,0.7c0.8,2.8-0.8,5.9-3.2,7.6
			c-2.4,1.7-5.4,2.4-8.2,2.9c-0.5,0.1-0.9,0.2-1.4,0.2c1.1-8.4,2.6-18.6,4.7-27.2c2.8-0.3,5.5-1,8-2.2c2.2-1.1,4.5-3.3,3.7-5.7
			c3.1,0.8,6.7,0.7,9.4-1.1c2.7-1.8,4.1-5.7,2.4-8.5c4.4,2.6,9.9-0.2,13.8-3.5c2-1.7,4-3.7,5.3-6c0.3,1.6,0.7,3.2,0.9,4.9
			c0,0,0.1,10.8,0.3,20.6c-1.1,1.8-2.4,3.5-3.8,5.1C76.9,122.5,74.9,124.3,72.6,125.3z"/>
		<path fill="#6F3581" d="M56.5,68.9c1.4,3.9,0.8,8.5-1.6,11.9c-1.7,2.4-4,4.1-6.6,5.3c-0.6-4.7-2.9-8.7-6-10.4
			c-0.8-0.4-1.3-1-1.8-1.6c1.5-0.8,2.7-2.1,4-4.7c3.5-6.9,7.5-21.5,1.4-28.7l0.4-1.4c1.9-1,4-1.8,5.5-2.6
			c4.2,2.8,10.9,8.7,17.2,19.6c-0.4,2.2-1.1,4.3-2.1,6.3C64.8,66.4,60.7,70.1,56.5,68.9z"/>
		<path fill="#E94968" d="M75.8,96.1c-3.9,3.3-9.4,6.1-13.8,3.5c1.7,2.8,0.3,6.7-2.4,8.5c-2.7,1.8-6.2,1.9-9.4,1.1
			c0.9,2.3-1.4,4.6-3.7,5.7c-2.5,1.3-5.3,2-8,2.2c1.7-6.9,3.6-12.7,5.9-15.8c3.5-4.7,4.5-10.3,3.8-15.1c2.6-1.3,5-2.9,6.6-5.3
			c2.4-3.4,3-8,1.6-11.9c4.2,1.3,8.3-2.5,10.3-6.4c1-2,1.8-4.1,2.1-6.3c4.7,8.1,9.2,19.1,12.2,33.8C79.8,92.3,77.9,94.3,75.8,96.1z"
			/>
		<path fill="#EC6092" d="M18.4,270.6c5.9-2.4,13.8-3.7,17.8-12.4c4-8.6,7-13.4,10.4-21.5c2.2-5.2,2.8-15,2.7-21.9
			c0.6,0,1.3,0,1.9,0c3.7,0,7.4-0.1,10.9-1.1c2.6-0.7,5.1-2,6.9-3.9c-0.4,1.9-0.7,3.8-0.4,5.8c0.3,2.8,1.4,5.4,2.3,8.1
			c0.1,0.2,0.1,0.4,0.1,0.6c0.6,3.8,1.2,9.5-0.9,11.1c-3.1,2.5-11.5,3.5-14.7,6.3s-6.8,6.4-7.6,25.1c-0.8,18.8-5.8,16.2-5.8,16.2
			s-3.3-5.1-4.2-3.7c-0.9,1.4-6.2,5.8-7.9,6.1c-1.7,0.3-2.7-5.1-5.3-4.3c-2.5,0.8-7.9,6.1-10.4,3.2
			C11.8,281.5,12.5,273.1,18.4,270.6z"/>
		<path fill="#E52B47" d="M102.8,163.8c-4.2,3.2-10,4.2-15.1,2.6c-0.3,4.7-3.1,9.2-7.2,11.5c-4.1,2.3-9.4,2.3-13.5,0
			c0.6,4.6-2.5,9-6.5,11.4s-8.7,2.9-13.4,3.2c-1.4,0.1-2.9,0.1-4.3,0.1c-2.9-7.3-6.3-16.2-8.4-23.6c3.6,0.6,7.4,0.1,10.7-1.6
			c4.2-2.1,7.5-6.1,8.8-10.7c1.7,3.1,5.7,4.7,9.1,3.6c3.4-1.1,5.6-4.9,5-8.4c5,3.4,12.2,3,16.8-0.9c2.8-2.4,4.4-5.9,4.7-9.5
			c0.9,1.1,1.6,1.9,2,2.2c1,0.8,7.6,4.4,17.5,5.6c0,0.2,0.1,0.5,0.1,0.7C109.5,155.2,107,160.6,102.8,163.8z"/>
		<path fill="#2D449B" d="M132.3,222.8c2.1-3.3,3.1-7.5,2-11.2c4.6,0.4,9.8-0.1,12.6-3.7c3.3-4.2,1.7-10.2,0.1-15.2
			c5.1,0.5,10.3-1.6,13.7-5.4c3.3-3.9,4.7-9.4,3.4-14.3c3.5,0,6.5-2.2,9-4.7c3.2-3.2,5.9-7.1,6.6-11.5c0-0.3,0.1-0.6,0.1-0.9
			c8.9,3.8,18.3,9.1,25.7,17.1c0,3.1-0.3,6.2-2,8.7c-1.7,2.4-4.4,3.9-7.1,5c-5.5,2.2-11.5,3-17.4,2.5c0.6,3.7,1.1,7.8-1.1,10.9
			c-1.6,2.3-4.3,3.5-7.1,3.9c-2.8,0.4-5.5-0.1-8.3-0.5c0.7,3.6-1.8,7.6-5.4,8.5c-0.9,0.2-1.9,0.3-2.8,0.6c-0.9,0.3-1.7,0.9-2.4,1.5
			c-5.7,4.9-5.9,12.6-7.1,20c-0.1,0-0.2,0.1-0.3,0.1c0-1.4,0.1-3,0.3-4.8c1.5-5.3,1.5-5.3,1.5-5.3s-9.9,3.9-18.5,3.7
			C129.6,226.3,131.1,224.7,132.3,222.8z"/>
		<path fill="#EC6092" d="M79.2,194.1c3.3,3.2,8.6,4,12.7,2c4.1-2,6.7-6.7,6.2-11.3c5,2,11.2,1,15.1-2.6c4-3.6,5.4-9.9,3-14.8
			c4.6-0.7,9.2-1.9,13.1-4.5c3.9-2.6,6.9-6.7,7.4-11.3c0.1-1.6-0.1-3.2-0.6-4.7c7-1,14-1.5,20.8,0.9c0.2,0.1,0.5,0.2,0.8,0.3
			c1.2,3.8,1.6,7.8,0.4,11.6c-1.8,5.7-7.9,10.2-13.7,8.8c0.1,4.7-1.9,9.4-5.2,12.7s-8,5.3-12.7,5.2c1.2,4.6,2.2,10-0.8,13.7
			c-2.5,3-6.8,3.6-10.7,3c0,3.8-0.7,7.7-2,11.3c-0.9,2.5-2.1,4.9-3.9,6.8c-2.3-1.3-4.8-2.8-7.6-4.5c-4.7-2.8-7-3.4-8.1-3.2
			c-2.1-1.3-4.4-2.2-6.7-3.2c-4.7-2-9.2-4.6-13.3-7.6c-0.1-0.1-0.3-0.2-0.4-0.3c0.1-0.1,0.1-0.2,0.1-0.4
			C74.6,199,76.6,196.3,79.2,194.1z"/>
		<path fill="#F48D47" d="M190.7,213.9c-3.8-0.2-7.8-0.5-11.1-2.6c0,1.1-0.5,2.2-1,3.1c-4,6.9-13.2,10.1-20.6,7.3
			c-0.5,5.5-5.6,9.3-10.7,11.4c-0.8,0.3-1.6,0.6-2.4,0.9c1.1-7.4,1.4-15.2,7.1-20c0.7-0.6,1.5-1.2,2.4-1.5c0.9-0.3,1.9-0.4,2.8-0.6
			c3.6-0.9,6.1-4.9,5.4-8.5c2.7,0.4,5.5,0.8,8.3,0.5c2.8-0.4,5.5-1.6,7.1-3.9c2.1-3.1,1.6-7.2,1.1-10.9c5.9,0.5,11.9-0.3,17.4-2.5
			c2.7-1.1,5.5-2.6,7.1-5c1.7-2.5,2-5.6,2-8.7c3.8,4.1,7.1,8.8,9.5,14.5c3.5,8.1,2.5,15.1-0.8,21c-1.4,1.4-3,2.5-4.7,3.4
			C203.8,214.7,197.1,214.3,190.7,213.9z"/>
		<path fill="#E52F89" d="M147.3,233.2c5.1-2.1,10.2-5.9,10.7-11.4c7.4,2.8,16.7-0.5,20.6-7.3c0.6-1,1-2,1-3.1
			c3.2,2,7.2,2.3,11.1,2.6c6.4,0.4,13.1,0.7,18.7-2.1c1.8-0.9,3.4-2.1,4.7-3.4c-8,14.5-30,22.4-35.1,23.1c-7.3,1-14.9,1.8-16,4.3
			c-0.4,0.9-0.7,2.1-0.2,3.5c-0.6,0.7-1.1,1.5-1.7,2.2c-1.3,1.5-3.1,2.4-4.9,3.2c-2.5,1-5.2,1.6-7.9,1.9c-1.9-1.4-3.7-3.6-3.8-10.5
			c0.1-0.7,0.2-1.3,0.3-2C145.7,233.7,146.5,233.5,147.3,233.2z"/>
		<path fill="#F38459" d="M161.2,241.4c0.6-0.7,1.1-1.5,1.7-2.2c0.8,2.5,4,5.6,13,7.9c7.5,2.6,8.1,4.6,3.3,7.9
			c-4.8,3.3-12.4,7.4-15.8,7.4s-7.1,4.1-7.7,7.5c-0.6,3.4-2.3,5.6-4.3,5.8c-2,0.3-5.6-0.1-5.6-0.1s-0.9,2.8-3.4,5.8
			c-2.6,3.1-5.9,1.3-5.9,1.3s-3.5,6.1-6.2,6.4c-2.6,0.2-7-6.3,2.6-15.4c9.7-9.1,26.6-15.6,25.8-19c-0.8-3.4-4.4-3.4-7.5-6.3
			c-0.8-0.8-1.8-1.3-2.8-2c2.7-0.2,5.4-0.9,7.9-1.9C158.1,243.9,159.9,242.9,161.2,241.4z"/>
		<path fill="#48BC5B" d="M115.1,203.1c3.8,0.6,8.2,0,10.7-3c3-3.7,2-9.1,0.8-13.7c4.7,0,9.4-1.9,12.7-5.2s5.2-8,5.2-12.7
			c5.8,1.4,11.9-3.1,13.7-8.8c1.2-3.8,0.8-7.8-0.4-11.6c5.4,1.8,13.5,4,22.1,7.7c0,0.3,0,0.6-0.1,0.9c-0.7,4.4-3.4,8.3-6.6,11.5
			c-2.4,2.5-5.5,4.7-9,4.7c1.2,4.9-0.1,10.5-3.4,14.3c-3.3,3.9-8.6,5.9-13.7,5.4c1.7,5,3.2,11-0.1,15.2c-2.8,3.6-8,4.1-12.6,3.7
			c1,3.8,0.1,7.9-2,11.2c-1.2,1.9-2.7,3.5-4.4,4.9c-0.2,0-0.4,0-0.6,0c-6.4-0.3-11.6-2.7-18.1-6.5c1.8-1.9,3.1-4.3,3.9-6.8
			C114.4,210.8,115,207,115.1,203.1z"/>
		<path fill="#15B5F0" d="M212.6,182.5C212.6,182.5,212.6,182.5,212.6,182.5c-2-3.5-4.4-6.7-7.1-9.6c-7.4-8-16.8-13.3-25.7-17.1
			c-8.6-3.6-16.7-5.8-22.1-7.7c-0.2-0.1-0.5-0.2-0.8-0.3c-0.4-0.1-0.8-0.2-1.2-0.3c-1.6-1.7-2.7-3.1-3.3-4
			c-5.4-8.7-30.1-46.4,4.9-90.4c27.8-28.9,39.5-19.8,39.5-19.8s-20.3,17.4-25.6,30.3c-5.4,12.9-9.4,35.8-1.7,54.9
			C177.2,137.8,207.1,158.9,212.6,182.5z"/>
		<path fill="#FFBC25" d="M68.1,151.8c0.6,3.5-1.6,7.3-5,8.4c-3.4,1.1-7.4-0.5-9.1-3.6c-1.3,4.6-4.5,8.6-8.8,10.7
			c-3.3,1.7-7.1,2.2-10.7,1.6c-1.4-5-2.3-9.4-2-12.3c0.2-2.9,0.7-7.3,1.3-12.3c0.5-0.1,0.9-0.1,1.4-0.2c2.9-0.5,5.9-1.2,8.2-2.9
			c2.4-1.7,4-4.8,3.2-7.6c2.6,1.2,5.9,0.9,8.2-0.7s3.7-4.6,3.4-7.5c4.7,1,9.8,1.9,14.2,0c2.3-1,4.3-2.8,6-4.7
			c1.4-1.6,2.7-3.3,3.8-5.1c0.2,7.1,0.4,13.7,0.8,15.3c0.7,2.9,4.2,7.7,6.6,10.6c-0.3,3.6-2,7.1-4.7,9.5
			C80.4,154.8,73.1,155.2,68.1,151.8z"/>
		<path fill="#7C9CB7" d="M51.3,214.8c-0.6,0-1.3,0-1.9,0c0-3.8-0.2-6.8-0.4-7.5c-0.2-0.8-2.9-6.9-6.1-14.8c1.5,0,2.9,0,4.3-0.1
			c4.6-0.2,9.4-0.8,13.4-3.2s7-6.8,6.5-11.4c4.1,2.3,9.4,2.3,13.5,0c4.1-2.3,6.9-6.8,7.2-11.5c5,1.6,10.9,0.6,15.1-2.6
			c4.2-3.2,6.7-8.6,6.4-13.9c0-0.2,0-0.5-0.1-0.7c2.1,0.3,4.4,0.4,6.8,0.4c6.6-0.1,13.4-1.6,20.2-2.6c0.5,1.5,0.8,3.1,0.6,4.7
			c-0.4,4.6-3.5,8.8-7.4,11.3c-3.9,2.6-8.5,3.8-13.1,4.5c2.4,4.8,1,11.1-3,14.8c-4,3.6-10.1,4.6-15.1,2.6c0.5,4.5-2.1,9.3-6.2,11.3
			c-4.1,2-9.4,1.2-12.7-2c-2.5,2.1-4.6,4.9-5.9,7.9c-0.1,0.1-0.1,0.2-0.1,0.4c-0.5-0.3-1.1-0.5-1.5-0.1c-0.2,0.2-0.4,0.5-0.5,0.8
			c-0.8,2.2-1.6,4.5-2.1,6.7c-1.9,1.9-4.4,3.2-6.9,3.9C58.6,214.7,54.9,214.8,51.3,214.8z"/>
	</g>
	<path fill="#88391E" d="M110.2,264.2c4.2-1.9,20.9-10.9,20.9-10.9s-2.7-6.2-4.6-11.6c-0.9-2.6-0.9-8.6-0.6-14.2
		c0.4,0,0.9,0.1,1.3,0.1c8.7,0.4,19.1-3.7,19.1-3.7s0,0-1.5,5.3c-0.3,3.2-0.4,5.7-0.3,7.8c-0.4,9.1,1.7,18.3,1.7,18.3
		s-14.4,6-17.8,11c-3.4,5-1.6,10.6-6.1,11.1c-4.5,0.5-4.2-1.5-7.4-2.9c-1.8,1.4-2.2,8.4-4.7,8.6c-2.5,0.2-2.7-2.6-2.7-2.6
		s-2.6,3.6-8.3,8C97.5,275.9,106,266.1,110.2,264.2z"/>
	<path fill="#5E212A" d="M26.6,53.7c0.1,0.5,0.3,1,0.5,1.5c0.9,2,2.3,3.4,3.1,3c0.9-0.4,0.8-2.3-0.1-4.4c-0.3-0.7-0.7-1.3-1.1-1.8
		c0.1,0,0.1-0.1,0.2-0.1c2.8-1,8.5,0.1,8.5,0.1c0.7,4.5-6.8,8.8-9.6,9.6c-2.8,0.8-4.3-1.4-5.5-4C22.7,57.7,24.5,55.4,26.6,53.7z"/>
</g>
</svg>
