<?xml version="1.0" encoding="utf-8"?>
<!-- Generator: Adobe Illustrator 24.2.1, SVG Export Plug-In . SVG Version: 6.00 Build 0)  -->
<svg version="1.1" id="Layer_1" xmlns="http://www.w3.org/2000/svg" xmlns:xlink="http://www.w3.org/1999/xlink" x="0px" y="0px"
	 viewBox="0 0 281.8 399.2" enable-background="new 0 0 281.8 399.2" xml:space="preserve">
<g>
	<path fill="#FD911C" d="M241.9,218.9c-0.1-0.3-0.1-0.6-0.1-0.8c-0.3-1.4-0.6-2.7-0.9-3.9c4.2-2.6,11.7-8,11.9-13.1
		c0.3-7.2-0.3-17.9-14.8-29.2c-14.5-18.2-32.7-41.1-27.3-64.7c5.3-23.6,21.1-82.1,65.7-78.9c-9.7,7.5-39.3,24.5-33.3,58.1
		s16,29.9,25.5,65.4c9.4,35.5,19.2,56,9.1,73.2s-25.2,28.6-35.7,29.8c-2.8,0.3-4.8,0.1-6.3-0.3C236.8,251,244,229.3,241.9,218.9z"/>
	<path fill="#FF902E" d="M127.3,35.6c0,0,4.7-7.5,3.1-12.9c-0.9-3.2-4.9-7-9.2-9.7c12.7,3,62.1,15.8,71.6,33.5
		c-8.5,5-19.4,3.1-34.8-4.4c-3.8-0.9-2.5,5.2,0.6,6.8c3.1,1.6,25.4,23.6,24.5,29.2c-0.9,5.6-17.2-0.3-34.5-14.4
		c-1.6,2.2,11.9,23.5,12.2,32.6c0.3,9.1,1.9,14.1-0.6,13.2c-2.5-0.9-18-14.7-24.7-26.7c-2.6,3.8-2.6,9.7,1.8,19.1
		c-0.9,5-2.2,6.6-3.8,3.8c-1.6-2.8-18.2-21.3-19.8-27.3c-1.6-6-5.6-18.5-7.5-24.5c-1.9-6-2.8-9.4-2.8-9.4s-0.1-0.1-0.2-0.2
		C114.8,45.6,124.8,43.2,127.3,35.6z"/>
	<path fill="#893A94" d="M127.3,35.6c0,0,4.7-7.5,3.1-12.9c-1.6-5.3-11.9-12.6-17.6-13c-5.6-0.4-29.1-1.2-32.4-3.3s-8-6.2-9.6-6.4
		c-1.6-0.2-8.2,0.5,0,12.4c5.3,5.3,6.3,5.4,6.3,5.4s-6,3.4-5.6,5.3S76.4,38.4,92,42.5S123.9,45.7,127.3,35.6z"/>
	<path fill="#0093DF" d="M112,32.5c0,0-5,0.2-7.8-5.9c-0.9-4.2-2.5-11.1,2.5-8.6C111.3,19.6,114.8,29.3,112,32.5z"/>
	<path fill="#0093DF" d="M36.8,66.5c19.4,9.6,43.8,38.6,54.4,51.9c-0.4,3-0.4,6,0.5,8.6c2.1,6,5.7,13.6,8.5,19.5
		c-3.5-0.4-7.2-1.3-9.3-3.4c-5.1-5-19.7-21.4-26.4-30.6S47.3,89.5,47.3,89.5s-6.8,2.1-8.3,0.5c-1.5-1.5-2.8-5.1-2.8-5.1
		s-8.1,1.8-9.6-1.3c-1.5-3.1,0.4-7.5-2.6-9.1c-3-1.7-12.5-6.7-13.3-9.5C9.7,62.3,11.4,53.9,36.8,66.5z"/>
	<path fill="#C1DC33" d="M178.5,161.5c0,0-3,7.8-12.8,7.1c-9.7-0.6-19.5-7.2-22-11.3c-5.3,1.9-8.5,1.9-13.2,0
		c-4.7-1.9-9.7-5.3-9.7-5.3s-16.7,0-21.7,0s-46.2-28.6-56.9-31.4s-24.2-10.7-41.5,0c0,0-4.1,9.7,7.9,12.3c6,0.7,9.1-2.7,9.1-2.7
		s-0.6,7.8,3.5,7.8c4.1,0,9.1-4.4,11-2.5c1.9,1.9,4.1,9.7,10.1,9.1c6-0.6,9.1-6.9,11-4.4s38,29.5,42.1,31.1
		c4.1,1.6,18.4,2.7,18.4,2.7l2.9,8.2c0,0,17.3,5.5,21.1,0c4.7,3.9,9.7,11.1,16.7,10.8s11.6-6,11.6-6s18,13.2,26.9,3.3
		s8.8-16.2,8.8-16.2L178.5,161.5z"/>
	<g>
		<path fill="#F83A3F" d="M101.2,107.5c2.5-0.1,5-0.3,7.5-0.4c1-0.1,2.1-0.1,3,0.4c0.6,0.3,1,0.8,1.4,1.3c1.8,2.4,3.3,5.1,5.4,7.2
			c2.2,2.1,5.4,3.5,8.2,2.4c1.3-0.5,2.5-1.5,4-1.6c1.7-0.1,3.3,1.1,4.2,2.6c0.9,1.5,1.3,3.2,2,4.8c2.4,5.6,8.2,9.5,14.3,9.6
			c3.4,0,6.8-1.2,9.6-3.3c0,2.7,0.1,5.2,0.1,7.1c0,10.5,9.6,15.5,17.6,23.9c0,0-3,7.8-12.8,7.1c-9.7-0.6-19.5-7.2-22-11.3
			c-5.3,1.9-8.5,1.9-13.2,0c-4.7-1.9-9.7-5.3-9.7-5.3s-11.1,0-17.9,0c-2.6-5.7-8.3-16.8-11.1-24.9c-2.1-6.1,0.3-14,2.8-19.7
			C96.7,107.7,99,107.6,101.2,107.5z"/>
		<path fill="#00B1B9" d="M112.8,74.9c0.4,1.3,0.8,2.6,1,3.6c1.6,6,18.2,24.5,19.8,27.3c1.6,2.8,2.8,1.3,3.8-3.8
			c-4.4-9.4-4.4-15.4-1.8-19.1c6.4,11.4,20.7,24.4,24.2,26.4c0.6,6.9,0.9,14.8,1,21.1c-2.7,2.1-6.1,3.3-9.6,3.3
			c-6.1,0-11.9-4-14.3-9.6c-0.7-1.6-1.1-3.3-2-4.8c-0.9-1.5-2.5-2.7-4.2-2.6c-1.4,0.1-2.6,1.1-4,1.6c-2.8,1-6-0.4-8.2-2.4
			c-2.2-2.1-3.6-4.8-5.4-7.2c-0.4-0.5-0.8-1-1.4-1.3c-0.9-0.5-2-0.5-3-0.4c-2.5,0.1-5,0.3-7.5,0.4c-2.2,0.1-4.5,0.2-6.7-0.1
			c1-2.2,1.9-4.1,2.6-5.4C98.9,98.8,107.6,83.9,112.8,74.9z"/>
	</g>
	<path fill="#F72A3D" d="M214.9,257.7c5.2,2.4,11.1,4.2,16.7,4.4c-1.8,3.2-4.2,7-7.1,10.8c-2.8,3.7-4.2,7.4-4.9,11.1
		c-0.9,0.1-1.8,0.2-2.7,0.3c-5.9,0.4-11.8,0.4-17.7-0.2c-1.5-0.1-3-0.3-4.5-0.7c-0.2-8.3-0.1-16.6-1.1-21.1
		C201.2,263.2,208.9,262.3,214.9,257.7z"/>
	<path fill="#2955B5" d="M216.9,284.3c0.9-0.1,1.8-0.2,2.7-0.3c-1,5-0.7,10.2-0.9,15.7c-0.4,9.6,15.1,19.7,20.5,22.6
		c5.4,2.9,8.8,8,8,13.8c-0.8,5.9-16.3,15.5-23,17.6c-6.7,2.1-9.6,14.2-12.2,18s-7.1,2.1-7.1,2.1s-1.7,2.9-5.9,10.1
		c-4.2,7.1-4.2,2.5-8,1.7c-3.8-0.8-3.4,4.6-6.3,5.9c-2.9,1.3-0.8-3.4-0.8-10.9c0-7.5,9.2-15.5,11.7-19.7
		c2.5-4.2,12.6-11.7,18.4-17.6c5.9-5.9,6.7-10.5,6.7-15.1c0-4.6-13.8-13.4-21.4-20.7c-3.8-3.7-4.5-13.9-4.8-24.1
		c1.5,0.3,3,0.5,4.5,0.7C205,284.7,211,284.8,216.9,284.3z"/>
	<path fill="#8F7DCC" d="M116.6,182c0,0,17.3,5.5,21.1,0c4.7,3.9,9.7,11.1,16.7,10.8s11.6-6,11.6-6s18,13.2,26.9,3.3
		c8.9-9.9,8.8-16.2,8.8-16.2c10.9,4.5,22,8.4,26.3,9.8c-0.8,3.2-2,6.3-3.2,9.4c-0.7,1.7-1.4,3.5-2.6,5c-2.4,2.9-6.3,4-10,4.6
		c-4.9,0.8-9.9,1.1-14.8,0.7c1.8,3.9-0.4,8.9-4,11.2c-3.6,2.4-8.2,2.6-12.5,2.1c-5.4-0.6-10.7-2.4-15.4-5.3c0.8,5.1-4,9.4-8.8,11.4
		c-5.3,2.2-11.2,3-16.9,2.3c-12.1-16-23-36.9-22.7-40.9C116.9,183.7,116.8,182.9,116.6,182z"/>
	<path fill="#FD6C6F" d="M156.5,223c4.8-2,9.6-6.3,8.8-11.4c4.7,2.8,10,4.6,15.4,5.3c4.3,0.5,8.9,0.2,12.5-2.1
		c3.6-2.4,5.8-7.3,4-11.2c5,0.3,9.9,0.1,14.8-0.7c3.7-0.6,7.6-1.7,10-4.6c1.2-1.4,1.9-3.2,2.6-5c1.2-3,2.4-6.2,3.2-9.4
		c0.8,0.3,1.4,0.5,1.7,0.6c2.9,1.1,8.4,3.9,9.6,9.4c-1.7,9.6,0.4,15.1,2.5,24.3c0.1,0.2,0.1,0.5,0.1,0.8c-1.3,2.9-3.2,5.6-5.6,7.7
		c-5.2,4.4-12.7,5.9-19,3.4c-1.8-0.7-3.9-1.7-5.4-0.6c-0.5,0.3-0.8,0.8-1.2,1.3c-4.8,6.5-14.2,9.2-21.8,6.3c0.9,4-2.9,7.5-6.6,9.2
		c-3.4,1.6-7,2.4-10.7,2.6c-4.3-1.6-8.9-3.3-13.7-5.6c-5.5-2.7-12.1-9.7-18.3-17.9C145.3,225.9,151.2,225.2,156.5,223z"/>
	<path fill="#00B3E9" d="M188.9,237c7.6,2.9,16.9,0.2,21.8-6.3c0.4-0.5,0.7-1,1.2-1.3c1.5-1.1,3.6-0.1,5.4,0.6
		c6.3,2.5,13.8,1,19-3.4c2.5-2.1,4.3-4.8,5.6-7.7c2.3,11.3-6.4,36.1-6.4,36.1s-1.4,3-3.8,7.2c-5.7-0.2-11.5-2-16.7-4.4
		c-6,4.6-13.7,5.5-21.4,4.7c-0.2-0.8-0.4-1.5-0.6-2c-2.5-5.3-10.9-7.8-21.3-11.5c3.7-0.2,7.4-1.1,10.7-2.6
		C186,244.5,189.8,241,188.9,237z"/>
	<g>
		<path fill="#A3321A" d="M175.3,268.9c-0.7,5.2-6.7,8-11.9,8.1c-2.7,0-5.4-0.5-7.9-1.5c-0.4-2-0.7-4.1-0.9-6.3c-1-13,1-20,4.2-25.6
			c16,7.6,30.6,9.4,34.1,16.8c1,2.1,1.4,6.2,1.5,11.1c-1.9,1.1-4,1.9-6.1,2.1C183.5,274.2,178.6,272.4,175.3,268.9z"/>
		<path fill="#F2175A" d="M132.8,381.9c6.7-15.1,10.9-22.2,18-32.3c7.1-10.1,15.2-16.3,18.3-23c3.1-6.7,4.3-15.8,3.9-19
			c-0.2-1.3-3-4.2-6.4-8.6c1.6,0.6,3.1,1.2,4.7,1.7c3.5,1.1,7.2,2.1,10.9,2.1c2.1,0,4.1-0.4,6-1.1c-0.4,8.1,0.2,21.2,0.2,21.2
			s7.1,9.2,4.4,13.4s-9,1.3-14.4,5c-5.4,3.8-13,9.2-13.8,13.8c-0.8,4.6,1.7,13.8,0,18c-1.7,4.2-1.3,5-8.4,1.7
			c-1.7,1.7-3.8,15.5-5.9,17c-2.1,1.5-3.8,1.1-5-2.7c-1.3-3.8-6.3,3.5-6.3,3.5s-3.8,7.4-6.3,6.6C130.3,398.3,126.1,397,132.8,381.9z
			"/>
		<path fill="#FF8F1F" d="M171.4,300.7c-1.6-0.5-3.2-1.1-4.7-1.7c-4.1-5.4-9.1-13.2-11.2-23.5c2.5,1,5.2,1.5,7.9,1.5
			c5.2,0,11.2-2.9,11.9-8.1c3.3,3.5,8.2,5.3,13,4.8c2.2-0.2,4.3-1,6.1-2.1c0.2,4.5,0.1,9.8,0.3,14.9c-3.1,4.5-5.9,9.2-6.2,12.1
			c-0.1,0.9-0.2,2-0.2,3.1c-1.9,0.7-4,1.1-6,1.1C178.5,302.8,174.9,301.8,171.4,300.7z"/>
	</g>
</g>
</svg>
