<?xml version="1.0" encoding="utf-8"?>
<!-- Generator: Adobe Illustrator 24.2.1, SVG Export Plug-In . SVG Version: 6.00 Build 0)  -->
<svg version="1.1" id="Layer_1" xmlns="http://www.w3.org/2000/svg" xmlns:xlink="http://www.w3.org/1999/xlink" x="0px" y="0px"
	 viewBox="0 0 202 309.3" style="enable-background:new 0 0 202 309.3;" xml:space="preserve">
<style type="text/css">
	.st0{fill:#FF6600;}
	.st1{fill:#4FAFA2;}
	.st2{fill:#FFF23C;}
	.st3{fill:#66CC37;}
</style>
<image style="display:none;overflow:visible;enable-background:new    ;" width="1534" height="2042" xlink:href="374486A9B431D8D6.jpeg"  transform="matrix(0.5322 0 0 0.5322 -974.0999 -906.6658)">
</image>
<g>
	<path class="st0" d="M104.6,32.7h51c2.9,0,5.3-2.3,5.3-5.3s-2.3-5.3-5.3-5.3h-51c-2.9,0-5.3,2.3-5.3,5.3S101.6,32.7,104.6,32.7z"/>
	<path class="st0" d="M105.5,22h51c2.9,0,5.3-2.3,5.3-5.3s-2.3-5.3-5.3-5.3h-51c-2.9,0-5.3,2.3-5.3,5.3S102.6,22,105.5,22z"/>
	<path class="st0" d="M114,10.6h33.9c2.9,0,5.3-2.3,5.3-5.3S150.8,0,147.9,0H114c-2.9,0-5.3,2.3-5.3,5.3S111.1,10.6,114,10.6z"/>
	<path class="st0" d="M142.4,38.1c0,2.9,2.3,5.3,5.3,5.3h28.1c2.9,0,5.3-2.3,5.3-5.3s-2.3-5.3-5.3-5.3h-28.2
		C144.7,32.8,142.4,35.2,142.4,38.1z"/>
	<path class="st0" d="M196.8,59.4c0-2.2-1.4-4.2-3.4-4.9c1.9-0.7,3.4-2.7,3.4-4.9c0-2.9-2.3-5.3-5.3-5.3h-29.8
		c-2.9,0-5.3,2.3-5.3,5.3c0,2.2,1.4,4.2,3.4,4.9c-1.9,0.7-3.4,2.7-3.4,4.9s1.4,4.2,3.4,4.9c-1.9,0.7-3.4,2.7-3.4,4.9
		c0,1.7,0.7,3.2,1.9,4.1c-1.2,0.9-1.9,2.4-1.9,4.1c0,2.9,2.3,5.3,5.3,5.3h29.9c2.9,0,5.3-2.3,5.3-5.3c0-1.7-0.7-3.2-1.9-4.1
		c1.2-0.9,1.9-2.4,1.9-4.1c0-2.2-1.4-4.2-3.4-4.9C195.4,63.6,196.8,61.6,196.8,59.4z"/>
	<path class="st0" d="M155.5,148.4h-51c-2.9,0-5.3,2.3-5.3,5.3s2.3,5.3,5.3,5.3h51c2.9,0,5.3-2.3,5.3-5.3S158.4,148.4,155.5,148.4z"
		/>
	<path class="st0" d="M161.7,164.3c0-2.9-2.3-5.3-5.3-5.3h-51c-2.9,0-5.3,2.3-5.3,5.3s2.3,5.3,5.3,5.3h51
		C159.3,169.6,161.7,167.2,161.7,164.3z"/>
	<path class="st0" d="M114,170.5c-2.9,0-5.3,2.3-5.3,5.3s2.3,5.3,5.3,5.3h33.9c2.9,0,5.3-2.3,5.3-5.3s-2.3-5.3-5.3-5.3H114z"/>
	<path class="st0" d="M175.8,137.7h-28.1c-2.9,0-5.3,2.3-5.3,5.3s2.3,5.3,5.3,5.3h28.1c2.9,0,5.3-2.3,5.3-5.3
		S178.6,137.7,175.8,137.7z"/>
	<path class="st0" d="M181.1,90.6c0-2.9-2.3-5.3-5.3-5.3h-28.1c-2.9,0-5.3,2.3-5.3,5.3s2.3,5.3,5.3,5.3h28.1
		C178.6,95.8,181.1,93.4,181.1,90.6z"/>
	<path class="st0" d="M196.8,103.7c0-2.9-2.3-5.3-5.3-5.3h-29.8c-2.9,0-5.3,2.3-5.3,5.3c0,1.7,0.7,3.2,1.9,4.1
		c-1.2,0.9-1.9,2.4-1.9,4.1c0,2.2,1.4,4.2,3.4,4.9c-1.9,0.7-3.4,2.7-3.4,4.9s1.4,4.2,3.4,4.9c-1.9,0.7-3.4,2.7-3.4,4.9
		c0,2.9,2.3,5.3,5.3,5.3h29.9c2.9,0,5.3-2.3,5.3-5.3c0-2.2-1.4-4.2-3.4-4.9c1.9-0.7,3.4-2.7,3.4-4.9s-1.4-4.2-3.4-4.9
		c1.9-0.7,3.4-2.7,3.4-4.9c0-1.7-0.7-3.2-1.9-4.1C196.1,106.8,196.8,105.3,196.8,103.7z"/>
	<path class="st0" d="M149.4,103.7c0-2.9-2.3-5.3-5.3-5.3h-7c-2.9,0-5.3,2.3-5.3,5.3c0,1.1,0.3,2.1,0.9,3h-0.9
		c-2.9,0-5.3,2.3-5.3,5.3c0,1.9,1.1,3.6,2.6,4.6h-6.2c-2.9,0-5.3,2.3-5.3,5.3c0,1.9,1.1,3.6,2.6,4.6h-4.4c-2.9,0-5.3,2.3-5.3,5.3
		c0,1.9,1.1,3.6,2.6,4.6h-15h-15c1.5-0.9,2.6-2.6,2.6-4.6c0-2.9-2.3-5.3-5.3-5.3H76c1.5-0.9,2.6-2.6,2.6-4.6c0-2.9-2.3-5.3-5.3-5.3
		h-6.2c1.5-0.9,2.6-2.6,2.6-4.6c0-2.9-2.3-5.3-5.3-5.3h-0.9c0.5-0.8,0.9-1.8,0.9-3c0-2.9-2.3-5.3-5.3-5.3h-7c-2.9,0-5.3,2.3-5.3,5.3
		c0,1.7,0.7,3.2,1.9,4.1c-1.2,0.9-1.9,2.4-1.9,4.1c0,2.2,1.4,4.2,3.4,4.9c-1.9,0.7-3.4,2.7-3.4,4.9s1.4,4.2,3.4,4.9
		c-1.9,0.7-3.4,2.7-3.4,4.9c0,2.9,2.3,5.3,5.3,5.3h27.3c-1.5,0.9-2.6,2.6-2.6,4.6c0,2.9,2.3,5.3,5.3,5.3H98h15.8
		c2.9,0,5.3-2.3,5.3-5.3c0-1.9-1.1-3.6-2.6-4.6h27.3c2.9,0,5.3-2.3,5.3-5.3c0-2.2-1.4-4.2-3.4-4.9c1.9-0.7,3.4-2.7,3.4-4.9
		s-1.4-4.2-3.4-4.9c1.9-0.7,3.4-2.7,3.4-4.9c0-1.7-0.7-3.2-1.9-4.1C148.6,106.8,149.4,105.3,149.4,103.7z"/>
	<path class="st0" d="M92.3,22.2h-51c-2.9,0-5.3,2.3-5.3,5.3s2.3,5.3,5.3,5.3h51c2.9,0,5.3-2.3,5.3-5.3S95.2,22.2,92.3,22.2z"/>
	<path class="st0" d="M40.4,22h51c2.9,0,5.3-2.3,5.3-5.3s-2.3-5.3-5.3-5.3h-51c-2.9,0-5.3,2.3-5.3,5.3S37.5,22,40.4,22z"/>
	<path class="st0" d="M49,10.6h33.9c2.9,0,5.3-2.3,5.3-5.3S85.9,0,82.9,0H49c-2.9,0-5.3,2.3-5.3,5.3S46.1,10.6,49,10.6z"/>
	<path class="st0" d="M77.3,39.7c0,1.9,1.1,3.6,2.6,4.6H52.7c-2.9,0-5.3,2.3-5.3,5.3c0,2.2,1.4,4.2,3.4,4.9
		c-1.9,0.7-3.4,2.7-3.4,4.9s1.4,4.2,3.4,4.9c-1.9,0.7-3.4,2.7-3.4,4.9c0,1.7,0.7,3.2,1.9,4.1c-1.2,0.9-1.9,2.4-1.9,4.1
		c0,2.9,2.3,5.3,5.3,5.3h7c2.9,0,5.3-2.3,5.3-5.3c0-1.1-0.3-2.1-0.9-3H65c2.9,0,5.3-2.3,5.3-5.3c0-1.9-1.1-3.6-2.6-4.6h6.2
		c2.9,0,5.3-2.3,5.3-5.3c0-1.9-1.1-3.6-2.6-4.6H81c2.9,0,5.3-2.3,5.3-5.3c0-1.9-1.1-3.6-2.6-4.6h15h15c-1.5,0.9-2.6,2.6-2.6,4.6
		c0,2.9,2.3,5.3,5.3,5.3h4.4c-1.5,0.9-2.6,2.6-2.6,4.6c0,2.9,2.3,5.3,5.3,5.3h6.2c-1.5,0.9-2.6,2.6-2.6,4.6c0,2.9,2.3,5.3,5.3,5.3
		h0.9c-0.5,0.8-0.9,1.8-0.9,3c0,2.9,2.3,5.3,5.3,5.3h7c2.9,0,5.3-2.3,5.3-5.3c0-1.7-0.7-3.2-1.9-4.1c1.2-0.9,1.9-2.4,1.9-4.1
		c0-2.2-1.4-4.2-3.4-4.9c1.9-0.7,3.4-2.7,3.4-4.9s-1.4-4.2-3.4-4.9c1.9-0.7,3.4-2.7,3.4-4.9c0-2.9-2.3-5.3-5.3-5.3h-27.3
		c1.5-0.9,2.6-2.6,2.6-4.6c0-2.9-2.3-5.3-5.3-5.3H98.8H83C79.7,34.4,77.3,36.8,77.3,39.7z"/>
	<path class="st0" d="M21.1,43.4h28.1c2.9,0,5.3-2.3,5.3-5.3s-2.3-5.3-5.3-5.3H21.1c-2.9,0-5.3,2.3-5.3,5.3
		C15.8,41,18.2,43.4,21.1,43.4z"/>
	<path class="st0" d="M0,77.4c0,2.9,2.3,5.3,5.3,5.3h29.9c2.9,0,5.3-2.3,5.3-5.3c0-1.7-0.7-3.2-1.9-4.1c1.2-0.9,1.9-2.4,1.9-4.1
		c0-2.2-1.4-4.2-3.4-4.9c1.9-0.7,3.4-2.7,3.4-4.9s-1.4-4.2-3.4-4.9c1.9-0.7,3.4-2.7,3.4-4.9c0-2.9-2.3-5.3-5.3-5.3H5.3
		c-2.9,0-5.3,2.3-5.3,5.3c0,2.2,1.4,4.2,3.4,4.9c-2,0.8-3.4,2.7-3.4,4.9s1.4,4.2,3.4,4.9C1.4,65.1,0,67,0,69.2
		c0,1.7,0.7,3.2,1.9,4.1C0.8,74.3,0,75.8,0,77.4z"/>
	<path class="st0" d="M92.3,148.4h-51c-2.9,0-5.3,2.3-5.3,5.3s2.3,5.3,5.3,5.3h51c2.9,0,5.3-2.3,5.3-5.3
		C97.6,150.7,95.2,148.4,92.3,148.4z"/>
	<path class="st0" d="M96.7,164.3c0-2.9-2.3-5.3-5.3-5.3h-51c-2.9,0-5.3,2.3-5.3,5.3s2.3,5.3,5.3,5.3h51
		C94.3,169.6,96.7,167.2,96.7,164.3z"/>
	<path class="st0" d="M49,170.5c-2.9,0-5.3,2.3-5.3,5.3s2.3,5.3,5.3,5.3h33.9c2.9,0,5.3-2.3,5.3-5.3s-2.3-5.3-5.3-5.3H49z"/>
	<path class="st0" d="M54.5,143c0-2.9-2.3-5.3-5.3-5.3H21.1c-2.9,0-5.3,2.3-5.3,5.3s2.3,5.3,5.3,5.3h28.1
		C52.2,148.2,54.5,145.9,54.5,143z"/>
	<path class="st0" d="M54.5,90.6c0-2.9-2.3-5.3-5.3-5.3H21.1c-2.9,0-5.3,2.3-5.3,5.3s2.3,5.3,5.3,5.3h28.1
		C52.2,95.8,54.5,93.4,54.5,90.6z"/>
	<path class="st0" d="M40.4,131.5c0-2.2-1.4-4.2-3.4-4.9c1.9-0.7,3.4-2.7,3.4-4.9s-1.4-4.2-3.4-4.9c1.9-0.7,3.4-2.7,3.4-4.9
		c0-1.7-0.7-3.2-1.9-4.1c1.2-0.9,1.9-2.4,1.9-4.1c0-2.9-2.3-5.3-5.3-5.3H5.3c-2.9,0-5.3,2.3-5.3,5.3c0,1.7,0.7,3.2,1.9,4.1
		c-1.2,0.9-1.9,2.4-1.9,4.1c0,2.2,1.4,4.2,3.4,4.9c-1.9,0.7-3.4,2.7-3.4,4.9c0,2.2,1.4,4.2,3.4,4.9c-1.9,0.7-3.4,2.7-3.4,4.9
		c0,2.9,2.3,5.3,5.3,5.3h29.9C38.1,136.7,40.4,134.4,40.4,131.5z"/>
	<path class="st1" d="M65.1,90.6c0,2.9,2.3,5.3,5.3,5.3h4.4c-1.5,0.9-2.6,2.6-2.6,4.6c0,2.9,2.3,5.3,5.3,5.3h6.2
		c-1.5,0.9-2.6,2.6-2.6,4.6c0,2.9,2.3,5.3,5.3,5.3h0.9c-0.5,0.8-0.9,1.8-0.9,3c0,2.9,2.3,5.3,5.3,5.3h7h7c2.9,0,5.3-2.3,5.3-5.3
		c0-1.1-0.3-2.1-0.9-3h0.9c2.9,0,5.3-2.3,5.3-5.3c0-1.9-1.1-3.6-2.6-4.6h6.2c2.9,0,5.3-2.3,5.3-5.3c0-1.9-1.1-3.6-2.6-4.6h4.4
		c2.9,0,5.3-2.3,5.3-5.3s-2.3-5.3-5.3-5.3h-4.4c1.5-0.9,2.6-2.6,2.6-4.6c0-2.9-2.3-5.3-5.3-5.3h-6.2c1.5-0.9,2.6-2.6,2.6-4.6
		c0-2.9-2.3-5.3-5.3-5.3h-0.9c0.5-0.8,0.9-1.8,0.9-3c0-2.9-2.3-5.3-5.3-5.3h-7h-7c-2.9,0-5.3,2.3-5.3,5.3c0,1.1,0.3,2.1,0.9,3h-0.9
		c-2.9,0-5.3,2.3-5.3,5.3c0,1.9,1.1,3.6,2.6,4.6h-6.2c-2.9,0-5.3,2.3-5.3,5.3c0,1.9,1.1,3.6,2.6,4.6h-4.4
		C67.4,85.3,65.1,87.6,65.1,90.6z"/>
	<path class="st2" d="M81.1,90.6c0,1.5,1.2,2.8,2.8,2.8h2.3c-0.8,0.5-1.4,1.4-1.4,2.4c0,1.5,1.2,2.8,2.8,2.8h3.2
		c-0.8,0.5-1.4,1.4-1.4,2.4c0,1.5,1.2,2.8,2.8,2.8h0.5c-0.3,0.4-0.5,0.9-0.5,1.6c0,1.5,1.2,2.8,2.8,2.8h3.7h3.7
		c1.5,0,2.8-1.2,2.8-2.8c0-0.6-0.2-1.1-0.5-1.6h0.5c1.5,0,2.8-1.2,2.8-2.8c0-1-0.6-1.9-1.4-2.4h3.2c1.5,0,2.8-1.2,2.8-2.8
		c0-1-0.6-1.9-1.4-2.4h2.3c1.5,0,2.8-1.2,2.8-2.8s-1.2-2.8-2.8-2.8h-2.3c0.8-0.5,1.4-1.4,1.4-2.4c0-1.5-1.2-2.8-2.8-2.8h-3.2
		c0.8-0.5,1.4-1.4,1.4-2.4c0-1.5-1.2-2.8-2.8-2.8h-0.5c0.3-0.4,0.5-0.9,0.5-1.6c0-1.5-1.2-2.8-2.8-2.8h-3.7H95
		c-1.5,0-2.8,1.2-2.8,2.8c0,0.6,0.2,1.1,0.5,1.6h-0.5c-1.5,0-2.8,1.2-2.8,2.8c0,1,0.6,1.9,1.4,2.4h-3.2c-1.5,0-2.8,1.2-2.8,2.8
		c0,1,0.6,1.9,1.4,2.4h-2.3C82.3,87.8,81.1,89,81.1,90.6z"/>
	<path class="st3" d="M163.5,198.6c0-2.9-2.3-5.3-5.3-5.3h-13.6c-2.9,0-5.3,2.3-5.3,5.3c0,1.3,0.5,2.6,1.3,3.5h-8.9
		c-2.9,0-5.3,2.3-5.3,5.3c0,1.8,0.9,3.4,2.3,4.4c-1.4,0.9-2.3,2.6-2.3,4.4c0,1.3,0.5,2.6,1.3,3.5h-3.1c-2.9,0-5.3,2.3-5.3,5.3
		s2.3,5.3,5.3,5.3h0.1c-0.8,0.9-1.3,2.1-1.3,3.5c0,1.5,0.7,2.9,1.7,3.8c-2,0.7-3.4,2.7-3.4,5c0,2.9,2.3,5.3,5.3,5.3h6.5
		c2.9,0,5.3-2.3,5.3-5.3c0-1.3-0.5-2.6-1.3-3.5h4.8c2.9,0,5.3-2.3,5.3-5.3c0-1.3-0.5-2.6-1.3-3.5h4.8c2.9,0,5.3-2.3,5.3-5.3
		c0-1.3-0.5-2.6-1.3-3.5h3.1c2.9,0,5.3-2.3,5.3-5.3c0-1.8-0.9-3.4-2.3-4.4c1.4-0.9,2.3-2.6,2.3-4.4s-0.9-3.4-2.3-4.4
		C162.5,202.1,163.5,200.5,163.5,198.6z"/>
	<path class="st3" d="M161.7,253.1c0-2.9-2.3-5.3-5.3-5.3h-13.6c-2.9,0-5.3,2.3-5.3,5.3c0,1.3,0.5,2.6,1.3,3.5H130
		c-2.9,0-5.3,2.3-5.3,5.3c0,1.8,0.9,3.4,2.3,4.4c-1.4,0.9-2.3,2.6-2.3,4.4c0,1.3,0.5,2.6,1.3,3.5h-3.1c-2.9,0-5.3,2.3-5.3,5.3
		s2.3,5.3,5.3,5.3h0.1c-0.8,0.9-1.3,2.1-1.3,3.5c0,1.5,0.7,2.9,1.7,3.8c-2,0.7-3.4,2.7-3.4,5c0,0.6,0.1,1.2,0.3,1.7h-9.7
		c0.8-0.9,1.3-2.1,1.3-3.5c0-1.8-0.9-3.4-2.3-4.4c1.4-0.9,2.3-2.6,2.3-4.4s-0.9-3.4-2.3-4.4c1.4-0.9,2.3-2.6,2.3-4.4
		s-0.9-3.4-2.3-4.4c1.4-0.9,2.3-2.6,2.3-4.4s-0.9-3.4-2.3-4.4c1.4-0.9,2.3-2.6,2.3-4.4s-0.9-3.4-2.3-4.4c1.4-0.9,2.3-2.6,2.3-4.4
		c0-1.8-0.9-3.4-2.3-4.4c1.4-0.9,2.3-2.6,2.3-4.4s-0.9-3.4-2.3-4.4c1.4-0.9,2.3-2.6,2.3-4.4s-0.9-3.4-2.3-4.4
		c1.4-0.9,2.3-2.6,2.3-4.4c0-1.8-0.9-3.4-2.3-4.4c1.4-0.9,2.3-2.6,2.3-4.4s-0.9-3.4-2.3-4.4c1.4-0.9,2.3-2.6,2.3-4.4
		c0-1.8-0.9-3.4-2.3-4.4c1.4-0.9,2.3-2.6,2.3-4.4s-0.9-3.4-2.3-4.4c1.4-0.9,2.3-2.6,2.3-4.4c0-2.9-2.3-5.3-5.3-5.3h-8.3h-7H83
		c-2.9,0-5.3,2.3-5.3,5.3c0,1.8,0.9,3.4,2.3,4.4c-1.4,0.9-2.3,2.6-2.3,4.4s0.9,3.4,2.3,4.4c-1.4,0.9-2.3,2.6-2.3,4.4
		c0,1.8,0.9,3.4,2.3,4.4c-1.4,0.9-2.3,2.6-2.3,4.4s0.9,3.4,2.3,4.4c-1.4,0.9-2.3,2.6-2.3,4.4c0,1.8,0.9,3.4,2.3,4.4
		c-1.4,0.9-2.3,2.6-2.3,4.4s0.9,3.4,2.3,4.4c-1.4,0.9-2.3,2.6-2.3,4.4s0.9,3.4,2.3,4.4c-1.4,0.9-2.3,2.6-2.3,4.4
		c0,1.8,0.9,3.4,2.3,4.4c-1.4,0.9-2.3,2.6-2.3,4.4s0.9,3.4,2.3,4.4c-1.4,0.9-2.3,2.6-2.3,4.4s0.9,3.4,2.3,4.4
		c-1.4,0.9-2.3,2.6-2.3,4.4s0.9,3.4,2.3,4.4c-1.4,0.9-2.3,2.6-2.3,4.4s0.9,3.4,2.3,4.4c-1.4,0.9-2.3,2.6-2.3,4.4
		c0,1.3,0.5,2.6,1.3,3.5H65.5c-2.9,0-5.3,2.3-5.3,5.3s2.3,5.3,5.3,5.3H89c2.9,0,5.3-2.3,5.3-5.3c0-1.3-0.5-2.6-1.3-3.5h5.5
		c-0.8,0.9-1.3,2.1-1.3,3.5c0,2.9,2.3,5.3,5.3,5.3H126c2.9,0,5.3-2.3,5.3-5.3c0-0.6-0.1-1.2-0.3-1.7h0.8c2.9,0,5.3-2.3,5.3-5.3
		c0-1.3-0.5-2.6-1.3-3.5h4.8c2.9,0,5.3-2.3,5.3-5.3c0-1.3-0.5-2.6-1.3-3.5h4.8c2.9,0,5.3-2.3,5.3-5.3c0-1.3-0.5-2.6-1.3-3.5h3.1
		c2.9,0,5.3-2.3,5.3-5.3c0-1.8-0.9-3.4-2.3-4.4c1.4-0.9,2.3-2.6,2.3-4.4s-0.9-3.4-2.3-4.4C160.8,256.5,161.7,254.9,161.7,253.1z"/>
	<path class="st3" d="M34.8,221.5c-0.8,0.9-1.3,2.1-1.3,3.5c0,2.9,2.3,5.3,5.3,5.3h4.8c-0.8,0.9-1.3,2.1-1.3,3.5
		c0,2.9,2.3,5.3,5.3,5.3h4.8c-0.8,0.9-1.3,2.1-1.3,3.5c0,2.9,2.3,5.3,5.3,5.3h6.5c2.9,0,5.3-2.3,5.3-5.3c0-2.3-1.4-4.2-3.4-5
		c1-0.9,1.7-2.3,1.7-3.8c0-1.3-0.5-2.6-1.3-3.5h0.1c2.9,0,5.3-2.3,5.3-5.3s-2.3-5.3-5.3-5.3h-3.1c0.8-0.9,1.3-2.1,1.3-3.5
		c0-1.8-0.9-3.4-2.3-4.4c1.4-0.9,2.3-2.6,2.3-4.4c0-2.9-2.3-5.3-5.3-5.3h-8.9c0.8-0.9,1.3-2.1,1.3-3.5c0-2.9-2.3-5.3-5.3-5.3H31.7
		c-2.9,0-5.3,2.3-5.3,5.3c0,1.8,0.9,3.4,2.3,4.4c-1.4,0.9-2.3,2.6-2.3,4.4s0.9,3.4,2.3,4.4c-1.4,0.9-2.3,2.6-2.3,4.4
		c0,2.9,2.3,5.3,5.3,5.3L34.8,221.5L34.8,221.5z"/>
	<path class="st3" d="M68,288.2c0-1.3-0.5-2.6-1.3-3.5h0.1c2.9,0,5.3-2.3,5.3-5.3s-2.3-5.3-5.3-5.3h-3.1c0.8-0.9,1.3-2.1,1.3-3.5
		c0-1.8-0.9-3.4-2.3-4.4c1.4-0.9,2.3-2.6,2.3-4.4c0-2.9-2.3-5.3-5.3-5.3h-8.9c0.8-0.9,1.3-2.1,1.3-3.5c0-2.9-2.3-5.3-5.3-5.3H33.3
		c-2.9,0-5.3,2.3-5.3,5.3c0,1.8,0.9,3.4,2.3,4.4c-1.4,0.9-2.3,2.6-2.3,4.4s0.9,3.4,2.3,4.4c-1.4,0.9-2.3,2.6-2.3,4.4
		c0,2.9,2.3,5.3,5.3,5.3h3.1c-0.8,0.9-1.3,2.1-1.3,3.5c0,2.9,2.3,5.3,5.3,5.3h4.8c-0.8,0.9-1.3,2.1-1.3,3.5c0,2.9,2.3,5.3,5.3,5.3
		h13.6C65.7,293.5,68,291.2,68,288.2z"/>
</g>
</svg>
