<?xml version="1.0" encoding="utf-8"?>
<!-- Generator: Adobe Illustrator 24.2.1, SVG Export Plug-In . SVG Version: 6.00 Build 0)  -->
<svg version="1.0" id="Layer_1" xmlns="http://www.w3.org/2000/svg" xmlns:xlink="http://www.w3.org/1999/xlink" x="0px" y="0px"
	 viewBox="0 0 285 213" style="enable-background:new 0 0 285 213;" xml:space="preserve">
<g>
	<g>
		<rect x="3" y="7.7" style="fill:#2E3192;" width="268.1" height="3.7"/>
	</g>
	<g>
		<g>
			<polygon style="fill:#2E3192;" points="62.7,206.2 59.6,203.7 137,106 214.5,203.7 211.4,206.2 137,112.5 			"/>
		</g>
		<g>
			<path style="fill:#2E3192;" d="M213,13.5L137,109.2L61.1,13.5H213 M221.2,9.5H213H61.1h-8.3L58,16l75.9,95.7l3.1,4l3.1-4
				L216.1,16L221.2,9.5L221.2,9.5z"/>
		</g>
		<g>
			<path style="fill:#FF0000;" d="M202.6,18.5L137,101.2L71.5,18.5H202.6 M213,13.5H61.1l75.9,95.7L213,13.5L213,13.5z"/>
		</g>
		<g>
			<polygon style="fill:#FF0000;" points="66.5,209.1 62.5,205.9 137.1,112 211.5,205.9 207.5,209.1 137,120 			"/>
		</g>
		<g>
			<g>
				<path style="fill:#FFFFFF;" d="M201.5,213c-0.7,0-1.3-0.3-1.8-0.7c-0.1-0.1-0.2-0.2-0.3-0.4c-0.1-0.1-0.2-0.3-0.2-0.4
					c-0.1-0.2-0.1-0.3-0.1-0.5c0-0.2,0-0.3,0-0.5c0-0.7,0.3-1.3,0.7-1.8c0.1-0.1,0.2-0.2,0.4-0.3c0.1-0.1,0.3-0.2,0.4-0.2
					c0.1-0.1,0.3-0.1,0.5-0.1c0.8-0.2,1.7,0.1,2.3,0.7c0.1,0.1,0.2,0.2,0.3,0.4c0.1,0.1,0.2,0.3,0.2,0.4c0.1,0.1,0.1,0.3,0.1,0.5
					c0,0.2,0,0.3,0,0.5s0,0.3,0,0.5c0,0.2-0.1,0.3-0.1,0.5c-0.1,0.1-0.1,0.3-0.2,0.4c-0.1,0.1-0.2,0.3-0.3,0.4
					c-0.1,0.1-0.2,0.2-0.4,0.3c-0.1,0.1-0.3,0.2-0.4,0.2c-0.2,0.1-0.3,0.1-0.5,0.1C201.8,213,201.7,213,201.5,213z"/>
			</g>
			<g>
				<path style="fill:#FFFFFF;" d="M194.2,205.3c-0.9-1.1-0.7-2.7,0.4-3.5l0,0c1.1-0.9,2.6-0.7,3.5,0.4l0,0c0.8,1.1,0.7,2.6-0.4,3.5
					l0,0c-0.5,0.4-1,0.5-1.5,0.5l0,0C195.4,206.2,194.7,205.9,194.2,205.3z M188.8,198.5c-0.9-1.1-0.7-2.7,0.4-3.5l0,0
					c1.1-0.9,2.6-0.7,3.5,0.4l0,0c0.8,1.1,0.7,2.6-0.4,3.5l0,0c-0.5,0.4-1,0.5-1.5,0.5l0,0C190,199.4,189.3,199.1,188.8,198.5z
					 M183.4,191.7c-0.9-1.1-0.7-2.7,0.4-3.5l0,0c1.1-0.9,2.7-0.7,3.5,0.4l0,0c0.9,1.1,0.7,2.7-0.4,3.5l0,0c-0.5,0.4-1,0.5-1.5,0.5
					l0,0C184.6,192.6,183.9,192.3,183.4,191.7z M178,184.9c-0.9-1.1-0.7-2.7,0.4-3.5l0,0c1.1-0.9,2.6-0.7,3.5,0.4l0,0
					c0.8,1.1,0.7,2.7-0.4,3.5l0,0c-0.5,0.4-1,0.5-1.5,0.5l0,0C179.3,185.8,178.5,185.5,178,184.9z M172.7,178.1
					c-0.9-1.1-0.7-2.6,0.4-3.5l0,0c1.1-0.9,2.7-0.7,3.5,0.4l0,0c0.9,1.1,0.7,2.7-0.4,3.5l0,0c-0.5,0.4-1,0.5-1.5,0.5l0,0
					C173.9,179,173.2,178.7,172.7,178.1z M167.3,171.3c-0.9-1.1-0.7-2.6,0.4-3.5l0,0c1.1-0.9,2.7-0.7,3.5,0.4l0,0
					c0.9,1.1,0.7,2.6-0.4,3.5l0,0c-0.5,0.4-1,0.5-1.5,0.5l0,0C168.5,172.3,167.8,171.9,167.3,171.3z M161.9,164.5
					c-0.9-1.1-0.7-2.7,0.4-3.5l0,0c1.1-0.9,2.7-0.7,3.5,0.4l0,0c0.9,1.1,0.7,2.7-0.4,3.5l0,0c-0.5,0.4-1,0.5-1.6,0.5l0,0
					C163.2,165.5,162.4,165.1,161.9,164.5z M156.6,157.7c-0.9-1.1-0.7-2.7,0.4-3.5l0,0c1.1-0.9,2.7-0.7,3.5,0.4l0,0
					c0.9,1.1,0.7,2.7-0.4,3.5l0,0c-0.5,0.4-1,0.5-1.5,0.5l0,0C157.8,158.7,157.1,158.3,156.6,157.7z M151.2,150.9
					c-0.9-1.1-0.7-2.7,0.4-3.5l0,0c1.1-0.8,2.7-0.7,3.5,0.4l0,0c0.9,1.1,0.7,2.7-0.4,3.5l0,0c-0.5,0.4-1,0.5-1.6,0.5l0,0
					C152.4,151.9,151.7,151.6,151.2,150.9z M145.8,144.1c-0.9-1.1-0.7-2.6,0.4-3.5l0,0c1.1-0.8,2.7-0.7,3.5,0.4l0,0
					c0.9,1.1,0.7,2.7-0.4,3.5l0,0c-0.5,0.4-1,0.5-1.5,0.5l0,0C147,145.1,146.3,144.8,145.8,144.1z M140.5,137.3
					c-0.9-1.1-0.7-2.6,0.4-3.5l0,0c1.1-0.9,2.7-0.7,3.5,0.4l0,0c0.9,1.1,0.7,2.7-0.4,3.5l0,0c-0.5,0.4-1,0.5-1.5,0.5l0,0
					C141.7,138.3,140.9,138,140.5,137.3z"/>
			</g>
			<g>
				<path style="fill:#FFFFFF;" d="M137,131.5c-0.7,0-1.3-0.3-1.8-0.7c-0.1-0.1-0.2-0.2-0.3-0.4c-0.1-0.1-0.2-0.3-0.2-0.4
					s-0.1-0.3-0.1-0.5c0-0.2,0-0.3,0-0.5c0-0.7,0.3-1.3,0.7-1.8c0.9-0.9,2.6-0.9,3.5,0c0.5,0.5,0.7,1.1,0.7,1.8
					c0,0.7-0.3,1.3-0.7,1.8C138.3,131.2,137.7,131.5,137,131.5z"/>
			</g>
			<g>
				<path style="fill:#FFFFFF;" d="M76.8,204.1c-1.1-0.9-1.2-2.4-0.4-3.5l0,0c0.9-1.1,2.4-1.2,3.5-0.4l0,0c1.1,0.9,1.2,2.4,0.4,3.5
					l0,0c-0.5,0.6-1.2,0.9-2,0.9l0,0C77.8,204.7,77.3,204.5,76.8,204.1z M82.7,196.8c-1.1-0.9-1.2-2.4-0.4-3.5l0,0
					c0.9-1.1,2.4-1.2,3.5-0.4l0,0c1.1,0.9,1.2,2.4,0.4,3.5l0,0c-0.5,0.6-1.2,0.9-2,0.9l0,0C83.7,197.4,83.1,197.2,82.7,196.8z
					 M88.5,189.5c-1.1-0.9-1.2-2.4-0.4-3.5l0,0c0.9-1.1,2.4-1.2,3.5-0.4l0,0c1.1,0.9,1.2,2.4,0.4,3.5l0,0c-0.5,0.6-1.2,0.9-2,0.9
					l0,0C89.5,190,89,189.9,88.5,189.5z M94.4,182.2c-1.1-0.9-1.2-2.4-0.4-3.5l0,0c0.9-1.1,2.4-1.2,3.5-0.4l0,0
					c1.1,0.9,1.2,2.4,0.4,3.5l0,0c-0.5,0.6-1.2,0.9-2,0.9l0,0C95.4,182.7,94.9,182.6,94.4,182.2z M100.3,174.9
					c-1.1-0.9-1.2-2.4-0.4-3.5l0,0c0.9-1.1,2.4-1.3,3.5-0.4l0,0c1.1,0.9,1.2,2.4,0.4,3.5l0,0c-0.5,0.6-1.2,0.9-2,0.9l0,0
					C101.3,175.4,100.7,175.2,100.3,174.9z M106.1,167.5c-1.1-0.9-1.2-2.4-0.4-3.5l0,0c0.9-1.1,2.4-1.2,3.5-0.4l0,0
					c1.1,0.9,1.2,2.4,0.4,3.5l0,0c-0.5,0.6-1.2,0.9-1.9,0.9l0,0C107.2,168.1,106.6,167.9,106.1,167.5z M112,160.2
					c-1.1-0.9-1.2-2.4-0.4-3.5l0,0c0.9-1.1,2.4-1.2,3.5-0.4l0,0c1.1,0.9,1.2,2.4,0.4,3.5l0,0c-0.5,0.6-1.2,0.9-2,0.9l0,0
					C113,160.8,112.5,160.6,112,160.2z M117.9,152.9c-1.1-0.9-1.2-2.4-0.4-3.5l0,0c0.9-1.1,2.4-1.2,3.5-0.4l0,0
					c1.1,0.9,1.2,2.4,0.4,3.5l0,0c-0.5,0.6-1.2,0.9-2,0.9l0,0C118.9,153.5,118.3,153.3,117.9,152.9z M123.8,145.6
					c-1.1-0.9-1.2-2.4-0.4-3.5l0,0c0.9-1.1,2.4-1.2,3.5-0.4l0,0c1.1,0.9,1.2,2.4,0.4,3.5l0,0c-0.5,0.6-1.2,0.9-1.9,0.9l0,0
					C124.8,146.1,124.2,146,123.8,145.6z M129.6,138.3c-1.1-0.9-1.2-2.4-0.4-3.5l0,0c0.9-1.1,2.4-1.2,3.5-0.4l0,0
					c1.1,0.9,1.3,2.4,0.4,3.5l0,0c-0.5,0.6-1.2,0.9-2,0.9l0,0C130.6,138.8,130.1,138.6,129.6,138.3z"/>
			</g>
			<g>
				<path style="fill:#FFFFFF;" d="M72.5,212c-0.7,0-1.3-0.3-1.8-0.7c-0.5-0.5-0.7-1.1-0.7-1.8c0-0.2,0-0.3,0-0.5s0.1-0.3,0.1-0.5
					c0.1-0.2,0.1-0.3,0.2-0.4c0.1-0.1,0.2-0.3,0.3-0.4c0.6-0.6,1.4-0.8,2.3-0.7c0.2,0,0.3,0.1,0.5,0.1c0.1,0.1,0.3,0.1,0.4,0.2
					c0.1,0.1,0.3,0.2,0.4,0.3c0.1,0.1,0.2,0.2,0.3,0.4c0.1,0.1,0.2,0.3,0.2,0.4c0.1,0.1,0.1,0.3,0.1,0.5c0,0.2,0.1,0.3,0.1,0.5
					c0,0.7-0.3,1.3-0.7,1.8c-0.1,0.1-0.2,0.2-0.4,0.3c-0.1,0.1-0.3,0.2-0.4,0.2c-0.1,0.1-0.3,0.1-0.5,0.1
					C72.8,212,72.7,212,72.5,212z"/>
			</g>
		</g>
		<g>
			<g>
				<path style="fill:#FFFFFF;" d="M187.5,28c-0.7,0-1.3-0.3-1.8-0.7c-0.1-0.1-0.2-0.2-0.3-0.4c-0.1-0.1-0.2-0.3-0.2-0.4
					c-0.1-0.1-0.1-0.3-0.1-0.5s0-0.3,0-0.5c0-0.2,0-0.3,0-0.5s0.1-0.3,0.1-0.5c0.1-0.2,0.1-0.3,0.2-0.4s0.2-0.3,0.3-0.4
					c0.9-0.9,2.6-0.9,3.5,0c0.5,0.5,0.7,1.1,0.7,1.8c0,0.7-0.3,1.3-0.7,1.8c-0.1,0.1-0.2,0.2-0.4,0.3c-0.1,0.1-0.3,0.2-0.4,0.2
					c-0.2,0.1-0.3,0.1-0.5,0.1C187.8,28,187.7,28,187.5,28z"/>
			</g>
			<g>
				<path style="fill:#FFFFFF;" d="M141.1,83.9c-1.1-0.9-1.3-2.4-0.4-3.5l0,0c0.9-1.1,2.4-1.3,3.5-0.4l0,0c1.1,0.9,1.3,2.4,0.4,3.5
					l0,0c-0.5,0.6-1.2,0.9-2,0.9l0,0C142.1,84.4,141.6,84.3,141.1,83.9z M146.7,76.9c-1.1-0.9-1.3-2.4-0.4-3.5l0,0
					c0.9-1.1,2.4-1.3,3.5-0.4l0,0c1.1,0.9,1.3,2.4,0.4,3.5l0,0c-0.5,0.6-1.2,0.9-2,0.9l0,0C147.7,77.4,147.2,77.2,146.7,76.9z
					 M152.3,69.8c-1.1-0.9-1.3-2.4-0.4-3.5l0,0c0.9-1.1,2.4-1.3,3.5-0.4l0,0c1.1,0.9,1.3,2.4,0.4,3.5l0,0c-0.5,0.6-1.2,0.9-2,0.9
					l0,0C153.3,70.3,152.8,70.2,152.3,69.8z M157.9,62.7c-1.1-0.9-1.3-2.4-0.4-3.5l0,0c0.8-1.1,2.4-1.3,3.5-0.4l0,0
					c1.1,0.9,1.3,2.4,0.4,3.5l0,0c-0.5,0.6-1.2,1-2,1l0,0C158.9,63.3,158.4,63.1,157.9,62.7z M163.5,55.7c-1.1-0.9-1.3-2.4-0.4-3.5
					l0,0c0.9-1.1,2.4-1.3,3.5-0.4l0,0c1.1,0.8,1.3,2.4,0.4,3.5l0,0c-0.5,0.6-1.2,0.9-2,0.9l0,0C164.5,56.2,164,56,163.5,55.7z
					 M169.1,48.6c-1.1-0.8-1.3-2.4-0.4-3.5l0,0c0.8-1.1,2.4-1.3,3.5-0.4l0,0c1.1,0.9,1.3,2.4,0.4,3.5l0,0c-0.5,0.6-1.2,1-2,1l0,0
					C170.1,49.2,169.6,49,169.1,48.6z M174.7,41.6c-1.1-0.9-1.3-2.4-0.4-3.5l0,0c0.9-1.1,2.4-1.3,3.5-0.4l0,0
					c1.1,0.9,1.3,2.4,0.4,3.5l0,0c-0.5,0.6-1.2,0.9-2,0.9l0,0C175.7,42.1,175.2,41.9,174.7,41.6z M180.3,34.5
					c-1.1-0.9-1.3-2.4-0.4-3.5l0,0c0.9-1.1,2.4-1.3,3.5-0.4l0,0c1.1,0.9,1.3,2.4,0.4,3.5l0,0c-0.5,0.6-1.2,1-2,1l0,0
					C181.3,35.1,180.8,34.9,180.3,34.5z"/>
			</g>
			<g>
				<path style="fill:#FFFFFF;" d="M137,91.5c-0.7,0-1.3-0.3-1.8-0.7c-0.1-0.1-0.2-0.2-0.3-0.4c-0.1-0.1-0.2-0.3-0.2-0.4
					s-0.1-0.3-0.1-0.5c0-0.2,0-0.3,0-0.5c0-0.2,0-0.3,0-0.5c0-0.2,0.1-0.3,0.1-0.5c0.1-0.2,0.1-0.3,0.2-0.4c0.1-0.1,0.2-0.3,0.3-0.4
					c0.9-0.9,2.6-0.9,3.5,0c0.5,0.5,0.7,1.1,0.7,1.8c0,0.2,0,0.3,0,0.5c0,0.2-0.1,0.3-0.1,0.5s-0.1,0.3-0.2,0.4
					c-0.1,0.1-0.2,0.3-0.3,0.4C138.3,91.2,137.7,91.5,137,91.5z"/>
			</g>
			<g>
				<path style="fill:#FFFFFF;" d="M129.4,83.4c-0.9-1.1-0.7-2.6,0.4-3.5l0,0c1.1-0.9,2.6-0.7,3.5,0.4l0,0c0.9,1.1,0.7,2.7-0.4,3.5
					l0,0c-0.5,0.4-1,0.5-1.6,0.5l0,0C130.6,84.3,129.9,84,129.4,83.4z M123.6,76.2c-0.9-1.1-0.7-2.7,0.4-3.5l0,0
					c1.1-0.9,2.6-0.7,3.5,0.4l0,0c0.9,1.1,0.7,2.6-0.4,3.5l0,0c-0.5,0.4-1,0.6-1.6,0.6l0,0C124.9,77.2,124.1,76.9,123.6,76.2z
					 M117.9,69.1c-0.9-1.1-0.7-2.7,0.4-3.5l0,0c1.1-0.9,2.6-0.7,3.5,0.4l0,0c0.9,1.1,0.7,2.6-0.4,3.5l0,0c-0.5,0.4-1,0.6-1.6,0.6
					l0,0C119.1,70,118.4,69.7,117.9,69.1z M112.2,61.9c-0.9-1.1-0.7-2.6,0.4-3.5l0,0c1.1-0.9,2.7-0.7,3.5,0.4l0,0
					c0.9,1.1,0.7,2.6-0.4,3.5l0,0c-0.5,0.4-1,0.5-1.6,0.5l0,0C113.4,62.8,112.7,62.5,112.2,61.9z M106.5,54.7
					c-0.9-1.1-0.7-2.7,0.4-3.5l0,0c1.1-0.9,2.7-0.7,3.5,0.4l0,0c0.9,1.1,0.7,2.6-0.4,3.5l0,0c-0.5,0.4-1,0.6-1.6,0.6l0,0
					C107.7,55.7,106.9,55.4,106.5,54.7z M100.7,47.6c-0.9-1.1-0.7-2.7,0.4-3.5l0,0c1.1-0.9,2.7-0.7,3.5,0.4l0,0
					c0.9,1.1,0.7,2.6-0.4,3.5l0,0c-0.5,0.4-1,0.6-1.6,0.6l0,0C101.9,48.5,101.2,48.2,100.7,47.6z M95,40.4c-0.9-1.1-0.7-2.6,0.4-3.5
					l0,0c1.1-0.9,2.7-0.7,3.5,0.4l0,0c0.9,1.1,0.7,2.6-0.4,3.5l0,0c-0.5,0.4-1,0.5-1.6,0.5l0,0C96.2,41.3,95.5,41,95,40.4z
					 M89.3,33.2c-0.9-1.1-0.7-2.7,0.4-3.5l0,0c1.1-0.9,2.6-0.7,3.5,0.4l0,0c0.9,1.1,0.7,2.6-0.4,3.5l0,0c-0.5,0.4-1,0.6-1.6,0.6l0,0
					C90.5,34.2,89.8,33.9,89.3,33.2z"/>
			</g>
			<g>
				<path style="fill:#FFFFFF;" d="M85.5,27c-0.7,0-1.3-0.3-1.8-0.7c-0.5-0.5-0.7-1.1-0.7-1.8c0-0.7,0.3-1.3,0.7-1.8
					c0.9-0.9,2.6-0.9,3.5,0c0.5,0.5,0.7,1.1,0.7,1.8c0,0.7-0.3,1.3-0.7,1.8C86.8,26.7,86.2,27,85.5,27z"/>
			</g>
		</g>
	</g>
	<g>
		<g>
			<path style="fill:#FFFFFF;" d="M2.5,5C1.8,5,1.2,4.7,0.7,4.3C0.3,3.8,0,3.2,0,2.5c0-0.7,0.3-1.3,0.7-1.8c0.9-0.9,2.6-0.9,3.5,0
				C4.4,0.9,4.5,1,4.6,1.1c0.1,0.1,0.2,0.3,0.2,0.4C4.9,1.7,4.9,1.9,4.9,2C5,2.2,5,2.3,5,2.5C5,2.7,5,2.8,4.9,3
				c0,0.2-0.1,0.3-0.1,0.5C4.8,3.6,4.7,3.8,4.6,3.9C4.5,4,4.4,4.2,4.3,4.3C3.8,4.7,3.2,5,2.5,5z"/>
		</g>
		<g>
			<path style="fill:#FFFFFF;" d="M248.3,2.5c0-1.4,1.1-2.5,2.5-2.5l0,0c1.4,0,2.5,1.1,2.5,2.5l0,0c0,1.4-1.1,2.5-2.5,2.5l0,0
				C249.4,5,248.3,3.9,248.3,2.5z M227.6,2.5c0-1.4,1.1-2.5,2.5-2.5l0,0c1.4,0,2.5,1.1,2.5,2.5l0,0c0,1.4-1.1,2.5-2.5,2.5l0,0
				C228.7,5,227.6,3.9,227.6,2.5z M206.9,2.5c0-1.4,1.1-2.5,2.5-2.5l0,0c1.4,0,2.5,1.1,2.5,2.5l0,0c0,1.4-1.1,2.5-2.5,2.5l0,0
				C208,5,206.9,3.9,206.9,2.5z M186.2,2.5c0-1.4,1.1-2.5,2.5-2.5l0,0c1.4,0,2.5,1.1,2.5,2.5l0,0c0,1.4-1.1,2.5-2.5,2.5l0,0
				C187.3,5,186.2,3.9,186.2,2.5z M165.5,2.5c0-1.4,1.1-2.5,2.5-2.5l0,0c1.4,0,2.5,1.1,2.5,2.5l0,0c0,1.4-1.1,2.5-2.5,2.5l0,0
				C166.7,5,165.5,3.9,165.5,2.5z M144.8,2.5c0-1.4,1.1-2.5,2.5-2.5l0,0c1.4,0,2.5,1.1,2.5,2.5l0,0c0,1.4-1.1,2.5-2.5,2.5l0,0
				C146,5,144.8,3.9,144.8,2.5z M124.1,2.5c0-1.4,1.1-2.5,2.5-2.5l0,0c1.4,0,2.5,1.1,2.5,2.5l0,0c0,1.4-1.1,2.5-2.5,2.5l0,0
				C125.3,5,124.1,3.9,124.1,2.5z M103.5,2.5c0-1.4,1.1-2.5,2.5-2.5l0,0c1.4,0,2.5,1.1,2.5,2.5l0,0c0,1.4-1.1,2.5-2.5,2.5l0,0
				C104.6,5,103.5,3.9,103.5,2.5z M82.8,2.5c0-1.4,1.1-2.5,2.5-2.5l0,0c1.4,0,2.5,1.1,2.5,2.5l0,0c0,1.4-1.1,2.5-2.5,2.5l0,0
				C83.9,5,82.8,3.9,82.8,2.5z M62.1,2.5c0-1.4,1.1-2.5,2.5-2.5l0,0c1.4,0,2.5,1.1,2.5,2.5l0,0C67.1,3.9,66,5,64.6,5l0,0
				C63.2,5,62.1,3.9,62.1,2.5z M41.4,2.5c0-1.4,1.1-2.5,2.5-2.5l0,0c1.4,0,2.5,1.1,2.5,2.5l0,0c0,1.4-1.1,2.5-2.5,2.5l0,0
				C42.5,5,41.4,3.9,41.4,2.5z M20.7,2.5c0-1.4,1.1-2.5,2.5-2.5l0,0c1.4,0,2.5,1.1,2.5,2.5l0,0c0,1.4-1.1,2.5-2.5,2.5l0,0
				C21.8,5,20.7,3.9,20.7,2.5z"/>
		</g>
		<g>
			<path style="fill:#FFFFFF;" d="M271.5,5c-0.7,0-1.3-0.3-1.8-0.7c-0.1-0.1-0.2-0.2-0.3-0.4c-0.1-0.1-0.2-0.3-0.2-0.4
				c-0.1-0.1-0.1-0.3-0.1-0.5s0-0.3,0-0.5c0-0.7,0.3-1.3,0.7-1.8c0.6-0.6,1.5-0.9,2.3-0.7c0.2,0,0.3,0.1,0.5,0.1
				c0.1,0.1,0.3,0.1,0.4,0.2c0.1,0.1,0.3,0.2,0.4,0.3c0.5,0.5,0.7,1.1,0.7,1.8c0,0.2,0,0.3,0,0.5c0,0.2-0.1,0.3-0.1,0.5
				c-0.1,0.1-0.1,0.3-0.2,0.4c-0.1,0.1-0.2,0.3-0.3,0.4c-0.1,0.1-0.2,0.2-0.4,0.3c-0.1,0.1-0.3,0.2-0.4,0.2
				c-0.2,0.1-0.3,0.1-0.5,0.1C271.8,5,271.7,5,271.5,5z"/>
		</g>
	</g>
	<g>
		<g>
			<path style="fill:#FF0000;" d="M13.5,5c-0.7,0-1.3-0.3-1.8-0.7c-0.1-0.1-0.2-0.2-0.3-0.4c-0.1-0.1-0.2-0.3-0.2-0.4S11.1,3.2,11,3
				s0-0.3,0-0.5c0-0.7,0.3-1.3,0.7-1.8c0.9-0.9,2.6-0.9,3.5,0C15.7,1.2,16,1.8,16,2.5c0,0.2,0,0.3-0.1,0.5c0,0.2-0.1,0.3-0.1,0.5
				c-0.1,0.1-0.1,0.3-0.2,0.4c-0.1,0.1-0.2,0.3-0.3,0.4C14.8,4.7,14.2,5,13.5,5z"/>
		</g>
		<g>
			<path style="fill:#FF0000;" d="M259.3,2.5c0-1.4,1.1-2.5,2.5-2.5l0,0c1.4,0,2.5,1.1,2.5,2.5l0,0c0,1.4-1.1,2.5-2.5,2.5l0,0
				C260.4,5,259.3,3.9,259.3,2.5z M238.6,2.5c0-1.4,1.1-2.5,2.5-2.5l0,0c1.4,0,2.5,1.1,2.5,2.5l0,0c0,1.4-1.1,2.5-2.5,2.5l0,0
				C239.7,5,238.6,3.9,238.6,2.5z M217.9,2.5c0-1.4,1.1-2.5,2.5-2.5l0,0c1.4,0,2.5,1.1,2.5,2.5l0,0c0,1.4-1.1,2.5-2.5,2.5l0,0
				C219,5,217.9,3.9,217.9,2.5z M197.2,2.5c0-1.4,1.1-2.5,2.5-2.5l0,0c1.4,0,2.5,1.1,2.5,2.5l0,0c0,1.4-1.1,2.5-2.5,2.5l0,0
				C198.3,5,197.2,3.9,197.2,2.5z M176.5,2.5c0-1.4,1.1-2.5,2.5-2.5l0,0c1.4,0,2.5,1.1,2.5,2.5l0,0c0,1.4-1.1,2.5-2.5,2.5l0,0
				C177.7,5,176.5,3.9,176.5,2.5z M155.8,2.5c0-1.4,1.1-2.5,2.5-2.5l0,0c1.4,0,2.5,1.1,2.5,2.5l0,0c0,1.4-1.1,2.5-2.5,2.5l0,0
				C157,5,155.8,3.9,155.8,2.5z M135.1,2.5c0-1.4,1.1-2.5,2.5-2.5l0,0c1.4,0,2.5,1.1,2.5,2.5l0,0c0,1.4-1.1,2.5-2.5,2.5l0,0
				C136.3,5,135.1,3.9,135.1,2.5z M114.5,2.5c0-1.4,1.1-2.5,2.5-2.5l0,0c1.4,0,2.5,1.1,2.5,2.5l0,0c0,1.4-1.1,2.5-2.5,2.5l0,0
				C115.6,5,114.5,3.9,114.5,2.5z M93.8,2.5c0-1.4,1.1-2.5,2.5-2.5l0,0c1.4,0,2.5,1.1,2.5,2.5l0,0c0,1.4-1.1,2.5-2.5,2.5l0,0
				C94.9,5,93.8,3.9,93.8,2.5z M73.1,2.5c0-1.4,1.1-2.5,2.5-2.5l0,0c1.4,0,2.5,1.1,2.5,2.5l0,0C78.1,3.9,77,5,75.6,5l0,0
				C74.2,5,73.1,3.9,73.1,2.5z M52.4,2.5c0-1.4,1.1-2.5,2.5-2.5l0,0c1.4,0,2.5,1.1,2.5,2.5l0,0c0,1.4-1.1,2.5-2.5,2.5l0,0
				C53.5,5,52.4,3.9,52.4,2.5z M31.7,2.5c0-1.4,1.1-2.5,2.5-2.5l0,0c1.4,0,2.5,1.1,2.5,2.5l0,0c0,1.4-1.1,2.5-2.5,2.5l0,0
				C32.8,5,31.7,3.9,31.7,2.5z"/>
		</g>
		<g>
			<path style="fill:#FF0000;" d="M282.5,5c-0.7,0-1.3-0.3-1.8-0.7c-0.1-0.1-0.2-0.2-0.3-0.4c-0.1-0.1-0.2-0.3-0.2-0.4
				c-0.1-0.1-0.1-0.3-0.1-0.5s0-0.3,0-0.5c0-0.2,0-0.3,0-0.5s0.1-0.3,0.1-0.5c0.1-0.2,0.1-0.3,0.2-0.4c0.1-0.1,0.2-0.3,0.3-0.4
				c0.1-0.1,0.2-0.2,0.4-0.3c0.1-0.1,0.3-0.2,0.4-0.2c0.1-0.1,0.3-0.1,0.5-0.1c0.8-0.2,1.7,0.1,2.3,0.7c0.1,0.1,0.2,0.2,0.3,0.4
				c0.1,0.1,0.2,0.3,0.2,0.4c0.1,0.1,0.1,0.3,0.1,0.5c0,0.2,0,0.3,0,0.5c0,0.2,0,0.3,0,0.5c0,0.2-0.1,0.3-0.1,0.5
				c-0.1,0.1-0.1,0.3-0.2,0.4c-0.1,0.1-0.2,0.3-0.3,0.4C283.8,4.7,283.2,5,282.5,5z"/>
		</g>
	</g>
</g>
</svg>
