<?xml version="1.0" encoding="utf-8"?>
<!-- Generator: Adobe Illustrator 24.2.1, SVG Export Plug-In . SVG Version: 6.00 Build 0)  -->
<svg version="1.0" id="Layer_1" xmlns="http://www.w3.org/2000/svg" xmlns:xlink="http://www.w3.org/1999/xlink" x="0px" y="0px"
	 viewBox="0 0 392 217.6" style="enable-background:new 0 0 392 217.6;" xml:space="preserve">
<g id="Group_57" transform="translate(-136.558 -746.761)">
	<g id="Group_49" transform="translate(395.493 877.531)">
		<path id="Path_50" style="fill:#69691D;" d="M-38.2,6.7c0.9,0.9,2,1.7,3.1,2.4c0,3,1,6,2.7,8.5c2.3,4.8-3.3,1.4-3.3,1.4
			C-67.5-2.1-69.9,2.4-69.9,2.4c-2.7-0.1,0,2.9,0,2.9C-58.1,22.9-32,24.3-32,24.3c2.6-0.3,2.8,1.4,2.8,1.4c0.5,0.8-0.4,4.4-0.4,4.4
			c-7.3,3.8-8.3,15.2-8.3,15.2c0.9,4.8-1,2-1,2c-1-3.4-6.2-8.4-6.2-8.4c-7-6.7-15-12.2-23.8-16.4c-3.4-1-1.3,2.5-1.3,2.5
			C-64.5,40.2-41,49.2-41,49.2c7.1,3.1,3.7,3.4,3.7,3.4c-0.4-0.2-5.6-0.3-15.9,7.8c-0.2,0.2-0.4,0.3-0.6,0.5
			c-9.8,8-11.8,15.6-11.8,15.6c-0.3,3.1,3.6,2.8,3.6,2.8c8.4-3.7,23.5-24.3,23.5-24.3c3.7-3.1,3.9,2,3.9,2c2.2,0.4,2.9-2.4,2.9-2.4
			l-1.3-2.7c-5.5-14.5,6.4-20,6.4-20c11.1-4.2,12.4-14.3,12.4-14.3C-9.7,6.7-14.9,7-14.9,7c-5.2-0.2-8.8,15.1-8.8,15.1
			c-1.7,4.3-2.1,2.2-2.1,2.2c-0.7-2.4-1.8-4.8-3.2-6.8l-1.6-3.8c-1.4-3,0.6-3.9,0.6-3.9c0.7-0.4,1.4-0.9,2-1.5
			C-33.6,3.8-36.7,5.2-38.2,6.7z"/>
		<path id="Path_51" style="fill:#E2262C;" d="M-27.6-28.5c-1.2,3.8-2,1.4-2,1.4c-1-7.4-4.9-7.7-4.9-7.7c-5.8-4.5-7.4,6.1-7.4,6.1
			c-0.4,4.3-1.5,2.1-1.5,2.1c-5.9-6.4-10.3-5.4-10.3-5.4c-3.3,0.5,1.1,5.3,1.1,5.3l3.6,13c3,11.4,7.7,17.5,10.8,20.5
			c1.5-1.5,4.6-2.9,10.2,1.5c6.5-5.8,9.9-19,9.9-19c1.9-8.6,7.5-9.4,7.5-9.4c3-4.7-5.3-4.6-5.3-4.6c-2.5,0.9-1.8-0.2-1.8-0.2
			c0.4-5.8-2.5-6.8-2.5-6.8C-23.6-36.7-27.6-28.5-27.6-28.5z"/>
	</g>
	<g id="Group_50" transform="translate(431.245 746.761)">
		<path id="Path_52" style="fill:#6A2175;" d="M-61.1,52.1c0,0,19.8-22.8,21.4-29.3s3.3-9-0.7-8.4s-15.4,17.2-15,17.2
			c0.4,0,9.3-27.4,3.4-28.3s-8.8,16.5-8.8,16.5s-0.7-19.6-3-19.7c-2.3-0.1-4.9,18.7-4.2,32.4c-0.2,5.7,0.6,7.7,0.6,7.7
			s-4.9-3.9-6.8-4.7c-2-0.8-5.4-1.3-6.5-0.1s0.7,7.1,8.8,12.2s7.5,4,7.5,4L-61.1,52.1z"/>
		<path id="Path_53" style="fill:#D1CE00;" d="M-63.2,84.7c0,0-6.3-0.8-6.6-6.4c-0.3-5.6,3.9-9.7,4.7-10.4c0.1-1.6,1.4-9.3,1.6-10.7
			c0.3-1.4,2.4-5.1,2.4-5.1s-0.8-3.3-2.4-2.9s-4.4,1.7-3.8,3.4c0.5,1.2,1.3,2.2,2.2,3c0,0-0.3,6.2-2.6,9c-2.3,2.8-6.9,7.5-6.5,11
			s1.1,8.6,5.8,10.5c4.7,1.9,4.9,1.3,5.1,0.4C-63.2,85.9-63.2,85.3-63.2,84.7z"/>
		<path id="Path_54" style="fill:none;stroke:#D1CE00;stroke-width:0.5;stroke-miterlimit:10;" d="M-65.1,67.6c1.6,0.1,2.9,1,4.1,2
			c1,0.7,1.9,1.6,2.7,2.6c0.7,1.1,0.8,2.4,0.2,3.6c-0.8,1.2-2.3,1.5-3.5,0.8c-1.2-0.8-1.5-2.3-0.8-3.5c0.1-0.2,0.2-0.3,0.3-0.4"/>
		<path id="Path_55" style="fill:none;stroke:#D1CE00;stroke-width:0.5;stroke-miterlimit:10;" d="M-70,68.7
			c0.9-2.4,0.1-5.1-1.8-6.8c-1-0.8-2.3-1.3-3.6-1.2c-1.3,0.1-2.5,0.7-3.3,1.8c-0.4,0.6-0.6,1.4-0.5,2.1c0.2,0.7,0.8,1.3,1.6,1.3
			c0.6-0.1,1.1-0.4,1.4-0.9c0.3-0.5,0.5-1,0.6-1.6"/>
	</g>
	<g id="Group_54" transform="translate(136.558 763.789)">
		<g id="Group_51" transform="translate(0 69.575)">
			<path id="Path_56" style="fill:#FD9F00;" d="M35.8,18.3c-5-1.3-12.2-5-16.6-15.3c-6-12.9-8.6-20.9-7.8-24.9
				c0.4-2.1-0.5-1.9-0.5-1.9s-6.8,4.6-5.1,12s8.3,17,8.3,17s-9.2-0.7-12-8.4c-1.6-7.5-2.9,4.3-1.5,6.5C3.3,7.6,7,11.1,11.5,13.5
				c3,2.3,1.8,2.7,1.8,2.7s-6.1,0.8-9.1-1c-0.7,1,0.1,1,0.9,2.2c0.8,1.2,5.6,6.4,18.7,9.3c2.8,0.6,5.1,1,7,1.3
				C31.8,24.5,33.5,21.2,35.8,18.3z"/>
		</g>
		<path id="Path_57" style="fill:#0079C5;" d="M197.1-3.6c-4.7-2.1-15.5,12.3-15.8,13.9s1.7,16.5,1.7,16.5s-4.2,9-5.1,9.2
			s-5.5-7-5.5-9.5c1.2-8-0.8-11.7-3.5-17.4c-2.7-5.8-12.1-12.7-15.3-13.8c-5.4,0.9-3.3,11.5,1.4,19.9c4,7.1,10.3,12.2,10.8,12.4
			c1.1,0.5,0.5,2.1,0.5,2.1s-3,1.1-3.4,8.2s6.7,17.7,7.9,19.2c0.6,0.7,2.1,3,3.8,5.3c1.8-1.4,4.2-3.3,6.4-3c1.8,0.2,4.4,1.3,6.7,2.4
			l0-0.1c3.2-5.5,3.9-18.1,4.2-22.1c0.3-4-4-9.4-4-9.4s3.9-5.6,6.8-9.9S197.1,11,197.1-3.6z"/>
		<path id="Path_58" style="fill:#FFAC00;" d="M185.6,38.3c0.4,4.1,2.8,7.2,5.3,6.9c0.2,0,0.5-0.1,0.7-0.2c0.2-2.2,0.3-4.1,0.4-5.3
			c0.2-3.4-2.8-7.7-3.7-9C186.4,31.7,185.2,34.8,185.6,38.3z"/>
		<path id="Path_59" style="fill:#FFAC00;" d="M165.6,30.4c-0.9,0.9-2.3,2.9-2.5,7.6c-0.2,2.9,1,6.5,2.4,9.7c0,0,0.1,0,0.1,0
			c2.5,0,4.4-3.9,4.4-8.7S168.1,30.4,165.6,30.4z"/>
		<g id="Group_52" transform="translate(237.747 38.428)">
			<path id="Path_60" style="fill:#E23D74;" d="M-59.8-2.3c0.9-0.3,5.1-9.2,5.1-9.2l0-0.2c-1.7-1.2-4.2-2.9-5.9-3.4
				c-1.3-0.4-3.1,0.6-4.5,1.7c-0.1,0.5-0.1,1-0.2,1.6C-65.3-9.3-60.7-2.1-59.8-2.3z"/>
		</g>
		<path id="Path_61" style="fill:#161514;" d="M190.2,33.7c-1.1,0.5-1.8,2.3-1.6,4.4c0.3,2.3,1.6,4.1,3.1,4c0.1,0,0.1,0,0.2-0.1
			c0.1-0.9,0.1-1.7,0.2-2.3C192.2,37.8,191.2,35.5,190.2,33.7z"/>
		<path id="Path_62" style="fill:#161514;" d="M166.1,39c0-2.7-0.9-5-2.2-5.8c-0.5,1.5-0.8,3.1-0.8,4.7c0,2.3,0.4,4.5,1.2,6.6
			C165.3,43.6,166.1,41.5,166.1,39z"/>
		<path id="Path_63" style="fill:#E23D74;" d="M174.8,62.5c1.8,2.5,3.7,4.9,4.5,5.1c1.6,0.4,2.5-2,2.5-2s1.9,2,3,2
			c1.1,0,1.3-1.2,3.1-5.7c-2.2-1.1-4.9-2.2-6.7-2.4C179,59.2,176.5,61,174.8,62.5z"/>
		<path id="Path_64" style="fill:#002B69;" d="M178.9,177.4c-2-9.1-13.3-14.1-16.7-20.6c-1.9-3.6-1.9-11.7-1.6-18.3
			c-4.8,7.2-9.9,14.2-11.6,16.5c0.9,5.6,5.5,9.7,8.1,11.7c3.3,2.5,3.3,4.2,3.4,6.3c0.1,2,0.7,1.1,3.8,2c5.5-1.6,2.8-1.6,6.4,3.6
			c3.6,5.2-0.3,12.3-1.7,15.5c1.2,0.2,6.6-4.2,6.6-4.2s0.8,0.9-0.8,10C183.4,192.2,180.9,186.4,178.9,177.4z"/>
		<path id="Path_65" style="fill:#E06900;" d="M156.2,52.9c0.4,2.4,1.4,4.7,2.9,6.6c1.2,1.5,3.4,2.7,5.4,3.4c1.4-2.7,3.3-5,5.8-6.7
			c-2.2-3.1-7.5-12-7.2-18.2c0.1-1,0.2-2,0.4-2.9c-1.5,0.3-2.8,0.9-4.1,1.8c-1.9,1.4-5,4.5-8.2,8.6c0.8,2.3,1.7,4.3,2.6,5.2
			L156.2,52.9z"/>
		<path id="Path_66" style="fill:#0094A5;" d="M143,80.6c5.4,0.6,8,0,8,0s1.1,6.3,13,6.4c-0.8-2.2-1.7-4.4-2.7-6.4
			c-0.7-1.3-0.9-3.6-0.6-6.1c-2.1-0.7-4.4-1.5-5.6-1.9c-2.3-0.8-4.2-6.9-4.2-6.9c-2,1.1-4.4,1.1-6.4,0c-1.6-0.9-2.6-3-3.3-5.2
			c-1.2,2.4-2.2,4.9-3,7.5c-0.8,2.8-1.4,5.1-1.8,7C138.1,77.6,140.3,80.2,143,80.6z"/>
		<path id="Path_67" style="fill:#3D1E4C;" d="M144.7,65.7c2,1.1,4.4,1.1,6.4,0c0,0,1.9,6.1,4.2,6.9c1.1,0.4,3.5,1.2,5.6,1.9
			c0.5-4,1.7-8,3.7-11.5c-1.9-0.8-4.1-1.9-5.4-3.4c-1.5-1.9-2.5-4.2-2.9-6.6l-2.5-2.3c-0.9-0.8-1.8-2.9-2.6-5.2
			c-3.7,4.7-7,9.8-9.8,15.1C142.1,62.6,143.1,64.8,144.7,65.7z"/>
		<path id="Path_68" style="fill:#35100F;" d="M163.1,98.6c-4.8,0.1-5.2-1.7-5.2-1.7s-3.6,1.3-8.9,0c-5.3-1.3-5.9-3-5.9-3
			s-0.2,1-6-1.1c-2.1-0.9-3.8-2.5-4.9-4.5c-1.2,1.6-3.5,2.7-9,1.6c-2.5-0.7-5-1.6-7.3-2.9c0.3,2.7,0.8,5.6,1.6,7.2
			c1.8,3.5,9.6,5.9,9.6,5.9s2.7,6.4,7.2,6.1c4.6-0.3,7.6-0.4,8.7,0.7c1,1.1,0,4.5,5.2,4.2c5.2-0.2,7.7-1.1,7.7-1.1s2.9,3.7,7.2,3.9
			c1.9,0.1,4.7-1.1,7.2-2.5c-0.5-4.6-1.4-9.2-2.6-13.7C166.1,98.2,164.6,98.5,163.1,98.6z"/>
		<path id="Path_69" style="fill:#E84B2C;" d="M137,92.7c5.8,2.1,6,1.1,6,1.1s0.7,1.7,5.9,3c5.3,1.3,8.9,0,8.9,0s0.5,1.8,5.2,1.7
			c1.5-0.1,3.1-0.4,4.5-0.9c-1-3.6-2.1-7.2-3.5-10.7c-11.9-0.1-13-6.4-13-6.4s-2.7,0.6-8,0c-2.7-0.3-4.9-3-6.4-5.6
			c-1.4,5.9-1.5,8-2.6,9.8c-0.6,1-1,2.3-1.8,3.4C133.2,90.2,134.9,91.8,137,92.7z"/>
		<g id="Group_53" transform="translate(74.359 180.189)">
			<path id="Path_70" style="fill:#57A422;" d="M-10.8-41.8c-1.3-0.7-2.7-1.3-4.1-1.6c-0.6,4.6-2.1,8.8-3.3,10.2
				c-1.6,1.8-2.4,4.2-2.2,6.7c0,0,7.3,5.8,10.5,13.2c1.1,8-0.3,7.7,1.2,7.8c1.5,0.2,2.3-1.2,4.8-3C-0.8-7.8-0.7-3-1.3,5.5
				C4,2.5,2,1.1,2.7-4.2s-1.6-9.5-6.4-14.4s-5.3-9.1-5-11c0.2-1.4,5.1-5.9,9-9.2c-1.7-0.8-3.4-1.8-4.9-3
				C-7.7-41.7-8.7-40.4-10.8-41.8z"/>
			<path id="Path_71" style="fill:#0A0C0E;" d="M6.1-46.4c-6.1-3.7-9.8-6.7-12.5-7.5c-3.1-1-6.7,1.1-8.3,3c0.3,2.5,0.2,5.1-0.2,7.6
				c1.4,0.3,2.8,0.9,4.1,1.6c2.1,1.4,3.1,0,6.2,0c1.5,1.2,3.2,2.2,4.9,3c1.5-1.2,2.8-2.3,3.7-3C5.4-42.7,5.9-44.6,6.1-46.4z"/>
		</g>
		<path id="Path_72" style="fill:#0098CB;" d="M48.7,112.6c0,0,2.3,3.5,6.4,3.6c2.6,0,5.1-0.8,7.2-2.4c0,0,2.1,3.5,7.2,3.9
			c3.3,0.2,6.6-0.3,9.7-1.5c0,0,2.9,3.7,6.8,3.5s7.9-3,7.9-3s5,5.2,10.5,5c5.6-0.2,7.2-2,7.2-2c2.5,1.9,5.4,3,8.5,3.2
			c3,0.3,5.9-0.9,7.8-3.2c0,0,2.5,2.7,7.7,3.2c5.2,0.5,7.3-0.9,7.3-0.9s1.9,2.5,6.9,2.9c4.9,0.4,6.2-1.2,6.2-1.2
			c1.9,1.9,4.3,3.2,7,3.5c1.3,0.1,2.8,0.1,4.3,0.1c1.1-2,2-4.1,2.7-6.3c0.5-3.2,0.6-6.4,0.2-9.6c-2.5,1.4-5.3,2.6-7.2,2.5
			c-4.4-0.2-7.2-3.9-7.2-3.9s-2.5,0.8-7.7,1.1s-4.1-3.1-5.2-4.2c-1-1.1-4.1-1-8.7-0.7c-0.7,0-1.4-0.1-2.1-0.4
			c-2.1,1.4-4.4,2.4-6.8,2.9c-6.8,1.5-9.6-1.8-9.6-1.8c-2.3,0.9-4.8,1.5-7.3,1.8c-4.3,0.5-11-4.8-11-4.8s-0.3,2.5-6.3,2.3
			c-6-0.1-4.3-3.2-6.2-3c-1.8,0.2-4.4,2.3-9.1,1.9c-2.8-0.2-5.3-1.7-6.8-4c0,0-4.1,2.8-7.7,2.4c-3-0.3-6.2-1.8-6.6-2.3
			c-2,1.3-4.3,2-6.6,2.2c-4.1,0.4-5.6-1.4-5.6-1.4s-3.1,2.1-8.1,1.2c-1.7-0.3-3.3-1-4.8-1.9c-0.7,4.2-0.9,8.4-0.4,12.6
			c2.4,1.6,5.1,2.6,7.9,3C43.9,117.4,48.7,112.6,48.7,112.6z"/>
		<path id="Path_73" style="fill:#E33038;" d="M42.7,101.9c0,0,1.5,1.8,5.6,1.4c2.3-0.2,4.6-0.9,6.6-2.2c-0.1-0.1-0.1-0.1,0-0.1
			c0.1,0,0.1,0,0,0.1c0.4,0.4,3.6,1.9,6.6,2.3c3.5,0.4,7.7-2.4,7.7-2.4c1.5,2.3,4.1,3.8,6.8,4c4.8,0.4,7.3-1.7,9.1-1.9
			c1.8-0.2,0.2,2.9,6.2,3c6,0.1,6.3-2.3,6.3-2.3s6.7,5.3,11,4.8c2.5-0.3,4.9-0.8,7.3-1.8c0,0,2.8,3.3,9.6,1.8
			c2.4-0.5,4.8-1.5,6.8-2.9c-3.3-1.3-5.2-5.8-5.2-5.8s-7.3-2.2-9.4-5.6c-1.1,0.4-2.2,0.5-3.4,0.4c-3.8-0.1-7.3-3.1-7.3-3.1
			s-3.9,1.7-6.2,1.2c-2.3-0.4-7.6-4.5-7.6-4.5s-2.7,2.6-5.7,2.4c-3-0.2-9.1-3.9-9.1-3.9s-4.1,3.1-7.8,3.1s-7.9-4.3-7.9-4.3
			s-1.5,2.3-5.6,2.8c-2.6,0.2-5.2-0.4-7.4-1.7c0,0-3.9,3.5-7.9,4.1c-1.9,0.3-4.1-1.5-5.8-3.4c-2.5,3.2-4.4,6.8-5.5,10.7
			c-0.3,1-0.6,2-0.7,3c1.5,0.9,3.1,1.6,4.8,1.9C39.6,103.9,42.7,101.9,42.7,101.9z"/>
		<path id="Path_74" style="fill:#99589A;" d="M41.9,90.9c3.9-0.6,7.9-4.1,7.9-4.1c2.2,1.4,4.8,2,7.4,1.7c4.1-0.5,5.6-2.8,5.6-2.8
			s4.1,4.3,7.9,4.3c3.7,0,7.8-3.1,7.8-3.1s6.1,3.8,9.1,3.9c3,0.2,5.7-2.4,5.7-2.4s5.4,4.1,7.6,4.5c2.3,0.4,6.2-1.2,6.2-1.2
			s3.5,3,7.3,3.1c1.1,0.1,2.3-0.1,3.4-0.4c-0.1-0.1-0.2-0.3-0.2-0.4c-0.8-1.6-1.3-4.5-1.6-7.2c-9.6-4.7-23.9-13.2-47.8-12
			c-18.1,0.9-27.2,6.7-32,12.6C37.8,89.4,40,91.2,41.9,90.9z"/>
		<path id="Path_75" style="fill:#F48658;" d="M36.4,138.7c-1.3,3.5-3.3,6.7-5.8,9.5l14.9,20.5c0,0,3.4,6.4,0.5,11.5
			c0,1.9,1.9,2,3.4,0.9c0.9-0.7,1.8-1.5,2.5-2.5c0,0,2.6,3.1,2.7,5.4c-0.1,2.1-0.3,4.2-0.6,6.3c0.5,0.1,1.1,0,1.5-0.4
			c0.7-0.6,4.4-6.7,1.8-16.7c-2.6-5.6-6.1-9.2-8.1-13.4c-2-4.2-4.1-12.7-0.6-16.1c0.1-0.1,0.1-0.1,0.2-0.2c-2.2-1.7-4.8-3-7.5-3.7
			C39.6,139.4,37.9,139,36.4,138.7z"/>
		<path id="Path_76" style="fill:#DE287C;" d="M148.9,137.7c-1.9-0.4-3.9-0.7-5.9-0.9c-3.3-0.2-6.4-2.9-6.4-2.9
			c-2.8,1-5.6,1.6-8.6,1.9c-5,0.4-5.3-1.9-7.8-2.6s0.2,1-7.5,1.5s-7.8-3.9-7.8-3.9s-1.2,0-6.6,0c-5.4,0-9.5-3.5-9.5-3.5
			c-1.5,1.5-3.4,2.6-5.5,3.2c-1.8,0.5-5.3,0.4-7.9,0.3c2.5,1.6,5.4,3.5,9.2,5.6c8.9,4.8,16.6,8.7,23,8.9c6.4,0.1,16.6-0.6,18.6,1
			c0.7,0.6,1.3,1.3,1.9,2c2.1-0.1,4.7-0.3,6.1-1l2.7-1.2c0,0,0,0.8,6,2.3c3.3,0.6,6.7,1,10.1,0.9c1.6-2.3,3.5-5,5.5-7.8l-3.4-0.8
			C149,139.1,148.9,137.7,148.9,137.7z"/>
		<path id="Path_77" style="fill:#008F90;" d="M141.9,156.8c1.5,1.3,3.2,2.2,5,2.7c0-1.4,0.5-2.7,1.4-3.7c0,0,2-2.7,4.8-6.6
			c-3.4,0-6.8-0.3-10.1-0.9c-6-1.5-6-2.3-6-2.3l-2.7,1.2c-1.4,0.6-4,0.9-6.1,1c2.6,3.2,8,10.2,6.9,10.2c0,0.1,0.1,0.2,0.1,0.2
			c0,0.2,0,0.5,0,0.7c0.6,0,1.3-0.1,1.9-0.2C139,158.8,140.6,158,141.9,156.8z"/>
		<path id="Path_78" style="fill:#E0192F;" d="M152.4,172.4c-4.7-6-5.6-10.2-5.4-12.9c-1.9-0.5-3.6-1.4-5-2.7c-1.3,1.2-3,2-4.7,2.3
			c-0.6,0.1-1.3,0.2-1.9,0.2c-0.1,2.3-1,7.9,0,8.5c1.1,0.7,8.9,4.3,10.7,7.6c1.8,3.3,3.6,6,3.3,7.4s-1.5,7.1-1.6,7.5
			c-0.1,0.5,0.2,1.4,2.7,0c2.5-1.4,3.9-2.2,3.9-2.2c1,1.7,1.3,3.9,0.6,5.8c-0.7,2.2-1.3,4.4-1.7,6.7c2.6-1.1,4.5-3.3,5.3-6
			C159.7,190.1,161.5,184.1,152.4,172.4z"/>
		<path id="Path_79" style="fill:#6660A4;" d="M47.1,127.2c-2.7,3.1-6.8,4.7-11,4.3c0.5,2.5,0.9,5.7,0.3,7.2
			c1.5,0.3,3.2,0.7,4.9,1.1c2.7,0.7,5.3,2,7.5,3.7c3.5-3.6,9.3-12.4,10.8-14.2c0.2-0.3,0.4-0.5,0.7-0.7
			C55.8,129.2,51.3,128.7,47.1,127.2z"/>
		<path id="Path_80" style="fill:#FA9F64;" d="M163.1,127.1c-2.7-0.3-5.2-1.5-7-3.5c0,0-1.2,1.6-6.2,1.2c-4.9-0.4-6.9-2.9-6.9-2.9
			s-2.1,1.5-7.3,0.9c-5.2-0.5-7.7-3.2-7.7-3.2c-2,2.2-4.9,3.4-7.8,3.2c-3.1-0.2-6-1.3-8.5-3.2c0,0-1.7,1.8-7.2,2
			c-5.6,0.2-10.5-5-10.5-5s-3.9,2.7-7.9,3c-3.9,0.2-6.8-3.5-6.8-3.5c-3.1,1.2-6.4,1.7-9.7,1.5c-5.2-0.4-7.2-3.9-7.2-3.9
			c-2.1,1.5-4.6,2.4-7.2,2.4c-4.1-0.1-6.4-3.6-6.4-3.6s-4.8,4.8-11.4,4.1c-2.8-0.3-5.5-1.3-7.9-3c0.6,5.1,2.2,10.2,5.4,13.9
			c0.3,0.4,0.8,1.9,1.2,3.8c4.1,0.5,8.2-1.1,11-4.3c4.2,1.5,8.8,2,13.2,1.4c1.8-1.6,4.9-3.2,7.7-2.3c1.8,0.6,4.2,2.2,7.5,4.4
			c2.6,0.1,6.1,0.2,7.9-0.3c2-0.6,3.9-1.7,5.5-3.2c0,0,4.1,3.5,9.5,3.5c5.4,0,6.6,0,6.6,0s0.1,4.5,7.8,3.9c7.7-0.6,5-2.3,7.5-1.5
			c2.5,0.7,2.8,3,7.8,2.6c2.9-0.2,5.8-0.8,8.6-1.9c0,0,3.1,2.7,6.4,2.9c2,0.1,4,0.4,5.9,0.9c0,0,0.1,1.4,6.3,2.9l3.4,0.8
			c3.2-4.8,6.5-9.9,8.8-14.1C165.9,127.2,164.3,127.2,163.1,127.1z"/>
	</g>
	<g id="Group_56" transform="translate(517.426 765.225)">
		<path id="Path_81" style="fill:#A72014;" d="M-72.1,70.8L-72.1,70.8c-1.3,0.6-4,0.7-7,0.4c-0.2,0-0.5,0-0.7,0
			c-0.4,0-0.9-0.1-1.3-0.3c-5.1-0.9-10.5-3.1-12-6.6c-1-3.5-0.9-7.3,0.3-10.7c-2.4-5.6-4.5-11.1-6.3-14c-4.8-7.5-16.9-9.7-21.2-7.8
			c-4.2,1.9-4.7,5.2-4.7,5.2c-0.1,0.7,0,1.4,0.3,2c0.1-0.1,0.2-0.1,0.3-0.2c1.2-0.4,2.5,0,3.5,0.8c0.9,0.7,3.4,3.3,2.3,5
			c1.6,0.8,3.1,1.7,4.5,2.8c2.7,2.1,2.4,9.6,2.9,16.8c-0.7,15.8,2.3,19.5,9.2,28.2c7.9,9.8,32.5,6.1,31.8,4.6c0,0,2.9-1.3,7.7-8.8
			c6.4-9.8,8.8-16.4,8.5-18.7C-54.6,68-63.9,69.9-72.1,70.8z"/>
		<g id="Group_55" transform="translate(42.023 31.105)">
			<path id="Path_82" style="fill:#24529C;" d="M-123.6,31.2c-0.2-3-4.4-4.3-4.9-5.3c-0.4-1,1-3.5,1.2-7.6c-0.1-1.7-0.8-3.3-2.1-4.4
				c-0.6,0.7-1.2,1.4-1.9,2.2c-6.9,8.4-3.8,17-3.8,17c1.1,2.5,4.3,4.4,7.9,5.6l0.7-0.7C-123.4,35.4-123.4,34.2-123.6,31.2z"/>
			<path id="Path_83" style="fill:#EA5C68;" d="M-121.2,6.8c-0.9-0.6-2.6,0.7-8.1,7.2c1.3,1.1,2.1,2.7,2.1,4.4
				c-0.2,4-1.6,6.6-1.2,7.6c0.4,1,4.7,2.3,4.9,5.3c0.2,3,0.2,4.2-2.8,6.8l-0.7,0.7c5,1.6,10.8,2,13,0.9c2-0.9,2-4.4,2.1-6.5
				c0.1-2.1-3.7-3.6-3.6-5.5s1.3-2.5,1.4-6.2s-3.3-4.7-3.5-5.3c-0.3-0.6,1.4-3.5,1.3-5.7S-120.3,7.4-121.2,6.8z"/>
		</g>
		<path id="Path_84" style="fill:#FA9630;" d="M-50.3,52.4c-6.2,2.3-15.5,5.5-21.3,6.6c-0.6,0.3-1.1,0.5-1.7,0.8
			c0.9,1.5,3.4,2.8,3.3,4.5c-0.1,2.1-0.2,5.6-2.1,6.5c-0.3,0.1-0.6,0.2-0.8,0.3l0,0c0,0,9.9,0.1,24.8-6.8c5.1-3.3,7.9-4.2,8.3-6.6
			C-39.3,54.5-45.3,52.8-50.3,52.4z"/>
		<path id="Path_85" style="fill:#009093;" d="M-31.6,13.2c-4.5,7.3-18.8,15.1-25.6,17.7s-15.7,5.4-18.5,5.8c-1.2,0.2-2.2,0.7-3,1.5
			c1.4,0.6,4.1,1.6,4.2,3.5c0.1,2.2-1.5,5.2-1.3,5.7c0.1,0.2,0.7,0.6,1.4,1.1c4.9,0,13.9-2.1,26.1-7.8c14.3-8.3,17.6-19.8,19.5-25.6
			S-28.9,9.6-31.6,13.2z"/>
		<path id="Path_86" style="fill:#E03B83;" d="M-44.2,38.1c-1.3,0.9-2.6,1.8-3.9,2.6c-10.6,4.9-18.7,7.1-23.9,7.7
			c-0.6,0.2-1.1,0.4-1.6,0.6c1,0.9,1.6,2.3,1.5,3.7c-0.1,3.7-1.4,4.3-1.4,6.2c0,0.2,0,0.3,0.1,0.5C-65.1,58.3-44,50-44,50
			s18-7.6,16-13.7C-28.8,34.1-35.8,35.5-44.2,38.1z"/>
		<path id="Path_87" style="fill:#008E63;" d="M-17.1,80.6C-33,68.9-46.8,69.2-53.9,70.4c-0.2,1.6-1.1,4.4-2.9,8.1
			c0.4-0.8,0.8-1.6,1.1-2.3c8.4,1.7,23.9,8.4,30.1,14.6c0.3,0.2,0.6,0.4,0.9,0.5c2.8,1.5,10.4,5.9,15.4,11.2
			c3.5,3.7,16.7,15.9,20.3,14.3C12.2,116.3,5.9,97.5-17.1,80.6z"/>
		<path id="Path_88" style="fill:#EF6A1F;" d="M-23.6,93.3c-3.7-6.8-22.5-15.2-32.1-17.2c-1.2,2.7-2.5,5.2-4,7.7
			c7.3,2.5,21.7,9.8,26.3,12.2c5.4,2.9,11.4,10.1,14.7,15.4c3.4,5.2,4.9,11.4,8.3,15.5C-6.3,113.1-18.9,102-23.6,93.3z"/>
		<path id="Path_89" style="fill:#BA3047;" d="M-39.5,93c-6-3-14.2-6.9-19.4-8.8c-0.3,0-0.6-0.1-0.9-0.1c-0.8,1.3-1.6,2.7-2.5,4.1
			c-4.9,7.5-7.7,8.8-7.7,8.8c0.1,0.2-0.2,0.4-0.7,0.6c4-1.1,13-2.7,17.5-1c10.2,3.9,16.2,17.5,19.2,19.7c1.6-3.8,1.8-7.3-0.4-12
			C-36.6,99.4-38.1,95.9-39.5,93z"/>
		<path id="Path_90" style="fill:#0098C2;" d="M-130.3,51.1c0,0,2.4-10.8,6-12.3c1.2-0.4,2.5,0,3.5,0.8c0.9,0.7,3.4,3.3,2.2,5.1
			c-1.2,1.8-2.2,1.8-3.6,4.5c-1.2,2.2-2,6.4-2.7,6.8c-0.7,0.5-1.8-2.2-1.4-3.2c0.4-1.1,1.7-6.4,1.4-6.5c-1.1-0.8-3.5,4.6-4.4,5
			C-130.1,51.7-130.6,52-130.3,51.1z"/>
		<circle id="Ellipse_4" style="fill:#0097C8;" cx="-116.6" cy="37.1" r="2.4"/>
		<path id="Path_91" style="fill:#E8698F;" d="M-70.8,97.5c-2.3,0.7-4.6,1.2-7,1.3l0.5,2.8c-2.1,1.3-4.3,2.4-6.6,3.4
			c-5.5,2.6-8.3,10.8-8.3,10.8c-0.6,2.4,1.4,1.4,1.4,1.4c0.4-0.3-0.3-1.3,0.9-2.7c1.7-1.9,7.2-6.6,7.2-6.6c1.2-1.2,1,1.3-0.3,3.3
			c-1.2,2.1-0.5,5.2,0.8,3.8c0.5-2.6,4.5-5.6,6-5.5s0.5,1.6,0.7,2.1c0.2,0.5,1.3,2.5,3.2,2.7s0.7-2.1-0.8-4.6s0.3-4.7,3-5.6
			s5.6-1.8,6.8-2.4c0.7-0.3,1.2-3.3,1.5-5.8C-64.7,96.2-67.8,96.7-70.8,97.5z"/>
		<path id="Path_92" style="fill:#E97094;" d="M-90.9,98.1c-0.2,0.4-0.7,0.6-1.1,0.6c-3.1,0-7.5-0.6-11.7,0.7
			c-4.2,1.3-6.9,1-10.6,9.3c1.7,1,2.8-0.7,3.7-1.8s6.6-4.3,7.3-3.7c-0.5,1.9-4.9,8.8-3.9,11.5c2.4-4.5,6.9-10.7,8.4-9.7
			c0.3,3.6,0.7,10.1,1.7,9.2c0.9-0.9,0.4-6.4,1.9-7.5c1.5-1.1,4.4-2.4,5.9-2c2.9-1.1,5.3-2.6,5.5-5.9
			C-86.2,98.8-88.5,98.6-90.9,98.1z"/>
	</g>
</g>
</svg>
