<?xml version="1.0" encoding="utf-8"?>
<!-- Generator: Adobe Illustrator 24.2.1, SVG Export Plug-In . SVG Version: 6.00 Build 0)  -->
<svg version="1.0" id="Layer_1" xmlns="http://www.w3.org/2000/svg" xmlns:xlink="http://www.w3.org/1999/xlink" x="0px" y="0px"
	 viewBox="0 0 393.7 478" style="enable-background:new 0 0 393.7 478;" xml:space="preserve">
<g>
	<path style="fill:#BF0080;" d="M284.9,369.7c0-1-0.4-1.9-1.1-2.5h5.4c-0.7,0.6-1.1,1.5-1.1,2.5c0,1.9,1.6,3.5,3.5,3.5h8
		c1.9,0,3.5-1.6,3.5-3.5c0-1-0.4-1.9-1.1-2.5h5.4c-0.7,0.6-1.1,1.5-1.1,2.5c0,1.9,1.6,3.5,3.5,3.5h8c1.9,0,3.5-1.6,3.5-3.5
		c0-1-0.4-1.9-1.1-2.5h5.3c-0.9,1-1.3,2.5-1,3.9c0.5,2.1,2.3,3.5,4.4,3.5c0.3,0,0.7,0,1-0.1l7.8-1.7c2.4-0.5,4-3,3.4-5.4
		c-0.5-2.4-2.9-3.9-5.4-3.4l-5.8,1.3c0.3-0.5,0.4-1,0.4-1.6c0-0.7-0.2-1.3-0.5-1.9h0.1l7.8-1.7c2.4-0.5,4-3,3.4-5.4
		c-0.5-2.4-2.9-3.9-5.4-3.4l-7.8,1.7c-2.4,0.5-4,3-3.4,5.4c0.2,0.7,0.5,1.3,0.9,1.8h-6.6c-1.9,0-3.5,1.6-3.5,3.5
		c0,1,0.4,1.9,1.1,2.5H311c0.7-0.6,1.1-1.5,1.1-2.5c0-1.9-1.6-3.5-3.5-3.5h-8c-1.9,0-3.5,1.6-3.5,3.5c0,1,0.4,1.9,1.1,2.5h-5.4
		c0.7-0.6,1.1-1.5,1.1-2.5c0-1.9-1.6-3.5-3.5-3.5h-8c-1.9,0-3.5,1.6-3.5,3.5c0,1,0.4,1.9,1.1,2.5h-5.4c0.7-0.6,1.1-1.5,1.1-2.5
		c0-1.9-1.6-3.5-3.5-3.5h-8c-1.9,0-3.5,1.6-3.5,3.5c0,1,0.4,1.9,1.1,2.5h-5.4c0.6-0.6,1.1-1.5,1.1-2.5c0-1.9-1.6-3.5-3.5-3.5h-8
		c-1.9,0-3.5,1.6-3.5,3.5c0,1,0.4,1.9,1.1,2.5h-5.4c0.6-0.6,1.1-1.5,1.1-2.5c0-1.9-1.6-3.5-3.5-3.5h-8c-1.9,0-3.5,1.6-3.5,3.5
		c0,1,0.4,1.9,1.1,2.5H220c0.6-0.6,1.1-1.5,1.1-2.5c0-1.9-1.6-3.5-3.5-3.5h-8c-1.9,0-3.5,1.6-3.5,3.5c0,1,0.4,1.9,1.1,2.5h-5.4
		c0.6-0.6,1.1-1.5,1.1-2.5c0-1.9-1.6-3.5-3.5-3.5h-8c-1.9,0-3.5,1.6-3.5,3.5c0,1,0.4,1.9,1.1,2.5h-5.4c0.6-0.6,1.1-1.5,1.1-2.5
		c0-1.9-1.6-3.5-3.5-3.5h-8c-1.9,0-3.5,1.6-3.5,3.5c0,1,0.4,1.9,1.1,2.5h-5.4c0.6-0.6,1.1-1.5,1.1-2.5c0-1.9-1.6-3.5-3.5-3.5h-8
		c-1.9,0-3.5,1.6-3.5,3.5c0,1,0.4,1.9,1.1,2.5H146c-1.9,0-3.5,1.6-3.5,3.5s1.6,3.5,3.5,3.5h8c1.9,0,3.5-1.6,3.5-3.5
		c0-1-0.4-1.9-1.1-2.5h5.4c-0.6,0.6-1.1,1.5-1.1,2.5c0,1.9,1.6,3.5,3.5,3.5h3.2l-4.4,1c-2.4,0.5-4,2.9-3.4,5.4
		c0.5,2.1,2.3,3.5,4.4,3.5c0.3,0,0.7,0,1-0.1l5.7-1.3c0,0.1,0,0.1,0,0.1c-0.3,1.2,0,2.3,0.5,3.3c-0.1,0-0.2,0-0.3,0l-7.8,1.7
		c-2.4,0.5-4,3-3.4,5.4c0.5,2.1,2.3,3.5,4.4,3.5c0.3,0,0.7,0,1-0.1l5.7-1.3c0,0.1,0,0.1,0,0.1c-0.3,1.2,0,2.3,0.5,3.3
		c-0.1,0-0.2,0-0.3,0l-7.8,1.7c-2.4,0.5-4,3-3.4,5.4c0.5,2.1,2.3,3.5,4.4,3.5c0.3,0,0.7,0,1-0.1l5.7-1.3c0,0.1,0,0.1,0,0.1
		c-0.3,1.2,0,2.3,0.5,3.3c-0.1,0-0.2,0-0.3,0l-7.8,1.7c-2.4,0.5-4,3-3.4,5.4c0.5,2.1,2.3,3.5,4.4,3.5c0.3,0,0.7,0,1-0.1l5.7-1.3
		c0,0.1,0,0.1,0,0.1c-0.3,1.2,0,2.3,0.5,3.3c-0.1,0-0.2,0-0.3,0l-7.8,1.7c-2.4,0.5-4,3-3.4,5.4c0.5,2.1,2.3,3.5,4.4,3.5
		c0.3,0,0.7,0,1-0.1l5.7-1.3c0,0.1,0,0.1,0,0.1c-0.3,1.2,0,2.3,0.5,3.3c-0.1,0-0.2,0-0.3,0l-7.8,1.7c-2.4,0.5-4,3-3.4,5.4
		c0.5,2.1,2.3,3.5,4.4,3.5c0.3,0,0.7,0,1-0.1l5.7-1.3c0,0.1,0,0.1,0,0.1c-0.3,1.2,0,2.3,0.5,3.3c-0.1,0-0.2,0-0.3,0l-7.8,1.7
		c-2.4,0.5-4,3-3.4,5.4c0.5,2.1,2.3,3.5,4.4,3.5c0.3,0,0.7,0,1-0.1l5.7-1.3c0,0.1,0,0.1,0,0.1c-0.3,1.2,0,2.3,0.5,3.3
		c-0.1,0-0.2,0-0.3,0l-7.8,1.7c-2.4,0.5-4,2.9-3.4,5.4c0.5,2.1,2.3,3.5,4.4,3.5c0.3,0,0.7,0,1-0.1l5.7-1.3c0,0.1,0,0.1,0,0.1
		c-0.5,2.4,1,4.8,3.4,5.4l7.8,1.7c0.3,0.1,0.7,0.1,1,0.1c2.1,0,3.9-1.4,4.4-3.5c0.5-2.4-1-4.8-3.4-5.4l-7.8-1.7
		c0.3-0.8,0.4-1.7,0.2-2.6c-0.1-0.3-0.2-0.6-0.3-0.9l5.9,1.3c0.3,0.1,0.7,0.1,1,0.1c2.1,0,3.9-1.4,4.4-3.5c0.5-2.4-1-4.8-3.4-5.4
		l-7.8-1.7c0.3-0.8,0.4-1.7,0.2-2.6c-0.1-0.3-0.2-0.6-0.3-0.9l5.9,1.3c0.3,0.1,0.7,0.1,1,0.1c2.1,0,3.9-1.4,4.4-3.5
		c0.5-2.4-1-4.8-3.4-5.4l-7.8-1.7c0.3-0.8,0.4-1.7,0.2-2.6c-0.1-0.3-0.2-0.6-0.3-0.9l5.9,1.3c0.3,0.1,0.7,0.1,1,0.1
		c2.1,0,3.9-1.4,4.4-3.5c0.5-2.4-1-4.8-3.4-5.4l-7.8-1.7c0.3-0.8,0.4-1.7,0.2-2.6c-0.1-0.3-0.2-0.6-0.3-0.9l5.9,1.3
		c0.3,0.1,0.7,0.1,1,0.1c2.1,0,3.9-1.4,4.4-3.5c0.5-2.4-1-4.8-3.4-5.4l-7.8-1.7c0.3-0.8,0.4-1.7,0.2-2.6c-0.1-0.3-0.2-0.6-0.3-0.9
		l5.9,1.3c0.3,0.1,0.7,0.1,1,0.1c2.1,0,3.9-1.4,4.4-3.5c0.5-2.4-1-4.8-3.4-5.4l-7.8-1.7c0.3-0.8,0.4-1.7,0.2-2.6
		c-0.1-0.3-0.2-0.6-0.3-0.9l5.9,1.3c0.3,0.1,0.7,0.1,1,0.1c2.1,0,3.9-1.4,4.4-3.5c0.5-2.4-1-4.8-3.4-5.4l-7.8-1.7
		c0.3-0.8,0.4-1.7,0.2-2.6c-0.1-0.3-0.2-0.6-0.3-0.9l5.9,1.3c0.3,0.1,0.7,0.1,1,0.1c2.1,0,3.9-1.4,4.4-3.5c0.5-2.4-1-4.8-3.4-5.4
		l-7.8-1.7c0.3-0.8,0.4-1.7,0.2-2.6c-0.3-1.4-1.2-2.4-2.4-3c1.1-0.6,1.9-1.7,1.9-3.1c0-1-0.4-1.9-1.1-2.5h5.4
		c-0.6,0.6-1.1,1.5-1.1,2.5c0,1.9,1.6,3.5,3.5,3.5h8c1.9,0,3.5-1.6,3.5-3.5c0-1-0.4-1.9-1.1-2.5h5.4c-0.6,0.6-1.1,1.5-1.1,2.5
		c0,1.9,1.6,3.5,3.5,3.5h8c1.9,0,3.5-1.6,3.5-3.5c0-1-0.4-1.9-1.1-2.5h5.4c-0.6,0.6-1.1,1.5-1.1,2.5c0,1.9,1.6,3.5,3.5,3.5h8
		c1.9,0,3.5-1.6,3.5-3.5c0-1-0.4-1.9-1.1-2.5h5.4c-0.6,0.6-1.1,1.5-1.1,2.5c0,1.9,1.6,3.5,3.5,3.5h8c1.9,0,3.5-1.6,3.5-3.5
		c0-1-0.4-1.9-1.1-2.5h5.4c-0.6,0.6-1.1,1.5-1.1,2.5c0,1.9,1.6,3.5,3.5,3.5h8c1.9,0,3.5-1.6,3.5-3.5c0-1-0.4-1.9-1.1-2.5h5.4
		c-0.7,0.6-1.1,1.5-1.1,2.5c0,1.9,1.6,3.5,3.5,3.5h8C283.3,373.2,284.9,371.6,284.9,369.7z"/>
	<path style="fill:#BF0080;" d="M144.6,363.7c0-1.9-1.6-3.5-3.5-3.5h-7.9c-0.9-0.5-2-0.7-3.2-0.5l-7.8,1.7c-2.4,0.5-4,3-3.4,5.4
		c0.5,2.1,2.3,3.5,4.4,3.5c0.3,0,0.7,0,1-0.1l7.8-1.7c0.9-0.2,1.7-0.7,2.3-1.3h6.8C143,367.2,144.6,365.6,144.6,363.7z"/>
	<path style="fill:#BF0080;" d="M135.4,464.8c-0.5-2.4-3-4-5.4-3.4l-7.8,1.7c-2.4,0.5-4,2.9-3.4,5.4c0.5,2.1,2.3,3.5,4.4,3.5
		c0.3,0,0.7,0,1-0.1l7.8-1.7C134.4,469.6,135.9,467.2,135.4,464.8z"/>
	<path style="fill:#BF0080;" d="M123.2,459.3c0.3,0,0.7,0,1-0.1l7.8-1.7c2.4-0.5,4-3,3.4-5.4c-0.5-2.4-3-3.9-5.4-3.4l-7.8,1.7
		c-2.4,0.5-4,3-3.4,5.4C119.2,457.9,121.1,459.3,123.2,459.3z"/>
	<path style="fill:#BF0080;" d="M130,436l-7.8,1.7c-2.4,0.5-4,3-3.4,5.4c0.5,2.1,2.3,3.5,4.4,3.5c0.3,0,0.7,0,1-0.1l7.8-1.7
		c2.4-0.5,4-3,3.4-5.4C134.8,436.9,132.4,435.4,130,436z"/>
	<path style="fill:#BF0080;" d="M135.4,426.7c-0.5-2.4-3-3.9-5.4-3.4l-7.8,1.7c-2.4,0.5-4,3-3.4,5.4c0.5,2.1,2.3,3.5,4.4,3.5
		c0.3,0,0.7,0,1-0.1l7.8-1.7C134.4,431.5,135.9,429.1,135.4,426.7z"/>
	<path style="fill:#BF0080;" d="M135.4,413.9c-0.5-2.4-3-3.9-5.4-3.4l-7.8,1.7c-2.4,0.5-4,3-3.4,5.4c0.5,2.1,2.3,3.5,4.4,3.5
		c0.3,0,0.7,0,1-0.1l7.8-1.7C134.4,418.8,135.9,416.4,135.4,413.9z"/>
	<path style="fill:#BF0080;" d="M135.4,401.2c-0.5-2.4-3-3.9-5.4-3.4l-7.8,1.7c-2.4,0.5-4,3-3.4,5.4c0.5,2.1,2.3,3.5,4.4,3.5
		c0.3,0,0.7,0,1-0.1l7.8-1.7C134.4,406.1,135.9,403.7,135.4,401.2z"/>
	<path style="fill:#BF0080;" d="M135.4,388.5c-0.5-2.4-3-3.9-5.4-3.4l-7.8,1.7c-2.4,0.5-4,3-3.4,5.4c0.5,2.1,2.3,3.5,4.4,3.5
		c0.3,0,0.7,0,1-0.1l7.8-1.7C134.4,393.3,135.9,390.9,135.4,388.5z"/>
	<path style="fill:#BF0080;" d="M123.2,383c0.3,0,0.7,0,1-0.1l7.8-1.7c2.4-0.5,4-2.9,3.4-5.4c-0.5-2.4-3-4-5.4-3.4l-7.8,1.7
		c-2.4,0.5-4,2.9-3.4,5.4C119.2,381.6,121.1,383,123.2,383z"/>
	<path style="fill:#BF0080;" d="M118.8,354.1c0.5,2.1,2.3,3.5,4.4,3.5c0.3,0,0.7,0,1-0.1l7.8-1.7c2.4-0.5,4-3,3.4-5.4
		c-0.1-0.4-0.3-0.8-0.5-1.2h6.2c1.9,0,3.5-1.6,3.5-3.5s-1.6-3.5-3.5-3.5h-7.3c1.3-1,2-2.8,1.6-4.5c-0.5-2.4-3-3.9-5.4-3.4l-7.8,1.7
		c-2.4,0.5-4,3-3.4,5.4c0.5,2.1,2.3,3.5,4.4,3.5c0.3,0,0.7,0,1-0.1l6.3-1.4c-0.5,0.6-0.9,1.4-0.9,2.3c0,0.5,0.1,0.9,0.3,1.3
		l-7.7,1.7C119.8,349.3,118.2,351.7,118.8,354.1z"/>
	<path style="fill:#BF0080;" d="M118.8,328.7c0.5,2.1,2.3,3.5,4.4,3.5c0.3,0,0.7,0,1-0.1l6.9-1.5c0.6,0.4,1.3,0.6,2,0.6h8
		c1.9,0,3.5-1.6,3.5-3.5s-1.6-3.5-3.5-3.5h-6c-0.8-2-3-3.1-5.1-2.6l-7.8,1.7C119.8,323.8,118.2,326.2,118.8,328.7z"/>
	<path style="fill:#BF0080;" d="M118.8,315.9c0.5,2.1,2.3,3.5,4.4,3.5c0.3,0,0.7,0,1-0.1l7.8-1.7c2.1-0.5,3.5-2.4,3.5-4.4h5.6
		c1.9,0,3.5-1.6,3.5-3.5s-1.6-3.5-3.5-3.5h-8c-1.7,0-3.1,1.2-3.4,2.7l-7.5,1.7C119.8,311.1,118.2,313.5,118.8,315.9z"/>
	<path style="fill:#BF0080;" d="M118.8,303.2c0.5,2.1,2.3,3.5,4.4,3.5c0.3,0,0.7,0,1-0.1l7.8-1.7c2.4-0.5,4-3,3.4-5.4
		c-0.5-2.4-3-3.9-5.4-3.4l-7.8,1.7C119.8,298.4,118.2,300.8,118.8,303.2z"/>
	<path style="fill:#BF0080;" d="M135.4,286.8c-0.5-2.4-3-4-5.4-3.4l-7.8,1.7c-2.4,0.5-4,2.9-3.4,5.4c0.5,2.1,2.3,3.5,4.4,3.5
		c0.3,0,0.7,0,1-0.1l5.6-1.3c0.4,1.4,1.8,2.5,3.3,2.5h8c1.9,0,3.5-1.6,3.5-3.5s-1.6-3.5-3.5-3.5h-5.6
		C135.5,287.7,135.5,287.3,135.4,286.8z"/>
	<path style="fill:#BF0080;" d="M118.8,277.8c0.5,2.1,2.3,3.5,4.4,3.5c0.3,0,0.7,0,1-0.1l7.8-1.7c1.3-0.3,2.4-1.2,3-2.3h6.1
		c1.9,0,3.5-1.6,3.5-3.5s-1.6-3.5-3.5-3.5h-8c-0.6,0-1.2,0.2-1.7,0.5c-0.5,0-0.9,0-1.4,0.1l-7.8,1.7
		C119.8,273,118.2,275.4,118.8,277.8z"/>
	<path style="fill:#BF0080;" d="M122.2,259.7c-2.4,0.5-4,3-3.4,5.4c0.5,2.1,2.3,3.5,4.4,3.5c0.3,0,0.7,0,1-0.1l7.8-1.7
		c2.4-0.5,4-3,3.4-5.4c-0.2-0.9-0.6-1.6-1.2-2.2h6.9c1.9,0,3.5-1.6,3.5-3.5s-1.6-3.5-3.5-3.5h-6.4c0.7-1,1-2.2,0.7-3.5
		c-0.5-2.4-3-3.9-5.4-3.4l-7.8,1.7c-2.4,0.5-4,3-3.4,5.4c0.5,2.1,2.3,3.5,4.4,3.5c0.3,0,0.7,0,1-0.1l5.6-1.3
		c-0.1,0.4-0.2,0.7-0.2,1.1c0,0.9,0.3,1.6,0.8,2.3c-0.1,0-0.3,0-0.4,0.1L122.2,259.7z"/>
	<path style="fill:#BF0080;" d="M118.8,201.5c0.5,2.1,2.3,3.5,4.4,3.5c0.3,0,0.7,0,1-0.1l5.6-1.2c-0.1,0.3-0.2,0.6-0.2,1
		c0,0.9,0.4,1.8,1,2.4c-0.2,0-0.4,0-0.5,0.1l-7.8,1.7c-2.4,0.5-4,2.9-3.4,5.4c0.5,2.1,2.3,3.5,4.4,3.5c0.3,0,0.7,0,1-0.1l7.8-1.7
		c2.4-0.5,4-2.9,3.4-5.4c-0.2-0.9-0.7-1.8-1.4-2.4h7.1c1.9,0,3.5-1.6,3.5-3.5s-1.6-3.5-3.5-3.5h-6.3c0.5-0.9,0.8-1.9,0.6-3h2.3
		c1.9,0,3.5-1.6,3.5-3.5c0-1-0.4-1.9-1.1-2.5h5.4c-0.6,0.6-1.1,1.5-1.1,2.5c0,1.9,1.6,3.5,3.5,3.5h8c1.9,0,3.5-1.6,3.5-3.5
		c0-1-0.4-1.9-1.1-2.5h5.4c-0.6,0.6-1.1,1.5-1.1,2.5c0,1.9,1.6,3.5,3.5,3.5h8c1.9,0,3.5-1.6,3.5-3.5c0-1-0.4-1.9-1.1-2.5h5.4
		c-0.6,0.6-1.1,1.5-1.1,2.5c0,1.9,1.6,3.5,3.5,3.5h8c1.9,0,3.5-1.6,3.5-3.5c0-1-0.4-1.9-1.1-2.5h6.6c1.9,0,3.5-1.6,3.5-3.5
		s-1.6-3.5-3.5-3.5h-8c-1.9,0-3.5,1.6-3.5,3.5c0,1,0.4,1.9,1.1,2.5h-5.4c0.6-0.6,1.1-1.5,1.1-2.5c0-1.9-1.6-3.5-3.5-3.5h-8
		c-1.9,0-3.5,1.6-3.5,3.5c0,1,0.4,1.9,1.1,2.5h-5.4c0.6-0.6,1.1-1.5,1.1-2.5c0-1.9-1.6-3.5-3.5-3.5h-8c-1.9,0-3.5,1.6-3.5,3.5
		c0,1,0.4,1.9,1.1,2.5h-5.4c0.6-0.6,1.1-1.5,1.1-2.5c0-1.9-1.6-3.5-3.5-3.5h-8c-1.9,0-3.5,1.6-3.5,3.5c0,1,0.4,1.9,1.1,2.5H131
		c0.6-0.6,1.1-1.5,1.1-2.5c0-1.9-1.6-3.5-3.5-3.5h-8c-1.9,0-3.5,1.6-3.5,3.5c0,1,0.4,1.9,1.1,2.5h-5.4c0.6-0.6,1.1-1.5,1.1-2.5
		c0-1.9-1.6-3.5-3.5-3.5h-8c-1.9,0-3.5,1.6-3.5,3.5c0,1,0.4,1.9,1.1,2.5h-5.4c0.6-0.6,1.1-1.5,1.1-2.5c0-1.9-1.6-3.5-3.5-3.5h-8
		c-1.9,0-3.5,1.6-3.5,3.5c0,1,0.4,1.9,1.1,2.5h-5.4c0.6-0.6,1.1-1.5,1.1-2.5c0-1.9-1.6-3.5-3.5-3.5h-8c-1.9,0-3.5,1.6-3.5,3.5
		c0,1,0.4,1.9,1.1,2.5h-5.4c0.6-0.6,1.1-1.5,1.1-2.5c0-1.9-1.6-3.5-3.5-3.5h-8c-1.9,0-3.5,1.6-3.5,3.5c0,1,0.4,1.9,1.1,2.5h-6.6
		c-1.9,0-3.5,1.6-3.5,3.5s1.6,3.5,3.5,3.5h8c1.9,0,3.5-1.6,3.5-3.5c0-1-0.4-1.9-1.1-2.5H54c-0.6,0.6-1.1,1.5-1.1,2.5
		c0,1.9,1.6,3.5,3.5,3.5h8c1.9,0,3.5-1.6,3.5-3.5c0-1-0.4-1.9-1.1-2.5h5.4c-0.6,0.6-1.1,1.5-1.1,2.5c0,1.9,1.6,3.5,3.5,3.5h8
		c1.9,0,3.5-1.6,3.5-3.5c0-1-0.4-1.9-1.1-2.5h5.4c-0.6,0.6-1.1,1.5-1.1,2.5c0,1.9,1.6,3.5,3.5,3.5h8c1.9,0,3.5-1.6,3.5-3.5
		c0-1-0.4-1.9-1.1-2.5h5.4c-0.6,0.6-1.1,1.5-1.1,2.5c0,1.9,1.6,3.5,3.5,3.5h7.9C118.7,199.1,118.5,200.3,118.8,201.5z M122.6,196
		c0.2-0.4,0.3-0.9,0.3-1.4c0-1-0.4-1.9-1.1-2.5h5.4c-0.6,0.6-1.1,1.5-1.1,2.5c0,0.2,0,0.4,0.1,0.6L122.6,196z"/>
	<path style="fill:#BF0080;" d="M324.8,332.9c0.5,2.1,2.3,3.5,4.4,3.5c0.3,0,0.7,0,1-0.1l7.8-1.7c2.4-0.5,4-3,3.4-5.4
		c-0.5-2.4-2.9-3.9-5.4-3.4l-5.5,1.2c-0.3-1.6-1.7-2.9-3.4-2.9h-8c-1.9,0-3.5,1.6-3.5,3.5c0,1,0.4,1.9,1.1,2.5h-5.4
		c0.7-0.6,1.1-1.5,1.1-2.5c0-1.9-1.6-3.5-3.5-3.5h-8c-1.9,0-3.5,1.6-3.5,3.5c0,1,0.4,1.9,1.1,2.5h-5.4c0.7-0.6,1.1-1.5,1.1-2.5
		c0-1.9-1.6-3.5-3.5-3.5h-8c-1.9,0-3.5,1.6-3.5,3.5c0,1,0.4,1.9,1.1,2.5h-5.4c0.7-0.6,1.1-1.5,1.1-2.5c0-1.9-1.6-3.5-3.5-3.5h-8
		c-1.9,0-3.5,1.6-3.5,3.5c0,1,0.4,1.9,1.1,2.5h-5.4c0.6-0.6,1.1-1.5,1.1-2.5c0-1.9-1.6-3.5-3.5-3.5h-8c-1.9,0-3.5,1.6-3.5,3.5
		c0,1,0.4,1.9,1.1,2.5h-5.4c0.6-0.6,1.1-1.5,1.1-2.5c0-1.9-1.6-3.5-3.5-3.5h-8c-1.9,0-3.5,1.6-3.5,3.5c0,1,0.4,1.9,1.1,2.5h-5.4
		c0.6-0.6,1.1-1.5,1.1-2.5c0-1.9-1.6-3.5-3.5-3.5h-8c-1.9,0-3.5,1.6-3.5,3.5c0,1,0.4,1.9,1.1,2.5h-5.4c0.6-0.6,1.1-1.5,1.1-2.5
		c0-1.9-1.6-3.5-3.5-3.5h-8c-1.9,0-3.5,1.6-3.5,3.5c0,1,0.4,1.9,1.1,2.5h-5.4c0.6-0.6,1.1-1.5,1.1-2.5c0-1.9-1.6-3.5-3.5-3.5h-8
		c-1.9,0-3.5,1.6-3.5,3.5c0,1,0.4,1.9,1.1,2.5h-5.4c0.6-0.6,1.1-1.5,1.1-2.5c0-1.9-1.6-3.5-3.5-3.5h-8c-1.9,0-3.5,1.6-3.5,3.5
		c0,1,0.4,1.9,1.1,2.5h-6.6c-1.9,0-3.5,1.6-3.5,3.5s1.6,3.5,3.5,3.5h8c1.9,0,3.5-1.6,3.5-3.5c0-1-0.4-1.9-1.1-2.5h5.4
		c-0.6,0.6-1.1,1.5-1.1,2.5c0,1.9,1.6,3.5,3.5,3.5h8c1.9,0,3.5-1.6,3.5-3.5c0-1-0.4-1.9-1.1-2.5h5.4c-0.6,0.6-1.1,1.5-1.1,2.5
		c0,1.9,1.6,3.5,3.5,3.5h8c1.9,0,3.5-1.6,3.5-3.5c0-1-0.4-1.9-1.1-2.5h5.4c-0.6,0.6-1.1,1.5-1.1,2.5c0,1.9,1.6,3.5,3.5,3.5h8
		c1.9,0,3.5-1.6,3.5-3.5c0-1-0.4-1.9-1.1-2.5h5.4c-0.6,0.6-1.1,1.5-1.1,2.5c0,1.9,1.6,3.5,3.5,3.5h8c1.9,0,3.5-1.6,3.5-3.5
		c0-1-0.4-1.9-1.1-2.5h5.4c-0.6,0.6-1.1,1.5-1.1,2.5c0,1.9,1.6,3.5,3.5,3.5h8c1.9,0,3.5-1.6,3.5-3.5c0-1-0.4-1.9-1.1-2.5h5.4
		c-0.6,0.6-1.1,1.5-1.1,2.5c0,1.9,1.6,3.5,3.5,3.5h8c1.9,0,3.5-1.6,3.5-3.5c0-1-0.4-1.9-1.1-2.5h5.4c-0.7,0.6-1.1,1.5-1.1,2.5
		c0,1.9,1.6,3.5,3.5,3.5h8c1.9,0,3.5-1.6,3.5-3.5c0-1-0.4-1.9-1.1-2.5h5.4c-0.7,0.6-1.1,1.5-1.1,2.5c0,1.9,1.6,3.5,3.5,3.5h8
		c1.9,0,3.5-1.6,3.5-3.5c0-1-0.4-1.9-1.1-2.5h5.4c-0.7,0.6-1.1,1.5-1.1,2.5c0,1.9,1.6,3.5,3.5,3.5h8c1.9,0,3.5-1.6,3.5-3.5
		c0-1-0.4-1.9-1.1-2.5h4.2C324.6,331.7,324.6,332.3,324.8,332.9z"/>
	<path style="fill:#BF0080;" d="M341.4,316.5c-0.5-2.4-2.9-3.9-5.4-3.4l-7.8,1.7c-2.4,0.5-4,3-3.4,5.4c0.5,2.1,2.3,3.5,4.4,3.5
		c0.3,0,0.7,0,1-0.1l7.8-1.7C340.4,321.3,341.9,318.9,341.4,316.5z"/>
	<path style="fill:#BF0080;" d="M341.4,291.1c-0.5-2.4-2.9-3.9-5.4-3.4l-6.5,1.5c-0.6-0.6-1.5-1-2.4-1h-8c-1.9,0-3.5,1.6-3.5,3.5
		c0,1,0.4,1.9,1.1,2.5h-5.4c0.7-0.6,1.1-1.5,1.1-2.5c0-1.9-1.6-3.5-3.5-3.5h-8c-1.9,0-3.5,1.6-3.5,3.5c0,1,0.4,1.9,1.1,2.5h-5.4
		c0.7-0.6,1.1-1.5,1.1-2.5c0-1.9-1.6-3.5-3.5-3.5h-8c-1.9,0-3.5,1.6-3.5,3.5c0,1,0.4,1.9,1.1,2.5h-5.4c0.7-0.6,1.1-1.5,1.1-2.5
		c0-1.9-1.6-3.5-3.5-3.5h-8c-1.9,0-3.5,1.6-3.5,3.5c0,1,0.4,1.9,1.1,2.5h-5.4c0.6-0.6,1.1-1.5,1.1-2.5c0-1.9-1.6-3.5-3.5-3.5h-8
		c-1.9,0-3.5,1.6-3.5,3.5c0,1,0.4,1.9,1.1,2.5h-5.4c0.6-0.6,1.1-1.5,1.1-2.5c0-1.9-1.6-3.5-3.5-3.5h-8c-1.9,0-3.5,1.6-3.5,3.5
		c0,1,0.4,1.9,1.1,2.5h-5.4c0.6-0.6,1.1-1.5,1.1-2.5c0-1.9-1.6-3.5-3.5-3.5h-8c-1.9,0-3.5,1.6-3.5,3.5c0,1,0.4,1.9,1.1,2.5h-5.4
		c0.6-0.6,1.1-1.5,1.1-2.5c0-1.9-1.6-3.5-3.5-3.5h-8c-1.9,0-3.5,1.6-3.5,3.5c0,1,0.4,1.9,1.1,2.5h-5.4c0.6-0.6,1.1-1.5,1.1-2.5
		c0-1.9-1.6-3.5-3.5-3.5h-8c-1.9,0-3.5,1.6-3.5,3.5c0,1,0.4,1.9,1.1,2.5h-5.4c0.6-0.6,1.1-1.5,1.1-2.5c0-1.9-1.6-3.5-3.5-3.5h-8
		c-1.9,0-3.5,1.6-3.5,3.5c0,1,0.4,1.9,1.1,2.5h-6.6c-1.9,0-3.5,1.6-3.5,3.5s1.6,3.5,3.5,3.5h8c1.9,0,3.5-1.6,3.5-3.5
		c0-1-0.4-1.9-1.1-2.5h5.4c-0.6,0.6-1.1,1.5-1.1,2.5c0,1.9,1.6,3.5,3.5,3.5h8c1.9,0,3.5-1.6,3.5-3.5c0-1-0.4-1.9-1.1-2.5h5.4
		c-0.6,0.6-1.1,1.5-1.1,2.5c0,1.9,1.6,3.5,3.5,3.5h8c1.9,0,3.5-1.6,3.5-3.5c0-1-0.4-1.9-1.1-2.5h5.4c-0.6,0.6-1.1,1.5-1.1,2.5
		c0,1.9,1.6,3.5,3.5,3.5h8c1.9,0,3.5-1.6,3.5-3.5c0-1-0.4-1.9-1.1-2.5h5.4c-0.6,0.6-1.1,1.5-1.1,2.5c0,1.9,1.6,3.5,3.5,3.5h8
		c1.9,0,3.5-1.6,3.5-3.5c0-1-0.4-1.9-1.1-2.5h5.4c-0.6,0.6-1.1,1.5-1.1,2.5c0,1.9,1.6,3.5,3.5,3.5h8c1.9,0,3.5-1.6,3.5-3.5
		c0-1-0.4-1.9-1.1-2.5h5.4c-0.6,0.6-1.1,1.5-1.1,2.5c0,1.9,1.6,3.5,3.5,3.5h8c1.9,0,3.5-1.6,3.5-3.5c0-1-0.4-1.9-1.1-2.5h5.4
		c-0.7,0.6-1.1,1.5-1.1,2.5c0,1.9,1.6,3.5,3.5,3.5h8c1.9,0,3.5-1.6,3.5-3.5c0-1-0.4-1.9-1.1-2.5h5.4c-0.7,0.6-1.1,1.5-1.1,2.5
		c0,1.9,1.6,3.5,3.5,3.5h8c1.9,0,3.5-1.6,3.5-3.5c0-1-0.4-1.9-1.1-2.5h5.4c-0.7,0.6-1.1,1.5-1.1,2.5c0,1.9,1.6,3.5,3.5,3.5h8
		c1.9,0,3.5-1.6,3.5-3.5c0-1-0.4-1.9-1.1-2.5h4.4c0.6,1.9,2.3,3.2,4.3,3.2c0.3,0,0.7,0,1-0.1l7.8-1.7
		C340.4,295.9,341.9,293.5,341.4,291.1z"/>
	<path style="fill:#BF0080;" d="M148,469.1l-7.8-1.7c-2.4-0.5-4.8,1-5.4,3.4c-0.5,2.4,1,4.8,3.4,5.4l7.8,1.7c0.3,0.1,0.7,0.1,1,0.1
		c2.1,0,3.9-1.4,4.4-3.5C151.9,472.1,150.4,469.7,148,469.1z"/>
	<path style="fill:#BF0080;" d="M148,456.4l-7.8-1.7c-2.4-0.5-4.8,1-5.4,3.4c-0.5,2.4,1,4.8,3.4,5.4l7.8,1.7c0.3,0.1,0.7,0.1,1,0.1
		c2.1,0,3.9-1.4,4.4-3.5C151.9,459.4,150.4,457,148,456.4z"/>
	<path style="fill:#BF0080;" d="M148,443.7l-7.8-1.7c-2.4-0.5-4.8,1-5.4,3.4c-0.5,2.4,1,4.8,3.4,5.4l7.8,1.7c0.3,0.1,0.7,0.1,1,0.1
		c2.1,0,3.9-1.4,4.4-3.5C151.9,446.7,150.4,444.3,148,443.7z"/>
	<path style="fill:#BF0080;" d="M148,431l-7.8-1.7c-2.4-0.5-4.8,1-5.4,3.4c-0.5,2.4,1,4.8,3.4,5.4l7.8,1.7c0.3,0.1,0.7,0.1,1,0.1
		c2.1,0,3.9-1.4,4.4-3.5C151.9,433.9,150.4,431.5,148,431z"/>
	<path style="fill:#BF0080;" d="M148,418.3l-7.8-1.7c-2.4-0.5-4.8,1-5.4,3.4c-0.5,2.4,1,4.8,3.4,5.4l7.8,1.7c0.3,0.1,0.7,0.1,1,0.1
		c2.1,0,3.9-1.4,4.4-3.5C151.9,421.2,150.4,418.8,148,418.3z"/>
	<path style="fill:#BF0080;" d="M148,405.6l-7.8-1.7c-2.4-0.5-4.8,1-5.4,3.4c-0.5,2.4,1,4.8,3.4,5.4l7.8,1.7c0.3,0.1,0.7,0.1,1,0.1
		c2.1,0,3.9-1.4,4.4-3.5C151.9,408.5,150.4,406.1,148,405.6z"/>
	<path style="fill:#BF0080;" d="M148,392.9l-7.8-1.7c-2.4-0.5-4.8,1-5.4,3.4c-0.5,2.4,1,4.8,3.4,5.4l7.8,1.7c0.3,0.1,0.7,0.1,1,0.1
		c2.1,0,3.9-1.4,4.4-3.5C151.9,395.8,150.4,393.4,148,392.9z"/>
	<path style="fill:#BF0080;" d="M138.2,387.2l7.8,1.7c0.3,0.1,0.7,0.1,1,0.1c2.1,0,3.9-1.4,4.4-3.5c0.5-2.4-1-4.8-3.4-5.4l-7.8-1.7
		c-2.4-0.5-4.8,1-5.4,3.4S135.8,386.6,138.2,387.2z"/>
	<path style="fill:#BF0080;" d="M305.9,415c-1.7,1.8-1.6,4.7,0.2,6.4c0.9,0.8,2,1.2,3.1,1.2c1.2,0,2.4-0.5,3.3-1.4l5.5-5.8
		c0.1-0.1,0.2-0.2,0.3-0.3c0,0.3,0.1,0.7,0.2,1c0.7,1.8,2.4,2.9,4.2,2.9c0.5,0,1.1-0.1,1.6-0.3l7.5-2.9c2.3-0.9,3.5-3.5,2.6-5.8
		s-3.5-3.5-5.8-2.6l-7.5,2.9c-0.8,0.3-1.4,0.8-1.9,1.5c-0.1-1-0.6-1.9-1.3-2.7c-0.4-0.3-0.8-0.6-1.2-0.8c0.2,0,0.4-0.1,0.7-0.2
		l7.5-2.9c2.3-0.9,3.5-3.5,2.6-5.8s-3.5-3.5-5.8-2.6l-7.5,2.9c-0.8,0.3-1.5,0.9-2,1.5c-0.1-1-0.6-2-1.3-2.7
		c-0.4-0.3-0.8-0.6-1.2-0.8c0.3,0,0.5-0.1,0.8-0.2l7.5-2.9c2.3-0.9,3.5-3.5,2.6-5.8s-3.5-3.5-5.8-2.6l-7.5,2.9
		c-0.9,0.3-1.6,0.9-2.1,1.6c-0.1-1-0.6-2-1.4-2.7c-0.4-0.4-0.8-0.6-1.3-0.8c0.3,0,0.6-0.1,0.9-0.2l7.5-2.9c2.3-0.9,3.5-3.5,2.6-5.8
		s-3.5-3.5-5.8-2.6l-7.5,2.9c-0.9,0.3-1.6,1-2.1,1.7c-0.1-1-0.5-2-1.4-2.8c-1.8-1.7-4.7-1.6-6.4,0.2l-5.5,5.8
		c-1.7,1.8-1.6,4.7,0.2,6.4c0.9,0.8,2,1.2,3.1,1.2c1.2,0,2.4-0.5,3.3-1.4l5.5-5.8c0.2-0.2,0.3-0.4,0.5-0.6c0,0.4,0.1,0.8,0.3,1.1
		c0.4,1.2,1.3,2,2.4,2.5c-0.9,0.1-1.9,0.6-2.6,1.3L292,394c-1.7,1.8-1.6,4.7,0.2,6.4c0.9,0.8,2,1.2,3.1,1.2c1.2,0,2.4-0.5,3.3-1.4
		l5.5-5.8c0.2-0.2,0.3-0.3,0.4-0.5c0,0.4,0.1,0.7,0.3,1.1c0.4,1.1,1.3,2,2.3,2.5c-0.9,0.2-1.7,0.6-2.4,1.3l-5.5,5.8
		c-1.7,1.8-1.6,4.7,0.2,6.4c0.9,0.8,2,1.2,3.1,1.2c1.2,0,2.4-0.5,3.3-1.4l5.5-5.8c0.1-0.1,0.2-0.3,0.3-0.4c0,0.4,0.1,0.7,0.2,1.1
		c0.4,1.1,1.3,2,2.3,2.4c-0.8,0.2-1.6,0.6-2.3,1.3L305.9,415z"/>
	<path style="fill:#BF0080;" d="M322.9,440.7l7.2,3.5c0.6,0.3,1.3,0.4,1.9,0.4c1.7,0,3.3-0.9,4.1-2.6c1.1-2.2,0.1-4.9-2.1-6
		l-7.2-3.5c-2.2-1.1-4.9-0.1-6,2.1C319.7,437,320.7,439.7,322.9,440.7z"/>
	<path style="fill:#BF0080;" d="M328.2,452.1c1.1-2.2,0.1-4.9-2.1-6l-7.2-3.5c-0.5-0.2-1.1-0.4-1.6-0.4c0.4-0.2,0.8-0.4,1.2-0.7
		c1.9-1.6,2.1-4.5,0.4-6.3l-5.2-6c-1.6-1.9-4.5-2.1-6.3-0.4s-2.1,4.5-0.4,6.3l5.2,6c0.8,0.9,1.9,1.4,3.1,1.5c-1,0.4-1.8,1.2-2.3,2.2
		c-1.1,2.2-0.1,4.9,2.1,6l7.2,3.5c0.6,0.3,1.3,0.4,1.9,0.4C325.8,454.6,327.5,453.7,328.2,452.1z"/>
	<path style="fill:#BF0080;" d="M318.2,456l-7.2-3.5c-0.3-0.1-0.6-0.2-0.9-0.3c0.3-0.2,0.6-0.3,0.9-0.6c1.9-1.6,2.1-4.5,0.4-6.3
		l-5.2-6c-1.6-1.9-4.5-2.1-6.3-0.4c-1.9,1.6-2.1,4.5-0.4,6.3l5.2,6c0.6,0.7,1.5,1.2,2.4,1.4c-0.8,0.4-1.5,1.1-2,2
		c-0.3,0.7-0.4,1.4-0.4,2.1c-0.2-0.4-0.4-0.8-0.7-1.2l-5.2-6c-1.6-1.9-4.5-2.1-6.3-0.4c-1.9,1.6-2.1,4.5-0.4,6.3l5.2,6
		c0.5,0.6,1.2,1,1.9,1.3c-0.8,0.4-1.4,1.1-1.8,1.9c-0.3,0.5-0.4,1.1-0.4,1.7c-0.1-0.2-0.2-0.4-0.4-0.5l-5.2-6
		c-1.6-1.9-4.5-2.1-6.3-0.4s-2.1,4.5-0.4,6.3l5.2,6c0.9,1,2.1,1.5,3.4,1.5c1,0,2.1-0.4,2.9-1.1c0.9-0.8,1.5-2,1.5-3.1
		c0.4,0.7,1,1.3,1.8,1.6l7.2,3.5c0.6,0.3,1.3,0.4,1.9,0.4c1.7,0,3.3-0.9,4.1-2.6c1.1-2.2,0.1-4.9-2.1-6l-7.2-3.5
		c-0.1-0.1-0.3-0.1-0.4-0.1c0.2-0.1,0.5-0.3,0.7-0.5c1.1-0.9,1.6-2.2,1.5-3.5c0.4,1,1.1,1.8,2.2,2.3l7.2,3.5
		c0.6,0.3,1.3,0.4,1.9,0.4c1.7,0,3.3-0.9,4.1-2.6C321.4,459.8,320.5,457.1,318.2,456z"/>
	<path style="fill:#BF0080;" d="M352.7,384c2.3-0.9,3.5-3.5,2.6-5.8s-3.5-3.5-5.8-2.6l-7.5,2.9c-0.9,0.3-1.6,1-2.1,1.7
		c-0.1-1-0.5-2-1.4-2.8c-1.8-1.7-4.7-1.6-6.4,0.2l-5.5,5.8c-1.7,1.8-1.6,4.7,0.2,6.4c0.9,0.8,2,1.2,3.1,1.2c1.2,0,2.4-0.5,3.3-1.4
		l5.5-5.8c0.2-0.2,0.3-0.4,0.5-0.6c0,0.4,0.1,0.8,0.3,1.1c0.4,1.2,1.3,2,2.4,2.5c-0.9,0.1-1.9,0.6-2.6,1.3l-5.5,5.8
		c-1.7,1.8-1.6,4.7,0.2,6.4c0.9,0.8,2,1.2,3.1,1.2c1.2,0,2.4-0.5,3.3-1.4l5.5-5.8c0.2-0.2,0.3-0.3,0.4-0.5c0,0.4,0.1,0.7,0.3,1.1
		c0.4,1.1,1.3,2,2.3,2.5c-0.9,0.2-1.7,0.6-2.4,1.3l-5.5,5.8c-1.7,1.8-1.6,4.7,0.2,6.4c0.9,0.8,2,1.2,3.1,1.2c1.2,0,2.4-0.5,3.3-1.4
		l5.5-5.8c0.1-0.1,0.2-0.3,0.3-0.4c0,0.4,0.1,0.7,0.2,1.1c0.4,1.1,1.3,2,2.3,2.4c-0.8,0.2-1.6,0.6-2.3,1.3l-5.5,5.8
		c-1.7,1.8-1.6,4.7,0.2,6.4c0.9,0.8,2,1.2,3.1,1.2c1.2,0,2.4-0.5,3.3-1.4l5.5-5.8c0.1-0.1,0.2-0.2,0.3-0.3c0,0.3,0.1,0.7,0.2,1
		c0.7,1.8,2.4,2.9,4.2,2.9c0.5,0,1.1-0.1,1.6-0.3l7.5-2.9c2.3-0.9,3.5-3.5,2.6-5.8s-3.5-3.5-5.8-2.6l-7.5,2.9
		c-0.8,0.3-1.4,0.8-1.9,1.5c-0.1-1-0.6-1.9-1.3-2.7c-0.4-0.3-0.8-0.6-1.2-0.8c0.2,0,0.4-0.1,0.7-0.2l7.5-2.9
		c2.3-0.9,3.5-3.5,2.6-5.8s-3.5-3.5-5.8-2.6l-7.5,2.9c-0.8,0.3-1.5,0.9-2,1.5c-0.1-1-0.6-2-1.3-2.7c-0.4-0.3-0.8-0.6-1.2-0.8
		c0.3,0,0.5-0.1,0.8-0.2l7.5-2.9c2.3-0.9,3.5-3.5,2.6-5.8s-3.5-3.5-5.8-2.6l-7.5,2.9c-0.9,0.3-1.6,0.9-2.1,1.6c-0.1-1-0.6-2-1.4-2.7
		c-0.4-0.4-0.8-0.6-1.3-0.8c0.3,0,0.6-0.1,0.9-0.2L352.7,384z"/>
	<path style="fill:#BF0080;" d="M393.4,288c-0.9-2.3-3.5-3.5-5.8-2.6l-7.5,2.9c-0.8,0.3-1.4,0.8-1.9,1.5c-0.1-1-0.6-1.9-1.3-2.7
		c-0.4-0.3-0.8-0.6-1.2-0.8c0.2,0,0.4-0.1,0.7-0.2l7.5-2.9c2.3-0.9,3.5-3.5,2.6-5.8s-3.5-3.5-5.8-2.6l-7.5,2.9
		c-0.8,0.3-1.5,0.9-2,1.5c-0.1-1-0.6-2-1.3-2.7c-0.4-0.3-0.8-0.6-1.2-0.8c0.3,0,0.5-0.1,0.8-0.2l7.5-2.9c2.3-0.9,3.5-3.5,2.6-5.8
		s-3.5-3.5-5.8-2.6l-7.5,2.9c-0.9,0.3-1.6,0.9-2.1,1.6c-0.1-1-0.6-2-1.4-2.7c-0.4-0.4-0.8-0.6-1.3-0.8c0.3,0,0.6-0.1,0.9-0.2
		l7.5-2.9c2.3-0.9,3.5-3.5,2.6-5.8c-0.9-2.3-3.5-3.5-5.8-2.6l-7.5,2.9c-0.9,0.3-1.6,1-2.1,1.7c-0.1-1-0.5-2-1.4-2.8
		c-1.8-1.7-4.7-1.6-6.4,0.2l-5.5,5.8c-1.7,1.8-1.6,4.7,0.2,6.4c0.9,0.8,2,1.2,3.1,1.2c1.2,0,2.4-0.5,3.3-1.4l5.5-5.8
		c0.2-0.2,0.3-0.4,0.5-0.6c0,0.4,0.1,0.8,0.3,1.1c0.4,1.2,1.3,2,2.4,2.5c-0.9,0.1-1.9,0.6-2.6,1.3L351,272c-1.7,1.8-1.6,4.7,0.2,6.4
		c0.9,0.8,2,1.2,3.1,1.2c1.2,0,2.4-0.5,3.3-1.4l5.5-5.8c0.2-0.2,0.3-0.3,0.4-0.5c0,0.4,0.1,0.7,0.3,1.1c0.4,1.1,1.3,2,2.3,2.5
		c-0.9,0.2-1.7,0.6-2.4,1.3l-5.5,5.8c-1.7,1.8-1.6,4.7,0.2,6.4c0.9,0.8,2,1.2,3.1,1.2c1.2,0,2.4-0.5,3.3-1.4l5.5-5.8
		c0.1-0.1,0.2-0.3,0.3-0.4c0,0.4,0.1,0.7,0.2,1.1c0.4,1.1,1.3,2,2.3,2.4c-0.8,0.2-1.6,0.6-2.3,1.3l-5.5,5.8
		c-1.7,1.8-1.6,4.7,0.2,6.4c0.9,0.8,2,1.2,3.1,1.2c1.2,0,2.4-0.5,3.3-1.4l5.5-5.8c0.1-0.1,0.2-0.2,0.3-0.3c0,0.3,0.1,0.7,0.2,1
		c0.7,1.8,2.4,2.9,4.2,2.9c0.5,0,1.1-0.1,1.6-0.3l7.5-2.9C393.1,292.9,394.3,290.3,393.4,288z"/>
	<path style="fill:#BF0080;" d="M252,48.5c0.6,0.7,1.5,1.2,2.4,1.4c-0.9,0.5-1.7,1.2-2.1,2.3c-1,2.3,0.1,4.9,2.4,5.9l7.4,3.1
		c0.6,0.2,1.2,0.4,1.8,0.4c1.8,0,3.4-1,4.1-2.7c1-2.3-0.1-4.9-2.4-5.9l-7.4-3.1c-0.2-0.1-0.5-0.2-0.7-0.2c0.3-0.2,0.7-0.4,1-0.6
		c0.9-0.8,1.4-2,1.5-3.1c0.5,0.8,1.2,1.5,2.1,1.9l7.4,3.1c0.6,0.2,1.2,0.4,1.8,0.4c1.8,0,3.4-1,4.1-2.7c1-2.3-0.1-4.9-2.4-5.9
		l-7.4-3.1c-0.2-0.1-0.4-0.1-0.6-0.2c0.3-0.2,0.6-0.4,0.9-0.6c0.9-0.8,1.4-1.9,1.5-3c0.5,0.8,1.2,1.4,2.1,1.8l7.4,3.1
		c0.6,0.2,1.2,0.4,1.8,0.4c1.8,0,3.4-1,4.1-2.7c1-2.3-0.1-4.9-2.4-5.9l-7.4-3.1c-0.2-0.1-0.3-0.1-0.5-0.2c0.3-0.2,0.6-0.4,0.9-0.6
		c0.9-0.8,1.4-1.9,1.5-3c0.5,0.7,1.2,1.3,2,1.7l7.4,3.1c0.6,0.2,1.2,0.4,1.8,0.4c1.8,0,3.4-1,4.1-2.7c1-2.3-0.1-4.9-2.4-5.9
		l-7.4-3.1c-0.1-0.1-0.3-0.1-0.4-0.1c0.3-0.2,0.6-0.3,0.9-0.6c1.9-1.6,2-4.5,0.4-6.4l-5.3-6c-1.6-1.9-4.5-2-6.4-0.4s-2,4.5-0.4,6.4
		l5.3,6c0.6,0.6,1.3,1.1,2,1.3c-0.9,0.5-1.6,1.2-2,2.2c-0.2,0.5-0.3,0.9-0.3,1.4c-0.1-0.2-0.2-0.4-0.4-0.6l-5.3-6
		c-1.6-1.9-4.5-2-6.4-0.4s-2,4.5-0.4,6.4l5.3,6c0.6,0.7,1.4,1.1,2.2,1.3c-0.9,0.5-1.7,1.2-2.1,2.2c-0.2,0.5-0.3,1-0.3,1.4
		c-0.1-0.2-0.3-0.4-0.5-0.7l-5.3-6c-1.6-1.9-4.5-2-6.4-0.4s-2,4.5-0.4,6.4l5.3,6c0.6,0.7,1.4,1.2,2.3,1.4c-0.9,0.5-1.7,1.2-2.1,2.2
		c-0.2,0.5-0.3,1-0.3,1.5c-0.2-0.3-0.3-0.5-0.5-0.8l-5.3-6c-1.6-1.9-4.5-2-6.4-0.4s-2,4.5-0.4,6.4L252,48.5z"/>
	<path style="fill:#BF0080;" d="M202.6,18.9c-0.1,0.1-0.1,0.3-0.2,0.4c-0.1-0.3-0.3-0.6-0.4-0.9c-1.3-2.1-4.1-2.7-6.2-1.4l-6.7,4.3
		c-2.1,1.3-2.7,4.1-1.4,6.2c0.9,1.3,2.3,2.1,3.8,2.1c0.8,0,1.7-0.2,2.4-0.7l6.7-4.3c0.7-0.5,1.2-1.1,1.6-1.8
		c0.3,0.9,0.9,1.8,1.9,2.3c0.4,0.3,0.9,0.4,1.3,0.5c-0.2,0.1-0.4,0.2-0.6,0.3l-6.7,4.3c-2.1,1.3-2.7,4.1-1.4,6.2
		c0.9,1.3,2.3,2.1,3.8,2.1c0.8,0,1.7-0.2,2.4-0.7l6.7-4.3c0.8-0.5,1.3-1.2,1.7-1.9c0.3,1,0.9,1.8,1.9,2.4c0.4,0.3,0.9,0.4,1.4,0.5
		c-0.2,0.1-0.5,0.2-0.7,0.4l-6.7,4.3c-2.1,1.3-2.7,4.1-1.4,6.2c0.9,1.3,2.3,2.1,3.8,2.1c0.8,0,1.7-0.2,2.4-0.7l6.7-4.3
		c0.8-0.5,1.4-1.2,1.7-2c0.3,1,1,1.8,1.9,2.4c0.4,0.3,0.9,0.5,1.4,0.6c-0.3,0.1-0.6,0.2-0.8,0.4l-6.7,4.3c-2.1,1.3-2.7,4.1-1.4,6.2
		c0.9,1.3,2.3,2.1,3.8,2.1c0.8,0,1.7-0.2,2.4-0.7l6.7-4.3c0.8-0.5,1.4-1.3,1.7-2.1c0.3,1,1,1.9,1.9,2.5c0.7,0.5,1.6,0.7,2.4,0.7
		c1.1,0,2.2-0.4,3.1-1.2c0.1,0.1,0.2,0.3,0.3,0.4l5.3,6c0.6,0.6,1.3,1.1,2,1.3c-0.9,0.5-1.6,1.2-2,2.2c-0.2,0.5-0.3,0.9-0.3,1.4
		c-0.1-0.2-0.2-0.4-0.4-0.6l-5.3-6c-1.6-1.9-4.5-2-6.4-0.4s-2,4.5-0.4,6.4l5.3,6c0.6,0.7,1.4,1.1,2.2,1.3c-0.9,0.5-1.7,1.2-2.1,2.2
		c-0.2,0.5-0.3,1-0.3,1.4c-0.1-0.2-0.3-0.4-0.5-0.7l-5.3-6c-1.6-1.9-4.5-2-6.4-0.4s-2,4.5-0.4,6.4l5.3,6c0.6,0.7,1.4,1.2,2.3,1.4
		c-0.9,0.5-1.7,1.2-2.1,2.2c-0.2,0.5-0.3,1-0.3,1.5c-0.2-0.3-0.3-0.5-0.5-0.8l-5.3-6c-1.6-1.9-4.5-2-6.4-0.4s-2,4.5-0.4,6.4l5.3,6
		c0.6,0.7,1.5,1.2,2.4,1.4c-0.9,0.5-1.7,1.2-2.1,2.3c-1,2.3,0.1,4.9,2.4,5.9l7.4,3.1c0.6,0.2,1.2,0.4,1.8,0.4c1.8,0,3.4-1,4.1-2.7
		c1-2.3-0.1-4.9-2.4-5.9l-7.4-3.1c-0.2-0.1-0.5-0.2-0.7-0.2c0.3-0.2,0.7-0.4,1-0.6c0.9-0.8,1.4-2,1.5-3.1c0.5,0.8,1.2,1.5,2.1,1.9
		l7.4,3.1c0.6,0.2,1.2,0.4,1.8,0.4c1.8,0,3.4-1,4.1-2.7c1-2.3-0.1-4.9-2.4-5.9l-7.4-3.1c-0.2-0.1-0.4-0.1-0.6-0.2
		c0.3-0.2,0.6-0.4,0.9-0.6c0.9-0.8,1.4-1.9,1.5-3c0.5,0.8,1.2,1.4,2.1,1.8l7.4,3.1c0.6,0.2,1.2,0.4,1.8,0.4c1.8,0,3.4-1,4.1-2.7
		c1-2.3-0.1-4.9-2.4-5.9l-7.4-3.1c-0.2-0.1-0.3-0.1-0.5-0.2c0.3-0.2,0.6-0.4,0.9-0.6c0.9-0.8,1.4-1.9,1.5-3c0.5,0.7,1.2,1.3,2,1.7
		l7.4,3.1c0.6,0.2,1.2,0.4,1.8,0.4c1.8,0,3.4-1,4.1-2.7c1-2.3-0.1-4.9-2.4-5.9l-7.4-3.1c-0.1-0.1-0.3-0.1-0.4-0.1
		c0.3-0.2,0.6-0.3,0.9-0.6c1.9-1.6,2-4.5,0.4-6.4l-5.3-6c-0.7-0.8-1.6-1.3-2.6-1.4l0.5-0.8c1.3-2.1,0.7-4.9-1.5-6.2
		c-2.1-1.3-4.9-0.7-6.2,1.5l-4.2,6.8c-0.1,0.2-0.2,0.5-0.3,0.7c-0.1-0.4-0.3-0.7-0.5-1.1c-0.7-1-1.7-1.7-2.8-2
		c0.9-0.3,1.7-1,2.2-1.8l4.2-6.8c1.3-2.1,0.7-4.9-1.5-6.2c-2.1-1.3-4.9-0.7-6.2,1.5l-4.2,6.8c-0.1,0.2-0.2,0.4-0.3,0.6
		c-0.1-0.4-0.3-0.7-0.5-1c-0.7-1-1.7-1.7-2.8-2c0.8-0.3,1.6-1,2.1-1.8l4.2-6.8c1.3-2.1,0.7-4.9-1.5-6.2c-2.1-1.3-4.9-0.7-6.2,1.5
		l-4.2,6.8c-0.1,0.2-0.2,0.3-0.2,0.5c-0.1-0.3-0.3-0.7-0.5-1c-0.6-1-1.6-1.7-2.7-1.9c0.8-0.4,1.5-0.9,2-1.7l4.2-6.8
		c1.3-2.1,0.7-4.9-1.5-6.2c-2.1-1.3-4.9-0.7-6.2,1.5L202.6,18.9z"/>
	<path style="fill:#BF0080;" d="M183.5,19.6c0.8,0,1.7-0.2,2.4-0.7l6.7-4.3c0.7-0.5,1.2-1.1,1.6-1.8c0.3,0.9,0.9,1.8,1.9,2.3
		c0.7,0.5,1.6,0.7,2.4,0.7c1.5,0,3-0.8,3.8-2.1l4.2-6.8c1.3-2.1,0.7-4.9-1.5-6.2c-2.1-1.3-4.9-0.7-6.2,1.5L194.6,9
		c-0.1,0.1-0.1,0.3-0.2,0.4c-0.1-0.3-0.3-0.6-0.4-0.9c-1.3-2.1-4.1-2.7-6.2-1.4l-6.7,4.3c-2.1,1.3-2.7,4.1-1.4,6.2
		C180.5,18.9,182,19.6,183.5,19.6z"/>
	<path style="fill:#BF0080;" d="M38.2,52.2c-0.4-1-1.2-1.8-2.1-2.3c0.9-0.2,1.7-0.7,2.4-1.4l5.3-6c1.6-1.9,1.5-4.7-0.4-6.4
		c-1.9-1.6-4.7-1.5-6.4,0.4l-5.3,6c-0.2,0.2-0.4,0.5-0.5,0.8c0-0.5-0.1-1-0.3-1.5c-0.4-1-1.2-1.8-2.1-2.2c0.8-0.2,1.6-0.7,2.3-1.4
		l5.3-6c1.6-1.9,1.5-4.7-0.4-6.4s-4.7-1.5-6.4,0.4l-5.3,6c-0.2,0.2-0.3,0.4-0.5,0.7c0-0.5-0.1-1-0.3-1.4c-0.4-1-1.2-1.8-2.1-2.2
		c0.8-0.2,1.6-0.7,2.2-1.3l5.3-6c1.6-1.9,1.5-4.7-0.4-6.4c-2-1.6-4.8-1.5-6.5,0.4l-5.3,6c-0.2,0.2-0.3,0.4-0.4,0.6
		c0-0.5-0.1-0.9-0.3-1.4c-0.4-1-1.2-1.7-2-2.2c0.8-0.2,1.5-0.7,2-1.3l5.3-6c1.6-1.9,1.5-4.7-0.4-6.4c-1.9-1.6-4.7-1.5-6.4,0.4
		l-5.3,6c-1.6,1.9-1.5,4.7,0.4,6.4c0.3,0.2,0.6,0.4,0.9,0.6c-0.1,0-0.3,0.1-0.4,0.1l-7.4,3.1c-2.3,1-3.4,3.6-2.4,5.9
		c0.7,1.7,2.4,2.7,4.1,2.7c0.6,0,1.2-0.1,1.8-0.4l7.4-3.1c0.9-0.4,1.5-1,2-1.7c0.1,1.1,0.6,2.2,1.5,3c0.3,0.2,0.6,0.4,0.9,0.6
		c-0.2,0.1-0.4,0.1-0.5,0.2l-7.4,3.1c-2.3,1-3.4,3.6-2.4,5.9c0.7,1.7,2.4,2.7,4.1,2.7c0.6,0,1.2-0.1,1.8-0.4l7.4-3.1
		c0.9-0.4,1.6-1,2.1-1.8c0.1,1.1,0.6,2.2,1.5,3c0.3,0.3,0.6,0.5,0.9,0.6c-0.2,0.1-0.4,0.1-0.6,0.2l-7.4,3.1c-2.3,1-3.4,3.6-2.4,5.9
		c0.7,1.7,2.4,2.7,4.1,2.7c0.6,0,1.2-0.1,1.8-0.4l7.4-3.1c0.9-0.4,1.7-1.1,2.1-1.9c0.1,1.2,0.6,2.3,1.5,3.1c0.3,0.3,0.6,0.5,1,0.6
		c-0.3,0.1-0.5,0.1-0.7,0.2l-7.4,3.1c-2.3,1-3.4,3.6-2.4,5.9c0.7,1.7,2.4,2.7,4.1,2.7c0.6,0,1.2-0.1,1.8-0.4l7.4-3.1
		C38.1,57.1,39.2,54.5,38.2,52.2z"/>
	<path style="fill:#BF0080;" d="M88.1,13.7c0.9,1.4,2.3,2.1,3.8,2.1c0.8,0,1.6-0.2,2.4-0.7c0.9-0.6,1.5-1.4,1.9-2.3
		c0.4,0.7,0.9,1.4,1.6,1.8l6.7,4.3c0.8,0.5,1.6,0.7,2.4,0.7c1.5,0,2.9-0.7,3.8-2.1c1.3-2.1,0.7-4.9-1.4-6.2L102.6,7
		c-2.1-1.3-4.9-0.7-6.2,1.4C96.2,8.7,96.1,9,96,9.3c-0.1-0.1-0.1-0.3-0.2-0.4l-4.2-6.8c-1.3-2.1-4.1-2.8-6.2-1.5s-2.8,4.1-1.5,6.2
		L88.1,13.7z"/>
	<path style="fill:#BF0080;" d="M109.8,87.8l4.2,6.8c0.5,0.8,1.3,1.4,2.1,1.8c-1.1,0.3-2.1,0.9-2.8,2c-0.2,0.3-0.4,0.7-0.5,1
		c-0.1-0.2-0.2-0.4-0.3-0.6l-4.2-6.8c-1.3-2.1-4.1-2.8-6.2-1.5s-2.8,4.1-1.5,6.2l4.2,6.8c0.5,0.9,1.3,1.5,2.2,1.8
		c-1.1,0.2-2.1,0.9-2.8,2c-0.2,0.3-0.4,0.7-0.5,1.1c-0.1-0.2-0.2-0.5-0.3-0.7l-4.2-6.8c-1.3-2.1-4.1-2.8-6.2-1.5
		c-1.1,0.7-1.8,1.8-2.1,3.1c-0.2-0.3-0.4-0.5-0.7-0.8c-1.9-1.6-4.7-1.5-6.4,0.4l-5.3,6c-0.2,0.2-0.3,0.4-0.4,0.6
		c0-0.5-0.1-0.9-0.3-1.4c-0.4-1-1.2-1.7-2-2.2c0.8-0.2,1.5-0.7,2-1.3l5.3-6c1.6-1.9,1.5-4.7-0.4-6.4s-4.7-1.5-6.4,0.4l-5.3,6
		c-1.6,1.9-1.5,4.7,0.4,6.4c0.3,0.2,0.6,0.4,0.9,0.6c-0.1,0-0.3,0.1-0.4,0.1l-7.4,3.1c-2.3,1-3.4,3.6-2.4,5.9
		c0.7,1.7,2.4,2.7,4.1,2.7c0.6,0,1.2-0.1,1.8-0.4l7.4-3.1c0.9-0.4,1.5-1,2-1.7c0.1,1.1,0.6,2.2,1.5,3c0.3,0.2,0.6,0.4,0.9,0.6
		c-0.2,0.1-0.4,0.1-0.5,0.2l-7.4,3.1c-2.3,1-3.4,3.6-2.4,5.9c0.7,1.7,2.4,2.7,4.1,2.7c0.6,0,1.2-0.1,1.8-0.4l7.4-3.1
		c0.9-0.4,1.6-1,2.1-1.8c0.1,1.1,0.6,2.2,1.5,3c0.3,0.3,0.6,0.5,0.9,0.6c-0.2,0.1-0.4,0.1-0.6,0.2l-7.4,3.1c-2.3,1-3.4,3.6-2.4,5.9
		c0.6,1.4,1.8,2.3,3.1,2.6c0.2,1.7,1.7,3.1,3.5,3.1h1.6c-1.1,1.3-1.4,3-0.7,4.7c0.2,0.5,0.5,1,0.9,1.3h-1.7c-1.9,0-3.5,1.6-3.5,3.5
		s1.6,3.5,3.5,3.5h6.9c-0.6,0.6-1.1,1.5-1.1,2.5c0,1.9,1.6,3.5,3.5,3.5h8c1.9,0,3.5-1.6,3.5-3.5c0-1-0.4-1.9-1.1-2.5h5.4
		c-0.6,0.6-1.1,1.5-1.1,2.5c0,1.9,1.6,3.5,3.5,3.5h8c1.9,0,3.5-1.6,3.5-3.5c0-1-0.4-1.9-1.1-2.5h5.4c-0.6,0.6-1.1,1.5-1.1,2.5
		c0,1.9,1.6,3.5,3.5,3.5h8c1.9,0,3.5-1.6,3.5-3.5c0-1-0.4-1.9-1.1-2.5h5.4c-0.6,0.6-1.1,1.5-1.1,2.5c0,1.9,1.6,3.5,3.5,3.5h8
		c1.9,0,3.5-1.6,3.5-3.5c0-1-0.4-1.9-1.1-2.5h5.4c-0.6,0.6-1.1,1.5-1.1,2.5c0,1.9,1.6,3.5,3.5,3.5h8c1.9,0,3.5-1.6,3.5-3.5
		c0-1-0.4-1.9-1.1-2.5h5.4c-0.6,0.6-1.1,1.5-1.1,2.5c0,1.9,1.6,3.5,3.5,3.5h8c1.9,0,3.5-1.6,3.5-3.5c0-1-0.4-1.9-1.1-2.5h6.6
		c1.9,0,3.5-1.6,3.5-3.5c0-1.1-0.5-2-1.3-2.7c0.8-0.5,1.5-1.2,1.9-2.1c0.9-2.1,0.1-4.4-1.8-5.6c0.7-0.6,1.2-1.6,1.2-2.6
		c0-0.2,0-0.5-0.1-0.7l2.2,0.9c0.6,0.2,1.2,0.4,1.8,0.4c1.8,0,3.4-1,4.1-2.7c1-2.3-0.1-4.9-2.4-5.9l-7.4-3.1
		c-0.2-0.1-0.4-0.1-0.6-0.2c0.3-0.2,0.6-0.4,0.9-0.6c0.9-0.8,1.4-1.9,1.5-3c0.5,0.8,1.2,1.4,2.1,1.8l7.4,3.1
		c0.6,0.2,1.2,0.4,1.8,0.4c1.8,0,3.4-1,4.1-2.7c1-2.3-0.1-4.9-2.4-5.9l-7.4-3.1c-0.2-0.1-0.3-0.1-0.5-0.2c0.3-0.2,0.6-0.4,0.9-0.6
		c0.9-0.8,1.4-1.9,1.5-3c0.5,0.7,1.2,1.3,2,1.7l7.4,3.1c0.6,0.2,1.2,0.4,1.8,0.4c1.8,0,3.4-1,4.1-2.7c1-2.3-0.1-4.9-2.4-5.9
		l-7.4-3.1c-0.1-0.1-0.3-0.1-0.4-0.1c0.3-0.2,0.6-0.3,0.9-0.6c1.9-1.6,2-4.5,0.4-6.4l-5.3-6c-1.6-1.9-4.5-2-6.4-0.4s-2,4.5-0.4,6.4
		l5.3,6c0.6,0.6,1.3,1.1,2,1.3c-0.9,0.5-1.6,1.2-2,2.2c-0.2,0.5-0.3,0.9-0.3,1.4c-0.1-0.2-0.2-0.4-0.4-0.6l-5.3-6
		c-1.6-1.9-4.5-2-6.4-0.4c-0.3,0.2-0.5,0.5-0.7,0.8c-0.2-1.2-0.9-2.4-2.1-3.1c-2.1-1.3-4.9-0.7-6.2,1.5l-4.2,6.8
		c-0.1,0.2-0.2,0.5-0.3,0.7c-0.1-0.4-0.3-0.7-0.5-1.1c-0.7-1-1.7-1.7-2.8-2c0.9-0.3,1.7-1,2.2-1.8l4.2-6.8c1.3-2.1,0.7-4.9-1.5-6.2
		c-2.1-1.3-4.9-0.7-6.2,1.5l-4.2,6.8c-0.1,0.2-0.2,0.4-0.3,0.6c-0.1-0.4-0.3-0.7-0.5-1c-0.7-1-1.7-1.7-2.8-2c0.8-0.3,1.6-1,2.1-1.8
		l4.2-6.8c1.3-2.1,0.7-4.9-1.5-6.2c-2.1-1.3-4.9-0.7-6.2,1.5l-4.2,6.8c-0.1,0.2-0.2,0.3-0.2,0.5c-0.1-0.3-0.3-0.7-0.5-1
		c-0.6-1-1.6-1.7-2.7-1.9c0.8-0.4,1.5-0.9,2-1.7l4.2-6.8c1.3-2.1,0.7-4.9-1.5-6.2c-2.1-1.3-4.9-0.7-6.2,1.5l-4.2,6.8
		c-1.3,2.1-0.7,4.9,1.5,6.2c0.4,0.3,0.9,0.4,1.3,0.5c-0.2,0.1-0.4,0.2-0.6,0.3l-6.7,4.3c-2.1,1.3-2.7,4.1-1.4,6.2
		c0.9,1.3,2.3,2.1,3.8,2.1c0.8,0,1.7-0.2,2.4-0.7l6.7-4.3c0.8-0.5,1.3-1.2,1.7-1.9c0.3,1,0.9,1.8,1.9,2.4c0.4,0.3,0.9,0.4,1.4,0.5
		c-0.2,0.1-0.5,0.2-0.7,0.4l-6.7,4.3c-2.1,1.3-2.7,4.1-1.4,6.2c0.9,1.3,2.3,2.1,3.8,2.1c0.8,0,1.7-0.2,2.4-0.7l6.7-4.3
		c0.8-0.5,1.4-1.2,1.7-2c0.3,1,1,1.8,1.9,2.4c0.4,0.3,0.9,0.5,1.4,0.6c-0.3,0.1-0.6,0.2-0.8,0.4l-6.7,4.3c-2.1,1.3-2.7,4.1-1.4,6.2
		c0.9,1.3,2.3,2.1,3.8,2.1c0.8,0,1.7-0.2,2.4-0.7l6.7-4.3c0.8-0.5,1.4-1.3,1.7-2.1c0.3,1,1,1.9,1.9,2.5c0.7,0.5,1.6,0.7,2.4,0.7
		c0.1,0,0.3,0,0.4,0c-0.2,1.3,0.1,2.7,1,3.8l5.3,6c0.6,0.7,1.4,1.2,2.3,1.4c-0.9,0.5-1.7,1.2-2.1,2.2c-0.2,0.5-0.3,1-0.3,1.5
		c-0.2-0.3-0.3-0.5-0.5-0.8l-5.3-6c-1.6-1.9-4.5-2-6.4-0.4s-2,4.5-0.4,6.4l5.3,6c0.2,0.2,0.4,0.4,0.6,0.6c-0.2,0.5-0.4,1-0.4,1.6
		c0,0.4,0.1,0.8,0.2,1.2c-0.1,0.1-0.2,0.3-0.2,0.4c-0.1,0.3-0.2,0.6-0.3,1h-4.1c0.6-0.6,1.1-1.5,1.1-2.5c0-1.9-1.6-3.5-3.5-3.5h-8
		c-1.9,0-3.5,1.6-3.5,3.5c0,1,0.4,1.9,1.1,2.5h-5.4c0.6-0.6,1.1-1.5,1.1-2.5c0-1.9-1.6-3.5-3.5-3.5h-8c-1.9,0-3.5,1.6-3.5,3.5
		c0,1,0.4,1.9,1.1,2.5h-5.4c0.6-0.6,1.1-1.5,1.1-2.5c0-1.9-1.6-3.5-3.5-3.5h-8c-1.9,0-3.5,1.6-3.5,3.5c0,1,0.4,1.9,1.1,2.5h-5.4
		c0.6-0.6,1.1-1.5,1.1-2.5c0-1.9-1.6-3.5-3.5-3.5h-8c-1.9,0-3.5,1.6-3.5,3.5c0,1,0.4,1.9,1.1,2.5h-5.4c0.6-0.6,1.1-1.5,1.1-2.5
		c0-1.9-1.6-3.5-3.5-3.5h-8c-0.2,0-0.3,0-0.5,0l4.1-4.7c1.6-1.9,1.5-4.7-0.4-6.4c-1.9-1.6-4.7-1.5-6.4,0.4l-5.3,6
		c-0.2,0.2-0.4,0.5-0.5,0.8c0-0.5-0.1-1-0.3-1.5c-0.4-1-1.2-1.8-2.1-2.2c0.8-0.2,1.6-0.7,2.3-1.4l5.3-6c1-1.1,1.3-2.5,1-3.8
		c0.1,0,0.3,0,0.4,0c0.8,0,1.6-0.2,2.4-0.7c1-0.6,1.6-1.5,1.9-2.5c0.3,0.8,0.9,1.6,1.7,2.1l6.7,4.3c0.8,0.5,1.6,0.7,2.4,0.7
		c1.5,0,2.9-0.7,3.8-2.1c1.3-2.1,0.7-4.9-1.4-6.2l-6.7-4.3c-0.3-0.2-0.5-0.3-0.8-0.4c0.5-0.1,1-0.3,1.4-0.6c0.9-0.6,1.6-1.4,1.9-2.4
		c0.3,0.8,0.9,1.5,1.7,2l6.7,4.3c0.8,0.5,1.6,0.7,2.4,0.7c1.5,0,2.9-0.7,3.8-2.1c1.3-2.1,0.7-4.9-1.4-6.2l-6.7-4.3
		c-0.2-0.1-0.5-0.3-0.7-0.4c0.5-0.1,0.9-0.3,1.4-0.5c0.9-0.6,1.5-1.4,1.9-2.4c0.3,0.8,0.9,1.4,1.7,1.9l6.7,4.3
		c0.8,0.5,1.6,0.7,2.4,0.7c1.5,0,2.9-0.7,3.8-2.1c1.3-2.1,0.7-4.9-1.4-6.2l-6.7-4.3c-0.2-0.1-0.4-0.2-0.6-0.3
		c0.5-0.1,0.9-0.3,1.3-0.5c2.1-1.3,2.8-4.1,1.5-6.2l-4.2-6.8c-1.3-2.1-4.1-2.8-6.2-1.5s-2.8,4.1-1.5,6.2l4.2,6.8
		c0.5,0.8,1.2,1.4,2,1.7c-1.1,0.3-2.1,0.9-2.7,1.9c-0.2,0.3-0.3,0.6-0.5,1c-0.1-0.2-0.1-0.3-0.2-0.5l-4.2-6.8
		c-1.3-2.1-4.1-2.8-6.2-1.5C109.2,82.9,108.5,85.6,109.8,87.8z M111.4,146.2h8c1.9,0,3.5-1.6,3.5-3.5c0-1-0.4-1.9-1.1-2.5h5.4
		c-0.6,0.6-1.1,1.5-1.1,2.5c0,1.9,1.6,3.5,3.5,3.5h8c1.9,0,3.5-1.6,3.5-3.5c0-1-0.4-1.9-1.1-2.5h5.4c-0.6,0.6-1.1,1.5-1.1,2.5
		c0,1.9,1.6,3.5,3.5,3.5h8c1.9,0,3.5-1.6,3.5-3.5c0-1-0.4-1.9-1.1-2.5h5.4c-0.6,0.6-1.1,1.5-1.1,2.5c0,1.9,1.6,3.5,3.5,3.5h8
		c1.9,0,3.5-1.6,3.5-3.5c0-1-0.4-1.9-1.1-2.5h5.4c-0.6,0.6-1.1,1.5-1.1,2.5c0,1.9,1.6,3.5,3.5,3.5h8c0.9,0,1.8-0.4,2.4-1l2.3,1h-3.7
		c-1.9,0-3.5,1.6-3.5,3.5c0,1,0.4,1.9,1.1,2.5h-5.4c0.6-0.6,1.1-1.5,1.1-2.5c0-1.9-1.6-3.5-3.5-3.5h-8c-1.9,0-3.5,1.6-3.5,3.5
		c0,1,0.4,1.9,1.1,2.5h-5.4c0.6-0.6,1.1-1.5,1.1-2.5c0-1.9-1.6-3.5-3.5-3.5h-8c-1.9,0-3.5,1.6-3.5,3.5c0,1,0.4,1.9,1.1,2.5H149
		c0.6-0.6,1.1-1.5,1.1-2.5c0-1.9-1.6-3.5-3.5-3.5h-8c-1.9,0-3.5,1.6-3.5,3.5c0,1,0.4,1.9,1.1,2.5h-5.4c0.6-0.6,1.1-1.5,1.1-2.5
		c0-1.9-1.6-3.5-3.5-3.5h-8c-1.9,0-3.5,1.6-3.5,3.5c0,1,0.4,1.9,1.1,2.5h-5.4c0.6-0.6,1.1-1.5,1.1-2.5c0-1.9-1.6-3.5-3.5-3.5h-8
		c-1.9,0-3.5,1.6-3.5,3.5c0,1,0.4,1.9,1.1,2.5h-5.4c0.6-0.6,1.1-1.5,1.1-2.5c0-1.6-1.1-3-2.6-3.4l0.3-0.1h0.1h8
		c1.9,0,3.5-1.6,3.5-3.5c0-1-0.4-1.9-1.1-2.5h5.4c-0.6,0.6-1.1,1.5-1.1,2.5C107.9,144.6,109.5,146.2,111.4,146.2z M98.6,136.3
		c-0.2-0.1-0.4-0.2-0.6-0.3c0.2-0.1,0.4-0.1,0.6-0.2C98.7,135.9,98.6,136.1,98.6,136.3z M95,135.6L95,135.6L95,135.6L95,135.6z
		 M195.5,110.8l3.1-5c0.1,0.8,0.5,1.5,1,2.2l5.3,6c0.6,0.7,1.3,1.1,2.2,1.3c-0.9,0.5-1.7,1.2-2.1,2.2c-0.2,0.5-0.3,1-0.3,1.4
		c-0.1-0.2-0.3-0.4-0.5-0.7l-5.3-6C198,111.3,196.8,110.8,195.5,110.8z M199,133.2h-1.5c0.2-0.4,0.3-0.9,0.3-1.3
		C198.2,132.3,198.5,132.8,199,133.2z M92.6,131.8c0,0.5,0.2,1.1,0.4,1.6c-0.4-0.1-0.8-0.2-1.2-0.2h-0.3
		C91.9,132.8,92.3,132.3,92.6,131.8z M91.5,112.3l-5.3,6c-0.2,0.2-0.3,0.4-0.5,0.7c0-0.5-0.1-1-0.3-1.4c-0.4-1-1.2-1.8-2.1-2.2
		c0.8-0.2,1.6-0.7,2.2-1.3l5.3-6c0.6-0.6,0.9-1.4,1-2.2l3.1,5C93.7,110.8,92.4,111.3,91.5,112.3z"/>
	<path style="fill:#BF0080;" d="M38.3,70.2l7.4-3.1c0.9-0.4,1.5-1,2-1.7c0.1,1.1,0.6,2.2,1.5,3c0.3,0.2,0.6,0.4,0.9,0.6
		c-0.2,0.1-0.4,0.1-0.5,0.2l-7.4,3.1c-2.3,1-3.4,3.6-2.4,5.9c0.7,1.7,2.4,2.7,4.1,2.7c0.6,0,1.2-0.1,1.8-0.4l7.4-3.1
		c0.9-0.4,1.6-1,2.1-1.8c0.1,1.1,0.6,2.2,1.5,3c0.3,0.3,0.6,0.5,0.9,0.6c-0.2,0.1-0.4,0.1-0.6,0.2l-7.4,3.1c-2.3,1-3.4,3.6-2.4,5.9
		c0.7,1.7,2.4,2.7,4.1,2.7c0.6,0,1.2-0.1,1.8-0.4l7.4-3.1c0.9-0.4,1.7-1.1,2.1-1.9c0.1,1.2,0.6,2.3,1.5,3.1c0.3,0.3,0.6,0.5,1,0.6
		c-0.3,0.1-0.5,0.1-0.7,0.2L57,92.7c-2.3,1-3.4,3.6-2.4,5.9c0.7,1.7,2.4,2.7,4.1,2.7c0.6,0,1.2-0.1,1.8-0.4l7.4-3.1
		c2.3-1,3.4-3.6,2.4-5.9c-0.4-1-1.2-1.8-2.1-2.3c0.9-0.2,1.7-0.7,2.4-1.4l5.3-6c1.6-1.9,1.5-4.7-0.4-6.4c-1.9-1.6-4.7-1.5-6.4,0.4
		l-5.3,6c-0.2,0.2-0.4,0.5-0.5,0.8c0-0.5-0.1-1-0.3-1.5c-0.4-1-1.2-1.8-2.1-2.2c0.8-0.2,1.6-0.7,2.3-1.4l5.3-6
		c1.6-1.9,1.5-4.7-0.4-6.4c-1.9-1.6-4.7-1.5-6.4,0.4l-5.3,6c-0.2,0.2-0.3,0.4-0.5,0.7c0-0.5-0.1-1-0.3-1.4c-0.4-1-1.2-1.8-2.1-2.2
		c0.8-0.2,1.6-0.7,2.2-1.3l5.3-6c1.6-1.9,1.5-4.7-0.4-6.4S55.7,54.1,54,56l-5.3,6c-0.2,0.2-0.3,0.4-0.4,0.6c0-0.5-0.1-0.9-0.3-1.4
		c-0.4-1-1.2-1.7-2-2.2c0.8-0.2,1.5-0.7,2-1.3l5.3-6c0.1-0.1,0.2-0.3,0.3-0.4c0.8,0.8,2,1.2,3.1,1.2c0.8,0,1.6-0.2,2.4-0.7
		c1-0.6,1.6-1.5,1.9-2.5c0.3,0.8,0.9,1.6,1.7,2.1l6.7,4.3c0.8,0.5,1.6,0.7,2.4,0.7c1.5,0,2.9-0.7,3.8-2.1c1.3-2.1,0.7-4.9-1.4-6.2
		l-6.7-4.3c-0.3-0.2-0.5-0.3-0.8-0.4c0.5-0.1,1-0.3,1.4-0.6c0.9-0.6,1.6-1.4,1.9-2.4c0.3,0.8,0.9,1.5,1.7,2l6.7,4.3
		c0.8,0.5,1.6,0.7,2.4,0.7c1.5,0,2.9-0.7,3.8-2.1c1.3-2.1,0.7-4.9-1.4-6.2l-6.7-4.3c-0.2-0.1-0.5-0.3-0.7-0.4
		c0.5-0.1,0.9-0.3,1.4-0.5c0.9-0.6,1.5-1.4,1.9-2.4c0.3,0.8,0.9,1.4,1.7,1.9l6.7,4.3c0.8,0.5,1.6,0.7,2.4,0.7c1.5,0,2.9-0.7,3.8-2.1
		c1.3-2.1,0.7-4.9-1.4-6.2L85.6,26c-0.2-0.1-0.4-0.2-0.6-0.3c0.5-0.1,0.9-0.3,1.3-0.5c0.9-0.6,1.5-1.4,1.9-2.3
		c0.4,0.7,0.9,1.4,1.6,1.8l6.7,4.3c0.8,0.5,1.6,0.7,2.4,0.7c1.5,0,2.9-0.7,3.8-2.1c1.3-2.1,0.7-4.9-1.4-6.2L94.6,17
		c-2.1-1.3-4.9-0.7-6.2,1.4c-0.2,0.3-0.3,0.6-0.4,0.9c-0.1-0.1-0.1-0.3-0.2-0.4l-4.2-6.8c-1.3-2.1-4.1-2.8-6.2-1.5s-2.8,4.1-1.5,6.2
		l4.2,6.8c0.5,0.8,1.2,1.4,2,1.7c-1.1,0.3-2.1,0.9-2.7,1.9c-0.2,0.3-0.3,0.6-0.5,1c-0.1-0.2-0.1-0.3-0.2-0.5L74.5,21
		c-1.3-2.1-4.1-2.8-6.2-1.5s-2.8,4.1-1.5,6.2l4.2,6.8c0.5,0.8,1.3,1.4,2.1,1.8c-1.1,0.3-2.1,0.9-2.8,2c-0.2,0.3-0.4,0.7-0.5,1
		c-0.1-0.2-0.2-0.4-0.3-0.6l-4.2-6.8c-1.3-2.1-4.1-2.8-6.2-1.5s-2.8,4.1-1.5,6.2l4.2,6.8c0.5,0.9,1.3,1.5,2.2,1.8
		c-1.1,0.2-2.1,0.9-2.8,2c-0.2,0.3-0.4,0.7-0.5,1.1c-0.1-0.2-0.2-0.5-0.3-0.7l-4.2-6.8c-1.3-2.1-4.1-2.8-6.2-1.5
		c-2.1,1.3-2.8,4.1-1.5,6.2l0.5,0.8c-1,0.2-1.9,0.6-2.6,1.4l-5.3,6c-1.6,1.9-1.5,4.7,0.4,6.4c0.3,0.2,0.6,0.4,0.9,0.6
		c-0.1,0-0.3,0.1-0.4,0.1l-7.4,3.1c-2.3,1-3.4,3.6-2.4,5.9c0.7,1.7,2.4,2.7,4.1,2.7C37.1,70.5,37.7,70.4,38.3,70.2z"/>
	<path style="fill:#BF0080;" d="M376,436.1l-7.2-3.5c-2.2-1.1-4.9-0.1-6,2.1s-0.1,4.9,2.1,6l7.2,3.5c0.6,0.3,1.3,0.4,1.9,0.4
		c1.7,0,3.3-0.9,4.1-2.6C379.2,439.9,378.3,437.2,376,436.1z"/>
	<path style="fill:#BF0080;" d="M368.1,446.1l-7.2-3.5c-0.5-0.2-1.1-0.4-1.6-0.4c0.4-0.2,0.8-0.4,1.2-0.7c1.9-1.6,2.1-4.5,0.4-6.3
		l-5.2-6c-1.6-1.9-4.5-2.1-6.3-0.4c-1.9,1.6-2.1,4.5-0.4,6.3l5.2,6c0.8,0.9,1.9,1.4,3.1,1.5c-1,0.4-1.8,1.2-2.3,2.2
		c-1.1,2.2-0.1,4.9,2.1,6l7.2,3.5c0.6,0.3,1.3,0.4,1.9,0.4c1.7,0,3.3-0.9,4.1-2.6C371.3,449.8,370.4,447.1,368.1,446.1z"/>
	<path style="fill:#BF0080;" d="M360.2,456l-7.2-3.5c-0.3-0.1-0.6-0.2-0.9-0.3c0.3-0.2,0.6-0.3,0.9-0.6c1.9-1.6,2.1-4.5,0.4-6.3
		l-5.2-6c-1.6-1.9-4.5-2.1-6.3-0.4c-1.9,1.6-2.1,4.5-0.4,6.3l5.2,6c0.6,0.7,1.5,1.2,2.4,1.4c-0.8,0.4-1.5,1.1-2,2
		c-0.3,0.7-0.4,1.4-0.4,2.1c-0.2-0.4-0.4-0.8-0.7-1.2l-5.2-6c-1.6-1.9-4.5-2.1-6.3-0.4c-1.9,1.6-2.1,4.5-0.4,6.3l5.2,6
		c0.5,0.6,1.2,1,1.9,1.3c-0.8,0.4-1.4,1.1-1.8,1.9c-0.3,0.5-0.4,1.1-0.4,1.7c-0.1-0.2-0.2-0.4-0.4-0.5l-5.2-6
		c-1.6-1.9-4.5-2.1-6.3-0.4s-2.1,4.5-0.4,6.3l5.2,6c0.9,1,2.1,1.5,3.4,1.5c1,0,2.1-0.4,2.9-1.1c0.9-0.8,1.5-2,1.5-3.1
		c0.4,0.7,1,1.3,1.8,1.6l7.2,3.5c0.6,0.3,1.3,0.4,1.9,0.4c1.7,0,3.3-0.9,4.1-2.6c1.1-2.2,0.1-4.9-2.1-6l-7.2-3.5
		c-0.1-0.1-0.3-0.1-0.4-0.1c0.2-0.1,0.5-0.3,0.7-0.5c1.1-0.9,1.6-2.2,1.5-3.5c0.4,1,1.1,1.8,2.2,2.3l7.2,3.5
		c0.6,0.3,1.3,0.4,1.9,0.4c1.7,0,3.3-0.9,4.1-2.6C363.4,459.8,362.5,457.1,360.2,456z"/>
	<path style="fill:#BF0080;" d="M205.2,175.7c0-1.9-1.6-3.5-3.5-3.5h-8c-1.9,0-3.5,1.6-3.5,3.5c0,1,0.4,1.9,1.1,2.5h-5.4
		c0.6-0.6,1.1-1.5,1.1-2.5c0-1.9-1.6-3.5-3.5-3.5h-8c-1.9,0-3.5,1.6-3.5,3.5c0,1,0.4,1.9,1.1,2.5h-5.4c0.6-0.6,1.1-1.5,1.1-2.5
		c0-1.9-1.6-3.5-3.5-3.5h-8c-1.9,0-3.5,1.6-3.5,3.5c0,1,0.4,1.9,1.1,2.5h-5.4c0.6-0.6,1.1-1.5,1.1-2.5c0-1.9-1.6-3.5-3.5-3.5h-8
		c-1.9,0-3.5,1.6-3.5,3.5c0,1,0.4,1.9,1.1,2.5h-5.4c0.6-0.6,1.1-1.5,1.1-2.5c0-1.9-1.6-3.5-3.5-3.5h-8c-1.9,0-3.5,1.6-3.5,3.5
		c0,1,0.4,1.9,1.1,2.5h-5.4c0.6-0.6,1.1-1.5,1.1-2.5c0-1.9-1.6-3.5-3.5-3.5h-8c-1.9,0-3.5,1.6-3.5,3.5c0,1,0.4,1.9,1.1,2.5h-5.4
		c0.6-0.6,1.1-1.5,1.1-2.5c0-1.9-1.6-3.5-3.5-3.5h-8c-1.9,0-3.5,1.6-3.5,3.5c0,1,0.4,1.9,1.1,2.5h-5.4c0.6-0.6,1.1-1.5,1.1-2.5
		c0-1.9-1.6-3.5-3.5-3.5h-8c-1.9,0-3.5,1.6-3.5,3.5c0,1,0.4,1.9,1.1,2.5h-5.4c0.6-0.6,1.1-1.5,1.1-2.5c0-1.9-1.6-3.5-3.5-3.5h-8
		c-1.9,0-3.5,1.6-3.5,3.5c0,1,0.4,1.9,1.1,2.5h-6.6c-1.9,0-3.5,1.6-3.5,3.5s1.6,3.5,3.5,3.5h8c1.9,0,3.5-1.6,3.5-3.5
		c0-1-0.4-1.9-1.1-2.5H54c-0.6,0.6-1.1,1.5-1.1,2.5c0,1.9,1.6,3.5,3.5,3.5h8c1.9,0,3.5-1.6,3.5-3.5c0-1-0.4-1.9-1.1-2.5h5.4
		c-0.6,0.6-1.1,1.5-1.1,2.5c0,1.9,1.6,3.5,3.5,3.5h8c1.9,0,3.5-1.6,3.5-3.5c0-1-0.4-1.9-1.1-2.5h5.4c-0.6,0.6-1.1,1.5-1.1,2.5
		c0,1.9,1.6,3.5,3.5,3.5h8c1.9,0,3.5-1.6,3.5-3.5c0-1-0.4-1.9-1.1-2.5h5.4c-0.6,0.6-1.1,1.5-1.1,2.5c0,1.9,1.6,3.5,3.5,3.5h8
		c1.9,0,3.5-1.6,3.5-3.5c0-1-0.4-1.9-1.1-2.5h5.4c-0.6,0.6-1.1,1.5-1.1,2.5c0,1.9,1.6,3.5,3.5,3.5h8c1.9,0,3.5-1.6,3.5-3.5
		c0-1-0.4-1.9-1.1-2.5h5.4c-0.6,0.6-1.1,1.5-1.1,2.5c0,1.9,1.6,3.5,3.5,3.5h8c1.9,0,3.5-1.6,3.5-3.5c0-1-0.4-1.9-1.1-2.5h5.4
		c-0.6,0.6-1.1,1.5-1.1,2.5c0,1.9,1.6,3.5,3.5,3.5h8c1.9,0,3.5-1.6,3.5-3.5c0-1-0.4-1.9-1.1-2.5h5.4c-0.6,0.6-1.1,1.5-1.1,2.5
		c0,1.9,1.6,3.5,3.5,3.5h8c1.9,0,3.5-1.6,3.5-3.5c0-1-0.4-1.9-1.1-2.5h6.6C203.7,179.2,205.2,177.6,205.2,175.7z"/>
	<path style="fill:#BF0080;" d="M95.2,162.7c0-1.9-1.6-3.5-3.5-3.5h-8c-1.9,0-3.5,1.6-3.5,3.5s1.6,3.5,3.5,3.5h6.9
		c-0.6,0.6-1.1,1.5-1.1,2.5c0,1.9,1.6,3.5,3.5,3.5h8c1.9,0,3.5-1.6,3.5-3.5c0-1-0.4-1.9-1.1-2.5h5.4c-0.6,0.6-1.1,1.5-1.1,2.5
		c0,1.9,1.6,3.5,3.5,3.5h8c1.9,0,3.5-1.6,3.5-3.5c0-1-0.4-1.9-1.1-2.5h5.4c-0.6,0.6-1.1,1.5-1.1,2.5c0,1.9,1.6,3.5,3.5,3.5h8
		c1.9,0,3.5-1.6,3.5-3.5c0-1-0.4-1.9-1.1-2.5h5.4c-0.6,0.6-1.1,1.5-1.1,2.5c0,1.9,1.6,3.5,3.5,3.5h8c1.9,0,3.5-1.6,3.5-3.5
		c0-1-0.4-1.9-1.1-2.5h5.4c-0.6,0.6-1.1,1.5-1.1,2.5c0,1.9,1.6,3.5,3.5,3.5h8c1.9,0,3.5-1.6,3.5-3.5c0-1-0.4-1.9-1.1-2.5h5.4
		c-0.6,0.6-1.1,1.5-1.1,2.5c0,1.9,1.6,3.5,3.5,3.5h8c1.9,0,3.5-1.6,3.5-3.5c0-1-0.4-1.9-1.1-2.5h6.6c1.9,0,3.5-1.6,3.5-3.5
		s-1.6-3.5-3.5-3.5h-8c-1.9,0-3.5,1.6-3.5,3.5c0,1,0.4,1.9,1.1,2.5h-5.4c0.6-0.6,1.1-1.5,1.1-2.5c0-1.9-1.6-3.5-3.5-3.5h-8
		c-1.9,0-3.5,1.6-3.5,3.5c0,1,0.4,1.9,1.1,2.5H167c0.6-0.6,1.1-1.5,1.1-2.5c0-1.9-1.6-3.5-3.5-3.5h-8c-1.9,0-3.5,1.6-3.5,3.5
		c0,1,0.4,1.9,1.1,2.5h-5.4c0.6-0.6,1.1-1.5,1.1-2.5c0-1.9-1.6-3.5-3.5-3.5h-8c-1.9,0-3.5,1.6-3.5,3.5c0,1,0.4,1.9,1.1,2.5h-5.4
		c0.6-0.6,1.1-1.5,1.1-2.5c0-1.9-1.6-3.5-3.5-3.5h-8c-1.9,0-3.5,1.6-3.5,3.5c0,1,0.4,1.9,1.1,2.5h-5.4c0.6-0.6,1.1-1.5,1.1-2.5
		c0-1.9-1.6-3.5-3.5-3.5h-8c-1.9,0-3.5,1.6-3.5,3.5c0,1,0.4,1.9,1.1,2.5h-5.4C94.8,164.5,95.2,163.6,95.2,162.7z"/>
	<path style="fill:#BF0080;" d="M328,349c0.4,0.1,0.8,0.2,1.1,0.2c0.3,0,0.7,0,1-0.1l7.8-1.7c2.4-0.5,4-3,3.4-5.4
		c-0.5-2.4-2.9-3.9-5.4-3.4l-7.8,1.7c-1.2,0.3-2.1,1-2.7,1.9H319c-1.9,0-3.5,1.6-3.5,3.5c0,1,0.4,1.9,1.1,2.5h-5.4
		c0.7-0.6,1.1-1.5,1.1-2.5c0-1.9-1.6-3.5-3.5-3.5h-8c-1.9,0-3.5,1.6-3.5,3.5c0,1,0.4,1.9,1.1,2.5H293c0.7-0.6,1.1-1.5,1.1-2.5
		c0-1.9-1.6-3.5-3.5-3.5h-8c-1.9,0-3.5,1.6-3.5,3.5c0,1,0.4,1.9,1.1,2.5h-5.4c0.7-0.6,1.1-1.5,1.1-2.5c0-1.9-1.6-3.5-3.5-3.5h-8
		c-1.9,0-3.5,1.6-3.5,3.5c0,1,0.4,1.9,1.1,2.5h-5.4c0.6-0.6,1.1-1.5,1.1-2.5c0-1.9-1.6-3.5-3.5-3.5h-8c-1.9,0-3.5,1.6-3.5,3.5
		c0,1,0.4,1.9,1.1,2.5h-5.4c0.6-0.6,1.1-1.5,1.1-2.5c0-1.9-1.6-3.5-3.5-3.5h-8c-1.9,0-3.5,1.6-3.5,3.5c0,1,0.4,1.9,1.1,2.5h-5.4
		c0.6-0.6,1.1-1.5,1.1-2.5c0-1.9-1.6-3.5-3.5-3.5h-8c-1.9,0-3.5,1.6-3.5,3.5c0,1,0.4,1.9,1.1,2.5H202c0.6-0.6,1.1-1.5,1.1-2.5
		c0-1.9-1.6-3.5-3.5-3.5h-8c-1.9,0-3.5,1.6-3.5,3.5c0,1,0.4,1.9,1.1,2.5h-5.4c0.6-0.6,1.1-1.5,1.1-2.5c0-1.9-1.6-3.5-3.5-3.5h-8
		c-1.9,0-3.5,1.6-3.5,3.5c0,1,0.4,1.9,1.1,2.5h-5.4c0.6-0.6,1.1-1.5,1.1-2.5c0-1.9-1.6-3.5-3.5-3.5h-8c-1.9,0-3.5,1.6-3.5,3.5
		c0,1,0.4,1.9,1.1,2.5h-6.6c-1.9,0-3.5,1.6-3.5,3.5s1.6,3.5,3.5,3.5h8c1.9,0,3.5-1.6,3.5-3.5c0-1-0.4-1.9-1.1-2.5h5.4
		c-0.6,0.6-1.1,1.5-1.1,2.5c0,1.9,1.6,3.5,3.5,3.5h8c1.9,0,3.5-1.6,3.5-3.5c0-1-0.4-1.9-1.1-2.5h5.4c-0.6,0.6-1.1,1.5-1.1,2.5
		c0,1.9,1.6,3.5,3.5,3.5h8c1.9,0,3.5-1.6,3.5-3.5c0-1-0.4-1.9-1.1-2.5h5.4c-0.6,0.6-1.1,1.5-1.1,2.5c0,1.9,1.6,3.5,3.5,3.5h8
		c1.9,0,3.5-1.6,3.5-3.5c0-1-0.4-1.9-1.1-2.5h5.4c-0.6,0.6-1.1,1.5-1.1,2.5c0,1.9,1.6,3.5,3.5,3.5h8c1.9,0,3.5-1.6,3.5-3.5
		c0-1-0.4-1.9-1.1-2.5h5.4c-0.6,0.6-1.1,1.5-1.1,2.5c0,1.9,1.6,3.5,3.5,3.5h8c1.9,0,3.5-1.6,3.5-3.5c0-1-0.4-1.9-1.1-2.5h5.4
		c-0.6,0.6-1.1,1.5-1.1,2.5c0,1.9,1.6,3.5,3.5,3.5h8c1.9,0,3.5-1.6,3.5-3.5c0-1-0.4-1.9-1.1-2.5h5.4c-0.7,0.6-1.1,1.5-1.1,2.5
		c0,1.9,1.6,3.5,3.5,3.5h8c1.9,0,3.5-1.6,3.5-3.5c0-1-0.4-1.9-1.1-2.5h5.4c-0.7,0.6-1.1,1.5-1.1,2.5c0,1.9,1.6,3.5,3.5,3.5h8
		c1.9,0,3.5-1.6,3.5-3.5c0-1-0.4-1.9-1.1-2.5h5.4c-0.7,0.6-1.1,1.5-1.1,2.5c0,1.9,1.6,3.5,3.5,3.5h8c1.9,0,3.5-1.6,3.5-3.5
		c0-1-0.4-1.9-1.1-2.5h6.6C327.4,349.2,327.7,349.1,328,349z"/>
	<path style="fill:#BF0080;" d="M141.6,315.7c0,1.9,1.6,3.5,3.5,3.5h8c1.9,0,3.5-1.6,3.5-3.5c0-1-0.4-1.9-1.1-2.5h5.4
		c-0.6,0.6-1.1,1.5-1.1,2.5c0,1.9,1.6,3.5,3.5,3.5h8c1.9,0,3.5-1.6,3.5-3.5c0-1-0.4-1.9-1.1-2.5h5.4c-0.6,0.6-1.1,1.5-1.1,2.5
		c0,1.9,1.6,3.5,3.5,3.5h8c1.9,0,3.5-1.6,3.5-3.5c0-1-0.4-1.9-1.1-2.5h5.4c-0.6,0.6-1.1,1.5-1.1,2.5c0,1.9,1.6,3.5,3.5,3.5h8
		c1.9,0,3.5-1.6,3.5-3.5c0-1-0.4-1.9-1.1-2.5h5.4c-0.6,0.6-1.1,1.5-1.1,2.5c0,1.9,1.6,3.5,3.5,3.5h8c1.9,0,3.5-1.6,3.5-3.5
		c0-1-0.4-1.9-1.1-2.5h5.4c-0.6,0.6-1.1,1.5-1.1,2.5c0,1.9,1.6,3.5,3.5,3.5h8c1.9,0,3.5-1.6,3.5-3.5c0-1-0.4-1.9-1.1-2.5h5.4
		c-0.6,0.6-1.1,1.5-1.1,2.5c0,1.9,1.6,3.5,3.5,3.5h8c1.9,0,3.5-1.6,3.5-3.5c0-1-0.4-1.9-1.1-2.5h5.4c-0.7,0.6-1.1,1.5-1.1,2.5
		c0,1.9,1.6,3.5,3.5,3.5h8c1.9,0,3.5-1.6,3.5-3.5c0-1-0.4-1.9-1.1-2.5h5.4c-0.7,0.6-1.1,1.5-1.1,2.5c0,1.9,1.6,3.5,3.5,3.5h8
		c1.9,0,3.5-1.6,3.5-3.5c0-1-0.4-1.9-1.1-2.5h5.4c-0.7,0.6-1.1,1.5-1.1,2.5c0,1.9,1.6,3.5,3.5,3.5h8c1.9,0,3.5-1.6,3.5-3.5
		c0-1-0.4-1.9-1.1-2.5h6.6c1.5,0,2.8-0.9,3.3-2.3l7.6-1.7c2.4-0.5,4-2.9,3.4-5.4c-0.5-2.4-2.9-4-5.4-3.4l-7.8,1.7
		c-2,0.4-3.3,2.1-3.5,4h-5.6c-1.9,0-3.5,1.6-3.5,3.5c0,1,0.4,1.9,1.1,2.5h-5.4c0.7-0.6,1.1-1.5,1.1-2.5c0-1.9-1.6-3.5-3.5-3.5h-8
		c-1.9,0-3.5,1.6-3.5,3.5c0,1,0.4,1.9,1.1,2.5h-5.4c0.7-0.6,1.1-1.5,1.1-2.5c0-1.9-1.6-3.5-3.5-3.5h-8c-1.9,0-3.5,1.6-3.5,3.5
		c0,1,0.4,1.9,1.1,2.5h-5.4c0.7-0.6,1.1-1.5,1.1-2.5c0-1.9-1.6-3.5-3.5-3.5h-8c-1.9,0-3.5,1.6-3.5,3.5c0,1,0.4,1.9,1.1,2.5h-5.4
		c0.6-0.6,1.1-1.5,1.1-2.5c0-1.9-1.6-3.5-3.5-3.5h-8c-1.9,0-3.5,1.6-3.5,3.5c0,1,0.4,1.9,1.1,2.5h-5.4c0.6-0.6,1.1-1.5,1.1-2.5
		c0-1.9-1.6-3.5-3.5-3.5h-8c-1.9,0-3.5,1.6-3.5,3.5c0,1,0.4,1.9,1.1,2.5h-5.4c0.6-0.6,1.1-1.5,1.1-2.5c0-1.9-1.6-3.5-3.5-3.5h-8
		c-1.9,0-3.5,1.6-3.5,3.5c0,1,0.4,1.9,1.1,2.5h-5.4c0.6-0.6,1.1-1.5,1.1-2.5c0-1.9-1.6-3.5-3.5-3.5h-8c-1.9,0-3.5,1.6-3.5,3.5
		c0,1,0.4,1.9,1.1,2.5h-5.4c0.6-0.6,1.1-1.5,1.1-2.5c0-1.9-1.6-3.5-3.5-3.5h-8c-1.9,0-3.5,1.6-3.5,3.5c0,1,0.4,1.9,1.1,2.5h-5.4
		c0.6-0.6,1.1-1.5,1.1-2.5c0-1.9-1.6-3.5-3.5-3.5h-8c-1.9,0-3.5,1.6-3.5,3.5c0,1,0.4,1.9,1.1,2.5h-6.6
		C143.1,312.2,141.6,313.7,141.6,315.7z"/>
	<path style="fill:#BF0080;" d="M141.6,279.7c0,1.9,1.6,3.5,3.5,3.5h8c1.9,0,3.5-1.6,3.5-3.5c0-1-0.4-1.9-1.1-2.5h5.4
		c-0.6,0.6-1.1,1.5-1.1,2.5c0,1.9,1.6,3.5,3.5,3.5h8c1.9,0,3.5-1.6,3.5-3.5c0-1-0.4-1.9-1.1-2.5h5.4c-0.6,0.6-1.1,1.5-1.1,2.5
		c0,1.9,1.6,3.5,3.5,3.5h8c1.9,0,3.5-1.6,3.5-3.5c0-1-0.4-1.9-1.1-2.5h5.4c-0.6,0.6-1.1,1.5-1.1,2.5c0,1.9,1.6,3.5,3.5,3.5h8
		c1.9,0,3.5-1.6,3.5-3.5c0-1-0.4-1.9-1.1-2.5h5.4c-0.6,0.6-1.1,1.5-1.1,2.5c0,1.9,1.6,3.5,3.5,3.5h8c1.9,0,3.5-1.6,3.5-3.5
		c0-1-0.4-1.9-1.1-2.5h5.4c-0.6,0.6-1.1,1.5-1.1,2.5c0,1.9,1.6,3.5,3.5,3.5h8c1.9,0,3.5-1.6,3.5-3.5c0-1-0.4-1.9-1.1-2.5h5.4
		c-0.6,0.6-1.1,1.5-1.1,2.5c0,1.9,1.6,3.5,3.5,3.5h8c1.9,0,3.5-1.6,3.5-3.5c0-1-0.4-1.9-1.1-2.5h5.4c-0.7,0.6-1.1,1.5-1.1,2.5
		c0,1.9,1.6,3.5,3.5,3.5h8c1.9,0,3.5-1.6,3.5-3.5c0-1-0.4-1.9-1.1-2.5h5.4c-0.7,0.6-1.1,1.5-1.1,2.5c0,1.9,1.6,3.5,3.5,3.5h8
		c1.9,0,3.5-1.6,3.5-3.5c0-1-0.4-1.9-1.1-2.5h5.4c-0.7,0.6-1.1,1.5-1.1,2.5c0,1.9,1.6,3.5,3.5,3.5h8c1.9,0,3.5-1.6,3.5-3.5
		c0-1-0.4-1.9-1.1-2.5h6.5c-1.7,0.9-2.7,2.9-2.3,4.9c0.5,2.1,2.3,3.5,4.4,3.5c0.3,0,0.7,0,1-0.1l7.8-1.7c2.4-0.5,4-3,3.4-5.4
		c-0.5-2.4-2.9-3.9-5.4-3.4l-6.9,1.5c0.9-0.6,1.5-1.7,1.5-2.9c0-0.3-0.1-0.6-0.1-0.9l7.5-1.7c2.4-0.5,4-3,3.4-5.4
		c-0.5-2.4-2.9-3.9-5.4-3.4l-7.8,1.7c-2.4,0.5-4,3-3.4,5.4c0.1,0.3,0.1,0.5,0.3,0.8h-6c-1.9,0-3.5,1.6-3.5,3.5c0,1,0.4,1.9,1.1,2.5
		H310c0.7-0.6,1.1-1.5,1.1-2.5c0-1.9-1.6-3.5-3.5-3.5h-8c-1.9,0-3.5,1.6-3.5,3.5c0,1,0.4,1.9,1.1,2.5h-5.4c0.7-0.6,1.1-1.5,1.1-2.5
		c0-1.9-1.6-3.5-3.5-3.5h-8c-1.9,0-3.5,1.6-3.5,3.5c0,1,0.4,1.9,1.1,2.5h-5.4c0.7-0.6,1.1-1.5,1.1-2.5c0-1.9-1.6-3.5-3.5-3.5h-8
		c-1.9,0-3.5,1.6-3.5,3.5c0,1,0.4,1.9,1.1,2.5h-5.4c0.6-0.6,1.1-1.5,1.1-2.5c0-1.9-1.6-3.5-3.5-3.5h-8c-1.9,0-3.5,1.6-3.5,3.5
		c0,1,0.4,1.9,1.1,2.5h-5.4c0.6-0.6,1.1-1.5,1.1-2.5c0-1.9-1.6-3.5-3.5-3.5h-8c-1.9,0-3.5,1.6-3.5,3.5c0,1,0.4,1.9,1.1,2.5H219
		c0.6-0.6,1.1-1.5,1.1-2.5c0-1.9-1.6-3.5-3.5-3.5h-8c-1.9,0-3.5,1.6-3.5,3.5c0,1,0.4,1.9,1.1,2.5h-5.4c0.6-0.6,1.1-1.5,1.1-2.5
		c0-1.9-1.6-3.5-3.5-3.5h-8c-1.9,0-3.5,1.6-3.5,3.5c0,1,0.4,1.9,1.1,2.5h-5.4c0.6-0.6,1.1-1.5,1.1-2.5c0-1.9-1.6-3.5-3.5-3.5h-8
		c-1.9,0-3.5,1.6-3.5,3.5c0,1,0.4,1.9,1.1,2.5h-5.4c0.6-0.6,1.1-1.5,1.1-2.5c0-1.9-1.6-3.5-3.5-3.5h-8c-1.9,0-3.5,1.6-3.5,3.5
		c0,1,0.4,1.9,1.1,2.5H145C143.1,276.2,141.6,277.7,141.6,279.7z"/>
	<path style="fill:#BF0080;" d="M144.6,238.7c0-1.9-1.6-3.5-3.5-3.5h-6c-0.8-2-3-3.1-5.1-2.6l-7.8,1.7c-2.4,0.5-4,2.9-3.4,5.4
		c0.5,2.1,2.3,3.5,4.4,3.5c0.3,0,0.7,0,1-0.1l6.9-1.5c0.6,0.4,1.3,0.6,2,0.6h8C143,242.2,144.6,240.6,144.6,238.7z"/>
	<path style="fill:#BF0080;" d="M183.9,238.7c0-1.9-1.6-3.5-3.5-3.5h-8c-1.9,0-3.5,1.6-3.5,3.5c0,1,0.4,1.9,1.1,2.5h-5.4
		c0.6-0.6,1.1-1.5,1.1-2.5c0-1.9-1.6-3.5-3.5-3.5h-8c-1.9,0-3.5,1.6-3.5,3.5c0,1,0.4,1.9,1.1,2.5h-6.6c-1.9,0-3.5,1.6-3.5,3.5
		s1.6,3.5,3.5,3.5h8c1.9,0,3.5-1.6,3.5-3.5c0-1-0.4-1.9-1.1-2.5h5.4c-0.6,0.6-1.1,1.5-1.1,2.5c0,1.9,1.6,3.5,3.5,3.5h8
		c1.9,0,3.5-1.6,3.5-3.5c0-1-0.4-1.9-1.1-2.5h6.6C182.3,242.2,183.9,240.6,183.9,238.7z"/>
	<path style="fill:#BF0080;" d="M133.1,217.2c-1.7,0-3.1,1.2-3.4,2.7l-7.5,1.7c-2.4,0.5-4,2.9-3.4,5.4c0.5,2.1,2.3,3.5,4.4,3.5
		c0.3,0,0.7,0,1-0.1l7.8-1.7c2.1-0.5,3.5-2.4,3.5-4.4h5.6c1.9,0,3.5-1.6,3.5-3.5s-1.6-3.5-3.5-3.5L133.1,217.2L133.1,217.2z"/>
	<path style="fill:#BF0080;" d="M180.4,217.2h-8c-1.9,0-3.5,1.6-3.5,3.5c0,1,0.4,1.9,1.1,2.5h-5.4c0.6-0.6,1.1-1.5,1.1-2.5
		c0-1.9-1.6-3.5-3.5-3.5h-8c-1.9,0-3.5,1.6-3.5,3.5c0,1,0.4,1.9,1.1,2.5h-6.6c-1.9,0-3.5,1.6-3.5,3.5s1.6,3.5,3.5,3.5h8
		c1.9,0,3.5-1.6,3.5-3.5c0-1-0.4-1.9-1.1-2.5h5.4c-0.6,0.6-1.1,1.5-1.1,2.5c0,1.9,1.6,3.5,3.5,3.5h8c1.9,0,3.5-1.6,3.5-3.5
		c0-1-0.4-1.9-1.1-2.5h6.6c1.9,0,3.5-1.6,3.5-3.5S182.3,217.2,180.4,217.2z"/>
	<path style="fill:#BF0080;" d="M141.6,210.7c0,1.9,1.6,3.5,3.5,3.5h8c1.9,0,3.5-1.6,3.5-3.5c0-1-0.4-1.9-1.1-2.5h5.4
		c-0.6,0.6-1.1,1.5-1.1,2.5c0,1.9,1.6,3.5,3.5,3.5h8c1.9,0,3.5-1.6,3.5-3.5c0-1-0.4-1.9-1.1-2.5h6.6c1.9,0,3.5-1.6,3.5-3.5
		s-1.6-3.5-3.5-3.5h-8c-1.9,0-3.5,1.6-3.5,3.5c0,1,0.4,1.9,1.1,2.5h-5.4c0.6-0.6,1.1-1.5,1.1-2.5c0-1.9-1.6-3.5-3.5-3.5h-8
		c-1.9,0-3.5,1.6-3.5,3.5c0,1,0.4,1.9,1.1,2.5h-6.6C143.1,207.2,141.6,208.7,141.6,210.7z"/>
	<path style="fill:#BF0080;" d="M282.4,252.2c-1.9,0-3.5,1.6-3.5,3.5c0,1,0.4,1.9,1.1,2.5h-5.4c0.7-0.6,1.1-1.5,1.1-2.5
		c0-1.9-1.6-3.5-3.5-3.5h-8c-1.9,0-3.5,1.6-3.5,3.5c0,1,0.4,1.9,1.1,2.5h-5.4c0.6-0.6,1.1-1.5,1.1-2.5c0-1.9-1.6-3.5-3.5-3.5h-8
		c-1.9,0-3.5,1.6-3.5,3.5c0,1,0.4,1.9,1.1,2.5h-5.4c0.6-0.6,1.1-1.5,1.1-2.5c0-1.9-1.6-3.5-3.5-3.5h-8c-1.9,0-3.5,1.6-3.5,3.5
		c0,1,0.4,1.9,1.1,2.5H220c0.6-0.6,1.1-1.5,1.1-2.5c0-1.9-1.6-3.5-3.5-3.5h-8c-1.9,0-3.5,1.6-3.5,3.5c0,1,0.4,1.9,1.1,2.5h-5.4
		c0.6-0.6,1.1-1.5,1.1-2.5c0-1.9-1.6-3.5-3.5-3.5h-8c-1.9,0-3.5,1.6-3.5,3.5c0,1,0.4,1.9,1.1,2.5h-5.4c0.6-0.6,1.1-1.5,1.1-2.5
		c0-1.9-1.6-3.5-3.5-3.5h-8c-1.9,0-3.5,1.6-3.5,3.5c0,1,0.4,1.9,1.1,2.5h-5.4c0.6-0.6,1.1-1.5,1.1-2.5c0-1.9-1.6-3.5-3.5-3.5h-8
		c-1.9,0-3.5,1.6-3.5,3.5c0,1,0.4,1.9,1.1,2.5H146c-1.9,0-3.5,1.6-3.5,3.5s1.6,3.5,3.5,3.5h8c1.9,0,3.5-1.6,3.5-3.5
		c0-1-0.4-1.9-1.1-2.5h5.4c-0.6,0.6-1.1,1.5-1.1,2.5c0,1.9,1.6,3.5,3.5,3.5h8c1.9,0,3.5-1.6,3.5-3.5c0-1-0.4-1.9-1.1-2.5h5.4
		c-0.6,0.6-1.1,1.5-1.1,2.5c0,1.9,1.6,3.5,3.5,3.5h8c1.9,0,3.5-1.6,3.5-3.5c0-1-0.4-1.9-1.1-2.5h5.4c-0.6,0.6-1.1,1.5-1.1,2.5
		c0,1.9,1.6,3.5,3.5,3.5h8c1.9,0,3.5-1.6,3.5-3.5c0-1-0.4-1.9-1.1-2.5h5.4c-0.6,0.6-1.1,1.5-1.1,2.5c0,1.9,1.6,3.5,3.5,3.5h8
		c1.9,0,3.5-1.6,3.5-3.5c0-1-0.4-1.9-1.1-2.5h5.4c-0.6,0.6-1.1,1.5-1.1,2.5c0,1.9,1.6,3.5,3.5,3.5h8c1.9,0,3.5-1.6,3.5-3.5
		c0-1-0.4-1.9-1.1-2.5h5.4c-0.6,0.6-1.1,1.5-1.1,2.5c0,1.9,1.6,3.5,3.5,3.5h8c1.9,0,3.5-1.6,3.5-3.5c0-1-0.4-1.9-1.1-2.5h5.4
		c-0.7,0.6-1.1,1.5-1.1,2.5c0,1.9,1.6,3.5,3.5,3.5h8c1.9,0,3.5-1.6,3.5-3.5c0-1-0.4-1.9-1.1-2.5h5.4c-0.7,0.6-1.1,1.5-1.1,2.5
		c0,1.9,1.6,3.5,3.5,3.5h8c1.9,0,3.5-1.6,3.5-3.5c0-1-0.4-1.9-1.1-2.5h5.4c-0.7,0.6-1.1,1.5-1.1,2.5c0,1.9,1.6,3.5,3.5,3.5h8
		c1.9,0,3.5-1.6,3.5-3.5c0-1-0.4-1.9-1.1-2.5h5.1c0.8,1.1,2.1,1.7,3.5,1.7c0.3,0,0.7,0,1-0.1l7.8-1.7c2.4-0.5,4-3,3.4-5.4
		c-0.5-2.4-2.9-3.9-5.4-3.4l-7.8,1.7c-0.2,0-0.4,0.1-0.6,0.2c-0.2,0-0.3,0-0.5,0h-8c-1.9,0-3.5,1.6-3.5,3.5c0,1,0.4,1.9,1.1,2.5
		h-5.4c0.7-0.6,1.1-1.5,1.1-2.5c0-1.9-1.6-3.5-3.5-3.5h-8c-1.9,0-3.5,1.6-3.5,3.5c0,1,0.4,1.9,1.1,2.5h-5.4c0.7-0.6,1.1-1.5,1.1-2.5
		c0-1.9-1.6-3.5-3.5-3.5L282.4,252.2L282.4,252.2z"/>
</g>
</svg>
